G04 #@! TF.GenerationSoftware,KiCad,Pcbnew,(2017-07-14 revision d3b382c28)-master*
G04 #@! TF.CreationDate,2017-07-21T01:22:26-04:00*
G04 #@! TF.ProjectId,MAGLabs-2017-Swadges,4D41474C6162732D323031372D537761,rev?*
G04 #@! TF.SameCoordinates,Original
G04 #@! TF.FileFunction,Soldermask,Top*
G04 #@! TF.FilePolarity,Negative*
%FSLAX46Y46*%
G04 Gerber Fmt 4.6, Leading zero omitted, Abs format (unit mm)*
G04 Created by KiCad (PCBNEW (2017-07-14 revision d3b382c28)-master) date Fri Jul 21 01:22:26 2017*
%MOMM*%
%LPD*%
G01*
G04 APERTURE LIST*
%ADD10R,1.300000X1.300000*%
%ADD11R,1.600000X2.400000*%
%ADD12R,2.400000X1.600000*%
%ADD13O,2.100000X2.100000*%
%ADD14R,2.100000X2.100000*%
%ADD15R,1.950000X1.700000*%
%ADD16R,1.300000X0.900000*%
%ADD17R,2.900000X4.400000*%
%ADD18R,5.400000X4.400000*%
%ADD19C,2.100000*%
%ADD20C,1.924000*%
%ADD21C,2.900000*%
%ADD22C,2.000000*%
%ADD23R,1.150000X1.200000*%
%ADD24R,1.200000X1.150000*%
%ADD25R,0.850000X1.000000*%
G04 APERTURE END LIST*
D10*
X116250000Y-107650000D03*
X111750000Y-107650000D03*
X116250000Y-104350000D03*
X111750000Y-104350000D03*
D11*
X138300000Y-104500000D03*
X136300000Y-104500000D03*
X134300000Y-104500000D03*
X132300000Y-104500000D03*
X130300000Y-104500000D03*
X128300000Y-104500000D03*
X126300000Y-104500000D03*
X124300000Y-104500000D03*
X138300000Y-88500000D03*
X136300000Y-88500000D03*
X134300000Y-88500000D03*
X132300000Y-88500000D03*
X130300000Y-88500000D03*
X128300000Y-88500000D03*
X126300000Y-88500000D03*
X124300000Y-88500000D03*
D12*
X122500000Y-91500000D03*
X122500000Y-93500000D03*
X122500000Y-95500000D03*
X122500000Y-101500000D03*
X122500000Y-99500000D03*
X122500000Y-97500000D03*
D13*
X104000000Y-75700000D03*
X104000000Y-73160000D03*
X104000000Y-70620000D03*
X104000000Y-68080000D03*
X104000000Y-65540000D03*
D14*
X104000000Y-63000000D03*
D15*
X147900000Y-127250000D03*
X155600000Y-127250000D03*
X155600000Y-131750000D03*
X147900000Y-131750000D03*
X151650000Y-112750000D03*
X159350000Y-112750000D03*
X159350000Y-117250000D03*
X151650000Y-117250000D03*
X141150000Y-146750000D03*
X148850000Y-146750000D03*
X148850000Y-151250000D03*
X141150000Y-151250000D03*
X123150000Y-146750000D03*
X130850000Y-146750000D03*
X130850000Y-151250000D03*
X123150000Y-151250000D03*
X130150000Y-120750000D03*
X137850000Y-120750000D03*
X137850000Y-125250000D03*
X130150000Y-125250000D03*
X120150000Y-129750000D03*
X127850000Y-129750000D03*
X127850000Y-134250000D03*
X120150000Y-134250000D03*
X110150000Y-120750000D03*
X117850000Y-120750000D03*
X117850000Y-125250000D03*
X110150000Y-125250000D03*
X120150000Y-111750000D03*
X127850000Y-111750000D03*
X127850000Y-116250000D03*
X120150000Y-116250000D03*
D16*
X146750000Y-111250000D03*
X146750000Y-112750000D03*
X145100000Y-112750000D03*
X145100000Y-111250000D03*
X143450000Y-112750000D03*
X143450000Y-111250000D03*
D17*
X158000000Y-99035000D03*
D18*
X158000000Y-86225000D03*
X158000000Y-63775000D03*
D17*
X158000000Y-50965000D03*
D19*
X134500000Y-71750000D03*
X136500000Y-71750000D03*
D20*
X138500000Y-71750000D03*
X139000000Y-55250000D03*
X134000000Y-55250000D03*
D21*
X136500000Y-55250000D03*
D22*
X135500000Y-73750000D03*
X137500000Y-73750000D03*
D17*
X114000000Y-51190000D03*
D18*
X114000000Y-64000000D03*
X114000000Y-86450000D03*
D17*
X114000000Y-99260000D03*
D23*
X127000000Y-83500000D03*
X127000000Y-82000000D03*
D24*
X119350000Y-105600000D03*
X117850000Y-105600000D03*
D23*
X128500000Y-37250000D03*
X128500000Y-38750000D03*
X153000000Y-109000000D03*
X153000000Y-110500000D03*
D25*
X130000000Y-113300000D03*
X130000000Y-111200000D03*
X132000000Y-113300000D03*
X132000000Y-111200000D03*
X134000000Y-113300000D03*
X134000000Y-111200000D03*
D10*
X155750000Y-104350000D03*
X160250000Y-104350000D03*
X155750000Y-107650000D03*
X160250000Y-107650000D03*
X147750000Y-36350000D03*
X152250000Y-36350000D03*
X147750000Y-39650000D03*
X152250000Y-39650000D03*
X124250000Y-39650000D03*
X119750000Y-39650000D03*
X124250000Y-36350000D03*
X119750000Y-36350000D03*
D25*
X136000000Y-113300000D03*
X136000000Y-111200000D03*
X138000000Y-111200000D03*
X138000000Y-113300000D03*
X140000000Y-111200000D03*
X140000000Y-113300000D03*
D13*
X168000000Y-73160000D03*
X168000000Y-70620000D03*
X168000000Y-68080000D03*
X168000000Y-65540000D03*
D14*
X168000000Y-63000000D03*
D16*
X131000000Y-83250000D03*
X131000000Y-81750000D03*
X124400000Y-108350000D03*
X124400000Y-106850000D03*
X148450000Y-111250000D03*
X148450000Y-112750000D03*
M02*
