G04 #@! TF.GenerationSoftware,KiCad,Pcbnew,(2017-07-14 revision d3b382c28)-master*
G04 #@! TF.CreationDate,2017-08-01T03:30:38-04:00*
G04 #@! TF.ProjectId,MAGLabs-2017-Swadges,4D41474C6162732D323031372D537761,rev?*
G04 #@! TF.SameCoordinates,Original
G04 #@! TF.FileFunction,Legend,Bot*
G04 #@! TF.FilePolarity,Positive*
%FSLAX46Y46*%
G04 Gerber Fmt 4.6, Leading zero omitted, Abs format (unit mm)*
G04 Created by KiCad (PCBNEW (2017-07-14 revision d3b382c28)-master) date Tue Aug  1 03:30:38 2017*
%MOMM*%
%LPD*%
G01*
G04 APERTURE LIST*
%ADD10C,0.010000*%
%ADD11C,0.254000*%
G04 APERTURE END LIST*
D10*
G36*
X126312250Y-101190296D02*
X125983163Y-101193605D01*
X125699231Y-101202623D01*
X125455062Y-101218035D01*
X125245261Y-101240527D01*
X125064432Y-101270786D01*
X124907182Y-101309496D01*
X124768117Y-101357345D01*
X124674879Y-101398489D01*
X124472125Y-101522303D01*
X124303317Y-101677099D01*
X124169575Y-101856714D01*
X124072018Y-102054989D01*
X124011768Y-102265762D01*
X123989944Y-102482873D01*
X124007667Y-102700162D01*
X124066058Y-102911466D01*
X124166236Y-103110626D01*
X124309321Y-103291480D01*
X124327351Y-103309622D01*
X124464552Y-103444647D01*
X124278264Y-103560755D01*
X124069858Y-103711770D01*
X123906377Y-103879330D01*
X123782954Y-104069923D01*
X123694717Y-104290038D01*
X123673325Y-104366948D01*
X123636869Y-104588004D01*
X123632158Y-104822617D01*
X123658523Y-105051401D01*
X123702826Y-105220958D01*
X123805317Y-105446729D01*
X123947574Y-105655023D01*
X124121684Y-105837191D01*
X124319735Y-105984583D01*
X124475313Y-106065433D01*
X124555260Y-106097312D01*
X124636198Y-106123519D01*
X124723963Y-106144590D01*
X124824395Y-106161058D01*
X124943331Y-106173457D01*
X125086608Y-106182320D01*
X125260066Y-106188180D01*
X125469542Y-106191572D01*
X125720873Y-106193029D01*
X125873030Y-106193200D01*
X126775800Y-106193200D01*
X126775800Y-104034200D01*
X125785200Y-104034200D01*
X125785200Y-105286470D01*
X125461350Y-105271590D01*
X125239931Y-105255301D01*
X125064626Y-105228674D01*
X124971411Y-105204890D01*
X124814249Y-105135926D01*
X124699675Y-105039599D01*
X124626522Y-104914353D01*
X124593624Y-104758635D01*
X124591400Y-104698761D01*
X124613443Y-104523212D01*
X124678685Y-104373029D01*
X124785795Y-104249130D01*
X124933442Y-104152432D01*
X125120296Y-104083854D01*
X125345025Y-104044313D01*
X125555265Y-104034200D01*
X125785200Y-104034200D01*
X126775800Y-104034200D01*
X126775800Y-102129200D01*
X125785200Y-102129200D01*
X125785200Y-103151259D01*
X125550250Y-103140231D01*
X125410502Y-103129654D01*
X125307298Y-103111396D01*
X125226629Y-103082759D01*
X125210546Y-103074815D01*
X125079502Y-102981919D01*
X124990972Y-102861273D01*
X124950705Y-102745011D01*
X124939858Y-102585259D01*
X124975120Y-102436392D01*
X125053742Y-102306934D01*
X125110178Y-102250681D01*
X125199220Y-102199427D01*
X125324885Y-102159940D01*
X125473696Y-102135567D01*
X125599311Y-102129200D01*
X125785200Y-102129200D01*
X126775800Y-102129200D01*
X126775800Y-101189400D01*
X126312250Y-101190296D01*
X126312250Y-101190296D01*
G37*
X126312250Y-101190296D02*
X125983163Y-101193605D01*
X125699231Y-101202623D01*
X125455062Y-101218035D01*
X125245261Y-101240527D01*
X125064432Y-101270786D01*
X124907182Y-101309496D01*
X124768117Y-101357345D01*
X124674879Y-101398489D01*
X124472125Y-101522303D01*
X124303317Y-101677099D01*
X124169575Y-101856714D01*
X124072018Y-102054989D01*
X124011768Y-102265762D01*
X123989944Y-102482873D01*
X124007667Y-102700162D01*
X124066058Y-102911466D01*
X124166236Y-103110626D01*
X124309321Y-103291480D01*
X124327351Y-103309622D01*
X124464552Y-103444647D01*
X124278264Y-103560755D01*
X124069858Y-103711770D01*
X123906377Y-103879330D01*
X123782954Y-104069923D01*
X123694717Y-104290038D01*
X123673325Y-104366948D01*
X123636869Y-104588004D01*
X123632158Y-104822617D01*
X123658523Y-105051401D01*
X123702826Y-105220958D01*
X123805317Y-105446729D01*
X123947574Y-105655023D01*
X124121684Y-105837191D01*
X124319735Y-105984583D01*
X124475313Y-106065433D01*
X124555260Y-106097312D01*
X124636198Y-106123519D01*
X124723963Y-106144590D01*
X124824395Y-106161058D01*
X124943331Y-106173457D01*
X125086608Y-106182320D01*
X125260066Y-106188180D01*
X125469542Y-106191572D01*
X125720873Y-106193029D01*
X125873030Y-106193200D01*
X126775800Y-106193200D01*
X126775800Y-104034200D01*
X125785200Y-104034200D01*
X125785200Y-105286470D01*
X125461350Y-105271590D01*
X125239931Y-105255301D01*
X125064626Y-105228674D01*
X124971411Y-105204890D01*
X124814249Y-105135926D01*
X124699675Y-105039599D01*
X124626522Y-104914353D01*
X124593624Y-104758635D01*
X124591400Y-104698761D01*
X124613443Y-104523212D01*
X124678685Y-104373029D01*
X124785795Y-104249130D01*
X124933442Y-104152432D01*
X125120296Y-104083854D01*
X125345025Y-104044313D01*
X125555265Y-104034200D01*
X125785200Y-104034200D01*
X126775800Y-104034200D01*
X126775800Y-102129200D01*
X125785200Y-102129200D01*
X125785200Y-103151259D01*
X125550250Y-103140231D01*
X125410502Y-103129654D01*
X125307298Y-103111396D01*
X125226629Y-103082759D01*
X125210546Y-103074815D01*
X125079502Y-102981919D01*
X124990972Y-102861273D01*
X124950705Y-102745011D01*
X124939858Y-102585259D01*
X124975120Y-102436392D01*
X125053742Y-102306934D01*
X125110178Y-102250681D01*
X125199220Y-102199427D01*
X125324885Y-102159940D01*
X125473696Y-102135567D01*
X125599311Y-102129200D01*
X125785200Y-102129200D01*
X126775800Y-102129200D01*
X126775800Y-101189400D01*
X126312250Y-101190296D01*
G36*
X128406409Y-103646326D02*
X128276668Y-103984475D01*
X128151897Y-104309709D01*
X128033320Y-104618834D01*
X127922162Y-104908657D01*
X127819648Y-105175982D01*
X127727002Y-105417617D01*
X127645448Y-105630367D01*
X127576211Y-105811039D01*
X127520516Y-105956437D01*
X127479587Y-106063369D01*
X127454649Y-106128640D01*
X127447022Y-106148750D01*
X127444590Y-106163874D01*
X127454092Y-106175127D01*
X127481797Y-106183078D01*
X127533973Y-106188292D01*
X127616890Y-106191338D01*
X127736817Y-106192782D01*
X127900023Y-106193192D01*
X127938295Y-106193200D01*
X128445825Y-106193200D01*
X128828471Y-105189900D01*
X130841579Y-105189900D01*
X131038463Y-105685200D01*
X131235348Y-106180500D01*
X131748779Y-106187375D01*
X132262210Y-106194251D01*
X132224036Y-106098475D01*
X132209705Y-106061753D01*
X132178388Y-105980952D01*
X132131368Y-105859395D01*
X132069928Y-105700406D01*
X131995351Y-105507306D01*
X131908919Y-105283420D01*
X131811915Y-105032070D01*
X131705621Y-104756580D01*
X131591321Y-104460271D01*
X131505367Y-104237400D01*
X130482943Y-104237400D01*
X129189542Y-104237400D01*
X129236859Y-104116750D01*
X129258122Y-104062259D01*
X129294937Y-103967610D01*
X129344506Y-103840015D01*
X129404028Y-103686683D01*
X129470702Y-103514826D01*
X129541730Y-103331654D01*
X129557624Y-103290652D01*
X129626521Y-103113656D01*
X129689466Y-102953381D01*
X129744158Y-102815567D01*
X129788299Y-102705957D01*
X129819589Y-102630293D01*
X129835728Y-102594315D01*
X129837365Y-102592152D01*
X129847325Y-102615994D01*
X129873200Y-102680631D01*
X129912427Y-102779537D01*
X129962444Y-102906187D01*
X130020689Y-103054055D01*
X130084598Y-103216616D01*
X130151610Y-103387344D01*
X130219162Y-103559714D01*
X130284693Y-103727199D01*
X130345639Y-103883274D01*
X130399438Y-104021414D01*
X130443528Y-104135093D01*
X130460950Y-104180250D01*
X130482943Y-104237400D01*
X131505367Y-104237400D01*
X131470297Y-104146467D01*
X131343831Y-103818491D01*
X131260520Y-103602400D01*
X130335179Y-101202100D01*
X129842360Y-101195226D01*
X129349540Y-101188353D01*
X128406409Y-103646326D01*
X128406409Y-103646326D01*
G37*
X128406409Y-103646326D02*
X128276668Y-103984475D01*
X128151897Y-104309709D01*
X128033320Y-104618834D01*
X127922162Y-104908657D01*
X127819648Y-105175982D01*
X127727002Y-105417617D01*
X127645448Y-105630367D01*
X127576211Y-105811039D01*
X127520516Y-105956437D01*
X127479587Y-106063369D01*
X127454649Y-106128640D01*
X127447022Y-106148750D01*
X127444590Y-106163874D01*
X127454092Y-106175127D01*
X127481797Y-106183078D01*
X127533973Y-106188292D01*
X127616890Y-106191338D01*
X127736817Y-106192782D01*
X127900023Y-106193192D01*
X127938295Y-106193200D01*
X128445825Y-106193200D01*
X128828471Y-105189900D01*
X130841579Y-105189900D01*
X131038463Y-105685200D01*
X131235348Y-106180500D01*
X131748779Y-106187375D01*
X132262210Y-106194251D01*
X132224036Y-106098475D01*
X132209705Y-106061753D01*
X132178388Y-105980952D01*
X132131368Y-105859395D01*
X132069928Y-105700406D01*
X131995351Y-105507306D01*
X131908919Y-105283420D01*
X131811915Y-105032070D01*
X131705621Y-104756580D01*
X131591321Y-104460271D01*
X131505367Y-104237400D01*
X130482943Y-104237400D01*
X129189542Y-104237400D01*
X129236859Y-104116750D01*
X129258122Y-104062259D01*
X129294937Y-103967610D01*
X129344506Y-103840015D01*
X129404028Y-103686683D01*
X129470702Y-103514826D01*
X129541730Y-103331654D01*
X129557624Y-103290652D01*
X129626521Y-103113656D01*
X129689466Y-102953381D01*
X129744158Y-102815567D01*
X129788299Y-102705957D01*
X129819589Y-102630293D01*
X129835728Y-102594315D01*
X129837365Y-102592152D01*
X129847325Y-102615994D01*
X129873200Y-102680631D01*
X129912427Y-102779537D01*
X129962444Y-102906187D01*
X130020689Y-103054055D01*
X130084598Y-103216616D01*
X130151610Y-103387344D01*
X130219162Y-103559714D01*
X130284693Y-103727199D01*
X130345639Y-103883274D01*
X130399438Y-104021414D01*
X130443528Y-104135093D01*
X130460950Y-104180250D01*
X130482943Y-104237400D01*
X131505367Y-104237400D01*
X131470297Y-104146467D01*
X131343831Y-103818491D01*
X131260520Y-103602400D01*
X130335179Y-101202100D01*
X129842360Y-101195226D01*
X129349540Y-101188353D01*
X128406409Y-103646326D01*
G36*
X134116400Y-105278800D02*
X132719400Y-105278800D01*
X132719400Y-106193200D01*
X135081600Y-106193200D01*
X135081600Y-101189400D01*
X134116400Y-101189400D01*
X134116400Y-105278800D01*
X134116400Y-105278800D01*
G37*
X134116400Y-105278800D02*
X132719400Y-105278800D01*
X132719400Y-106193200D01*
X135081600Y-106193200D01*
X135081600Y-101189400D01*
X134116400Y-101189400D01*
X134116400Y-105278800D01*
G36*
X143398763Y-101190265D02*
X143262702Y-101193072D01*
X143167457Y-101198132D01*
X143108047Y-101205758D01*
X143079494Y-101216265D01*
X143075670Y-101221150D01*
X143037196Y-101320266D01*
X142984512Y-101456496D01*
X142919078Y-101626033D01*
X142842358Y-101825068D01*
X142755812Y-102049793D01*
X142660903Y-102296402D01*
X142559092Y-102561085D01*
X142451842Y-102840035D01*
X142340614Y-103129445D01*
X142226871Y-103425506D01*
X142112073Y-103724411D01*
X141997684Y-104022351D01*
X141885165Y-104315520D01*
X141775977Y-104600109D01*
X141671583Y-104872310D01*
X141573445Y-105128316D01*
X141483025Y-105364319D01*
X141401784Y-105576511D01*
X141331184Y-105761083D01*
X141272688Y-105914230D01*
X141227756Y-106032141D01*
X141197852Y-106111011D01*
X141184437Y-106147030D01*
X141183863Y-106148750D01*
X141182918Y-106163899D01*
X141193780Y-106175167D01*
X141222776Y-106183121D01*
X141276235Y-106188331D01*
X141360483Y-106191367D01*
X141481851Y-106192798D01*
X141646665Y-106193194D01*
X141677837Y-106193200D01*
X142183998Y-106193200D01*
X142562902Y-105189900D01*
X143567511Y-105183262D01*
X144572119Y-105176625D01*
X144773510Y-105684727D01*
X144974900Y-106192830D01*
X145476550Y-106193015D01*
X145630326Y-106191983D01*
X145764922Y-106188998D01*
X145872733Y-106184398D01*
X145946153Y-106178524D01*
X145977578Y-106171716D01*
X145978200Y-106170583D01*
X145969245Y-106144266D01*
X145943178Y-106073709D01*
X145901204Y-105962057D01*
X145844522Y-105812455D01*
X145774336Y-105628047D01*
X145691847Y-105411979D01*
X145598257Y-105167395D01*
X145494767Y-104897440D01*
X145382580Y-104605259D01*
X145262898Y-104293997D01*
X145241108Y-104237400D01*
X144219836Y-104237400D01*
X143572301Y-104237400D01*
X143366738Y-104236892D01*
X143207331Y-104235213D01*
X143089448Y-104232133D01*
X143008453Y-104227419D01*
X142959712Y-104220839D01*
X142938591Y-104212162D01*
X142937325Y-104205650D01*
X142949358Y-104174785D01*
X142977401Y-104102633D01*
X143019096Y-103995267D01*
X143072086Y-103858762D01*
X143134010Y-103699192D01*
X143202512Y-103522632D01*
X143230688Y-103450000D01*
X143302149Y-103265783D01*
X143368868Y-103093806D01*
X143428297Y-102940635D01*
X143477889Y-102812837D01*
X143515093Y-102716980D01*
X143537364Y-102659629D01*
X143541146Y-102649900D01*
X143570802Y-102573700D01*
X143603444Y-102662600D01*
X143620698Y-102707961D01*
X143653990Y-102794014D01*
X143700751Y-102914177D01*
X143758415Y-103061872D01*
X143824416Y-103230517D01*
X143896186Y-103413533D01*
X143927961Y-103494450D01*
X144219836Y-104237400D01*
X145241108Y-104237400D01*
X145136922Y-103966797D01*
X145025700Y-103678262D01*
X144895382Y-103340273D01*
X144770329Y-103015765D01*
X144651741Y-102707860D01*
X144540818Y-102419683D01*
X144438761Y-102154357D01*
X144346768Y-101915005D01*
X144266042Y-101704751D01*
X144197780Y-101526718D01*
X144143184Y-101384031D01*
X144103454Y-101279812D01*
X144079789Y-101217186D01*
X144073200Y-101198978D01*
X144049088Y-101196024D01*
X143981897Y-101193440D01*
X143879351Y-101191375D01*
X143749171Y-101189981D01*
X143599079Y-101189406D01*
X143580618Y-101189400D01*
X143398763Y-101190265D01*
X143398763Y-101190265D01*
G37*
X143398763Y-101190265D02*
X143262702Y-101193072D01*
X143167457Y-101198132D01*
X143108047Y-101205758D01*
X143079494Y-101216265D01*
X143075670Y-101221150D01*
X143037196Y-101320266D01*
X142984512Y-101456496D01*
X142919078Y-101626033D01*
X142842358Y-101825068D01*
X142755812Y-102049793D01*
X142660903Y-102296402D01*
X142559092Y-102561085D01*
X142451842Y-102840035D01*
X142340614Y-103129445D01*
X142226871Y-103425506D01*
X142112073Y-103724411D01*
X141997684Y-104022351D01*
X141885165Y-104315520D01*
X141775977Y-104600109D01*
X141671583Y-104872310D01*
X141573445Y-105128316D01*
X141483025Y-105364319D01*
X141401784Y-105576511D01*
X141331184Y-105761083D01*
X141272688Y-105914230D01*
X141227756Y-106032141D01*
X141197852Y-106111011D01*
X141184437Y-106147030D01*
X141183863Y-106148750D01*
X141182918Y-106163899D01*
X141193780Y-106175167D01*
X141222776Y-106183121D01*
X141276235Y-106188331D01*
X141360483Y-106191367D01*
X141481851Y-106192798D01*
X141646665Y-106193194D01*
X141677837Y-106193200D01*
X142183998Y-106193200D01*
X142562902Y-105189900D01*
X143567511Y-105183262D01*
X144572119Y-105176625D01*
X144773510Y-105684727D01*
X144974900Y-106192830D01*
X145476550Y-106193015D01*
X145630326Y-106191983D01*
X145764922Y-106188998D01*
X145872733Y-106184398D01*
X145946153Y-106178524D01*
X145977578Y-106171716D01*
X145978200Y-106170583D01*
X145969245Y-106144266D01*
X145943178Y-106073709D01*
X145901204Y-105962057D01*
X145844522Y-105812455D01*
X145774336Y-105628047D01*
X145691847Y-105411979D01*
X145598257Y-105167395D01*
X145494767Y-104897440D01*
X145382580Y-104605259D01*
X145262898Y-104293997D01*
X145241108Y-104237400D01*
X144219836Y-104237400D01*
X143572301Y-104237400D01*
X143366738Y-104236892D01*
X143207331Y-104235213D01*
X143089448Y-104232133D01*
X143008453Y-104227419D01*
X142959712Y-104220839D01*
X142938591Y-104212162D01*
X142937325Y-104205650D01*
X142949358Y-104174785D01*
X142977401Y-104102633D01*
X143019096Y-103995267D01*
X143072086Y-103858762D01*
X143134010Y-103699192D01*
X143202512Y-103522632D01*
X143230688Y-103450000D01*
X143302149Y-103265783D01*
X143368868Y-103093806D01*
X143428297Y-102940635D01*
X143477889Y-102812837D01*
X143515093Y-102716980D01*
X143537364Y-102659629D01*
X143541146Y-102649900D01*
X143570802Y-102573700D01*
X143603444Y-102662600D01*
X143620698Y-102707961D01*
X143653990Y-102794014D01*
X143700751Y-102914177D01*
X143758415Y-103061872D01*
X143824416Y-103230517D01*
X143896186Y-103413533D01*
X143927961Y-103494450D01*
X144219836Y-104237400D01*
X145241108Y-104237400D01*
X145136922Y-103966797D01*
X145025700Y-103678262D01*
X144895382Y-103340273D01*
X144770329Y-103015765D01*
X144651741Y-102707860D01*
X144540818Y-102419683D01*
X144438761Y-102154357D01*
X144346768Y-101915005D01*
X144266042Y-101704751D01*
X144197780Y-101526718D01*
X144143184Y-101384031D01*
X144103454Y-101279812D01*
X144079789Y-101217186D01*
X144073200Y-101198978D01*
X144049088Y-101196024D01*
X143981897Y-101193440D01*
X143879351Y-101191375D01*
X143749171Y-101189981D01*
X143599079Y-101189406D01*
X143580618Y-101189400D01*
X143398763Y-101190265D01*
G36*
X149415782Y-104631100D02*
X149123320Y-103754800D01*
X149038697Y-103501740D01*
X148943625Y-103218277D01*
X148843182Y-102919497D01*
X148742448Y-102620491D01*
X148646501Y-102336345D01*
X148560421Y-102082150D01*
X148544061Y-102033950D01*
X148257263Y-101189400D01*
X147791316Y-101189400D01*
X147627083Y-101189565D01*
X147506597Y-101190622D01*
X147422805Y-101193411D01*
X147368655Y-101198771D01*
X147337093Y-101207543D01*
X147321067Y-101220567D01*
X147313523Y-101238684D01*
X147311541Y-101246550D01*
X147305401Y-101279462D01*
X147291685Y-101357894D01*
X147271093Y-101477684D01*
X147244322Y-101634664D01*
X147212070Y-101824672D01*
X147175035Y-102043543D01*
X147133915Y-102287112D01*
X147089408Y-102551214D01*
X147042212Y-102831685D01*
X146993025Y-103124361D01*
X146942545Y-103425077D01*
X146891470Y-103729668D01*
X146840497Y-104033971D01*
X146790326Y-104333819D01*
X146741653Y-104625050D01*
X146695177Y-104903497D01*
X146651595Y-105164998D01*
X146611607Y-105405387D01*
X146575909Y-105620499D01*
X146545199Y-105806171D01*
X146520177Y-105958238D01*
X146501538Y-106072534D01*
X146489983Y-106144896D01*
X146486200Y-106171042D01*
X146510279Y-106178043D01*
X146577231Y-106184135D01*
X146679136Y-106188942D01*
X146808071Y-106192088D01*
X146954082Y-106193200D01*
X147421964Y-106193200D01*
X147436203Y-106123350D01*
X147442973Y-106085913D01*
X147457375Y-106003105D01*
X147478604Y-105879646D01*
X147505856Y-105720259D01*
X147538325Y-105529667D01*
X147575207Y-105312590D01*
X147615698Y-105073753D01*
X147658991Y-104817876D01*
X147692687Y-104618400D01*
X147737308Y-104354065D01*
X147779492Y-104104179D01*
X147818465Y-103873328D01*
X147853453Y-103666100D01*
X147883680Y-103487084D01*
X147908371Y-103340867D01*
X147926753Y-103232036D01*
X147938051Y-103165181D01*
X147941434Y-103145200D01*
X147950394Y-103161902D01*
X147974066Y-103222895D01*
X148011088Y-103324280D01*
X148060098Y-103462157D01*
X148119737Y-103632626D01*
X148188641Y-103831789D01*
X148265450Y-104055745D01*
X148348801Y-104300596D01*
X148437335Y-104562441D01*
X148466863Y-104650150D01*
X148985790Y-106193200D01*
X149852177Y-106193200D01*
X150359443Y-104669974D01*
X150448212Y-104404427D01*
X150532530Y-104154150D01*
X150611008Y-103923140D01*
X150682255Y-103715398D01*
X150744882Y-103534921D01*
X150797497Y-103385711D01*
X150838712Y-103271765D01*
X150867136Y-103197084D01*
X150881378Y-103165665D01*
X150882547Y-103165024D01*
X150889740Y-103192817D01*
X150904642Y-103266054D01*
X150926410Y-103380102D01*
X150954199Y-103530328D01*
X150987167Y-103712103D01*
X151024471Y-103920792D01*
X151065267Y-104151765D01*
X151108712Y-104400389D01*
X151133295Y-104542200D01*
X151178465Y-104803470D01*
X151221724Y-105053633D01*
X151262168Y-105287467D01*
X151298894Y-105499749D01*
X151330998Y-105685257D01*
X151357576Y-105838769D01*
X151377725Y-105955061D01*
X151390541Y-106028912D01*
X151393717Y-106047150D01*
X151419228Y-106193200D01*
X151896737Y-106193200D01*
X152063630Y-106192887D01*
X152186256Y-106191537D01*
X152271146Y-106188528D01*
X152324831Y-106183238D01*
X152353842Y-106175048D01*
X152364711Y-106163335D01*
X152364263Y-106148750D01*
X152357772Y-106114123D01*
X152343534Y-106034204D01*
X152322264Y-105913141D01*
X152294674Y-105755084D01*
X152261479Y-105564183D01*
X152223393Y-105344586D01*
X152181130Y-105100444D01*
X152135404Y-104835905D01*
X152086929Y-104555119D01*
X152036418Y-104262236D01*
X151984587Y-103961405D01*
X151932148Y-103656774D01*
X151879816Y-103352495D01*
X151828305Y-103052716D01*
X151778328Y-102761586D01*
X151730600Y-102483255D01*
X151685834Y-102221872D01*
X151644746Y-101981587D01*
X151608047Y-101766550D01*
X151576453Y-101580909D01*
X151550678Y-101428814D01*
X151531435Y-101314414D01*
X151519439Y-101241859D01*
X151515400Y-101215356D01*
X151490366Y-101205262D01*
X151416625Y-101197548D01*
X151296218Y-101192324D01*
X151131189Y-101189702D01*
X151039010Y-101189400D01*
X150562620Y-101189400D01*
X149415782Y-104631100D01*
X149415782Y-104631100D01*
G37*
X149415782Y-104631100D02*
X149123320Y-103754800D01*
X149038697Y-103501740D01*
X148943625Y-103218277D01*
X148843182Y-102919497D01*
X148742448Y-102620491D01*
X148646501Y-102336345D01*
X148560421Y-102082150D01*
X148544061Y-102033950D01*
X148257263Y-101189400D01*
X147791316Y-101189400D01*
X147627083Y-101189565D01*
X147506597Y-101190622D01*
X147422805Y-101193411D01*
X147368655Y-101198771D01*
X147337093Y-101207543D01*
X147321067Y-101220567D01*
X147313523Y-101238684D01*
X147311541Y-101246550D01*
X147305401Y-101279462D01*
X147291685Y-101357894D01*
X147271093Y-101477684D01*
X147244322Y-101634664D01*
X147212070Y-101824672D01*
X147175035Y-102043543D01*
X147133915Y-102287112D01*
X147089408Y-102551214D01*
X147042212Y-102831685D01*
X146993025Y-103124361D01*
X146942545Y-103425077D01*
X146891470Y-103729668D01*
X146840497Y-104033971D01*
X146790326Y-104333819D01*
X146741653Y-104625050D01*
X146695177Y-104903497D01*
X146651595Y-105164998D01*
X146611607Y-105405387D01*
X146575909Y-105620499D01*
X146545199Y-105806171D01*
X146520177Y-105958238D01*
X146501538Y-106072534D01*
X146489983Y-106144896D01*
X146486200Y-106171042D01*
X146510279Y-106178043D01*
X146577231Y-106184135D01*
X146679136Y-106188942D01*
X146808071Y-106192088D01*
X146954082Y-106193200D01*
X147421964Y-106193200D01*
X147436203Y-106123350D01*
X147442973Y-106085913D01*
X147457375Y-106003105D01*
X147478604Y-105879646D01*
X147505856Y-105720259D01*
X147538325Y-105529667D01*
X147575207Y-105312590D01*
X147615698Y-105073753D01*
X147658991Y-104817876D01*
X147692687Y-104618400D01*
X147737308Y-104354065D01*
X147779492Y-104104179D01*
X147818465Y-103873328D01*
X147853453Y-103666100D01*
X147883680Y-103487084D01*
X147908371Y-103340867D01*
X147926753Y-103232036D01*
X147938051Y-103165181D01*
X147941434Y-103145200D01*
X147950394Y-103161902D01*
X147974066Y-103222895D01*
X148011088Y-103324280D01*
X148060098Y-103462157D01*
X148119737Y-103632626D01*
X148188641Y-103831789D01*
X148265450Y-104055745D01*
X148348801Y-104300596D01*
X148437335Y-104562441D01*
X148466863Y-104650150D01*
X148985790Y-106193200D01*
X149852177Y-106193200D01*
X150359443Y-104669974D01*
X150448212Y-104404427D01*
X150532530Y-104154150D01*
X150611008Y-103923140D01*
X150682255Y-103715398D01*
X150744882Y-103534921D01*
X150797497Y-103385711D01*
X150838712Y-103271765D01*
X150867136Y-103197084D01*
X150881378Y-103165665D01*
X150882547Y-103165024D01*
X150889740Y-103192817D01*
X150904642Y-103266054D01*
X150926410Y-103380102D01*
X150954199Y-103530328D01*
X150987167Y-103712103D01*
X151024471Y-103920792D01*
X151065267Y-104151765D01*
X151108712Y-104400389D01*
X151133295Y-104542200D01*
X151178465Y-104803470D01*
X151221724Y-105053633D01*
X151262168Y-105287467D01*
X151298894Y-105499749D01*
X151330998Y-105685257D01*
X151357576Y-105838769D01*
X151377725Y-105955061D01*
X151390541Y-106028912D01*
X151393717Y-106047150D01*
X151419228Y-106193200D01*
X151896737Y-106193200D01*
X152063630Y-106192887D01*
X152186256Y-106191537D01*
X152271146Y-106188528D01*
X152324831Y-106183238D01*
X152353842Y-106175048D01*
X152364711Y-106163335D01*
X152364263Y-106148750D01*
X152357772Y-106114123D01*
X152343534Y-106034204D01*
X152322264Y-105913141D01*
X152294674Y-105755084D01*
X152261479Y-105564183D01*
X152223393Y-105344586D01*
X152181130Y-105100444D01*
X152135404Y-104835905D01*
X152086929Y-104555119D01*
X152036418Y-104262236D01*
X151984587Y-103961405D01*
X151932148Y-103656774D01*
X151879816Y-103352495D01*
X151828305Y-103052716D01*
X151778328Y-102761586D01*
X151730600Y-102483255D01*
X151685834Y-102221872D01*
X151644746Y-101981587D01*
X151608047Y-101766550D01*
X151576453Y-101580909D01*
X151550678Y-101428814D01*
X151531435Y-101314414D01*
X151519439Y-101241859D01*
X151515400Y-101215356D01*
X151490366Y-101205262D01*
X151416625Y-101197548D01*
X151296218Y-101192324D01*
X151131189Y-101189702D01*
X151039010Y-101189400D01*
X150562620Y-101189400D01*
X149415782Y-104631100D01*
G36*
X121244909Y-101097746D02*
X121028500Y-101144891D01*
X120822814Y-101226930D01*
X120619995Y-101347441D01*
X120412183Y-101510000D01*
X120285506Y-101625691D01*
X120195914Y-101712846D01*
X120121447Y-101788155D01*
X120068994Y-101844437D01*
X120045440Y-101874510D01*
X120044800Y-101876643D01*
X120062677Y-101898391D01*
X120111394Y-101946921D01*
X120183585Y-102015535D01*
X120271881Y-102097539D01*
X120368914Y-102186237D01*
X120467317Y-102274931D01*
X120559721Y-102356928D01*
X120638759Y-102425529D01*
X120697063Y-102474041D01*
X120724297Y-102494171D01*
X120758153Y-102485538D01*
X120820881Y-102438240D01*
X120910421Y-102353907D01*
X120942049Y-102321788D01*
X121082768Y-102189404D01*
X121210866Y-102098082D01*
X121335495Y-102042987D01*
X121465808Y-102019285D01*
X121518000Y-102017503D01*
X121670380Y-102036659D01*
X121789754Y-102093930D01*
X121874629Y-102187583D01*
X121903632Y-102241396D01*
X121921026Y-102293406D01*
X121924326Y-102346653D01*
X121911044Y-102404174D01*
X121878694Y-102469010D01*
X121824792Y-102544200D01*
X121746851Y-102632782D01*
X121642385Y-102737797D01*
X121508908Y-102862283D01*
X121343935Y-103009279D01*
X121144978Y-103181825D01*
X120909553Y-103382959D01*
X120867872Y-103418390D01*
X120634512Y-103623864D01*
X120442407Y-103810484D01*
X120288224Y-103983748D01*
X120168635Y-104149151D01*
X120080309Y-104312192D01*
X120019915Y-104478367D01*
X119984125Y-104653172D01*
X119969607Y-104842105D01*
X119968902Y-104902278D01*
X119972784Y-105033251D01*
X119982965Y-105160738D01*
X119997679Y-105265525D01*
X120005497Y-105300861D01*
X120094907Y-105541720D01*
X120227004Y-105756237D01*
X120399906Y-105942443D01*
X120611730Y-106098371D01*
X120860594Y-106222053D01*
X120902265Y-106238175D01*
X120979296Y-106264589D01*
X121053343Y-106283254D01*
X121136740Y-106295835D01*
X121241820Y-106303997D01*
X121380917Y-106309404D01*
X121441800Y-106311000D01*
X121619184Y-106313174D01*
X121755780Y-106309598D01*
X121861338Y-106299710D01*
X121945603Y-106282952D01*
X121949800Y-106281823D01*
X122197437Y-106192080D01*
X122429915Y-106064838D01*
X122633073Y-105908197D01*
X122677281Y-105865735D01*
X122751957Y-105784163D01*
X122831944Y-105686200D01*
X122911468Y-105580327D01*
X122984754Y-105475022D01*
X123046028Y-105378767D01*
X123089517Y-105300041D01*
X123109446Y-105247324D01*
X123108367Y-105232637D01*
X123082953Y-105212466D01*
X123023118Y-105172852D01*
X122937148Y-105118733D01*
X122833328Y-105055049D01*
X122719945Y-104986738D01*
X122605283Y-104918739D01*
X122497631Y-104855990D01*
X122405272Y-104803430D01*
X122336493Y-104765997D01*
X122299581Y-104748631D01*
X122295680Y-104748253D01*
X122278864Y-104773225D01*
X122243009Y-104828825D01*
X122199180Y-104897800D01*
X122087270Y-105050538D01*
X121958751Y-105185728D01*
X121825964Y-105291308D01*
X121753456Y-105333439D01*
X121605084Y-105382579D01*
X121445454Y-105395091D01*
X121291584Y-105371105D01*
X121190071Y-105329168D01*
X121056708Y-105232970D01*
X120968076Y-105121024D01*
X120926510Y-104996606D01*
X120923532Y-104954882D01*
X120929003Y-104873102D01*
X120949455Y-104792833D01*
X120988283Y-104709980D01*
X121048885Y-104620444D01*
X121134654Y-104520127D01*
X121248987Y-104404932D01*
X121395280Y-104270761D01*
X121576927Y-104113516D01*
X121721200Y-103992297D01*
X121864082Y-103869907D01*
X122017424Y-103732882D01*
X122167150Y-103594164D01*
X122299183Y-103466693D01*
X122361181Y-103403974D01*
X122477191Y-103281169D01*
X122564050Y-103181812D01*
X122630025Y-103094993D01*
X122683381Y-103009800D01*
X122732385Y-102915321D01*
X122734187Y-102911579D01*
X122830473Y-102661947D01*
X122876572Y-102418702D01*
X122872519Y-102182391D01*
X122818351Y-101953561D01*
X122714103Y-101732760D01*
X122650915Y-101636238D01*
X122482379Y-101441052D01*
X122285461Y-101287955D01*
X122060367Y-101177046D01*
X121807304Y-101108422D01*
X121526477Y-101082181D01*
X121479900Y-101081917D01*
X121244909Y-101097746D01*
X121244909Y-101097746D01*
G37*
X121244909Y-101097746D02*
X121028500Y-101144891D01*
X120822814Y-101226930D01*
X120619995Y-101347441D01*
X120412183Y-101510000D01*
X120285506Y-101625691D01*
X120195914Y-101712846D01*
X120121447Y-101788155D01*
X120068994Y-101844437D01*
X120045440Y-101874510D01*
X120044800Y-101876643D01*
X120062677Y-101898391D01*
X120111394Y-101946921D01*
X120183585Y-102015535D01*
X120271881Y-102097539D01*
X120368914Y-102186237D01*
X120467317Y-102274931D01*
X120559721Y-102356928D01*
X120638759Y-102425529D01*
X120697063Y-102474041D01*
X120724297Y-102494171D01*
X120758153Y-102485538D01*
X120820881Y-102438240D01*
X120910421Y-102353907D01*
X120942049Y-102321788D01*
X121082768Y-102189404D01*
X121210866Y-102098082D01*
X121335495Y-102042987D01*
X121465808Y-102019285D01*
X121518000Y-102017503D01*
X121670380Y-102036659D01*
X121789754Y-102093930D01*
X121874629Y-102187583D01*
X121903632Y-102241396D01*
X121921026Y-102293406D01*
X121924326Y-102346653D01*
X121911044Y-102404174D01*
X121878694Y-102469010D01*
X121824792Y-102544200D01*
X121746851Y-102632782D01*
X121642385Y-102737797D01*
X121508908Y-102862283D01*
X121343935Y-103009279D01*
X121144978Y-103181825D01*
X120909553Y-103382959D01*
X120867872Y-103418390D01*
X120634512Y-103623864D01*
X120442407Y-103810484D01*
X120288224Y-103983748D01*
X120168635Y-104149151D01*
X120080309Y-104312192D01*
X120019915Y-104478367D01*
X119984125Y-104653172D01*
X119969607Y-104842105D01*
X119968902Y-104902278D01*
X119972784Y-105033251D01*
X119982965Y-105160738D01*
X119997679Y-105265525D01*
X120005497Y-105300861D01*
X120094907Y-105541720D01*
X120227004Y-105756237D01*
X120399906Y-105942443D01*
X120611730Y-106098371D01*
X120860594Y-106222053D01*
X120902265Y-106238175D01*
X120979296Y-106264589D01*
X121053343Y-106283254D01*
X121136740Y-106295835D01*
X121241820Y-106303997D01*
X121380917Y-106309404D01*
X121441800Y-106311000D01*
X121619184Y-106313174D01*
X121755780Y-106309598D01*
X121861338Y-106299710D01*
X121945603Y-106282952D01*
X121949800Y-106281823D01*
X122197437Y-106192080D01*
X122429915Y-106064838D01*
X122633073Y-105908197D01*
X122677281Y-105865735D01*
X122751957Y-105784163D01*
X122831944Y-105686200D01*
X122911468Y-105580327D01*
X122984754Y-105475022D01*
X123046028Y-105378767D01*
X123089517Y-105300041D01*
X123109446Y-105247324D01*
X123108367Y-105232637D01*
X123082953Y-105212466D01*
X123023118Y-105172852D01*
X122937148Y-105118733D01*
X122833328Y-105055049D01*
X122719945Y-104986738D01*
X122605283Y-104918739D01*
X122497631Y-104855990D01*
X122405272Y-104803430D01*
X122336493Y-104765997D01*
X122299581Y-104748631D01*
X122295680Y-104748253D01*
X122278864Y-104773225D01*
X122243009Y-104828825D01*
X122199180Y-104897800D01*
X122087270Y-105050538D01*
X121958751Y-105185728D01*
X121825964Y-105291308D01*
X121753456Y-105333439D01*
X121605084Y-105382579D01*
X121445454Y-105395091D01*
X121291584Y-105371105D01*
X121190071Y-105329168D01*
X121056708Y-105232970D01*
X120968076Y-105121024D01*
X120926510Y-104996606D01*
X120923532Y-104954882D01*
X120929003Y-104873102D01*
X120949455Y-104792833D01*
X120988283Y-104709980D01*
X121048885Y-104620444D01*
X121134654Y-104520127D01*
X121248987Y-104404932D01*
X121395280Y-104270761D01*
X121576927Y-104113516D01*
X121721200Y-103992297D01*
X121864082Y-103869907D01*
X122017424Y-103732882D01*
X122167150Y-103594164D01*
X122299183Y-103466693D01*
X122361181Y-103403974D01*
X122477191Y-103281169D01*
X122564050Y-103181812D01*
X122630025Y-103094993D01*
X122683381Y-103009800D01*
X122732385Y-102915321D01*
X122734187Y-102911579D01*
X122830473Y-102661947D01*
X122876572Y-102418702D01*
X122872519Y-102182391D01*
X122818351Y-101953561D01*
X122714103Y-101732760D01*
X122650915Y-101636238D01*
X122482379Y-101441052D01*
X122285461Y-101287955D01*
X122060367Y-101177046D01*
X121807304Y-101108422D01*
X121526477Y-101082181D01*
X121479900Y-101081917D01*
X121244909Y-101097746D01*
G36*
X138183184Y-101088164D02*
X137838950Y-101132699D01*
X137508982Y-101210727D01*
X137202523Y-101321110D01*
X136961200Y-101443179D01*
X136794387Y-101553443D01*
X136617801Y-101690609D01*
X136450308Y-101839618D01*
X136390378Y-101898860D01*
X136264056Y-102028162D01*
X136568178Y-102334362D01*
X136671819Y-102437538D01*
X136765828Y-102528939D01*
X136843258Y-102601984D01*
X136897167Y-102650087D01*
X136917638Y-102665650D01*
X136948014Y-102672179D01*
X136988231Y-102656932D01*
X137047308Y-102614901D01*
X137120838Y-102552850D01*
X137382966Y-102353428D01*
X137657394Y-102200825D01*
X137940941Y-102095559D01*
X138230427Y-102038151D01*
X138522670Y-102029116D01*
X138814490Y-102068975D01*
X139102705Y-102158244D01*
X139221800Y-102210542D01*
X139332015Y-102267411D01*
X139425322Y-102327016D01*
X139516692Y-102400494D01*
X139621095Y-102498982D01*
X139654856Y-102532712D01*
X139828938Y-102728244D01*
X139960050Y-102923655D01*
X140054794Y-103129932D01*
X140099255Y-103272200D01*
X140127911Y-103430073D01*
X140141431Y-103615782D01*
X140139807Y-103809111D01*
X140123030Y-103989841D01*
X140099604Y-104108368D01*
X140003750Y-104373331D01*
X139864516Y-104618688D01*
X139687230Y-104839256D01*
X139477222Y-105029851D01*
X139239820Y-105185290D01*
X138980354Y-105300390D01*
X138828100Y-105345125D01*
X138688555Y-105369305D01*
X138521079Y-105383795D01*
X138343233Y-105388354D01*
X138172574Y-105382739D01*
X138026664Y-105366708D01*
X137977200Y-105356862D01*
X137735162Y-105274081D01*
X137512148Y-105147846D01*
X137316208Y-104983747D01*
X137155391Y-104787376D01*
X137153650Y-104784761D01*
X137110443Y-104721419D01*
X137077609Y-104671668D01*
X137059586Y-104633879D01*
X137060814Y-104606425D01*
X137085729Y-104587679D01*
X137138771Y-104576012D01*
X137224377Y-104569797D01*
X137346987Y-104567408D01*
X137511039Y-104567215D01*
X137720971Y-104567593D01*
X137745883Y-104567600D01*
X138459800Y-104567600D01*
X138459800Y-103653200D01*
X135919800Y-103653200D01*
X135919800Y-103841862D01*
X135943236Y-104186396D01*
X136011580Y-104521061D01*
X136121886Y-104841090D01*
X136271209Y-105141716D01*
X136456601Y-105418175D01*
X136675118Y-105665699D01*
X136923813Y-105879523D01*
X137199741Y-106054881D01*
X137326315Y-106117401D01*
X137478568Y-106181219D01*
X137623866Y-106229377D01*
X137773939Y-106264078D01*
X137940517Y-106287528D01*
X138135330Y-106301932D01*
X138345500Y-106309005D01*
X138572956Y-106311237D01*
X138755405Y-106307210D01*
X138898281Y-106296711D01*
X138984713Y-106284089D01*
X139334709Y-106193355D01*
X139680982Y-106054064D01*
X139718602Y-106035935D01*
X140010613Y-105865587D01*
X140272364Y-105657854D01*
X140502233Y-105417309D01*
X140698599Y-105148524D01*
X140859841Y-104856072D01*
X140984337Y-104544525D01*
X141070467Y-104218457D01*
X141116609Y-103882439D01*
X141121142Y-103541045D01*
X141082444Y-103198847D01*
X140998895Y-102860417D01*
X140920437Y-102646227D01*
X140794740Y-102396288D01*
X140628857Y-102146653D01*
X140432117Y-101908981D01*
X140213847Y-101694937D01*
X140059769Y-101570228D01*
X139885407Y-101456362D01*
X139680626Y-101347145D01*
X139465570Y-101252128D01*
X139260384Y-101180862D01*
X139209054Y-101166872D01*
X138877478Y-101104114D01*
X138532441Y-101078257D01*
X138183184Y-101088164D01*
X138183184Y-101088164D01*
G37*
X138183184Y-101088164D02*
X137838950Y-101132699D01*
X137508982Y-101210727D01*
X137202523Y-101321110D01*
X136961200Y-101443179D01*
X136794387Y-101553443D01*
X136617801Y-101690609D01*
X136450308Y-101839618D01*
X136390378Y-101898860D01*
X136264056Y-102028162D01*
X136568178Y-102334362D01*
X136671819Y-102437538D01*
X136765828Y-102528939D01*
X136843258Y-102601984D01*
X136897167Y-102650087D01*
X136917638Y-102665650D01*
X136948014Y-102672179D01*
X136988231Y-102656932D01*
X137047308Y-102614901D01*
X137120838Y-102552850D01*
X137382966Y-102353428D01*
X137657394Y-102200825D01*
X137940941Y-102095559D01*
X138230427Y-102038151D01*
X138522670Y-102029116D01*
X138814490Y-102068975D01*
X139102705Y-102158244D01*
X139221800Y-102210542D01*
X139332015Y-102267411D01*
X139425322Y-102327016D01*
X139516692Y-102400494D01*
X139621095Y-102498982D01*
X139654856Y-102532712D01*
X139828938Y-102728244D01*
X139960050Y-102923655D01*
X140054794Y-103129932D01*
X140099255Y-103272200D01*
X140127911Y-103430073D01*
X140141431Y-103615782D01*
X140139807Y-103809111D01*
X140123030Y-103989841D01*
X140099604Y-104108368D01*
X140003750Y-104373331D01*
X139864516Y-104618688D01*
X139687230Y-104839256D01*
X139477222Y-105029851D01*
X139239820Y-105185290D01*
X138980354Y-105300390D01*
X138828100Y-105345125D01*
X138688555Y-105369305D01*
X138521079Y-105383795D01*
X138343233Y-105388354D01*
X138172574Y-105382739D01*
X138026664Y-105366708D01*
X137977200Y-105356862D01*
X137735162Y-105274081D01*
X137512148Y-105147846D01*
X137316208Y-104983747D01*
X137155391Y-104787376D01*
X137153650Y-104784761D01*
X137110443Y-104721419D01*
X137077609Y-104671668D01*
X137059586Y-104633879D01*
X137060814Y-104606425D01*
X137085729Y-104587679D01*
X137138771Y-104576012D01*
X137224377Y-104569797D01*
X137346987Y-104567408D01*
X137511039Y-104567215D01*
X137720971Y-104567593D01*
X137745883Y-104567600D01*
X138459800Y-104567600D01*
X138459800Y-103653200D01*
X135919800Y-103653200D01*
X135919800Y-103841862D01*
X135943236Y-104186396D01*
X136011580Y-104521061D01*
X136121886Y-104841090D01*
X136271209Y-105141716D01*
X136456601Y-105418175D01*
X136675118Y-105665699D01*
X136923813Y-105879523D01*
X137199741Y-106054881D01*
X137326315Y-106117401D01*
X137478568Y-106181219D01*
X137623866Y-106229377D01*
X137773939Y-106264078D01*
X137940517Y-106287528D01*
X138135330Y-106301932D01*
X138345500Y-106309005D01*
X138572956Y-106311237D01*
X138755405Y-106307210D01*
X138898281Y-106296711D01*
X138984713Y-106284089D01*
X139334709Y-106193355D01*
X139680982Y-106054064D01*
X139718602Y-106035935D01*
X140010613Y-105865587D01*
X140272364Y-105657854D01*
X140502233Y-105417309D01*
X140698599Y-105148524D01*
X140859841Y-104856072D01*
X140984337Y-104544525D01*
X141070467Y-104218457D01*
X141116609Y-103882439D01*
X141121142Y-103541045D01*
X141082444Y-103198847D01*
X140998895Y-102860417D01*
X140920437Y-102646227D01*
X140794740Y-102396288D01*
X140628857Y-102146653D01*
X140432117Y-101908981D01*
X140213847Y-101694937D01*
X140059769Y-101570228D01*
X139885407Y-101456362D01*
X139680626Y-101347145D01*
X139465570Y-101252128D01*
X139260384Y-101180862D01*
X139209054Y-101166872D01*
X138877478Y-101104114D01*
X138532441Y-101078257D01*
X138183184Y-101088164D01*
G36*
X118139800Y-56079000D02*
X118749400Y-56079000D01*
X118749400Y-52751600D01*
X118139800Y-52751600D01*
X118139800Y-56079000D01*
X118139800Y-56079000D01*
G37*
X118139800Y-56079000D02*
X118749400Y-56079000D01*
X118749400Y-52751600D01*
X118139800Y-52751600D01*
X118139800Y-56079000D01*
G36*
X119239543Y-53980056D02*
X119154016Y-54036009D01*
X119116391Y-54075472D01*
X119085563Y-54118332D01*
X119060862Y-54169842D01*
X119041621Y-54235258D01*
X119027172Y-54319831D01*
X119016845Y-54428818D01*
X119009973Y-54567471D01*
X119005887Y-54741044D01*
X119003919Y-54954792D01*
X119003401Y-55213969D01*
X119003400Y-55220010D01*
X119003400Y-56079000D01*
X119613000Y-56079000D01*
X119613000Y-55373451D01*
X119613370Y-55160028D01*
X119614680Y-54991626D01*
X119617229Y-54862471D01*
X119621317Y-54766789D01*
X119627243Y-54698805D01*
X119635307Y-54652746D01*
X119645810Y-54622836D01*
X119652541Y-54611451D01*
X119708842Y-54563094D01*
X119772009Y-54564196D01*
X119831314Y-54608420D01*
X119845641Y-54627406D01*
X119856966Y-54653066D01*
X119865729Y-54691365D01*
X119872370Y-54748267D01*
X119877328Y-54829736D01*
X119881044Y-54941735D01*
X119883958Y-55090229D01*
X119886509Y-55281183D01*
X119887522Y-55370420D01*
X119895344Y-56079000D01*
X120502000Y-56079000D01*
X120502000Y-53996200D01*
X119895055Y-53996200D01*
X119887378Y-54128025D01*
X119879700Y-54259851D01*
X119816200Y-54165441D01*
X119725624Y-54067569D01*
X119611152Y-53997843D01*
X119484303Y-53958515D01*
X119356594Y-53951835D01*
X119239543Y-53980056D01*
X119239543Y-53980056D01*
G37*
X119239543Y-53980056D02*
X119154016Y-54036009D01*
X119116391Y-54075472D01*
X119085563Y-54118332D01*
X119060862Y-54169842D01*
X119041621Y-54235258D01*
X119027172Y-54319831D01*
X119016845Y-54428818D01*
X119009973Y-54567471D01*
X119005887Y-54741044D01*
X119003919Y-54954792D01*
X119003401Y-55213969D01*
X119003400Y-55220010D01*
X119003400Y-56079000D01*
X119613000Y-56079000D01*
X119613000Y-55373451D01*
X119613370Y-55160028D01*
X119614680Y-54991626D01*
X119617229Y-54862471D01*
X119621317Y-54766789D01*
X119627243Y-54698805D01*
X119635307Y-54652746D01*
X119645810Y-54622836D01*
X119652541Y-54611451D01*
X119708842Y-54563094D01*
X119772009Y-54564196D01*
X119831314Y-54608420D01*
X119845641Y-54627406D01*
X119856966Y-54653066D01*
X119865729Y-54691365D01*
X119872370Y-54748267D01*
X119877328Y-54829736D01*
X119881044Y-54941735D01*
X119883958Y-55090229D01*
X119886509Y-55281183D01*
X119887522Y-55370420D01*
X119895344Y-56079000D01*
X120502000Y-56079000D01*
X120502000Y-53996200D01*
X119895055Y-53996200D01*
X119887378Y-54128025D01*
X119879700Y-54259851D01*
X119816200Y-54165441D01*
X119725624Y-54067569D01*
X119611152Y-53997843D01*
X119484303Y-53958515D01*
X119356594Y-53951835D01*
X119239543Y-53980056D01*
G36*
X157423549Y-53240550D02*
X157378827Y-53349239D01*
X157319542Y-53493575D01*
X157250360Y-53662184D01*
X157175949Y-53843691D01*
X157100972Y-54026723D01*
X157070815Y-54100390D01*
X156835846Y-54674481D01*
X156845550Y-53814640D01*
X156855254Y-52954800D01*
X156189000Y-52954800D01*
X156189000Y-56079000D01*
X156500150Y-56078754D01*
X156811300Y-56078509D01*
X157163849Y-55202454D01*
X157243593Y-55004492D01*
X157317185Y-54822181D01*
X157382523Y-54660697D01*
X157437507Y-54525215D01*
X157480036Y-54420912D01*
X157508008Y-54352964D01*
X157519323Y-54326547D01*
X157519449Y-54326383D01*
X157519944Y-54350813D01*
X157519976Y-54420251D01*
X157519576Y-54528909D01*
X157518776Y-54670999D01*
X157517608Y-54840730D01*
X157516104Y-55032314D01*
X157514633Y-55202683D01*
X157506765Y-56079000D01*
X158144800Y-56079000D01*
X158144800Y-52954800D01*
X157541315Y-52954800D01*
X157423549Y-53240550D01*
X157423549Y-53240550D01*
G37*
X157423549Y-53240550D02*
X157378827Y-53349239D01*
X157319542Y-53493575D01*
X157250360Y-53662184D01*
X157175949Y-53843691D01*
X157100972Y-54026723D01*
X157070815Y-54100390D01*
X156835846Y-54674481D01*
X156845550Y-53814640D01*
X156855254Y-52954800D01*
X156189000Y-52954800D01*
X156189000Y-56079000D01*
X156500150Y-56078754D01*
X156811300Y-56078509D01*
X157163849Y-55202454D01*
X157243593Y-55004492D01*
X157317185Y-54822181D01*
X157382523Y-54660697D01*
X157437507Y-54525215D01*
X157480036Y-54420912D01*
X157508008Y-54352964D01*
X157519323Y-54326547D01*
X157519449Y-54326383D01*
X157519944Y-54350813D01*
X157519976Y-54420251D01*
X157519576Y-54528909D01*
X157518776Y-54670999D01*
X157517608Y-54840730D01*
X157516104Y-55032314D01*
X157514633Y-55202683D01*
X157506765Y-56079000D01*
X158144800Y-56079000D01*
X158144800Y-52954800D01*
X157541315Y-52954800D01*
X157423549Y-53240550D01*
G36*
X121569511Y-52946255D02*
X121377169Y-53021918D01*
X121199328Y-53141945D01*
X121165630Y-53171786D01*
X121023235Y-53330913D01*
X120909884Y-53519484D01*
X120823912Y-53741662D01*
X120763651Y-54001608D01*
X120731291Y-54256602D01*
X120718017Y-54583546D01*
X120736696Y-54890194D01*
X120786188Y-55172042D01*
X120865354Y-55424589D01*
X120973053Y-55643332D01*
X121108146Y-55823767D01*
X121134975Y-55851522D01*
X121259719Y-55963629D01*
X121378842Y-56040717D01*
X121507292Y-56089025D01*
X121660018Y-56114787D01*
X121784700Y-56122588D01*
X121909545Y-56125296D01*
X121999830Y-56121760D01*
X122071623Y-56109905D01*
X122140993Y-56087658D01*
X122181132Y-56071425D01*
X122330532Y-55999057D01*
X122447112Y-55918118D01*
X122548675Y-55815766D01*
X122568419Y-55792004D01*
X122685174Y-55624427D01*
X122775134Y-55439445D01*
X122840504Y-55229750D01*
X122883484Y-54988035D01*
X122906279Y-54706991D01*
X122907929Y-54665657D01*
X122908211Y-54542300D01*
X122233551Y-54542300D01*
X122222866Y-54811186D01*
X122193060Y-55040725D01*
X122144791Y-55229314D01*
X122078716Y-55375346D01*
X121995494Y-55477217D01*
X121895780Y-55533324D01*
X121822800Y-55544488D01*
X121758157Y-55531908D01*
X121685039Y-55499983D01*
X121677775Y-55495701D01*
X121613681Y-55440333D01*
X121555749Y-55364538D01*
X121544185Y-55343937D01*
X121483290Y-55186926D01*
X121438452Y-54993341D01*
X121410131Y-54774955D01*
X121398786Y-54543541D01*
X121404878Y-54310871D01*
X121428866Y-54088718D01*
X121471211Y-53888855D01*
X121485483Y-53841377D01*
X121534405Y-53732608D01*
X121602435Y-53631665D01*
X121620986Y-53610678D01*
X121685619Y-53550302D01*
X121741946Y-53521381D01*
X121810598Y-53513617D01*
X121815442Y-53513600D01*
X121931564Y-53537202D01*
X122029095Y-53607736D01*
X122107868Y-53724795D01*
X122167718Y-53887969D01*
X122208478Y-54096850D01*
X122229983Y-54351030D01*
X122233551Y-54542300D01*
X122908211Y-54542300D01*
X122908667Y-54343066D01*
X122885580Y-54060279D01*
X122837536Y-53811649D01*
X122763401Y-53591531D01*
X122662042Y-53394276D01*
X122648409Y-53372521D01*
X122511439Y-53201275D01*
X122348291Y-53068885D01*
X122165744Y-52976271D01*
X121970579Y-52924349D01*
X121769575Y-52914038D01*
X121569511Y-52946255D01*
X121569511Y-52946255D01*
G37*
X121569511Y-52946255D02*
X121377169Y-53021918D01*
X121199328Y-53141945D01*
X121165630Y-53171786D01*
X121023235Y-53330913D01*
X120909884Y-53519484D01*
X120823912Y-53741662D01*
X120763651Y-54001608D01*
X120731291Y-54256602D01*
X120718017Y-54583546D01*
X120736696Y-54890194D01*
X120786188Y-55172042D01*
X120865354Y-55424589D01*
X120973053Y-55643332D01*
X121108146Y-55823767D01*
X121134975Y-55851522D01*
X121259719Y-55963629D01*
X121378842Y-56040717D01*
X121507292Y-56089025D01*
X121660018Y-56114787D01*
X121784700Y-56122588D01*
X121909545Y-56125296D01*
X121999830Y-56121760D01*
X122071623Y-56109905D01*
X122140993Y-56087658D01*
X122181132Y-56071425D01*
X122330532Y-55999057D01*
X122447112Y-55918118D01*
X122548675Y-55815766D01*
X122568419Y-55792004D01*
X122685174Y-55624427D01*
X122775134Y-55439445D01*
X122840504Y-55229750D01*
X122883484Y-54988035D01*
X122906279Y-54706991D01*
X122907929Y-54665657D01*
X122908211Y-54542300D01*
X122233551Y-54542300D01*
X122222866Y-54811186D01*
X122193060Y-55040725D01*
X122144791Y-55229314D01*
X122078716Y-55375346D01*
X121995494Y-55477217D01*
X121895780Y-55533324D01*
X121822800Y-55544488D01*
X121758157Y-55531908D01*
X121685039Y-55499983D01*
X121677775Y-55495701D01*
X121613681Y-55440333D01*
X121555749Y-55364538D01*
X121544185Y-55343937D01*
X121483290Y-55186926D01*
X121438452Y-54993341D01*
X121410131Y-54774955D01*
X121398786Y-54543541D01*
X121404878Y-54310871D01*
X121428866Y-54088718D01*
X121471211Y-53888855D01*
X121485483Y-53841377D01*
X121534405Y-53732608D01*
X121602435Y-53631665D01*
X121620986Y-53610678D01*
X121685619Y-53550302D01*
X121741946Y-53521381D01*
X121810598Y-53513617D01*
X121815442Y-53513600D01*
X121931564Y-53537202D01*
X122029095Y-53607736D01*
X122107868Y-53724795D01*
X122167718Y-53887969D01*
X122208478Y-54096850D01*
X122229983Y-54351030D01*
X122233551Y-54542300D01*
X122908211Y-54542300D01*
X122908667Y-54343066D01*
X122885580Y-54060279D01*
X122837536Y-53811649D01*
X122763401Y-53591531D01*
X122662042Y-53394276D01*
X122648409Y-53372521D01*
X122511439Y-53201275D01*
X122348291Y-53068885D01*
X122165744Y-52976271D01*
X121970579Y-52924349D01*
X121769575Y-52914038D01*
X121569511Y-52946255D01*
G36*
X146295525Y-53956241D02*
X146107413Y-53996231D01*
X145940517Y-54067396D01*
X145907070Y-54087828D01*
X145848640Y-54126049D01*
X145967959Y-54346874D01*
X146019245Y-54441355D01*
X146061062Y-54517574D01*
X146087869Y-54565479D01*
X146094571Y-54576615D01*
X146117247Y-54568634D01*
X146165337Y-54537940D01*
X146186082Y-54522961D01*
X146285470Y-54465797D01*
X146377980Y-54442503D01*
X146454509Y-54452959D01*
X146505954Y-54497045D01*
X146518372Y-54527349D01*
X146510730Y-54595452D01*
X146456139Y-54668199D01*
X146357794Y-54742101D01*
X146284205Y-54782992D01*
X146123179Y-54876785D01*
X146007400Y-54976419D01*
X145931374Y-55090166D01*
X145889607Y-55226298D01*
X145876605Y-55393089D01*
X145876600Y-55396694D01*
X145895553Y-55605797D01*
X145951902Y-55782859D01*
X146044887Y-55926394D01*
X146173746Y-56034915D01*
X146215607Y-56058545D01*
X146326508Y-56096879D01*
X146466153Y-56118571D01*
X146614929Y-56122542D01*
X146753225Y-56107713D01*
X146816400Y-56091588D01*
X146923555Y-56049608D01*
X147024735Y-55998519D01*
X147105861Y-55946318D01*
X147152851Y-55901004D01*
X147153378Y-55900172D01*
X147157942Y-55866950D01*
X147139139Y-55811595D01*
X147094036Y-55726962D01*
X147056878Y-55665222D01*
X147001025Y-55578764D01*
X146953028Y-55511820D01*
X146920136Y-55474182D01*
X146911886Y-55469400D01*
X146876440Y-55482987D01*
X146822202Y-55516129D01*
X146816109Y-55520407D01*
X146717767Y-55571093D01*
X146625778Y-55584567D01*
X146549340Y-55563268D01*
X146497652Y-55509634D01*
X146479850Y-55431300D01*
X146492345Y-55371815D01*
X146534258Y-55316630D01*
X146612233Y-55259345D01*
X146719970Y-55200080D01*
X146886997Y-55096630D01*
X147007676Y-54976920D01*
X147085144Y-54836174D01*
X147122539Y-54669616D01*
X147127169Y-54580158D01*
X147107822Y-54398437D01*
X147047243Y-54246343D01*
X146945316Y-54123725D01*
X146801924Y-54030432D01*
X146666883Y-53979553D01*
X146487725Y-53949868D01*
X146295525Y-53956241D01*
X146295525Y-53956241D01*
G37*
X146295525Y-53956241D02*
X146107413Y-53996231D01*
X145940517Y-54067396D01*
X145907070Y-54087828D01*
X145848640Y-54126049D01*
X145967959Y-54346874D01*
X146019245Y-54441355D01*
X146061062Y-54517574D01*
X146087869Y-54565479D01*
X146094571Y-54576615D01*
X146117247Y-54568634D01*
X146165337Y-54537940D01*
X146186082Y-54522961D01*
X146285470Y-54465797D01*
X146377980Y-54442503D01*
X146454509Y-54452959D01*
X146505954Y-54497045D01*
X146518372Y-54527349D01*
X146510730Y-54595452D01*
X146456139Y-54668199D01*
X146357794Y-54742101D01*
X146284205Y-54782992D01*
X146123179Y-54876785D01*
X146007400Y-54976419D01*
X145931374Y-55090166D01*
X145889607Y-55226298D01*
X145876605Y-55393089D01*
X145876600Y-55396694D01*
X145895553Y-55605797D01*
X145951902Y-55782859D01*
X146044887Y-55926394D01*
X146173746Y-56034915D01*
X146215607Y-56058545D01*
X146326508Y-56096879D01*
X146466153Y-56118571D01*
X146614929Y-56122542D01*
X146753225Y-56107713D01*
X146816400Y-56091588D01*
X146923555Y-56049608D01*
X147024735Y-55998519D01*
X147105861Y-55946318D01*
X147152851Y-55901004D01*
X147153378Y-55900172D01*
X147157942Y-55866950D01*
X147139139Y-55811595D01*
X147094036Y-55726962D01*
X147056878Y-55665222D01*
X147001025Y-55578764D01*
X146953028Y-55511820D01*
X146920136Y-55474182D01*
X146911886Y-55469400D01*
X146876440Y-55482987D01*
X146822202Y-55516129D01*
X146816109Y-55520407D01*
X146717767Y-55571093D01*
X146625778Y-55584567D01*
X146549340Y-55563268D01*
X146497652Y-55509634D01*
X146479850Y-55431300D01*
X146492345Y-55371815D01*
X146534258Y-55316630D01*
X146612233Y-55259345D01*
X146719970Y-55200080D01*
X146886997Y-55096630D01*
X147007676Y-54976920D01*
X147085144Y-54836174D01*
X147122539Y-54669616D01*
X147127169Y-54580158D01*
X147107822Y-54398437D01*
X147047243Y-54246343D01*
X146945316Y-54123725D01*
X146801924Y-54030432D01*
X146666883Y-53979553D01*
X146487725Y-53949868D01*
X146295525Y-53956241D01*
G36*
X147426000Y-56079000D02*
X148035600Y-56079000D01*
X148035600Y-55921227D01*
X148108820Y-55999609D01*
X148172826Y-56056778D01*
X148238148Y-56098653D01*
X148250173Y-56103895D01*
X148362196Y-56127325D01*
X148483310Y-56122963D01*
X148589599Y-56092323D01*
X148610508Y-56081067D01*
X148727218Y-55980751D01*
X148822530Y-55836551D01*
X148895567Y-55651054D01*
X148945451Y-55426846D01*
X148971304Y-55166515D01*
X148974226Y-55038925D01*
X148364955Y-55038925D01*
X148362755Y-55171376D01*
X148354811Y-55285676D01*
X148341280Y-55364734D01*
X148297065Y-55477361D01*
X148243733Y-55544695D01*
X148184295Y-55565228D01*
X148121762Y-55537451D01*
X148082163Y-55494509D01*
X148038194Y-55406448D01*
X148009027Y-55288027D01*
X147994021Y-55149771D01*
X147992534Y-55002208D01*
X148003925Y-54855864D01*
X148027555Y-54721266D01*
X148062780Y-54608941D01*
X148108961Y-54529414D01*
X148142651Y-54501282D01*
X148199476Y-54496117D01*
X148256408Y-54533879D01*
X148306082Y-54607249D01*
X148337911Y-54695336D01*
X148352451Y-54784637D01*
X148361493Y-54904589D01*
X148364955Y-55038925D01*
X148974226Y-55038925D01*
X148974959Y-55006920D01*
X148962312Y-54735028D01*
X148925796Y-54500382D01*
X148866215Y-54304772D01*
X148784374Y-54149985D01*
X148681076Y-54037809D01*
X148557124Y-53970034D01*
X148502662Y-53955891D01*
X148359200Y-53951361D01*
X148231110Y-53995126D01*
X148132105Y-54071518D01*
X148035600Y-54168023D01*
X148035600Y-52751600D01*
X147426000Y-52751600D01*
X147426000Y-56079000D01*
X147426000Y-56079000D01*
G37*
X147426000Y-56079000D02*
X148035600Y-56079000D01*
X148035600Y-55921227D01*
X148108820Y-55999609D01*
X148172826Y-56056778D01*
X148238148Y-56098653D01*
X148250173Y-56103895D01*
X148362196Y-56127325D01*
X148483310Y-56122963D01*
X148589599Y-56092323D01*
X148610508Y-56081067D01*
X148727218Y-55980751D01*
X148822530Y-55836551D01*
X148895567Y-55651054D01*
X148945451Y-55426846D01*
X148971304Y-55166515D01*
X148974226Y-55038925D01*
X148364955Y-55038925D01*
X148362755Y-55171376D01*
X148354811Y-55285676D01*
X148341280Y-55364734D01*
X148297065Y-55477361D01*
X148243733Y-55544695D01*
X148184295Y-55565228D01*
X148121762Y-55537451D01*
X148082163Y-55494509D01*
X148038194Y-55406448D01*
X148009027Y-55288027D01*
X147994021Y-55149771D01*
X147992534Y-55002208D01*
X148003925Y-54855864D01*
X148027555Y-54721266D01*
X148062780Y-54608941D01*
X148108961Y-54529414D01*
X148142651Y-54501282D01*
X148199476Y-54496117D01*
X148256408Y-54533879D01*
X148306082Y-54607249D01*
X148337911Y-54695336D01*
X148352451Y-54784637D01*
X148361493Y-54904589D01*
X148364955Y-55038925D01*
X148974226Y-55038925D01*
X148974959Y-55006920D01*
X148962312Y-54735028D01*
X148925796Y-54500382D01*
X148866215Y-54304772D01*
X148784374Y-54149985D01*
X148681076Y-54037809D01*
X148557124Y-53970034D01*
X148502662Y-53955891D01*
X148359200Y-53951361D01*
X148231110Y-53995126D01*
X148132105Y-54071518D01*
X148035600Y-54168023D01*
X148035600Y-52751600D01*
X147426000Y-52751600D01*
X147426000Y-56079000D01*
G36*
X149779084Y-53966858D02*
X149606785Y-54031081D01*
X149462056Y-54137846D01*
X149345151Y-54286924D01*
X149256325Y-54478092D01*
X149213811Y-54624623D01*
X149191658Y-54765783D01*
X149181684Y-54936750D01*
X149183251Y-55121824D01*
X149195721Y-55305309D01*
X149218459Y-55471506D01*
X149250825Y-55604717D01*
X149253975Y-55613946D01*
X149327856Y-55768115D01*
X149431445Y-55907507D01*
X149553011Y-56017845D01*
X149619844Y-56059211D01*
X149735108Y-56099313D01*
X149879316Y-56121328D01*
X150033716Y-56124664D01*
X150179560Y-56108726D01*
X150281438Y-56080132D01*
X150434849Y-55991627D01*
X150561372Y-55861605D01*
X150659953Y-55692290D01*
X150729536Y-55485906D01*
X150769068Y-55244676D01*
X150778359Y-55032320D01*
X150774769Y-54974335D01*
X150164008Y-54974335D01*
X150163885Y-55150893D01*
X150148147Y-55303436D01*
X150118694Y-55427216D01*
X150077425Y-55517488D01*
X150026237Y-55569503D01*
X149967031Y-55578515D01*
X149929079Y-55561721D01*
X149879798Y-55514425D01*
X149839000Y-55454107D01*
X149821772Y-55404772D01*
X149810170Y-55329887D01*
X149803474Y-55221579D01*
X149800964Y-55071975D01*
X149800900Y-55037600D01*
X149801778Y-54894377D01*
X149805242Y-54791607D01*
X149812542Y-54718958D01*
X149824928Y-54666102D01*
X149843650Y-54622707D01*
X149853124Y-54605800D01*
X149898965Y-54544115D01*
X149949211Y-54519302D01*
X149980124Y-54516900D01*
X150044980Y-54535393D01*
X150094836Y-54592789D01*
X150130847Y-54691957D01*
X150154167Y-54835772D01*
X150164008Y-54974335D01*
X150774769Y-54974335D01*
X150761733Y-54763831D01*
X150713734Y-54530854D01*
X150635384Y-54334778D01*
X150527705Y-54176994D01*
X150391720Y-54058890D01*
X150228451Y-53981857D01*
X150038921Y-53947285D01*
X149978700Y-53945400D01*
X149779084Y-53966858D01*
X149779084Y-53966858D01*
G37*
X149779084Y-53966858D02*
X149606785Y-54031081D01*
X149462056Y-54137846D01*
X149345151Y-54286924D01*
X149256325Y-54478092D01*
X149213811Y-54624623D01*
X149191658Y-54765783D01*
X149181684Y-54936750D01*
X149183251Y-55121824D01*
X149195721Y-55305309D01*
X149218459Y-55471506D01*
X149250825Y-55604717D01*
X149253975Y-55613946D01*
X149327856Y-55768115D01*
X149431445Y-55907507D01*
X149553011Y-56017845D01*
X149619844Y-56059211D01*
X149735108Y-56099313D01*
X149879316Y-56121328D01*
X150033716Y-56124664D01*
X150179560Y-56108726D01*
X150281438Y-56080132D01*
X150434849Y-55991627D01*
X150561372Y-55861605D01*
X150659953Y-55692290D01*
X150729536Y-55485906D01*
X150769068Y-55244676D01*
X150778359Y-55032320D01*
X150774769Y-54974335D01*
X150164008Y-54974335D01*
X150163885Y-55150893D01*
X150148147Y-55303436D01*
X150118694Y-55427216D01*
X150077425Y-55517488D01*
X150026237Y-55569503D01*
X149967031Y-55578515D01*
X149929079Y-55561721D01*
X149879798Y-55514425D01*
X149839000Y-55454107D01*
X149821772Y-55404772D01*
X149810170Y-55329887D01*
X149803474Y-55221579D01*
X149800964Y-55071975D01*
X149800900Y-55037600D01*
X149801778Y-54894377D01*
X149805242Y-54791607D01*
X149812542Y-54718958D01*
X149824928Y-54666102D01*
X149843650Y-54622707D01*
X149853124Y-54605800D01*
X149898965Y-54544115D01*
X149949211Y-54519302D01*
X149980124Y-54516900D01*
X150044980Y-54535393D01*
X150094836Y-54592789D01*
X150130847Y-54691957D01*
X150154167Y-54835772D01*
X150164008Y-54974335D01*
X150774769Y-54974335D01*
X150761733Y-54763831D01*
X150713734Y-54530854D01*
X150635384Y-54334778D01*
X150527705Y-54176994D01*
X150391720Y-54058890D01*
X150228451Y-53981857D01*
X150038921Y-53947285D01*
X149978700Y-53945400D01*
X149779084Y-53966858D01*
G36*
X151727992Y-52944583D02*
X151536378Y-53018804D01*
X151367274Y-53134910D01*
X151326355Y-53173255D01*
X151262180Y-53248311D01*
X151195864Y-53343480D01*
X151135121Y-53445367D01*
X151087663Y-53540577D01*
X151061203Y-53615713D01*
X151058200Y-53638977D01*
X151080519Y-53663318D01*
X151140053Y-53698255D01*
X151225669Y-53739373D01*
X151326233Y-53782257D01*
X151430612Y-53822491D01*
X151527672Y-53855661D01*
X151606280Y-53877352D01*
X151655301Y-53883147D01*
X151664671Y-53879477D01*
X151683668Y-53842122D01*
X151706969Y-53776574D01*
X151714293Y-53752039D01*
X151766180Y-53635695D01*
X151842418Y-53555056D01*
X151936425Y-53516266D01*
X151969714Y-53513694D01*
X152089295Y-53535910D01*
X152189327Y-53602623D01*
X152270021Y-53714330D01*
X152331584Y-53871530D01*
X152374225Y-54074720D01*
X152398153Y-54324400D01*
X152403959Y-54549985D01*
X152398193Y-54797602D01*
X152379194Y-55001062D01*
X152345401Y-55165653D01*
X152295253Y-55296658D01*
X152227191Y-55399364D01*
X152139652Y-55479055D01*
X152126990Y-55487845D01*
X152016991Y-55538349D01*
X151911173Y-55538261D01*
X151808460Y-55487515D01*
X151783258Y-55467009D01*
X151705669Y-55369774D01*
X151649160Y-55239827D01*
X151619792Y-55092982D01*
X151617000Y-55032989D01*
X151617000Y-54936000D01*
X151998000Y-54936000D01*
X151998000Y-54326400D01*
X150950474Y-54326400D01*
X150969058Y-54673395D01*
X150997219Y-54997132D01*
X151045188Y-55275997D01*
X151113946Y-55512301D01*
X151204471Y-55708352D01*
X151317744Y-55866462D01*
X151454744Y-55988938D01*
X151551889Y-56047920D01*
X151619569Y-56079450D01*
X151685978Y-56100069D01*
X151765884Y-56112552D01*
X151874053Y-56119673D01*
X151947200Y-56122202D01*
X152079529Y-56124150D01*
X152176443Y-56119884D01*
X152253130Y-56107692D01*
X152324776Y-56085861D01*
X152348037Y-56076987D01*
X152520470Y-55982366D01*
X152676152Y-55843440D01*
X152811862Y-55664871D01*
X152924382Y-55451318D01*
X153010491Y-55207441D01*
X153043826Y-55069880D01*
X153071070Y-54885668D01*
X153085152Y-54671484D01*
X153086414Y-54443271D01*
X153075199Y-54216969D01*
X153051850Y-54008517D01*
X153017325Y-53836167D01*
X152937199Y-53601978D01*
X152830455Y-53395027D01*
X152701268Y-53220822D01*
X152553807Y-53084870D01*
X152392247Y-52992680D01*
X152372566Y-52984989D01*
X152152620Y-52926500D01*
X151935585Y-52913423D01*
X151727992Y-52944583D01*
X151727992Y-52944583D01*
G37*
X151727992Y-52944583D02*
X151536378Y-53018804D01*
X151367274Y-53134910D01*
X151326355Y-53173255D01*
X151262180Y-53248311D01*
X151195864Y-53343480D01*
X151135121Y-53445367D01*
X151087663Y-53540577D01*
X151061203Y-53615713D01*
X151058200Y-53638977D01*
X151080519Y-53663318D01*
X151140053Y-53698255D01*
X151225669Y-53739373D01*
X151326233Y-53782257D01*
X151430612Y-53822491D01*
X151527672Y-53855661D01*
X151606280Y-53877352D01*
X151655301Y-53883147D01*
X151664671Y-53879477D01*
X151683668Y-53842122D01*
X151706969Y-53776574D01*
X151714293Y-53752039D01*
X151766180Y-53635695D01*
X151842418Y-53555056D01*
X151936425Y-53516266D01*
X151969714Y-53513694D01*
X152089295Y-53535910D01*
X152189327Y-53602623D01*
X152270021Y-53714330D01*
X152331584Y-53871530D01*
X152374225Y-54074720D01*
X152398153Y-54324400D01*
X152403959Y-54549985D01*
X152398193Y-54797602D01*
X152379194Y-55001062D01*
X152345401Y-55165653D01*
X152295253Y-55296658D01*
X152227191Y-55399364D01*
X152139652Y-55479055D01*
X152126990Y-55487845D01*
X152016991Y-55538349D01*
X151911173Y-55538261D01*
X151808460Y-55487515D01*
X151783258Y-55467009D01*
X151705669Y-55369774D01*
X151649160Y-55239827D01*
X151619792Y-55092982D01*
X151617000Y-55032989D01*
X151617000Y-54936000D01*
X151998000Y-54936000D01*
X151998000Y-54326400D01*
X150950474Y-54326400D01*
X150969058Y-54673395D01*
X150997219Y-54997132D01*
X151045188Y-55275997D01*
X151113946Y-55512301D01*
X151204471Y-55708352D01*
X151317744Y-55866462D01*
X151454744Y-55988938D01*
X151551889Y-56047920D01*
X151619569Y-56079450D01*
X151685978Y-56100069D01*
X151765884Y-56112552D01*
X151874053Y-56119673D01*
X151947200Y-56122202D01*
X152079529Y-56124150D01*
X152176443Y-56119884D01*
X152253130Y-56107692D01*
X152324776Y-56085861D01*
X152348037Y-56076987D01*
X152520470Y-55982366D01*
X152676152Y-55843440D01*
X152811862Y-55664871D01*
X152924382Y-55451318D01*
X153010491Y-55207441D01*
X153043826Y-55069880D01*
X153071070Y-54885668D01*
X153085152Y-54671484D01*
X153086414Y-54443271D01*
X153075199Y-54216969D01*
X153051850Y-54008517D01*
X153017325Y-53836167D01*
X152937199Y-53601978D01*
X152830455Y-53395027D01*
X152701268Y-53220822D01*
X152553807Y-53084870D01*
X152392247Y-52992680D01*
X152372566Y-52984989D01*
X152152620Y-52926500D01*
X151935585Y-52913423D01*
X151727992Y-52944583D01*
G36*
X154979477Y-53961341D02*
X154883562Y-53972752D01*
X154805373Y-53994879D01*
X154766600Y-54011317D01*
X154614834Y-54106134D01*
X154493963Y-54235784D01*
X154403209Y-54401988D01*
X154341795Y-54606466D01*
X154308942Y-54850937D01*
X154302522Y-55037600D01*
X154317165Y-55315657D01*
X154361934Y-55552953D01*
X154436792Y-55749438D01*
X154541704Y-55905063D01*
X154676633Y-56019779D01*
X154841543Y-56093539D01*
X155036398Y-56126293D01*
X155114398Y-56128030D01*
X155221280Y-56120381D01*
X155328844Y-56102871D01*
X155376200Y-56090770D01*
X155527617Y-56018040D01*
X155654861Y-55901116D01*
X155749566Y-55757054D01*
X155811767Y-55621749D01*
X155854626Y-55484130D01*
X155880767Y-55330926D01*
X155892814Y-55148868D01*
X155893479Y-55096113D01*
X155294310Y-55096113D01*
X155279339Y-55245623D01*
X155251122Y-55379970D01*
X155211444Y-55487983D01*
X155162091Y-55558489D01*
X155154618Y-55564650D01*
X155115236Y-55591189D01*
X155085211Y-55590586D01*
X155047385Y-55571741D01*
X154997259Y-55519108D01*
X154957259Y-55427068D01*
X154927966Y-55306105D01*
X154909961Y-55166708D01*
X154903826Y-55019363D01*
X154910143Y-54874557D01*
X154929493Y-54742777D01*
X154962457Y-54634509D01*
X154992411Y-54580400D01*
X155052880Y-54525236D01*
X155114780Y-54517284D01*
X155173805Y-54553280D01*
X155225646Y-54629960D01*
X155265997Y-54744062D01*
X155277374Y-54796300D01*
X155294250Y-54942615D01*
X155294310Y-55096113D01*
X155893479Y-55096113D01*
X155894379Y-55024900D01*
X155879251Y-54754101D01*
X155834346Y-54523547D01*
X155759113Y-54331929D01*
X155652998Y-54177938D01*
X155515449Y-54060267D01*
X155477124Y-54036958D01*
X155404668Y-53998465D01*
X155342473Y-53975005D01*
X155273478Y-53962919D01*
X155180625Y-53958547D01*
X155109500Y-53958104D01*
X154979477Y-53961341D01*
X154979477Y-53961341D01*
G37*
X154979477Y-53961341D02*
X154883562Y-53972752D01*
X154805373Y-53994879D01*
X154766600Y-54011317D01*
X154614834Y-54106134D01*
X154493963Y-54235784D01*
X154403209Y-54401988D01*
X154341795Y-54606466D01*
X154308942Y-54850937D01*
X154302522Y-55037600D01*
X154317165Y-55315657D01*
X154361934Y-55552953D01*
X154436792Y-55749438D01*
X154541704Y-55905063D01*
X154676633Y-56019779D01*
X154841543Y-56093539D01*
X155036398Y-56126293D01*
X155114398Y-56128030D01*
X155221280Y-56120381D01*
X155328844Y-56102871D01*
X155376200Y-56090770D01*
X155527617Y-56018040D01*
X155654861Y-55901116D01*
X155749566Y-55757054D01*
X155811767Y-55621749D01*
X155854626Y-55484130D01*
X155880767Y-55330926D01*
X155892814Y-55148868D01*
X155893479Y-55096113D01*
X155294310Y-55096113D01*
X155279339Y-55245623D01*
X155251122Y-55379970D01*
X155211444Y-55487983D01*
X155162091Y-55558489D01*
X155154618Y-55564650D01*
X155115236Y-55591189D01*
X155085211Y-55590586D01*
X155047385Y-55571741D01*
X154997259Y-55519108D01*
X154957259Y-55427068D01*
X154927966Y-55306105D01*
X154909961Y-55166708D01*
X154903826Y-55019363D01*
X154910143Y-54874557D01*
X154929493Y-54742777D01*
X154962457Y-54634509D01*
X154992411Y-54580400D01*
X155052880Y-54525236D01*
X155114780Y-54517284D01*
X155173805Y-54553280D01*
X155225646Y-54629960D01*
X155265997Y-54744062D01*
X155277374Y-54796300D01*
X155294250Y-54942615D01*
X155294310Y-55096113D01*
X155893479Y-55096113D01*
X155894379Y-55024900D01*
X155879251Y-54754101D01*
X155834346Y-54523547D01*
X155759113Y-54331929D01*
X155652998Y-54177938D01*
X155515449Y-54060267D01*
X155477124Y-54036958D01*
X155404668Y-53998465D01*
X155342473Y-53975005D01*
X155273478Y-53962919D01*
X155180625Y-53958547D01*
X155109500Y-53958104D01*
X154979477Y-53961341D01*
G36*
X116373464Y-53997695D02*
X116281952Y-54002592D01*
X116229559Y-54011504D01*
X116210484Y-54025046D01*
X116210139Y-54027950D01*
X116217129Y-54057360D01*
X116237033Y-54131321D01*
X116268649Y-54245583D01*
X116310778Y-54395899D01*
X116362218Y-54578018D01*
X116421769Y-54787693D01*
X116488230Y-55020673D01*
X116560399Y-55272710D01*
X116637078Y-55539555D01*
X116649788Y-55583700D01*
X117088698Y-57107700D01*
X117385649Y-57114856D01*
X117529629Y-57116271D01*
X117625184Y-57112281D01*
X117674417Y-57102736D01*
X117682600Y-57094054D01*
X117675228Y-57062261D01*
X117654664Y-56989875D01*
X117623239Y-56884671D01*
X117583282Y-56754426D01*
X117537123Y-56606916D01*
X117528262Y-56578897D01*
X117480982Y-56427292D01*
X117439499Y-56289762D01*
X117406185Y-56174548D01*
X117383412Y-56089890D01*
X117373555Y-56044029D01*
X117373335Y-56040900D01*
X117380377Y-56005942D01*
X117401005Y-55926297D01*
X117434081Y-55805895D01*
X117478469Y-55648667D01*
X117533031Y-55458545D01*
X117596629Y-55239460D01*
X117668125Y-54995343D01*
X117746383Y-54730125D01*
X117830265Y-54447738D01*
X117918633Y-54152113D01*
X117952332Y-54039852D01*
X117954481Y-54021004D01*
X117942211Y-54008597D01*
X117907646Y-54001625D01*
X117842910Y-53999079D01*
X117740128Y-53999952D01*
X117654564Y-54001752D01*
X117343198Y-54008900D01*
X117217686Y-54516900D01*
X117179177Y-54672176D01*
X117144215Y-54812044D01*
X117114829Y-54928482D01*
X117093046Y-55013466D01*
X117080893Y-55058975D01*
X117079678Y-55063000D01*
X117070689Y-55050653D01*
X117052351Y-54995131D01*
X117026415Y-54902830D01*
X116994634Y-54780146D01*
X116958760Y-54633476D01*
X116938790Y-54548650D01*
X116810397Y-53996200D01*
X116509899Y-53996200D01*
X116373464Y-53997695D01*
X116373464Y-53997695D01*
G37*
X116373464Y-53997695D02*
X116281952Y-54002592D01*
X116229559Y-54011504D01*
X116210484Y-54025046D01*
X116210139Y-54027950D01*
X116217129Y-54057360D01*
X116237033Y-54131321D01*
X116268649Y-54245583D01*
X116310778Y-54395899D01*
X116362218Y-54578018D01*
X116421769Y-54787693D01*
X116488230Y-55020673D01*
X116560399Y-55272710D01*
X116637078Y-55539555D01*
X116649788Y-55583700D01*
X117088698Y-57107700D01*
X117385649Y-57114856D01*
X117529629Y-57116271D01*
X117625184Y-57112281D01*
X117674417Y-57102736D01*
X117682600Y-57094054D01*
X117675228Y-57062261D01*
X117654664Y-56989875D01*
X117623239Y-56884671D01*
X117583282Y-56754426D01*
X117537123Y-56606916D01*
X117528262Y-56578897D01*
X117480982Y-56427292D01*
X117439499Y-56289762D01*
X117406185Y-56174548D01*
X117383412Y-56089890D01*
X117373555Y-56044029D01*
X117373335Y-56040900D01*
X117380377Y-56005942D01*
X117401005Y-55926297D01*
X117434081Y-55805895D01*
X117478469Y-55648667D01*
X117533031Y-55458545D01*
X117596629Y-55239460D01*
X117668125Y-54995343D01*
X117746383Y-54730125D01*
X117830265Y-54447738D01*
X117918633Y-54152113D01*
X117952332Y-54039852D01*
X117954481Y-54021004D01*
X117942211Y-54008597D01*
X117907646Y-54001625D01*
X117842910Y-53999079D01*
X117740128Y-53999952D01*
X117654564Y-54001752D01*
X117343198Y-54008900D01*
X117217686Y-54516900D01*
X117179177Y-54672176D01*
X117144215Y-54812044D01*
X117114829Y-54928482D01*
X117093046Y-55013466D01*
X117080893Y-55058975D01*
X117079678Y-55063000D01*
X117070689Y-55050653D01*
X117052351Y-54995131D01*
X117026415Y-54902830D01*
X116994634Y-54780146D01*
X116958760Y-54633476D01*
X116938790Y-54548650D01*
X116810397Y-53996200D01*
X116509899Y-53996200D01*
X116373464Y-53997695D01*
G36*
X151422849Y-57949927D02*
X151309820Y-57986615D01*
X151214442Y-58057690D01*
X151161408Y-58133248D01*
X151118000Y-58265562D01*
X151118953Y-58392952D01*
X151158582Y-58507924D01*
X151231205Y-58602982D01*
X151331139Y-58670630D01*
X151452700Y-58703371D01*
X151586910Y-58694463D01*
X151701537Y-58644891D01*
X151789598Y-58559881D01*
X151846558Y-58449773D01*
X151867882Y-58324902D01*
X151849035Y-58195606D01*
X151828583Y-58143589D01*
X151756396Y-58044457D01*
X151657282Y-57979021D01*
X151542385Y-57947454D01*
X151422849Y-57949927D01*
X151422849Y-57949927D01*
G37*
X151422849Y-57949927D02*
X151309820Y-57986615D01*
X151214442Y-58057690D01*
X151161408Y-58133248D01*
X151118000Y-58265562D01*
X151118953Y-58392952D01*
X151158582Y-58507924D01*
X151231205Y-58602982D01*
X151331139Y-58670630D01*
X151452700Y-58703371D01*
X151586910Y-58694463D01*
X151701537Y-58644891D01*
X151789598Y-58559881D01*
X151846558Y-58449773D01*
X151867882Y-58324902D01*
X151849035Y-58195606D01*
X151828583Y-58143589D01*
X151756396Y-58044457D01*
X151657282Y-57979021D01*
X151542385Y-57947454D01*
X151422849Y-57949927D01*
G36*
X119141031Y-57908341D02*
X119037204Y-57909823D01*
X118963302Y-57912035D01*
X118928644Y-57914766D01*
X118927200Y-57915475D01*
X118921427Y-57940851D01*
X118904779Y-58011391D01*
X118878267Y-58122871D01*
X118842903Y-58271065D01*
X118799696Y-58451749D01*
X118749658Y-58660696D01*
X118693797Y-58893681D01*
X118633126Y-59146479D01*
X118568655Y-59414866D01*
X118558900Y-59455452D01*
X118493892Y-59726265D01*
X118432543Y-59982507D01*
X118375868Y-60219898D01*
X118324879Y-60434162D01*
X118280591Y-60621022D01*
X118244017Y-60776198D01*
X118216171Y-60895414D01*
X118198065Y-60974392D01*
X118190714Y-61008855D01*
X118190600Y-61009876D01*
X118214448Y-61017998D01*
X118279794Y-61024779D01*
X118377341Y-61029614D01*
X118497791Y-61031898D01*
X118530325Y-61032000D01*
X118870050Y-61032000D01*
X118886085Y-60949450D01*
X118899683Y-60882767D01*
X118919948Y-60787144D01*
X118942505Y-60683228D01*
X118942610Y-60682750D01*
X118983100Y-60498600D01*
X119576716Y-60498600D01*
X119623868Y-60733550D01*
X119645683Y-60839509D01*
X119664934Y-60928074D01*
X119678764Y-60986328D01*
X119682827Y-61000250D01*
X119704650Y-61014695D01*
X119761004Y-61024463D01*
X119857134Y-61030059D01*
X119998283Y-61031988D01*
X120012380Y-61032000D01*
X120144292Y-61031438D01*
X120233228Y-61028995D01*
X120287006Y-61023536D01*
X120313446Y-61013926D01*
X120320366Y-60999029D01*
X120318525Y-60987550D01*
X120310857Y-60955450D01*
X120292754Y-60878256D01*
X120265241Y-60760366D01*
X120229338Y-60606175D01*
X120186068Y-60420082D01*
X120136454Y-60206483D01*
X120081518Y-59969776D01*
X120076039Y-59946150D01*
X119459724Y-59946150D01*
X119453800Y-59969064D01*
X119428143Y-59982525D01*
X119372608Y-59988909D01*
X119277051Y-59990596D01*
X119270100Y-59990600D01*
X119179034Y-59989583D01*
X119111671Y-59986895D01*
X119080430Y-59983075D01*
X119079600Y-59982300D01*
X119084066Y-59955809D01*
X119096395Y-59888079D01*
X119114983Y-59787784D01*
X119138227Y-59663595D01*
X119153548Y-59582250D01*
X119180455Y-59438575D01*
X119205167Y-59304539D01*
X119225574Y-59191746D01*
X119239563Y-59111802D01*
X119243317Y-59088900D01*
X119257611Y-59001375D01*
X119269837Y-58943615D01*
X119281390Y-58918584D01*
X119293666Y-58929248D01*
X119308060Y-58978571D01*
X119325966Y-59069519D01*
X119348781Y-59205056D01*
X119374771Y-59368300D01*
X119399852Y-59529192D01*
X119422034Y-59674874D01*
X119440126Y-59797234D01*
X119452933Y-59888160D01*
X119459263Y-59939541D01*
X119459724Y-59946150D01*
X120076039Y-59946150D01*
X120022283Y-59714358D01*
X119959770Y-59444625D01*
X119955327Y-59425450D01*
X119603730Y-57907800D01*
X119265465Y-57907800D01*
X119141031Y-57908341D01*
X119141031Y-57908341D01*
G37*
X119141031Y-57908341D02*
X119037204Y-57909823D01*
X118963302Y-57912035D01*
X118928644Y-57914766D01*
X118927200Y-57915475D01*
X118921427Y-57940851D01*
X118904779Y-58011391D01*
X118878267Y-58122871D01*
X118842903Y-58271065D01*
X118799696Y-58451749D01*
X118749658Y-58660696D01*
X118693797Y-58893681D01*
X118633126Y-59146479D01*
X118568655Y-59414866D01*
X118558900Y-59455452D01*
X118493892Y-59726265D01*
X118432543Y-59982507D01*
X118375868Y-60219898D01*
X118324879Y-60434162D01*
X118280591Y-60621022D01*
X118244017Y-60776198D01*
X118216171Y-60895414D01*
X118198065Y-60974392D01*
X118190714Y-61008855D01*
X118190600Y-61009876D01*
X118214448Y-61017998D01*
X118279794Y-61024779D01*
X118377341Y-61029614D01*
X118497791Y-61031898D01*
X118530325Y-61032000D01*
X118870050Y-61032000D01*
X118886085Y-60949450D01*
X118899683Y-60882767D01*
X118919948Y-60787144D01*
X118942505Y-60683228D01*
X118942610Y-60682750D01*
X118983100Y-60498600D01*
X119576716Y-60498600D01*
X119623868Y-60733550D01*
X119645683Y-60839509D01*
X119664934Y-60928074D01*
X119678764Y-60986328D01*
X119682827Y-61000250D01*
X119704650Y-61014695D01*
X119761004Y-61024463D01*
X119857134Y-61030059D01*
X119998283Y-61031988D01*
X120012380Y-61032000D01*
X120144292Y-61031438D01*
X120233228Y-61028995D01*
X120287006Y-61023536D01*
X120313446Y-61013926D01*
X120320366Y-60999029D01*
X120318525Y-60987550D01*
X120310857Y-60955450D01*
X120292754Y-60878256D01*
X120265241Y-60760366D01*
X120229338Y-60606175D01*
X120186068Y-60420082D01*
X120136454Y-60206483D01*
X120081518Y-59969776D01*
X120076039Y-59946150D01*
X119459724Y-59946150D01*
X119453800Y-59969064D01*
X119428143Y-59982525D01*
X119372608Y-59988909D01*
X119277051Y-59990596D01*
X119270100Y-59990600D01*
X119179034Y-59989583D01*
X119111671Y-59986895D01*
X119080430Y-59983075D01*
X119079600Y-59982300D01*
X119084066Y-59955809D01*
X119096395Y-59888079D01*
X119114983Y-59787784D01*
X119138227Y-59663595D01*
X119153548Y-59582250D01*
X119180455Y-59438575D01*
X119205167Y-59304539D01*
X119225574Y-59191746D01*
X119239563Y-59111802D01*
X119243317Y-59088900D01*
X119257611Y-59001375D01*
X119269837Y-58943615D01*
X119281390Y-58918584D01*
X119293666Y-58929248D01*
X119308060Y-58978571D01*
X119325966Y-59069519D01*
X119348781Y-59205056D01*
X119374771Y-59368300D01*
X119399852Y-59529192D01*
X119422034Y-59674874D01*
X119440126Y-59797234D01*
X119452933Y-59888160D01*
X119459263Y-59939541D01*
X119459724Y-59946150D01*
X120076039Y-59946150D01*
X120022283Y-59714358D01*
X119959770Y-59444625D01*
X119955327Y-59425450D01*
X119603730Y-57907800D01*
X119265465Y-57907800D01*
X119141031Y-57908341D01*
G36*
X122107671Y-58053850D02*
X122096951Y-58116719D01*
X122079262Y-58221772D01*
X122055931Y-58361072D01*
X122028285Y-58526684D01*
X121997650Y-58710673D01*
X121965351Y-58905103D01*
X121960184Y-58936255D01*
X121838053Y-59672611D01*
X121718263Y-58796555D01*
X121690245Y-58591904D01*
X121664432Y-58403856D01*
X121641621Y-58238178D01*
X121622610Y-58100637D01*
X121608194Y-57996998D01*
X121599171Y-57933027D01*
X121596337Y-57914150D01*
X121571596Y-57912032D01*
X121504495Y-57910214D01*
X121403475Y-57908823D01*
X121276976Y-57907987D01*
X121176251Y-57907800D01*
X120758302Y-57907800D01*
X120744769Y-57990350D01*
X120739637Y-58030880D01*
X120729871Y-58116953D01*
X120716004Y-58243575D01*
X120698568Y-58405751D01*
X120678094Y-58598488D01*
X120655115Y-58816791D01*
X120630163Y-59055666D01*
X120603770Y-59310119D01*
X120591212Y-59431800D01*
X120564220Y-59693275D01*
X120538379Y-59942697D01*
X120514232Y-60174890D01*
X120492320Y-60384680D01*
X120473187Y-60566892D01*
X120457375Y-60716352D01*
X120445426Y-60827884D01*
X120437883Y-60896315D01*
X120436110Y-60911350D01*
X120421034Y-61032000D01*
X121078746Y-61032000D01*
X121093551Y-60847850D01*
X121098733Y-60778477D01*
X121106667Y-60665845D01*
X121116849Y-60517391D01*
X121128778Y-60340550D01*
X121141951Y-60142759D01*
X121155864Y-59931454D01*
X121165956Y-59776699D01*
X121223556Y-58889698D01*
X121280311Y-59306799D01*
X121301966Y-59456489D01*
X121330835Y-59642183D01*
X121364637Y-59849977D01*
X121401094Y-60065971D01*
X121437924Y-60276263D01*
X121452840Y-60358900D01*
X121484341Y-60532379D01*
X121512588Y-60689286D01*
X121536360Y-60822721D01*
X121554433Y-60925780D01*
X121565584Y-60991561D01*
X121568707Y-61012950D01*
X121592353Y-61020946D01*
X121656035Y-61027290D01*
X121748997Y-61031174D01*
X121822800Y-61032000D01*
X121929427Y-61031133D01*
X122014011Y-61028795D01*
X122065802Y-61025381D01*
X122076800Y-61022671D01*
X122081636Y-60996385D01*
X122095319Y-60926499D01*
X122116616Y-60819201D01*
X122144291Y-60680681D01*
X122177112Y-60517127D01*
X122213843Y-60334730D01*
X122227507Y-60267021D01*
X122267577Y-60066232D01*
X122305824Y-59870162D01*
X122340610Y-59687553D01*
X122370294Y-59527152D01*
X122393236Y-59397702D01*
X122407797Y-59307947D01*
X122409156Y-59298450D01*
X122424725Y-59199643D01*
X122440186Y-59123411D01*
X122453073Y-59081125D01*
X122457373Y-59076200D01*
X122462212Y-59100634D01*
X122468263Y-59170122D01*
X122475221Y-59278940D01*
X122482779Y-59421364D01*
X122490631Y-59591671D01*
X122498471Y-59784135D01*
X122505263Y-59971550D01*
X122512789Y-60183435D01*
X122520382Y-60382132D01*
X122527754Y-60561193D01*
X122534619Y-60714170D01*
X122540690Y-60834614D01*
X122545679Y-60916077D01*
X122548790Y-60949450D01*
X122561702Y-61032000D01*
X123242007Y-61032000D01*
X123230400Y-60949450D01*
X123226637Y-60913324D01*
X123219037Y-60832577D01*
X123208080Y-60712676D01*
X123194245Y-60559088D01*
X123178008Y-60377280D01*
X123159850Y-60172720D01*
X123140248Y-59950874D01*
X123119681Y-59717210D01*
X123098627Y-59477194D01*
X123077565Y-59236294D01*
X123056974Y-58999977D01*
X123037331Y-58773710D01*
X123019114Y-58562960D01*
X123002804Y-58373193D01*
X122988877Y-58209878D01*
X122977813Y-58078482D01*
X122970090Y-57984470D01*
X122966186Y-57933311D01*
X122965800Y-57925938D01*
X122941801Y-57919883D01*
X122875403Y-57914686D01*
X122775003Y-57910712D01*
X122649001Y-57908327D01*
X122549414Y-57907800D01*
X122133028Y-57907800D01*
X122107671Y-58053850D01*
X122107671Y-58053850D01*
G37*
X122107671Y-58053850D02*
X122096951Y-58116719D01*
X122079262Y-58221772D01*
X122055931Y-58361072D01*
X122028285Y-58526684D01*
X121997650Y-58710673D01*
X121965351Y-58905103D01*
X121960184Y-58936255D01*
X121838053Y-59672611D01*
X121718263Y-58796555D01*
X121690245Y-58591904D01*
X121664432Y-58403856D01*
X121641621Y-58238178D01*
X121622610Y-58100637D01*
X121608194Y-57996998D01*
X121599171Y-57933027D01*
X121596337Y-57914150D01*
X121571596Y-57912032D01*
X121504495Y-57910214D01*
X121403475Y-57908823D01*
X121276976Y-57907987D01*
X121176251Y-57907800D01*
X120758302Y-57907800D01*
X120744769Y-57990350D01*
X120739637Y-58030880D01*
X120729871Y-58116953D01*
X120716004Y-58243575D01*
X120698568Y-58405751D01*
X120678094Y-58598488D01*
X120655115Y-58816791D01*
X120630163Y-59055666D01*
X120603770Y-59310119D01*
X120591212Y-59431800D01*
X120564220Y-59693275D01*
X120538379Y-59942697D01*
X120514232Y-60174890D01*
X120492320Y-60384680D01*
X120473187Y-60566892D01*
X120457375Y-60716352D01*
X120445426Y-60827884D01*
X120437883Y-60896315D01*
X120436110Y-60911350D01*
X120421034Y-61032000D01*
X121078746Y-61032000D01*
X121093551Y-60847850D01*
X121098733Y-60778477D01*
X121106667Y-60665845D01*
X121116849Y-60517391D01*
X121128778Y-60340550D01*
X121141951Y-60142759D01*
X121155864Y-59931454D01*
X121165956Y-59776699D01*
X121223556Y-58889698D01*
X121280311Y-59306799D01*
X121301966Y-59456489D01*
X121330835Y-59642183D01*
X121364637Y-59849977D01*
X121401094Y-60065971D01*
X121437924Y-60276263D01*
X121452840Y-60358900D01*
X121484341Y-60532379D01*
X121512588Y-60689286D01*
X121536360Y-60822721D01*
X121554433Y-60925780D01*
X121565584Y-60991561D01*
X121568707Y-61012950D01*
X121592353Y-61020946D01*
X121656035Y-61027290D01*
X121748997Y-61031174D01*
X121822800Y-61032000D01*
X121929427Y-61031133D01*
X122014011Y-61028795D01*
X122065802Y-61025381D01*
X122076800Y-61022671D01*
X122081636Y-60996385D01*
X122095319Y-60926499D01*
X122116616Y-60819201D01*
X122144291Y-60680681D01*
X122177112Y-60517127D01*
X122213843Y-60334730D01*
X122227507Y-60267021D01*
X122267577Y-60066232D01*
X122305824Y-59870162D01*
X122340610Y-59687553D01*
X122370294Y-59527152D01*
X122393236Y-59397702D01*
X122407797Y-59307947D01*
X122409156Y-59298450D01*
X122424725Y-59199643D01*
X122440186Y-59123411D01*
X122453073Y-59081125D01*
X122457373Y-59076200D01*
X122462212Y-59100634D01*
X122468263Y-59170122D01*
X122475221Y-59278940D01*
X122482779Y-59421364D01*
X122490631Y-59591671D01*
X122498471Y-59784135D01*
X122505263Y-59971550D01*
X122512789Y-60183435D01*
X122520382Y-60382132D01*
X122527754Y-60561193D01*
X122534619Y-60714170D01*
X122540690Y-60834614D01*
X122545679Y-60916077D01*
X122548790Y-60949450D01*
X122561702Y-61032000D01*
X123242007Y-61032000D01*
X123230400Y-60949450D01*
X123226637Y-60913324D01*
X123219037Y-60832577D01*
X123208080Y-60712676D01*
X123194245Y-60559088D01*
X123178008Y-60377280D01*
X123159850Y-60172720D01*
X123140248Y-59950874D01*
X123119681Y-59717210D01*
X123098627Y-59477194D01*
X123077565Y-59236294D01*
X123056974Y-58999977D01*
X123037331Y-58773710D01*
X123019114Y-58562960D01*
X123002804Y-58373193D01*
X122988877Y-58209878D01*
X122977813Y-58078482D01*
X122970090Y-57984470D01*
X122966186Y-57933311D01*
X122965800Y-57925938D01*
X122941801Y-57919883D01*
X122875403Y-57914686D01*
X122775003Y-57910712D01*
X122649001Y-57908327D01*
X122549414Y-57907800D01*
X122133028Y-57907800D01*
X122107671Y-58053850D01*
G36*
X149703492Y-58914944D02*
X149601403Y-58967831D01*
X149523041Y-59061941D01*
X149501911Y-59101045D01*
X149486991Y-59132979D01*
X149474881Y-59165760D01*
X149465228Y-59204940D01*
X149457678Y-59256072D01*
X149451879Y-59324706D01*
X149447474Y-59416395D01*
X149444113Y-59536691D01*
X149441439Y-59691147D01*
X149439101Y-59885314D01*
X149436752Y-60123950D01*
X149428203Y-61032000D01*
X150042200Y-61032000D01*
X150042575Y-60339850D01*
X150043457Y-60110382D01*
X150045943Y-59927652D01*
X150050206Y-59787619D01*
X150056419Y-59686242D01*
X150064754Y-59619478D01*
X150074913Y-59584200D01*
X150125516Y-59528521D01*
X150191133Y-59511699D01*
X150255031Y-59535455D01*
X150281045Y-59563001D01*
X150293239Y-59586456D01*
X150302776Y-59621806D01*
X150309966Y-59674894D01*
X150315118Y-59751566D01*
X150318544Y-59857666D01*
X150320554Y-59999038D01*
X150321459Y-60181526D01*
X150321600Y-60326451D01*
X150321600Y-61032000D01*
X150931200Y-61032000D01*
X150931200Y-58923800D01*
X150321600Y-58923800D01*
X150321600Y-59186943D01*
X150227892Y-59077466D01*
X150121468Y-58976905D01*
X150005356Y-58919637D01*
X149864610Y-58898809D01*
X149837385Y-58898400D01*
X149703492Y-58914944D01*
X149703492Y-58914944D01*
G37*
X149703492Y-58914944D02*
X149601403Y-58967831D01*
X149523041Y-59061941D01*
X149501911Y-59101045D01*
X149486991Y-59132979D01*
X149474881Y-59165760D01*
X149465228Y-59204940D01*
X149457678Y-59256072D01*
X149451879Y-59324706D01*
X149447474Y-59416395D01*
X149444113Y-59536691D01*
X149441439Y-59691147D01*
X149439101Y-59885314D01*
X149436752Y-60123950D01*
X149428203Y-61032000D01*
X150042200Y-61032000D01*
X150042575Y-60339850D01*
X150043457Y-60110382D01*
X150045943Y-59927652D01*
X150050206Y-59787619D01*
X150056419Y-59686242D01*
X150064754Y-59619478D01*
X150074913Y-59584200D01*
X150125516Y-59528521D01*
X150191133Y-59511699D01*
X150255031Y-59535455D01*
X150281045Y-59563001D01*
X150293239Y-59586456D01*
X150302776Y-59621806D01*
X150309966Y-59674894D01*
X150315118Y-59751566D01*
X150318544Y-59857666D01*
X150320554Y-59999038D01*
X150321459Y-60181526D01*
X150321600Y-60326451D01*
X150321600Y-61032000D01*
X150931200Y-61032000D01*
X150931200Y-58923800D01*
X150321600Y-58923800D01*
X150321600Y-59186943D01*
X150227892Y-59077466D01*
X150121468Y-58976905D01*
X150005356Y-58919637D01*
X149864610Y-58898809D01*
X149837385Y-58898400D01*
X149703492Y-58914944D01*
G36*
X151185200Y-61032000D02*
X151794800Y-61032000D01*
X151794800Y-58923800D01*
X151185200Y-58923800D01*
X151185200Y-61032000D01*
X151185200Y-61032000D01*
G37*
X151185200Y-61032000D02*
X151794800Y-61032000D01*
X151794800Y-58923800D01*
X151185200Y-58923800D01*
X151185200Y-61032000D01*
G36*
X153189560Y-59241300D02*
X152697424Y-57907800D01*
X152373112Y-57907800D01*
X152251454Y-57909198D01*
X152150593Y-57913022D01*
X152080047Y-57918711D01*
X152049335Y-57925708D01*
X152048752Y-57926850D01*
X152057838Y-57954383D01*
X152083565Y-58023051D01*
X152123602Y-58126865D01*
X152175613Y-58259836D01*
X152237267Y-58415976D01*
X152306230Y-58589295D01*
X152329769Y-58648176D01*
X152610834Y-59350453D01*
X152291717Y-60177412D01*
X152217265Y-60370727D01*
X152148974Y-60548785D01*
X152088924Y-60706097D01*
X152039200Y-60837177D01*
X152001883Y-60936538D01*
X151979056Y-60998694D01*
X151972600Y-61018185D01*
X151996442Y-61023255D01*
X152061740Y-61027436D01*
X152159153Y-61030355D01*
X152279338Y-61031638D01*
X152309150Y-61031662D01*
X152645700Y-61031325D01*
X153179100Y-59525403D01*
X153185828Y-60278701D01*
X153192556Y-61032000D01*
X153826800Y-61032000D01*
X153826800Y-57907800D01*
X153191800Y-57907800D01*
X153189560Y-59241300D01*
X153189560Y-59241300D01*
G37*
X153189560Y-59241300D02*
X152697424Y-57907800D01*
X152373112Y-57907800D01*
X152251454Y-57909198D01*
X152150593Y-57913022D01*
X152080047Y-57918711D01*
X152049335Y-57925708D01*
X152048752Y-57926850D01*
X152057838Y-57954383D01*
X152083565Y-58023051D01*
X152123602Y-58126865D01*
X152175613Y-58259836D01*
X152237267Y-58415976D01*
X152306230Y-58589295D01*
X152329769Y-58648176D01*
X152610834Y-59350453D01*
X152291717Y-60177412D01*
X152217265Y-60370727D01*
X152148974Y-60548785D01*
X152088924Y-60706097D01*
X152039200Y-60837177D01*
X152001883Y-60936538D01*
X151979056Y-60998694D01*
X151972600Y-61018185D01*
X151996442Y-61023255D01*
X152061740Y-61027436D01*
X152159153Y-61030355D01*
X152279338Y-61031638D01*
X152309150Y-61031662D01*
X152645700Y-61031325D01*
X153179100Y-59525403D01*
X153185828Y-60278701D01*
X153192556Y-61032000D01*
X153826800Y-61032000D01*
X153826800Y-57907800D01*
X153191800Y-57907800D01*
X153189560Y-59241300D01*
G36*
X155122200Y-59431800D02*
X155224616Y-59431800D01*
X155360625Y-59450331D01*
X155470130Y-59503164D01*
X155544642Y-59586159D01*
X155545963Y-59588549D01*
X155560069Y-59619240D01*
X155571200Y-59657847D01*
X155579803Y-59710717D01*
X155586329Y-59784203D01*
X155591226Y-59884654D01*
X155594942Y-60018421D01*
X155597928Y-60191854D01*
X155599965Y-60352550D01*
X155607830Y-61032000D01*
X156214400Y-61032000D01*
X156214400Y-58923800D01*
X155604800Y-58923800D01*
X155604800Y-59136927D01*
X155522250Y-59046927D01*
X155391469Y-58936177D01*
X155240944Y-58870220D01*
X155204750Y-58861340D01*
X155122200Y-58843563D01*
X155122200Y-59431800D01*
X155122200Y-59431800D01*
G37*
X155122200Y-59431800D02*
X155224616Y-59431800D01*
X155360625Y-59450331D01*
X155470130Y-59503164D01*
X155544642Y-59586159D01*
X155545963Y-59588549D01*
X155560069Y-59619240D01*
X155571200Y-59657847D01*
X155579803Y-59710717D01*
X155586329Y-59784203D01*
X155591226Y-59884654D01*
X155594942Y-60018421D01*
X155597928Y-60191854D01*
X155599965Y-60352550D01*
X155607830Y-61032000D01*
X156214400Y-61032000D01*
X156214400Y-58923800D01*
X155604800Y-58923800D01*
X155604800Y-59136927D01*
X155522250Y-59046927D01*
X155391469Y-58936177D01*
X155240944Y-58870220D01*
X155204750Y-58861340D01*
X155122200Y-58843563D01*
X155122200Y-59431800D01*
G36*
X116847538Y-57870895D02*
X116759194Y-57876055D01*
X116690215Y-57888399D01*
X116624888Y-57910926D01*
X116547502Y-57946633D01*
X116533872Y-57953316D01*
X116414432Y-58023002D01*
X116310924Y-58103305D01*
X116270810Y-58143816D01*
X116216611Y-58215407D01*
X116160112Y-58305073D01*
X116107654Y-58400543D01*
X116065577Y-58489547D01*
X116040220Y-58559815D01*
X116036845Y-58596634D01*
X116063334Y-58617016D01*
X116126465Y-58648939D01*
X116214874Y-58687970D01*
X116317193Y-58729675D01*
X116422056Y-58769619D01*
X116518097Y-58803368D01*
X116593950Y-58826489D01*
X116638247Y-58834548D01*
X116643686Y-58833363D01*
X116664078Y-58798547D01*
X116667158Y-58776250D01*
X116685975Y-58691572D01*
X116732236Y-58599079D01*
X116793538Y-58519465D01*
X116845490Y-58478736D01*
X116951123Y-58449277D01*
X117054410Y-58468325D01*
X117150885Y-58533632D01*
X117236082Y-58642949D01*
X117260733Y-58687844D01*
X117314735Y-58830952D01*
X117354825Y-59011325D01*
X117380590Y-59217254D01*
X117391612Y-59437029D01*
X117387477Y-59658939D01*
X117367768Y-59871276D01*
X117332070Y-60062330D01*
X117312071Y-60133850D01*
X117249806Y-60276281D01*
X117167801Y-60383406D01*
X117072697Y-60453592D01*
X116971136Y-60485206D01*
X116869757Y-60476618D01*
X116775203Y-60426195D01*
X116694114Y-60332304D01*
X116671350Y-60291319D01*
X116633588Y-60193122D01*
X116605238Y-60079996D01*
X116597946Y-60030969D01*
X116583293Y-59889000D01*
X116971400Y-59889000D01*
X116971400Y-59279400D01*
X115955400Y-59279400D01*
X115955734Y-59603250D01*
X115970922Y-59926321D01*
X116015496Y-60211785D01*
X116089030Y-60458653D01*
X116191096Y-60665940D01*
X116321267Y-60832658D01*
X116479116Y-60957820D01*
X116561054Y-61001238D01*
X116702452Y-61047192D01*
X116869849Y-61072823D01*
X117042044Y-61076595D01*
X117197837Y-61056971D01*
X117227195Y-61049534D01*
X117422997Y-60968440D01*
X117596428Y-60843186D01*
X117745750Y-60676030D01*
X117869228Y-60469233D01*
X117965125Y-60225054D01*
X118017350Y-60021428D01*
X118037828Y-59912498D01*
X118051277Y-59811690D01*
X118058514Y-59705264D01*
X118060355Y-59579484D01*
X118057616Y-59420613D01*
X118056138Y-59368300D01*
X118046700Y-59154973D01*
X118030810Y-58979793D01*
X118005915Y-58830259D01*
X117969467Y-58693867D01*
X117918915Y-58558116D01*
X117867460Y-58443380D01*
X117751692Y-58249018D01*
X117606264Y-58087564D01*
X117437738Y-57965871D01*
X117383790Y-57938203D01*
X117310270Y-57906571D01*
X117243214Y-57886474D01*
X117167244Y-57875369D01*
X117066982Y-57870712D01*
X116970956Y-57869924D01*
X116847538Y-57870895D01*
X116847538Y-57870895D01*
G37*
X116847538Y-57870895D02*
X116759194Y-57876055D01*
X116690215Y-57888399D01*
X116624888Y-57910926D01*
X116547502Y-57946633D01*
X116533872Y-57953316D01*
X116414432Y-58023002D01*
X116310924Y-58103305D01*
X116270810Y-58143816D01*
X116216611Y-58215407D01*
X116160112Y-58305073D01*
X116107654Y-58400543D01*
X116065577Y-58489547D01*
X116040220Y-58559815D01*
X116036845Y-58596634D01*
X116063334Y-58617016D01*
X116126465Y-58648939D01*
X116214874Y-58687970D01*
X116317193Y-58729675D01*
X116422056Y-58769619D01*
X116518097Y-58803368D01*
X116593950Y-58826489D01*
X116638247Y-58834548D01*
X116643686Y-58833363D01*
X116664078Y-58798547D01*
X116667158Y-58776250D01*
X116685975Y-58691572D01*
X116732236Y-58599079D01*
X116793538Y-58519465D01*
X116845490Y-58478736D01*
X116951123Y-58449277D01*
X117054410Y-58468325D01*
X117150885Y-58533632D01*
X117236082Y-58642949D01*
X117260733Y-58687844D01*
X117314735Y-58830952D01*
X117354825Y-59011325D01*
X117380590Y-59217254D01*
X117391612Y-59437029D01*
X117387477Y-59658939D01*
X117367768Y-59871276D01*
X117332070Y-60062330D01*
X117312071Y-60133850D01*
X117249806Y-60276281D01*
X117167801Y-60383406D01*
X117072697Y-60453592D01*
X116971136Y-60485206D01*
X116869757Y-60476618D01*
X116775203Y-60426195D01*
X116694114Y-60332304D01*
X116671350Y-60291319D01*
X116633588Y-60193122D01*
X116605238Y-60079996D01*
X116597946Y-60030969D01*
X116583293Y-59889000D01*
X116971400Y-59889000D01*
X116971400Y-59279400D01*
X115955400Y-59279400D01*
X115955734Y-59603250D01*
X115970922Y-59926321D01*
X116015496Y-60211785D01*
X116089030Y-60458653D01*
X116191096Y-60665940D01*
X116321267Y-60832658D01*
X116479116Y-60957820D01*
X116561054Y-61001238D01*
X116702452Y-61047192D01*
X116869849Y-61072823D01*
X117042044Y-61076595D01*
X117197837Y-61056971D01*
X117227195Y-61049534D01*
X117422997Y-60968440D01*
X117596428Y-60843186D01*
X117745750Y-60676030D01*
X117869228Y-60469233D01*
X117965125Y-60225054D01*
X118017350Y-60021428D01*
X118037828Y-59912498D01*
X118051277Y-59811690D01*
X118058514Y-59705264D01*
X118060355Y-59579484D01*
X118057616Y-59420613D01*
X118056138Y-59368300D01*
X118046700Y-59154973D01*
X118030810Y-58979793D01*
X118005915Y-58830259D01*
X117969467Y-58693867D01*
X117918915Y-58558116D01*
X117867460Y-58443380D01*
X117751692Y-58249018D01*
X117606264Y-58087564D01*
X117437738Y-57965871D01*
X117383790Y-57938203D01*
X117310270Y-57906571D01*
X117243214Y-57886474D01*
X117167244Y-57875369D01*
X117066982Y-57870712D01*
X116970956Y-57869924D01*
X116847538Y-57870895D01*
G36*
X146428567Y-58918812D02*
X146266259Y-58962896D01*
X146225850Y-58979942D01*
X146150207Y-59018689D01*
X146097428Y-59052415D01*
X146079800Y-59072055D01*
X146091328Y-59103330D01*
X146121495Y-59164517D01*
X146163682Y-59243795D01*
X146211268Y-59329342D01*
X146257632Y-59409336D01*
X146296153Y-59471958D01*
X146320211Y-59505385D01*
X146323960Y-59508000D01*
X146350693Y-59494986D01*
X146403437Y-59462174D01*
X146429944Y-59444500D01*
X146530719Y-59394398D01*
X146621606Y-59384164D01*
X146693477Y-59414596D01*
X146700286Y-59420914D01*
X146740397Y-59484397D01*
X146732738Y-59548615D01*
X146676431Y-59615323D01*
X146570596Y-59686279D01*
X146566185Y-59688749D01*
X146426428Y-59769668D01*
X146323978Y-59837412D01*
X146249674Y-59899332D01*
X146194357Y-59962782D01*
X146160745Y-60014217D01*
X146126154Y-60079448D01*
X146105698Y-60140864D01*
X146095920Y-60215520D01*
X146093359Y-60320468D01*
X146093407Y-60346200D01*
X146105786Y-60525195D01*
X146144398Y-60672483D01*
X146213974Y-60802380D01*
X146266876Y-60871271D01*
X146378550Y-60966425D01*
X146522253Y-61032934D01*
X146686285Y-61068007D01*
X146858948Y-61068852D01*
X146991543Y-61044110D01*
X147088565Y-61011373D01*
X147189619Y-60968309D01*
X147282099Y-60921390D01*
X147353398Y-60877085D01*
X147390908Y-60841867D01*
X147392677Y-60838212D01*
X147386918Y-60800575D01*
X147359222Y-60739060D01*
X147338911Y-60704163D01*
X147281966Y-60613515D01*
X147222323Y-60518568D01*
X147209375Y-60497954D01*
X147145149Y-60395709D01*
X147035693Y-60459854D01*
X146922051Y-60510635D01*
X146825764Y-60521744D01*
X146752533Y-60493036D01*
X146728941Y-60467548D01*
X146698876Y-60410393D01*
X146689400Y-60370700D01*
X146711819Y-60318542D01*
X146774150Y-60254362D01*
X146869005Y-60184670D01*
X146963426Y-60129277D01*
X147089834Y-60046063D01*
X147199871Y-59943949D01*
X147282300Y-59834944D01*
X147322331Y-59745609D01*
X147351843Y-59560830D01*
X147338049Y-59386669D01*
X147283990Y-59229653D01*
X147192702Y-59096311D01*
X147067225Y-58993171D01*
X146946143Y-58937410D01*
X146788879Y-58904867D01*
X146609564Y-58899068D01*
X146428567Y-58918812D01*
X146428567Y-58918812D01*
G37*
X146428567Y-58918812D02*
X146266259Y-58962896D01*
X146225850Y-58979942D01*
X146150207Y-59018689D01*
X146097428Y-59052415D01*
X146079800Y-59072055D01*
X146091328Y-59103330D01*
X146121495Y-59164517D01*
X146163682Y-59243795D01*
X146211268Y-59329342D01*
X146257632Y-59409336D01*
X146296153Y-59471958D01*
X146320211Y-59505385D01*
X146323960Y-59508000D01*
X146350693Y-59494986D01*
X146403437Y-59462174D01*
X146429944Y-59444500D01*
X146530719Y-59394398D01*
X146621606Y-59384164D01*
X146693477Y-59414596D01*
X146700286Y-59420914D01*
X146740397Y-59484397D01*
X146732738Y-59548615D01*
X146676431Y-59615323D01*
X146570596Y-59686279D01*
X146566185Y-59688749D01*
X146426428Y-59769668D01*
X146323978Y-59837412D01*
X146249674Y-59899332D01*
X146194357Y-59962782D01*
X146160745Y-60014217D01*
X146126154Y-60079448D01*
X146105698Y-60140864D01*
X146095920Y-60215520D01*
X146093359Y-60320468D01*
X146093407Y-60346200D01*
X146105786Y-60525195D01*
X146144398Y-60672483D01*
X146213974Y-60802380D01*
X146266876Y-60871271D01*
X146378550Y-60966425D01*
X146522253Y-61032934D01*
X146686285Y-61068007D01*
X146858948Y-61068852D01*
X146991543Y-61044110D01*
X147088565Y-61011373D01*
X147189619Y-60968309D01*
X147282099Y-60921390D01*
X147353398Y-60877085D01*
X147390908Y-60841867D01*
X147392677Y-60838212D01*
X147386918Y-60800575D01*
X147359222Y-60739060D01*
X147338911Y-60704163D01*
X147281966Y-60613515D01*
X147222323Y-60518568D01*
X147209375Y-60497954D01*
X147145149Y-60395709D01*
X147035693Y-60459854D01*
X146922051Y-60510635D01*
X146825764Y-60521744D01*
X146752533Y-60493036D01*
X146728941Y-60467548D01*
X146698876Y-60410393D01*
X146689400Y-60370700D01*
X146711819Y-60318542D01*
X146774150Y-60254362D01*
X146869005Y-60184670D01*
X146963426Y-60129277D01*
X147089834Y-60046063D01*
X147199871Y-59943949D01*
X147282300Y-59834944D01*
X147322331Y-59745609D01*
X147351843Y-59560830D01*
X147338049Y-59386669D01*
X147283990Y-59229653D01*
X147192702Y-59096311D01*
X147067225Y-58993171D01*
X146946143Y-58937410D01*
X146788879Y-58904867D01*
X146609564Y-58899068D01*
X146428567Y-58918812D01*
G36*
X157214183Y-58901986D02*
X157190044Y-58902992D01*
X157071826Y-58910051D01*
X156988128Y-58921518D01*
X156922674Y-58941320D01*
X156859186Y-58973381D01*
X156832997Y-58989098D01*
X156707024Y-59093074D01*
X156598757Y-59234334D01*
X156517553Y-59400056D01*
X156503566Y-59440665D01*
X156482146Y-59537643D01*
X156465273Y-59670884D01*
X156453551Y-59826004D01*
X156447581Y-59988622D01*
X156447966Y-60144352D01*
X156455308Y-60278812D01*
X156465296Y-60354679D01*
X156505177Y-60508221D01*
X156563973Y-60657257D01*
X156634451Y-60786106D01*
X156705532Y-60875430D01*
X156834987Y-60968752D01*
X156995072Y-61034597D01*
X157171585Y-61069371D01*
X157350321Y-61069486D01*
X157426068Y-61057618D01*
X157596307Y-60997056D01*
X157741211Y-60894087D01*
X157859400Y-60751099D01*
X157949492Y-60570484D01*
X158010104Y-60354632D01*
X158039856Y-60105933D01*
X158042817Y-59990600D01*
X158042198Y-59980300D01*
X157430838Y-59980300D01*
X157424334Y-60130382D01*
X157404907Y-60269920D01*
X157372829Y-60388085D01*
X157328371Y-60474047D01*
X157296706Y-60505095D01*
X157235539Y-60519763D01*
X157171783Y-60489071D01*
X157117387Y-60422400D01*
X157096227Y-60380739D01*
X157081637Y-60333839D01*
X157072438Y-60271652D01*
X157067453Y-60184127D01*
X157065505Y-60061215D01*
X157065300Y-59977900D01*
X157066450Y-59826845D01*
X157070537Y-59717065D01*
X157078524Y-59639077D01*
X157091369Y-59583393D01*
X157109472Y-59541550D01*
X157167157Y-59466402D01*
X157229418Y-59439989D01*
X157292942Y-59463097D01*
X157322176Y-59491152D01*
X157370087Y-59575102D01*
X157403986Y-59691830D01*
X157424146Y-59830506D01*
X157430838Y-59980300D01*
X158042198Y-59980300D01*
X158026907Y-59725996D01*
X157980004Y-59493062D01*
X157903344Y-59294443D01*
X157798168Y-59132782D01*
X157665712Y-59010723D01*
X157555115Y-58949261D01*
X157481798Y-58921356D01*
X157411860Y-58905610D01*
X157328317Y-58899871D01*
X157214183Y-58901986D01*
X157214183Y-58901986D01*
G37*
X157214183Y-58901986D02*
X157190044Y-58902992D01*
X157071826Y-58910051D01*
X156988128Y-58921518D01*
X156922674Y-58941320D01*
X156859186Y-58973381D01*
X156832997Y-58989098D01*
X156707024Y-59093074D01*
X156598757Y-59234334D01*
X156517553Y-59400056D01*
X156503566Y-59440665D01*
X156482146Y-59537643D01*
X156465273Y-59670884D01*
X156453551Y-59826004D01*
X156447581Y-59988622D01*
X156447966Y-60144352D01*
X156455308Y-60278812D01*
X156465296Y-60354679D01*
X156505177Y-60508221D01*
X156563973Y-60657257D01*
X156634451Y-60786106D01*
X156705532Y-60875430D01*
X156834987Y-60968752D01*
X156995072Y-61034597D01*
X157171585Y-61069371D01*
X157350321Y-61069486D01*
X157426068Y-61057618D01*
X157596307Y-60997056D01*
X157741211Y-60894087D01*
X157859400Y-60751099D01*
X157949492Y-60570484D01*
X158010104Y-60354632D01*
X158039856Y-60105933D01*
X158042817Y-59990600D01*
X158042198Y-59980300D01*
X157430838Y-59980300D01*
X157424334Y-60130382D01*
X157404907Y-60269920D01*
X157372829Y-60388085D01*
X157328371Y-60474047D01*
X157296706Y-60505095D01*
X157235539Y-60519763D01*
X157171783Y-60489071D01*
X157117387Y-60422400D01*
X157096227Y-60380739D01*
X157081637Y-60333839D01*
X157072438Y-60271652D01*
X157067453Y-60184127D01*
X157065505Y-60061215D01*
X157065300Y-59977900D01*
X157066450Y-59826845D01*
X157070537Y-59717065D01*
X157078524Y-59639077D01*
X157091369Y-59583393D01*
X157109472Y-59541550D01*
X157167157Y-59466402D01*
X157229418Y-59439989D01*
X157292942Y-59463097D01*
X157322176Y-59491152D01*
X157370087Y-59575102D01*
X157403986Y-59691830D01*
X157424146Y-59830506D01*
X157430838Y-59980300D01*
X158042198Y-59980300D01*
X158026907Y-59725996D01*
X157980004Y-59493062D01*
X157903344Y-59294443D01*
X157798168Y-59132782D01*
X157665712Y-59010723D01*
X157555115Y-58949261D01*
X157481798Y-58921356D01*
X157411860Y-58905610D01*
X157328317Y-58899871D01*
X157214183Y-58901986D01*
G36*
X148504532Y-58915850D02*
X148390095Y-58969974D01*
X148317243Y-59041017D01*
X148264200Y-59108450D01*
X148264200Y-58923800D01*
X147652860Y-58923800D01*
X147660080Y-60238250D01*
X147661714Y-60530088D01*
X147663276Y-60775608D01*
X147664971Y-60979294D01*
X147667005Y-61145625D01*
X147669583Y-61279084D01*
X147672910Y-61384152D01*
X147677193Y-61465312D01*
X147682635Y-61527046D01*
X147689443Y-61573834D01*
X147697823Y-61610159D01*
X147707978Y-61640502D01*
X147720116Y-61669346D01*
X147726294Y-61683063D01*
X147805499Y-61820365D01*
X147907115Y-61920962D01*
X148040873Y-61996550D01*
X148174069Y-62037531D01*
X148334425Y-62059960D01*
X148501358Y-62062640D01*
X148654286Y-62044373D01*
X148694572Y-62034569D01*
X148861460Y-61966061D01*
X148993795Y-61862991D01*
X149093137Y-61723375D01*
X149161045Y-61545233D01*
X149189375Y-61405773D01*
X149207376Y-61284247D01*
X148933633Y-61291473D01*
X148659889Y-61298700D01*
X148642840Y-61382290D01*
X148604333Y-61483542D01*
X148541620Y-61549312D01*
X148462240Y-61574040D01*
X148397933Y-61562919D01*
X148338333Y-61520028D01*
X148295572Y-61439848D01*
X148268927Y-61319363D01*
X148257672Y-61155558D01*
X148259431Y-60986480D01*
X148264200Y-60852060D01*
X148359681Y-60952431D01*
X148467053Y-61038759D01*
X148580456Y-61075536D01*
X148705073Y-61064005D01*
X148755918Y-61047418D01*
X148890607Y-60969415D01*
X149004317Y-60848747D01*
X149095586Y-60689648D01*
X149162953Y-60496353D01*
X149204957Y-60273098D01*
X149220137Y-60024118D01*
X149215389Y-59926110D01*
X148610551Y-59926110D01*
X148609631Y-60070779D01*
X148595550Y-60209305D01*
X148567926Y-60332393D01*
X148526377Y-60430750D01*
X148474418Y-60492250D01*
X148425559Y-60520099D01*
X148384843Y-60511740D01*
X148341740Y-60474539D01*
X148288119Y-60388898D01*
X148252149Y-60256639D01*
X148233732Y-60077314D01*
X148231108Y-59976126D01*
X148238171Y-59795974D01*
X148260812Y-59647519D01*
X148297476Y-59534959D01*
X148346609Y-59462496D01*
X148406655Y-59434329D01*
X148431069Y-59435923D01*
X148490238Y-59471892D01*
X148538152Y-59548190D01*
X148574429Y-59655521D01*
X148598690Y-59784593D01*
X148610551Y-59926110D01*
X149215389Y-59926110D01*
X149207032Y-59753648D01*
X149205954Y-59742976D01*
X149167963Y-59488863D01*
X149110790Y-59281207D01*
X149033917Y-59119216D01*
X148936820Y-59002099D01*
X148818980Y-58929064D01*
X148679876Y-58899318D01*
X148650289Y-58898494D01*
X148504532Y-58915850D01*
X148504532Y-58915850D01*
G37*
X148504532Y-58915850D02*
X148390095Y-58969974D01*
X148317243Y-59041017D01*
X148264200Y-59108450D01*
X148264200Y-58923800D01*
X147652860Y-58923800D01*
X147660080Y-60238250D01*
X147661714Y-60530088D01*
X147663276Y-60775608D01*
X147664971Y-60979294D01*
X147667005Y-61145625D01*
X147669583Y-61279084D01*
X147672910Y-61384152D01*
X147677193Y-61465312D01*
X147682635Y-61527046D01*
X147689443Y-61573834D01*
X147697823Y-61610159D01*
X147707978Y-61640502D01*
X147720116Y-61669346D01*
X147726294Y-61683063D01*
X147805499Y-61820365D01*
X147907115Y-61920962D01*
X148040873Y-61996550D01*
X148174069Y-62037531D01*
X148334425Y-62059960D01*
X148501358Y-62062640D01*
X148654286Y-62044373D01*
X148694572Y-62034569D01*
X148861460Y-61966061D01*
X148993795Y-61862991D01*
X149093137Y-61723375D01*
X149161045Y-61545233D01*
X149189375Y-61405773D01*
X149207376Y-61284247D01*
X148933633Y-61291473D01*
X148659889Y-61298700D01*
X148642840Y-61382290D01*
X148604333Y-61483542D01*
X148541620Y-61549312D01*
X148462240Y-61574040D01*
X148397933Y-61562919D01*
X148338333Y-61520028D01*
X148295572Y-61439848D01*
X148268927Y-61319363D01*
X148257672Y-61155558D01*
X148259431Y-60986480D01*
X148264200Y-60852060D01*
X148359681Y-60952431D01*
X148467053Y-61038759D01*
X148580456Y-61075536D01*
X148705073Y-61064005D01*
X148755918Y-61047418D01*
X148890607Y-60969415D01*
X149004317Y-60848747D01*
X149095586Y-60689648D01*
X149162953Y-60496353D01*
X149204957Y-60273098D01*
X149220137Y-60024118D01*
X149215389Y-59926110D01*
X148610551Y-59926110D01*
X148609631Y-60070779D01*
X148595550Y-60209305D01*
X148567926Y-60332393D01*
X148526377Y-60430750D01*
X148474418Y-60492250D01*
X148425559Y-60520099D01*
X148384843Y-60511740D01*
X148341740Y-60474539D01*
X148288119Y-60388898D01*
X148252149Y-60256639D01*
X148233732Y-60077314D01*
X148231108Y-59976126D01*
X148238171Y-59795974D01*
X148260812Y-59647519D01*
X148297476Y-59534959D01*
X148346609Y-59462496D01*
X148406655Y-59434329D01*
X148431069Y-59435923D01*
X148490238Y-59471892D01*
X148538152Y-59548190D01*
X148574429Y-59655521D01*
X148598690Y-59784593D01*
X148610551Y-59926110D01*
X149215389Y-59926110D01*
X149207032Y-59753648D01*
X149205954Y-59742976D01*
X149167963Y-59488863D01*
X149110790Y-59281207D01*
X149033917Y-59119216D01*
X148936820Y-59002099D01*
X148818980Y-58929064D01*
X148679876Y-58899318D01*
X148650289Y-58898494D01*
X148504532Y-58915850D01*
G36*
X140580313Y-68489350D02*
X140511269Y-68519410D01*
X140403530Y-68568256D01*
X140260621Y-68634234D01*
X140086069Y-68715692D01*
X139883398Y-68810975D01*
X139656133Y-68918431D01*
X139407799Y-69036406D01*
X139141922Y-69163246D01*
X138862027Y-69297300D01*
X138779380Y-69336980D01*
X136979932Y-70201400D01*
X136143114Y-70201399D01*
X135306295Y-70201399D01*
X133517575Y-69335072D01*
X133235324Y-69198730D01*
X132965979Y-69069323D01*
X132713075Y-68948506D01*
X132480147Y-68837936D01*
X132270729Y-68739268D01*
X132088357Y-68654159D01*
X131936566Y-68584264D01*
X131818889Y-68531239D01*
X131738862Y-68496741D01*
X131700019Y-68482424D01*
X131697078Y-68482222D01*
X131673682Y-68499587D01*
X131613194Y-68546961D01*
X131518021Y-68622411D01*
X131390573Y-68724004D01*
X131233256Y-68849807D01*
X131048481Y-68997886D01*
X130838654Y-69166309D01*
X130606184Y-69353143D01*
X130353480Y-69556454D01*
X130082951Y-69774310D01*
X129797003Y-70004776D01*
X129498047Y-70245921D01*
X129201500Y-70485305D01*
X126737700Y-72474908D01*
X126731122Y-73772459D01*
X126724544Y-75070009D01*
X126305672Y-75394730D01*
X125886800Y-75719452D01*
X125887694Y-79227876D01*
X125888587Y-82736300D01*
X126306066Y-83003000D01*
X126723544Y-83269700D01*
X126717922Y-84652158D01*
X126712300Y-86034617D01*
X125861400Y-86316579D01*
X125861400Y-92686189D01*
X125861391Y-93358255D01*
X125861354Y-93981368D01*
X125861276Y-94557378D01*
X125861144Y-95088132D01*
X125860944Y-95575478D01*
X125860663Y-96021265D01*
X125860287Y-96427341D01*
X125859803Y-96795553D01*
X125859198Y-97127750D01*
X125858458Y-97425780D01*
X125857569Y-97691491D01*
X125856519Y-97926732D01*
X125855294Y-98133349D01*
X125853880Y-98313192D01*
X125852264Y-98468108D01*
X125850433Y-98599946D01*
X125848374Y-98710553D01*
X125846072Y-98801779D01*
X125843514Y-98875470D01*
X125840688Y-98933475D01*
X125837579Y-98977642D01*
X125834174Y-99009819D01*
X125830460Y-99031855D01*
X125826424Y-99045597D01*
X125822051Y-99052893D01*
X125817329Y-99055592D01*
X125815175Y-99055800D01*
X125748587Y-99058716D01*
X125636372Y-99067117D01*
X125483347Y-99080482D01*
X125294329Y-99098289D01*
X125074136Y-99120016D01*
X124827584Y-99145143D01*
X124559490Y-99173148D01*
X124274671Y-99203509D01*
X123977944Y-99235704D01*
X123674127Y-99269213D01*
X123368035Y-99303514D01*
X123064487Y-99338086D01*
X122768299Y-99372406D01*
X122484288Y-99405954D01*
X122217271Y-99438209D01*
X121972065Y-99468648D01*
X121810100Y-99489358D01*
X121568488Y-99521282D01*
X121305074Y-99557097D01*
X121025457Y-99595968D01*
X120735236Y-99637061D01*
X120440007Y-99679540D01*
X120145370Y-99722569D01*
X119856923Y-99765315D01*
X119580263Y-99806941D01*
X119320989Y-99846613D01*
X119084700Y-99883496D01*
X118876992Y-99916754D01*
X118703464Y-99945553D01*
X118569715Y-99969057D01*
X118488985Y-99984778D01*
X118419070Y-99999664D01*
X118431900Y-109710406D01*
X127233000Y-110960435D01*
X127896592Y-111054631D01*
X128547866Y-111146970D01*
X129184987Y-111237196D01*
X129806121Y-111325052D01*
X130409435Y-111410282D01*
X130993093Y-111492629D01*
X131555261Y-111571836D01*
X132094106Y-111647648D01*
X132607793Y-111719807D01*
X133094487Y-111788057D01*
X133552355Y-111852142D01*
X133979562Y-111911805D01*
X134374274Y-111966788D01*
X134734656Y-112016837D01*
X135058874Y-112061694D01*
X135345094Y-112101103D01*
X135591482Y-112134807D01*
X135796204Y-112162549D01*
X135957424Y-112184074D01*
X136073310Y-112199124D01*
X136142026Y-112207444D01*
X136161100Y-112209125D01*
X136195586Y-112205498D01*
X136278535Y-112194992D01*
X136408118Y-112177862D01*
X136582501Y-112154364D01*
X136799854Y-112124753D01*
X137058345Y-112089286D01*
X137356141Y-112048218D01*
X137691411Y-112001805D01*
X138062323Y-111950302D01*
X138467045Y-111893965D01*
X138903746Y-111833050D01*
X139370593Y-111767812D01*
X139865756Y-111698507D01*
X140387402Y-111625391D01*
X140933699Y-111548720D01*
X141502815Y-111468749D01*
X142092920Y-111385734D01*
X142702180Y-111299930D01*
X143328765Y-111211594D01*
X143970842Y-111120981D01*
X144626579Y-111028346D01*
X145114600Y-110959345D01*
X153941100Y-109710904D01*
X153947516Y-104855284D01*
X153953322Y-100460061D01*
X153420400Y-100460061D01*
X153420400Y-104812530D01*
X153420334Y-105383220D01*
X153420127Y-105905019D01*
X153419764Y-106379836D01*
X153419231Y-106809580D01*
X153418515Y-107196161D01*
X153417603Y-107541488D01*
X153416478Y-107847469D01*
X153415129Y-108116015D01*
X153413541Y-108349033D01*
X153411700Y-108548433D01*
X153409592Y-108716124D01*
X153407203Y-108854015D01*
X153404520Y-108964016D01*
X153401528Y-109048035D01*
X153398213Y-109107981D01*
X153394562Y-109145764D01*
X153390560Y-109163292D01*
X153388650Y-109165081D01*
X153358950Y-109168568D01*
X153282927Y-109178633D01*
X153164555Y-109194726D01*
X153007808Y-109216293D01*
X152816660Y-109242781D01*
X152595086Y-109273640D01*
X152347059Y-109308317D01*
X152076554Y-109346258D01*
X151787545Y-109386913D01*
X151484005Y-109429729D01*
X151469476Y-109431781D01*
X151165589Y-109474664D01*
X150876224Y-109515413D01*
X150605334Y-109553475D01*
X150356870Y-109588300D01*
X150134786Y-109619336D01*
X149943034Y-109646033D01*
X149785566Y-109667838D01*
X149666336Y-109684200D01*
X149589294Y-109694568D01*
X149558395Y-109698390D01*
X149558126Y-109698400D01*
X149549702Y-109674053D01*
X149542776Y-109605204D01*
X149537686Y-109498134D01*
X149534770Y-109359126D01*
X149534200Y-109253900D01*
X149534758Y-109091275D01*
X149536805Y-108972854D01*
X149540908Y-108892047D01*
X149547631Y-108842265D01*
X149557539Y-108816921D01*
X149571197Y-108809426D01*
X149572300Y-108809400D01*
X149602943Y-108787319D01*
X149610400Y-108745900D01*
X149597152Y-108694828D01*
X149572300Y-108682400D01*
X149553713Y-108673491D01*
X149542135Y-108640978D01*
X149536120Y-108576179D01*
X149534221Y-108470412D01*
X149534200Y-108453800D01*
X149534200Y-108225200D01*
X146892600Y-108225200D01*
X146892600Y-108047400D01*
X146100654Y-108047400D01*
X145841298Y-108046571D01*
X145630248Y-108044029D01*
X145465034Y-108039687D01*
X145343187Y-108033459D01*
X145262240Y-108025259D01*
X145224354Y-108016897D01*
X145140000Y-107986394D01*
X145140000Y-107483497D01*
X145139530Y-107309244D01*
X145137803Y-107179560D01*
X145134349Y-107088219D01*
X145128696Y-107028996D01*
X145120372Y-106995665D01*
X145108905Y-106982002D01*
X145101900Y-106980600D01*
X145068099Y-106994315D01*
X145063800Y-107006000D01*
X145039579Y-107017626D01*
X144971504Y-107026084D01*
X144866459Y-107030718D01*
X144797100Y-107031400D01*
X144530400Y-107031400D01*
X144530400Y-107412400D01*
X145063800Y-107412400D01*
X145063800Y-107973792D01*
X144975716Y-108010596D01*
X144940187Y-108021443D01*
X144887683Y-108030052D01*
X144812867Y-108036645D01*
X144710406Y-108041448D01*
X144574963Y-108044684D01*
X144401202Y-108046577D01*
X144183788Y-108047351D01*
X144099416Y-108047400D01*
X143311200Y-108047400D01*
X143311200Y-108225200D01*
X140644200Y-108225200D01*
X140644200Y-108453800D01*
X140642716Y-108565324D01*
X140637297Y-108634792D01*
X140626497Y-108670883D01*
X140608869Y-108682279D01*
X140606100Y-108682400D01*
X140575458Y-108704480D01*
X140568000Y-108745900D01*
X140581249Y-108796971D01*
X140606100Y-108809400D01*
X140615477Y-108814439D01*
X140623206Y-108832444D01*
X140629443Y-108867745D01*
X140634341Y-108924673D01*
X140638053Y-109007559D01*
X140640732Y-109120732D01*
X140642531Y-109268525D01*
X140643606Y-109455267D01*
X140644107Y-109685289D01*
X140644200Y-109884831D01*
X140644200Y-110960263D01*
X140336535Y-111003799D01*
X140217397Y-111019527D01*
X140117556Y-111030576D01*
X140047156Y-111035971D01*
X140016344Y-111034743D01*
X140016034Y-111034500D01*
X140012978Y-111007606D01*
X140008324Y-110934080D01*
X140002255Y-110818058D01*
X139994950Y-110663675D01*
X139986590Y-110475068D01*
X139977354Y-110256373D01*
X139967424Y-110011727D01*
X139956979Y-109745266D01*
X139946200Y-109461126D01*
X139939292Y-109274183D01*
X139875385Y-107526700D01*
X139700823Y-107177450D01*
X139639438Y-107057017D01*
X139584937Y-106954546D01*
X139541660Y-106877854D01*
X139513944Y-106834754D01*
X139506945Y-106828200D01*
X139489501Y-106849731D01*
X139454229Y-106909069D01*
X139405502Y-106998327D01*
X139347694Y-107109620D01*
X139316336Y-107171898D01*
X139145044Y-107515597D01*
X139082019Y-109197548D01*
X139071149Y-109489861D01*
X139060867Y-109770730D01*
X139051335Y-110035454D01*
X139042713Y-110279329D01*
X139035164Y-110497653D01*
X139028850Y-110685723D01*
X139023932Y-110838835D01*
X139020573Y-110952288D01*
X139018935Y-111021379D01*
X139018797Y-111034513D01*
X139018600Y-111189527D01*
X138669350Y-111240979D01*
X138535817Y-111260142D01*
X138415033Y-111276542D01*
X138318579Y-111288671D01*
X138258035Y-111295023D01*
X138250250Y-111295515D01*
X138180400Y-111298600D01*
X138180400Y-109647600D01*
X136910400Y-109647600D01*
X136910400Y-109482500D01*
X136913989Y-109396225D01*
X136923496Y-109337157D01*
X136935800Y-109317400D01*
X136956438Y-109296126D01*
X136961200Y-109266600D01*
X136977082Y-109225228D01*
X136999300Y-109215800D01*
X137024413Y-109200841D01*
X137035851Y-109149979D01*
X137037400Y-109101500D01*
X137042387Y-109026163D01*
X137059341Y-108991847D01*
X137075500Y-108987200D01*
X137105748Y-108964481D01*
X137113600Y-108911000D01*
X137113600Y-108834800D01*
X136046800Y-108834800D01*
X136046800Y-108631600D01*
X136045740Y-108530357D01*
X136040855Y-108469679D01*
X136029591Y-108439349D01*
X136009394Y-108429147D01*
X135996000Y-108428400D01*
X135966643Y-108422336D01*
X135951350Y-108396119D01*
X135945742Y-108337710D01*
X135945200Y-108288700D01*
X135942901Y-108207780D01*
X135933200Y-108165630D01*
X135911891Y-108150319D01*
X135895957Y-108149000D01*
X135862614Y-108137802D01*
X135841732Y-108096494D01*
X135829653Y-108035234D01*
X135787482Y-107895507D01*
X135708630Y-107755968D01*
X135604276Y-107633851D01*
X135530108Y-107573372D01*
X135358553Y-107482292D01*
X135153113Y-107416315D01*
X134924489Y-107376196D01*
X134683382Y-107362691D01*
X134440493Y-107376558D01*
X134206523Y-107418552D01*
X134044803Y-107468411D01*
X133898231Y-107544088D01*
X133768486Y-107650521D01*
X133663398Y-107777845D01*
X133590802Y-107916194D01*
X133558528Y-108055702D01*
X133557600Y-108082096D01*
X133548308Y-108132135D01*
X133510849Y-108148424D01*
X133494100Y-108149000D01*
X133457733Y-108152626D01*
X133438796Y-108171792D01*
X133431641Y-108218931D01*
X133430600Y-108288700D01*
X133427180Y-108372947D01*
X133415178Y-108416321D01*
X133392500Y-108428400D01*
X133372952Y-108437970D01*
X133361220Y-108472696D01*
X133355613Y-108541597D01*
X133354400Y-108631600D01*
X133354400Y-108834800D01*
X132262200Y-108834800D01*
X132262200Y-108911000D01*
X132273560Y-108971495D01*
X132300300Y-108987200D01*
X132325413Y-109002158D01*
X132336851Y-109053020D01*
X132338400Y-109101500D01*
X132343387Y-109176836D01*
X132360341Y-109211152D01*
X132376500Y-109215800D01*
X132407529Y-109236975D01*
X132414600Y-109266600D01*
X132430482Y-109307971D01*
X132452700Y-109317400D01*
X132473401Y-109327856D01*
X132485248Y-109365454D01*
X132490245Y-109439536D01*
X132490800Y-109495200D01*
X132490800Y-109673000D01*
X131449400Y-109673000D01*
X131449400Y-109736500D01*
X131447418Y-109767249D01*
X131434766Y-109786016D01*
X131401387Y-109795758D01*
X131337223Y-109799433D01*
X131233500Y-109800000D01*
X131017600Y-109800000D01*
X131017600Y-109647600D01*
X131021456Y-109566423D01*
X131031530Y-109511387D01*
X131043000Y-109495200D01*
X131060835Y-109473128D01*
X131068399Y-109419948D01*
X131068400Y-109419000D01*
X131063402Y-109367707D01*
X131038116Y-109346742D01*
X130979984Y-109342800D01*
X130939411Y-109340486D01*
X130909208Y-109329289D01*
X130888045Y-109302825D01*
X130874591Y-109254710D01*
X130867519Y-109178559D01*
X130865497Y-109067988D01*
X130867196Y-108916614D01*
X130869284Y-108811317D01*
X130871068Y-108673780D01*
X130870461Y-108556002D01*
X130867681Y-108466458D01*
X130862944Y-108413623D01*
X130858850Y-108402976D01*
X130842149Y-108382224D01*
X130839800Y-108363085D01*
X130821714Y-108311837D01*
X130780640Y-108266941D01*
X130741166Y-108250600D01*
X130719808Y-108228384D01*
X130700919Y-108173720D01*
X130698425Y-108161700D01*
X130681795Y-108103093D01*
X130662399Y-108073625D01*
X130659174Y-108072800D01*
X130646811Y-108049830D01*
X130638612Y-107990580D01*
X130636600Y-107933100D01*
X130634167Y-107851885D01*
X130624217Y-107809595D01*
X130602773Y-107794475D01*
X130589338Y-107793400D01*
X130559037Y-107783002D01*
X130540097Y-107744298D01*
X130527038Y-107666425D01*
X130480627Y-107481428D01*
X130390352Y-107307067D01*
X130263132Y-107152646D01*
X130105884Y-107027468D01*
X130014300Y-106976905D01*
X129931584Y-106939723D01*
X129864778Y-106913575D01*
X129830150Y-106904420D01*
X129813916Y-106881630D01*
X129803064Y-106823227D01*
X129797720Y-106744126D01*
X129798008Y-106659241D01*
X129804053Y-106583485D01*
X129815978Y-106531773D01*
X129826930Y-106518123D01*
X129843638Y-106485994D01*
X129838446Y-106408081D01*
X129837397Y-106401706D01*
X129822380Y-106334131D01*
X129799919Y-106303197D01*
X129758003Y-106294954D01*
X129745368Y-106294800D01*
X129671400Y-106294800D01*
X129671400Y-106104300D01*
X129670609Y-106007403D01*
X129665857Y-105950605D01*
X129653578Y-105923204D01*
X129630204Y-105914500D01*
X129607900Y-105913800D01*
X129575602Y-105916174D01*
X129556669Y-105930430D01*
X129547535Y-105967268D01*
X129544634Y-106037389D01*
X129544400Y-106104300D01*
X129544400Y-106294800D01*
X129457733Y-106294800D01*
X129402601Y-106298654D01*
X129374064Y-106319596D01*
X129358338Y-106371695D01*
X129353004Y-106401706D01*
X129346446Y-106482473D01*
X129361789Y-106517459D01*
X129363471Y-106518123D01*
X129379336Y-106548368D01*
X129389171Y-106621911D01*
X129392000Y-106713975D01*
X129392000Y-106900317D01*
X129271350Y-106941096D01*
X129117162Y-107015557D01*
X128975132Y-107125738D01*
X128852893Y-107261755D01*
X128758080Y-107413730D01*
X128698327Y-107571780D01*
X128680800Y-107705452D01*
X128674983Y-107766323D01*
X128652339Y-107790682D01*
X128630000Y-107793400D01*
X128600643Y-107799463D01*
X128585350Y-107825680D01*
X128579742Y-107884089D01*
X128579200Y-107933100D01*
X128575025Y-108009604D01*
X128564254Y-108060346D01*
X128553800Y-108072800D01*
X128533163Y-108094073D01*
X128528400Y-108123600D01*
X128517764Y-108164874D01*
X128503000Y-108174400D01*
X128480466Y-108194972D01*
X128477600Y-108212500D01*
X128457218Y-108246022D01*
X128438865Y-108250600D01*
X128405667Y-108273446D01*
X128384890Y-108326800D01*
X128369667Y-108380109D01*
X128354092Y-108402962D01*
X128353775Y-108402976D01*
X128348934Y-108426944D01*
X128345754Y-108493215D01*
X128344385Y-108593314D01*
X128344978Y-108718767D01*
X128346517Y-108811317D01*
X128349723Y-108988407D01*
X128349954Y-109121108D01*
X128345882Y-109215803D01*
X128336176Y-109278878D01*
X128319506Y-109316715D01*
X128294543Y-109335700D01*
X128259958Y-109342217D01*
X128235817Y-109342800D01*
X128176301Y-109347107D01*
X128151975Y-109368900D01*
X128147400Y-109419000D01*
X128154758Y-109472502D01*
X128172484Y-109495194D01*
X128172800Y-109495200D01*
X128186330Y-109518335D01*
X128195503Y-109578774D01*
X128198200Y-109647600D01*
X128198200Y-109800000D01*
X127893400Y-109800000D01*
X127893400Y-109647600D01*
X126801200Y-109647600D01*
X126801200Y-109419000D01*
X126802685Y-109307475D01*
X126808104Y-109238007D01*
X126818904Y-109201916D01*
X126836532Y-109190520D01*
X126839300Y-109190400D01*
X126870329Y-109169224D01*
X126877400Y-109139600D01*
X126873158Y-109114289D01*
X126853619Y-109099119D01*
X126808564Y-109091537D01*
X126727776Y-109088986D01*
X126674200Y-109088800D01*
X126569940Y-109087005D01*
X126507370Y-109080494D01*
X126477469Y-109067575D01*
X126471000Y-109050700D01*
X126484716Y-109016898D01*
X126496400Y-109012600D01*
X126518935Y-108992027D01*
X126521800Y-108974500D01*
X126535516Y-108940698D01*
X126547200Y-108936400D01*
X126563106Y-108913866D01*
X126571953Y-108857574D01*
X126572600Y-108834800D01*
X126578234Y-108771177D01*
X126592307Y-108735790D01*
X126598000Y-108733200D01*
X126618638Y-108711926D01*
X126623400Y-108682400D01*
X126614880Y-108649164D01*
X126580444Y-108634476D01*
X126521800Y-108631600D01*
X126420200Y-108631600D01*
X126420200Y-108174400D01*
X122991200Y-108174400D01*
X122991200Y-108631600D01*
X122876900Y-108631600D01*
X122805472Y-108634923D01*
X122771696Y-108648725D01*
X122762644Y-108678750D01*
X122762600Y-108682400D01*
X122778482Y-108723771D01*
X122800700Y-108733200D01*
X122827193Y-108749976D01*
X122838109Y-108805590D01*
X122838800Y-108834800D01*
X122844434Y-108898422D01*
X122858507Y-108933809D01*
X122864200Y-108936400D01*
X122886735Y-108956972D01*
X122889600Y-108974500D01*
X122903316Y-109008301D01*
X122915000Y-109012600D01*
X122926367Y-109036923D01*
X122934713Y-109105710D01*
X122939482Y-109212682D01*
X122940400Y-109299459D01*
X122940400Y-109586318D01*
X120959200Y-109306061D01*
X118978000Y-109025805D01*
X118978000Y-100456836D01*
X119047850Y-100441991D01*
X119110508Y-100430331D01*
X119216878Y-100412432D01*
X119360393Y-100389296D01*
X119534485Y-100361928D01*
X119732585Y-100331331D01*
X119948126Y-100298508D01*
X120174540Y-100264463D01*
X120405258Y-100230200D01*
X120633713Y-100196721D01*
X120853336Y-100165031D01*
X120959200Y-100149970D01*
X122725116Y-99918697D01*
X124528230Y-99719145D01*
X126366029Y-99551353D01*
X128236000Y-99415362D01*
X130135630Y-99311212D01*
X132062405Y-99238943D01*
X134013812Y-99198594D01*
X135987338Y-99190207D01*
X137980471Y-99213820D01*
X139990697Y-99269475D01*
X142015502Y-99357211D01*
X144052374Y-99477067D01*
X146098800Y-99629085D01*
X147273600Y-99730598D01*
X147780668Y-99778032D01*
X148305919Y-99829768D01*
X148843053Y-99885070D01*
X149385769Y-99943199D01*
X149927766Y-100003419D01*
X150462743Y-100064992D01*
X150984399Y-100127182D01*
X151486433Y-100189252D01*
X151962544Y-100250464D01*
X152406431Y-100310082D01*
X152811793Y-100367368D01*
X153147350Y-100417698D01*
X153420400Y-100460061D01*
X153953322Y-100460061D01*
X153953931Y-99999664D01*
X153884016Y-99984875D01*
X153799052Y-99969065D01*
X153668910Y-99947759D01*
X153498828Y-99921670D01*
X153294048Y-99891508D01*
X153059810Y-99857987D01*
X152801353Y-99821819D01*
X152523918Y-99783714D01*
X152232746Y-99744386D01*
X151933076Y-99704547D01*
X151630149Y-99664907D01*
X151329204Y-99626180D01*
X151035483Y-99589077D01*
X150754225Y-99554311D01*
X150490670Y-99522592D01*
X150423200Y-99514641D01*
X150184790Y-99487236D01*
X149914526Y-99457130D01*
X149619492Y-99425044D01*
X149306775Y-99391699D01*
X148983460Y-99357817D01*
X148656634Y-99324117D01*
X148333381Y-99291322D01*
X148020789Y-99260152D01*
X147725943Y-99231329D01*
X147455928Y-99205574D01*
X147217830Y-99183608D01*
X147018735Y-99166152D01*
X146918000Y-99157911D01*
X146781973Y-99146737D01*
X146660292Y-99135852D01*
X146563787Y-99126290D01*
X146503288Y-99119084D01*
X146492550Y-99117295D01*
X146435400Y-99105632D01*
X146435400Y-86820705D01*
X145775000Y-86820705D01*
X145775000Y-99055800D01*
X145571800Y-99055800D01*
X145571800Y-86740886D01*
X145673400Y-86780796D01*
X145775000Y-86820705D01*
X146435400Y-86820705D01*
X146435400Y-86386715D01*
X146004096Y-86212507D01*
X145572791Y-86038300D01*
X145572296Y-84663223D01*
X145571800Y-83288146D01*
X146003600Y-83006680D01*
X146435400Y-82725213D01*
X146435400Y-82355300D01*
X145800187Y-82355300D01*
X145692344Y-82424747D01*
X145629664Y-82464447D01*
X145587697Y-82489776D01*
X145578150Y-82494597D01*
X145577372Y-82469744D01*
X145576621Y-82397071D01*
X145575902Y-82279560D01*
X145575223Y-82120190D01*
X145574588Y-81921942D01*
X145574004Y-81687797D01*
X145573476Y-81420735D01*
X145573009Y-81123737D01*
X145572610Y-80799783D01*
X145572284Y-80451854D01*
X145572038Y-80082930D01*
X145571875Y-79695992D01*
X145571804Y-79294021D01*
X145571800Y-79189711D01*
X145571800Y-75884422D01*
X145679750Y-75973549D01*
X145787700Y-76062675D01*
X145793944Y-79208987D01*
X145800187Y-82355300D01*
X146435400Y-82355300D01*
X146435400Y-75725821D01*
X145584500Y-75063429D01*
X145577922Y-73766789D01*
X145573034Y-72803213D01*
X144936800Y-72803213D01*
X144936800Y-85905818D01*
X144936795Y-86881118D01*
X144936776Y-87806903D01*
X144936739Y-88684457D01*
X144936680Y-89515065D01*
X144936594Y-90300012D01*
X144936477Y-91040581D01*
X144936324Y-91738058D01*
X144936132Y-92393727D01*
X144935895Y-93008873D01*
X144935610Y-93584780D01*
X144935272Y-94122733D01*
X144934877Y-94624016D01*
X144934420Y-95089915D01*
X144933898Y-95521714D01*
X144933304Y-95920697D01*
X144932637Y-96288149D01*
X144931890Y-96625354D01*
X144931060Y-96933598D01*
X144930141Y-97214164D01*
X144929131Y-97468337D01*
X144928025Y-97697403D01*
X144926817Y-97902645D01*
X144925504Y-98085348D01*
X144924082Y-98246797D01*
X144922545Y-98388276D01*
X144920891Y-98511070D01*
X144919113Y-98616464D01*
X144917209Y-98705742D01*
X144915173Y-98780188D01*
X144913002Y-98841088D01*
X144910690Y-98889725D01*
X144908234Y-98927385D01*
X144905629Y-98955352D01*
X144902870Y-98974911D01*
X144899954Y-98987346D01*
X144896877Y-98993942D01*
X144893633Y-98995983D01*
X144892350Y-98995831D01*
X144856391Y-98991119D01*
X144776493Y-98983962D01*
X144659433Y-98974860D01*
X144511989Y-98964309D01*
X144340935Y-98952809D01*
X144153050Y-98940858D01*
X144103933Y-98937840D01*
X143914092Y-98925807D01*
X143740473Y-98913947D01*
X143589622Y-98902775D01*
X143468084Y-98892804D01*
X143382404Y-98884552D01*
X143339127Y-98878533D01*
X143335560Y-98877356D01*
X143334314Y-98859836D01*
X142676200Y-98859836D01*
X142530150Y-98845040D01*
X142467239Y-98840163D01*
X142361505Y-98833679D01*
X142220884Y-98826001D01*
X142053312Y-98817541D01*
X141866728Y-98808711D01*
X141669066Y-98799924D01*
X141628450Y-98798189D01*
X140872800Y-98766134D01*
X140872800Y-98725600D01*
X140237800Y-98725600D01*
X140002850Y-98725522D01*
X139894451Y-98724465D01*
X139750491Y-98721601D01*
X139655641Y-98719123D01*
X131424000Y-98719123D01*
X130922350Y-98737932D01*
X130742795Y-98744977D01*
X130558363Y-98752770D01*
X130376172Y-98760953D01*
X130203340Y-98769169D01*
X130046986Y-98777062D01*
X129914227Y-98784274D01*
X129812182Y-98790447D01*
X129747968Y-98795225D01*
X129728550Y-98797842D01*
X129728168Y-98772924D01*
X129727792Y-98698656D01*
X129727422Y-98576490D01*
X129727059Y-98407877D01*
X129726704Y-98194268D01*
X129726358Y-97937112D01*
X129726020Y-97637862D01*
X129725692Y-97297968D01*
X129725375Y-96918881D01*
X129725069Y-96502051D01*
X129724775Y-96048931D01*
X129724493Y-95560969D01*
X129724224Y-95039618D01*
X129723968Y-94486329D01*
X129723728Y-93902551D01*
X129723502Y-93289736D01*
X129723292Y-92649336D01*
X129723098Y-91982800D01*
X129722921Y-91291579D01*
X129722763Y-90577125D01*
X129722622Y-89840888D01*
X129722500Y-89084320D01*
X129722399Y-88308870D01*
X129722317Y-87515990D01*
X129722256Y-86707131D01*
X129722218Y-85883744D01*
X129722203Y-85134094D01*
X129087200Y-85134094D01*
X129087200Y-98822188D01*
X128788750Y-98840222D01*
X128656599Y-98848509D01*
X128491027Y-98859344D01*
X128309279Y-98871575D01*
X128128599Y-98884048D01*
X128045800Y-98889891D01*
X127892141Y-98900596D01*
X127748312Y-98910194D01*
X127625249Y-98917988D01*
X127533889Y-98923277D01*
X127493350Y-98925162D01*
X127385400Y-98928800D01*
X127385400Y-92836949D01*
X126725000Y-92836949D01*
X126725000Y-98976381D01*
X126642450Y-98986625D01*
X126579841Y-98994873D01*
X126541635Y-99000772D01*
X126540850Y-99000935D01*
X126539125Y-98976272D01*
X126537441Y-98903001D01*
X126535806Y-98783312D01*
X126534227Y-98619397D01*
X126532710Y-98413448D01*
X126531263Y-98167654D01*
X126529892Y-97884209D01*
X126528604Y-97565302D01*
X126527406Y-97213126D01*
X126526305Y-96829871D01*
X126525307Y-96417729D01*
X126524420Y-95978891D01*
X126523650Y-95515548D01*
X126523005Y-95029892D01*
X126522490Y-94524114D01*
X126522113Y-94000405D01*
X126521881Y-93460956D01*
X126521801Y-92907960D01*
X126521800Y-92898784D01*
X126521800Y-86792569D01*
X126601791Y-86764684D01*
X126662894Y-86745470D01*
X126702179Y-86736836D01*
X126703391Y-86736800D01*
X126705347Y-86761834D01*
X126707255Y-86835478D01*
X126709108Y-86955541D01*
X126710898Y-87119831D01*
X126712617Y-87326158D01*
X126714257Y-87572331D01*
X126715811Y-87856159D01*
X126717271Y-88175452D01*
X126718630Y-88528018D01*
X126719879Y-88911667D01*
X126721010Y-89324208D01*
X126722017Y-89763451D01*
X126722891Y-90227204D01*
X126723625Y-90713277D01*
X126724210Y-91219478D01*
X126724640Y-91743618D01*
X126724906Y-92283505D01*
X126725000Y-92836949D01*
X127385400Y-92836949D01*
X127385400Y-79205166D01*
X126725000Y-79205166D01*
X126725000Y-82495720D01*
X126623400Y-82428485D01*
X126521800Y-82361249D01*
X126521800Y-76064242D01*
X126578950Y-76015293D01*
X126636993Y-75969740D01*
X126680550Y-75940478D01*
X126686985Y-75938564D01*
X126692769Y-75942399D01*
X126697936Y-75954528D01*
X126702520Y-75977493D01*
X126706558Y-76013838D01*
X126710083Y-76066107D01*
X126713129Y-76136844D01*
X126715732Y-76228591D01*
X126717926Y-76343893D01*
X126719746Y-76485294D01*
X126721226Y-76655336D01*
X126722402Y-76856563D01*
X126723307Y-77091520D01*
X126723976Y-77362749D01*
X126724444Y-77672794D01*
X126724746Y-78024200D01*
X126724916Y-78419508D01*
X126724989Y-78861264D01*
X126725000Y-79205166D01*
X127385400Y-79205166D01*
X127385400Y-72798193D01*
X128222732Y-72122096D01*
X128400837Y-71978537D01*
X128566637Y-71845378D01*
X128715989Y-71725912D01*
X128844748Y-71623431D01*
X128948771Y-71541229D01*
X129023913Y-71482597D01*
X129066031Y-71450829D01*
X129073632Y-71446000D01*
X129074456Y-71471155D01*
X129075268Y-71545646D01*
X129076065Y-71668008D01*
X129076847Y-71836774D01*
X129077612Y-72050481D01*
X129078359Y-72307664D01*
X129079085Y-72606858D01*
X129079790Y-72946598D01*
X129080473Y-73325418D01*
X129081131Y-73741855D01*
X129081763Y-74194443D01*
X129082369Y-74681718D01*
X129082945Y-75202215D01*
X129083492Y-75754468D01*
X129084007Y-76337013D01*
X129084489Y-76948385D01*
X129084937Y-77587119D01*
X129085348Y-78251750D01*
X129085723Y-78940814D01*
X129086058Y-79652845D01*
X129086354Y-80386380D01*
X129086608Y-81139951D01*
X129086818Y-81912096D01*
X129086984Y-82701349D01*
X129087104Y-83506246D01*
X129087177Y-84325320D01*
X129087200Y-85134094D01*
X129722203Y-85134094D01*
X129722201Y-85047279D01*
X129722200Y-84858803D01*
X129722200Y-70915807D01*
X130046050Y-70652409D01*
X130159973Y-70559888D01*
X130303127Y-70443838D01*
X130465192Y-70312611D01*
X130635851Y-70174561D01*
X130804784Y-70038041D01*
X130896950Y-69963625D01*
X131424000Y-69538238D01*
X131424000Y-98719123D01*
X139655641Y-98719123D01*
X139586167Y-98717308D01*
X139416671Y-98711962D01*
X139329750Y-98708824D01*
X138891600Y-98692204D01*
X138891600Y-98683042D01*
X138258699Y-98683042D01*
X137476600Y-98666265D01*
X137288871Y-98662843D01*
X137059469Y-98659653D01*
X136797518Y-98656768D01*
X136512144Y-98654261D01*
X136212473Y-98652202D01*
X135907630Y-98650666D01*
X135606741Y-98649724D01*
X135353623Y-98649444D01*
X134012746Y-98649400D01*
X134027500Y-98234670D01*
X134318757Y-98137235D01*
X134610013Y-98039800D01*
X137661388Y-98039800D01*
X137952644Y-98137240D01*
X138243900Y-98234681D01*
X138251300Y-98458862D01*
X138258699Y-98683042D01*
X138891600Y-98683042D01*
X138891600Y-96769800D01*
X138256600Y-96769800D01*
X138256600Y-97553838D01*
X137997610Y-97466619D01*
X137738619Y-97379400D01*
X134532782Y-97379400D01*
X134014800Y-97553838D01*
X134014800Y-96769800D01*
X138256600Y-96769800D01*
X138891600Y-96769800D01*
X138891600Y-96676437D01*
X139285326Y-96490387D01*
X139679052Y-96304338D01*
X139678951Y-96107673D01*
X137744403Y-96107673D01*
X137734593Y-96112600D01*
X137702913Y-96116740D01*
X137646339Y-96120158D01*
X137561849Y-96122917D01*
X137446420Y-96125081D01*
X137297030Y-96126713D01*
X137110656Y-96127877D01*
X136884274Y-96128637D01*
X136614863Y-96129056D01*
X136299400Y-96129198D01*
X136097600Y-96129179D01*
X135752224Y-96128982D01*
X135454682Y-96128525D01*
X135202010Y-96127747D01*
X134991244Y-96126590D01*
X134819418Y-96124993D01*
X134683568Y-96122896D01*
X134580729Y-96120240D01*
X134507936Y-96116965D01*
X134462225Y-96113011D01*
X134440631Y-96108318D01*
X134440189Y-96102826D01*
X134457935Y-96096476D01*
X134459300Y-96096120D01*
X134515707Y-96088361D01*
X134617201Y-96081515D01*
X134758079Y-96075585D01*
X134932637Y-96070570D01*
X135135171Y-96066474D01*
X135359977Y-96063298D01*
X135601350Y-96061043D01*
X135853588Y-96059711D01*
X136110986Y-96059304D01*
X136367840Y-96059823D01*
X136618446Y-96061270D01*
X136857100Y-96063646D01*
X137078098Y-96066953D01*
X137275736Y-96071193D01*
X137444311Y-96076367D01*
X137578118Y-96082478D01*
X137671453Y-96089525D01*
X137710500Y-96095205D01*
X137735364Y-96101896D01*
X137744403Y-96107673D01*
X139678951Y-96107673D01*
X139672676Y-83947207D01*
X139666481Y-71939197D01*
X139018600Y-71939197D01*
X139018600Y-95696606D01*
X138447100Y-95579518D01*
X137875600Y-95462431D01*
X137875600Y-83314515D01*
X137875629Y-82531586D01*
X137875713Y-81761501D01*
X137875851Y-81005815D01*
X137876041Y-80266082D01*
X137876282Y-79543859D01*
X137876571Y-78840699D01*
X137876907Y-78158157D01*
X137877288Y-77497789D01*
X137877712Y-76861150D01*
X137878178Y-76249794D01*
X137878684Y-75665277D01*
X137879228Y-75109153D01*
X137879808Y-74582977D01*
X137880423Y-74088305D01*
X137881071Y-73626691D01*
X137881750Y-73199690D01*
X137882458Y-72808857D01*
X137883193Y-72455748D01*
X137883955Y-72141917D01*
X137884740Y-71868919D01*
X137885548Y-71638308D01*
X137886376Y-71451641D01*
X137887223Y-71310472D01*
X137888087Y-71216355D01*
X137888966Y-71170847D01*
X137889330Y-71166600D01*
X137913024Y-71180487D01*
X137972833Y-71219638D01*
X138063184Y-71280286D01*
X138178503Y-71358663D01*
X138313218Y-71451003D01*
X138460830Y-71552898D01*
X139018600Y-71939197D01*
X139666481Y-71939197D01*
X139666300Y-71590077D01*
X139221800Y-71281524D01*
X139055403Y-71166047D01*
X138871128Y-71038215D01*
X138684592Y-70908855D01*
X138580077Y-70836400D01*
X137215200Y-70836400D01*
X137215200Y-95398200D01*
X134954600Y-95398200D01*
X134954905Y-95277550D01*
X134955062Y-95244386D01*
X134955486Y-95162038D01*
X134956169Y-95032121D01*
X134957102Y-94856247D01*
X134958276Y-94636033D01*
X134959683Y-94373093D01*
X134961313Y-94069041D01*
X134963158Y-93725493D01*
X134965210Y-93344062D01*
X134967459Y-92926363D01*
X134969898Y-92474012D01*
X134972516Y-91988622D01*
X134975306Y-91471808D01*
X134978259Y-90925185D01*
X134981366Y-90350367D01*
X134984618Y-89748970D01*
X134988007Y-89122607D01*
X134991524Y-88472894D01*
X134995160Y-87801444D01*
X134998906Y-87109873D01*
X135002754Y-86399795D01*
X135006696Y-85672825D01*
X135010721Y-84930577D01*
X135014822Y-84174667D01*
X135018080Y-83574500D01*
X135022252Y-82804657D01*
X135026355Y-82045366D01*
X135030380Y-81298329D01*
X135034318Y-80565244D01*
X135038161Y-79847811D01*
X135041898Y-79147732D01*
X135045522Y-78466705D01*
X135049024Y-77806432D01*
X135052394Y-77168611D01*
X135055624Y-76554944D01*
X135058706Y-75967129D01*
X135061629Y-75406868D01*
X135064387Y-74875860D01*
X135066969Y-74375806D01*
X135069366Y-73908405D01*
X135071571Y-73475358D01*
X135073573Y-73078364D01*
X135075365Y-72719124D01*
X135076938Y-72399337D01*
X135078282Y-72120705D01*
X135079389Y-71884926D01*
X135080250Y-71693701D01*
X135080855Y-71548731D01*
X135081198Y-71451714D01*
X135081275Y-71414250D01*
X135081423Y-71150936D01*
X134435988Y-71150936D01*
X134428279Y-72143018D01*
X134427609Y-72238514D01*
X134426701Y-72382908D01*
X134425563Y-72574297D01*
X134424207Y-72810778D01*
X134422642Y-73090449D01*
X134420877Y-73411409D01*
X134418923Y-73771755D01*
X134416790Y-74169584D01*
X134414487Y-74602994D01*
X134412025Y-75070084D01*
X134409413Y-75568951D01*
X134406661Y-76097692D01*
X134403779Y-76654406D01*
X134400777Y-77237190D01*
X134397665Y-77844141D01*
X134394453Y-78473359D01*
X134391150Y-79122940D01*
X134387767Y-79790981D01*
X134384313Y-80475582D01*
X134380799Y-81174840D01*
X134377234Y-81886852D01*
X134373628Y-82609716D01*
X134369991Y-83341529D01*
X134369088Y-83523700D01*
X134365459Y-84255171D01*
X134361870Y-84977162D01*
X134358330Y-85687821D01*
X134354849Y-86385294D01*
X134351436Y-87067729D01*
X134348100Y-87733273D01*
X134344851Y-88380074D01*
X134341698Y-89006279D01*
X134338651Y-89610036D01*
X134335720Y-90189490D01*
X134332913Y-90742791D01*
X134330239Y-91268085D01*
X134327710Y-91763519D01*
X134325333Y-92227242D01*
X134323119Y-92657399D01*
X134321076Y-93052139D01*
X134319214Y-93409609D01*
X134317544Y-93727956D01*
X134316073Y-94005327D01*
X134314811Y-94239871D01*
X134313769Y-94429733D01*
X134312955Y-94573062D01*
X134312379Y-94668005D01*
X134312253Y-94686914D01*
X134306900Y-95461528D01*
X133798900Y-95576008D01*
X133290900Y-95690489D01*
X133284523Y-83829528D01*
X133284032Y-82871707D01*
X133283617Y-81963519D01*
X133283280Y-81103796D01*
X133283023Y-80291370D01*
X133282851Y-79525075D01*
X133282764Y-78803743D01*
X133282765Y-78126207D01*
X133282858Y-77491299D01*
X133283043Y-76897852D01*
X133283325Y-76344699D01*
X133283705Y-75830671D01*
X133284186Y-75354603D01*
X133284770Y-74915326D01*
X133285460Y-74511673D01*
X133286258Y-74142476D01*
X133287167Y-73806569D01*
X133288190Y-73502784D01*
X133289328Y-73229953D01*
X133290584Y-72986910D01*
X133291962Y-72772486D01*
X133293462Y-72585514D01*
X133295089Y-72424828D01*
X133296843Y-72289259D01*
X133298729Y-72177641D01*
X133300748Y-72088805D01*
X133302902Y-72021585D01*
X133305195Y-71974813D01*
X133307628Y-71947322D01*
X133309923Y-71938116D01*
X133338746Y-71915902D01*
X133403509Y-71869067D01*
X133498300Y-71801786D01*
X133617210Y-71718232D01*
X133754326Y-71622580D01*
X133888844Y-71529300D01*
X134435988Y-71150936D01*
X135081423Y-71150936D01*
X135081600Y-70836400D01*
X137215200Y-70836400D01*
X138580077Y-70836400D01*
X138511408Y-70788796D01*
X138390700Y-70705151D01*
X138009848Y-70441313D01*
X134288407Y-70441313D01*
X134269762Y-70456690D01*
X134213650Y-70497706D01*
X134124488Y-70561254D01*
X134006693Y-70644226D01*
X133864682Y-70743515D01*
X133702873Y-70856014D01*
X133525682Y-70978616D01*
X133470228Y-71016872D01*
X132645143Y-71585700D01*
X132650522Y-83951433D01*
X132655900Y-96317167D01*
X133379800Y-96651817D01*
X133379800Y-98673627D01*
X132928950Y-98681188D01*
X132765258Y-98684076D01*
X132603017Y-98687192D01*
X132455739Y-98690258D01*
X132336935Y-98692997D01*
X132281250Y-98694474D01*
X132084400Y-98700200D01*
X132084400Y-84044400D01*
X132084435Y-83183840D01*
X132084539Y-82335984D01*
X132084708Y-81502249D01*
X132084942Y-80684050D01*
X132085239Y-79882802D01*
X132085596Y-79099922D01*
X132086012Y-78336824D01*
X132086484Y-77594926D01*
X132087011Y-76875641D01*
X132087591Y-76180387D01*
X132088221Y-75510578D01*
X132088900Y-74867630D01*
X132089626Y-74252960D01*
X132090397Y-73667982D01*
X132091211Y-73114113D01*
X132092065Y-72592768D01*
X132092959Y-72105362D01*
X132093890Y-71653312D01*
X132094855Y-71238033D01*
X132095854Y-70860940D01*
X132096884Y-70523451D01*
X132097943Y-70226979D01*
X132099029Y-69972941D01*
X132100141Y-69762752D01*
X132101276Y-69597829D01*
X132102432Y-69479587D01*
X132103608Y-69409441D01*
X132104692Y-69388600D01*
X132129835Y-69399265D01*
X132195202Y-69429508D01*
X132295330Y-69476692D01*
X132424755Y-69538185D01*
X132578015Y-69611353D01*
X132749645Y-69693562D01*
X132934183Y-69782179D01*
X133126166Y-69874569D01*
X133320129Y-69968099D01*
X133510609Y-70060135D01*
X133692144Y-70148043D01*
X133859269Y-70229191D01*
X134006522Y-70300943D01*
X134128438Y-70360666D01*
X134219556Y-70405727D01*
X134274411Y-70433491D01*
X134288407Y-70441313D01*
X138009848Y-70441313D01*
X138004099Y-70437331D01*
X138682800Y-70111653D01*
X138883463Y-70015365D01*
X139095072Y-69913827D01*
X139305938Y-69812646D01*
X139504370Y-69717434D01*
X139678677Y-69633799D01*
X139799650Y-69575756D01*
X140237800Y-69365537D01*
X140237800Y-98725600D01*
X140872800Y-98725600D01*
X140872800Y-84152305D01*
X140872815Y-83103849D01*
X140872859Y-82105056D01*
X140872936Y-81154788D01*
X140873048Y-80251908D01*
X140873199Y-79395278D01*
X140873390Y-78583761D01*
X140873625Y-77816220D01*
X140873906Y-77091517D01*
X140874236Y-76408515D01*
X140874617Y-75766076D01*
X140875053Y-75163063D01*
X140875546Y-74598339D01*
X140876099Y-74070766D01*
X140876714Y-73579206D01*
X140877395Y-73122524D01*
X140878143Y-72699580D01*
X140878961Y-72309237D01*
X140879853Y-71950359D01*
X140880821Y-71621808D01*
X140881867Y-71322446D01*
X140882995Y-71051136D01*
X140884207Y-70806741D01*
X140885505Y-70588122D01*
X140886893Y-70394144D01*
X140888373Y-70223668D01*
X140889947Y-70075557D01*
X140891619Y-69948674D01*
X140893392Y-69841880D01*
X140895267Y-69754040D01*
X140897248Y-69684015D01*
X140899337Y-69630668D01*
X140901537Y-69592861D01*
X140903851Y-69569458D01*
X140906281Y-69559320D01*
X140907421Y-69558787D01*
X140933931Y-69578569D01*
X140995743Y-69626923D01*
X141088645Y-69700493D01*
X141208430Y-69795919D01*
X141350887Y-69909845D01*
X141511809Y-70038912D01*
X141686984Y-70179762D01*
X141808430Y-70277600D01*
X142674818Y-70976100D01*
X142676200Y-98859836D01*
X143334314Y-98859836D01*
X143333674Y-98850845D01*
X143331881Y-98774034D01*
X143330183Y-98647422D01*
X143328580Y-98471508D01*
X143327072Y-98246793D01*
X143325660Y-97973776D01*
X143324345Y-97652957D01*
X143323127Y-97284835D01*
X143322008Y-96869909D01*
X143320987Y-96408680D01*
X143320066Y-95901647D01*
X143319245Y-95349309D01*
X143318525Y-94752167D01*
X143317906Y-94110719D01*
X143317390Y-93425465D01*
X143316976Y-92696905D01*
X143316665Y-91925539D01*
X143316458Y-91111865D01*
X143316357Y-90256384D01*
X143316360Y-89359595D01*
X143316470Y-88421998D01*
X143316686Y-87444092D01*
X143317010Y-86426377D01*
X143317441Y-85369353D01*
X143317527Y-85182274D01*
X143323900Y-71502276D01*
X144130350Y-72152745D01*
X144936800Y-72803213D01*
X145573034Y-72803213D01*
X145571344Y-72470150D01*
X143103397Y-70478525D01*
X142794026Y-70228987D01*
X142495404Y-69988360D01*
X142209934Y-69758568D01*
X141940018Y-69541534D01*
X141688058Y-69339181D01*
X141456456Y-69153434D01*
X141247614Y-68986215D01*
X141063934Y-68839448D01*
X140907819Y-68715057D01*
X140781671Y-68614965D01*
X140687892Y-68541095D01*
X140628885Y-68495371D01*
X140607139Y-68479730D01*
X140580313Y-68489350D01*
X140580313Y-68489350D01*
G37*
X140580313Y-68489350D02*
X140511269Y-68519410D01*
X140403530Y-68568256D01*
X140260621Y-68634234D01*
X140086069Y-68715692D01*
X139883398Y-68810975D01*
X139656133Y-68918431D01*
X139407799Y-69036406D01*
X139141922Y-69163246D01*
X138862027Y-69297300D01*
X138779380Y-69336980D01*
X136979932Y-70201400D01*
X136143114Y-70201399D01*
X135306295Y-70201399D01*
X133517575Y-69335072D01*
X133235324Y-69198730D01*
X132965979Y-69069323D01*
X132713075Y-68948506D01*
X132480147Y-68837936D01*
X132270729Y-68739268D01*
X132088357Y-68654159D01*
X131936566Y-68584264D01*
X131818889Y-68531239D01*
X131738862Y-68496741D01*
X131700019Y-68482424D01*
X131697078Y-68482222D01*
X131673682Y-68499587D01*
X131613194Y-68546961D01*
X131518021Y-68622411D01*
X131390573Y-68724004D01*
X131233256Y-68849807D01*
X131048481Y-68997886D01*
X130838654Y-69166309D01*
X130606184Y-69353143D01*
X130353480Y-69556454D01*
X130082951Y-69774310D01*
X129797003Y-70004776D01*
X129498047Y-70245921D01*
X129201500Y-70485305D01*
X126737700Y-72474908D01*
X126731122Y-73772459D01*
X126724544Y-75070009D01*
X126305672Y-75394730D01*
X125886800Y-75719452D01*
X125887694Y-79227876D01*
X125888587Y-82736300D01*
X126306066Y-83003000D01*
X126723544Y-83269700D01*
X126717922Y-84652158D01*
X126712300Y-86034617D01*
X125861400Y-86316579D01*
X125861400Y-92686189D01*
X125861391Y-93358255D01*
X125861354Y-93981368D01*
X125861276Y-94557378D01*
X125861144Y-95088132D01*
X125860944Y-95575478D01*
X125860663Y-96021265D01*
X125860287Y-96427341D01*
X125859803Y-96795553D01*
X125859198Y-97127750D01*
X125858458Y-97425780D01*
X125857569Y-97691491D01*
X125856519Y-97926732D01*
X125855294Y-98133349D01*
X125853880Y-98313192D01*
X125852264Y-98468108D01*
X125850433Y-98599946D01*
X125848374Y-98710553D01*
X125846072Y-98801779D01*
X125843514Y-98875470D01*
X125840688Y-98933475D01*
X125837579Y-98977642D01*
X125834174Y-99009819D01*
X125830460Y-99031855D01*
X125826424Y-99045597D01*
X125822051Y-99052893D01*
X125817329Y-99055592D01*
X125815175Y-99055800D01*
X125748587Y-99058716D01*
X125636372Y-99067117D01*
X125483347Y-99080482D01*
X125294329Y-99098289D01*
X125074136Y-99120016D01*
X124827584Y-99145143D01*
X124559490Y-99173148D01*
X124274671Y-99203509D01*
X123977944Y-99235704D01*
X123674127Y-99269213D01*
X123368035Y-99303514D01*
X123064487Y-99338086D01*
X122768299Y-99372406D01*
X122484288Y-99405954D01*
X122217271Y-99438209D01*
X121972065Y-99468648D01*
X121810100Y-99489358D01*
X121568488Y-99521282D01*
X121305074Y-99557097D01*
X121025457Y-99595968D01*
X120735236Y-99637061D01*
X120440007Y-99679540D01*
X120145370Y-99722569D01*
X119856923Y-99765315D01*
X119580263Y-99806941D01*
X119320989Y-99846613D01*
X119084700Y-99883496D01*
X118876992Y-99916754D01*
X118703464Y-99945553D01*
X118569715Y-99969057D01*
X118488985Y-99984778D01*
X118419070Y-99999664D01*
X118431900Y-109710406D01*
X127233000Y-110960435D01*
X127896592Y-111054631D01*
X128547866Y-111146970D01*
X129184987Y-111237196D01*
X129806121Y-111325052D01*
X130409435Y-111410282D01*
X130993093Y-111492629D01*
X131555261Y-111571836D01*
X132094106Y-111647648D01*
X132607793Y-111719807D01*
X133094487Y-111788057D01*
X133552355Y-111852142D01*
X133979562Y-111911805D01*
X134374274Y-111966788D01*
X134734656Y-112016837D01*
X135058874Y-112061694D01*
X135345094Y-112101103D01*
X135591482Y-112134807D01*
X135796204Y-112162549D01*
X135957424Y-112184074D01*
X136073310Y-112199124D01*
X136142026Y-112207444D01*
X136161100Y-112209125D01*
X136195586Y-112205498D01*
X136278535Y-112194992D01*
X136408118Y-112177862D01*
X136582501Y-112154364D01*
X136799854Y-112124753D01*
X137058345Y-112089286D01*
X137356141Y-112048218D01*
X137691411Y-112001805D01*
X138062323Y-111950302D01*
X138467045Y-111893965D01*
X138903746Y-111833050D01*
X139370593Y-111767812D01*
X139865756Y-111698507D01*
X140387402Y-111625391D01*
X140933699Y-111548720D01*
X141502815Y-111468749D01*
X142092920Y-111385734D01*
X142702180Y-111299930D01*
X143328765Y-111211594D01*
X143970842Y-111120981D01*
X144626579Y-111028346D01*
X145114600Y-110959345D01*
X153941100Y-109710904D01*
X153947516Y-104855284D01*
X153953322Y-100460061D01*
X153420400Y-100460061D01*
X153420400Y-104812530D01*
X153420334Y-105383220D01*
X153420127Y-105905019D01*
X153419764Y-106379836D01*
X153419231Y-106809580D01*
X153418515Y-107196161D01*
X153417603Y-107541488D01*
X153416478Y-107847469D01*
X153415129Y-108116015D01*
X153413541Y-108349033D01*
X153411700Y-108548433D01*
X153409592Y-108716124D01*
X153407203Y-108854015D01*
X153404520Y-108964016D01*
X153401528Y-109048035D01*
X153398213Y-109107981D01*
X153394562Y-109145764D01*
X153390560Y-109163292D01*
X153388650Y-109165081D01*
X153358950Y-109168568D01*
X153282927Y-109178633D01*
X153164555Y-109194726D01*
X153007808Y-109216293D01*
X152816660Y-109242781D01*
X152595086Y-109273640D01*
X152347059Y-109308317D01*
X152076554Y-109346258D01*
X151787545Y-109386913D01*
X151484005Y-109429729D01*
X151469476Y-109431781D01*
X151165589Y-109474664D01*
X150876224Y-109515413D01*
X150605334Y-109553475D01*
X150356870Y-109588300D01*
X150134786Y-109619336D01*
X149943034Y-109646033D01*
X149785566Y-109667838D01*
X149666336Y-109684200D01*
X149589294Y-109694568D01*
X149558395Y-109698390D01*
X149558126Y-109698400D01*
X149549702Y-109674053D01*
X149542776Y-109605204D01*
X149537686Y-109498134D01*
X149534770Y-109359126D01*
X149534200Y-109253900D01*
X149534758Y-109091275D01*
X149536805Y-108972854D01*
X149540908Y-108892047D01*
X149547631Y-108842265D01*
X149557539Y-108816921D01*
X149571197Y-108809426D01*
X149572300Y-108809400D01*
X149602943Y-108787319D01*
X149610400Y-108745900D01*
X149597152Y-108694828D01*
X149572300Y-108682400D01*
X149553713Y-108673491D01*
X149542135Y-108640978D01*
X149536120Y-108576179D01*
X149534221Y-108470412D01*
X149534200Y-108453800D01*
X149534200Y-108225200D01*
X146892600Y-108225200D01*
X146892600Y-108047400D01*
X146100654Y-108047400D01*
X145841298Y-108046571D01*
X145630248Y-108044029D01*
X145465034Y-108039687D01*
X145343187Y-108033459D01*
X145262240Y-108025259D01*
X145224354Y-108016897D01*
X145140000Y-107986394D01*
X145140000Y-107483497D01*
X145139530Y-107309244D01*
X145137803Y-107179560D01*
X145134349Y-107088219D01*
X145128696Y-107028996D01*
X145120372Y-106995665D01*
X145108905Y-106982002D01*
X145101900Y-106980600D01*
X145068099Y-106994315D01*
X145063800Y-107006000D01*
X145039579Y-107017626D01*
X144971504Y-107026084D01*
X144866459Y-107030718D01*
X144797100Y-107031400D01*
X144530400Y-107031400D01*
X144530400Y-107412400D01*
X145063800Y-107412400D01*
X145063800Y-107973792D01*
X144975716Y-108010596D01*
X144940187Y-108021443D01*
X144887683Y-108030052D01*
X144812867Y-108036645D01*
X144710406Y-108041448D01*
X144574963Y-108044684D01*
X144401202Y-108046577D01*
X144183788Y-108047351D01*
X144099416Y-108047400D01*
X143311200Y-108047400D01*
X143311200Y-108225200D01*
X140644200Y-108225200D01*
X140644200Y-108453800D01*
X140642716Y-108565324D01*
X140637297Y-108634792D01*
X140626497Y-108670883D01*
X140608869Y-108682279D01*
X140606100Y-108682400D01*
X140575458Y-108704480D01*
X140568000Y-108745900D01*
X140581249Y-108796971D01*
X140606100Y-108809400D01*
X140615477Y-108814439D01*
X140623206Y-108832444D01*
X140629443Y-108867745D01*
X140634341Y-108924673D01*
X140638053Y-109007559D01*
X140640732Y-109120732D01*
X140642531Y-109268525D01*
X140643606Y-109455267D01*
X140644107Y-109685289D01*
X140644200Y-109884831D01*
X140644200Y-110960263D01*
X140336535Y-111003799D01*
X140217397Y-111019527D01*
X140117556Y-111030576D01*
X140047156Y-111035971D01*
X140016344Y-111034743D01*
X140016034Y-111034500D01*
X140012978Y-111007606D01*
X140008324Y-110934080D01*
X140002255Y-110818058D01*
X139994950Y-110663675D01*
X139986590Y-110475068D01*
X139977354Y-110256373D01*
X139967424Y-110011727D01*
X139956979Y-109745266D01*
X139946200Y-109461126D01*
X139939292Y-109274183D01*
X139875385Y-107526700D01*
X139700823Y-107177450D01*
X139639438Y-107057017D01*
X139584937Y-106954546D01*
X139541660Y-106877854D01*
X139513944Y-106834754D01*
X139506945Y-106828200D01*
X139489501Y-106849731D01*
X139454229Y-106909069D01*
X139405502Y-106998327D01*
X139347694Y-107109620D01*
X139316336Y-107171898D01*
X139145044Y-107515597D01*
X139082019Y-109197548D01*
X139071149Y-109489861D01*
X139060867Y-109770730D01*
X139051335Y-110035454D01*
X139042713Y-110279329D01*
X139035164Y-110497653D01*
X139028850Y-110685723D01*
X139023932Y-110838835D01*
X139020573Y-110952288D01*
X139018935Y-111021379D01*
X139018797Y-111034513D01*
X139018600Y-111189527D01*
X138669350Y-111240979D01*
X138535817Y-111260142D01*
X138415033Y-111276542D01*
X138318579Y-111288671D01*
X138258035Y-111295023D01*
X138250250Y-111295515D01*
X138180400Y-111298600D01*
X138180400Y-109647600D01*
X136910400Y-109647600D01*
X136910400Y-109482500D01*
X136913989Y-109396225D01*
X136923496Y-109337157D01*
X136935800Y-109317400D01*
X136956438Y-109296126D01*
X136961200Y-109266600D01*
X136977082Y-109225228D01*
X136999300Y-109215800D01*
X137024413Y-109200841D01*
X137035851Y-109149979D01*
X137037400Y-109101500D01*
X137042387Y-109026163D01*
X137059341Y-108991847D01*
X137075500Y-108987200D01*
X137105748Y-108964481D01*
X137113600Y-108911000D01*
X137113600Y-108834800D01*
X136046800Y-108834800D01*
X136046800Y-108631600D01*
X136045740Y-108530357D01*
X136040855Y-108469679D01*
X136029591Y-108439349D01*
X136009394Y-108429147D01*
X135996000Y-108428400D01*
X135966643Y-108422336D01*
X135951350Y-108396119D01*
X135945742Y-108337710D01*
X135945200Y-108288700D01*
X135942901Y-108207780D01*
X135933200Y-108165630D01*
X135911891Y-108150319D01*
X135895957Y-108149000D01*
X135862614Y-108137802D01*
X135841732Y-108096494D01*
X135829653Y-108035234D01*
X135787482Y-107895507D01*
X135708630Y-107755968D01*
X135604276Y-107633851D01*
X135530108Y-107573372D01*
X135358553Y-107482292D01*
X135153113Y-107416315D01*
X134924489Y-107376196D01*
X134683382Y-107362691D01*
X134440493Y-107376558D01*
X134206523Y-107418552D01*
X134044803Y-107468411D01*
X133898231Y-107544088D01*
X133768486Y-107650521D01*
X133663398Y-107777845D01*
X133590802Y-107916194D01*
X133558528Y-108055702D01*
X133557600Y-108082096D01*
X133548308Y-108132135D01*
X133510849Y-108148424D01*
X133494100Y-108149000D01*
X133457733Y-108152626D01*
X133438796Y-108171792D01*
X133431641Y-108218931D01*
X133430600Y-108288700D01*
X133427180Y-108372947D01*
X133415178Y-108416321D01*
X133392500Y-108428400D01*
X133372952Y-108437970D01*
X133361220Y-108472696D01*
X133355613Y-108541597D01*
X133354400Y-108631600D01*
X133354400Y-108834800D01*
X132262200Y-108834800D01*
X132262200Y-108911000D01*
X132273560Y-108971495D01*
X132300300Y-108987200D01*
X132325413Y-109002158D01*
X132336851Y-109053020D01*
X132338400Y-109101500D01*
X132343387Y-109176836D01*
X132360341Y-109211152D01*
X132376500Y-109215800D01*
X132407529Y-109236975D01*
X132414600Y-109266600D01*
X132430482Y-109307971D01*
X132452700Y-109317400D01*
X132473401Y-109327856D01*
X132485248Y-109365454D01*
X132490245Y-109439536D01*
X132490800Y-109495200D01*
X132490800Y-109673000D01*
X131449400Y-109673000D01*
X131449400Y-109736500D01*
X131447418Y-109767249D01*
X131434766Y-109786016D01*
X131401387Y-109795758D01*
X131337223Y-109799433D01*
X131233500Y-109800000D01*
X131017600Y-109800000D01*
X131017600Y-109647600D01*
X131021456Y-109566423D01*
X131031530Y-109511387D01*
X131043000Y-109495200D01*
X131060835Y-109473128D01*
X131068399Y-109419948D01*
X131068400Y-109419000D01*
X131063402Y-109367707D01*
X131038116Y-109346742D01*
X130979984Y-109342800D01*
X130939411Y-109340486D01*
X130909208Y-109329289D01*
X130888045Y-109302825D01*
X130874591Y-109254710D01*
X130867519Y-109178559D01*
X130865497Y-109067988D01*
X130867196Y-108916614D01*
X130869284Y-108811317D01*
X130871068Y-108673780D01*
X130870461Y-108556002D01*
X130867681Y-108466458D01*
X130862944Y-108413623D01*
X130858850Y-108402976D01*
X130842149Y-108382224D01*
X130839800Y-108363085D01*
X130821714Y-108311837D01*
X130780640Y-108266941D01*
X130741166Y-108250600D01*
X130719808Y-108228384D01*
X130700919Y-108173720D01*
X130698425Y-108161700D01*
X130681795Y-108103093D01*
X130662399Y-108073625D01*
X130659174Y-108072800D01*
X130646811Y-108049830D01*
X130638612Y-107990580D01*
X130636600Y-107933100D01*
X130634167Y-107851885D01*
X130624217Y-107809595D01*
X130602773Y-107794475D01*
X130589338Y-107793400D01*
X130559037Y-107783002D01*
X130540097Y-107744298D01*
X130527038Y-107666425D01*
X130480627Y-107481428D01*
X130390352Y-107307067D01*
X130263132Y-107152646D01*
X130105884Y-107027468D01*
X130014300Y-106976905D01*
X129931584Y-106939723D01*
X129864778Y-106913575D01*
X129830150Y-106904420D01*
X129813916Y-106881630D01*
X129803064Y-106823227D01*
X129797720Y-106744126D01*
X129798008Y-106659241D01*
X129804053Y-106583485D01*
X129815978Y-106531773D01*
X129826930Y-106518123D01*
X129843638Y-106485994D01*
X129838446Y-106408081D01*
X129837397Y-106401706D01*
X129822380Y-106334131D01*
X129799919Y-106303197D01*
X129758003Y-106294954D01*
X129745368Y-106294800D01*
X129671400Y-106294800D01*
X129671400Y-106104300D01*
X129670609Y-106007403D01*
X129665857Y-105950605D01*
X129653578Y-105923204D01*
X129630204Y-105914500D01*
X129607900Y-105913800D01*
X129575602Y-105916174D01*
X129556669Y-105930430D01*
X129547535Y-105967268D01*
X129544634Y-106037389D01*
X129544400Y-106104300D01*
X129544400Y-106294800D01*
X129457733Y-106294800D01*
X129402601Y-106298654D01*
X129374064Y-106319596D01*
X129358338Y-106371695D01*
X129353004Y-106401706D01*
X129346446Y-106482473D01*
X129361789Y-106517459D01*
X129363471Y-106518123D01*
X129379336Y-106548368D01*
X129389171Y-106621911D01*
X129392000Y-106713975D01*
X129392000Y-106900317D01*
X129271350Y-106941096D01*
X129117162Y-107015557D01*
X128975132Y-107125738D01*
X128852893Y-107261755D01*
X128758080Y-107413730D01*
X128698327Y-107571780D01*
X128680800Y-107705452D01*
X128674983Y-107766323D01*
X128652339Y-107790682D01*
X128630000Y-107793400D01*
X128600643Y-107799463D01*
X128585350Y-107825680D01*
X128579742Y-107884089D01*
X128579200Y-107933100D01*
X128575025Y-108009604D01*
X128564254Y-108060346D01*
X128553800Y-108072800D01*
X128533163Y-108094073D01*
X128528400Y-108123600D01*
X128517764Y-108164874D01*
X128503000Y-108174400D01*
X128480466Y-108194972D01*
X128477600Y-108212500D01*
X128457218Y-108246022D01*
X128438865Y-108250600D01*
X128405667Y-108273446D01*
X128384890Y-108326800D01*
X128369667Y-108380109D01*
X128354092Y-108402962D01*
X128353775Y-108402976D01*
X128348934Y-108426944D01*
X128345754Y-108493215D01*
X128344385Y-108593314D01*
X128344978Y-108718767D01*
X128346517Y-108811317D01*
X128349723Y-108988407D01*
X128349954Y-109121108D01*
X128345882Y-109215803D01*
X128336176Y-109278878D01*
X128319506Y-109316715D01*
X128294543Y-109335700D01*
X128259958Y-109342217D01*
X128235817Y-109342800D01*
X128176301Y-109347107D01*
X128151975Y-109368900D01*
X128147400Y-109419000D01*
X128154758Y-109472502D01*
X128172484Y-109495194D01*
X128172800Y-109495200D01*
X128186330Y-109518335D01*
X128195503Y-109578774D01*
X128198200Y-109647600D01*
X128198200Y-109800000D01*
X127893400Y-109800000D01*
X127893400Y-109647600D01*
X126801200Y-109647600D01*
X126801200Y-109419000D01*
X126802685Y-109307475D01*
X126808104Y-109238007D01*
X126818904Y-109201916D01*
X126836532Y-109190520D01*
X126839300Y-109190400D01*
X126870329Y-109169224D01*
X126877400Y-109139600D01*
X126873158Y-109114289D01*
X126853619Y-109099119D01*
X126808564Y-109091537D01*
X126727776Y-109088986D01*
X126674200Y-109088800D01*
X126569940Y-109087005D01*
X126507370Y-109080494D01*
X126477469Y-109067575D01*
X126471000Y-109050700D01*
X126484716Y-109016898D01*
X126496400Y-109012600D01*
X126518935Y-108992027D01*
X126521800Y-108974500D01*
X126535516Y-108940698D01*
X126547200Y-108936400D01*
X126563106Y-108913866D01*
X126571953Y-108857574D01*
X126572600Y-108834800D01*
X126578234Y-108771177D01*
X126592307Y-108735790D01*
X126598000Y-108733200D01*
X126618638Y-108711926D01*
X126623400Y-108682400D01*
X126614880Y-108649164D01*
X126580444Y-108634476D01*
X126521800Y-108631600D01*
X126420200Y-108631600D01*
X126420200Y-108174400D01*
X122991200Y-108174400D01*
X122991200Y-108631600D01*
X122876900Y-108631600D01*
X122805472Y-108634923D01*
X122771696Y-108648725D01*
X122762644Y-108678750D01*
X122762600Y-108682400D01*
X122778482Y-108723771D01*
X122800700Y-108733200D01*
X122827193Y-108749976D01*
X122838109Y-108805590D01*
X122838800Y-108834800D01*
X122844434Y-108898422D01*
X122858507Y-108933809D01*
X122864200Y-108936400D01*
X122886735Y-108956972D01*
X122889600Y-108974500D01*
X122903316Y-109008301D01*
X122915000Y-109012600D01*
X122926367Y-109036923D01*
X122934713Y-109105710D01*
X122939482Y-109212682D01*
X122940400Y-109299459D01*
X122940400Y-109586318D01*
X120959200Y-109306061D01*
X118978000Y-109025805D01*
X118978000Y-100456836D01*
X119047850Y-100441991D01*
X119110508Y-100430331D01*
X119216878Y-100412432D01*
X119360393Y-100389296D01*
X119534485Y-100361928D01*
X119732585Y-100331331D01*
X119948126Y-100298508D01*
X120174540Y-100264463D01*
X120405258Y-100230200D01*
X120633713Y-100196721D01*
X120853336Y-100165031D01*
X120959200Y-100149970D01*
X122725116Y-99918697D01*
X124528230Y-99719145D01*
X126366029Y-99551353D01*
X128236000Y-99415362D01*
X130135630Y-99311212D01*
X132062405Y-99238943D01*
X134013812Y-99198594D01*
X135987338Y-99190207D01*
X137980471Y-99213820D01*
X139990697Y-99269475D01*
X142015502Y-99357211D01*
X144052374Y-99477067D01*
X146098800Y-99629085D01*
X147273600Y-99730598D01*
X147780668Y-99778032D01*
X148305919Y-99829768D01*
X148843053Y-99885070D01*
X149385769Y-99943199D01*
X149927766Y-100003419D01*
X150462743Y-100064992D01*
X150984399Y-100127182D01*
X151486433Y-100189252D01*
X151962544Y-100250464D01*
X152406431Y-100310082D01*
X152811793Y-100367368D01*
X153147350Y-100417698D01*
X153420400Y-100460061D01*
X153953322Y-100460061D01*
X153953931Y-99999664D01*
X153884016Y-99984875D01*
X153799052Y-99969065D01*
X153668910Y-99947759D01*
X153498828Y-99921670D01*
X153294048Y-99891508D01*
X153059810Y-99857987D01*
X152801353Y-99821819D01*
X152523918Y-99783714D01*
X152232746Y-99744386D01*
X151933076Y-99704547D01*
X151630149Y-99664907D01*
X151329204Y-99626180D01*
X151035483Y-99589077D01*
X150754225Y-99554311D01*
X150490670Y-99522592D01*
X150423200Y-99514641D01*
X150184790Y-99487236D01*
X149914526Y-99457130D01*
X149619492Y-99425044D01*
X149306775Y-99391699D01*
X148983460Y-99357817D01*
X148656634Y-99324117D01*
X148333381Y-99291322D01*
X148020789Y-99260152D01*
X147725943Y-99231329D01*
X147455928Y-99205574D01*
X147217830Y-99183608D01*
X147018735Y-99166152D01*
X146918000Y-99157911D01*
X146781973Y-99146737D01*
X146660292Y-99135852D01*
X146563787Y-99126290D01*
X146503288Y-99119084D01*
X146492550Y-99117295D01*
X146435400Y-99105632D01*
X146435400Y-86820705D01*
X145775000Y-86820705D01*
X145775000Y-99055800D01*
X145571800Y-99055800D01*
X145571800Y-86740886D01*
X145673400Y-86780796D01*
X145775000Y-86820705D01*
X146435400Y-86820705D01*
X146435400Y-86386715D01*
X146004096Y-86212507D01*
X145572791Y-86038300D01*
X145572296Y-84663223D01*
X145571800Y-83288146D01*
X146003600Y-83006680D01*
X146435400Y-82725213D01*
X146435400Y-82355300D01*
X145800187Y-82355300D01*
X145692344Y-82424747D01*
X145629664Y-82464447D01*
X145587697Y-82489776D01*
X145578150Y-82494597D01*
X145577372Y-82469744D01*
X145576621Y-82397071D01*
X145575902Y-82279560D01*
X145575223Y-82120190D01*
X145574588Y-81921942D01*
X145574004Y-81687797D01*
X145573476Y-81420735D01*
X145573009Y-81123737D01*
X145572610Y-80799783D01*
X145572284Y-80451854D01*
X145572038Y-80082930D01*
X145571875Y-79695992D01*
X145571804Y-79294021D01*
X145571800Y-79189711D01*
X145571800Y-75884422D01*
X145679750Y-75973549D01*
X145787700Y-76062675D01*
X145793944Y-79208987D01*
X145800187Y-82355300D01*
X146435400Y-82355300D01*
X146435400Y-75725821D01*
X145584500Y-75063429D01*
X145577922Y-73766789D01*
X145573034Y-72803213D01*
X144936800Y-72803213D01*
X144936800Y-85905818D01*
X144936795Y-86881118D01*
X144936776Y-87806903D01*
X144936739Y-88684457D01*
X144936680Y-89515065D01*
X144936594Y-90300012D01*
X144936477Y-91040581D01*
X144936324Y-91738058D01*
X144936132Y-92393727D01*
X144935895Y-93008873D01*
X144935610Y-93584780D01*
X144935272Y-94122733D01*
X144934877Y-94624016D01*
X144934420Y-95089915D01*
X144933898Y-95521714D01*
X144933304Y-95920697D01*
X144932637Y-96288149D01*
X144931890Y-96625354D01*
X144931060Y-96933598D01*
X144930141Y-97214164D01*
X144929131Y-97468337D01*
X144928025Y-97697403D01*
X144926817Y-97902645D01*
X144925504Y-98085348D01*
X144924082Y-98246797D01*
X144922545Y-98388276D01*
X144920891Y-98511070D01*
X144919113Y-98616464D01*
X144917209Y-98705742D01*
X144915173Y-98780188D01*
X144913002Y-98841088D01*
X144910690Y-98889725D01*
X144908234Y-98927385D01*
X144905629Y-98955352D01*
X144902870Y-98974911D01*
X144899954Y-98987346D01*
X144896877Y-98993942D01*
X144893633Y-98995983D01*
X144892350Y-98995831D01*
X144856391Y-98991119D01*
X144776493Y-98983962D01*
X144659433Y-98974860D01*
X144511989Y-98964309D01*
X144340935Y-98952809D01*
X144153050Y-98940858D01*
X144103933Y-98937840D01*
X143914092Y-98925807D01*
X143740473Y-98913947D01*
X143589622Y-98902775D01*
X143468084Y-98892804D01*
X143382404Y-98884552D01*
X143339127Y-98878533D01*
X143335560Y-98877356D01*
X143334314Y-98859836D01*
X142676200Y-98859836D01*
X142530150Y-98845040D01*
X142467239Y-98840163D01*
X142361505Y-98833679D01*
X142220884Y-98826001D01*
X142053312Y-98817541D01*
X141866728Y-98808711D01*
X141669066Y-98799924D01*
X141628450Y-98798189D01*
X140872800Y-98766134D01*
X140872800Y-98725600D01*
X140237800Y-98725600D01*
X140002850Y-98725522D01*
X139894451Y-98724465D01*
X139750491Y-98721601D01*
X139655641Y-98719123D01*
X131424000Y-98719123D01*
X130922350Y-98737932D01*
X130742795Y-98744977D01*
X130558363Y-98752770D01*
X130376172Y-98760953D01*
X130203340Y-98769169D01*
X130046986Y-98777062D01*
X129914227Y-98784274D01*
X129812182Y-98790447D01*
X129747968Y-98795225D01*
X129728550Y-98797842D01*
X129728168Y-98772924D01*
X129727792Y-98698656D01*
X129727422Y-98576490D01*
X129727059Y-98407877D01*
X129726704Y-98194268D01*
X129726358Y-97937112D01*
X129726020Y-97637862D01*
X129725692Y-97297968D01*
X129725375Y-96918881D01*
X129725069Y-96502051D01*
X129724775Y-96048931D01*
X129724493Y-95560969D01*
X129724224Y-95039618D01*
X129723968Y-94486329D01*
X129723728Y-93902551D01*
X129723502Y-93289736D01*
X129723292Y-92649336D01*
X129723098Y-91982800D01*
X129722921Y-91291579D01*
X129722763Y-90577125D01*
X129722622Y-89840888D01*
X129722500Y-89084320D01*
X129722399Y-88308870D01*
X129722317Y-87515990D01*
X129722256Y-86707131D01*
X129722218Y-85883744D01*
X129722203Y-85134094D01*
X129087200Y-85134094D01*
X129087200Y-98822188D01*
X128788750Y-98840222D01*
X128656599Y-98848509D01*
X128491027Y-98859344D01*
X128309279Y-98871575D01*
X128128599Y-98884048D01*
X128045800Y-98889891D01*
X127892141Y-98900596D01*
X127748312Y-98910194D01*
X127625249Y-98917988D01*
X127533889Y-98923277D01*
X127493350Y-98925162D01*
X127385400Y-98928800D01*
X127385400Y-92836949D01*
X126725000Y-92836949D01*
X126725000Y-98976381D01*
X126642450Y-98986625D01*
X126579841Y-98994873D01*
X126541635Y-99000772D01*
X126540850Y-99000935D01*
X126539125Y-98976272D01*
X126537441Y-98903001D01*
X126535806Y-98783312D01*
X126534227Y-98619397D01*
X126532710Y-98413448D01*
X126531263Y-98167654D01*
X126529892Y-97884209D01*
X126528604Y-97565302D01*
X126527406Y-97213126D01*
X126526305Y-96829871D01*
X126525307Y-96417729D01*
X126524420Y-95978891D01*
X126523650Y-95515548D01*
X126523005Y-95029892D01*
X126522490Y-94524114D01*
X126522113Y-94000405D01*
X126521881Y-93460956D01*
X126521801Y-92907960D01*
X126521800Y-92898784D01*
X126521800Y-86792569D01*
X126601791Y-86764684D01*
X126662894Y-86745470D01*
X126702179Y-86736836D01*
X126703391Y-86736800D01*
X126705347Y-86761834D01*
X126707255Y-86835478D01*
X126709108Y-86955541D01*
X126710898Y-87119831D01*
X126712617Y-87326158D01*
X126714257Y-87572331D01*
X126715811Y-87856159D01*
X126717271Y-88175452D01*
X126718630Y-88528018D01*
X126719879Y-88911667D01*
X126721010Y-89324208D01*
X126722017Y-89763451D01*
X126722891Y-90227204D01*
X126723625Y-90713277D01*
X126724210Y-91219478D01*
X126724640Y-91743618D01*
X126724906Y-92283505D01*
X126725000Y-92836949D01*
X127385400Y-92836949D01*
X127385400Y-79205166D01*
X126725000Y-79205166D01*
X126725000Y-82495720D01*
X126623400Y-82428485D01*
X126521800Y-82361249D01*
X126521800Y-76064242D01*
X126578950Y-76015293D01*
X126636993Y-75969740D01*
X126680550Y-75940478D01*
X126686985Y-75938564D01*
X126692769Y-75942399D01*
X126697936Y-75954528D01*
X126702520Y-75977493D01*
X126706558Y-76013838D01*
X126710083Y-76066107D01*
X126713129Y-76136844D01*
X126715732Y-76228591D01*
X126717926Y-76343893D01*
X126719746Y-76485294D01*
X126721226Y-76655336D01*
X126722402Y-76856563D01*
X126723307Y-77091520D01*
X126723976Y-77362749D01*
X126724444Y-77672794D01*
X126724746Y-78024200D01*
X126724916Y-78419508D01*
X126724989Y-78861264D01*
X126725000Y-79205166D01*
X127385400Y-79205166D01*
X127385400Y-72798193D01*
X128222732Y-72122096D01*
X128400837Y-71978537D01*
X128566637Y-71845378D01*
X128715989Y-71725912D01*
X128844748Y-71623431D01*
X128948771Y-71541229D01*
X129023913Y-71482597D01*
X129066031Y-71450829D01*
X129073632Y-71446000D01*
X129074456Y-71471155D01*
X129075268Y-71545646D01*
X129076065Y-71668008D01*
X129076847Y-71836774D01*
X129077612Y-72050481D01*
X129078359Y-72307664D01*
X129079085Y-72606858D01*
X129079790Y-72946598D01*
X129080473Y-73325418D01*
X129081131Y-73741855D01*
X129081763Y-74194443D01*
X129082369Y-74681718D01*
X129082945Y-75202215D01*
X129083492Y-75754468D01*
X129084007Y-76337013D01*
X129084489Y-76948385D01*
X129084937Y-77587119D01*
X129085348Y-78251750D01*
X129085723Y-78940814D01*
X129086058Y-79652845D01*
X129086354Y-80386380D01*
X129086608Y-81139951D01*
X129086818Y-81912096D01*
X129086984Y-82701349D01*
X129087104Y-83506246D01*
X129087177Y-84325320D01*
X129087200Y-85134094D01*
X129722203Y-85134094D01*
X129722201Y-85047279D01*
X129722200Y-84858803D01*
X129722200Y-70915807D01*
X130046050Y-70652409D01*
X130159973Y-70559888D01*
X130303127Y-70443838D01*
X130465192Y-70312611D01*
X130635851Y-70174561D01*
X130804784Y-70038041D01*
X130896950Y-69963625D01*
X131424000Y-69538238D01*
X131424000Y-98719123D01*
X139655641Y-98719123D01*
X139586167Y-98717308D01*
X139416671Y-98711962D01*
X139329750Y-98708824D01*
X138891600Y-98692204D01*
X138891600Y-98683042D01*
X138258699Y-98683042D01*
X137476600Y-98666265D01*
X137288871Y-98662843D01*
X137059469Y-98659653D01*
X136797518Y-98656768D01*
X136512144Y-98654261D01*
X136212473Y-98652202D01*
X135907630Y-98650666D01*
X135606741Y-98649724D01*
X135353623Y-98649444D01*
X134012746Y-98649400D01*
X134027500Y-98234670D01*
X134318757Y-98137235D01*
X134610013Y-98039800D01*
X137661388Y-98039800D01*
X137952644Y-98137240D01*
X138243900Y-98234681D01*
X138251300Y-98458862D01*
X138258699Y-98683042D01*
X138891600Y-98683042D01*
X138891600Y-96769800D01*
X138256600Y-96769800D01*
X138256600Y-97553838D01*
X137997610Y-97466619D01*
X137738619Y-97379400D01*
X134532782Y-97379400D01*
X134014800Y-97553838D01*
X134014800Y-96769800D01*
X138256600Y-96769800D01*
X138891600Y-96769800D01*
X138891600Y-96676437D01*
X139285326Y-96490387D01*
X139679052Y-96304338D01*
X139678951Y-96107673D01*
X137744403Y-96107673D01*
X137734593Y-96112600D01*
X137702913Y-96116740D01*
X137646339Y-96120158D01*
X137561849Y-96122917D01*
X137446420Y-96125081D01*
X137297030Y-96126713D01*
X137110656Y-96127877D01*
X136884274Y-96128637D01*
X136614863Y-96129056D01*
X136299400Y-96129198D01*
X136097600Y-96129179D01*
X135752224Y-96128982D01*
X135454682Y-96128525D01*
X135202010Y-96127747D01*
X134991244Y-96126590D01*
X134819418Y-96124993D01*
X134683568Y-96122896D01*
X134580729Y-96120240D01*
X134507936Y-96116965D01*
X134462225Y-96113011D01*
X134440631Y-96108318D01*
X134440189Y-96102826D01*
X134457935Y-96096476D01*
X134459300Y-96096120D01*
X134515707Y-96088361D01*
X134617201Y-96081515D01*
X134758079Y-96075585D01*
X134932637Y-96070570D01*
X135135171Y-96066474D01*
X135359977Y-96063298D01*
X135601350Y-96061043D01*
X135853588Y-96059711D01*
X136110986Y-96059304D01*
X136367840Y-96059823D01*
X136618446Y-96061270D01*
X136857100Y-96063646D01*
X137078098Y-96066953D01*
X137275736Y-96071193D01*
X137444311Y-96076367D01*
X137578118Y-96082478D01*
X137671453Y-96089525D01*
X137710500Y-96095205D01*
X137735364Y-96101896D01*
X137744403Y-96107673D01*
X139678951Y-96107673D01*
X139672676Y-83947207D01*
X139666481Y-71939197D01*
X139018600Y-71939197D01*
X139018600Y-95696606D01*
X138447100Y-95579518D01*
X137875600Y-95462431D01*
X137875600Y-83314515D01*
X137875629Y-82531586D01*
X137875713Y-81761501D01*
X137875851Y-81005815D01*
X137876041Y-80266082D01*
X137876282Y-79543859D01*
X137876571Y-78840699D01*
X137876907Y-78158157D01*
X137877288Y-77497789D01*
X137877712Y-76861150D01*
X137878178Y-76249794D01*
X137878684Y-75665277D01*
X137879228Y-75109153D01*
X137879808Y-74582977D01*
X137880423Y-74088305D01*
X137881071Y-73626691D01*
X137881750Y-73199690D01*
X137882458Y-72808857D01*
X137883193Y-72455748D01*
X137883955Y-72141917D01*
X137884740Y-71868919D01*
X137885548Y-71638308D01*
X137886376Y-71451641D01*
X137887223Y-71310472D01*
X137888087Y-71216355D01*
X137888966Y-71170847D01*
X137889330Y-71166600D01*
X137913024Y-71180487D01*
X137972833Y-71219638D01*
X138063184Y-71280286D01*
X138178503Y-71358663D01*
X138313218Y-71451003D01*
X138460830Y-71552898D01*
X139018600Y-71939197D01*
X139666481Y-71939197D01*
X139666300Y-71590077D01*
X139221800Y-71281524D01*
X139055403Y-71166047D01*
X138871128Y-71038215D01*
X138684592Y-70908855D01*
X138580077Y-70836400D01*
X137215200Y-70836400D01*
X137215200Y-95398200D01*
X134954600Y-95398200D01*
X134954905Y-95277550D01*
X134955062Y-95244386D01*
X134955486Y-95162038D01*
X134956169Y-95032121D01*
X134957102Y-94856247D01*
X134958276Y-94636033D01*
X134959683Y-94373093D01*
X134961313Y-94069041D01*
X134963158Y-93725493D01*
X134965210Y-93344062D01*
X134967459Y-92926363D01*
X134969898Y-92474012D01*
X134972516Y-91988622D01*
X134975306Y-91471808D01*
X134978259Y-90925185D01*
X134981366Y-90350367D01*
X134984618Y-89748970D01*
X134988007Y-89122607D01*
X134991524Y-88472894D01*
X134995160Y-87801444D01*
X134998906Y-87109873D01*
X135002754Y-86399795D01*
X135006696Y-85672825D01*
X135010721Y-84930577D01*
X135014822Y-84174667D01*
X135018080Y-83574500D01*
X135022252Y-82804657D01*
X135026355Y-82045366D01*
X135030380Y-81298329D01*
X135034318Y-80565244D01*
X135038161Y-79847811D01*
X135041898Y-79147732D01*
X135045522Y-78466705D01*
X135049024Y-77806432D01*
X135052394Y-77168611D01*
X135055624Y-76554944D01*
X135058706Y-75967129D01*
X135061629Y-75406868D01*
X135064387Y-74875860D01*
X135066969Y-74375806D01*
X135069366Y-73908405D01*
X135071571Y-73475358D01*
X135073573Y-73078364D01*
X135075365Y-72719124D01*
X135076938Y-72399337D01*
X135078282Y-72120705D01*
X135079389Y-71884926D01*
X135080250Y-71693701D01*
X135080855Y-71548731D01*
X135081198Y-71451714D01*
X135081275Y-71414250D01*
X135081423Y-71150936D01*
X134435988Y-71150936D01*
X134428279Y-72143018D01*
X134427609Y-72238514D01*
X134426701Y-72382908D01*
X134425563Y-72574297D01*
X134424207Y-72810778D01*
X134422642Y-73090449D01*
X134420877Y-73411409D01*
X134418923Y-73771755D01*
X134416790Y-74169584D01*
X134414487Y-74602994D01*
X134412025Y-75070084D01*
X134409413Y-75568951D01*
X134406661Y-76097692D01*
X134403779Y-76654406D01*
X134400777Y-77237190D01*
X134397665Y-77844141D01*
X134394453Y-78473359D01*
X134391150Y-79122940D01*
X134387767Y-79790981D01*
X134384313Y-80475582D01*
X134380799Y-81174840D01*
X134377234Y-81886852D01*
X134373628Y-82609716D01*
X134369991Y-83341529D01*
X134369088Y-83523700D01*
X134365459Y-84255171D01*
X134361870Y-84977162D01*
X134358330Y-85687821D01*
X134354849Y-86385294D01*
X134351436Y-87067729D01*
X134348100Y-87733273D01*
X134344851Y-88380074D01*
X134341698Y-89006279D01*
X134338651Y-89610036D01*
X134335720Y-90189490D01*
X134332913Y-90742791D01*
X134330239Y-91268085D01*
X134327710Y-91763519D01*
X134325333Y-92227242D01*
X134323119Y-92657399D01*
X134321076Y-93052139D01*
X134319214Y-93409609D01*
X134317544Y-93727956D01*
X134316073Y-94005327D01*
X134314811Y-94239871D01*
X134313769Y-94429733D01*
X134312955Y-94573062D01*
X134312379Y-94668005D01*
X134312253Y-94686914D01*
X134306900Y-95461528D01*
X133798900Y-95576008D01*
X133290900Y-95690489D01*
X133284523Y-83829528D01*
X133284032Y-82871707D01*
X133283617Y-81963519D01*
X133283280Y-81103796D01*
X133283023Y-80291370D01*
X133282851Y-79525075D01*
X133282764Y-78803743D01*
X133282765Y-78126207D01*
X133282858Y-77491299D01*
X133283043Y-76897852D01*
X133283325Y-76344699D01*
X133283705Y-75830671D01*
X133284186Y-75354603D01*
X133284770Y-74915326D01*
X133285460Y-74511673D01*
X133286258Y-74142476D01*
X133287167Y-73806569D01*
X133288190Y-73502784D01*
X133289328Y-73229953D01*
X133290584Y-72986910D01*
X133291962Y-72772486D01*
X133293462Y-72585514D01*
X133295089Y-72424828D01*
X133296843Y-72289259D01*
X133298729Y-72177641D01*
X133300748Y-72088805D01*
X133302902Y-72021585D01*
X133305195Y-71974813D01*
X133307628Y-71947322D01*
X133309923Y-71938116D01*
X133338746Y-71915902D01*
X133403509Y-71869067D01*
X133498300Y-71801786D01*
X133617210Y-71718232D01*
X133754326Y-71622580D01*
X133888844Y-71529300D01*
X134435988Y-71150936D01*
X135081423Y-71150936D01*
X135081600Y-70836400D01*
X137215200Y-70836400D01*
X138580077Y-70836400D01*
X138511408Y-70788796D01*
X138390700Y-70705151D01*
X138009848Y-70441313D01*
X134288407Y-70441313D01*
X134269762Y-70456690D01*
X134213650Y-70497706D01*
X134124488Y-70561254D01*
X134006693Y-70644226D01*
X133864682Y-70743515D01*
X133702873Y-70856014D01*
X133525682Y-70978616D01*
X133470228Y-71016872D01*
X132645143Y-71585700D01*
X132650522Y-83951433D01*
X132655900Y-96317167D01*
X133379800Y-96651817D01*
X133379800Y-98673627D01*
X132928950Y-98681188D01*
X132765258Y-98684076D01*
X132603017Y-98687192D01*
X132455739Y-98690258D01*
X132336935Y-98692997D01*
X132281250Y-98694474D01*
X132084400Y-98700200D01*
X132084400Y-84044400D01*
X132084435Y-83183840D01*
X132084539Y-82335984D01*
X132084708Y-81502249D01*
X132084942Y-80684050D01*
X132085239Y-79882802D01*
X132085596Y-79099922D01*
X132086012Y-78336824D01*
X132086484Y-77594926D01*
X132087011Y-76875641D01*
X132087591Y-76180387D01*
X132088221Y-75510578D01*
X132088900Y-74867630D01*
X132089626Y-74252960D01*
X132090397Y-73667982D01*
X132091211Y-73114113D01*
X132092065Y-72592768D01*
X132092959Y-72105362D01*
X132093890Y-71653312D01*
X132094855Y-71238033D01*
X132095854Y-70860940D01*
X132096884Y-70523451D01*
X132097943Y-70226979D01*
X132099029Y-69972941D01*
X132100141Y-69762752D01*
X132101276Y-69597829D01*
X132102432Y-69479587D01*
X132103608Y-69409441D01*
X132104692Y-69388600D01*
X132129835Y-69399265D01*
X132195202Y-69429508D01*
X132295330Y-69476692D01*
X132424755Y-69538185D01*
X132578015Y-69611353D01*
X132749645Y-69693562D01*
X132934183Y-69782179D01*
X133126166Y-69874569D01*
X133320129Y-69968099D01*
X133510609Y-70060135D01*
X133692144Y-70148043D01*
X133859269Y-70229191D01*
X134006522Y-70300943D01*
X134128438Y-70360666D01*
X134219556Y-70405727D01*
X134274411Y-70433491D01*
X134288407Y-70441313D01*
X138009848Y-70441313D01*
X138004099Y-70437331D01*
X138682800Y-70111653D01*
X138883463Y-70015365D01*
X139095072Y-69913827D01*
X139305938Y-69812646D01*
X139504370Y-69717434D01*
X139678677Y-69633799D01*
X139799650Y-69575756D01*
X140237800Y-69365537D01*
X140237800Y-98725600D01*
X140872800Y-98725600D01*
X140872800Y-84152305D01*
X140872815Y-83103849D01*
X140872859Y-82105056D01*
X140872936Y-81154788D01*
X140873048Y-80251908D01*
X140873199Y-79395278D01*
X140873390Y-78583761D01*
X140873625Y-77816220D01*
X140873906Y-77091517D01*
X140874236Y-76408515D01*
X140874617Y-75766076D01*
X140875053Y-75163063D01*
X140875546Y-74598339D01*
X140876099Y-74070766D01*
X140876714Y-73579206D01*
X140877395Y-73122524D01*
X140878143Y-72699580D01*
X140878961Y-72309237D01*
X140879853Y-71950359D01*
X140880821Y-71621808D01*
X140881867Y-71322446D01*
X140882995Y-71051136D01*
X140884207Y-70806741D01*
X140885505Y-70588122D01*
X140886893Y-70394144D01*
X140888373Y-70223668D01*
X140889947Y-70075557D01*
X140891619Y-69948674D01*
X140893392Y-69841880D01*
X140895267Y-69754040D01*
X140897248Y-69684015D01*
X140899337Y-69630668D01*
X140901537Y-69592861D01*
X140903851Y-69569458D01*
X140906281Y-69559320D01*
X140907421Y-69558787D01*
X140933931Y-69578569D01*
X140995743Y-69626923D01*
X141088645Y-69700493D01*
X141208430Y-69795919D01*
X141350887Y-69909845D01*
X141511809Y-70038912D01*
X141686984Y-70179762D01*
X141808430Y-70277600D01*
X142674818Y-70976100D01*
X142676200Y-98859836D01*
X143334314Y-98859836D01*
X143333674Y-98850845D01*
X143331881Y-98774034D01*
X143330183Y-98647422D01*
X143328580Y-98471508D01*
X143327072Y-98246793D01*
X143325660Y-97973776D01*
X143324345Y-97652957D01*
X143323127Y-97284835D01*
X143322008Y-96869909D01*
X143320987Y-96408680D01*
X143320066Y-95901647D01*
X143319245Y-95349309D01*
X143318525Y-94752167D01*
X143317906Y-94110719D01*
X143317390Y-93425465D01*
X143316976Y-92696905D01*
X143316665Y-91925539D01*
X143316458Y-91111865D01*
X143316357Y-90256384D01*
X143316360Y-89359595D01*
X143316470Y-88421998D01*
X143316686Y-87444092D01*
X143317010Y-86426377D01*
X143317441Y-85369353D01*
X143317527Y-85182274D01*
X143323900Y-71502276D01*
X144130350Y-72152745D01*
X144936800Y-72803213D01*
X145573034Y-72803213D01*
X145571344Y-72470150D01*
X143103397Y-70478525D01*
X142794026Y-70228987D01*
X142495404Y-69988360D01*
X142209934Y-69758568D01*
X141940018Y-69541534D01*
X141688058Y-69339181D01*
X141456456Y-69153434D01*
X141247614Y-68986215D01*
X141063934Y-68839448D01*
X140907819Y-68715057D01*
X140781671Y-68614965D01*
X140687892Y-68541095D01*
X140628885Y-68495371D01*
X140607139Y-68479730D01*
X140580313Y-68489350D01*
D11*
G36*
X154873000Y-129052606D02*
X154873000Y-151447394D01*
X153447394Y-152873000D01*
X118552606Y-152873000D01*
X117127000Y-151447394D01*
X117127000Y-129052606D01*
X118552606Y-127627000D01*
X153447394Y-127627000D01*
X154873000Y-129052606D01*
X154873000Y-129052606D01*
G37*
X154873000Y-129052606D02*
X154873000Y-151447394D01*
X153447394Y-152873000D01*
X118552606Y-152873000D01*
X117127000Y-151447394D01*
X117127000Y-129052606D01*
X118552606Y-127627000D01*
X153447394Y-127627000D01*
X154873000Y-129052606D01*
M02*
