G04 #@! TF.GenerationSoftware,KiCad,Pcbnew,(2017-07-14 revision d3b382c28)-master*
G04 #@! TF.CreationDate,2017-08-01T03:09:18-04:00*
G04 #@! TF.ProjectId,MAGLabs-2017-Swadges,4D41474C6162732D323031372D537761,rev?*
G04 #@! TF.SameCoordinates,Original
G04 #@! TF.FileFunction,Soldermask,Bot*
G04 #@! TF.FilePolarity,Negative*
%FSLAX46Y46*%
G04 Gerber Fmt 4.6, Leading zero omitted, Abs format (unit mm)*
G04 Created by KiCad (PCBNEW (2017-07-14 revision d3b382c28)-master) date Tue Aug  1 03:09:18 2017*
%MOMM*%
%LPD*%
G01*
G04 APERTURE LIST*
%ADD10C,0.010000*%
%ADD11C,1.700000*%
%ADD12O,1.900000X1.900000*%
%ADD13R,1.900000X1.900000*%
%ADD14C,3.200000*%
G04 APERTURE END LIST*
D10*
G36*
X127910258Y-116422568D02*
X127419349Y-116428250D01*
X126794725Y-117956787D01*
X126696216Y-118197551D01*
X126602309Y-118426477D01*
X126514231Y-118640610D01*
X126433209Y-118836998D01*
X126360470Y-119012685D01*
X126297238Y-119164717D01*
X126244742Y-119290142D01*
X126204206Y-119386003D01*
X126176859Y-119449349D01*
X126163925Y-119477223D01*
X126163069Y-119478291D01*
X126163109Y-119455518D01*
X126170341Y-119403510D01*
X126180660Y-119346754D01*
X126186654Y-119295405D01*
X126192132Y-119204373D01*
X126197100Y-119073277D01*
X126201569Y-118901736D01*
X126205545Y-118689369D01*
X126209037Y-118435796D01*
X126212055Y-118140636D01*
X126214498Y-117819958D01*
X126223712Y-116417667D01*
X125205000Y-116417667D01*
X125205000Y-121603500D01*
X125686541Y-121603069D01*
X126168083Y-121602638D01*
X126792382Y-120055954D01*
X126890504Y-119813120D01*
X126984168Y-119581825D01*
X127072156Y-119365048D01*
X127153249Y-119165769D01*
X127226226Y-118986968D01*
X127289869Y-118831626D01*
X127342959Y-118702722D01*
X127384277Y-118603237D01*
X127412603Y-118536151D01*
X127426718Y-118504443D01*
X127428011Y-118502267D01*
X127430376Y-118519271D01*
X127428760Y-118570755D01*
X127423582Y-118649097D01*
X127415260Y-118746674D01*
X127413670Y-118763507D01*
X127407180Y-118856600D01*
X127401532Y-118990760D01*
X127396750Y-119164731D01*
X127392854Y-119377255D01*
X127389867Y-119627074D01*
X127387810Y-119912930D01*
X127386705Y-120233567D01*
X127386582Y-120317625D01*
X127385166Y-121603500D01*
X128401166Y-121603500D01*
X128401166Y-116416886D01*
X127910258Y-116422568D01*
X127910258Y-116422568D01*
G37*
X127910258Y-116422568D02*
X127419349Y-116428250D01*
X126794725Y-117956787D01*
X126696216Y-118197551D01*
X126602309Y-118426477D01*
X126514231Y-118640610D01*
X126433209Y-118836998D01*
X126360470Y-119012685D01*
X126297238Y-119164717D01*
X126244742Y-119290142D01*
X126204206Y-119386003D01*
X126176859Y-119449349D01*
X126163925Y-119477223D01*
X126163069Y-119478291D01*
X126163109Y-119455518D01*
X126170341Y-119403510D01*
X126180660Y-119346754D01*
X126186654Y-119295405D01*
X126192132Y-119204373D01*
X126197100Y-119073277D01*
X126201569Y-118901736D01*
X126205545Y-118689369D01*
X126209037Y-118435796D01*
X126212055Y-118140636D01*
X126214498Y-117819958D01*
X126223712Y-116417667D01*
X125205000Y-116417667D01*
X125205000Y-121603500D01*
X125686541Y-121603069D01*
X126168083Y-121602638D01*
X126792382Y-120055954D01*
X126890504Y-119813120D01*
X126984168Y-119581825D01*
X127072156Y-119365048D01*
X127153249Y-119165769D01*
X127226226Y-118986968D01*
X127289869Y-118831626D01*
X127342959Y-118702722D01*
X127384277Y-118603237D01*
X127412603Y-118536151D01*
X127426718Y-118504443D01*
X127428011Y-118502267D01*
X127430376Y-118519271D01*
X127428760Y-118570755D01*
X127423582Y-118649097D01*
X127415260Y-118746674D01*
X127413670Y-118763507D01*
X127407180Y-118856600D01*
X127401532Y-118990760D01*
X127396750Y-119164731D01*
X127392854Y-119377255D01*
X127389867Y-119627074D01*
X127387810Y-119912930D01*
X127386705Y-120233567D01*
X127386582Y-120317625D01*
X127385166Y-121603500D01*
X128401166Y-121603500D01*
X128401166Y-116416886D01*
X127910258Y-116422568D01*
G36*
X129586500Y-117370167D02*
X130623666Y-117370167D01*
X130623666Y-118513167D01*
X129713500Y-118513167D01*
X129713500Y-119465667D01*
X130623666Y-119465667D01*
X130623666Y-120629833D01*
X129586500Y-120629833D01*
X129586500Y-121603500D01*
X131639666Y-121603500D01*
X131639666Y-116417667D01*
X129586500Y-116417667D01*
X129586500Y-117370167D01*
X129586500Y-117370167D01*
G37*
X129586500Y-117370167D02*
X130623666Y-117370167D01*
X130623666Y-118513167D01*
X129713500Y-118513167D01*
X129713500Y-119465667D01*
X130623666Y-119465667D01*
X130623666Y-120629833D01*
X129586500Y-120629833D01*
X129586500Y-121603500D01*
X131639666Y-121603500D01*
X131639666Y-116417667D01*
X129586500Y-116417667D01*
X129586500Y-117370167D01*
G36*
X132879888Y-116941541D02*
X132923920Y-117046323D01*
X132982530Y-117185787D01*
X133053892Y-117355591D01*
X133136180Y-117551391D01*
X133227568Y-117768843D01*
X133326232Y-118003604D01*
X133430345Y-118251330D01*
X133538083Y-118507678D01*
X133647619Y-118768304D01*
X133757129Y-119028865D01*
X133762790Y-119042333D01*
X134425549Y-120619250D01*
X132803833Y-120630330D01*
X132803833Y-121603500D01*
X134359583Y-121603500D01*
X134695241Y-121603232D01*
X134989056Y-121602423D01*
X135241515Y-121601066D01*
X135453105Y-121599154D01*
X135624313Y-121596681D01*
X135755626Y-121593640D01*
X135847531Y-121590023D01*
X135900516Y-121585825D01*
X135915333Y-121581636D01*
X135907483Y-121559458D01*
X135884629Y-121500693D01*
X135847817Y-121407926D01*
X135798093Y-121283745D01*
X135736504Y-121130734D01*
X135664095Y-120951479D01*
X135581912Y-120748568D01*
X135491002Y-120524584D01*
X135392409Y-120282116D01*
X135287180Y-120023747D01*
X135176361Y-119752065D01*
X135068666Y-119488413D01*
X134953561Y-119206591D01*
X134843069Y-118935640D01*
X134738236Y-118678149D01*
X134640108Y-118436705D01*
X134549733Y-118213897D01*
X134468155Y-118012313D01*
X134396422Y-117834543D01*
X134335579Y-117683174D01*
X134286673Y-117560795D01*
X134250749Y-117469994D01*
X134228855Y-117413360D01*
X134222000Y-117393610D01*
X134236671Y-117386768D01*
X134282048Y-117381200D01*
X134360176Y-117376842D01*
X134473102Y-117373629D01*
X134622870Y-117371496D01*
X134811528Y-117370379D01*
X134962833Y-117370167D01*
X135703666Y-117370167D01*
X135703666Y-116417667D01*
X134181705Y-116417666D01*
X132659744Y-116417666D01*
X132879888Y-116941541D01*
X132879888Y-116941541D01*
G37*
X132879888Y-116941541D02*
X132923920Y-117046323D01*
X132982530Y-117185787D01*
X133053892Y-117355591D01*
X133136180Y-117551391D01*
X133227568Y-117768843D01*
X133326232Y-118003604D01*
X133430345Y-118251330D01*
X133538083Y-118507678D01*
X133647619Y-118768304D01*
X133757129Y-119028865D01*
X133762790Y-119042333D01*
X134425549Y-120619250D01*
X132803833Y-120630330D01*
X132803833Y-121603500D01*
X134359583Y-121603500D01*
X134695241Y-121603232D01*
X134989056Y-121602423D01*
X135241515Y-121601066D01*
X135453105Y-121599154D01*
X135624313Y-121596681D01*
X135755626Y-121593640D01*
X135847531Y-121590023D01*
X135900516Y-121585825D01*
X135915333Y-121581636D01*
X135907483Y-121559458D01*
X135884629Y-121500693D01*
X135847817Y-121407926D01*
X135798093Y-121283745D01*
X135736504Y-121130734D01*
X135664095Y-120951479D01*
X135581912Y-120748568D01*
X135491002Y-120524584D01*
X135392409Y-120282116D01*
X135287180Y-120023747D01*
X135176361Y-119752065D01*
X135068666Y-119488413D01*
X134953561Y-119206591D01*
X134843069Y-118935640D01*
X134738236Y-118678149D01*
X134640108Y-118436705D01*
X134549733Y-118213897D01*
X134468155Y-118012313D01*
X134396422Y-117834543D01*
X134335579Y-117683174D01*
X134286673Y-117560795D01*
X134250749Y-117469994D01*
X134228855Y-117413360D01*
X134222000Y-117393610D01*
X134236671Y-117386768D01*
X134282048Y-117381200D01*
X134360176Y-117376842D01*
X134473102Y-117373629D01*
X134622870Y-117371496D01*
X134811528Y-117370379D01*
X134962833Y-117370167D01*
X135703666Y-117370167D01*
X135703666Y-116417667D01*
X134181705Y-116417666D01*
X132659744Y-116417666D01*
X132879888Y-116941541D01*
G36*
X136952500Y-121603500D02*
X137989666Y-121603500D01*
X137989666Y-116417667D01*
X136952500Y-116417667D01*
X136952500Y-121603500D01*
X136952500Y-121603500D01*
G37*
X136952500Y-121603500D02*
X137989666Y-121603500D01*
X137989666Y-116417667D01*
X136952500Y-116417667D01*
X136952500Y-121603500D01*
G36*
X139005666Y-117369232D02*
X139799416Y-117380750D01*
X139810204Y-121603500D01*
X140825795Y-121603500D01*
X140836583Y-117380750D01*
X141630333Y-117369232D01*
X141630333Y-116417667D01*
X139005666Y-116417667D01*
X139005666Y-117369232D01*
X139005666Y-117369232D01*
G37*
X139005666Y-117369232D02*
X139799416Y-117380750D01*
X139810204Y-121603500D01*
X140825795Y-121603500D01*
X140836583Y-117380750D01*
X141630333Y-117369232D01*
X141630333Y-116417667D01*
X139005666Y-116417667D01*
X139005666Y-117369232D01*
G36*
X142646333Y-121603500D02*
X143683500Y-121603500D01*
X143683500Y-116417667D01*
X142646333Y-116417667D01*
X142646333Y-121603500D01*
X142646333Y-121603500D01*
G37*
X142646333Y-121603500D02*
X143683500Y-121603500D01*
X143683500Y-116417667D01*
X142646333Y-116417667D01*
X142646333Y-121603500D01*
G36*
X145136080Y-116363884D02*
X144883926Y-116406679D01*
X144831791Y-116420028D01*
X144741833Y-116444335D01*
X144741833Y-116917834D01*
X144742509Y-117054261D01*
X144744403Y-117175256D01*
X144747315Y-117274835D01*
X144751043Y-117347016D01*
X144755387Y-117385815D01*
X144757708Y-117390828D01*
X144786689Y-117385801D01*
X144839575Y-117373877D01*
X144858250Y-117369327D01*
X144950295Y-117355117D01*
X145068533Y-117348912D01*
X145197644Y-117350420D01*
X145322309Y-117359347D01*
X145427208Y-117375399D01*
X145449192Y-117380660D01*
X145645426Y-117454092D01*
X145826255Y-117564833D01*
X145988180Y-117709566D01*
X146127704Y-117884973D01*
X146241328Y-118087740D01*
X146273230Y-118161803D01*
X146301901Y-118244258D01*
X146332961Y-118350883D01*
X146361485Y-118464152D01*
X146373064Y-118516873D01*
X146392465Y-118619227D01*
X146404606Y-118709744D01*
X146410411Y-118802317D01*
X146410808Y-118910837D01*
X146407373Y-119031750D01*
X146381603Y-119326628D01*
X146326154Y-119594518D01*
X146239717Y-119839852D01*
X146120987Y-120067060D01*
X146085879Y-120121890D01*
X145949463Y-120294954D01*
X145792784Y-120437331D01*
X145620338Y-120546913D01*
X145436618Y-120621593D01*
X145246120Y-120659262D01*
X145053338Y-120657813D01*
X144971033Y-120644674D01*
X144890042Y-120626960D01*
X144821931Y-120610397D01*
X144780420Y-120598339D01*
X144778479Y-120597598D01*
X144766614Y-120595081D01*
X144757657Y-120601481D01*
X144751287Y-120621654D01*
X144747182Y-120660458D01*
X144745020Y-120722751D01*
X144744481Y-120813391D01*
X144745242Y-120937235D01*
X144746729Y-121077208D01*
X144752416Y-121571750D01*
X144890000Y-121607347D01*
X145008028Y-121628353D01*
X145153705Y-121639727D01*
X145313431Y-121641371D01*
X145473608Y-121633187D01*
X145620639Y-121615076D01*
X145634026Y-121612727D01*
X145910847Y-121541494D01*
X146178024Y-121430859D01*
X146429557Y-121283596D01*
X146567563Y-121181162D01*
X146778977Y-120983947D01*
X146965740Y-120755878D01*
X147126782Y-120501262D01*
X147261030Y-120224406D01*
X147367412Y-119929616D01*
X147444857Y-119621199D01*
X147492293Y-119303460D01*
X147508647Y-118980707D01*
X147492849Y-118657245D01*
X147443825Y-118337381D01*
X147360505Y-118025422D01*
X147356236Y-118012547D01*
X147234554Y-117704056D01*
X147085553Y-117422560D01*
X146911035Y-117169998D01*
X146712801Y-116948313D01*
X146492654Y-116759444D01*
X146252392Y-116605332D01*
X145993819Y-116487919D01*
X145916583Y-116461305D01*
X145646287Y-116390964D01*
X145388160Y-116358567D01*
X145136080Y-116363884D01*
X145136080Y-116363884D01*
G37*
X145136080Y-116363884D02*
X144883926Y-116406679D01*
X144831791Y-116420028D01*
X144741833Y-116444335D01*
X144741833Y-116917834D01*
X144742509Y-117054261D01*
X144744403Y-117175256D01*
X144747315Y-117274835D01*
X144751043Y-117347016D01*
X144755387Y-117385815D01*
X144757708Y-117390828D01*
X144786689Y-117385801D01*
X144839575Y-117373877D01*
X144858250Y-117369327D01*
X144950295Y-117355117D01*
X145068533Y-117348912D01*
X145197644Y-117350420D01*
X145322309Y-117359347D01*
X145427208Y-117375399D01*
X145449192Y-117380660D01*
X145645426Y-117454092D01*
X145826255Y-117564833D01*
X145988180Y-117709566D01*
X146127704Y-117884973D01*
X146241328Y-118087740D01*
X146273230Y-118161803D01*
X146301901Y-118244258D01*
X146332961Y-118350883D01*
X146361485Y-118464152D01*
X146373064Y-118516873D01*
X146392465Y-118619227D01*
X146404606Y-118709744D01*
X146410411Y-118802317D01*
X146410808Y-118910837D01*
X146407373Y-119031750D01*
X146381603Y-119326628D01*
X146326154Y-119594518D01*
X146239717Y-119839852D01*
X146120987Y-120067060D01*
X146085879Y-120121890D01*
X145949463Y-120294954D01*
X145792784Y-120437331D01*
X145620338Y-120546913D01*
X145436618Y-120621593D01*
X145246120Y-120659262D01*
X145053338Y-120657813D01*
X144971033Y-120644674D01*
X144890042Y-120626960D01*
X144821931Y-120610397D01*
X144780420Y-120598339D01*
X144778479Y-120597598D01*
X144766614Y-120595081D01*
X144757657Y-120601481D01*
X144751287Y-120621654D01*
X144747182Y-120660458D01*
X144745020Y-120722751D01*
X144744481Y-120813391D01*
X144745242Y-120937235D01*
X144746729Y-121077208D01*
X144752416Y-121571750D01*
X144890000Y-121607347D01*
X145008028Y-121628353D01*
X145153705Y-121639727D01*
X145313431Y-121641371D01*
X145473608Y-121633187D01*
X145620639Y-121615076D01*
X145634026Y-121612727D01*
X145910847Y-121541494D01*
X146178024Y-121430859D01*
X146429557Y-121283596D01*
X146567563Y-121181162D01*
X146778977Y-120983947D01*
X146965740Y-120755878D01*
X147126782Y-120501262D01*
X147261030Y-120224406D01*
X147367412Y-119929616D01*
X147444857Y-119621199D01*
X147492293Y-119303460D01*
X147508647Y-118980707D01*
X147492849Y-118657245D01*
X147443825Y-118337381D01*
X147360505Y-118025422D01*
X147356236Y-118012547D01*
X147234554Y-117704056D01*
X147085553Y-117422560D01*
X146911035Y-117169998D01*
X146712801Y-116948313D01*
X146492654Y-116759444D01*
X146252392Y-116605332D01*
X145993819Y-116487919D01*
X145916583Y-116461305D01*
X145646287Y-116390964D01*
X145388160Y-116358567D01*
X145136080Y-116363884D01*
D11*
X125500000Y-50750000D03*
X125500000Y-52250000D03*
X143750000Y-53750000D03*
X143750000Y-49250000D03*
X128250000Y-49750000D03*
X128250000Y-51500000D03*
X128250000Y-53250000D03*
D12*
X104000000Y-90700000D03*
X104000000Y-88160000D03*
X104000000Y-85620000D03*
X104000000Y-83080000D03*
X104000000Y-80540000D03*
D13*
X104000000Y-78000000D03*
D12*
X168000000Y-88160000D03*
X168000000Y-85620000D03*
X168000000Y-83080000D03*
X168000000Y-80540000D03*
D13*
X168000000Y-78000000D03*
D14*
X157500000Y-50000000D03*
X157500000Y-103000000D03*
X114500000Y-50000000D03*
X114500000Y-103000000D03*
M02*
