G04 #@! TF.GenerationSoftware,KiCad,Pcbnew,(2017-07-14 revision d3b382c28)-master*
G04 #@! TF.CreationDate,2017-08-01T03:30:38-04:00*
G04 #@! TF.ProjectId,MAGLabs-2017-Swadges,4D41474C6162732D323031372D537761,rev?*
G04 #@! TF.SameCoordinates,Original
G04 #@! TF.FileFunction,Soldermask,Bot*
G04 #@! TF.FilePolarity,Negative*
%FSLAX46Y46*%
G04 Gerber Fmt 4.6, Leading zero omitted, Abs format (unit mm)*
G04 Created by KiCad (PCBNEW (2017-07-14 revision d3b382c28)-master) date Tue Aug  1 03:30:38 2017*
%MOMM*%
%LPD*%
G01*
G04 APERTURE LIST*
%ADD10C,0.010000*%
%ADD11C,1.700000*%
%ADD12O,1.900000X1.900000*%
%ADD13R,1.900000X1.900000*%
%ADD14C,3.200000*%
G04 APERTURE END LIST*
D10*
G36*
X119570516Y-114345137D02*
X118588698Y-114356500D01*
X117339451Y-117413575D01*
X117142432Y-117895102D01*
X116954618Y-118352954D01*
X116778463Y-118781221D01*
X116616419Y-119173996D01*
X116470940Y-119525370D01*
X116344477Y-119829435D01*
X116239484Y-120080284D01*
X116158413Y-120272007D01*
X116103718Y-120398698D01*
X116077851Y-120454447D01*
X116076138Y-120456583D01*
X116076218Y-120411037D01*
X116090682Y-120307021D01*
X116111320Y-120193508D01*
X116123309Y-120090811D01*
X116134264Y-119908747D01*
X116144201Y-119646555D01*
X116153138Y-119303472D01*
X116161090Y-118878739D01*
X116168075Y-118371592D01*
X116174110Y-117781272D01*
X116178996Y-117139917D01*
X116197425Y-114335334D01*
X114160000Y-114335334D01*
X114160000Y-124707000D01*
X115123083Y-124706138D01*
X116086167Y-124705276D01*
X117334764Y-121611908D01*
X117531008Y-121126241D01*
X117718337Y-120663650D01*
X117894313Y-120230096D01*
X118056498Y-119831538D01*
X118202452Y-119473936D01*
X118329739Y-119163252D01*
X118435919Y-118905445D01*
X118518554Y-118706475D01*
X118575206Y-118572302D01*
X118603436Y-118508887D01*
X118606023Y-118504535D01*
X118610753Y-118538542D01*
X118607521Y-118641511D01*
X118597164Y-118798195D01*
X118580520Y-118993348D01*
X118577340Y-119027015D01*
X118564360Y-119213200D01*
X118553065Y-119481521D01*
X118543500Y-119829463D01*
X118535708Y-120254510D01*
X118529734Y-120754148D01*
X118525620Y-121325861D01*
X118523411Y-121967135D01*
X118523164Y-122135250D01*
X118520333Y-124707000D01*
X120552333Y-124707000D01*
X120552333Y-114333773D01*
X119570516Y-114345137D01*
X119570516Y-114345137D01*
G37*
X119570516Y-114345137D02*
X118588698Y-114356500D01*
X117339451Y-117413575D01*
X117142432Y-117895102D01*
X116954618Y-118352954D01*
X116778463Y-118781221D01*
X116616419Y-119173996D01*
X116470940Y-119525370D01*
X116344477Y-119829435D01*
X116239484Y-120080284D01*
X116158413Y-120272007D01*
X116103718Y-120398698D01*
X116077851Y-120454447D01*
X116076138Y-120456583D01*
X116076218Y-120411037D01*
X116090682Y-120307021D01*
X116111320Y-120193508D01*
X116123309Y-120090811D01*
X116134264Y-119908747D01*
X116144201Y-119646555D01*
X116153138Y-119303472D01*
X116161090Y-118878739D01*
X116168075Y-118371592D01*
X116174110Y-117781272D01*
X116178996Y-117139917D01*
X116197425Y-114335334D01*
X114160000Y-114335334D01*
X114160000Y-124707000D01*
X115123083Y-124706138D01*
X116086167Y-124705276D01*
X117334764Y-121611908D01*
X117531008Y-121126241D01*
X117718337Y-120663650D01*
X117894313Y-120230096D01*
X118056498Y-119831538D01*
X118202452Y-119473936D01*
X118329739Y-119163252D01*
X118435919Y-118905445D01*
X118518554Y-118706475D01*
X118575206Y-118572302D01*
X118603436Y-118508887D01*
X118606023Y-118504535D01*
X118610753Y-118538542D01*
X118607521Y-118641511D01*
X118597164Y-118798195D01*
X118580520Y-118993348D01*
X118577340Y-119027015D01*
X118564360Y-119213200D01*
X118553065Y-119481521D01*
X118543500Y-119829463D01*
X118535708Y-120254510D01*
X118529734Y-120754148D01*
X118525620Y-121325861D01*
X118523411Y-121967135D01*
X118523164Y-122135250D01*
X118520333Y-124707000D01*
X120552333Y-124707000D01*
X120552333Y-114333773D01*
X119570516Y-114345137D01*
G36*
X122923000Y-116240334D02*
X124997333Y-116240334D01*
X124997333Y-118526334D01*
X123177000Y-118526334D01*
X123177000Y-120431334D01*
X124997333Y-120431334D01*
X124997333Y-122759667D01*
X122923000Y-122759667D01*
X122923000Y-124707000D01*
X127029333Y-124707000D01*
X127029333Y-114335334D01*
X122923000Y-114335334D01*
X122923000Y-116240334D01*
X122923000Y-116240334D01*
G37*
X122923000Y-116240334D02*
X124997333Y-116240334D01*
X124997333Y-118526334D01*
X123177000Y-118526334D01*
X123177000Y-120431334D01*
X124997333Y-120431334D01*
X124997333Y-122759667D01*
X122923000Y-122759667D01*
X122923000Y-124707000D01*
X127029333Y-124707000D01*
X127029333Y-114335334D01*
X122923000Y-114335334D01*
X122923000Y-116240334D01*
G36*
X129509776Y-115383083D02*
X129597841Y-115592646D01*
X129715061Y-115871575D01*
X129857784Y-116211183D01*
X130022360Y-116602782D01*
X130205136Y-117037686D01*
X130402464Y-117507208D01*
X130610690Y-118002660D01*
X130826166Y-118515356D01*
X131045239Y-119036608D01*
X131264259Y-119557730D01*
X131275580Y-119584667D01*
X132601098Y-122738500D01*
X130979382Y-122749581D01*
X129357667Y-122760661D01*
X129357667Y-124707000D01*
X132469167Y-124707000D01*
X133140482Y-124706464D01*
X133728112Y-124704846D01*
X134233030Y-124702132D01*
X134656210Y-124698309D01*
X134998626Y-124693363D01*
X135261252Y-124687280D01*
X135445063Y-124680047D01*
X135551032Y-124671650D01*
X135580667Y-124663273D01*
X135564966Y-124618916D01*
X135519258Y-124501386D01*
X135445634Y-124315853D01*
X135346187Y-124067490D01*
X135223009Y-123761468D01*
X135078191Y-123402959D01*
X134913825Y-122997136D01*
X134732004Y-122549169D01*
X134534818Y-122064232D01*
X134324361Y-121547495D01*
X134102723Y-121004130D01*
X133887333Y-120476827D01*
X133657122Y-119913183D01*
X133436138Y-119371281D01*
X133226472Y-118856298D01*
X133030217Y-118373410D01*
X132849466Y-117927794D01*
X132686311Y-117524627D01*
X132542845Y-117169086D01*
X132421159Y-116866348D01*
X132323347Y-116621590D01*
X132251499Y-116439989D01*
X132207710Y-116326721D01*
X132194000Y-116287221D01*
X132223342Y-116273536D01*
X132314096Y-116262400D01*
X132470352Y-116253684D01*
X132696204Y-116247258D01*
X132995741Y-116242992D01*
X133373056Y-116240758D01*
X133675667Y-116240334D01*
X135157333Y-116240334D01*
X135157333Y-114335334D01*
X132113411Y-114335333D01*
X129069488Y-114335333D01*
X129509776Y-115383083D01*
X129509776Y-115383083D01*
G37*
X129509776Y-115383083D02*
X129597841Y-115592646D01*
X129715061Y-115871575D01*
X129857784Y-116211183D01*
X130022360Y-116602782D01*
X130205136Y-117037686D01*
X130402464Y-117507208D01*
X130610690Y-118002660D01*
X130826166Y-118515356D01*
X131045239Y-119036608D01*
X131264259Y-119557730D01*
X131275580Y-119584667D01*
X132601098Y-122738500D01*
X130979382Y-122749581D01*
X129357667Y-122760661D01*
X129357667Y-124707000D01*
X132469167Y-124707000D01*
X133140482Y-124706464D01*
X133728112Y-124704846D01*
X134233030Y-124702132D01*
X134656210Y-124698309D01*
X134998626Y-124693363D01*
X135261252Y-124687280D01*
X135445063Y-124680047D01*
X135551032Y-124671650D01*
X135580667Y-124663273D01*
X135564966Y-124618916D01*
X135519258Y-124501386D01*
X135445634Y-124315853D01*
X135346187Y-124067490D01*
X135223009Y-123761468D01*
X135078191Y-123402959D01*
X134913825Y-122997136D01*
X134732004Y-122549169D01*
X134534818Y-122064232D01*
X134324361Y-121547495D01*
X134102723Y-121004130D01*
X133887333Y-120476827D01*
X133657122Y-119913183D01*
X133436138Y-119371281D01*
X133226472Y-118856298D01*
X133030217Y-118373410D01*
X132849466Y-117927794D01*
X132686311Y-117524627D01*
X132542845Y-117169086D01*
X132421159Y-116866348D01*
X132323347Y-116621590D01*
X132251499Y-116439989D01*
X132207710Y-116326721D01*
X132194000Y-116287221D01*
X132223342Y-116273536D01*
X132314096Y-116262400D01*
X132470352Y-116253684D01*
X132696204Y-116247258D01*
X132995741Y-116242992D01*
X133373056Y-116240758D01*
X133675667Y-116240334D01*
X135157333Y-116240334D01*
X135157333Y-114335334D01*
X132113411Y-114335333D01*
X129069488Y-114335333D01*
X129509776Y-115383083D01*
G36*
X137655000Y-124707000D02*
X139729333Y-124707000D01*
X139729333Y-114335334D01*
X137655000Y-114335334D01*
X137655000Y-124707000D01*
X137655000Y-124707000D01*
G37*
X137655000Y-124707000D02*
X139729333Y-124707000D01*
X139729333Y-114335334D01*
X137655000Y-114335334D01*
X137655000Y-124707000D01*
G36*
X141761333Y-116238465D02*
X142555083Y-116249983D01*
X143348833Y-116261500D01*
X143370409Y-124707000D01*
X145401591Y-124707000D01*
X145423167Y-116261500D01*
X146216917Y-116249983D01*
X147010667Y-116238465D01*
X147010667Y-114335334D01*
X141761333Y-114335334D01*
X141761333Y-116238465D01*
X141761333Y-116238465D01*
G37*
X141761333Y-116238465D02*
X142555083Y-116249983D01*
X143348833Y-116261500D01*
X143370409Y-124707000D01*
X145401591Y-124707000D01*
X145423167Y-116261500D01*
X146216917Y-116249983D01*
X147010667Y-116238465D01*
X147010667Y-114335334D01*
X141761333Y-114335334D01*
X141761333Y-116238465D01*
G36*
X149042667Y-124707000D02*
X151117000Y-124707000D01*
X151117000Y-114335334D01*
X149042667Y-114335334D01*
X149042667Y-124707000D01*
X149042667Y-124707000D01*
G37*
X149042667Y-124707000D02*
X151117000Y-124707000D01*
X151117000Y-114335334D01*
X149042667Y-114335334D01*
X149042667Y-124707000D01*
G36*
X154022161Y-114227768D02*
X153517853Y-114313359D01*
X153413583Y-114340056D01*
X153233667Y-114388670D01*
X153233667Y-115335669D01*
X153235019Y-115608523D01*
X153238807Y-115850512D01*
X153244630Y-116049670D01*
X153252086Y-116194032D01*
X153260774Y-116271631D01*
X153265417Y-116281657D01*
X153323379Y-116271603D01*
X153429150Y-116247755D01*
X153466500Y-116238655D01*
X153650591Y-116210234D01*
X153887066Y-116197825D01*
X154145288Y-116200841D01*
X154394618Y-116218695D01*
X154604417Y-116250798D01*
X154648385Y-116261320D01*
X155040852Y-116408185D01*
X155402510Y-116629667D01*
X155726361Y-116919132D01*
X156005409Y-117269947D01*
X156232657Y-117675480D01*
X156296461Y-117823606D01*
X156353802Y-117988516D01*
X156415923Y-118201766D01*
X156472971Y-118428304D01*
X156496129Y-118533746D01*
X156534931Y-118738455D01*
X156559212Y-118919489D01*
X156570823Y-119104634D01*
X156571616Y-119321674D01*
X156564747Y-119563500D01*
X156513207Y-120153256D01*
X156402308Y-120689037D01*
X156229434Y-121179705D01*
X155991975Y-121634120D01*
X155921758Y-121743781D01*
X155648926Y-122089909D01*
X155335569Y-122374663D01*
X154990676Y-122593827D01*
X154623236Y-122743187D01*
X154242240Y-122818525D01*
X153856677Y-122815627D01*
X153692066Y-122789349D01*
X153530084Y-122753921D01*
X153393862Y-122720794D01*
X153310840Y-122696678D01*
X153306958Y-122695196D01*
X153283228Y-122690163D01*
X153265314Y-122702963D01*
X153252574Y-122743309D01*
X153244364Y-122820917D01*
X153240041Y-122945503D01*
X153238963Y-123126783D01*
X153240485Y-123374471D01*
X153243458Y-123654417D01*
X153254833Y-124643500D01*
X153530000Y-124714695D01*
X153766057Y-124756707D01*
X154057410Y-124779454D01*
X154376862Y-124782742D01*
X154697217Y-124766374D01*
X154991279Y-124730152D01*
X155018052Y-124725455D01*
X155571694Y-124582989D01*
X156106049Y-124361719D01*
X156609114Y-124067192D01*
X156885127Y-123862325D01*
X157307954Y-123467894D01*
X157681481Y-123011756D01*
X158003564Y-122502525D01*
X158272060Y-121948813D01*
X158484824Y-121359233D01*
X158639714Y-120742398D01*
X158734586Y-120106921D01*
X158767295Y-119461414D01*
X158735698Y-118814491D01*
X158637651Y-118174763D01*
X158471011Y-117550844D01*
X158462473Y-117525094D01*
X158219108Y-116908113D01*
X157921106Y-116345120D01*
X157572070Y-115839997D01*
X157175603Y-115396626D01*
X156735308Y-115018888D01*
X156254785Y-114710665D01*
X155737639Y-114475839D01*
X155583167Y-114422611D01*
X155042575Y-114281928D01*
X154526321Y-114217135D01*
X154022161Y-114227768D01*
X154022161Y-114227768D01*
G37*
X154022161Y-114227768D02*
X153517853Y-114313359D01*
X153413583Y-114340056D01*
X153233667Y-114388670D01*
X153233667Y-115335669D01*
X153235019Y-115608523D01*
X153238807Y-115850512D01*
X153244630Y-116049670D01*
X153252086Y-116194032D01*
X153260774Y-116271631D01*
X153265417Y-116281657D01*
X153323379Y-116271603D01*
X153429150Y-116247755D01*
X153466500Y-116238655D01*
X153650591Y-116210234D01*
X153887066Y-116197825D01*
X154145288Y-116200841D01*
X154394618Y-116218695D01*
X154604417Y-116250798D01*
X154648385Y-116261320D01*
X155040852Y-116408185D01*
X155402510Y-116629667D01*
X155726361Y-116919132D01*
X156005409Y-117269947D01*
X156232657Y-117675480D01*
X156296461Y-117823606D01*
X156353802Y-117988516D01*
X156415923Y-118201766D01*
X156472971Y-118428304D01*
X156496129Y-118533746D01*
X156534931Y-118738455D01*
X156559212Y-118919489D01*
X156570823Y-119104634D01*
X156571616Y-119321674D01*
X156564747Y-119563500D01*
X156513207Y-120153256D01*
X156402308Y-120689037D01*
X156229434Y-121179705D01*
X155991975Y-121634120D01*
X155921758Y-121743781D01*
X155648926Y-122089909D01*
X155335569Y-122374663D01*
X154990676Y-122593827D01*
X154623236Y-122743187D01*
X154242240Y-122818525D01*
X153856677Y-122815627D01*
X153692066Y-122789349D01*
X153530084Y-122753921D01*
X153393862Y-122720794D01*
X153310840Y-122696678D01*
X153306958Y-122695196D01*
X153283228Y-122690163D01*
X153265314Y-122702963D01*
X153252574Y-122743309D01*
X153244364Y-122820917D01*
X153240041Y-122945503D01*
X153238963Y-123126783D01*
X153240485Y-123374471D01*
X153243458Y-123654417D01*
X153254833Y-124643500D01*
X153530000Y-124714695D01*
X153766057Y-124756707D01*
X154057410Y-124779454D01*
X154376862Y-124782742D01*
X154697217Y-124766374D01*
X154991279Y-124730152D01*
X155018052Y-124725455D01*
X155571694Y-124582989D01*
X156106049Y-124361719D01*
X156609114Y-124067192D01*
X156885127Y-123862325D01*
X157307954Y-123467894D01*
X157681481Y-123011756D01*
X158003564Y-122502525D01*
X158272060Y-121948813D01*
X158484824Y-121359233D01*
X158639714Y-120742398D01*
X158734586Y-120106921D01*
X158767295Y-119461414D01*
X158735698Y-118814491D01*
X158637651Y-118174763D01*
X158471011Y-117550844D01*
X158462473Y-117525094D01*
X158219108Y-116908113D01*
X157921106Y-116345120D01*
X157572070Y-115839997D01*
X157175603Y-115396626D01*
X156735308Y-115018888D01*
X156254785Y-114710665D01*
X155737639Y-114475839D01*
X155583167Y-114422611D01*
X155042575Y-114281928D01*
X154526321Y-114217135D01*
X154022161Y-114227768D01*
D11*
X125500000Y-50750000D03*
X125500000Y-52250000D03*
X143750000Y-53750000D03*
X143750000Y-49250000D03*
X128250000Y-49750000D03*
X128250000Y-51500000D03*
X128250000Y-53250000D03*
D12*
X104000000Y-90700000D03*
X104000000Y-88160000D03*
X104000000Y-85620000D03*
X104000000Y-83080000D03*
X104000000Y-80540000D03*
D13*
X104000000Y-78000000D03*
D12*
X168000000Y-88160000D03*
X168000000Y-85620000D03*
X168000000Y-83080000D03*
X168000000Y-80540000D03*
D13*
X168000000Y-78000000D03*
D14*
X157500000Y-50000000D03*
X157500000Y-103000000D03*
X114500000Y-50000000D03*
X114500000Y-103000000D03*
M02*
