G04 #@! TF.GenerationSoftware,KiCad,Pcbnew,(2017-07-14 revision d3b382c28)-master*
G04 #@! TF.CreationDate,2017-08-01T03:30:38-04:00*
G04 #@! TF.ProjectId,MAGLabs-2017-Swadges,4D41474C6162732D323031372D537761,rev?*
G04 #@! TF.SameCoordinates,Original
G04 #@! TF.FileFunction,Paste,Top*
G04 #@! TF.FilePolarity,Positive*
%FSLAX46Y46*%
G04 Gerber Fmt 4.6, Leading zero omitted, Abs format (unit mm)*
G04 Created by KiCad (PCBNEW (2017-07-14 revision d3b382c28)-master) date Tue Aug  1 03:30:38 2017*
%MOMM*%
%LPD*%
G01*
G04 APERTURE LIST*
%ADD10R,0.900000X0.900000*%
%ADD11R,1.200000X2.000000*%
%ADD12R,2.000000X1.200000*%
%ADD13R,1.550000X1.300000*%
%ADD14R,0.900000X0.500000*%
%ADD15R,0.750000X0.800000*%
%ADD16R,0.450000X0.600000*%
G04 APERTURE END LIST*
D10*
X129750000Y-106150000D03*
X125250000Y-106150000D03*
X129750000Y-102850000D03*
X125250000Y-102850000D03*
D11*
X154300000Y-124750000D03*
X152300000Y-124750000D03*
X150300000Y-124750000D03*
X148300000Y-124750000D03*
X146300000Y-124750000D03*
X144300000Y-124750000D03*
X142300000Y-124750000D03*
X140300000Y-124750000D03*
X154300000Y-108750000D03*
X152300000Y-108750000D03*
X150300000Y-108750000D03*
X148300000Y-108750000D03*
X146300000Y-108750000D03*
X144300000Y-108750000D03*
X142300000Y-108750000D03*
X140300000Y-108750000D03*
D12*
X138500000Y-111750000D03*
X138500000Y-113750000D03*
X138500000Y-115750000D03*
X138500000Y-121750000D03*
X138500000Y-119750000D03*
X138500000Y-117750000D03*
D13*
X155150000Y-137750000D03*
X162850000Y-137750000D03*
X162850000Y-142250000D03*
X155150000Y-142250000D03*
X155150000Y-128250000D03*
X162850000Y-128250000D03*
X162850000Y-132750000D03*
X155150000Y-132750000D03*
X144150000Y-146750000D03*
X151850000Y-146750000D03*
X151850000Y-151250000D03*
X144150000Y-151250000D03*
X120150000Y-146750000D03*
X127850000Y-146750000D03*
X127850000Y-151250000D03*
X120150000Y-151250000D03*
X120650000Y-118750000D03*
X128350000Y-118750000D03*
X128350000Y-123250000D03*
X120650000Y-123250000D03*
X114150000Y-125750000D03*
X121850000Y-125750000D03*
X121850000Y-130250000D03*
X114150000Y-130250000D03*
X107150000Y-118750000D03*
X114850000Y-118750000D03*
X114850000Y-123250000D03*
X107150000Y-123250000D03*
X114150000Y-111750000D03*
X121850000Y-111750000D03*
X121850000Y-116250000D03*
X114150000Y-116250000D03*
D14*
X131500000Y-108750000D03*
X131500000Y-110250000D03*
X127000000Y-110250000D03*
X127000000Y-108750000D03*
X128500000Y-110250000D03*
X128500000Y-108750000D03*
D15*
X140250000Y-106500000D03*
X140250000Y-105000000D03*
X125500000Y-108750000D03*
X125500000Y-110250000D03*
X125750000Y-38000000D03*
X125750000Y-39500000D03*
X150250000Y-105000000D03*
X150250000Y-106500000D03*
D16*
X106500000Y-109300000D03*
X106500000Y-107200000D03*
X108500000Y-109300000D03*
X108500000Y-107200000D03*
X110500000Y-109300000D03*
X110500000Y-107200000D03*
D10*
X142250000Y-102850000D03*
X146750000Y-102850000D03*
X142250000Y-106150000D03*
X146750000Y-106150000D03*
X147750000Y-36350000D03*
X152250000Y-36350000D03*
X147750000Y-39650000D03*
X152250000Y-39650000D03*
X124250000Y-39650000D03*
X119750000Y-39650000D03*
X124250000Y-36350000D03*
X119750000Y-36350000D03*
D16*
X112500000Y-109300000D03*
X112500000Y-107200000D03*
X114500000Y-107200000D03*
X114500000Y-109300000D03*
X116500000Y-107200000D03*
X116500000Y-109300000D03*
D14*
X154250000Y-106500000D03*
X154250000Y-105000000D03*
X130000000Y-110250000D03*
X130000000Y-108750000D03*
X133000000Y-108750000D03*
X133000000Y-110250000D03*
X148250000Y-106500000D03*
X148250000Y-105000000D03*
M02*
