G04 #@! TF.GenerationSoftware,KiCad,Pcbnew,(2017-07-14 revision d3b382c28)-master*
G04 #@! TF.CreationDate,2017-08-01T03:33:34-04:00*
G04 #@! TF.ProjectId,MAGLabs-2017-Swadges,4D41474C6162732D323031372D537761,rev?*
G04 #@! TF.SameCoordinates,Original
G04 #@! TF.FileFunction,Copper,L2,Bot,Signal*
G04 #@! TF.FilePolarity,Positive*
%FSLAX46Y46*%
G04 Gerber Fmt 4.6, Leading zero omitted, Abs format (unit mm)*
G04 Created by KiCad (PCBNEW (2017-07-14 revision d3b382c28)-master) date Tue Aug  1 03:33:34 2017*
%MOMM*%
%LPD*%
G01*
G04 APERTURE LIST*
%ADD10C,1.500000*%
%ADD11O,1.700000X1.700000*%
%ADD12R,1.700000X1.700000*%
%ADD13C,3.000000*%
%ADD14C,0.800000*%
%ADD15C,0.250000*%
%ADD16C,0.254000*%
G04 APERTURE END LIST*
D10*
X125500000Y-50750000D03*
X125500000Y-52250000D03*
X143750000Y-53750000D03*
X143750000Y-49250000D03*
X128250000Y-49750000D03*
X128250000Y-51500000D03*
X128250000Y-53250000D03*
D11*
X104000000Y-90700000D03*
X104000000Y-88160000D03*
X104000000Y-85620000D03*
X104000000Y-83080000D03*
X104000000Y-80540000D03*
D12*
X104000000Y-78000000D03*
D11*
X168000000Y-88160000D03*
X168000000Y-85620000D03*
X168000000Y-83080000D03*
X168000000Y-80540000D03*
D12*
X168000000Y-78000000D03*
D13*
X157500000Y-50000000D03*
X157500000Y-103000000D03*
X114500000Y-50000000D03*
X114500000Y-103000000D03*
D14*
X140000000Y-151500000D03*
X127500000Y-104500000D03*
X122000000Y-38000000D03*
X150000000Y-38000000D03*
X149168500Y-107136900D03*
X152426900Y-111098700D03*
X126324100Y-106452800D03*
X141222300Y-105314300D03*
X145571700Y-106351100D03*
X152238800Y-107115800D03*
X131237700Y-111098100D03*
X115531500Y-111464800D03*
X128674100Y-111921500D03*
X117205400Y-112133300D03*
D15*
X148254400Y-50000000D02*
X157500000Y-50000000D01*
X145842100Y-52412300D02*
X148254400Y-50000000D01*
X145842100Y-53177600D02*
X145842100Y-52412300D01*
X144177400Y-54842300D02*
X145842100Y-53177600D01*
X126492400Y-54842300D02*
X144177400Y-54842300D01*
X121650100Y-50000000D02*
X126492400Y-54842300D01*
X114500000Y-50000000D02*
X121650100Y-50000000D01*
X168000000Y-85620000D02*
X168000000Y-86791300D01*
X167707200Y-86791300D02*
X157500000Y-96998500D01*
X168000000Y-86791300D02*
X167707200Y-86791300D01*
X157500000Y-96998500D02*
X157500000Y-103000000D01*
X138501500Y-78000000D02*
X157500000Y-96998500D01*
X104000000Y-78000000D02*
X138501500Y-78000000D01*
X104000000Y-92500000D02*
X104000000Y-90700000D01*
X114500000Y-103000000D02*
X104000000Y-92500000D01*
X131084900Y-48665100D02*
X128250000Y-51500000D01*
X143165100Y-48665100D02*
X131084900Y-48665100D01*
X143750000Y-49250000D02*
X143165100Y-48665100D01*
X126250000Y-51500000D02*
X125500000Y-52250000D01*
X128250000Y-51500000D02*
X126250000Y-51500000D01*
X126250000Y-51500000D02*
X125500000Y-50750000D01*
X125111600Y-83080000D02*
X149168500Y-107136900D01*
X104000000Y-83080000D02*
X125111600Y-83080000D01*
X168000000Y-80540000D02*
X168000000Y-81711300D01*
X152426900Y-108991900D02*
X152426900Y-111098700D01*
X155270500Y-106148300D02*
X152426900Y-108991900D01*
X156954000Y-106148300D02*
X155270500Y-106148300D01*
X169189300Y-93913000D02*
X156954000Y-106148300D01*
X169189300Y-82607800D02*
X169189300Y-93913000D01*
X168292800Y-81711300D02*
X169189300Y-82607800D01*
X168000000Y-81711300D02*
X168292800Y-81711300D01*
X128863200Y-108991900D02*
X126324100Y-106452800D01*
X152426900Y-108991900D02*
X128863200Y-108991900D01*
X124068000Y-88160000D02*
X141222300Y-105314300D01*
X104000000Y-88160000D02*
X124068000Y-88160000D01*
X124840600Y-85620000D02*
X145571700Y-106351100D01*
X104000000Y-85620000D02*
X124840600Y-85620000D01*
X125663000Y-80540000D02*
X152238800Y-107115800D01*
X104000000Y-80540000D02*
X125663000Y-80540000D01*
X115898200Y-111098100D02*
X115531500Y-111464800D01*
X131237700Y-111098100D02*
X115898200Y-111098100D01*
X117417200Y-111921500D02*
X128674100Y-111921500D01*
X117205400Y-112133300D02*
X117417200Y-111921500D01*
D16*
G36*
X153105655Y-35744926D02*
X153195225Y-35804774D01*
X153255074Y-35894345D01*
X153290000Y-36069930D01*
X153290000Y-37000000D01*
X153305780Y-37079329D01*
X153308303Y-37160170D01*
X153332547Y-37213895D01*
X153344046Y-37271705D01*
X153388980Y-37338955D01*
X153422249Y-37412679D01*
X153465207Y-37453036D01*
X153497954Y-37502046D01*
X153565208Y-37546983D01*
X153624154Y-37602361D01*
X153679286Y-37623207D01*
X153728295Y-37655954D01*
X153807621Y-37671733D01*
X153883277Y-37700340D01*
X159872352Y-38698519D01*
X160105655Y-38744926D01*
X160195225Y-38804774D01*
X160255074Y-38894345D01*
X160290000Y-39069930D01*
X160290000Y-48000000D01*
X160344046Y-48271705D01*
X160497954Y-48502046D01*
X160728295Y-48655954D01*
X161000000Y-48710000D01*
X165290000Y-48710000D01*
X165290000Y-55000000D01*
X165344046Y-55271705D01*
X165497954Y-55502046D01*
X165728295Y-55655954D01*
X166000000Y-55710000D01*
X166290000Y-55710000D01*
X166290000Y-58000000D01*
X166303643Y-58068586D01*
X166303643Y-58138514D01*
X166330404Y-58203120D01*
X166344046Y-58271705D01*
X166382894Y-58329846D01*
X166409656Y-58394455D01*
X166459104Y-58443903D01*
X166497954Y-58502046D01*
X166556098Y-58540897D01*
X166605545Y-58590343D01*
X166670152Y-58617104D01*
X166728295Y-58655954D01*
X166796877Y-58669596D01*
X166861486Y-58696358D01*
X168253707Y-58973288D01*
X168473768Y-59120328D01*
X168138513Y-59053642D01*
X167861486Y-59053642D01*
X167478804Y-59129762D01*
X167406632Y-59159657D01*
X167222862Y-59235777D01*
X166898438Y-59452549D01*
X166784960Y-59566028D01*
X166702549Y-59648439D01*
X166485776Y-59972862D01*
X166443548Y-60074811D01*
X166379762Y-60228804D01*
X166303642Y-60611487D01*
X166303642Y-60681416D01*
X166290000Y-60750000D01*
X166290000Y-74750000D01*
X166303642Y-74818584D01*
X166303642Y-74888513D01*
X166379762Y-75271196D01*
X166399395Y-75318593D01*
X166485776Y-75527138D01*
X166702549Y-75851561D01*
X166702550Y-75851562D01*
X166898438Y-76047451D01*
X167222862Y-76264223D01*
X167328877Y-76308136D01*
X167478804Y-76370238D01*
X167861486Y-76446358D01*
X168138513Y-76446358D01*
X168521196Y-76370238D01*
X168596160Y-76339187D01*
X168777138Y-76264224D01*
X169101561Y-76047451D01*
X169101562Y-76047450D01*
X169297451Y-75851562D01*
X169514223Y-75527138D01*
X169564419Y-75405954D01*
X169620238Y-75271196D01*
X169696358Y-74888514D01*
X169696358Y-74818584D01*
X169710000Y-74750000D01*
X169710000Y-60750000D01*
X169696358Y-60681416D01*
X169696358Y-60611486D01*
X169620238Y-60228804D01*
X169521238Y-59989798D01*
X170026712Y-60746295D01*
X170290000Y-62069931D01*
X170290000Y-90949543D01*
X169949300Y-93334443D01*
X169949300Y-82607800D01*
X169891448Y-82316961D01*
X169891448Y-82316960D01*
X169726701Y-82070399D01*
X169146121Y-81489819D01*
X169401054Y-81108285D01*
X169514093Y-80540000D01*
X169401054Y-79971715D01*
X169079147Y-79489946D01*
X169035223Y-79460597D01*
X169209698Y-79388327D01*
X169388327Y-79209699D01*
X169485000Y-78976310D01*
X169485000Y-78285750D01*
X169326250Y-78127000D01*
X168127000Y-78127000D01*
X168127000Y-78147000D01*
X167873000Y-78147000D01*
X167873000Y-78127000D01*
X166673750Y-78127000D01*
X166515000Y-78285750D01*
X166515000Y-78976310D01*
X166611673Y-79209699D01*
X166790302Y-79388327D01*
X166964777Y-79460597D01*
X166920853Y-79489946D01*
X166598946Y-79971715D01*
X166485907Y-80540000D01*
X166598946Y-81108285D01*
X166920853Y-81590054D01*
X167250026Y-81810000D01*
X166920853Y-82029946D01*
X166598946Y-82511715D01*
X166485907Y-83080000D01*
X166598946Y-83648285D01*
X166920853Y-84130054D01*
X167250026Y-84350000D01*
X166920853Y-84569946D01*
X166598946Y-85051715D01*
X166485907Y-85620000D01*
X166598946Y-86188285D01*
X166853879Y-86569819D01*
X157500000Y-95923698D01*
X139038901Y-77462599D01*
X138792339Y-77297852D01*
X138501500Y-77240000D01*
X105497440Y-77240000D01*
X105497440Y-77150000D01*
X105472316Y-77023690D01*
X166515000Y-77023690D01*
X166515000Y-77714250D01*
X166673750Y-77873000D01*
X167873000Y-77873000D01*
X167873000Y-76673750D01*
X168127000Y-76673750D01*
X168127000Y-77873000D01*
X169326250Y-77873000D01*
X169485000Y-77714250D01*
X169485000Y-77023690D01*
X169388327Y-76790301D01*
X169209698Y-76611673D01*
X168976309Y-76515000D01*
X168285750Y-76515000D01*
X168127000Y-76673750D01*
X167873000Y-76673750D01*
X167714250Y-76515000D01*
X167023691Y-76515000D01*
X166790302Y-76611673D01*
X166611673Y-76790301D01*
X166515000Y-77023690D01*
X105472316Y-77023690D01*
X105448157Y-76902235D01*
X105307809Y-76692191D01*
X105097765Y-76551843D01*
X104850000Y-76502560D01*
X103150000Y-76502560D01*
X102902235Y-76551843D01*
X102692191Y-76692191D01*
X102551843Y-76902235D01*
X102502560Y-77150000D01*
X102502560Y-78850000D01*
X102551843Y-79097765D01*
X102692191Y-79307809D01*
X102902235Y-79448157D01*
X102964777Y-79460597D01*
X102920853Y-79489946D01*
X102598946Y-79971715D01*
X102485907Y-80540000D01*
X102598946Y-81108285D01*
X102920853Y-81590054D01*
X103250026Y-81810000D01*
X102920853Y-82029946D01*
X102598946Y-82511715D01*
X102485907Y-83080000D01*
X102598946Y-83648285D01*
X102920853Y-84130054D01*
X103250026Y-84350000D01*
X102920853Y-84569946D01*
X102598946Y-85051715D01*
X102485907Y-85620000D01*
X102598946Y-86188285D01*
X102920853Y-86670054D01*
X103250026Y-86890000D01*
X102920853Y-87109946D01*
X102598946Y-87591715D01*
X102485907Y-88160000D01*
X102598946Y-88728285D01*
X102920853Y-89210054D01*
X103261553Y-89437702D01*
X103118642Y-89504817D01*
X102728355Y-89933076D01*
X102558524Y-90343110D01*
X102679845Y-90573000D01*
X103873000Y-90573000D01*
X103873000Y-90553000D01*
X104127000Y-90553000D01*
X104127000Y-90573000D01*
X105320155Y-90573000D01*
X105441476Y-90343110D01*
X105271645Y-89933076D01*
X104881358Y-89504817D01*
X104738447Y-89437702D01*
X105079147Y-89210054D01*
X105272954Y-88920000D01*
X123753198Y-88920000D01*
X140187265Y-105354067D01*
X140187121Y-105519271D01*
X140344358Y-105899815D01*
X140635254Y-106191219D01*
X141015523Y-106349120D01*
X141427271Y-106349479D01*
X141807815Y-106192242D01*
X142099219Y-105901346D01*
X142257120Y-105521077D01*
X142257479Y-105109329D01*
X142100242Y-104728785D01*
X141809346Y-104437381D01*
X141429077Y-104279480D01*
X141262136Y-104279334D01*
X124605401Y-87622599D01*
X124358839Y-87457852D01*
X124068000Y-87400000D01*
X105272954Y-87400000D01*
X105079147Y-87109946D01*
X104749974Y-86890000D01*
X105079147Y-86670054D01*
X105272954Y-86380000D01*
X124525798Y-86380000D01*
X144536665Y-106390867D01*
X144536521Y-106556071D01*
X144693758Y-106936615D01*
X144984654Y-107228019D01*
X145364923Y-107385920D01*
X145776671Y-107386279D01*
X146157215Y-107229042D01*
X146448619Y-106938146D01*
X146606520Y-106557877D01*
X146606879Y-106146129D01*
X146449642Y-105765585D01*
X146158746Y-105474181D01*
X145778477Y-105316280D01*
X145611536Y-105316134D01*
X125378001Y-85082599D01*
X125131439Y-84917852D01*
X124840600Y-84860000D01*
X105272954Y-84860000D01*
X105079147Y-84569946D01*
X104749974Y-84350000D01*
X105079147Y-84130054D01*
X105272954Y-83840000D01*
X124796798Y-83840000D01*
X148133465Y-107176667D01*
X148133321Y-107341871D01*
X148290558Y-107722415D01*
X148581454Y-108013819D01*
X148961723Y-108171720D01*
X149373471Y-108172079D01*
X149754015Y-108014842D01*
X150045419Y-107723946D01*
X150203320Y-107343677D01*
X150203679Y-106931929D01*
X150046442Y-106551385D01*
X149755546Y-106259981D01*
X149375277Y-106102080D01*
X149208336Y-106101934D01*
X125649001Y-82542599D01*
X125402439Y-82377852D01*
X125111600Y-82320000D01*
X105272954Y-82320000D01*
X105079147Y-82029946D01*
X104749974Y-81810000D01*
X105079147Y-81590054D01*
X105272954Y-81300000D01*
X125348198Y-81300000D01*
X151203765Y-107155567D01*
X151203621Y-107320771D01*
X151360858Y-107701315D01*
X151651754Y-107992719D01*
X152032023Y-108150620D01*
X152193237Y-108150761D01*
X152112098Y-108231900D01*
X129178002Y-108231900D01*
X127359135Y-106413033D01*
X127359279Y-106247829D01*
X127202042Y-105867285D01*
X126911146Y-105575881D01*
X126530877Y-105417980D01*
X126119129Y-105417621D01*
X125738585Y-105574858D01*
X125447181Y-105865754D01*
X125289280Y-106246023D01*
X125288921Y-106657771D01*
X125446158Y-107038315D01*
X125737054Y-107329719D01*
X126117323Y-107487620D01*
X126284264Y-107487766D01*
X128325799Y-109529301D01*
X128572361Y-109694048D01*
X128863200Y-109751900D01*
X151666900Y-109751900D01*
X151666900Y-110394939D01*
X151549981Y-110511654D01*
X151392080Y-110891923D01*
X151391721Y-111303671D01*
X151548958Y-111684215D01*
X151839854Y-111975619D01*
X152220123Y-112133520D01*
X152631871Y-112133879D01*
X153012415Y-111976642D01*
X153303819Y-111685746D01*
X153461720Y-111305477D01*
X153462079Y-110893729D01*
X153304842Y-110513185D01*
X153186900Y-110395037D01*
X153186900Y-109306702D01*
X155585302Y-106908300D01*
X156954000Y-106908300D01*
X157244839Y-106850448D01*
X157491401Y-106685701D01*
X169726701Y-94450401D01*
X169807058Y-94330139D01*
X164297136Y-132899591D01*
X164299897Y-132950245D01*
X164290000Y-133000000D01*
X164290000Y-144930069D01*
X163569989Y-148549807D01*
X161559187Y-151559186D01*
X158549805Y-153569990D01*
X154930069Y-154290000D01*
X117069931Y-154290000D01*
X113450193Y-153569989D01*
X110440814Y-151559187D01*
X108430010Y-148549805D01*
X107710000Y-144930069D01*
X107710000Y-133000000D01*
X107700103Y-132950245D01*
X107702864Y-132899591D01*
X104670034Y-111669771D01*
X114496321Y-111669771D01*
X114653558Y-112050315D01*
X114944454Y-112341719D01*
X115324723Y-112499620D01*
X115736471Y-112499979D01*
X116117015Y-112342742D01*
X116170263Y-112289586D01*
X116170221Y-112338271D01*
X116327458Y-112718815D01*
X116618354Y-113010219D01*
X116998623Y-113168120D01*
X117410371Y-113168479D01*
X117790915Y-113011242D01*
X118082319Y-112720346D01*
X118098449Y-112681500D01*
X127970339Y-112681500D01*
X128087054Y-112798419D01*
X128467323Y-112956320D01*
X128879071Y-112956679D01*
X129259615Y-112799442D01*
X129551019Y-112508546D01*
X129708920Y-112128277D01*
X129709156Y-111858100D01*
X130533939Y-111858100D01*
X130650654Y-111975019D01*
X131030923Y-112132920D01*
X131442671Y-112133279D01*
X131823215Y-111976042D01*
X132114619Y-111685146D01*
X132272520Y-111304877D01*
X132272879Y-110893129D01*
X132115642Y-110512585D01*
X131824746Y-110221181D01*
X131444477Y-110063280D01*
X131032729Y-110062921D01*
X130652185Y-110220158D01*
X130534037Y-110338100D01*
X115898200Y-110338100D01*
X115607361Y-110395952D01*
X115556671Y-110429822D01*
X115326529Y-110429621D01*
X114945985Y-110586858D01*
X114654581Y-110877754D01*
X114496680Y-111258023D01*
X114496321Y-111669771D01*
X104670034Y-111669771D01*
X103647776Y-104513970D01*
X113165635Y-104513970D01*
X113325418Y-104832739D01*
X114116187Y-105142723D01*
X114965387Y-105126497D01*
X115674582Y-104832739D01*
X115834365Y-104513970D01*
X114500000Y-103179605D01*
X113165635Y-104513970D01*
X103647776Y-104513970D01*
X103376664Y-102616187D01*
X112357277Y-102616187D01*
X112373503Y-103465387D01*
X112667261Y-104174582D01*
X112986030Y-104334365D01*
X114320395Y-103000000D01*
X114679605Y-103000000D01*
X116013970Y-104334365D01*
X116332739Y-104174582D01*
X116642723Y-103383813D01*
X116626497Y-102534613D01*
X116332739Y-101825418D01*
X116013970Y-101665635D01*
X114679605Y-103000000D01*
X114320395Y-103000000D01*
X112986030Y-101665635D01*
X112667261Y-101825418D01*
X112357277Y-102616187D01*
X103376664Y-102616187D01*
X103215214Y-101486030D01*
X113165635Y-101486030D01*
X114500000Y-102820395D01*
X115834365Y-101486030D01*
X115674582Y-101167261D01*
X114883813Y-100857277D01*
X114034613Y-100873503D01*
X113325418Y-101167261D01*
X113165635Y-101486030D01*
X103215214Y-101486030D01*
X101725336Y-91056890D01*
X102558524Y-91056890D01*
X102728355Y-91466924D01*
X103118642Y-91895183D01*
X103643108Y-92141486D01*
X103873000Y-92020819D01*
X103873000Y-90827000D01*
X104127000Y-90827000D01*
X104127000Y-92020819D01*
X104356892Y-92141486D01*
X104881358Y-91895183D01*
X105271645Y-91466924D01*
X105441476Y-91056890D01*
X105320155Y-90827000D01*
X104127000Y-90827000D01*
X103873000Y-90827000D01*
X102679845Y-90827000D01*
X102558524Y-91056890D01*
X101725336Y-91056890D01*
X101710000Y-90949543D01*
X101710000Y-62069931D01*
X101973288Y-60746293D01*
X102053642Y-60626035D01*
X102053642Y-60681416D01*
X102040000Y-60750000D01*
X102040000Y-74750000D01*
X102053642Y-74818584D01*
X102053642Y-74888513D01*
X102129762Y-75271196D01*
X102149395Y-75318593D01*
X102235776Y-75527138D01*
X102452549Y-75851561D01*
X102452550Y-75851562D01*
X102648438Y-76047451D01*
X102972862Y-76264223D01*
X103078877Y-76308136D01*
X103228804Y-76370238D01*
X103611486Y-76446358D01*
X103888513Y-76446358D01*
X104271196Y-76370238D01*
X104346160Y-76339187D01*
X104527138Y-76264224D01*
X104851561Y-76047451D01*
X104851562Y-76047450D01*
X105047451Y-75851562D01*
X105264223Y-75527138D01*
X105314419Y-75405954D01*
X105370238Y-75271196D01*
X105446358Y-74888514D01*
X105446358Y-74818584D01*
X105460000Y-74750000D01*
X105460000Y-60750000D01*
X105446358Y-60681416D01*
X105446358Y-60611486D01*
X105370238Y-60228804D01*
X105264223Y-59972863D01*
X105264223Y-59972862D01*
X105047451Y-59648438D01*
X104851562Y-59452550D01*
X104851561Y-59452549D01*
X104527138Y-59235776D01*
X104343368Y-59159657D01*
X104271196Y-59129762D01*
X103888513Y-59053642D01*
X103626036Y-59053642D01*
X103746295Y-58973288D01*
X105138514Y-58696358D01*
X105203123Y-58669596D01*
X105271705Y-58655954D01*
X105329848Y-58617104D01*
X105394455Y-58590343D01*
X105443902Y-58540897D01*
X105502046Y-58502046D01*
X105540896Y-58443903D01*
X105590344Y-58394455D01*
X105617106Y-58329846D01*
X105655954Y-58271705D01*
X105669596Y-58203120D01*
X105696357Y-58138514D01*
X105696357Y-58068586D01*
X105710000Y-58000000D01*
X105710000Y-55710000D01*
X106000000Y-55710000D01*
X106271705Y-55655954D01*
X106502046Y-55502046D01*
X106655954Y-55271705D01*
X106710000Y-55000000D01*
X106710000Y-50422815D01*
X112364630Y-50422815D01*
X112688980Y-51207800D01*
X113289041Y-51808909D01*
X114073459Y-52134628D01*
X114922815Y-52135370D01*
X115707800Y-51811020D01*
X116308909Y-51210959D01*
X116496164Y-50760000D01*
X121335298Y-50760000D01*
X125954999Y-55379701D01*
X126201560Y-55544448D01*
X126492400Y-55602300D01*
X144177400Y-55602300D01*
X144468239Y-55544448D01*
X144714801Y-55379701D01*
X146379501Y-53715001D01*
X146544248Y-53468440D01*
X146602100Y-53177600D01*
X146602100Y-52727102D01*
X148569202Y-50760000D01*
X155503952Y-50760000D01*
X155688980Y-51207800D01*
X156289041Y-51808909D01*
X157073459Y-52134628D01*
X157922815Y-52135370D01*
X158707800Y-51811020D01*
X159308909Y-51210959D01*
X159634628Y-50426541D01*
X159635370Y-49577185D01*
X159311020Y-48792200D01*
X158710959Y-48191091D01*
X157926541Y-47865372D01*
X157710000Y-47865183D01*
X157710000Y-42000000D01*
X157655954Y-41728295D01*
X157502046Y-41497954D01*
X155502046Y-39497954D01*
X155271705Y-39344046D01*
X155000000Y-39290000D01*
X154000000Y-39290000D01*
X153931416Y-39303642D01*
X153861486Y-39303642D01*
X153478804Y-39379762D01*
X153406632Y-39409657D01*
X153222862Y-39485777D01*
X152898438Y-39702549D01*
X152777118Y-39823870D01*
X152702549Y-39898439D01*
X152485776Y-40222862D01*
X152430749Y-40355711D01*
X152379762Y-40478804D01*
X152303642Y-40861486D01*
X152303642Y-40861487D01*
X152255074Y-41105655D01*
X152195225Y-41195226D01*
X152105655Y-41255074D01*
X151930070Y-41290000D01*
X140381473Y-41290000D01*
X140808668Y-41004558D01*
X141004558Y-40808668D01*
X141438103Y-40159822D01*
X141504303Y-40000000D01*
X141544117Y-39903881D01*
X141696357Y-39138515D01*
X141696357Y-38861485D01*
X141544117Y-38096119D01*
X141491110Y-37968149D01*
X141438103Y-37840178D01*
X141004558Y-37191332D01*
X140808668Y-36995442D01*
X140159821Y-36561897D01*
X140005448Y-36497954D01*
X139903881Y-36455883D01*
X139138514Y-36303642D01*
X139068584Y-36303642D01*
X139000000Y-36290000D01*
X133000000Y-36290000D01*
X132931413Y-36303643D01*
X132861485Y-36303643D01*
X132096119Y-36455883D01*
X131968149Y-36508890D01*
X131840178Y-36561897D01*
X131191332Y-36995442D01*
X130995442Y-37191332D01*
X130561897Y-37840179D01*
X130528437Y-37920959D01*
X130455883Y-38096119D01*
X130303642Y-38861486D01*
X130303643Y-39000000D01*
X130303642Y-39138514D01*
X130455883Y-39903881D01*
X130469853Y-39937606D01*
X130561897Y-40159821D01*
X130995442Y-40808668D01*
X131191332Y-41004558D01*
X131618526Y-41290000D01*
X120069930Y-41290000D01*
X119894345Y-41255074D01*
X119804774Y-41195225D01*
X119744926Y-41105655D01*
X119696358Y-40861487D01*
X119696358Y-40861486D01*
X119620238Y-40478804D01*
X119558136Y-40328877D01*
X119514223Y-40222862D01*
X119297451Y-39898438D01*
X119101562Y-39702550D01*
X119101561Y-39702549D01*
X118777138Y-39485776D01*
X118593368Y-39409657D01*
X118521196Y-39379762D01*
X118138513Y-39303642D01*
X118068584Y-39303642D01*
X118000000Y-39290000D01*
X117000000Y-39290000D01*
X116728295Y-39344046D01*
X116497954Y-39497954D01*
X114497954Y-41497954D01*
X114344046Y-41728295D01*
X114290000Y-42000000D01*
X114290000Y-47864816D01*
X114077185Y-47864630D01*
X113292200Y-48188980D01*
X112691091Y-48789041D01*
X112365372Y-49573459D01*
X112364630Y-50422815D01*
X106710000Y-50422815D01*
X106710000Y-48710000D01*
X111000000Y-48710000D01*
X111271705Y-48655954D01*
X111502046Y-48502046D01*
X111655954Y-48271705D01*
X111710000Y-48000000D01*
X111710000Y-39069930D01*
X111744926Y-38894345D01*
X111804774Y-38804775D01*
X111894345Y-38744926D01*
X112127648Y-38698519D01*
X118116724Y-37700340D01*
X118192381Y-37671733D01*
X118271705Y-37655954D01*
X118320713Y-37623208D01*
X118375847Y-37602361D01*
X118434795Y-37546982D01*
X118502046Y-37502046D01*
X118534793Y-37453037D01*
X118577751Y-37412679D01*
X118611020Y-37338953D01*
X118655954Y-37271705D01*
X118667453Y-37213898D01*
X118691698Y-37160170D01*
X118694221Y-37079324D01*
X118710000Y-37000000D01*
X118710000Y-36069930D01*
X118744926Y-35894345D01*
X118804774Y-35804775D01*
X118894345Y-35744926D01*
X119069930Y-35710000D01*
X152930070Y-35710000D01*
X153105655Y-35744926D01*
X153105655Y-35744926D01*
G37*
X153105655Y-35744926D02*
X153195225Y-35804774D01*
X153255074Y-35894345D01*
X153290000Y-36069930D01*
X153290000Y-37000000D01*
X153305780Y-37079329D01*
X153308303Y-37160170D01*
X153332547Y-37213895D01*
X153344046Y-37271705D01*
X153388980Y-37338955D01*
X153422249Y-37412679D01*
X153465207Y-37453036D01*
X153497954Y-37502046D01*
X153565208Y-37546983D01*
X153624154Y-37602361D01*
X153679286Y-37623207D01*
X153728295Y-37655954D01*
X153807621Y-37671733D01*
X153883277Y-37700340D01*
X159872352Y-38698519D01*
X160105655Y-38744926D01*
X160195225Y-38804774D01*
X160255074Y-38894345D01*
X160290000Y-39069930D01*
X160290000Y-48000000D01*
X160344046Y-48271705D01*
X160497954Y-48502046D01*
X160728295Y-48655954D01*
X161000000Y-48710000D01*
X165290000Y-48710000D01*
X165290000Y-55000000D01*
X165344046Y-55271705D01*
X165497954Y-55502046D01*
X165728295Y-55655954D01*
X166000000Y-55710000D01*
X166290000Y-55710000D01*
X166290000Y-58000000D01*
X166303643Y-58068586D01*
X166303643Y-58138514D01*
X166330404Y-58203120D01*
X166344046Y-58271705D01*
X166382894Y-58329846D01*
X166409656Y-58394455D01*
X166459104Y-58443903D01*
X166497954Y-58502046D01*
X166556098Y-58540897D01*
X166605545Y-58590343D01*
X166670152Y-58617104D01*
X166728295Y-58655954D01*
X166796877Y-58669596D01*
X166861486Y-58696358D01*
X168253707Y-58973288D01*
X168473768Y-59120328D01*
X168138513Y-59053642D01*
X167861486Y-59053642D01*
X167478804Y-59129762D01*
X167406632Y-59159657D01*
X167222862Y-59235777D01*
X166898438Y-59452549D01*
X166784960Y-59566028D01*
X166702549Y-59648439D01*
X166485776Y-59972862D01*
X166443548Y-60074811D01*
X166379762Y-60228804D01*
X166303642Y-60611487D01*
X166303642Y-60681416D01*
X166290000Y-60750000D01*
X166290000Y-74750000D01*
X166303642Y-74818584D01*
X166303642Y-74888513D01*
X166379762Y-75271196D01*
X166399395Y-75318593D01*
X166485776Y-75527138D01*
X166702549Y-75851561D01*
X166702550Y-75851562D01*
X166898438Y-76047451D01*
X167222862Y-76264223D01*
X167328877Y-76308136D01*
X167478804Y-76370238D01*
X167861486Y-76446358D01*
X168138513Y-76446358D01*
X168521196Y-76370238D01*
X168596160Y-76339187D01*
X168777138Y-76264224D01*
X169101561Y-76047451D01*
X169101562Y-76047450D01*
X169297451Y-75851562D01*
X169514223Y-75527138D01*
X169564419Y-75405954D01*
X169620238Y-75271196D01*
X169696358Y-74888514D01*
X169696358Y-74818584D01*
X169710000Y-74750000D01*
X169710000Y-60750000D01*
X169696358Y-60681416D01*
X169696358Y-60611486D01*
X169620238Y-60228804D01*
X169521238Y-59989798D01*
X170026712Y-60746295D01*
X170290000Y-62069931D01*
X170290000Y-90949543D01*
X169949300Y-93334443D01*
X169949300Y-82607800D01*
X169891448Y-82316961D01*
X169891448Y-82316960D01*
X169726701Y-82070399D01*
X169146121Y-81489819D01*
X169401054Y-81108285D01*
X169514093Y-80540000D01*
X169401054Y-79971715D01*
X169079147Y-79489946D01*
X169035223Y-79460597D01*
X169209698Y-79388327D01*
X169388327Y-79209699D01*
X169485000Y-78976310D01*
X169485000Y-78285750D01*
X169326250Y-78127000D01*
X168127000Y-78127000D01*
X168127000Y-78147000D01*
X167873000Y-78147000D01*
X167873000Y-78127000D01*
X166673750Y-78127000D01*
X166515000Y-78285750D01*
X166515000Y-78976310D01*
X166611673Y-79209699D01*
X166790302Y-79388327D01*
X166964777Y-79460597D01*
X166920853Y-79489946D01*
X166598946Y-79971715D01*
X166485907Y-80540000D01*
X166598946Y-81108285D01*
X166920853Y-81590054D01*
X167250026Y-81810000D01*
X166920853Y-82029946D01*
X166598946Y-82511715D01*
X166485907Y-83080000D01*
X166598946Y-83648285D01*
X166920853Y-84130054D01*
X167250026Y-84350000D01*
X166920853Y-84569946D01*
X166598946Y-85051715D01*
X166485907Y-85620000D01*
X166598946Y-86188285D01*
X166853879Y-86569819D01*
X157500000Y-95923698D01*
X139038901Y-77462599D01*
X138792339Y-77297852D01*
X138501500Y-77240000D01*
X105497440Y-77240000D01*
X105497440Y-77150000D01*
X105472316Y-77023690D01*
X166515000Y-77023690D01*
X166515000Y-77714250D01*
X166673750Y-77873000D01*
X167873000Y-77873000D01*
X167873000Y-76673750D01*
X168127000Y-76673750D01*
X168127000Y-77873000D01*
X169326250Y-77873000D01*
X169485000Y-77714250D01*
X169485000Y-77023690D01*
X169388327Y-76790301D01*
X169209698Y-76611673D01*
X168976309Y-76515000D01*
X168285750Y-76515000D01*
X168127000Y-76673750D01*
X167873000Y-76673750D01*
X167714250Y-76515000D01*
X167023691Y-76515000D01*
X166790302Y-76611673D01*
X166611673Y-76790301D01*
X166515000Y-77023690D01*
X105472316Y-77023690D01*
X105448157Y-76902235D01*
X105307809Y-76692191D01*
X105097765Y-76551843D01*
X104850000Y-76502560D01*
X103150000Y-76502560D01*
X102902235Y-76551843D01*
X102692191Y-76692191D01*
X102551843Y-76902235D01*
X102502560Y-77150000D01*
X102502560Y-78850000D01*
X102551843Y-79097765D01*
X102692191Y-79307809D01*
X102902235Y-79448157D01*
X102964777Y-79460597D01*
X102920853Y-79489946D01*
X102598946Y-79971715D01*
X102485907Y-80540000D01*
X102598946Y-81108285D01*
X102920853Y-81590054D01*
X103250026Y-81810000D01*
X102920853Y-82029946D01*
X102598946Y-82511715D01*
X102485907Y-83080000D01*
X102598946Y-83648285D01*
X102920853Y-84130054D01*
X103250026Y-84350000D01*
X102920853Y-84569946D01*
X102598946Y-85051715D01*
X102485907Y-85620000D01*
X102598946Y-86188285D01*
X102920853Y-86670054D01*
X103250026Y-86890000D01*
X102920853Y-87109946D01*
X102598946Y-87591715D01*
X102485907Y-88160000D01*
X102598946Y-88728285D01*
X102920853Y-89210054D01*
X103261553Y-89437702D01*
X103118642Y-89504817D01*
X102728355Y-89933076D01*
X102558524Y-90343110D01*
X102679845Y-90573000D01*
X103873000Y-90573000D01*
X103873000Y-90553000D01*
X104127000Y-90553000D01*
X104127000Y-90573000D01*
X105320155Y-90573000D01*
X105441476Y-90343110D01*
X105271645Y-89933076D01*
X104881358Y-89504817D01*
X104738447Y-89437702D01*
X105079147Y-89210054D01*
X105272954Y-88920000D01*
X123753198Y-88920000D01*
X140187265Y-105354067D01*
X140187121Y-105519271D01*
X140344358Y-105899815D01*
X140635254Y-106191219D01*
X141015523Y-106349120D01*
X141427271Y-106349479D01*
X141807815Y-106192242D01*
X142099219Y-105901346D01*
X142257120Y-105521077D01*
X142257479Y-105109329D01*
X142100242Y-104728785D01*
X141809346Y-104437381D01*
X141429077Y-104279480D01*
X141262136Y-104279334D01*
X124605401Y-87622599D01*
X124358839Y-87457852D01*
X124068000Y-87400000D01*
X105272954Y-87400000D01*
X105079147Y-87109946D01*
X104749974Y-86890000D01*
X105079147Y-86670054D01*
X105272954Y-86380000D01*
X124525798Y-86380000D01*
X144536665Y-106390867D01*
X144536521Y-106556071D01*
X144693758Y-106936615D01*
X144984654Y-107228019D01*
X145364923Y-107385920D01*
X145776671Y-107386279D01*
X146157215Y-107229042D01*
X146448619Y-106938146D01*
X146606520Y-106557877D01*
X146606879Y-106146129D01*
X146449642Y-105765585D01*
X146158746Y-105474181D01*
X145778477Y-105316280D01*
X145611536Y-105316134D01*
X125378001Y-85082599D01*
X125131439Y-84917852D01*
X124840600Y-84860000D01*
X105272954Y-84860000D01*
X105079147Y-84569946D01*
X104749974Y-84350000D01*
X105079147Y-84130054D01*
X105272954Y-83840000D01*
X124796798Y-83840000D01*
X148133465Y-107176667D01*
X148133321Y-107341871D01*
X148290558Y-107722415D01*
X148581454Y-108013819D01*
X148961723Y-108171720D01*
X149373471Y-108172079D01*
X149754015Y-108014842D01*
X150045419Y-107723946D01*
X150203320Y-107343677D01*
X150203679Y-106931929D01*
X150046442Y-106551385D01*
X149755546Y-106259981D01*
X149375277Y-106102080D01*
X149208336Y-106101934D01*
X125649001Y-82542599D01*
X125402439Y-82377852D01*
X125111600Y-82320000D01*
X105272954Y-82320000D01*
X105079147Y-82029946D01*
X104749974Y-81810000D01*
X105079147Y-81590054D01*
X105272954Y-81300000D01*
X125348198Y-81300000D01*
X151203765Y-107155567D01*
X151203621Y-107320771D01*
X151360858Y-107701315D01*
X151651754Y-107992719D01*
X152032023Y-108150620D01*
X152193237Y-108150761D01*
X152112098Y-108231900D01*
X129178002Y-108231900D01*
X127359135Y-106413033D01*
X127359279Y-106247829D01*
X127202042Y-105867285D01*
X126911146Y-105575881D01*
X126530877Y-105417980D01*
X126119129Y-105417621D01*
X125738585Y-105574858D01*
X125447181Y-105865754D01*
X125289280Y-106246023D01*
X125288921Y-106657771D01*
X125446158Y-107038315D01*
X125737054Y-107329719D01*
X126117323Y-107487620D01*
X126284264Y-107487766D01*
X128325799Y-109529301D01*
X128572361Y-109694048D01*
X128863200Y-109751900D01*
X151666900Y-109751900D01*
X151666900Y-110394939D01*
X151549981Y-110511654D01*
X151392080Y-110891923D01*
X151391721Y-111303671D01*
X151548958Y-111684215D01*
X151839854Y-111975619D01*
X152220123Y-112133520D01*
X152631871Y-112133879D01*
X153012415Y-111976642D01*
X153303819Y-111685746D01*
X153461720Y-111305477D01*
X153462079Y-110893729D01*
X153304842Y-110513185D01*
X153186900Y-110395037D01*
X153186900Y-109306702D01*
X155585302Y-106908300D01*
X156954000Y-106908300D01*
X157244839Y-106850448D01*
X157491401Y-106685701D01*
X169726701Y-94450401D01*
X169807058Y-94330139D01*
X164297136Y-132899591D01*
X164299897Y-132950245D01*
X164290000Y-133000000D01*
X164290000Y-144930069D01*
X163569989Y-148549807D01*
X161559187Y-151559186D01*
X158549805Y-153569990D01*
X154930069Y-154290000D01*
X117069931Y-154290000D01*
X113450193Y-153569989D01*
X110440814Y-151559187D01*
X108430010Y-148549805D01*
X107710000Y-144930069D01*
X107710000Y-133000000D01*
X107700103Y-132950245D01*
X107702864Y-132899591D01*
X104670034Y-111669771D01*
X114496321Y-111669771D01*
X114653558Y-112050315D01*
X114944454Y-112341719D01*
X115324723Y-112499620D01*
X115736471Y-112499979D01*
X116117015Y-112342742D01*
X116170263Y-112289586D01*
X116170221Y-112338271D01*
X116327458Y-112718815D01*
X116618354Y-113010219D01*
X116998623Y-113168120D01*
X117410371Y-113168479D01*
X117790915Y-113011242D01*
X118082319Y-112720346D01*
X118098449Y-112681500D01*
X127970339Y-112681500D01*
X128087054Y-112798419D01*
X128467323Y-112956320D01*
X128879071Y-112956679D01*
X129259615Y-112799442D01*
X129551019Y-112508546D01*
X129708920Y-112128277D01*
X129709156Y-111858100D01*
X130533939Y-111858100D01*
X130650654Y-111975019D01*
X131030923Y-112132920D01*
X131442671Y-112133279D01*
X131823215Y-111976042D01*
X132114619Y-111685146D01*
X132272520Y-111304877D01*
X132272879Y-110893129D01*
X132115642Y-110512585D01*
X131824746Y-110221181D01*
X131444477Y-110063280D01*
X131032729Y-110062921D01*
X130652185Y-110220158D01*
X130534037Y-110338100D01*
X115898200Y-110338100D01*
X115607361Y-110395952D01*
X115556671Y-110429822D01*
X115326529Y-110429621D01*
X114945985Y-110586858D01*
X114654581Y-110877754D01*
X114496680Y-111258023D01*
X114496321Y-111669771D01*
X104670034Y-111669771D01*
X103647776Y-104513970D01*
X113165635Y-104513970D01*
X113325418Y-104832739D01*
X114116187Y-105142723D01*
X114965387Y-105126497D01*
X115674582Y-104832739D01*
X115834365Y-104513970D01*
X114500000Y-103179605D01*
X113165635Y-104513970D01*
X103647776Y-104513970D01*
X103376664Y-102616187D01*
X112357277Y-102616187D01*
X112373503Y-103465387D01*
X112667261Y-104174582D01*
X112986030Y-104334365D01*
X114320395Y-103000000D01*
X114679605Y-103000000D01*
X116013970Y-104334365D01*
X116332739Y-104174582D01*
X116642723Y-103383813D01*
X116626497Y-102534613D01*
X116332739Y-101825418D01*
X116013970Y-101665635D01*
X114679605Y-103000000D01*
X114320395Y-103000000D01*
X112986030Y-101665635D01*
X112667261Y-101825418D01*
X112357277Y-102616187D01*
X103376664Y-102616187D01*
X103215214Y-101486030D01*
X113165635Y-101486030D01*
X114500000Y-102820395D01*
X115834365Y-101486030D01*
X115674582Y-101167261D01*
X114883813Y-100857277D01*
X114034613Y-100873503D01*
X113325418Y-101167261D01*
X113165635Y-101486030D01*
X103215214Y-101486030D01*
X101725336Y-91056890D01*
X102558524Y-91056890D01*
X102728355Y-91466924D01*
X103118642Y-91895183D01*
X103643108Y-92141486D01*
X103873000Y-92020819D01*
X103873000Y-90827000D01*
X104127000Y-90827000D01*
X104127000Y-92020819D01*
X104356892Y-92141486D01*
X104881358Y-91895183D01*
X105271645Y-91466924D01*
X105441476Y-91056890D01*
X105320155Y-90827000D01*
X104127000Y-90827000D01*
X103873000Y-90827000D01*
X102679845Y-90827000D01*
X102558524Y-91056890D01*
X101725336Y-91056890D01*
X101710000Y-90949543D01*
X101710000Y-62069931D01*
X101973288Y-60746293D01*
X102053642Y-60626035D01*
X102053642Y-60681416D01*
X102040000Y-60750000D01*
X102040000Y-74750000D01*
X102053642Y-74818584D01*
X102053642Y-74888513D01*
X102129762Y-75271196D01*
X102149395Y-75318593D01*
X102235776Y-75527138D01*
X102452549Y-75851561D01*
X102452550Y-75851562D01*
X102648438Y-76047451D01*
X102972862Y-76264223D01*
X103078877Y-76308136D01*
X103228804Y-76370238D01*
X103611486Y-76446358D01*
X103888513Y-76446358D01*
X104271196Y-76370238D01*
X104346160Y-76339187D01*
X104527138Y-76264224D01*
X104851561Y-76047451D01*
X104851562Y-76047450D01*
X105047451Y-75851562D01*
X105264223Y-75527138D01*
X105314419Y-75405954D01*
X105370238Y-75271196D01*
X105446358Y-74888514D01*
X105446358Y-74818584D01*
X105460000Y-74750000D01*
X105460000Y-60750000D01*
X105446358Y-60681416D01*
X105446358Y-60611486D01*
X105370238Y-60228804D01*
X105264223Y-59972863D01*
X105264223Y-59972862D01*
X105047451Y-59648438D01*
X104851562Y-59452550D01*
X104851561Y-59452549D01*
X104527138Y-59235776D01*
X104343368Y-59159657D01*
X104271196Y-59129762D01*
X103888513Y-59053642D01*
X103626036Y-59053642D01*
X103746295Y-58973288D01*
X105138514Y-58696358D01*
X105203123Y-58669596D01*
X105271705Y-58655954D01*
X105329848Y-58617104D01*
X105394455Y-58590343D01*
X105443902Y-58540897D01*
X105502046Y-58502046D01*
X105540896Y-58443903D01*
X105590344Y-58394455D01*
X105617106Y-58329846D01*
X105655954Y-58271705D01*
X105669596Y-58203120D01*
X105696357Y-58138514D01*
X105696357Y-58068586D01*
X105710000Y-58000000D01*
X105710000Y-55710000D01*
X106000000Y-55710000D01*
X106271705Y-55655954D01*
X106502046Y-55502046D01*
X106655954Y-55271705D01*
X106710000Y-55000000D01*
X106710000Y-50422815D01*
X112364630Y-50422815D01*
X112688980Y-51207800D01*
X113289041Y-51808909D01*
X114073459Y-52134628D01*
X114922815Y-52135370D01*
X115707800Y-51811020D01*
X116308909Y-51210959D01*
X116496164Y-50760000D01*
X121335298Y-50760000D01*
X125954999Y-55379701D01*
X126201560Y-55544448D01*
X126492400Y-55602300D01*
X144177400Y-55602300D01*
X144468239Y-55544448D01*
X144714801Y-55379701D01*
X146379501Y-53715001D01*
X146544248Y-53468440D01*
X146602100Y-53177600D01*
X146602100Y-52727102D01*
X148569202Y-50760000D01*
X155503952Y-50760000D01*
X155688980Y-51207800D01*
X156289041Y-51808909D01*
X157073459Y-52134628D01*
X157922815Y-52135370D01*
X158707800Y-51811020D01*
X159308909Y-51210959D01*
X159634628Y-50426541D01*
X159635370Y-49577185D01*
X159311020Y-48792200D01*
X158710959Y-48191091D01*
X157926541Y-47865372D01*
X157710000Y-47865183D01*
X157710000Y-42000000D01*
X157655954Y-41728295D01*
X157502046Y-41497954D01*
X155502046Y-39497954D01*
X155271705Y-39344046D01*
X155000000Y-39290000D01*
X154000000Y-39290000D01*
X153931416Y-39303642D01*
X153861486Y-39303642D01*
X153478804Y-39379762D01*
X153406632Y-39409657D01*
X153222862Y-39485777D01*
X152898438Y-39702549D01*
X152777118Y-39823870D01*
X152702549Y-39898439D01*
X152485776Y-40222862D01*
X152430749Y-40355711D01*
X152379762Y-40478804D01*
X152303642Y-40861486D01*
X152303642Y-40861487D01*
X152255074Y-41105655D01*
X152195225Y-41195226D01*
X152105655Y-41255074D01*
X151930070Y-41290000D01*
X140381473Y-41290000D01*
X140808668Y-41004558D01*
X141004558Y-40808668D01*
X141438103Y-40159822D01*
X141504303Y-40000000D01*
X141544117Y-39903881D01*
X141696357Y-39138515D01*
X141696357Y-38861485D01*
X141544117Y-38096119D01*
X141491110Y-37968149D01*
X141438103Y-37840178D01*
X141004558Y-37191332D01*
X140808668Y-36995442D01*
X140159821Y-36561897D01*
X140005448Y-36497954D01*
X139903881Y-36455883D01*
X139138514Y-36303642D01*
X139068584Y-36303642D01*
X139000000Y-36290000D01*
X133000000Y-36290000D01*
X132931413Y-36303643D01*
X132861485Y-36303643D01*
X132096119Y-36455883D01*
X131968149Y-36508890D01*
X131840178Y-36561897D01*
X131191332Y-36995442D01*
X130995442Y-37191332D01*
X130561897Y-37840179D01*
X130528437Y-37920959D01*
X130455883Y-38096119D01*
X130303642Y-38861486D01*
X130303643Y-39000000D01*
X130303642Y-39138514D01*
X130455883Y-39903881D01*
X130469853Y-39937606D01*
X130561897Y-40159821D01*
X130995442Y-40808668D01*
X131191332Y-41004558D01*
X131618526Y-41290000D01*
X120069930Y-41290000D01*
X119894345Y-41255074D01*
X119804774Y-41195225D01*
X119744926Y-41105655D01*
X119696358Y-40861487D01*
X119696358Y-40861486D01*
X119620238Y-40478804D01*
X119558136Y-40328877D01*
X119514223Y-40222862D01*
X119297451Y-39898438D01*
X119101562Y-39702550D01*
X119101561Y-39702549D01*
X118777138Y-39485776D01*
X118593368Y-39409657D01*
X118521196Y-39379762D01*
X118138513Y-39303642D01*
X118068584Y-39303642D01*
X118000000Y-39290000D01*
X117000000Y-39290000D01*
X116728295Y-39344046D01*
X116497954Y-39497954D01*
X114497954Y-41497954D01*
X114344046Y-41728295D01*
X114290000Y-42000000D01*
X114290000Y-47864816D01*
X114077185Y-47864630D01*
X113292200Y-48188980D01*
X112691091Y-48789041D01*
X112365372Y-49573459D01*
X112364630Y-50422815D01*
X106710000Y-50422815D01*
X106710000Y-48710000D01*
X111000000Y-48710000D01*
X111271705Y-48655954D01*
X111502046Y-48502046D01*
X111655954Y-48271705D01*
X111710000Y-48000000D01*
X111710000Y-39069930D01*
X111744926Y-38894345D01*
X111804774Y-38804775D01*
X111894345Y-38744926D01*
X112127648Y-38698519D01*
X118116724Y-37700340D01*
X118192381Y-37671733D01*
X118271705Y-37655954D01*
X118320713Y-37623208D01*
X118375847Y-37602361D01*
X118434795Y-37546982D01*
X118502046Y-37502046D01*
X118534793Y-37453037D01*
X118577751Y-37412679D01*
X118611020Y-37338953D01*
X118655954Y-37271705D01*
X118667453Y-37213898D01*
X118691698Y-37160170D01*
X118694221Y-37079324D01*
X118710000Y-37000000D01*
X118710000Y-36069930D01*
X118744926Y-35894345D01*
X118804774Y-35804775D01*
X118894345Y-35744926D01*
X119069930Y-35710000D01*
X152930070Y-35710000D01*
X153105655Y-35744926D01*
G36*
X127076539Y-48964436D02*
X126865241Y-49473298D01*
X126864760Y-50024285D01*
X127075169Y-50533515D01*
X127255821Y-50714483D01*
X127037540Y-50776077D01*
X126852799Y-51295171D01*
X126880770Y-51845448D01*
X127037540Y-52223923D01*
X127255781Y-52285506D01*
X127076539Y-52464436D01*
X126865241Y-52973298D01*
X126864760Y-53524285D01*
X127075169Y-54033515D01*
X127123869Y-54082300D01*
X126807202Y-54082300D01*
X126198070Y-53473168D01*
X126223923Y-53462460D01*
X126291912Y-53221517D01*
X125500000Y-52429605D01*
X125485858Y-52443748D01*
X125306253Y-52264143D01*
X125320395Y-52250000D01*
X125306253Y-52235858D01*
X125400250Y-52141860D01*
X125590099Y-52132209D01*
X125693748Y-52235858D01*
X125679605Y-52250000D01*
X126471517Y-53041912D01*
X126712460Y-52973923D01*
X126897201Y-52454829D01*
X126869230Y-51904552D01*
X126712460Y-51526077D01*
X126620047Y-51500000D01*
X126712460Y-51473923D01*
X126897201Y-50954829D01*
X126869230Y-50404552D01*
X126712460Y-50026077D01*
X126471517Y-49958088D01*
X125679605Y-50750000D01*
X125693748Y-50764143D01*
X125599750Y-50858140D01*
X125409901Y-50867791D01*
X125306253Y-50764143D01*
X125320395Y-50750000D01*
X124528483Y-49958088D01*
X124287540Y-50026077D01*
X124102799Y-50545171D01*
X124130770Y-51095448D01*
X124287540Y-51473923D01*
X124379953Y-51500000D01*
X124287540Y-51526077D01*
X124277944Y-51553042D01*
X122503385Y-49778483D01*
X124708088Y-49778483D01*
X125500000Y-50570395D01*
X126291912Y-49778483D01*
X126223923Y-49537540D01*
X125704829Y-49352799D01*
X125154552Y-49380770D01*
X124776077Y-49537540D01*
X124708088Y-49778483D01*
X122503385Y-49778483D01*
X122187501Y-49462599D01*
X121940939Y-49297852D01*
X121650100Y-49240000D01*
X116496048Y-49240000D01*
X116311020Y-48792200D01*
X116228963Y-48710000D01*
X127331419Y-48710000D01*
X127076539Y-48964436D01*
X127076539Y-48964436D01*
G37*
X127076539Y-48964436D02*
X126865241Y-49473298D01*
X126864760Y-50024285D01*
X127075169Y-50533515D01*
X127255821Y-50714483D01*
X127037540Y-50776077D01*
X126852799Y-51295171D01*
X126880770Y-51845448D01*
X127037540Y-52223923D01*
X127255781Y-52285506D01*
X127076539Y-52464436D01*
X126865241Y-52973298D01*
X126864760Y-53524285D01*
X127075169Y-54033515D01*
X127123869Y-54082300D01*
X126807202Y-54082300D01*
X126198070Y-53473168D01*
X126223923Y-53462460D01*
X126291912Y-53221517D01*
X125500000Y-52429605D01*
X125485858Y-52443748D01*
X125306253Y-52264143D01*
X125320395Y-52250000D01*
X125306253Y-52235858D01*
X125400250Y-52141860D01*
X125590099Y-52132209D01*
X125693748Y-52235858D01*
X125679605Y-52250000D01*
X126471517Y-53041912D01*
X126712460Y-52973923D01*
X126897201Y-52454829D01*
X126869230Y-51904552D01*
X126712460Y-51526077D01*
X126620047Y-51500000D01*
X126712460Y-51473923D01*
X126897201Y-50954829D01*
X126869230Y-50404552D01*
X126712460Y-50026077D01*
X126471517Y-49958088D01*
X125679605Y-50750000D01*
X125693748Y-50764143D01*
X125599750Y-50858140D01*
X125409901Y-50867791D01*
X125306253Y-50764143D01*
X125320395Y-50750000D01*
X124528483Y-49958088D01*
X124287540Y-50026077D01*
X124102799Y-50545171D01*
X124130770Y-51095448D01*
X124287540Y-51473923D01*
X124379953Y-51500000D01*
X124287540Y-51526077D01*
X124277944Y-51553042D01*
X122503385Y-49778483D01*
X124708088Y-49778483D01*
X125500000Y-50570395D01*
X126291912Y-49778483D01*
X126223923Y-49537540D01*
X125704829Y-49352799D01*
X125154552Y-49380770D01*
X124776077Y-49537540D01*
X124708088Y-49778483D01*
X122503385Y-49778483D01*
X122187501Y-49462599D01*
X121940939Y-49297852D01*
X121650100Y-49240000D01*
X116496048Y-49240000D01*
X116311020Y-48792200D01*
X116228963Y-48710000D01*
X127331419Y-48710000D01*
X127076539Y-48964436D01*
G36*
X143943748Y-53735858D02*
X143929605Y-53750000D01*
X143943748Y-53764143D01*
X143764143Y-53943748D01*
X143750000Y-53929605D01*
X143735858Y-53943748D01*
X143710000Y-53917890D01*
X143710000Y-53710000D01*
X143917890Y-53710000D01*
X143943748Y-53735858D01*
X143943748Y-53735858D01*
G37*
X143943748Y-53735858D02*
X143929605Y-53750000D01*
X143943748Y-53764143D01*
X143764143Y-53943748D01*
X143750000Y-53929605D01*
X143735858Y-53943748D01*
X143710000Y-53917890D01*
X143710000Y-53710000D01*
X143917890Y-53710000D01*
X143943748Y-53735858D01*
G36*
X128443748Y-51485858D02*
X128429605Y-51500000D01*
X128443748Y-51514143D01*
X128264143Y-51693748D01*
X128250000Y-51679605D01*
X128235858Y-51693748D01*
X128056253Y-51514143D01*
X128070395Y-51500000D01*
X128056253Y-51485858D01*
X128235858Y-51306253D01*
X128250000Y-51320395D01*
X128264143Y-51306253D01*
X128443748Y-51485858D01*
X128443748Y-51485858D01*
G37*
X128443748Y-51485858D02*
X128429605Y-51500000D01*
X128443748Y-51514143D01*
X128264143Y-51693748D01*
X128250000Y-51679605D01*
X128235858Y-51693748D01*
X128056253Y-51514143D01*
X128070395Y-51500000D01*
X128056253Y-51485858D01*
X128235858Y-51306253D01*
X128250000Y-51320395D01*
X128264143Y-51306253D01*
X128443748Y-51485858D01*
G36*
X143943748Y-49235858D02*
X143929605Y-49250000D01*
X143943748Y-49264143D01*
X143917890Y-49290000D01*
X143710000Y-49290000D01*
X143710000Y-49082110D01*
X143735858Y-49056253D01*
X143750000Y-49070395D01*
X143764143Y-49056253D01*
X143943748Y-49235858D01*
X143943748Y-49235858D01*
G37*
X143943748Y-49235858D02*
X143929605Y-49250000D01*
X143943748Y-49264143D01*
X143917890Y-49290000D01*
X143710000Y-49290000D01*
X143710000Y-49082110D01*
X143735858Y-49056253D01*
X143750000Y-49070395D01*
X143764143Y-49056253D01*
X143943748Y-49235858D01*
M02*
