M48
;DRILL file {KiCad (2017-07-14 revision d3b382c28)-master} date Tue Aug  1 03:33:37 2017
;FORMAT={-:-/ absolute / inch / decimal}
FMAT,2
INCH,TZ
T1C0.016
T2C0.026
T3C0.039
T4C0.049
T5C0.051
%
G90
G05
M72
T1
X4.5485Y-4.3884
X4.6144Y-4.4147
X4.8031Y-1.4961
X4.9734Y-4.1911
X5.0197Y-4.1142
X5.0659Y-4.4064
X5.1668Y-4.3739
X5.5118Y-5.9646
X5.5599Y-4.1462
X5.7312Y-4.1871
X5.8728Y-4.218
X5.9055Y-1.4961
X5.9937Y-4.2172
X6.0011Y-4.374
T2
X5.6594Y-1.939
X5.6594Y-2.1161
T3
X4.9409Y-1.998
X4.9409Y-2.0571
X5.0492Y-1.9587
X4.0945Y-3.0709
X4.0945Y-3.1709
X4.0945Y-3.2709
X4.0945Y-3.3709
X4.0945Y-3.4709
X4.0945Y-3.5709
X6.6142Y-3.0709
X6.6142Y-3.1709
X6.6142Y-3.2709
X6.6142Y-3.3709
X6.6142Y-3.4709
T4
X6.2008Y-1.9685
X6.2008Y-4.0551
X4.5079Y-1.9685
X4.5079Y-4.0551
T5
X5.0492Y-2.0276
X5.0492Y-2.0965
T0
M30
