G04 #@! TF.GenerationSoftware,KiCad,Pcbnew,(2017-07-14 revision d3b382c28)-master*
G04 #@! TF.CreationDate,2017-08-01T03:31:59-04:00*
G04 #@! TF.ProjectId,MAGLabs-2017-Swadges,4D41474C6162732D323031372D537761,rev?*
G04 #@! TF.SameCoordinates,Original
G04 #@! TF.FileFunction,Soldermask,Bot*
G04 #@! TF.FilePolarity,Negative*
%FSLAX46Y46*%
G04 Gerber Fmt 4.6, Leading zero omitted, Abs format (unit mm)*
G04 Created by KiCad (PCBNEW (2017-07-14 revision d3b382c28)-master) date Tue Aug  1 03:31:59 2017*
%MOMM*%
%LPD*%
G01*
G04 APERTURE LIST*
%ADD10C,0.010000*%
%ADD11C,1.700000*%
%ADD12O,1.900000X1.900000*%
%ADD13R,1.900000X1.900000*%
%ADD14C,3.200000*%
G04 APERTURE END LIST*
D10*
G36*
X116192000Y-115901667D02*
X118774333Y-115901667D01*
X118774333Y-118653333D01*
X116446000Y-118653333D01*
X116446000Y-121024000D01*
X118774333Y-121024000D01*
X118774333Y-126400333D01*
X121314333Y-126400333D01*
X121314333Y-113488667D01*
X116192000Y-113488667D01*
X116192000Y-115901667D01*
X116192000Y-115901667D01*
G37*
X116192000Y-115901667D02*
X118774333Y-115901667D01*
X118774333Y-118653333D01*
X116446000Y-118653333D01*
X116446000Y-121024000D01*
X118774333Y-121024000D01*
X118774333Y-126400333D01*
X121314333Y-126400333D01*
X121314333Y-113488667D01*
X116192000Y-113488667D01*
X116192000Y-115901667D01*
G36*
X124277666Y-115901667D02*
X125590586Y-115901667D01*
X126903506Y-115901666D01*
X126892336Y-117266917D01*
X126881166Y-118632167D01*
X125706416Y-118643419D01*
X124531666Y-118654672D01*
X124531666Y-121022661D01*
X126881166Y-121045167D01*
X126892066Y-123722750D01*
X126902965Y-126400333D01*
X129442333Y-126400333D01*
X129442333Y-113488667D01*
X124277666Y-113488667D01*
X124277666Y-115901667D01*
X124277666Y-115901667D01*
G37*
X124277666Y-115901667D02*
X125590586Y-115901667D01*
X126903506Y-115901666D01*
X126892336Y-117266917D01*
X126881166Y-118632167D01*
X125706416Y-118643419D01*
X124531666Y-118654672D01*
X124531666Y-121022661D01*
X126881166Y-121045167D01*
X126892066Y-123722750D01*
X126902965Y-126400333D01*
X129442333Y-126400333D01*
X129442333Y-113488667D01*
X124277666Y-113488667D01*
X124277666Y-115901667D01*
G36*
X135927399Y-113488949D02*
X135628370Y-113490109D01*
X135396581Y-113492617D01*
X135223317Y-113496944D01*
X135099865Y-113503560D01*
X135017511Y-113512934D01*
X134967542Y-113525539D01*
X134941245Y-113541842D01*
X134929906Y-113562316D01*
X134929778Y-113562750D01*
X134917610Y-113611696D01*
X134886805Y-113738444D01*
X134838454Y-113938457D01*
X134773647Y-114207199D01*
X134693474Y-114540137D01*
X134599025Y-114932733D01*
X134491390Y-115380452D01*
X134371659Y-115878758D01*
X134240922Y-116423117D01*
X134100268Y-117008992D01*
X133950789Y-117631848D01*
X133793573Y-118287149D01*
X133629711Y-118970359D01*
X133460292Y-119676944D01*
X133404442Y-119909922D01*
X133233320Y-120623750D01*
X133067338Y-121316073D01*
X132907591Y-121982324D01*
X132755176Y-122617933D01*
X132611189Y-123218332D01*
X132476725Y-123778953D01*
X132352881Y-124295226D01*
X132240753Y-124762584D01*
X132141436Y-125176458D01*
X132056027Y-125532279D01*
X131985622Y-125825479D01*
X131931317Y-126051489D01*
X131894208Y-126205740D01*
X131875391Y-126283664D01*
X131873427Y-126291672D01*
X131846155Y-126400333D01*
X134586947Y-126400333D01*
X134819674Y-125331417D01*
X135052401Y-124262500D01*
X136347226Y-124251314D01*
X137642052Y-124240128D01*
X137771728Y-124843981D01*
X137829365Y-125113796D01*
X137891243Y-125405819D01*
X137950054Y-125685424D01*
X137998487Y-125917983D01*
X137999746Y-125924083D01*
X138098089Y-126400333D01*
X139378049Y-126400333D01*
X139754824Y-126399630D01*
X140054125Y-126397321D01*
X140283136Y-126393103D01*
X140449038Y-126386675D01*
X140559016Y-126377737D01*
X140620251Y-126365987D01*
X140639928Y-126351123D01*
X140639397Y-126347417D01*
X140627888Y-126300843D01*
X140598342Y-126176298D01*
X140551809Y-125978297D01*
X140489338Y-125711353D01*
X140411981Y-125379982D01*
X140320788Y-124988700D01*
X140216808Y-124542021D01*
X140101093Y-124044461D01*
X139974692Y-123500533D01*
X139838657Y-122914754D01*
X139694036Y-122291639D01*
X139663091Y-122158233D01*
X137203278Y-122158233D01*
X137203240Y-122177583D01*
X137156012Y-122189812D01*
X137040821Y-122199088D01*
X136872866Y-122205512D01*
X136667349Y-122209187D01*
X136439467Y-122210213D01*
X136204423Y-122208692D01*
X135977414Y-122204726D01*
X135773641Y-122198417D01*
X135608303Y-122189866D01*
X135496601Y-122179174D01*
X135453734Y-122166443D01*
X135453666Y-122165891D01*
X135461312Y-122116035D01*
X135483126Y-121992130D01*
X135517424Y-121803297D01*
X135562522Y-121558656D01*
X135616736Y-121267327D01*
X135678381Y-120938432D01*
X135745773Y-120581090D01*
X135768324Y-120461975D01*
X135845046Y-120051297D01*
X135922445Y-119626333D01*
X135997644Y-119203634D01*
X136067764Y-118799750D01*
X136129928Y-118431232D01*
X136181259Y-118114632D01*
X136215296Y-117891333D01*
X136255815Y-117618969D01*
X136294391Y-117371394D01*
X136328772Y-117162157D01*
X136356708Y-117004807D01*
X136375945Y-116912893D01*
X136380296Y-116898461D01*
X136397306Y-116907431D01*
X136422140Y-116997588D01*
X136454207Y-117165872D01*
X136492913Y-117409222D01*
X136531804Y-117681628D01*
X136565385Y-117919236D01*
X136610185Y-118225461D01*
X136663933Y-118585337D01*
X136724357Y-118983895D01*
X136789183Y-119406169D01*
X136856140Y-119837190D01*
X136922956Y-120261992D01*
X136936385Y-120346667D01*
X136996219Y-120726788D01*
X137050939Y-121081015D01*
X137099271Y-121400619D01*
X137139943Y-121676871D01*
X137171683Y-121901044D01*
X137193218Y-122064407D01*
X137203278Y-122158233D01*
X139663091Y-122158233D01*
X139541881Y-121635702D01*
X139383243Y-120951458D01*
X139219170Y-120243423D01*
X139159731Y-119986833D01*
X138993835Y-119270644D01*
X138832958Y-118576150D01*
X138678154Y-117907909D01*
X138530480Y-117270474D01*
X138390991Y-116668400D01*
X138260742Y-116106243D01*
X138140789Y-115588558D01*
X138032187Y-115119899D01*
X137935992Y-114704821D01*
X137853259Y-114347879D01*
X137785044Y-114053630D01*
X137732403Y-113826626D01*
X137696390Y-113671424D01*
X137678061Y-113592578D01*
X137676032Y-113583917D01*
X137653387Y-113488667D01*
X136302379Y-113488666D01*
X135927399Y-113488949D01*
X135927399Y-113488949D01*
G37*
X135927399Y-113488949D02*
X135628370Y-113490109D01*
X135396581Y-113492617D01*
X135223317Y-113496944D01*
X135099865Y-113503560D01*
X135017511Y-113512934D01*
X134967542Y-113525539D01*
X134941245Y-113541842D01*
X134929906Y-113562316D01*
X134929778Y-113562750D01*
X134917610Y-113611696D01*
X134886805Y-113738444D01*
X134838454Y-113938457D01*
X134773647Y-114207199D01*
X134693474Y-114540137D01*
X134599025Y-114932733D01*
X134491390Y-115380452D01*
X134371659Y-115878758D01*
X134240922Y-116423117D01*
X134100268Y-117008992D01*
X133950789Y-117631848D01*
X133793573Y-118287149D01*
X133629711Y-118970359D01*
X133460292Y-119676944D01*
X133404442Y-119909922D01*
X133233320Y-120623750D01*
X133067338Y-121316073D01*
X132907591Y-121982324D01*
X132755176Y-122617933D01*
X132611189Y-123218332D01*
X132476725Y-123778953D01*
X132352881Y-124295226D01*
X132240753Y-124762584D01*
X132141436Y-125176458D01*
X132056027Y-125532279D01*
X131985622Y-125825479D01*
X131931317Y-126051489D01*
X131894208Y-126205740D01*
X131875391Y-126283664D01*
X131873427Y-126291672D01*
X131846155Y-126400333D01*
X134586947Y-126400333D01*
X134819674Y-125331417D01*
X135052401Y-124262500D01*
X136347226Y-124251314D01*
X137642052Y-124240128D01*
X137771728Y-124843981D01*
X137829365Y-125113796D01*
X137891243Y-125405819D01*
X137950054Y-125685424D01*
X137998487Y-125917983D01*
X137999746Y-125924083D01*
X138098089Y-126400333D01*
X139378049Y-126400333D01*
X139754824Y-126399630D01*
X140054125Y-126397321D01*
X140283136Y-126393103D01*
X140449038Y-126386675D01*
X140559016Y-126377737D01*
X140620251Y-126365987D01*
X140639928Y-126351123D01*
X140639397Y-126347417D01*
X140627888Y-126300843D01*
X140598342Y-126176298D01*
X140551809Y-125978297D01*
X140489338Y-125711353D01*
X140411981Y-125379982D01*
X140320788Y-124988700D01*
X140216808Y-124542021D01*
X140101093Y-124044461D01*
X139974692Y-123500533D01*
X139838657Y-122914754D01*
X139694036Y-122291639D01*
X139663091Y-122158233D01*
X137203278Y-122158233D01*
X137203240Y-122177583D01*
X137156012Y-122189812D01*
X137040821Y-122199088D01*
X136872866Y-122205512D01*
X136667349Y-122209187D01*
X136439467Y-122210213D01*
X136204423Y-122208692D01*
X135977414Y-122204726D01*
X135773641Y-122198417D01*
X135608303Y-122189866D01*
X135496601Y-122179174D01*
X135453734Y-122166443D01*
X135453666Y-122165891D01*
X135461312Y-122116035D01*
X135483126Y-121992130D01*
X135517424Y-121803297D01*
X135562522Y-121558656D01*
X135616736Y-121267327D01*
X135678381Y-120938432D01*
X135745773Y-120581090D01*
X135768324Y-120461975D01*
X135845046Y-120051297D01*
X135922445Y-119626333D01*
X135997644Y-119203634D01*
X136067764Y-118799750D01*
X136129928Y-118431232D01*
X136181259Y-118114632D01*
X136215296Y-117891333D01*
X136255815Y-117618969D01*
X136294391Y-117371394D01*
X136328772Y-117162157D01*
X136356708Y-117004807D01*
X136375945Y-116912893D01*
X136380296Y-116898461D01*
X136397306Y-116907431D01*
X136422140Y-116997588D01*
X136454207Y-117165872D01*
X136492913Y-117409222D01*
X136531804Y-117681628D01*
X136565385Y-117919236D01*
X136610185Y-118225461D01*
X136663933Y-118585337D01*
X136724357Y-118983895D01*
X136789183Y-119406169D01*
X136856140Y-119837190D01*
X136922956Y-120261992D01*
X136936385Y-120346667D01*
X136996219Y-120726788D01*
X137050939Y-121081015D01*
X137099271Y-121400619D01*
X137139943Y-121676871D01*
X137171683Y-121901044D01*
X137193218Y-122064407D01*
X137203278Y-122158233D01*
X139663091Y-122158233D01*
X139541881Y-121635702D01*
X139383243Y-120951458D01*
X139219170Y-120243423D01*
X139159731Y-119986833D01*
X138993835Y-119270644D01*
X138832958Y-118576150D01*
X138678154Y-117907909D01*
X138530480Y-117270474D01*
X138390991Y-116668400D01*
X138260742Y-116106243D01*
X138140789Y-115588558D01*
X138032187Y-115119899D01*
X137935992Y-114704821D01*
X137853259Y-114347879D01*
X137785044Y-114053630D01*
X137732403Y-113826626D01*
X137696390Y-113671424D01*
X137678061Y-113592578D01*
X137676032Y-113583917D01*
X137653387Y-113488667D01*
X136302379Y-113488666D01*
X135927399Y-113488949D01*
G36*
X141465000Y-115901667D02*
X143497000Y-115901667D01*
X143497000Y-126400333D01*
X146037000Y-126400333D01*
X146037000Y-115901667D01*
X148069000Y-115901667D01*
X148069000Y-113488667D01*
X141465000Y-113488667D01*
X141465000Y-115901667D01*
X141465000Y-115901667D01*
G37*
X141465000Y-115901667D02*
X143497000Y-115901667D01*
X143497000Y-126400333D01*
X146037000Y-126400333D01*
X146037000Y-115901667D01*
X148069000Y-115901667D01*
X148069000Y-113488667D01*
X141465000Y-113488667D01*
X141465000Y-115901667D01*
G36*
X152750001Y-113312904D02*
X152213813Y-113410295D01*
X151684297Y-113573709D01*
X151367297Y-113706646D01*
X150990000Y-113881946D01*
X150990000Y-116406273D01*
X151269480Y-116194735D01*
X151685466Y-115918917D01*
X152095224Y-115725543D01*
X152497306Y-115615187D01*
X152810333Y-115587067D01*
X153161153Y-115615145D01*
X153456420Y-115705121D01*
X153700983Y-115859560D01*
X153899691Y-116081031D01*
X153975923Y-116204115D01*
X154035808Y-116319876D01*
X154072974Y-116421300D01*
X154092744Y-116535085D01*
X154100442Y-116687932D01*
X154101500Y-116833890D01*
X154099035Y-117031216D01*
X154087543Y-117173707D01*
X154060879Y-117291143D01*
X154012897Y-117413306D01*
X153958325Y-117527776D01*
X153864789Y-117694418D01*
X153745638Y-117861001D01*
X153593260Y-118034923D01*
X153400043Y-118223582D01*
X153158375Y-118434377D01*
X152860644Y-118674707D01*
X152499236Y-118951971D01*
X152471666Y-118972721D01*
X152031307Y-119313378D01*
X151659004Y-119623821D01*
X151347376Y-119912282D01*
X151089043Y-120186989D01*
X150876624Y-120456172D01*
X150702738Y-120728061D01*
X150560005Y-121010885D01*
X150488075Y-121184504D01*
X150389071Y-121470976D01*
X150320497Y-121747359D01*
X150278122Y-122039464D01*
X150257718Y-122373101D01*
X150254248Y-122611500D01*
X150286589Y-123238974D01*
X150384522Y-123824725D01*
X150546256Y-124365098D01*
X150770004Y-124856437D01*
X151053976Y-125295087D01*
X151396383Y-125677392D01*
X151795437Y-125999696D01*
X151965140Y-126107809D01*
X152388411Y-126315391D01*
X152861603Y-126470206D01*
X153366092Y-126569190D01*
X153883257Y-126609279D01*
X154394476Y-126587411D01*
X154653967Y-126550140D01*
X154853194Y-126509677D01*
X155063649Y-126460378D01*
X155204300Y-126422874D01*
X155362481Y-126369579D01*
X155544951Y-126296814D01*
X155731270Y-126214131D01*
X155900996Y-126131082D01*
X156033687Y-126057220D01*
X156108901Y-126002096D01*
X156111785Y-125998828D01*
X156126269Y-125937058D01*
X156136958Y-125792173D01*
X156143815Y-125565643D01*
X156146800Y-125258937D01*
X156145876Y-124873523D01*
X156144741Y-124733083D01*
X156133500Y-123520594D01*
X155976762Y-123627122D01*
X155604296Y-123846592D01*
X155214380Y-124014866D01*
X154820003Y-124129580D01*
X154434150Y-124188368D01*
X154069808Y-124188863D01*
X153739964Y-124128701D01*
X153570401Y-124065460D01*
X153293556Y-123907271D01*
X153080435Y-123710281D01*
X152912828Y-123457007D01*
X152890299Y-123412701D01*
X152818831Y-123255096D01*
X152778319Y-123121562D01*
X152760452Y-122974300D01*
X152756859Y-122805866D01*
X152772550Y-122557397D01*
X152823856Y-122330546D01*
X152917130Y-122116851D01*
X153058723Y-121907850D01*
X153254988Y-121695080D01*
X153512278Y-121470079D01*
X153836944Y-121224385D01*
X154062612Y-121066333D01*
X154504910Y-120756090D01*
X154880117Y-120476225D01*
X155196787Y-120219095D01*
X155463478Y-119977057D01*
X155688746Y-119742467D01*
X155881148Y-119507680D01*
X156007888Y-119328578D01*
X156246068Y-118917706D01*
X156422428Y-118489172D01*
X156540778Y-118029068D01*
X156604924Y-117523485D01*
X156619777Y-117093650D01*
X156587185Y-116478936D01*
X156489518Y-115905850D01*
X156328818Y-115378176D01*
X156107123Y-114899702D01*
X155826475Y-114474213D01*
X155488913Y-114105497D01*
X155096476Y-113797339D01*
X154732913Y-113591412D01*
X154284317Y-113420792D01*
X153796681Y-113317762D01*
X153281433Y-113281930D01*
X152750001Y-113312904D01*
X152750001Y-113312904D01*
G37*
X152750001Y-113312904D02*
X152213813Y-113410295D01*
X151684297Y-113573709D01*
X151367297Y-113706646D01*
X150990000Y-113881946D01*
X150990000Y-116406273D01*
X151269480Y-116194735D01*
X151685466Y-115918917D01*
X152095224Y-115725543D01*
X152497306Y-115615187D01*
X152810333Y-115587067D01*
X153161153Y-115615145D01*
X153456420Y-115705121D01*
X153700983Y-115859560D01*
X153899691Y-116081031D01*
X153975923Y-116204115D01*
X154035808Y-116319876D01*
X154072974Y-116421300D01*
X154092744Y-116535085D01*
X154100442Y-116687932D01*
X154101500Y-116833890D01*
X154099035Y-117031216D01*
X154087543Y-117173707D01*
X154060879Y-117291143D01*
X154012897Y-117413306D01*
X153958325Y-117527776D01*
X153864789Y-117694418D01*
X153745638Y-117861001D01*
X153593260Y-118034923D01*
X153400043Y-118223582D01*
X153158375Y-118434377D01*
X152860644Y-118674707D01*
X152499236Y-118951971D01*
X152471666Y-118972721D01*
X152031307Y-119313378D01*
X151659004Y-119623821D01*
X151347376Y-119912282D01*
X151089043Y-120186989D01*
X150876624Y-120456172D01*
X150702738Y-120728061D01*
X150560005Y-121010885D01*
X150488075Y-121184504D01*
X150389071Y-121470976D01*
X150320497Y-121747359D01*
X150278122Y-122039464D01*
X150257718Y-122373101D01*
X150254248Y-122611500D01*
X150286589Y-123238974D01*
X150384522Y-123824725D01*
X150546256Y-124365098D01*
X150770004Y-124856437D01*
X151053976Y-125295087D01*
X151396383Y-125677392D01*
X151795437Y-125999696D01*
X151965140Y-126107809D01*
X152388411Y-126315391D01*
X152861603Y-126470206D01*
X153366092Y-126569190D01*
X153883257Y-126609279D01*
X154394476Y-126587411D01*
X154653967Y-126550140D01*
X154853194Y-126509677D01*
X155063649Y-126460378D01*
X155204300Y-126422874D01*
X155362481Y-126369579D01*
X155544951Y-126296814D01*
X155731270Y-126214131D01*
X155900996Y-126131082D01*
X156033687Y-126057220D01*
X156108901Y-126002096D01*
X156111785Y-125998828D01*
X156126269Y-125937058D01*
X156136958Y-125792173D01*
X156143815Y-125565643D01*
X156146800Y-125258937D01*
X156145876Y-124873523D01*
X156144741Y-124733083D01*
X156133500Y-123520594D01*
X155976762Y-123627122D01*
X155604296Y-123846592D01*
X155214380Y-124014866D01*
X154820003Y-124129580D01*
X154434150Y-124188368D01*
X154069808Y-124188863D01*
X153739964Y-124128701D01*
X153570401Y-124065460D01*
X153293556Y-123907271D01*
X153080435Y-123710281D01*
X152912828Y-123457007D01*
X152890299Y-123412701D01*
X152818831Y-123255096D01*
X152778319Y-123121562D01*
X152760452Y-122974300D01*
X152756859Y-122805866D01*
X152772550Y-122557397D01*
X152823856Y-122330546D01*
X152917130Y-122116851D01*
X153058723Y-121907850D01*
X153254988Y-121695080D01*
X153512278Y-121470079D01*
X153836944Y-121224385D01*
X154062612Y-121066333D01*
X154504910Y-120756090D01*
X154880117Y-120476225D01*
X155196787Y-120219095D01*
X155463478Y-119977057D01*
X155688746Y-119742467D01*
X155881148Y-119507680D01*
X156007888Y-119328578D01*
X156246068Y-118917706D01*
X156422428Y-118489172D01*
X156540778Y-118029068D01*
X156604924Y-117523485D01*
X156619777Y-117093650D01*
X156587185Y-116478936D01*
X156489518Y-115905850D01*
X156328818Y-115378176D01*
X156107123Y-114899702D01*
X155826475Y-114474213D01*
X155488913Y-114105497D01*
X155096476Y-113797339D01*
X154732913Y-113591412D01*
X154284317Y-113420792D01*
X153796681Y-113317762D01*
X153281433Y-113281930D01*
X152750001Y-113312904D01*
D11*
X125500000Y-50750000D03*
X125500000Y-52250000D03*
X143750000Y-53750000D03*
X143750000Y-49250000D03*
X128250000Y-49750000D03*
X128250000Y-51500000D03*
X128250000Y-53250000D03*
D12*
X104000000Y-90700000D03*
X104000000Y-88160000D03*
X104000000Y-85620000D03*
X104000000Y-83080000D03*
X104000000Y-80540000D03*
D13*
X104000000Y-78000000D03*
D12*
X168000000Y-88160000D03*
X168000000Y-85620000D03*
X168000000Y-83080000D03*
X168000000Y-80540000D03*
D13*
X168000000Y-78000000D03*
D14*
X157500000Y-50000000D03*
X157500000Y-103000000D03*
X114500000Y-50000000D03*
X114500000Y-103000000D03*
M02*
