G04 #@! TF.FileFunction,Legend,Top*
%FSLAX46Y46*%
G04 Gerber Fmt 4.6, Leading zero omitted, Abs format (unit mm)*
G04 Created by KiCad (PCBNEW 4.0.7-e0-6372~58~ubuntu16.04.1) date Fri Aug  4 00:12:12 2017*
%MOMM*%
%LPD*%
G01*
G04 APERTURE LIST*
%ADD10C,0.100000*%
%ADD11C,0.300000*%
%ADD12C,0.200000*%
%ADD13C,0.150000*%
%ADD14C,0.120000*%
%ADD15C,0.010000*%
G04 APERTURE END LIST*
D10*
D11*
X119928571Y-69142856D02*
X118428571Y-69142856D01*
X119500000Y-68642856D01*
X118428571Y-68142856D01*
X119928571Y-68142856D01*
X119500000Y-67499999D02*
X119500000Y-66785713D01*
X119928571Y-67642856D02*
X118428571Y-67142856D01*
X119928571Y-66642856D01*
X118500000Y-65357142D02*
X118428571Y-65499999D01*
X118428571Y-65714285D01*
X118500000Y-65928570D01*
X118642857Y-66071428D01*
X118785714Y-66142856D01*
X119071429Y-66214285D01*
X119285714Y-66214285D01*
X119571429Y-66142856D01*
X119714286Y-66071428D01*
X119857143Y-65928570D01*
X119928571Y-65714285D01*
X119928571Y-65571428D01*
X119857143Y-65357142D01*
X119785714Y-65285713D01*
X119285714Y-65285713D01*
X119285714Y-65571428D01*
X119928571Y-63928570D02*
X119928571Y-64642856D01*
X118428571Y-64642856D01*
X119928571Y-62785713D02*
X119142857Y-62785713D01*
X119000000Y-62857142D01*
X118928571Y-62999999D01*
X118928571Y-63285713D01*
X119000000Y-63428570D01*
X119857143Y-62785713D02*
X119928571Y-62928570D01*
X119928571Y-63285713D01*
X119857143Y-63428570D01*
X119714286Y-63499999D01*
X119571429Y-63499999D01*
X119428571Y-63428570D01*
X119357143Y-63285713D01*
X119357143Y-62928570D01*
X119285714Y-62785713D01*
X119928571Y-62071427D02*
X118428571Y-62071427D01*
X119000000Y-62071427D02*
X118928571Y-61928570D01*
X118928571Y-61642856D01*
X119000000Y-61499999D01*
X119071429Y-61428570D01*
X119214286Y-61357141D01*
X119642857Y-61357141D01*
X119785714Y-61428570D01*
X119857143Y-61499999D01*
X119928571Y-61642856D01*
X119928571Y-61928570D01*
X119857143Y-62071427D01*
X119857143Y-60785713D02*
X119928571Y-60642856D01*
X119928571Y-60357141D01*
X119857143Y-60214284D01*
X119714286Y-60142856D01*
X119642857Y-60142856D01*
X119500000Y-60214284D01*
X119428571Y-60357141D01*
X119428571Y-60571427D01*
X119357143Y-60714284D01*
X119214286Y-60785713D01*
X119142857Y-60785713D01*
X119000000Y-60714284D01*
X118928571Y-60571427D01*
X118928571Y-60357141D01*
X119000000Y-60214284D01*
X118571429Y-58428570D02*
X118500000Y-58357141D01*
X118428571Y-58214284D01*
X118428571Y-57857141D01*
X118500000Y-57714284D01*
X118571429Y-57642855D01*
X118714286Y-57571427D01*
X118857143Y-57571427D01*
X119071429Y-57642855D01*
X119928571Y-58499998D01*
X119928571Y-57571427D01*
X118428571Y-56642856D02*
X118428571Y-56499999D01*
X118500000Y-56357142D01*
X118571429Y-56285713D01*
X118714286Y-56214284D01*
X119000000Y-56142856D01*
X119357143Y-56142856D01*
X119642857Y-56214284D01*
X119785714Y-56285713D01*
X119857143Y-56357142D01*
X119928571Y-56499999D01*
X119928571Y-56642856D01*
X119857143Y-56785713D01*
X119785714Y-56857142D01*
X119642857Y-56928570D01*
X119357143Y-56999999D01*
X119000000Y-56999999D01*
X118714286Y-56928570D01*
X118571429Y-56857142D01*
X118500000Y-56785713D01*
X118428571Y-56642856D01*
X119928571Y-54714285D02*
X119928571Y-55571428D01*
X119928571Y-55142856D02*
X118428571Y-55142856D01*
X118642857Y-55285713D01*
X118785714Y-55428571D01*
X118857143Y-55571428D01*
X118428571Y-54214285D02*
X118428571Y-53214285D01*
X119928571Y-53857142D01*
D12*
X147750000Y-67250000D02*
X147750000Y-66750000D01*
X146500000Y-67250000D02*
X147750000Y-67250000D01*
X146500000Y-66750000D02*
X146500000Y-67250000D01*
X148250000Y-66750000D02*
X148250000Y-57750000D01*
X146000000Y-66750000D02*
X148250000Y-66750000D01*
X146000000Y-57750000D02*
X146000000Y-66750000D01*
X148250000Y-57750000D02*
X146000000Y-57750000D01*
X125250000Y-57750000D02*
X125250000Y-58250000D01*
X124000000Y-57750000D02*
X125250000Y-57750000D01*
X124000000Y-58250000D02*
X124000000Y-57750000D01*
X123500000Y-58250000D02*
X123500000Y-67250000D01*
X125750000Y-58250000D02*
X123500000Y-58250000D01*
X125750000Y-67250000D02*
X125750000Y-58250000D01*
X123500000Y-67250000D02*
X125750000Y-67250000D01*
X115750000Y-108750000D02*
X117250000Y-108750000D01*
X113750000Y-107750000D02*
X115250000Y-107750000D01*
X111750000Y-107750000D02*
X113250000Y-107750000D01*
X109750000Y-107750000D02*
X111250000Y-107750000D01*
X107750000Y-108750000D02*
X109250000Y-108750000D01*
X105750000Y-108750000D02*
X107250000Y-108750000D01*
X151750000Y-39000000D02*
X150750000Y-40000000D01*
X123750000Y-39000000D02*
X122750000Y-40000000D01*
X143750000Y-102500000D02*
X142750000Y-103500000D01*
X126750000Y-102500000D02*
X125750000Y-103500000D01*
X169547619Y-80095238D02*
X170547619Y-80095238D01*
X170547619Y-80476191D01*
X170500000Y-80571429D01*
X170452381Y-80619048D01*
X170357143Y-80666667D01*
X170214286Y-80666667D01*
X170119048Y-80619048D01*
X170071429Y-80571429D01*
X170023810Y-80476191D01*
X170023810Y-80095238D01*
X169547619Y-81095238D02*
X170214286Y-81095238D01*
X170023810Y-81095238D02*
X170119048Y-81142857D01*
X170166667Y-81190476D01*
X170214286Y-81285714D01*
X170214286Y-81380953D01*
X169547619Y-81857143D02*
X169595238Y-81761905D01*
X169642857Y-81714286D01*
X169738095Y-81666667D01*
X170023810Y-81666667D01*
X170119048Y-81714286D01*
X170166667Y-81761905D01*
X170214286Y-81857143D01*
X170214286Y-82000001D01*
X170166667Y-82095239D01*
X170119048Y-82142858D01*
X170023810Y-82190477D01*
X169738095Y-82190477D01*
X169642857Y-82142858D01*
X169595238Y-82095239D01*
X169547619Y-82000001D01*
X169547619Y-81857143D01*
X170214286Y-83047620D02*
X169404762Y-83047620D01*
X169309524Y-83000001D01*
X169261905Y-82952382D01*
X169214286Y-82857143D01*
X169214286Y-82714286D01*
X169261905Y-82619048D01*
X169595238Y-83047620D02*
X169547619Y-82952382D01*
X169547619Y-82761905D01*
X169595238Y-82666667D01*
X169642857Y-82619048D01*
X169738095Y-82571429D01*
X170023810Y-82571429D01*
X170119048Y-82619048D01*
X170166667Y-82666667D01*
X170214286Y-82761905D01*
X170214286Y-82952382D01*
X170166667Y-83047620D01*
X169547619Y-83523810D02*
X170214286Y-83523810D01*
X170023810Y-83523810D02*
X170119048Y-83571429D01*
X170166667Y-83619048D01*
X170214286Y-83714286D01*
X170214286Y-83809525D01*
X169547619Y-84571430D02*
X170071429Y-84571430D01*
X170166667Y-84523811D01*
X170214286Y-84428573D01*
X170214286Y-84238096D01*
X170166667Y-84142858D01*
X169595238Y-84571430D02*
X169547619Y-84476192D01*
X169547619Y-84238096D01*
X169595238Y-84142858D01*
X169690476Y-84095239D01*
X169785714Y-84095239D01*
X169880952Y-84142858D01*
X169928571Y-84238096D01*
X169928571Y-84476192D01*
X169976190Y-84571430D01*
X169547619Y-85047620D02*
X170214286Y-85047620D01*
X170119048Y-85047620D02*
X170166667Y-85095239D01*
X170214286Y-85190477D01*
X170214286Y-85333335D01*
X170166667Y-85428573D01*
X170071429Y-85476192D01*
X169547619Y-85476192D01*
X170071429Y-85476192D02*
X170166667Y-85523811D01*
X170214286Y-85619049D01*
X170214286Y-85761906D01*
X170166667Y-85857144D01*
X170071429Y-85904763D01*
X169547619Y-85904763D01*
X102452381Y-88095238D02*
X102452381Y-88571429D01*
X101452381Y-88571429D01*
X102357143Y-87190476D02*
X102404762Y-87238095D01*
X102452381Y-87380952D01*
X102452381Y-87476190D01*
X102404762Y-87619048D01*
X102309524Y-87714286D01*
X102214286Y-87761905D01*
X102023810Y-87809524D01*
X101880952Y-87809524D01*
X101690476Y-87761905D01*
X101595238Y-87714286D01*
X101500000Y-87619048D01*
X101452381Y-87476190D01*
X101452381Y-87380952D01*
X101500000Y-87238095D01*
X101547619Y-87190476D01*
X102452381Y-86761905D02*
X101452381Y-86761905D01*
X101452381Y-86523810D01*
X101500000Y-86380952D01*
X101595238Y-86285714D01*
X101690476Y-86238095D01*
X101880952Y-86190476D01*
X102023810Y-86190476D01*
X102214286Y-86238095D01*
X102309524Y-86285714D01*
X102404762Y-86380952D01*
X102452381Y-86523810D01*
X102452381Y-86761905D01*
X102404762Y-85047619D02*
X102452381Y-84904762D01*
X102452381Y-84666666D01*
X102404762Y-84571428D01*
X102357143Y-84523809D01*
X102261905Y-84476190D01*
X102166667Y-84476190D01*
X102071429Y-84523809D01*
X102023810Y-84571428D01*
X101976190Y-84666666D01*
X101928571Y-84857143D01*
X101880952Y-84952381D01*
X101833333Y-85000000D01*
X101738095Y-85047619D01*
X101642857Y-85047619D01*
X101547619Y-85000000D01*
X101500000Y-84952381D01*
X101452381Y-84857143D01*
X101452381Y-84619047D01*
X101500000Y-84476190D01*
X102404762Y-83619047D02*
X102452381Y-83714285D01*
X102452381Y-83904762D01*
X102404762Y-84000000D01*
X102357143Y-84047619D01*
X102261905Y-84095238D01*
X101976190Y-84095238D01*
X101880952Y-84047619D01*
X101833333Y-84000000D01*
X101785714Y-83904762D01*
X101785714Y-83714285D01*
X101833333Y-83619047D01*
X102452381Y-83190476D02*
X101785714Y-83190476D01*
X101976190Y-83190476D02*
X101880952Y-83142857D01*
X101833333Y-83095238D01*
X101785714Y-83000000D01*
X101785714Y-82904761D01*
X102404762Y-82190475D02*
X102452381Y-82285713D01*
X102452381Y-82476190D01*
X102404762Y-82571428D01*
X102309524Y-82619047D01*
X101928571Y-82619047D01*
X101833333Y-82571428D01*
X101785714Y-82476190D01*
X101785714Y-82285713D01*
X101833333Y-82190475D01*
X101928571Y-82142856D01*
X102023810Y-82142856D01*
X102119048Y-82619047D01*
X102404762Y-81333332D02*
X102452381Y-81428570D01*
X102452381Y-81619047D01*
X102404762Y-81714285D01*
X102309524Y-81761904D01*
X101928571Y-81761904D01*
X101833333Y-81714285D01*
X101785714Y-81619047D01*
X101785714Y-81428570D01*
X101833333Y-81333332D01*
X101928571Y-81285713D01*
X102023810Y-81285713D01*
X102119048Y-81761904D01*
X101785714Y-80857142D02*
X102452381Y-80857142D01*
X101880952Y-80857142D02*
X101833333Y-80809523D01*
X101785714Y-80714285D01*
X101785714Y-80571427D01*
X101833333Y-80476189D01*
X101928571Y-80428570D01*
X102452381Y-80428570D01*
D11*
X163285715Y-125750000D02*
X164714286Y-125750000D01*
X163000000Y-126607143D02*
X164000000Y-123607143D01*
X165000000Y-126607143D01*
X163214286Y-145035714D02*
X163642857Y-145178571D01*
X163785714Y-145321429D01*
X163928571Y-145607143D01*
X163928571Y-146035714D01*
X163785714Y-146321429D01*
X163642857Y-146464286D01*
X163357143Y-146607143D01*
X162214286Y-146607143D01*
X162214286Y-143607143D01*
X163214286Y-143607143D01*
X163500000Y-143750000D01*
X163642857Y-143892857D01*
X163785714Y-144178571D01*
X163785714Y-144464286D01*
X163642857Y-144750000D01*
X163500000Y-144892857D01*
X163214286Y-145035714D01*
X162214286Y-145035714D01*
X138964286Y-154607143D02*
X139178572Y-154678571D01*
X139535715Y-154678571D01*
X139678572Y-154607143D01*
X139750001Y-154535714D01*
X139821429Y-154392857D01*
X139821429Y-154250000D01*
X139750001Y-154107143D01*
X139678572Y-154035714D01*
X139535715Y-153964286D01*
X139250001Y-153892857D01*
X139107143Y-153821429D01*
X139035715Y-153750000D01*
X138964286Y-153607143D01*
X138964286Y-153464286D01*
X139035715Y-153321429D01*
X139107143Y-153250000D01*
X139250001Y-153178571D01*
X139607143Y-153178571D01*
X139821429Y-153250000D01*
X140250000Y-153178571D02*
X141107143Y-153178571D01*
X140678572Y-154678571D02*
X140678572Y-153178571D01*
X141535714Y-154250000D02*
X142250000Y-154250000D01*
X141392857Y-154678571D02*
X141892857Y-153178571D01*
X142392857Y-154678571D01*
X143750000Y-154678571D02*
X143250000Y-153964286D01*
X142892857Y-154678571D02*
X142892857Y-153178571D01*
X143464285Y-153178571D01*
X143607143Y-153250000D01*
X143678571Y-153321429D01*
X143750000Y-153464286D01*
X143750000Y-153678571D01*
X143678571Y-153821429D01*
X143607143Y-153892857D01*
X143464285Y-153964286D01*
X142892857Y-153964286D01*
X144178571Y-153178571D02*
X145035714Y-153178571D01*
X144607143Y-154678571D02*
X144607143Y-153178571D01*
X146607142Y-153107143D02*
X145321428Y-155035714D01*
X147107143Y-154678571D02*
X147107143Y-153178571D01*
X147678571Y-153178571D01*
X147821429Y-153250000D01*
X147892857Y-153321429D01*
X147964286Y-153464286D01*
X147964286Y-153678571D01*
X147892857Y-153821429D01*
X147821429Y-153892857D01*
X147678571Y-153964286D01*
X147107143Y-153964286D01*
X149464286Y-154678571D02*
X148964286Y-153964286D01*
X148607143Y-154678571D02*
X148607143Y-153178571D01*
X149178571Y-153178571D01*
X149321429Y-153250000D01*
X149392857Y-153321429D01*
X149464286Y-153464286D01*
X149464286Y-153678571D01*
X149392857Y-153821429D01*
X149321429Y-153892857D01*
X149178571Y-153964286D01*
X148607143Y-153964286D01*
X150392857Y-153178571D02*
X150678571Y-153178571D01*
X150821429Y-153250000D01*
X150964286Y-153392857D01*
X151035714Y-153678571D01*
X151035714Y-154178571D01*
X150964286Y-154464286D01*
X150821429Y-154607143D01*
X150678571Y-154678571D01*
X150392857Y-154678571D01*
X150250000Y-154607143D01*
X150107143Y-154464286D01*
X150035714Y-154178571D01*
X150035714Y-153678571D01*
X150107143Y-153392857D01*
X150250000Y-153250000D01*
X150392857Y-153178571D01*
X152464286Y-153250000D02*
X152321429Y-153178571D01*
X152107143Y-153178571D01*
X151892858Y-153250000D01*
X151750000Y-153392857D01*
X151678572Y-153535714D01*
X151607143Y-153821429D01*
X151607143Y-154035714D01*
X151678572Y-154321429D01*
X151750000Y-154464286D01*
X151892858Y-154607143D01*
X152107143Y-154678571D01*
X152250000Y-154678571D01*
X152464286Y-154607143D01*
X152535715Y-154535714D01*
X152535715Y-154035714D01*
X152250000Y-154035714D01*
X154035715Y-154678571D02*
X153535715Y-153964286D01*
X153178572Y-154678571D02*
X153178572Y-153178571D01*
X153750000Y-153178571D01*
X153892858Y-153250000D01*
X153964286Y-153321429D01*
X154035715Y-153464286D01*
X154035715Y-153678571D01*
X153964286Y-153821429D01*
X153892858Y-153892857D01*
X153750000Y-153964286D01*
X153178572Y-153964286D01*
X154607143Y-154250000D02*
X155321429Y-154250000D01*
X154464286Y-154678571D02*
X154964286Y-153178571D01*
X155464286Y-154678571D01*
X155964286Y-154678571D02*
X155964286Y-153178571D01*
X156464286Y-154250000D01*
X156964286Y-153178571D01*
X156964286Y-154678571D01*
X120285714Y-154607143D02*
X120500000Y-154678571D01*
X120857143Y-154678571D01*
X121000000Y-154607143D01*
X121071429Y-154535714D01*
X121142857Y-154392857D01*
X121142857Y-154250000D01*
X121071429Y-154107143D01*
X121000000Y-154035714D01*
X120857143Y-153964286D01*
X120571429Y-153892857D01*
X120428571Y-153821429D01*
X120357143Y-153750000D01*
X120285714Y-153607143D01*
X120285714Y-153464286D01*
X120357143Y-153321429D01*
X120428571Y-153250000D01*
X120571429Y-153178571D01*
X120928571Y-153178571D01*
X121142857Y-153250000D01*
X121785714Y-153892857D02*
X122285714Y-153892857D01*
X122500000Y-154678571D02*
X121785714Y-154678571D01*
X121785714Y-153178571D01*
X122500000Y-153178571D01*
X123857143Y-154678571D02*
X123142857Y-154678571D01*
X123142857Y-153178571D01*
X124357143Y-153892857D02*
X124857143Y-153892857D01*
X125071429Y-154678571D02*
X124357143Y-154678571D01*
X124357143Y-153178571D01*
X125071429Y-153178571D01*
X126571429Y-154535714D02*
X126500000Y-154607143D01*
X126285714Y-154678571D01*
X126142857Y-154678571D01*
X125928572Y-154607143D01*
X125785714Y-154464286D01*
X125714286Y-154321429D01*
X125642857Y-154035714D01*
X125642857Y-153821429D01*
X125714286Y-153535714D01*
X125785714Y-153392857D01*
X125928572Y-153250000D01*
X126142857Y-153178571D01*
X126285714Y-153178571D01*
X126500000Y-153250000D01*
X126571429Y-153321429D01*
X127000000Y-153178571D02*
X127857143Y-153178571D01*
X127428572Y-154678571D02*
X127428572Y-153178571D01*
D13*
X144500000Y-48500000D02*
X144500000Y-54500000D01*
X144500000Y-54500000D02*
X124500000Y-54500000D01*
X124500000Y-48500000D02*
X124500000Y-54500000D01*
X144500000Y-48500000D02*
X124500000Y-48500000D01*
X129250000Y-106500000D02*
X125750000Y-106500000D01*
X125750000Y-106500000D02*
X125750000Y-102500000D01*
X125750000Y-102500000D02*
X129250000Y-102500000D01*
X129250000Y-102500000D02*
X129250000Y-106500000D01*
X162500000Y-124750000D02*
X162500000Y-108750000D01*
X138500000Y-124750000D02*
X162500000Y-124750000D01*
X138500000Y-108750000D02*
X138500000Y-124750000D01*
X162500000Y-108750000D02*
X138500000Y-108750000D01*
X155500000Y-108750000D02*
X155500000Y-124750000D01*
X155500000Y-110750000D02*
X161500000Y-110750000D01*
X157500000Y-119750000D02*
X161500000Y-119750000D01*
X157500000Y-118250000D02*
X157500000Y-119750000D01*
X161500000Y-118250000D02*
X157500000Y-118250000D01*
X161500000Y-116750000D02*
X161500000Y-118250000D01*
X157500000Y-116750000D02*
X161500000Y-116750000D01*
X157500000Y-115250000D02*
X157500000Y-116750000D01*
X161500000Y-115250000D02*
X157500000Y-115250000D01*
X161500000Y-113750000D02*
X161500000Y-115250000D01*
X157500000Y-113750000D02*
X161500000Y-113750000D01*
X157500000Y-112250000D02*
X157500000Y-113750000D01*
X161500000Y-112250000D02*
X157500000Y-112250000D01*
X161500000Y-110750000D02*
X161500000Y-112250000D01*
X156500000Y-110750000D02*
X156500000Y-119750000D01*
X161500000Y-119750000D02*
X161500000Y-123250000D01*
D14*
X102670000Y-76670000D02*
X104000000Y-76670000D01*
X102670000Y-78000000D02*
X102670000Y-76670000D01*
X102670000Y-79270000D02*
X105330000Y-79270000D01*
X105330000Y-79270000D02*
X105330000Y-92030000D01*
X102670000Y-79270000D02*
X102670000Y-92030000D01*
X102670000Y-92030000D02*
X105330000Y-92030000D01*
D13*
X161000000Y-140000000D02*
G75*
G03X161000000Y-140000000I-2000000J0D01*
G01*
X156000000Y-143000000D02*
X156000000Y-137000000D01*
X156000000Y-137000000D02*
X162000000Y-137000000D01*
X162000000Y-137000000D02*
X162000000Y-143000000D01*
X162000000Y-143000000D02*
X156000000Y-143000000D01*
X161000000Y-130500000D02*
G75*
G03X161000000Y-130500000I-2000000J0D01*
G01*
X156000000Y-133500000D02*
X156000000Y-127500000D01*
X156000000Y-127500000D02*
X162000000Y-127500000D01*
X162000000Y-127500000D02*
X162000000Y-133500000D01*
X162000000Y-133500000D02*
X156000000Y-133500000D01*
X150000000Y-149000000D02*
G75*
G03X150000000Y-149000000I-2000000J0D01*
G01*
X145000000Y-152000000D02*
X145000000Y-146000000D01*
X145000000Y-146000000D02*
X151000000Y-146000000D01*
X151000000Y-146000000D02*
X151000000Y-152000000D01*
X151000000Y-152000000D02*
X145000000Y-152000000D01*
X126000000Y-149000000D02*
G75*
G03X126000000Y-149000000I-2000000J0D01*
G01*
X121000000Y-152000000D02*
X121000000Y-146000000D01*
X121000000Y-146000000D02*
X127000000Y-146000000D01*
X127000000Y-146000000D02*
X127000000Y-152000000D01*
X127000000Y-152000000D02*
X121000000Y-152000000D01*
X126500000Y-121000000D02*
G75*
G03X126500000Y-121000000I-2000000J0D01*
G01*
X121500000Y-124000000D02*
X121500000Y-118000000D01*
X121500000Y-118000000D02*
X127500000Y-118000000D01*
X127500000Y-118000000D02*
X127500000Y-124000000D01*
X127500000Y-124000000D02*
X121500000Y-124000000D01*
X120000000Y-128000000D02*
G75*
G03X120000000Y-128000000I-2000000J0D01*
G01*
X115000000Y-131000000D02*
X115000000Y-125000000D01*
X115000000Y-125000000D02*
X121000000Y-125000000D01*
X121000000Y-125000000D02*
X121000000Y-131000000D01*
X121000000Y-131000000D02*
X115000000Y-131000000D01*
X113000000Y-121000000D02*
G75*
G03X113000000Y-121000000I-2000000J0D01*
G01*
X108000000Y-124000000D02*
X108000000Y-118000000D01*
X108000000Y-118000000D02*
X114000000Y-118000000D01*
X114000000Y-118000000D02*
X114000000Y-124000000D01*
X114000000Y-124000000D02*
X108000000Y-124000000D01*
X120000000Y-114000000D02*
G75*
G03X120000000Y-114000000I-2000000J0D01*
G01*
X115000000Y-117000000D02*
X115000000Y-111000000D01*
X115000000Y-111000000D02*
X121000000Y-111000000D01*
X121000000Y-111000000D02*
X121000000Y-117000000D01*
X121000000Y-117000000D02*
X115000000Y-117000000D01*
D14*
X130820000Y-110000000D02*
X130820000Y-109000000D01*
X132180000Y-109000000D02*
X132180000Y-110000000D01*
X127680000Y-109000000D02*
X127680000Y-110000000D01*
X126320000Y-110000000D02*
X126320000Y-109000000D01*
X129180000Y-109000000D02*
X129180000Y-110000000D01*
X127820000Y-110000000D02*
X127820000Y-109000000D01*
X139650000Y-106100000D02*
X139650000Y-105400000D01*
X140850000Y-105400000D02*
X140850000Y-106100000D01*
X126100000Y-109150000D02*
X126100000Y-109850000D01*
X124900000Y-109850000D02*
X124900000Y-109150000D01*
X126350000Y-38400000D02*
X126350000Y-39100000D01*
X125150000Y-39100000D02*
X125150000Y-38400000D01*
X150850000Y-105400000D02*
X150850000Y-106100000D01*
X149650000Y-106100000D02*
X149650000Y-105400000D01*
X105650000Y-109750000D02*
X107350000Y-109750000D01*
X107350000Y-109750000D02*
X107350000Y-107200000D01*
X105650000Y-109750000D02*
X105650000Y-107200000D01*
X107650000Y-109750000D02*
X109350000Y-109750000D01*
X109350000Y-109750000D02*
X109350000Y-107200000D01*
X107650000Y-109750000D02*
X107650000Y-107200000D01*
X111350000Y-106750000D02*
X111350000Y-109300000D01*
X109650000Y-106750000D02*
X109650000Y-109300000D01*
X111350000Y-106750000D02*
X109650000Y-106750000D01*
D13*
X146250000Y-102500000D02*
X146250000Y-106500000D01*
X142750000Y-102500000D02*
X146250000Y-102500000D01*
X142750000Y-106500000D02*
X142750000Y-102500000D01*
X146250000Y-106500000D02*
X142750000Y-106500000D01*
X148250000Y-36000000D02*
X151750000Y-36000000D01*
X151750000Y-36000000D02*
X151750000Y-40000000D01*
X151750000Y-40000000D02*
X148250000Y-40000000D01*
X148250000Y-40000000D02*
X148250000Y-36000000D01*
X120250000Y-40000000D02*
X120250000Y-36000000D01*
X123750000Y-40000000D02*
X120250000Y-40000000D01*
X123750000Y-36000000D02*
X123750000Y-40000000D01*
X120250000Y-36000000D02*
X123750000Y-36000000D01*
D14*
X113350000Y-106750000D02*
X113350000Y-109300000D01*
X111650000Y-106750000D02*
X111650000Y-109300000D01*
X113350000Y-106750000D02*
X111650000Y-106750000D01*
X115350000Y-106750000D02*
X113650000Y-106750000D01*
X113650000Y-106750000D02*
X113650000Y-109300000D01*
X115350000Y-106750000D02*
X115350000Y-109300000D01*
X115650000Y-109750000D02*
X115650000Y-107200000D01*
X117350000Y-109750000D02*
X117350000Y-107200000D01*
X115650000Y-109750000D02*
X117350000Y-109750000D01*
X166670000Y-76670000D02*
X168000000Y-76670000D01*
X166670000Y-78000000D02*
X166670000Y-76670000D01*
X166670000Y-79270000D02*
X169330000Y-79270000D01*
X169330000Y-79270000D02*
X169330000Y-89490000D01*
X166670000Y-79270000D02*
X166670000Y-89490000D01*
X166670000Y-89490000D02*
X169330000Y-89490000D01*
X154930000Y-105250000D02*
X154930000Y-106250000D01*
X153570000Y-106250000D02*
X153570000Y-105250000D01*
X130680000Y-109000000D02*
X130680000Y-110000000D01*
X129320000Y-110000000D02*
X129320000Y-109000000D01*
X132320000Y-110000000D02*
X132320000Y-109000000D01*
X133680000Y-109000000D02*
X133680000Y-110000000D01*
D13*
X149250000Y-48500000D02*
X149250000Y-104500000D01*
X165750000Y-48500000D02*
X149250000Y-48500000D01*
X165750000Y-104500000D02*
X165750000Y-48500000D01*
X149250000Y-104500000D02*
X165750000Y-104500000D01*
X122750000Y-48500000D02*
X106250000Y-48500000D01*
X106250000Y-48500000D02*
X106250000Y-104500000D01*
X106250000Y-104500000D02*
X122750000Y-104500000D01*
X122750000Y-104500000D02*
X122750000Y-48500000D01*
D14*
X148930000Y-105250000D02*
X148930000Y-106250000D01*
X147570000Y-106250000D02*
X147570000Y-105250000D01*
D15*
G36*
X143900043Y-76803840D02*
X143980446Y-76812670D01*
X144511714Y-76899815D01*
X145027226Y-77034236D01*
X145524307Y-77214301D01*
X146000288Y-77438377D01*
X146452497Y-77704832D01*
X146878261Y-78012033D01*
X147274910Y-78358349D01*
X147639772Y-78742147D01*
X147970175Y-79161794D01*
X148075955Y-79315000D01*
X148347461Y-79767514D01*
X148576925Y-80246619D01*
X148762644Y-80748030D01*
X148902914Y-81267460D01*
X148954107Y-81524800D01*
X148984041Y-81737213D01*
X149006627Y-81984269D01*
X149021341Y-82250272D01*
X149027660Y-82519525D01*
X149025061Y-82776331D01*
X149013020Y-83004995D01*
X149005967Y-83080253D01*
X148937787Y-83532035D01*
X148832031Y-83987677D01*
X148692359Y-84436307D01*
X148522429Y-84867053D01*
X148325901Y-85269042D01*
X148191492Y-85500364D01*
X147898943Y-85924811D01*
X147565223Y-86326368D01*
X147196476Y-86698910D01*
X146798844Y-87036312D01*
X146378471Y-87332450D01*
X146312400Y-87373817D01*
X145889934Y-87606928D01*
X145435665Y-87807235D01*
X144959196Y-87971363D01*
X144470133Y-88095936D01*
X144051800Y-88168190D01*
X143900145Y-88183203D01*
X143711322Y-88193672D01*
X143498308Y-88199614D01*
X143274081Y-88201046D01*
X143051618Y-88197983D01*
X142843900Y-88190442D01*
X142663902Y-88178440D01*
X142553200Y-88166286D01*
X142013073Y-88066583D01*
X141493106Y-87920641D01*
X140994961Y-87729429D01*
X140520300Y-87493916D01*
X140070784Y-87215069D01*
X139648074Y-86893857D01*
X139629408Y-86876688D01*
X141489764Y-86876688D01*
X141500198Y-86905221D01*
X141522092Y-86932339D01*
X141522207Y-86932466D01*
X141596081Y-86991323D01*
X141703680Y-87047540D01*
X141835424Y-87098986D01*
X141981735Y-87143534D01*
X142133033Y-87179054D01*
X142279739Y-87203417D01*
X142412273Y-87214495D01*
X142521055Y-87210159D01*
X142596507Y-87188279D01*
X142614219Y-87175151D01*
X142649060Y-87118257D01*
X142687202Y-87017757D01*
X142727363Y-86880638D01*
X142768258Y-86713886D01*
X142808604Y-86524488D01*
X142847118Y-86319431D01*
X142882516Y-86105701D01*
X142913514Y-85890285D01*
X142938830Y-85680170D01*
X142957179Y-85482342D01*
X142967278Y-85303788D01*
X142968642Y-85245900D01*
X142972300Y-84966500D01*
X142848969Y-84905363D01*
X142697086Y-84853285D01*
X142542421Y-84832468D01*
X142359203Y-84820710D01*
X142279843Y-84944405D01*
X142200822Y-85078757D01*
X142110366Y-85251111D01*
X142012937Y-85451220D01*
X141912999Y-85668835D01*
X141815013Y-85893711D01*
X141723444Y-86115600D01*
X141642752Y-86324256D01*
X141577402Y-86509431D01*
X141531856Y-86660877D01*
X141531202Y-86663398D01*
X141504867Y-86767696D01*
X141491188Y-86834819D01*
X141489764Y-86876688D01*
X139629408Y-86876688D01*
X139253833Y-86531249D01*
X138889722Y-86128214D01*
X138746583Y-85947645D01*
X138462815Y-85535282D01*
X138214116Y-85090687D01*
X138003273Y-84620849D01*
X137833071Y-84132760D01*
X137706297Y-83633409D01*
X137626631Y-83137700D01*
X137612134Y-82960287D01*
X137603773Y-82747759D01*
X137601408Y-82515413D01*
X137604902Y-82278544D01*
X137614116Y-82052449D01*
X137628911Y-81852423D01*
X137639117Y-81761050D01*
X137642741Y-81740700D01*
X145258300Y-81740700D01*
X145263093Y-81884772D01*
X145280889Y-82017729D01*
X145321410Y-82148807D01*
X145378181Y-82261829D01*
X145444726Y-82340620D01*
X145445978Y-82341629D01*
X145476410Y-82363226D01*
X145510033Y-82377312D01*
X145556729Y-82384804D01*
X145626379Y-82386620D01*
X145728865Y-82383676D01*
X145842500Y-82378445D01*
X146003723Y-82368713D01*
X146190846Y-82354549D01*
X146379377Y-82337942D01*
X146528300Y-82322742D01*
X146723381Y-82298393D01*
X146920105Y-82269065D01*
X147108857Y-82236583D01*
X147280025Y-82202770D01*
X147423994Y-82169452D01*
X147531149Y-82138453D01*
X147563511Y-82126292D01*
X147646022Y-82073376D01*
X147685368Y-82016500D01*
X147697416Y-81936500D01*
X147690656Y-81821622D01*
X147667865Y-81682974D01*
X147631822Y-81531664D01*
X147585305Y-81378799D01*
X147531091Y-81235487D01*
X147471958Y-81112836D01*
X147450214Y-81076213D01*
X147376019Y-80959221D01*
X147244259Y-80973250D01*
X147140251Y-80992276D01*
X146998180Y-81029867D01*
X146826013Y-81083090D01*
X146631714Y-81149008D01*
X146423247Y-81224688D01*
X146208578Y-81307195D01*
X145995670Y-81393595D01*
X145792489Y-81480954D01*
X145606999Y-81566336D01*
X145523997Y-81607058D01*
X145258300Y-81740700D01*
X137642741Y-81740700D01*
X137731157Y-81244268D01*
X137870964Y-80735232D01*
X138056125Y-80239650D01*
X138235502Y-79864995D01*
X139722548Y-79864995D01*
X139732246Y-79917881D01*
X139783750Y-79997348D01*
X139876178Y-80102439D01*
X140008645Y-80232200D01*
X140180268Y-80385674D01*
X140291276Y-80480051D01*
X140458936Y-80618082D01*
X140629109Y-80753881D01*
X140796551Y-80883633D01*
X140956016Y-81003523D01*
X141102258Y-81109735D01*
X141230033Y-81198455D01*
X141334094Y-81265868D01*
X141409197Y-81308159D01*
X141448377Y-81321600D01*
X141485347Y-81307623D01*
X141545424Y-81272046D01*
X141581571Y-81247136D01*
X141724809Y-81115116D01*
X141840103Y-80951190D01*
X141851449Y-80930035D01*
X141873005Y-80879800D01*
X141873148Y-80836620D01*
X141850106Y-80778635D01*
X141837049Y-80752401D01*
X141765473Y-80622890D01*
X141673110Y-80473815D01*
X141564248Y-80310612D01*
X141443173Y-80138720D01*
X141314173Y-79963577D01*
X141181536Y-79790621D01*
X141049548Y-79625290D01*
X140922497Y-79473022D01*
X140804671Y-79339254D01*
X140700356Y-79229426D01*
X140613840Y-79148975D01*
X140549410Y-79103338D01*
X140531280Y-79096172D01*
X140455999Y-79102004D01*
X140356678Y-79149972D01*
X140235493Y-79238699D01*
X140094619Y-79366809D01*
X140078487Y-79382775D01*
X139962846Y-79506305D01*
X139861607Y-79630202D01*
X139782100Y-79744536D01*
X139731655Y-79839375D01*
X139722548Y-79864995D01*
X138235502Y-79864995D01*
X138284225Y-79763231D01*
X138552851Y-79311684D01*
X138845259Y-78908600D01*
X138989426Y-78739787D01*
X139163892Y-78554430D01*
X139356633Y-78364079D01*
X139555625Y-78180286D01*
X139748842Y-78014601D01*
X139896003Y-77899264D01*
X140338497Y-77602212D01*
X140804615Y-77349035D01*
X141290834Y-77140669D01*
X141793626Y-76978053D01*
X142309469Y-76862124D01*
X142834836Y-76793820D01*
X143366202Y-76774080D01*
X143900043Y-76803840D01*
X143900043Y-76803840D01*
G37*
X143900043Y-76803840D02*
X143980446Y-76812670D01*
X144511714Y-76899815D01*
X145027226Y-77034236D01*
X145524307Y-77214301D01*
X146000288Y-77438377D01*
X146452497Y-77704832D01*
X146878261Y-78012033D01*
X147274910Y-78358349D01*
X147639772Y-78742147D01*
X147970175Y-79161794D01*
X148075955Y-79315000D01*
X148347461Y-79767514D01*
X148576925Y-80246619D01*
X148762644Y-80748030D01*
X148902914Y-81267460D01*
X148954107Y-81524800D01*
X148984041Y-81737213D01*
X149006627Y-81984269D01*
X149021341Y-82250272D01*
X149027660Y-82519525D01*
X149025061Y-82776331D01*
X149013020Y-83004995D01*
X149005967Y-83080253D01*
X148937787Y-83532035D01*
X148832031Y-83987677D01*
X148692359Y-84436307D01*
X148522429Y-84867053D01*
X148325901Y-85269042D01*
X148191492Y-85500364D01*
X147898943Y-85924811D01*
X147565223Y-86326368D01*
X147196476Y-86698910D01*
X146798844Y-87036312D01*
X146378471Y-87332450D01*
X146312400Y-87373817D01*
X145889934Y-87606928D01*
X145435665Y-87807235D01*
X144959196Y-87971363D01*
X144470133Y-88095936D01*
X144051800Y-88168190D01*
X143900145Y-88183203D01*
X143711322Y-88193672D01*
X143498308Y-88199614D01*
X143274081Y-88201046D01*
X143051618Y-88197983D01*
X142843900Y-88190442D01*
X142663902Y-88178440D01*
X142553200Y-88166286D01*
X142013073Y-88066583D01*
X141493106Y-87920641D01*
X140994961Y-87729429D01*
X140520300Y-87493916D01*
X140070784Y-87215069D01*
X139648074Y-86893857D01*
X139629408Y-86876688D01*
X141489764Y-86876688D01*
X141500198Y-86905221D01*
X141522092Y-86932339D01*
X141522207Y-86932466D01*
X141596081Y-86991323D01*
X141703680Y-87047540D01*
X141835424Y-87098986D01*
X141981735Y-87143534D01*
X142133033Y-87179054D01*
X142279739Y-87203417D01*
X142412273Y-87214495D01*
X142521055Y-87210159D01*
X142596507Y-87188279D01*
X142614219Y-87175151D01*
X142649060Y-87118257D01*
X142687202Y-87017757D01*
X142727363Y-86880638D01*
X142768258Y-86713886D01*
X142808604Y-86524488D01*
X142847118Y-86319431D01*
X142882516Y-86105701D01*
X142913514Y-85890285D01*
X142938830Y-85680170D01*
X142957179Y-85482342D01*
X142967278Y-85303788D01*
X142968642Y-85245900D01*
X142972300Y-84966500D01*
X142848969Y-84905363D01*
X142697086Y-84853285D01*
X142542421Y-84832468D01*
X142359203Y-84820710D01*
X142279843Y-84944405D01*
X142200822Y-85078757D01*
X142110366Y-85251111D01*
X142012937Y-85451220D01*
X141912999Y-85668835D01*
X141815013Y-85893711D01*
X141723444Y-86115600D01*
X141642752Y-86324256D01*
X141577402Y-86509431D01*
X141531856Y-86660877D01*
X141531202Y-86663398D01*
X141504867Y-86767696D01*
X141491188Y-86834819D01*
X141489764Y-86876688D01*
X139629408Y-86876688D01*
X139253833Y-86531249D01*
X138889722Y-86128214D01*
X138746583Y-85947645D01*
X138462815Y-85535282D01*
X138214116Y-85090687D01*
X138003273Y-84620849D01*
X137833071Y-84132760D01*
X137706297Y-83633409D01*
X137626631Y-83137700D01*
X137612134Y-82960287D01*
X137603773Y-82747759D01*
X137601408Y-82515413D01*
X137604902Y-82278544D01*
X137614116Y-82052449D01*
X137628911Y-81852423D01*
X137639117Y-81761050D01*
X137642741Y-81740700D01*
X145258300Y-81740700D01*
X145263093Y-81884772D01*
X145280889Y-82017729D01*
X145321410Y-82148807D01*
X145378181Y-82261829D01*
X145444726Y-82340620D01*
X145445978Y-82341629D01*
X145476410Y-82363226D01*
X145510033Y-82377312D01*
X145556729Y-82384804D01*
X145626379Y-82386620D01*
X145728865Y-82383676D01*
X145842500Y-82378445D01*
X146003723Y-82368713D01*
X146190846Y-82354549D01*
X146379377Y-82337942D01*
X146528300Y-82322742D01*
X146723381Y-82298393D01*
X146920105Y-82269065D01*
X147108857Y-82236583D01*
X147280025Y-82202770D01*
X147423994Y-82169452D01*
X147531149Y-82138453D01*
X147563511Y-82126292D01*
X147646022Y-82073376D01*
X147685368Y-82016500D01*
X147697416Y-81936500D01*
X147690656Y-81821622D01*
X147667865Y-81682974D01*
X147631822Y-81531664D01*
X147585305Y-81378799D01*
X147531091Y-81235487D01*
X147471958Y-81112836D01*
X147450214Y-81076213D01*
X147376019Y-80959221D01*
X147244259Y-80973250D01*
X147140251Y-80992276D01*
X146998180Y-81029867D01*
X146826013Y-81083090D01*
X146631714Y-81149008D01*
X146423247Y-81224688D01*
X146208578Y-81307195D01*
X145995670Y-81393595D01*
X145792489Y-81480954D01*
X145606999Y-81566336D01*
X145523997Y-81607058D01*
X145258300Y-81740700D01*
X137642741Y-81740700D01*
X137731157Y-81244268D01*
X137870964Y-80735232D01*
X138056125Y-80239650D01*
X138235502Y-79864995D01*
X139722548Y-79864995D01*
X139732246Y-79917881D01*
X139783750Y-79997348D01*
X139876178Y-80102439D01*
X140008645Y-80232200D01*
X140180268Y-80385674D01*
X140291276Y-80480051D01*
X140458936Y-80618082D01*
X140629109Y-80753881D01*
X140796551Y-80883633D01*
X140956016Y-81003523D01*
X141102258Y-81109735D01*
X141230033Y-81198455D01*
X141334094Y-81265868D01*
X141409197Y-81308159D01*
X141448377Y-81321600D01*
X141485347Y-81307623D01*
X141545424Y-81272046D01*
X141581571Y-81247136D01*
X141724809Y-81115116D01*
X141840103Y-80951190D01*
X141851449Y-80930035D01*
X141873005Y-80879800D01*
X141873148Y-80836620D01*
X141850106Y-80778635D01*
X141837049Y-80752401D01*
X141765473Y-80622890D01*
X141673110Y-80473815D01*
X141564248Y-80310612D01*
X141443173Y-80138720D01*
X141314173Y-79963577D01*
X141181536Y-79790621D01*
X141049548Y-79625290D01*
X140922497Y-79473022D01*
X140804671Y-79339254D01*
X140700356Y-79229426D01*
X140613840Y-79148975D01*
X140549410Y-79103338D01*
X140531280Y-79096172D01*
X140455999Y-79102004D01*
X140356678Y-79149972D01*
X140235493Y-79238699D01*
X140094619Y-79366809D01*
X140078487Y-79382775D01*
X139962846Y-79506305D01*
X139861607Y-79630202D01*
X139782100Y-79744536D01*
X139731655Y-79839375D01*
X139722548Y-79864995D01*
X138235502Y-79864995D01*
X138284225Y-79763231D01*
X138552851Y-79311684D01*
X138845259Y-78908600D01*
X138989426Y-78739787D01*
X139163892Y-78554430D01*
X139356633Y-78364079D01*
X139555625Y-78180286D01*
X139748842Y-78014601D01*
X139896003Y-77899264D01*
X140338497Y-77602212D01*
X140804615Y-77349035D01*
X141290834Y-77140669D01*
X141793626Y-76978053D01*
X142309469Y-76862124D01*
X142834836Y-76793820D01*
X143366202Y-76774080D01*
X143900043Y-76803840D01*
G36*
X131324739Y-76779727D02*
X131685139Y-76799371D01*
X132038132Y-76836743D01*
X132365820Y-76890769D01*
X132431300Y-76904469D01*
X132943934Y-77042018D01*
X133439015Y-77226162D01*
X133913526Y-77454818D01*
X134364448Y-77725905D01*
X134788764Y-78037342D01*
X135183457Y-78387046D01*
X135545509Y-78772937D01*
X135871903Y-79192932D01*
X135980764Y-79353100D01*
X136255318Y-79817228D01*
X136481943Y-80298190D01*
X136660633Y-80795970D01*
X136791383Y-81310550D01*
X136874189Y-81841913D01*
X136906190Y-82286800D01*
X136901017Y-82831672D01*
X136846771Y-83365752D01*
X136744352Y-83886791D01*
X136594658Y-84392539D01*
X136398587Y-84880750D01*
X136157037Y-85349173D01*
X135870907Y-85795562D01*
X135541094Y-86217668D01*
X135183866Y-86598293D01*
X134854092Y-86897990D01*
X134514689Y-87160318D01*
X134152759Y-87394299D01*
X133755408Y-87608956D01*
X133701300Y-87635513D01*
X133220916Y-87844090D01*
X132733838Y-88005254D01*
X132231091Y-88121652D01*
X131860466Y-88178477D01*
X131721751Y-88190483D01*
X131544948Y-88198128D01*
X131342570Y-88201550D01*
X131127130Y-88200889D01*
X130911138Y-88196282D01*
X130707109Y-88187868D01*
X130527555Y-88175786D01*
X130400332Y-88162310D01*
X129887252Y-88068237D01*
X129387183Y-87926736D01*
X128903339Y-87740135D01*
X128438935Y-87510760D01*
X127997186Y-87240940D01*
X127581307Y-86933001D01*
X127194512Y-86589271D01*
X126840016Y-86212076D01*
X126521034Y-85803745D01*
X126240780Y-85366604D01*
X126237867Y-85361096D01*
X127359902Y-85361096D01*
X127418059Y-85481233D01*
X127470630Y-85566139D01*
X127550241Y-85665629D01*
X127648982Y-85772532D01*
X127758945Y-85879681D01*
X127872222Y-85979905D01*
X127980904Y-86066034D01*
X128077081Y-86130899D01*
X128152846Y-86167331D01*
X128180746Y-86172647D01*
X128207934Y-86157920D01*
X128260645Y-86119551D01*
X128307746Y-86081959D01*
X128395878Y-86002404D01*
X128502035Y-85895489D01*
X128621899Y-85766580D01*
X128751152Y-85621045D01*
X128885476Y-85464249D01*
X129020553Y-85301561D01*
X129152064Y-85138346D01*
X129275692Y-84979973D01*
X129387118Y-84831807D01*
X129482025Y-84699216D01*
X129556093Y-84587567D01*
X129605005Y-84502226D01*
X129624443Y-84448561D01*
X129624600Y-84445275D01*
X129606711Y-84401029D01*
X129559532Y-84334757D01*
X129492792Y-84256961D01*
X129416218Y-84178143D01*
X129339541Y-84108805D01*
X129272489Y-84059451D01*
X129261162Y-84052942D01*
X129173267Y-84005607D01*
X129036983Y-84076149D01*
X128894540Y-84155504D01*
X128731209Y-84255926D01*
X128553549Y-84372525D01*
X128368117Y-84500411D01*
X128181470Y-84634696D01*
X128000168Y-84770491D01*
X127830767Y-84902905D01*
X127679826Y-85027050D01*
X127553902Y-85138036D01*
X127459554Y-85230974D01*
X127412390Y-85287383D01*
X127359902Y-85361096D01*
X126237867Y-85361096D01*
X126056033Y-85017300D01*
X125854443Y-84554728D01*
X125698533Y-84093465D01*
X125586451Y-83625279D01*
X125551869Y-83386865D01*
X133080664Y-83386865D01*
X133086889Y-83437712D01*
X133112640Y-83476422D01*
X133164096Y-83521645D01*
X133250741Y-83583114D01*
X133373935Y-83656622D01*
X133526584Y-83739046D01*
X133701594Y-83827258D01*
X133891869Y-83918135D01*
X134090315Y-84008550D01*
X134289837Y-84095379D01*
X134483342Y-84175495D01*
X134663733Y-84245775D01*
X134823918Y-84303092D01*
X134956800Y-84344322D01*
X135055287Y-84366339D01*
X135088013Y-84369163D01*
X135154844Y-84352402D01*
X135195202Y-84323990D01*
X135256389Y-84234576D01*
X135315865Y-84109216D01*
X135370354Y-83960186D01*
X135416581Y-83799761D01*
X135451267Y-83640217D01*
X135471139Y-83493829D01*
X135472920Y-83372873D01*
X135463861Y-83317320D01*
X135442285Y-83262561D01*
X135405235Y-83225148D01*
X135338180Y-83192397D01*
X135307080Y-83180485D01*
X135178742Y-83139636D01*
X135008320Y-83095711D01*
X134804310Y-83050370D01*
X134575204Y-83005273D01*
X134329500Y-82962080D01*
X134075690Y-82922452D01*
X133822271Y-82888049D01*
X133790958Y-82884188D01*
X133615070Y-82863651D01*
X133482092Y-82850955D01*
X133384689Y-82846450D01*
X133315525Y-82850487D01*
X133267267Y-82863416D01*
X133232579Y-82885588D01*
X133208225Y-82912039D01*
X133149456Y-83016159D01*
X133108421Y-83158821D01*
X133087174Y-83304723D01*
X133080664Y-83386865D01*
X125551869Y-83386865D01*
X125516341Y-83141940D01*
X125486351Y-82635216D01*
X125484895Y-82481319D01*
X125497837Y-82049504D01*
X125537198Y-81647903D01*
X125605242Y-81262044D01*
X125704233Y-80877452D01*
X125766699Y-80679130D01*
X125958924Y-80180072D01*
X126193398Y-79707107D01*
X126467678Y-79262176D01*
X126779325Y-78847216D01*
X127125895Y-78464168D01*
X127149686Y-78442250D01*
X129412990Y-78442250D01*
X129444416Y-78601984D01*
X129474546Y-78729767D01*
X129519447Y-78886446D01*
X129576410Y-79065054D01*
X129642723Y-79258625D01*
X129715677Y-79460192D01*
X129792559Y-79662788D01*
X129870661Y-79859445D01*
X129947270Y-80043197D01*
X130019677Y-80207076D01*
X130085171Y-80344116D01*
X130141040Y-80447350D01*
X130184576Y-80509811D01*
X130188143Y-80513543D01*
X130233234Y-80541608D01*
X130297703Y-80549077D01*
X130389964Y-80535478D01*
X130518430Y-80500341D01*
X130539000Y-80493924D01*
X130630112Y-80459657D01*
X130716329Y-80418692D01*
X130735850Y-80407510D01*
X130818400Y-80357146D01*
X130818378Y-80020223D01*
X130814245Y-79788066D01*
X130802492Y-79549683D01*
X130784047Y-79311149D01*
X130759836Y-79078539D01*
X130730787Y-78857927D01*
X130697827Y-78655388D01*
X130661882Y-78476997D01*
X130623881Y-78328828D01*
X130584750Y-78216957D01*
X130545416Y-78147458D01*
X130530396Y-78133272D01*
X130468078Y-78107406D01*
X130390025Y-78095842D01*
X130385613Y-78095800D01*
X130253545Y-78106302D01*
X130099213Y-78135015D01*
X129936115Y-78177748D01*
X129777749Y-78230311D01*
X129637612Y-78288514D01*
X129529203Y-78348164D01*
X129497830Y-78371422D01*
X129412990Y-78442250D01*
X127149686Y-78442250D01*
X127504949Y-78114970D01*
X127914045Y-77801561D01*
X128350741Y-77525881D01*
X128812596Y-77289868D01*
X129297169Y-77095461D01*
X129802018Y-76944600D01*
X130324702Y-76839223D01*
X130653300Y-76797908D01*
X130974827Y-76778881D01*
X131324739Y-76779727D01*
X131324739Y-76779727D01*
G37*
X131324739Y-76779727D02*
X131685139Y-76799371D01*
X132038132Y-76836743D01*
X132365820Y-76890769D01*
X132431300Y-76904469D01*
X132943934Y-77042018D01*
X133439015Y-77226162D01*
X133913526Y-77454818D01*
X134364448Y-77725905D01*
X134788764Y-78037342D01*
X135183457Y-78387046D01*
X135545509Y-78772937D01*
X135871903Y-79192932D01*
X135980764Y-79353100D01*
X136255318Y-79817228D01*
X136481943Y-80298190D01*
X136660633Y-80795970D01*
X136791383Y-81310550D01*
X136874189Y-81841913D01*
X136906190Y-82286800D01*
X136901017Y-82831672D01*
X136846771Y-83365752D01*
X136744352Y-83886791D01*
X136594658Y-84392539D01*
X136398587Y-84880750D01*
X136157037Y-85349173D01*
X135870907Y-85795562D01*
X135541094Y-86217668D01*
X135183866Y-86598293D01*
X134854092Y-86897990D01*
X134514689Y-87160318D01*
X134152759Y-87394299D01*
X133755408Y-87608956D01*
X133701300Y-87635513D01*
X133220916Y-87844090D01*
X132733838Y-88005254D01*
X132231091Y-88121652D01*
X131860466Y-88178477D01*
X131721751Y-88190483D01*
X131544948Y-88198128D01*
X131342570Y-88201550D01*
X131127130Y-88200889D01*
X130911138Y-88196282D01*
X130707109Y-88187868D01*
X130527555Y-88175786D01*
X130400332Y-88162310D01*
X129887252Y-88068237D01*
X129387183Y-87926736D01*
X128903339Y-87740135D01*
X128438935Y-87510760D01*
X127997186Y-87240940D01*
X127581307Y-86933001D01*
X127194512Y-86589271D01*
X126840016Y-86212076D01*
X126521034Y-85803745D01*
X126240780Y-85366604D01*
X126237867Y-85361096D01*
X127359902Y-85361096D01*
X127418059Y-85481233D01*
X127470630Y-85566139D01*
X127550241Y-85665629D01*
X127648982Y-85772532D01*
X127758945Y-85879681D01*
X127872222Y-85979905D01*
X127980904Y-86066034D01*
X128077081Y-86130899D01*
X128152846Y-86167331D01*
X128180746Y-86172647D01*
X128207934Y-86157920D01*
X128260645Y-86119551D01*
X128307746Y-86081959D01*
X128395878Y-86002404D01*
X128502035Y-85895489D01*
X128621899Y-85766580D01*
X128751152Y-85621045D01*
X128885476Y-85464249D01*
X129020553Y-85301561D01*
X129152064Y-85138346D01*
X129275692Y-84979973D01*
X129387118Y-84831807D01*
X129482025Y-84699216D01*
X129556093Y-84587567D01*
X129605005Y-84502226D01*
X129624443Y-84448561D01*
X129624600Y-84445275D01*
X129606711Y-84401029D01*
X129559532Y-84334757D01*
X129492792Y-84256961D01*
X129416218Y-84178143D01*
X129339541Y-84108805D01*
X129272489Y-84059451D01*
X129261162Y-84052942D01*
X129173267Y-84005607D01*
X129036983Y-84076149D01*
X128894540Y-84155504D01*
X128731209Y-84255926D01*
X128553549Y-84372525D01*
X128368117Y-84500411D01*
X128181470Y-84634696D01*
X128000168Y-84770491D01*
X127830767Y-84902905D01*
X127679826Y-85027050D01*
X127553902Y-85138036D01*
X127459554Y-85230974D01*
X127412390Y-85287383D01*
X127359902Y-85361096D01*
X126237867Y-85361096D01*
X126056033Y-85017300D01*
X125854443Y-84554728D01*
X125698533Y-84093465D01*
X125586451Y-83625279D01*
X125551869Y-83386865D01*
X133080664Y-83386865D01*
X133086889Y-83437712D01*
X133112640Y-83476422D01*
X133164096Y-83521645D01*
X133250741Y-83583114D01*
X133373935Y-83656622D01*
X133526584Y-83739046D01*
X133701594Y-83827258D01*
X133891869Y-83918135D01*
X134090315Y-84008550D01*
X134289837Y-84095379D01*
X134483342Y-84175495D01*
X134663733Y-84245775D01*
X134823918Y-84303092D01*
X134956800Y-84344322D01*
X135055287Y-84366339D01*
X135088013Y-84369163D01*
X135154844Y-84352402D01*
X135195202Y-84323990D01*
X135256389Y-84234576D01*
X135315865Y-84109216D01*
X135370354Y-83960186D01*
X135416581Y-83799761D01*
X135451267Y-83640217D01*
X135471139Y-83493829D01*
X135472920Y-83372873D01*
X135463861Y-83317320D01*
X135442285Y-83262561D01*
X135405235Y-83225148D01*
X135338180Y-83192397D01*
X135307080Y-83180485D01*
X135178742Y-83139636D01*
X135008320Y-83095711D01*
X134804310Y-83050370D01*
X134575204Y-83005273D01*
X134329500Y-82962080D01*
X134075690Y-82922452D01*
X133822271Y-82888049D01*
X133790958Y-82884188D01*
X133615070Y-82863651D01*
X133482092Y-82850955D01*
X133384689Y-82846450D01*
X133315525Y-82850487D01*
X133267267Y-82863416D01*
X133232579Y-82885588D01*
X133208225Y-82912039D01*
X133149456Y-83016159D01*
X133108421Y-83158821D01*
X133087174Y-83304723D01*
X133080664Y-83386865D01*
X125551869Y-83386865D01*
X125516341Y-83141940D01*
X125486351Y-82635216D01*
X125484895Y-82481319D01*
X125497837Y-82049504D01*
X125537198Y-81647903D01*
X125605242Y-81262044D01*
X125704233Y-80877452D01*
X125766699Y-80679130D01*
X125958924Y-80180072D01*
X126193398Y-79707107D01*
X126467678Y-79262176D01*
X126779325Y-78847216D01*
X127125895Y-78464168D01*
X127149686Y-78442250D01*
X129412990Y-78442250D01*
X129444416Y-78601984D01*
X129474546Y-78729767D01*
X129519447Y-78886446D01*
X129576410Y-79065054D01*
X129642723Y-79258625D01*
X129715677Y-79460192D01*
X129792559Y-79662788D01*
X129870661Y-79859445D01*
X129947270Y-80043197D01*
X130019677Y-80207076D01*
X130085171Y-80344116D01*
X130141040Y-80447350D01*
X130184576Y-80509811D01*
X130188143Y-80513543D01*
X130233234Y-80541608D01*
X130297703Y-80549077D01*
X130389964Y-80535478D01*
X130518430Y-80500341D01*
X130539000Y-80493924D01*
X130630112Y-80459657D01*
X130716329Y-80418692D01*
X130735850Y-80407510D01*
X130818400Y-80357146D01*
X130818378Y-80020223D01*
X130814245Y-79788066D01*
X130802492Y-79549683D01*
X130784047Y-79311149D01*
X130759836Y-79078539D01*
X130730787Y-78857927D01*
X130697827Y-78655388D01*
X130661882Y-78476997D01*
X130623881Y-78328828D01*
X130584750Y-78216957D01*
X130545416Y-78147458D01*
X130530396Y-78133272D01*
X130468078Y-78107406D01*
X130390025Y-78095842D01*
X130385613Y-78095800D01*
X130253545Y-78106302D01*
X130099213Y-78135015D01*
X129936115Y-78177748D01*
X129777749Y-78230311D01*
X129637612Y-78288514D01*
X129529203Y-78348164D01*
X129497830Y-78371422D01*
X129412990Y-78442250D01*
X127149686Y-78442250D01*
X127504949Y-78114970D01*
X127914045Y-77801561D01*
X128350741Y-77525881D01*
X128812596Y-77289868D01*
X129297169Y-77095461D01*
X129802018Y-76944600D01*
X130324702Y-76839223D01*
X130653300Y-76797908D01*
X130974827Y-76778881D01*
X131324739Y-76779727D01*
G36*
X144313494Y-72536308D02*
X145047060Y-72536462D01*
X145736820Y-72536715D01*
X146383551Y-72537067D01*
X146988030Y-72537519D01*
X147551035Y-72538074D01*
X148073343Y-72538730D01*
X148555730Y-72539491D01*
X148998974Y-72540356D01*
X149403852Y-72541328D01*
X149771140Y-72542406D01*
X150101617Y-72543593D01*
X150396059Y-72544888D01*
X150655243Y-72546294D01*
X150879947Y-72547811D01*
X151070947Y-72549440D01*
X151229021Y-72551183D01*
X151354946Y-72553040D01*
X151449498Y-72555013D01*
X151513455Y-72557102D01*
X151543487Y-72558892D01*
X152145911Y-72638252D01*
X152734919Y-72765370D01*
X153308210Y-72938432D01*
X153863479Y-73155625D01*
X154398424Y-73415137D01*
X154910743Y-73715154D01*
X155398131Y-74053864D01*
X155858287Y-74429455D01*
X156288908Y-74840113D01*
X156687690Y-75284025D01*
X157052331Y-75759379D01*
X157380527Y-76264362D01*
X157669976Y-76797161D01*
X157918375Y-77355964D01*
X158034953Y-77668815D01*
X158190056Y-78179494D01*
X158313558Y-78729590D01*
X158405506Y-79319317D01*
X158408119Y-79340400D01*
X158413429Y-79410103D01*
X158418310Y-79526710D01*
X158422762Y-79686329D01*
X158426784Y-79885065D01*
X158430379Y-80119025D01*
X158433545Y-80384314D01*
X158436284Y-80677041D01*
X158438596Y-80993310D01*
X158440480Y-81329229D01*
X158441939Y-81680903D01*
X158442971Y-82044439D01*
X158443577Y-82415944D01*
X158443758Y-82791524D01*
X158443514Y-83167285D01*
X158442846Y-83539334D01*
X158441753Y-83903776D01*
X158440237Y-84256719D01*
X158438297Y-84594269D01*
X158435934Y-84912532D01*
X158433149Y-85207615D01*
X158429941Y-85475624D01*
X158426312Y-85712665D01*
X158422261Y-85914845D01*
X158417788Y-86078270D01*
X158412896Y-86199046D01*
X158407583Y-86273281D01*
X158407434Y-86274600D01*
X158346873Y-86692867D01*
X158261140Y-87122625D01*
X158154250Y-87547445D01*
X158030220Y-87950894D01*
X157931417Y-88221831D01*
X157681122Y-88790664D01*
X157389542Y-89331718D01*
X157058875Y-89843343D01*
X156691317Y-90323890D01*
X156289066Y-90771709D01*
X155854319Y-91185151D01*
X155389272Y-91562567D01*
X154896122Y-91902306D01*
X154377067Y-92202720D01*
X153834303Y-92462160D01*
X153270026Y-92678975D01*
X152686435Y-92851516D01*
X152085726Y-92978134D01*
X151494000Y-93055040D01*
X151448075Y-93057195D01*
X151358632Y-93059241D01*
X151225362Y-93061180D01*
X151047958Y-93063011D01*
X150826113Y-93064736D01*
X150559521Y-93066354D01*
X150247874Y-93067867D01*
X149890866Y-93069274D01*
X149488188Y-93070576D01*
X149039535Y-93071774D01*
X148544599Y-93072869D01*
X148003073Y-93073860D01*
X147414651Y-93074747D01*
X146779024Y-93075533D01*
X146095887Y-93076216D01*
X145364931Y-93076799D01*
X144585851Y-93077280D01*
X143758338Y-93077660D01*
X142882087Y-93077941D01*
X141956789Y-93078121D01*
X140982139Y-93078203D01*
X139957828Y-93078186D01*
X138883550Y-93078071D01*
X137758998Y-93077859D01*
X136927100Y-93077648D01*
X136077138Y-93077396D01*
X135239611Y-93077117D01*
X134415964Y-93076813D01*
X133607644Y-93076484D01*
X132816097Y-93076133D01*
X132042770Y-93075761D01*
X131289109Y-93075368D01*
X130556561Y-93074956D01*
X129846571Y-93074527D01*
X129160586Y-93074081D01*
X128500053Y-93073620D01*
X127866418Y-93073145D01*
X127261127Y-93072658D01*
X126685626Y-93072159D01*
X126141363Y-93071651D01*
X125629783Y-93071133D01*
X125152333Y-93070609D01*
X124710460Y-93070078D01*
X124305608Y-93069542D01*
X123939226Y-93069002D01*
X123612759Y-93068461D01*
X123327654Y-93067918D01*
X123085357Y-93067375D01*
X122887314Y-93066834D01*
X122734973Y-93066295D01*
X122629778Y-93065761D01*
X122573177Y-93065232D01*
X122563400Y-93064957D01*
X122333588Y-93041415D01*
X122141738Y-93019229D01*
X121975103Y-92996658D01*
X121820941Y-92971957D01*
X121666506Y-92943386D01*
X121649000Y-92939941D01*
X121051104Y-92796080D01*
X120469000Y-92604976D01*
X119905527Y-92368410D01*
X119363523Y-92088165D01*
X118845827Y-91766021D01*
X118355277Y-91403762D01*
X117894714Y-91003168D01*
X117466975Y-90566022D01*
X117074900Y-90094104D01*
X117038838Y-90046500D01*
X116682059Y-89530181D01*
X116371415Y-88992799D01*
X116107303Y-88435391D01*
X115890118Y-87858999D01*
X115720257Y-87264661D01*
X115598115Y-86653418D01*
X115528834Y-86084100D01*
X115524807Y-86010412D01*
X115521113Y-85889976D01*
X115517753Y-85726843D01*
X115514727Y-85525064D01*
X115512035Y-85288690D01*
X115509676Y-85021773D01*
X115507652Y-84728362D01*
X115505963Y-84412509D01*
X115504607Y-84078266D01*
X115503585Y-83729682D01*
X115502898Y-83370810D01*
X115502545Y-83005699D01*
X115502531Y-82700611D01*
X117496484Y-82700611D01*
X117496505Y-82820200D01*
X117496814Y-83164324D01*
X117497823Y-83463018D01*
X117499953Y-83721648D01*
X117503626Y-83945581D01*
X117509266Y-84140186D01*
X117517292Y-84310831D01*
X117528128Y-84462882D01*
X117542196Y-84601709D01*
X117559918Y-84732678D01*
X117581716Y-84861157D01*
X117608011Y-84992514D01*
X117639227Y-85132117D01*
X117675784Y-85285333D01*
X117697226Y-85372900D01*
X117868556Y-85965380D01*
X118084461Y-86536030D01*
X118342804Y-87082993D01*
X118641453Y-87604412D01*
X118978272Y-88098431D01*
X119351127Y-88563194D01*
X119757883Y-88996845D01*
X120196406Y-89397526D01*
X120664562Y-89763382D01*
X121160216Y-90092557D01*
X121681234Y-90383193D01*
X122225480Y-90633434D01*
X122790821Y-90841425D01*
X123375123Y-91005309D01*
X123976250Y-91123228D01*
X124366800Y-91173511D01*
X124406124Y-91174949D01*
X124494748Y-91176347D01*
X124631168Y-91177702D01*
X124813883Y-91179013D01*
X125041392Y-91180278D01*
X125312193Y-91181494D01*
X125624784Y-91182659D01*
X125977664Y-91183770D01*
X126369332Y-91184826D01*
X126798285Y-91185825D01*
X127263022Y-91186763D01*
X127762041Y-91187639D01*
X128293842Y-91188452D01*
X128856921Y-91189197D01*
X129449778Y-91189874D01*
X130070911Y-91190480D01*
X130718819Y-91191012D01*
X131391999Y-91191470D01*
X132088951Y-91191849D01*
X132808173Y-91192149D01*
X133548162Y-91192367D01*
X134307418Y-91192501D01*
X135084439Y-91192548D01*
X135877723Y-91192506D01*
X136685769Y-91192374D01*
X137092200Y-91192274D01*
X149601700Y-91188846D01*
X149944600Y-91132261D01*
X150578035Y-91003247D01*
X151188796Y-90829116D01*
X151776287Y-90610127D01*
X152339914Y-90346543D01*
X152879080Y-90038625D01*
X153393190Y-89686635D01*
X153602200Y-89525161D01*
X153762209Y-89390260D01*
X153942646Y-89226557D01*
X154133303Y-89044242D01*
X154323975Y-88853505D01*
X154504457Y-88664534D01*
X154664543Y-88487519D01*
X154784084Y-88345175D01*
X155139904Y-87861532D01*
X155458942Y-87349574D01*
X155738312Y-86815283D01*
X155975127Y-86264641D01*
X156166501Y-85703630D01*
X156291858Y-85220500D01*
X156327068Y-85057848D01*
X156356871Y-84909516D01*
X156381767Y-84769250D01*
X156402257Y-84630799D01*
X156418841Y-84487908D01*
X156432020Y-84334326D01*
X156442295Y-84163798D01*
X156450166Y-83970073D01*
X156456134Y-83746897D01*
X156460700Y-83488017D01*
X156464364Y-83187181D01*
X156465736Y-83048800D01*
X156468438Y-82691621D01*
X156469162Y-82379492D01*
X156467658Y-82106694D01*
X156463678Y-81867505D01*
X156456972Y-81656206D01*
X156447293Y-81467077D01*
X156434390Y-81294396D01*
X156418016Y-81132445D01*
X156397921Y-80975503D01*
X156373856Y-80817849D01*
X156366828Y-80775500D01*
X156243548Y-80192516D01*
X156072146Y-79615446D01*
X155855301Y-79050664D01*
X155595687Y-78504547D01*
X155295983Y-77983468D01*
X155028342Y-77587800D01*
X154641402Y-77096998D01*
X154220438Y-76642090D01*
X153767880Y-76224608D01*
X153286156Y-75846083D01*
X152777696Y-75508047D01*
X152244927Y-75212033D01*
X151690280Y-74959572D01*
X151116184Y-74752196D01*
X150525066Y-74591438D01*
X150160500Y-74517512D01*
X150110999Y-74508598D01*
X150064881Y-74500146D01*
X150020764Y-74492144D01*
X149977268Y-74484580D01*
X149933011Y-74477440D01*
X149886611Y-74470714D01*
X149836688Y-74464389D01*
X149781859Y-74458452D01*
X149720745Y-74452891D01*
X149651962Y-74447694D01*
X149574131Y-74442849D01*
X149485869Y-74438343D01*
X149385796Y-74434164D01*
X149272529Y-74430300D01*
X149144689Y-74426739D01*
X149000893Y-74423468D01*
X148839760Y-74420474D01*
X148659909Y-74417747D01*
X148459958Y-74415272D01*
X148238527Y-74413039D01*
X147994233Y-74411035D01*
X147725696Y-74409247D01*
X147431534Y-74407663D01*
X147110367Y-74406272D01*
X146760811Y-74405060D01*
X146381487Y-74404016D01*
X145971013Y-74403127D01*
X145528008Y-74402380D01*
X145051090Y-74401764D01*
X144538878Y-74401267D01*
X143989991Y-74400876D01*
X143403047Y-74400578D01*
X142776665Y-74400362D01*
X142109464Y-74400215D01*
X141400063Y-74400125D01*
X140647080Y-74400080D01*
X139849133Y-74400067D01*
X139004842Y-74400074D01*
X138112825Y-74400089D01*
X137171701Y-74400099D01*
X136952500Y-74400100D01*
X136006670Y-74400106D01*
X135110272Y-74400127D01*
X134261938Y-74400169D01*
X133460298Y-74400236D01*
X132703984Y-74400333D01*
X131991628Y-74400465D01*
X131321861Y-74400637D01*
X130693315Y-74400854D01*
X130104622Y-74401121D01*
X129554412Y-74401443D01*
X129041319Y-74401824D01*
X128563972Y-74402270D01*
X128121003Y-74402786D01*
X127711045Y-74403376D01*
X127332729Y-74404046D01*
X126984686Y-74404800D01*
X126665547Y-74405643D01*
X126373946Y-74406580D01*
X126108512Y-74407616D01*
X125867877Y-74408757D01*
X125650674Y-74410007D01*
X125455533Y-74411370D01*
X125281086Y-74412852D01*
X125125965Y-74414458D01*
X124988801Y-74416193D01*
X124868226Y-74418061D01*
X124762872Y-74420068D01*
X124671369Y-74422218D01*
X124592349Y-74424517D01*
X124524445Y-74426969D01*
X124466287Y-74429579D01*
X124416508Y-74432352D01*
X124373738Y-74435294D01*
X124336609Y-74438408D01*
X124303753Y-74441701D01*
X124273801Y-74445176D01*
X124269092Y-74445762D01*
X123640013Y-74547456D01*
X123037429Y-74691933D01*
X122459207Y-74880012D01*
X121903212Y-75112512D01*
X121367311Y-75390251D01*
X120849368Y-75714049D01*
X120709200Y-75811704D01*
X120278322Y-76145163D01*
X119860461Y-76520332D01*
X119463970Y-76928334D01*
X119097204Y-77360294D01*
X118768516Y-77807334D01*
X118627284Y-78023768D01*
X118369742Y-78472490D01*
X118137870Y-78951174D01*
X117936692Y-79447330D01*
X117771228Y-79948468D01*
X117646502Y-80442098D01*
X117637546Y-80485240D01*
X117608971Y-80627030D01*
X117584526Y-80754141D01*
X117563888Y-80871876D01*
X117546739Y-80985540D01*
X117532757Y-81100439D01*
X117521623Y-81221876D01*
X117513015Y-81355156D01*
X117506613Y-81505585D01*
X117502097Y-81678466D01*
X117499147Y-81879105D01*
X117497441Y-82112805D01*
X117496660Y-82384872D01*
X117496484Y-82700611D01*
X115502531Y-82700611D01*
X115502527Y-82638402D01*
X115502843Y-82272968D01*
X115503494Y-81913449D01*
X115504480Y-81563897D01*
X115505800Y-81228361D01*
X115507454Y-80910893D01*
X115509444Y-80615544D01*
X115511769Y-80346365D01*
X115514428Y-80107407D01*
X115517422Y-79902721D01*
X115520752Y-79736357D01*
X115524417Y-79612368D01*
X115528416Y-79534803D01*
X115528736Y-79530900D01*
X115601146Y-78934341D01*
X115715476Y-78360575D01*
X115873771Y-77800921D01*
X116051092Y-77313133D01*
X116304490Y-76748780D01*
X116600851Y-76210118D01*
X116938150Y-75699239D01*
X117314365Y-75218235D01*
X117727471Y-74769196D01*
X118175446Y-74354215D01*
X118656267Y-73975382D01*
X119167909Y-73634791D01*
X119708350Y-73334532D01*
X120061500Y-73167551D01*
X120478884Y-72998728D01*
X120916871Y-72853197D01*
X121383865Y-72728534D01*
X121888273Y-72622313D01*
X122055400Y-72592433D01*
X122075811Y-72589179D01*
X122099086Y-72586081D01*
X122126474Y-72583133D01*
X122159223Y-72580331D01*
X122198584Y-72577670D01*
X122245806Y-72575147D01*
X122302138Y-72572756D01*
X122368830Y-72570492D01*
X122447130Y-72568352D01*
X122538289Y-72566331D01*
X122643556Y-72564423D01*
X122764180Y-72562625D01*
X122901410Y-72560931D01*
X123056497Y-72559338D01*
X123230689Y-72557841D01*
X123425235Y-72556434D01*
X123641386Y-72555115D01*
X123880390Y-72553877D01*
X124143497Y-72552716D01*
X124431957Y-72551629D01*
X124747018Y-72550609D01*
X125089930Y-72549653D01*
X125461943Y-72548757D01*
X125864306Y-72547914D01*
X126298268Y-72547122D01*
X126765079Y-72546375D01*
X127265987Y-72545669D01*
X127802244Y-72544998D01*
X128375097Y-72544360D01*
X128985796Y-72543748D01*
X129635592Y-72543159D01*
X130325732Y-72542588D01*
X131057466Y-72542030D01*
X131832045Y-72541481D01*
X132650717Y-72540935D01*
X133514731Y-72540390D01*
X134425338Y-72539839D01*
X135383785Y-72539278D01*
X136391324Y-72538704D01*
X136774700Y-72538488D01*
X137886689Y-72537894D01*
X138948655Y-72537389D01*
X139961376Y-72536976D01*
X140925628Y-72536654D01*
X141842189Y-72536425D01*
X142711836Y-72536291D01*
X143535345Y-72536251D01*
X144313494Y-72536308D01*
X144313494Y-72536308D01*
G37*
X144313494Y-72536308D02*
X145047060Y-72536462D01*
X145736820Y-72536715D01*
X146383551Y-72537067D01*
X146988030Y-72537519D01*
X147551035Y-72538074D01*
X148073343Y-72538730D01*
X148555730Y-72539491D01*
X148998974Y-72540356D01*
X149403852Y-72541328D01*
X149771140Y-72542406D01*
X150101617Y-72543593D01*
X150396059Y-72544888D01*
X150655243Y-72546294D01*
X150879947Y-72547811D01*
X151070947Y-72549440D01*
X151229021Y-72551183D01*
X151354946Y-72553040D01*
X151449498Y-72555013D01*
X151513455Y-72557102D01*
X151543487Y-72558892D01*
X152145911Y-72638252D01*
X152734919Y-72765370D01*
X153308210Y-72938432D01*
X153863479Y-73155625D01*
X154398424Y-73415137D01*
X154910743Y-73715154D01*
X155398131Y-74053864D01*
X155858287Y-74429455D01*
X156288908Y-74840113D01*
X156687690Y-75284025D01*
X157052331Y-75759379D01*
X157380527Y-76264362D01*
X157669976Y-76797161D01*
X157918375Y-77355964D01*
X158034953Y-77668815D01*
X158190056Y-78179494D01*
X158313558Y-78729590D01*
X158405506Y-79319317D01*
X158408119Y-79340400D01*
X158413429Y-79410103D01*
X158418310Y-79526710D01*
X158422762Y-79686329D01*
X158426784Y-79885065D01*
X158430379Y-80119025D01*
X158433545Y-80384314D01*
X158436284Y-80677041D01*
X158438596Y-80993310D01*
X158440480Y-81329229D01*
X158441939Y-81680903D01*
X158442971Y-82044439D01*
X158443577Y-82415944D01*
X158443758Y-82791524D01*
X158443514Y-83167285D01*
X158442846Y-83539334D01*
X158441753Y-83903776D01*
X158440237Y-84256719D01*
X158438297Y-84594269D01*
X158435934Y-84912532D01*
X158433149Y-85207615D01*
X158429941Y-85475624D01*
X158426312Y-85712665D01*
X158422261Y-85914845D01*
X158417788Y-86078270D01*
X158412896Y-86199046D01*
X158407583Y-86273281D01*
X158407434Y-86274600D01*
X158346873Y-86692867D01*
X158261140Y-87122625D01*
X158154250Y-87547445D01*
X158030220Y-87950894D01*
X157931417Y-88221831D01*
X157681122Y-88790664D01*
X157389542Y-89331718D01*
X157058875Y-89843343D01*
X156691317Y-90323890D01*
X156289066Y-90771709D01*
X155854319Y-91185151D01*
X155389272Y-91562567D01*
X154896122Y-91902306D01*
X154377067Y-92202720D01*
X153834303Y-92462160D01*
X153270026Y-92678975D01*
X152686435Y-92851516D01*
X152085726Y-92978134D01*
X151494000Y-93055040D01*
X151448075Y-93057195D01*
X151358632Y-93059241D01*
X151225362Y-93061180D01*
X151047958Y-93063011D01*
X150826113Y-93064736D01*
X150559521Y-93066354D01*
X150247874Y-93067867D01*
X149890866Y-93069274D01*
X149488188Y-93070576D01*
X149039535Y-93071774D01*
X148544599Y-93072869D01*
X148003073Y-93073860D01*
X147414651Y-93074747D01*
X146779024Y-93075533D01*
X146095887Y-93076216D01*
X145364931Y-93076799D01*
X144585851Y-93077280D01*
X143758338Y-93077660D01*
X142882087Y-93077941D01*
X141956789Y-93078121D01*
X140982139Y-93078203D01*
X139957828Y-93078186D01*
X138883550Y-93078071D01*
X137758998Y-93077859D01*
X136927100Y-93077648D01*
X136077138Y-93077396D01*
X135239611Y-93077117D01*
X134415964Y-93076813D01*
X133607644Y-93076484D01*
X132816097Y-93076133D01*
X132042770Y-93075761D01*
X131289109Y-93075368D01*
X130556561Y-93074956D01*
X129846571Y-93074527D01*
X129160586Y-93074081D01*
X128500053Y-93073620D01*
X127866418Y-93073145D01*
X127261127Y-93072658D01*
X126685626Y-93072159D01*
X126141363Y-93071651D01*
X125629783Y-93071133D01*
X125152333Y-93070609D01*
X124710460Y-93070078D01*
X124305608Y-93069542D01*
X123939226Y-93069002D01*
X123612759Y-93068461D01*
X123327654Y-93067918D01*
X123085357Y-93067375D01*
X122887314Y-93066834D01*
X122734973Y-93066295D01*
X122629778Y-93065761D01*
X122573177Y-93065232D01*
X122563400Y-93064957D01*
X122333588Y-93041415D01*
X122141738Y-93019229D01*
X121975103Y-92996658D01*
X121820941Y-92971957D01*
X121666506Y-92943386D01*
X121649000Y-92939941D01*
X121051104Y-92796080D01*
X120469000Y-92604976D01*
X119905527Y-92368410D01*
X119363523Y-92088165D01*
X118845827Y-91766021D01*
X118355277Y-91403762D01*
X117894714Y-91003168D01*
X117466975Y-90566022D01*
X117074900Y-90094104D01*
X117038838Y-90046500D01*
X116682059Y-89530181D01*
X116371415Y-88992799D01*
X116107303Y-88435391D01*
X115890118Y-87858999D01*
X115720257Y-87264661D01*
X115598115Y-86653418D01*
X115528834Y-86084100D01*
X115524807Y-86010412D01*
X115521113Y-85889976D01*
X115517753Y-85726843D01*
X115514727Y-85525064D01*
X115512035Y-85288690D01*
X115509676Y-85021773D01*
X115507652Y-84728362D01*
X115505963Y-84412509D01*
X115504607Y-84078266D01*
X115503585Y-83729682D01*
X115502898Y-83370810D01*
X115502545Y-83005699D01*
X115502531Y-82700611D01*
X117496484Y-82700611D01*
X117496505Y-82820200D01*
X117496814Y-83164324D01*
X117497823Y-83463018D01*
X117499953Y-83721648D01*
X117503626Y-83945581D01*
X117509266Y-84140186D01*
X117517292Y-84310831D01*
X117528128Y-84462882D01*
X117542196Y-84601709D01*
X117559918Y-84732678D01*
X117581716Y-84861157D01*
X117608011Y-84992514D01*
X117639227Y-85132117D01*
X117675784Y-85285333D01*
X117697226Y-85372900D01*
X117868556Y-85965380D01*
X118084461Y-86536030D01*
X118342804Y-87082993D01*
X118641453Y-87604412D01*
X118978272Y-88098431D01*
X119351127Y-88563194D01*
X119757883Y-88996845D01*
X120196406Y-89397526D01*
X120664562Y-89763382D01*
X121160216Y-90092557D01*
X121681234Y-90383193D01*
X122225480Y-90633434D01*
X122790821Y-90841425D01*
X123375123Y-91005309D01*
X123976250Y-91123228D01*
X124366800Y-91173511D01*
X124406124Y-91174949D01*
X124494748Y-91176347D01*
X124631168Y-91177702D01*
X124813883Y-91179013D01*
X125041392Y-91180278D01*
X125312193Y-91181494D01*
X125624784Y-91182659D01*
X125977664Y-91183770D01*
X126369332Y-91184826D01*
X126798285Y-91185825D01*
X127263022Y-91186763D01*
X127762041Y-91187639D01*
X128293842Y-91188452D01*
X128856921Y-91189197D01*
X129449778Y-91189874D01*
X130070911Y-91190480D01*
X130718819Y-91191012D01*
X131391999Y-91191470D01*
X132088951Y-91191849D01*
X132808173Y-91192149D01*
X133548162Y-91192367D01*
X134307418Y-91192501D01*
X135084439Y-91192548D01*
X135877723Y-91192506D01*
X136685769Y-91192374D01*
X137092200Y-91192274D01*
X149601700Y-91188846D01*
X149944600Y-91132261D01*
X150578035Y-91003247D01*
X151188796Y-90829116D01*
X151776287Y-90610127D01*
X152339914Y-90346543D01*
X152879080Y-90038625D01*
X153393190Y-89686635D01*
X153602200Y-89525161D01*
X153762209Y-89390260D01*
X153942646Y-89226557D01*
X154133303Y-89044242D01*
X154323975Y-88853505D01*
X154504457Y-88664534D01*
X154664543Y-88487519D01*
X154784084Y-88345175D01*
X155139904Y-87861532D01*
X155458942Y-87349574D01*
X155738312Y-86815283D01*
X155975127Y-86264641D01*
X156166501Y-85703630D01*
X156291858Y-85220500D01*
X156327068Y-85057848D01*
X156356871Y-84909516D01*
X156381767Y-84769250D01*
X156402257Y-84630799D01*
X156418841Y-84487908D01*
X156432020Y-84334326D01*
X156442295Y-84163798D01*
X156450166Y-83970073D01*
X156456134Y-83746897D01*
X156460700Y-83488017D01*
X156464364Y-83187181D01*
X156465736Y-83048800D01*
X156468438Y-82691621D01*
X156469162Y-82379492D01*
X156467658Y-82106694D01*
X156463678Y-81867505D01*
X156456972Y-81656206D01*
X156447293Y-81467077D01*
X156434390Y-81294396D01*
X156418016Y-81132445D01*
X156397921Y-80975503D01*
X156373856Y-80817849D01*
X156366828Y-80775500D01*
X156243548Y-80192516D01*
X156072146Y-79615446D01*
X155855301Y-79050664D01*
X155595687Y-78504547D01*
X155295983Y-77983468D01*
X155028342Y-77587800D01*
X154641402Y-77096998D01*
X154220438Y-76642090D01*
X153767880Y-76224608D01*
X153286156Y-75846083D01*
X152777696Y-75508047D01*
X152244927Y-75212033D01*
X151690280Y-74959572D01*
X151116184Y-74752196D01*
X150525066Y-74591438D01*
X150160500Y-74517512D01*
X150110999Y-74508598D01*
X150064881Y-74500146D01*
X150020764Y-74492144D01*
X149977268Y-74484580D01*
X149933011Y-74477440D01*
X149886611Y-74470714D01*
X149836688Y-74464389D01*
X149781859Y-74458452D01*
X149720745Y-74452891D01*
X149651962Y-74447694D01*
X149574131Y-74442849D01*
X149485869Y-74438343D01*
X149385796Y-74434164D01*
X149272529Y-74430300D01*
X149144689Y-74426739D01*
X149000893Y-74423468D01*
X148839760Y-74420474D01*
X148659909Y-74417747D01*
X148459958Y-74415272D01*
X148238527Y-74413039D01*
X147994233Y-74411035D01*
X147725696Y-74409247D01*
X147431534Y-74407663D01*
X147110367Y-74406272D01*
X146760811Y-74405060D01*
X146381487Y-74404016D01*
X145971013Y-74403127D01*
X145528008Y-74402380D01*
X145051090Y-74401764D01*
X144538878Y-74401267D01*
X143989991Y-74400876D01*
X143403047Y-74400578D01*
X142776665Y-74400362D01*
X142109464Y-74400215D01*
X141400063Y-74400125D01*
X140647080Y-74400080D01*
X139849133Y-74400067D01*
X139004842Y-74400074D01*
X138112825Y-74400089D01*
X137171701Y-74400099D01*
X136952500Y-74400100D01*
X136006670Y-74400106D01*
X135110272Y-74400127D01*
X134261938Y-74400169D01*
X133460298Y-74400236D01*
X132703984Y-74400333D01*
X131991628Y-74400465D01*
X131321861Y-74400637D01*
X130693315Y-74400854D01*
X130104622Y-74401121D01*
X129554412Y-74401443D01*
X129041319Y-74401824D01*
X128563972Y-74402270D01*
X128121003Y-74402786D01*
X127711045Y-74403376D01*
X127332729Y-74404046D01*
X126984686Y-74404800D01*
X126665547Y-74405643D01*
X126373946Y-74406580D01*
X126108512Y-74407616D01*
X125867877Y-74408757D01*
X125650674Y-74410007D01*
X125455533Y-74411370D01*
X125281086Y-74412852D01*
X125125965Y-74414458D01*
X124988801Y-74416193D01*
X124868226Y-74418061D01*
X124762872Y-74420068D01*
X124671369Y-74422218D01*
X124592349Y-74424517D01*
X124524445Y-74426969D01*
X124466287Y-74429579D01*
X124416508Y-74432352D01*
X124373738Y-74435294D01*
X124336609Y-74438408D01*
X124303753Y-74441701D01*
X124273801Y-74445176D01*
X124269092Y-74445762D01*
X123640013Y-74547456D01*
X123037429Y-74691933D01*
X122459207Y-74880012D01*
X121903212Y-75112512D01*
X121367311Y-75390251D01*
X120849368Y-75714049D01*
X120709200Y-75811704D01*
X120278322Y-76145163D01*
X119860461Y-76520332D01*
X119463970Y-76928334D01*
X119097204Y-77360294D01*
X118768516Y-77807334D01*
X118627284Y-78023768D01*
X118369742Y-78472490D01*
X118137870Y-78951174D01*
X117936692Y-79447330D01*
X117771228Y-79948468D01*
X117646502Y-80442098D01*
X117637546Y-80485240D01*
X117608971Y-80627030D01*
X117584526Y-80754141D01*
X117563888Y-80871876D01*
X117546739Y-80985540D01*
X117532757Y-81100439D01*
X117521623Y-81221876D01*
X117513015Y-81355156D01*
X117506613Y-81505585D01*
X117502097Y-81678466D01*
X117499147Y-81879105D01*
X117497441Y-82112805D01*
X117496660Y-82384872D01*
X117496484Y-82700611D01*
X115502531Y-82700611D01*
X115502527Y-82638402D01*
X115502843Y-82272968D01*
X115503494Y-81913449D01*
X115504480Y-81563897D01*
X115505800Y-81228361D01*
X115507454Y-80910893D01*
X115509444Y-80615544D01*
X115511769Y-80346365D01*
X115514428Y-80107407D01*
X115517422Y-79902721D01*
X115520752Y-79736357D01*
X115524417Y-79612368D01*
X115528416Y-79534803D01*
X115528736Y-79530900D01*
X115601146Y-78934341D01*
X115715476Y-78360575D01*
X115873771Y-77800921D01*
X116051092Y-77313133D01*
X116304490Y-76748780D01*
X116600851Y-76210118D01*
X116938150Y-75699239D01*
X117314365Y-75218235D01*
X117727471Y-74769196D01*
X118175446Y-74354215D01*
X118656267Y-73975382D01*
X119167909Y-73634791D01*
X119708350Y-73334532D01*
X120061500Y-73167551D01*
X120478884Y-72998728D01*
X120916871Y-72853197D01*
X121383865Y-72728534D01*
X121888273Y-72622313D01*
X122055400Y-72592433D01*
X122075811Y-72589179D01*
X122099086Y-72586081D01*
X122126474Y-72583133D01*
X122159223Y-72580331D01*
X122198584Y-72577670D01*
X122245806Y-72575147D01*
X122302138Y-72572756D01*
X122368830Y-72570492D01*
X122447130Y-72568352D01*
X122538289Y-72566331D01*
X122643556Y-72564423D01*
X122764180Y-72562625D01*
X122901410Y-72560931D01*
X123056497Y-72559338D01*
X123230689Y-72557841D01*
X123425235Y-72556434D01*
X123641386Y-72555115D01*
X123880390Y-72553877D01*
X124143497Y-72552716D01*
X124431957Y-72551629D01*
X124747018Y-72550609D01*
X125089930Y-72549653D01*
X125461943Y-72548757D01*
X125864306Y-72547914D01*
X126298268Y-72547122D01*
X126765079Y-72546375D01*
X127265987Y-72545669D01*
X127802244Y-72544998D01*
X128375097Y-72544360D01*
X128985796Y-72543748D01*
X129635592Y-72543159D01*
X130325732Y-72542588D01*
X131057466Y-72542030D01*
X131832045Y-72541481D01*
X132650717Y-72540935D01*
X133514731Y-72540390D01*
X134425338Y-72539839D01*
X135383785Y-72539278D01*
X136391324Y-72538704D01*
X136774700Y-72538488D01*
X137886689Y-72537894D01*
X138948655Y-72537389D01*
X139961376Y-72536976D01*
X140925628Y-72536654D01*
X141842189Y-72536425D01*
X142711836Y-72536291D01*
X143535345Y-72536251D01*
X144313494Y-72536308D01*
G36*
X136817505Y-117961113D02*
X137978886Y-117961154D01*
X139091416Y-117961225D01*
X140156070Y-117961328D01*
X141173824Y-117961463D01*
X142145653Y-117961633D01*
X143072530Y-117961839D01*
X143955431Y-117962083D01*
X144795330Y-117962368D01*
X145593204Y-117962693D01*
X146350025Y-117963062D01*
X147066770Y-117963475D01*
X147744412Y-117963935D01*
X148383928Y-117964443D01*
X148986291Y-117965001D01*
X149552477Y-117965610D01*
X150083460Y-117966272D01*
X150580215Y-117966990D01*
X151043717Y-117967764D01*
X151474941Y-117968596D01*
X151874861Y-117969488D01*
X152244453Y-117970441D01*
X152584692Y-117971458D01*
X152896551Y-117972540D01*
X153181007Y-117973689D01*
X153439033Y-117974906D01*
X153671605Y-117976193D01*
X153879698Y-117977551D01*
X154064286Y-117978983D01*
X154226344Y-117980491D01*
X154366847Y-117982074D01*
X154486770Y-117983737D01*
X154587087Y-117985479D01*
X154668774Y-117987303D01*
X154732805Y-117989211D01*
X154780156Y-117991204D01*
X154811800Y-117993284D01*
X154821400Y-117994276D01*
X155435753Y-118095387D01*
X156031534Y-118242452D01*
X156606917Y-118433577D01*
X157160075Y-118666870D01*
X157689184Y-118940435D01*
X158192416Y-119252381D01*
X158667945Y-119600813D01*
X159113945Y-119983837D01*
X159528591Y-120399561D01*
X159910055Y-120846091D01*
X160256512Y-121321533D01*
X160566137Y-121823994D01*
X160837101Y-122351579D01*
X161067581Y-122902397D01*
X161255748Y-123474553D01*
X161399778Y-124066153D01*
X161497844Y-124675304D01*
X161525765Y-124946100D01*
X161527991Y-124997690D01*
X161530122Y-125097944D01*
X161532158Y-125244727D01*
X161534098Y-125435902D01*
X161535943Y-125669334D01*
X161537692Y-125942887D01*
X161539346Y-126254424D01*
X161540905Y-126601811D01*
X161542368Y-126982912D01*
X161543736Y-127395589D01*
X161545008Y-127837709D01*
X161546185Y-128307134D01*
X161547266Y-128801730D01*
X161548252Y-129319360D01*
X161549142Y-129857888D01*
X161549936Y-130415179D01*
X161550636Y-130989097D01*
X161551239Y-131577506D01*
X161551747Y-132178270D01*
X161552160Y-132789253D01*
X161552477Y-133408320D01*
X161552698Y-134033335D01*
X161552824Y-134662162D01*
X161552854Y-135292664D01*
X161552789Y-135922707D01*
X161552628Y-136550155D01*
X161552371Y-137172871D01*
X161552019Y-137788720D01*
X161551571Y-138395567D01*
X161551027Y-138991274D01*
X161550388Y-139573707D01*
X161549653Y-140140729D01*
X161548822Y-140690205D01*
X161547896Y-141219999D01*
X161546873Y-141727975D01*
X161545756Y-142211998D01*
X161544542Y-142669931D01*
X161543233Y-143099638D01*
X161541828Y-143498985D01*
X161540327Y-143865835D01*
X161538730Y-144198051D01*
X161537038Y-144493500D01*
X161535249Y-144750043D01*
X161533365Y-144965547D01*
X161531386Y-145137875D01*
X161529310Y-145264890D01*
X161527138Y-145344458D01*
X161525863Y-145367700D01*
X161447980Y-145988018D01*
X161322225Y-146593854D01*
X161149963Y-147182955D01*
X160932560Y-147753069D01*
X160671378Y-148301945D01*
X160367782Y-148827330D01*
X160023138Y-149326972D01*
X159638809Y-149798620D01*
X159216160Y-150240020D01*
X158756555Y-150648922D01*
X158261359Y-151023073D01*
X157990321Y-151203102D01*
X157466657Y-151505665D01*
X156917338Y-151765725D01*
X156346763Y-151981736D01*
X155759332Y-152152152D01*
X155159443Y-152275426D01*
X154796000Y-152326046D01*
X154770885Y-152328512D01*
X154738794Y-152330872D01*
X154698653Y-152333130D01*
X154649391Y-152335287D01*
X154589934Y-152337345D01*
X154519209Y-152339305D01*
X154436142Y-152341171D01*
X154339662Y-152342944D01*
X154228695Y-152344627D01*
X154102168Y-152346220D01*
X153959009Y-152347727D01*
X153798143Y-152349149D01*
X153618499Y-152350489D01*
X153419003Y-152351748D01*
X153198583Y-152352928D01*
X152956165Y-152354032D01*
X152690676Y-152355062D01*
X152401044Y-152356019D01*
X152086196Y-152356905D01*
X151745058Y-152357724D01*
X151376558Y-152358476D01*
X150979622Y-152359164D01*
X150553178Y-152359790D01*
X150096153Y-152360355D01*
X149607474Y-152360863D01*
X149086068Y-152361315D01*
X148530861Y-152361712D01*
X147940782Y-152362058D01*
X147314756Y-152362353D01*
X146651712Y-152362601D01*
X145950575Y-152362803D01*
X145210274Y-152362962D01*
X144429735Y-152363078D01*
X143607885Y-152363155D01*
X142743651Y-152363194D01*
X141835960Y-152363198D01*
X140883740Y-152363168D01*
X139885918Y-152363106D01*
X138841419Y-152363016D01*
X137749172Y-152362897D01*
X136608104Y-152362754D01*
X135606300Y-152362614D01*
X134392529Y-152362424D01*
X133228606Y-152362211D01*
X132113576Y-152361973D01*
X131046486Y-152361709D01*
X130026383Y-152361417D01*
X129052314Y-152361095D01*
X128123325Y-152360740D01*
X127238462Y-152360353D01*
X126396773Y-152359930D01*
X125597305Y-152359470D01*
X124839103Y-152358971D01*
X124121215Y-152358432D01*
X123442687Y-152357851D01*
X122802567Y-152357225D01*
X122199900Y-152356554D01*
X121633734Y-152355835D01*
X121103115Y-152355067D01*
X120607090Y-152354248D01*
X120144705Y-152353375D01*
X119715008Y-152352449D01*
X119317045Y-152351466D01*
X118949862Y-152350425D01*
X118612507Y-152349324D01*
X118304025Y-152348161D01*
X118023465Y-152346936D01*
X117769872Y-152345645D01*
X117542293Y-152344287D01*
X117339775Y-152342860D01*
X117161364Y-152341364D01*
X117006108Y-152339795D01*
X116873053Y-152338152D01*
X116761245Y-152336433D01*
X116669732Y-152334637D01*
X116597560Y-152332762D01*
X116543776Y-152330806D01*
X116507426Y-152328768D01*
X116492800Y-152327410D01*
X115875476Y-152227360D01*
X115275726Y-152080657D01*
X114695567Y-151888964D01*
X114137014Y-151653946D01*
X113602085Y-151377265D01*
X113092796Y-151060585D01*
X112611163Y-150705571D01*
X112159204Y-150313884D01*
X111738934Y-149887190D01*
X111352371Y-149427151D01*
X111001530Y-148935431D01*
X110688428Y-148413694D01*
X110582536Y-148200591D01*
X146388600Y-148200591D01*
X147106150Y-148193845D01*
X147823700Y-148187100D01*
X147823700Y-135334700D01*
X149944600Y-135334700D01*
X149944619Y-136312079D01*
X149944679Y-137239845D01*
X149944782Y-138119183D01*
X149944933Y-138951280D01*
X149945133Y-139737321D01*
X149945387Y-140478493D01*
X149945697Y-141175982D01*
X149946066Y-141830974D01*
X149946497Y-142444656D01*
X149946995Y-143018213D01*
X149947561Y-143552831D01*
X149948199Y-144049697D01*
X149948912Y-144509998D01*
X149949703Y-144934918D01*
X149950575Y-145325644D01*
X149951532Y-145683363D01*
X149952576Y-146009260D01*
X149953711Y-146304522D01*
X149954940Y-146570335D01*
X149956265Y-146807885D01*
X149957691Y-147018358D01*
X149959219Y-147202940D01*
X149960854Y-147362818D01*
X149962599Y-147499178D01*
X149964456Y-147613205D01*
X149966428Y-147706086D01*
X149968519Y-147779007D01*
X149970733Y-147833155D01*
X149973071Y-147869715D01*
X149975537Y-147889874D01*
X149977709Y-147895000D01*
X150014434Y-147887194D01*
X150087418Y-147866120D01*
X150184969Y-147835288D01*
X150263459Y-147809154D01*
X150551351Y-147706270D01*
X150823601Y-147597452D01*
X151107195Y-147471838D01*
X151144750Y-147454431D01*
X151392400Y-147339146D01*
X151392400Y-136297970D01*
X153501605Y-136297970D01*
X153501695Y-137220042D01*
X153501911Y-138095822D01*
X153502253Y-138925068D01*
X153502719Y-139707535D01*
X153503309Y-140442982D01*
X153504024Y-141131165D01*
X153504861Y-141771840D01*
X153505820Y-142364765D01*
X153506902Y-142909698D01*
X153508105Y-143406394D01*
X153509429Y-143854611D01*
X153510873Y-144254105D01*
X153512437Y-144604634D01*
X153514120Y-144905955D01*
X153515922Y-145157825D01*
X153517842Y-145360000D01*
X153519879Y-145512238D01*
X153522033Y-145614295D01*
X153524303Y-145665928D01*
X153525597Y-145672748D01*
X153550313Y-145648232D01*
X153600186Y-145592129D01*
X153668390Y-145512322D01*
X153748100Y-145416694D01*
X153763315Y-145398199D01*
X154142334Y-144897376D01*
X154476129Y-144373626D01*
X154764310Y-143827901D01*
X155006491Y-143261155D01*
X155202282Y-142674342D01*
X155351295Y-142068416D01*
X155453143Y-141444330D01*
X155481791Y-141176700D01*
X155484699Y-141118790D01*
X155487433Y-141012961D01*
X155489994Y-140862094D01*
X155492381Y-140669068D01*
X155494594Y-140436764D01*
X155496635Y-140168063D01*
X155498503Y-139865845D01*
X155500199Y-139532991D01*
X155501723Y-139172380D01*
X155503074Y-138786894D01*
X155504253Y-138379413D01*
X155505261Y-137952817D01*
X155506098Y-137509986D01*
X155506764Y-137053803D01*
X155507258Y-136587146D01*
X155507582Y-136112896D01*
X155507736Y-135633933D01*
X155507719Y-135153139D01*
X155507533Y-134673393D01*
X155507177Y-134197577D01*
X155506651Y-133728570D01*
X155505956Y-133269252D01*
X155505092Y-132822506D01*
X155504059Y-132391210D01*
X155502858Y-131978245D01*
X155501489Y-131586492D01*
X155499951Y-131218831D01*
X155498246Y-130878143D01*
X155496372Y-130567309D01*
X155494332Y-130289207D01*
X155492124Y-130046720D01*
X155489750Y-129842727D01*
X155487209Y-129680110D01*
X155484501Y-129561748D01*
X155481627Y-129490521D01*
X155480846Y-129480000D01*
X155405438Y-128892412D01*
X155286102Y-128311373D01*
X155124912Y-127743717D01*
X154923941Y-127196278D01*
X154685260Y-126675888D01*
X154558287Y-126438392D01*
X154407466Y-126182775D01*
X154238834Y-125919657D01*
X154060611Y-125660720D01*
X153881018Y-125417650D01*
X153708274Y-125202130D01*
X153606701Y-125085800D01*
X153502683Y-124971500D01*
X153501641Y-135329849D01*
X153501605Y-136297970D01*
X151392400Y-136297970D01*
X151392400Y-123330253D01*
X151144750Y-123214968D01*
X150994044Y-123147080D01*
X150829941Y-123077029D01*
X150660322Y-123007790D01*
X150493073Y-122942339D01*
X150336077Y-122883654D01*
X150197218Y-122834709D01*
X150084379Y-122798482D01*
X150005446Y-122777949D01*
X149977709Y-122774400D01*
X149975132Y-122781707D01*
X149972687Y-122804420D01*
X149970369Y-122843726D01*
X149968175Y-122900809D01*
X149966103Y-122976857D01*
X149964150Y-123073055D01*
X149962311Y-123190589D01*
X149960584Y-123330647D01*
X149958967Y-123494413D01*
X149957455Y-123683075D01*
X149956046Y-123897817D01*
X149954736Y-124139827D01*
X149953522Y-124410291D01*
X149952402Y-124710394D01*
X149951372Y-125041323D01*
X149950429Y-125404264D01*
X149949570Y-125800403D01*
X149948792Y-126230927D01*
X149948091Y-126697021D01*
X149947465Y-127199872D01*
X149946910Y-127740665D01*
X149946424Y-128320588D01*
X149946002Y-128940825D01*
X149945643Y-129602564D01*
X149945342Y-130306990D01*
X149945097Y-131055290D01*
X149944905Y-131848650D01*
X149944763Y-132688255D01*
X149944666Y-133575293D01*
X149944613Y-134510949D01*
X149944600Y-135334700D01*
X147823700Y-135334700D01*
X147823700Y-122482300D01*
X146388600Y-122468808D01*
X146388600Y-148200591D01*
X110582536Y-148200591D01*
X110415083Y-147863602D01*
X110183510Y-147286821D01*
X110106171Y-147058778D01*
X109995855Y-146685090D01*
X109908607Y-146316155D01*
X109842157Y-145938874D01*
X109794236Y-145540152D01*
X109762573Y-145106889D01*
X109760301Y-145062900D01*
X109757638Y-144984067D01*
X109755167Y-144857927D01*
X109752888Y-144684291D01*
X109750801Y-144462971D01*
X109748906Y-144193778D01*
X109747201Y-143876524D01*
X109745688Y-143511021D01*
X109744365Y-143097079D01*
X109743232Y-142634511D01*
X109742289Y-142123128D01*
X109741535Y-141562742D01*
X109740970Y-140953163D01*
X109740595Y-140294205D01*
X109740408Y-139585677D01*
X109740409Y-138827392D01*
X109740598Y-138019161D01*
X109740974Y-137160796D01*
X109741538Y-136252109D01*
X109742217Y-135383717D01*
X114749722Y-135383717D01*
X114749916Y-135869551D01*
X114750335Y-136352265D01*
X114750978Y-136829021D01*
X114751844Y-137296980D01*
X114752935Y-137753306D01*
X114754249Y-138195159D01*
X114755786Y-138619703D01*
X114757546Y-139024099D01*
X114759528Y-139405509D01*
X114761733Y-139761095D01*
X114764159Y-140088021D01*
X114766806Y-140383447D01*
X114769675Y-140644535D01*
X114772764Y-140868449D01*
X114776074Y-141052350D01*
X114779604Y-141193400D01*
X114783354Y-141288761D01*
X114786371Y-141329100D01*
X114882386Y-141952364D01*
X115018176Y-142546159D01*
X115195103Y-143114260D01*
X115414530Y-143660441D01*
X115677818Y-144188475D01*
X115986331Y-144702138D01*
X116024985Y-144760781D01*
X116115283Y-144893587D01*
X116209543Y-145027137D01*
X116302761Y-145154874D01*
X116389933Y-145270240D01*
X116466056Y-145366680D01*
X116526124Y-145437635D01*
X116565134Y-145476549D01*
X116575350Y-145481946D01*
X116576692Y-145456833D01*
X116578010Y-145382621D01*
X116579300Y-145261012D01*
X116580559Y-145093707D01*
X116581785Y-144882406D01*
X116582973Y-144628810D01*
X116584121Y-144334622D01*
X116585226Y-144001542D01*
X116586283Y-143631271D01*
X116587291Y-143225511D01*
X116588246Y-142785962D01*
X116589144Y-142314326D01*
X116589983Y-141812304D01*
X116590760Y-141281597D01*
X116591470Y-140723907D01*
X116592111Y-140140934D01*
X116592680Y-139534379D01*
X116593173Y-138905944D01*
X116593588Y-138257330D01*
X116593921Y-137590238D01*
X116594169Y-136906370D01*
X116594329Y-136207426D01*
X116594397Y-135495107D01*
X116594400Y-135332583D01*
X116594340Y-134455426D01*
X116594163Y-133612525D01*
X116593870Y-132804698D01*
X116593464Y-132032760D01*
X116592945Y-131297530D01*
X116592317Y-130599824D01*
X116591580Y-129940461D01*
X116590738Y-129320257D01*
X116589791Y-128740030D01*
X116588743Y-128200596D01*
X116587594Y-127702773D01*
X116586346Y-127247379D01*
X116585002Y-126835231D01*
X116583564Y-126467145D01*
X116582033Y-126143939D01*
X116580411Y-125866431D01*
X116578701Y-125635437D01*
X116576903Y-125451776D01*
X116575021Y-125316263D01*
X116573056Y-125229717D01*
X116571010Y-125192955D01*
X116570500Y-125191633D01*
X116540910Y-125217078D01*
X116487982Y-125277243D01*
X116417159Y-125364989D01*
X116333886Y-125473175D01*
X116243606Y-125594663D01*
X116151763Y-125722312D01*
X116063801Y-125848984D01*
X116023166Y-125909438D01*
X115721773Y-126400254D01*
X115462937Y-126901871D01*
X115244742Y-127419598D01*
X115065271Y-127958745D01*
X114922608Y-128524620D01*
X114814838Y-129122533D01*
X114785014Y-129340300D01*
X114781110Y-129397022D01*
X114777435Y-129501707D01*
X114773991Y-129651515D01*
X114770776Y-129843609D01*
X114767791Y-130075151D01*
X114765035Y-130343303D01*
X114762508Y-130645227D01*
X114760210Y-130978085D01*
X114758139Y-131339040D01*
X114756297Y-131725253D01*
X114754682Y-132133887D01*
X114753294Y-132562103D01*
X114752134Y-133007064D01*
X114751199Y-133465933D01*
X114750492Y-133935870D01*
X114750010Y-134414038D01*
X114749753Y-134897600D01*
X114749722Y-135383717D01*
X109742217Y-135383717D01*
X109742289Y-135292910D01*
X109742763Y-134763200D01*
X109743560Y-133921359D01*
X109744337Y-133128786D01*
X109745103Y-132383947D01*
X109745866Y-131685310D01*
X109746634Y-131031340D01*
X109747414Y-130420506D01*
X109748215Y-129851274D01*
X109749045Y-129322111D01*
X109749911Y-128831484D01*
X109750821Y-128377861D01*
X109751784Y-127959709D01*
X109752808Y-127575493D01*
X109753899Y-127223683D01*
X109755067Y-126902744D01*
X109756319Y-126611143D01*
X109757663Y-126347349D01*
X109759107Y-126109827D01*
X109760659Y-125897045D01*
X109762326Y-125707469D01*
X109764118Y-125539568D01*
X109766042Y-125391807D01*
X109768105Y-125262655D01*
X109770315Y-125150577D01*
X109772682Y-125054041D01*
X109775212Y-124971515D01*
X109777913Y-124901464D01*
X109780794Y-124842357D01*
X109783862Y-124792660D01*
X109787125Y-124750841D01*
X109790592Y-124715365D01*
X109794269Y-124684701D01*
X109794978Y-124679400D01*
X109902702Y-124049886D01*
X110051186Y-123446128D01*
X110060370Y-123417550D01*
X118702600Y-123417550D01*
X118702600Y-147251332D01*
X119051850Y-147420001D01*
X119191652Y-147485476D01*
X119344974Y-147553840D01*
X119503687Y-147621827D01*
X119659661Y-147686173D01*
X119804765Y-147743613D01*
X119930870Y-147790882D01*
X120029845Y-147824715D01*
X120093562Y-147841848D01*
X120105950Y-147843294D01*
X120109334Y-147841765D01*
X120112542Y-147836161D01*
X120115580Y-147825165D01*
X120118451Y-147807462D01*
X120121160Y-147781735D01*
X120123711Y-147746670D01*
X120126111Y-147700949D01*
X120128363Y-147643257D01*
X120130471Y-147572278D01*
X120132441Y-147486697D01*
X120134278Y-147385198D01*
X120135985Y-147266464D01*
X120137568Y-147129180D01*
X120139031Y-146972029D01*
X120140380Y-146793697D01*
X120141617Y-146592867D01*
X120142750Y-146368224D01*
X120143781Y-146118450D01*
X120144716Y-145842232D01*
X120145559Y-145538252D01*
X120146315Y-145205195D01*
X120146989Y-144841746D01*
X120147585Y-144446587D01*
X120148108Y-144018404D01*
X120148563Y-143555880D01*
X120148954Y-143057700D01*
X120149287Y-142522548D01*
X120149565Y-141949107D01*
X120149794Y-141336063D01*
X120149801Y-141308823D01*
X122263194Y-141308823D01*
X122263218Y-141969792D01*
X122263291Y-142605928D01*
X122263411Y-143215714D01*
X122263578Y-143797631D01*
X122263790Y-144350160D01*
X122264048Y-144871784D01*
X122264351Y-145360983D01*
X122264697Y-145816241D01*
X122265087Y-146236038D01*
X122265519Y-146618856D01*
X122265993Y-146963177D01*
X122266509Y-147267482D01*
X122267065Y-147530254D01*
X122267661Y-147749974D01*
X122268297Y-147925123D01*
X122268970Y-148054184D01*
X122269682Y-148135638D01*
X122270431Y-148167967D01*
X122270510Y-148168446D01*
X122284960Y-148178178D01*
X122323075Y-148185596D01*
X122389465Y-148190858D01*
X122488741Y-148194126D01*
X122625511Y-148195560D01*
X122804384Y-148195320D01*
X123000905Y-148193846D01*
X123719100Y-148187100D01*
X123719100Y-122482300D01*
X122271300Y-122482300D01*
X122264805Y-135309300D01*
X122264422Y-136114269D01*
X122264092Y-136906553D01*
X122263814Y-137684632D01*
X122263589Y-138446989D01*
X122263415Y-139192105D01*
X122263291Y-139918461D01*
X122263218Y-140624540D01*
X122263194Y-141308823D01*
X120149801Y-141308823D01*
X120149977Y-140682098D01*
X120150121Y-139985898D01*
X120150229Y-139246147D01*
X120150306Y-138461528D01*
X120150356Y-137630726D01*
X120150386Y-136752424D01*
X120150398Y-135825308D01*
X120150400Y-135334700D01*
X120150389Y-134377068D01*
X120150353Y-133468945D01*
X120150289Y-132609041D01*
X120150193Y-131796064D01*
X120150060Y-131028724D01*
X120149886Y-130305730D01*
X120149668Y-129625790D01*
X120149401Y-128987615D01*
X120149082Y-128389913D01*
X120148706Y-127831393D01*
X120148269Y-127310765D01*
X120147767Y-126826737D01*
X120147197Y-126378019D01*
X120146554Y-125963320D01*
X120145835Y-125581349D01*
X120145034Y-125230816D01*
X120144149Y-124910429D01*
X120143175Y-124618897D01*
X120142109Y-124354930D01*
X120140945Y-124117237D01*
X120139681Y-123904528D01*
X120138311Y-123715510D01*
X120136833Y-123548894D01*
X120135242Y-123403388D01*
X120133534Y-123277701D01*
X120131705Y-123170544D01*
X120129752Y-123080624D01*
X120127669Y-123006652D01*
X120125453Y-122947336D01*
X120123100Y-122901385D01*
X120120606Y-122867509D01*
X120117967Y-122844416D01*
X120115179Y-122830816D01*
X120112238Y-122825419D01*
X120111460Y-122825200D01*
X120062570Y-122835223D01*
X119975486Y-122863159D01*
X119858220Y-122905808D01*
X119718783Y-122959969D01*
X119565187Y-123022442D01*
X119405444Y-123090026D01*
X119247564Y-123159521D01*
X119099559Y-123227727D01*
X119077250Y-123238345D01*
X118702600Y-123417550D01*
X110060370Y-123417550D01*
X110208248Y-122957402D01*
X110348969Y-122604525D01*
X110412195Y-122469600D01*
X125840000Y-122469600D01*
X125840000Y-148199800D01*
X127287800Y-148199800D01*
X127287800Y-141308835D01*
X129400597Y-141308835D01*
X129400623Y-141969806D01*
X129400696Y-142605945D01*
X129400817Y-143215734D01*
X129400985Y-143797653D01*
X129401198Y-144350186D01*
X129401457Y-144871812D01*
X129401761Y-145361015D01*
X129402109Y-145816276D01*
X129402500Y-146236077D01*
X129402934Y-146618898D01*
X129403410Y-146963223D01*
X129403927Y-147267532D01*
X129404485Y-147530308D01*
X129405082Y-147750031D01*
X129405719Y-147925185D01*
X129406395Y-148054249D01*
X129407108Y-148135707D01*
X129407859Y-148168040D01*
X129407938Y-148168519D01*
X129423174Y-148179165D01*
X129463034Y-148186993D01*
X129532555Y-148192217D01*
X129636771Y-148195049D01*
X129780719Y-148195699D01*
X129969432Y-148194381D01*
X130011333Y-148193919D01*
X130602500Y-148187100D01*
X130602500Y-122482300D01*
X129408700Y-122482300D01*
X129402205Y-135309300D01*
X129401822Y-136114270D01*
X129401492Y-136906555D01*
X129401215Y-137684635D01*
X129400990Y-138446993D01*
X129400816Y-139192111D01*
X129400693Y-139918469D01*
X129400620Y-140624550D01*
X129400597Y-141308835D01*
X127287800Y-141308835D01*
X127287800Y-122469600D01*
X132723400Y-122469600D01*
X132723400Y-148199800D01*
X134171200Y-148199800D01*
X134171200Y-141308823D01*
X136283994Y-141308823D01*
X136284018Y-141969792D01*
X136284091Y-142605928D01*
X136284211Y-143215714D01*
X136284378Y-143797631D01*
X136284590Y-144350160D01*
X136284848Y-144871784D01*
X136285151Y-145360983D01*
X136285497Y-145816241D01*
X136285887Y-146236038D01*
X136286319Y-146618856D01*
X136286793Y-146963177D01*
X136287309Y-147267482D01*
X136287865Y-147530254D01*
X136288461Y-147749974D01*
X136289097Y-147925123D01*
X136289770Y-148054184D01*
X136290482Y-148135638D01*
X136291231Y-148167967D01*
X136291310Y-148168446D01*
X136305760Y-148178178D01*
X136343875Y-148185596D01*
X136410265Y-148190858D01*
X136509541Y-148194126D01*
X136646311Y-148195560D01*
X136825184Y-148195320D01*
X137021705Y-148193846D01*
X137739900Y-148187100D01*
X137739900Y-122482300D01*
X136292100Y-122482300D01*
X136285605Y-135309300D01*
X136285222Y-136114269D01*
X136284892Y-136906553D01*
X136284614Y-137684632D01*
X136284389Y-138446989D01*
X136284215Y-139192105D01*
X136284091Y-139918461D01*
X136284018Y-140624540D01*
X136283994Y-141308823D01*
X134171200Y-141308823D01*
X134171200Y-122469600D01*
X139860800Y-122469600D01*
X139860800Y-148199800D01*
X141308600Y-148199800D01*
X141308600Y-141308862D01*
X143421404Y-141308862D01*
X143421432Y-141969838D01*
X143421507Y-142605983D01*
X143421630Y-143215778D01*
X143421800Y-143797704D01*
X143422017Y-144350243D01*
X143422278Y-144871877D01*
X143422585Y-145361087D01*
X143422936Y-145816355D01*
X143423330Y-146236163D01*
X143423767Y-146618993D01*
X143424246Y-146963326D01*
X143424766Y-147267643D01*
X143425328Y-147530427D01*
X143425929Y-147750159D01*
X143426570Y-147925321D01*
X143427249Y-148054394D01*
X143427966Y-148135860D01*
X143428721Y-148168201D01*
X143428801Y-148168681D01*
X143445859Y-148181221D01*
X143489795Y-148189702D01*
X143566471Y-148194475D01*
X143681747Y-148195890D01*
X143841486Y-148194295D01*
X143854395Y-148194081D01*
X144267700Y-148187100D01*
X144267700Y-122482300D01*
X143429500Y-122482300D01*
X143423005Y-135309300D01*
X143422622Y-136114271D01*
X143422292Y-136906558D01*
X143422016Y-137684641D01*
X143421791Y-138447002D01*
X143421619Y-139192123D01*
X143421497Y-139918486D01*
X143421426Y-140624571D01*
X143421404Y-141308862D01*
X141308600Y-141308862D01*
X141308600Y-122469600D01*
X139860800Y-122469600D01*
X134171200Y-122469600D01*
X132723400Y-122469600D01*
X127287800Y-122469600D01*
X125840000Y-122469600D01*
X110412195Y-122469600D01*
X110522832Y-122233502D01*
X110722644Y-121857072D01*
X110941218Y-121487977D01*
X111171363Y-121138959D01*
X111405890Y-120822758D01*
X111429495Y-120793200D01*
X111561407Y-120637137D01*
X111721110Y-120460715D01*
X111897416Y-120275368D01*
X112079139Y-120092529D01*
X112255093Y-119923631D01*
X112414090Y-119780107D01*
X112454200Y-119745896D01*
X112946316Y-119363704D01*
X113458136Y-119027337D01*
X113991286Y-118736062D01*
X114547398Y-118489146D01*
X115128099Y-118285854D01*
X115735018Y-118125455D01*
X116289600Y-118019597D01*
X116657900Y-117961100D01*
X135606300Y-117961100D01*
X136817505Y-117961113D01*
X136817505Y-117961113D01*
G37*
X136817505Y-117961113D02*
X137978886Y-117961154D01*
X139091416Y-117961225D01*
X140156070Y-117961328D01*
X141173824Y-117961463D01*
X142145653Y-117961633D01*
X143072530Y-117961839D01*
X143955431Y-117962083D01*
X144795330Y-117962368D01*
X145593204Y-117962693D01*
X146350025Y-117963062D01*
X147066770Y-117963475D01*
X147744412Y-117963935D01*
X148383928Y-117964443D01*
X148986291Y-117965001D01*
X149552477Y-117965610D01*
X150083460Y-117966272D01*
X150580215Y-117966990D01*
X151043717Y-117967764D01*
X151474941Y-117968596D01*
X151874861Y-117969488D01*
X152244453Y-117970441D01*
X152584692Y-117971458D01*
X152896551Y-117972540D01*
X153181007Y-117973689D01*
X153439033Y-117974906D01*
X153671605Y-117976193D01*
X153879698Y-117977551D01*
X154064286Y-117978983D01*
X154226344Y-117980491D01*
X154366847Y-117982074D01*
X154486770Y-117983737D01*
X154587087Y-117985479D01*
X154668774Y-117987303D01*
X154732805Y-117989211D01*
X154780156Y-117991204D01*
X154811800Y-117993284D01*
X154821400Y-117994276D01*
X155435753Y-118095387D01*
X156031534Y-118242452D01*
X156606917Y-118433577D01*
X157160075Y-118666870D01*
X157689184Y-118940435D01*
X158192416Y-119252381D01*
X158667945Y-119600813D01*
X159113945Y-119983837D01*
X159528591Y-120399561D01*
X159910055Y-120846091D01*
X160256512Y-121321533D01*
X160566137Y-121823994D01*
X160837101Y-122351579D01*
X161067581Y-122902397D01*
X161255748Y-123474553D01*
X161399778Y-124066153D01*
X161497844Y-124675304D01*
X161525765Y-124946100D01*
X161527991Y-124997690D01*
X161530122Y-125097944D01*
X161532158Y-125244727D01*
X161534098Y-125435902D01*
X161535943Y-125669334D01*
X161537692Y-125942887D01*
X161539346Y-126254424D01*
X161540905Y-126601811D01*
X161542368Y-126982912D01*
X161543736Y-127395589D01*
X161545008Y-127837709D01*
X161546185Y-128307134D01*
X161547266Y-128801730D01*
X161548252Y-129319360D01*
X161549142Y-129857888D01*
X161549936Y-130415179D01*
X161550636Y-130989097D01*
X161551239Y-131577506D01*
X161551747Y-132178270D01*
X161552160Y-132789253D01*
X161552477Y-133408320D01*
X161552698Y-134033335D01*
X161552824Y-134662162D01*
X161552854Y-135292664D01*
X161552789Y-135922707D01*
X161552628Y-136550155D01*
X161552371Y-137172871D01*
X161552019Y-137788720D01*
X161551571Y-138395567D01*
X161551027Y-138991274D01*
X161550388Y-139573707D01*
X161549653Y-140140729D01*
X161548822Y-140690205D01*
X161547896Y-141219999D01*
X161546873Y-141727975D01*
X161545756Y-142211998D01*
X161544542Y-142669931D01*
X161543233Y-143099638D01*
X161541828Y-143498985D01*
X161540327Y-143865835D01*
X161538730Y-144198051D01*
X161537038Y-144493500D01*
X161535249Y-144750043D01*
X161533365Y-144965547D01*
X161531386Y-145137875D01*
X161529310Y-145264890D01*
X161527138Y-145344458D01*
X161525863Y-145367700D01*
X161447980Y-145988018D01*
X161322225Y-146593854D01*
X161149963Y-147182955D01*
X160932560Y-147753069D01*
X160671378Y-148301945D01*
X160367782Y-148827330D01*
X160023138Y-149326972D01*
X159638809Y-149798620D01*
X159216160Y-150240020D01*
X158756555Y-150648922D01*
X158261359Y-151023073D01*
X157990321Y-151203102D01*
X157466657Y-151505665D01*
X156917338Y-151765725D01*
X156346763Y-151981736D01*
X155759332Y-152152152D01*
X155159443Y-152275426D01*
X154796000Y-152326046D01*
X154770885Y-152328512D01*
X154738794Y-152330872D01*
X154698653Y-152333130D01*
X154649391Y-152335287D01*
X154589934Y-152337345D01*
X154519209Y-152339305D01*
X154436142Y-152341171D01*
X154339662Y-152342944D01*
X154228695Y-152344627D01*
X154102168Y-152346220D01*
X153959009Y-152347727D01*
X153798143Y-152349149D01*
X153618499Y-152350489D01*
X153419003Y-152351748D01*
X153198583Y-152352928D01*
X152956165Y-152354032D01*
X152690676Y-152355062D01*
X152401044Y-152356019D01*
X152086196Y-152356905D01*
X151745058Y-152357724D01*
X151376558Y-152358476D01*
X150979622Y-152359164D01*
X150553178Y-152359790D01*
X150096153Y-152360355D01*
X149607474Y-152360863D01*
X149086068Y-152361315D01*
X148530861Y-152361712D01*
X147940782Y-152362058D01*
X147314756Y-152362353D01*
X146651712Y-152362601D01*
X145950575Y-152362803D01*
X145210274Y-152362962D01*
X144429735Y-152363078D01*
X143607885Y-152363155D01*
X142743651Y-152363194D01*
X141835960Y-152363198D01*
X140883740Y-152363168D01*
X139885918Y-152363106D01*
X138841419Y-152363016D01*
X137749172Y-152362897D01*
X136608104Y-152362754D01*
X135606300Y-152362614D01*
X134392529Y-152362424D01*
X133228606Y-152362211D01*
X132113576Y-152361973D01*
X131046486Y-152361709D01*
X130026383Y-152361417D01*
X129052314Y-152361095D01*
X128123325Y-152360740D01*
X127238462Y-152360353D01*
X126396773Y-152359930D01*
X125597305Y-152359470D01*
X124839103Y-152358971D01*
X124121215Y-152358432D01*
X123442687Y-152357851D01*
X122802567Y-152357225D01*
X122199900Y-152356554D01*
X121633734Y-152355835D01*
X121103115Y-152355067D01*
X120607090Y-152354248D01*
X120144705Y-152353375D01*
X119715008Y-152352449D01*
X119317045Y-152351466D01*
X118949862Y-152350425D01*
X118612507Y-152349324D01*
X118304025Y-152348161D01*
X118023465Y-152346936D01*
X117769872Y-152345645D01*
X117542293Y-152344287D01*
X117339775Y-152342860D01*
X117161364Y-152341364D01*
X117006108Y-152339795D01*
X116873053Y-152338152D01*
X116761245Y-152336433D01*
X116669732Y-152334637D01*
X116597560Y-152332762D01*
X116543776Y-152330806D01*
X116507426Y-152328768D01*
X116492800Y-152327410D01*
X115875476Y-152227360D01*
X115275726Y-152080657D01*
X114695567Y-151888964D01*
X114137014Y-151653946D01*
X113602085Y-151377265D01*
X113092796Y-151060585D01*
X112611163Y-150705571D01*
X112159204Y-150313884D01*
X111738934Y-149887190D01*
X111352371Y-149427151D01*
X111001530Y-148935431D01*
X110688428Y-148413694D01*
X110582536Y-148200591D01*
X146388600Y-148200591D01*
X147106150Y-148193845D01*
X147823700Y-148187100D01*
X147823700Y-135334700D01*
X149944600Y-135334700D01*
X149944619Y-136312079D01*
X149944679Y-137239845D01*
X149944782Y-138119183D01*
X149944933Y-138951280D01*
X149945133Y-139737321D01*
X149945387Y-140478493D01*
X149945697Y-141175982D01*
X149946066Y-141830974D01*
X149946497Y-142444656D01*
X149946995Y-143018213D01*
X149947561Y-143552831D01*
X149948199Y-144049697D01*
X149948912Y-144509998D01*
X149949703Y-144934918D01*
X149950575Y-145325644D01*
X149951532Y-145683363D01*
X149952576Y-146009260D01*
X149953711Y-146304522D01*
X149954940Y-146570335D01*
X149956265Y-146807885D01*
X149957691Y-147018358D01*
X149959219Y-147202940D01*
X149960854Y-147362818D01*
X149962599Y-147499178D01*
X149964456Y-147613205D01*
X149966428Y-147706086D01*
X149968519Y-147779007D01*
X149970733Y-147833155D01*
X149973071Y-147869715D01*
X149975537Y-147889874D01*
X149977709Y-147895000D01*
X150014434Y-147887194D01*
X150087418Y-147866120D01*
X150184969Y-147835288D01*
X150263459Y-147809154D01*
X150551351Y-147706270D01*
X150823601Y-147597452D01*
X151107195Y-147471838D01*
X151144750Y-147454431D01*
X151392400Y-147339146D01*
X151392400Y-136297970D01*
X153501605Y-136297970D01*
X153501695Y-137220042D01*
X153501911Y-138095822D01*
X153502253Y-138925068D01*
X153502719Y-139707535D01*
X153503309Y-140442982D01*
X153504024Y-141131165D01*
X153504861Y-141771840D01*
X153505820Y-142364765D01*
X153506902Y-142909698D01*
X153508105Y-143406394D01*
X153509429Y-143854611D01*
X153510873Y-144254105D01*
X153512437Y-144604634D01*
X153514120Y-144905955D01*
X153515922Y-145157825D01*
X153517842Y-145360000D01*
X153519879Y-145512238D01*
X153522033Y-145614295D01*
X153524303Y-145665928D01*
X153525597Y-145672748D01*
X153550313Y-145648232D01*
X153600186Y-145592129D01*
X153668390Y-145512322D01*
X153748100Y-145416694D01*
X153763315Y-145398199D01*
X154142334Y-144897376D01*
X154476129Y-144373626D01*
X154764310Y-143827901D01*
X155006491Y-143261155D01*
X155202282Y-142674342D01*
X155351295Y-142068416D01*
X155453143Y-141444330D01*
X155481791Y-141176700D01*
X155484699Y-141118790D01*
X155487433Y-141012961D01*
X155489994Y-140862094D01*
X155492381Y-140669068D01*
X155494594Y-140436764D01*
X155496635Y-140168063D01*
X155498503Y-139865845D01*
X155500199Y-139532991D01*
X155501723Y-139172380D01*
X155503074Y-138786894D01*
X155504253Y-138379413D01*
X155505261Y-137952817D01*
X155506098Y-137509986D01*
X155506764Y-137053803D01*
X155507258Y-136587146D01*
X155507582Y-136112896D01*
X155507736Y-135633933D01*
X155507719Y-135153139D01*
X155507533Y-134673393D01*
X155507177Y-134197577D01*
X155506651Y-133728570D01*
X155505956Y-133269252D01*
X155505092Y-132822506D01*
X155504059Y-132391210D01*
X155502858Y-131978245D01*
X155501489Y-131586492D01*
X155499951Y-131218831D01*
X155498246Y-130878143D01*
X155496372Y-130567309D01*
X155494332Y-130289207D01*
X155492124Y-130046720D01*
X155489750Y-129842727D01*
X155487209Y-129680110D01*
X155484501Y-129561748D01*
X155481627Y-129490521D01*
X155480846Y-129480000D01*
X155405438Y-128892412D01*
X155286102Y-128311373D01*
X155124912Y-127743717D01*
X154923941Y-127196278D01*
X154685260Y-126675888D01*
X154558287Y-126438392D01*
X154407466Y-126182775D01*
X154238834Y-125919657D01*
X154060611Y-125660720D01*
X153881018Y-125417650D01*
X153708274Y-125202130D01*
X153606701Y-125085800D01*
X153502683Y-124971500D01*
X153501641Y-135329849D01*
X153501605Y-136297970D01*
X151392400Y-136297970D01*
X151392400Y-123330253D01*
X151144750Y-123214968D01*
X150994044Y-123147080D01*
X150829941Y-123077029D01*
X150660322Y-123007790D01*
X150493073Y-122942339D01*
X150336077Y-122883654D01*
X150197218Y-122834709D01*
X150084379Y-122798482D01*
X150005446Y-122777949D01*
X149977709Y-122774400D01*
X149975132Y-122781707D01*
X149972687Y-122804420D01*
X149970369Y-122843726D01*
X149968175Y-122900809D01*
X149966103Y-122976857D01*
X149964150Y-123073055D01*
X149962311Y-123190589D01*
X149960584Y-123330647D01*
X149958967Y-123494413D01*
X149957455Y-123683075D01*
X149956046Y-123897817D01*
X149954736Y-124139827D01*
X149953522Y-124410291D01*
X149952402Y-124710394D01*
X149951372Y-125041323D01*
X149950429Y-125404264D01*
X149949570Y-125800403D01*
X149948792Y-126230927D01*
X149948091Y-126697021D01*
X149947465Y-127199872D01*
X149946910Y-127740665D01*
X149946424Y-128320588D01*
X149946002Y-128940825D01*
X149945643Y-129602564D01*
X149945342Y-130306990D01*
X149945097Y-131055290D01*
X149944905Y-131848650D01*
X149944763Y-132688255D01*
X149944666Y-133575293D01*
X149944613Y-134510949D01*
X149944600Y-135334700D01*
X147823700Y-135334700D01*
X147823700Y-122482300D01*
X146388600Y-122468808D01*
X146388600Y-148200591D01*
X110582536Y-148200591D01*
X110415083Y-147863602D01*
X110183510Y-147286821D01*
X110106171Y-147058778D01*
X109995855Y-146685090D01*
X109908607Y-146316155D01*
X109842157Y-145938874D01*
X109794236Y-145540152D01*
X109762573Y-145106889D01*
X109760301Y-145062900D01*
X109757638Y-144984067D01*
X109755167Y-144857927D01*
X109752888Y-144684291D01*
X109750801Y-144462971D01*
X109748906Y-144193778D01*
X109747201Y-143876524D01*
X109745688Y-143511021D01*
X109744365Y-143097079D01*
X109743232Y-142634511D01*
X109742289Y-142123128D01*
X109741535Y-141562742D01*
X109740970Y-140953163D01*
X109740595Y-140294205D01*
X109740408Y-139585677D01*
X109740409Y-138827392D01*
X109740598Y-138019161D01*
X109740974Y-137160796D01*
X109741538Y-136252109D01*
X109742217Y-135383717D01*
X114749722Y-135383717D01*
X114749916Y-135869551D01*
X114750335Y-136352265D01*
X114750978Y-136829021D01*
X114751844Y-137296980D01*
X114752935Y-137753306D01*
X114754249Y-138195159D01*
X114755786Y-138619703D01*
X114757546Y-139024099D01*
X114759528Y-139405509D01*
X114761733Y-139761095D01*
X114764159Y-140088021D01*
X114766806Y-140383447D01*
X114769675Y-140644535D01*
X114772764Y-140868449D01*
X114776074Y-141052350D01*
X114779604Y-141193400D01*
X114783354Y-141288761D01*
X114786371Y-141329100D01*
X114882386Y-141952364D01*
X115018176Y-142546159D01*
X115195103Y-143114260D01*
X115414530Y-143660441D01*
X115677818Y-144188475D01*
X115986331Y-144702138D01*
X116024985Y-144760781D01*
X116115283Y-144893587D01*
X116209543Y-145027137D01*
X116302761Y-145154874D01*
X116389933Y-145270240D01*
X116466056Y-145366680D01*
X116526124Y-145437635D01*
X116565134Y-145476549D01*
X116575350Y-145481946D01*
X116576692Y-145456833D01*
X116578010Y-145382621D01*
X116579300Y-145261012D01*
X116580559Y-145093707D01*
X116581785Y-144882406D01*
X116582973Y-144628810D01*
X116584121Y-144334622D01*
X116585226Y-144001542D01*
X116586283Y-143631271D01*
X116587291Y-143225511D01*
X116588246Y-142785962D01*
X116589144Y-142314326D01*
X116589983Y-141812304D01*
X116590760Y-141281597D01*
X116591470Y-140723907D01*
X116592111Y-140140934D01*
X116592680Y-139534379D01*
X116593173Y-138905944D01*
X116593588Y-138257330D01*
X116593921Y-137590238D01*
X116594169Y-136906370D01*
X116594329Y-136207426D01*
X116594397Y-135495107D01*
X116594400Y-135332583D01*
X116594340Y-134455426D01*
X116594163Y-133612525D01*
X116593870Y-132804698D01*
X116593464Y-132032760D01*
X116592945Y-131297530D01*
X116592317Y-130599824D01*
X116591580Y-129940461D01*
X116590738Y-129320257D01*
X116589791Y-128740030D01*
X116588743Y-128200596D01*
X116587594Y-127702773D01*
X116586346Y-127247379D01*
X116585002Y-126835231D01*
X116583564Y-126467145D01*
X116582033Y-126143939D01*
X116580411Y-125866431D01*
X116578701Y-125635437D01*
X116576903Y-125451776D01*
X116575021Y-125316263D01*
X116573056Y-125229717D01*
X116571010Y-125192955D01*
X116570500Y-125191633D01*
X116540910Y-125217078D01*
X116487982Y-125277243D01*
X116417159Y-125364989D01*
X116333886Y-125473175D01*
X116243606Y-125594663D01*
X116151763Y-125722312D01*
X116063801Y-125848984D01*
X116023166Y-125909438D01*
X115721773Y-126400254D01*
X115462937Y-126901871D01*
X115244742Y-127419598D01*
X115065271Y-127958745D01*
X114922608Y-128524620D01*
X114814838Y-129122533D01*
X114785014Y-129340300D01*
X114781110Y-129397022D01*
X114777435Y-129501707D01*
X114773991Y-129651515D01*
X114770776Y-129843609D01*
X114767791Y-130075151D01*
X114765035Y-130343303D01*
X114762508Y-130645227D01*
X114760210Y-130978085D01*
X114758139Y-131339040D01*
X114756297Y-131725253D01*
X114754682Y-132133887D01*
X114753294Y-132562103D01*
X114752134Y-133007064D01*
X114751199Y-133465933D01*
X114750492Y-133935870D01*
X114750010Y-134414038D01*
X114749753Y-134897600D01*
X114749722Y-135383717D01*
X109742217Y-135383717D01*
X109742289Y-135292910D01*
X109742763Y-134763200D01*
X109743560Y-133921359D01*
X109744337Y-133128786D01*
X109745103Y-132383947D01*
X109745866Y-131685310D01*
X109746634Y-131031340D01*
X109747414Y-130420506D01*
X109748215Y-129851274D01*
X109749045Y-129322111D01*
X109749911Y-128831484D01*
X109750821Y-128377861D01*
X109751784Y-127959709D01*
X109752808Y-127575493D01*
X109753899Y-127223683D01*
X109755067Y-126902744D01*
X109756319Y-126611143D01*
X109757663Y-126347349D01*
X109759107Y-126109827D01*
X109760659Y-125897045D01*
X109762326Y-125707469D01*
X109764118Y-125539568D01*
X109766042Y-125391807D01*
X109768105Y-125262655D01*
X109770315Y-125150577D01*
X109772682Y-125054041D01*
X109775212Y-124971515D01*
X109777913Y-124901464D01*
X109780794Y-124842357D01*
X109783862Y-124792660D01*
X109787125Y-124750841D01*
X109790592Y-124715365D01*
X109794269Y-124684701D01*
X109794978Y-124679400D01*
X109902702Y-124049886D01*
X110051186Y-123446128D01*
X110060370Y-123417550D01*
X118702600Y-123417550D01*
X118702600Y-147251332D01*
X119051850Y-147420001D01*
X119191652Y-147485476D01*
X119344974Y-147553840D01*
X119503687Y-147621827D01*
X119659661Y-147686173D01*
X119804765Y-147743613D01*
X119930870Y-147790882D01*
X120029845Y-147824715D01*
X120093562Y-147841848D01*
X120105950Y-147843294D01*
X120109334Y-147841765D01*
X120112542Y-147836161D01*
X120115580Y-147825165D01*
X120118451Y-147807462D01*
X120121160Y-147781735D01*
X120123711Y-147746670D01*
X120126111Y-147700949D01*
X120128363Y-147643257D01*
X120130471Y-147572278D01*
X120132441Y-147486697D01*
X120134278Y-147385198D01*
X120135985Y-147266464D01*
X120137568Y-147129180D01*
X120139031Y-146972029D01*
X120140380Y-146793697D01*
X120141617Y-146592867D01*
X120142750Y-146368224D01*
X120143781Y-146118450D01*
X120144716Y-145842232D01*
X120145559Y-145538252D01*
X120146315Y-145205195D01*
X120146989Y-144841746D01*
X120147585Y-144446587D01*
X120148108Y-144018404D01*
X120148563Y-143555880D01*
X120148954Y-143057700D01*
X120149287Y-142522548D01*
X120149565Y-141949107D01*
X120149794Y-141336063D01*
X120149801Y-141308823D01*
X122263194Y-141308823D01*
X122263218Y-141969792D01*
X122263291Y-142605928D01*
X122263411Y-143215714D01*
X122263578Y-143797631D01*
X122263790Y-144350160D01*
X122264048Y-144871784D01*
X122264351Y-145360983D01*
X122264697Y-145816241D01*
X122265087Y-146236038D01*
X122265519Y-146618856D01*
X122265993Y-146963177D01*
X122266509Y-147267482D01*
X122267065Y-147530254D01*
X122267661Y-147749974D01*
X122268297Y-147925123D01*
X122268970Y-148054184D01*
X122269682Y-148135638D01*
X122270431Y-148167967D01*
X122270510Y-148168446D01*
X122284960Y-148178178D01*
X122323075Y-148185596D01*
X122389465Y-148190858D01*
X122488741Y-148194126D01*
X122625511Y-148195560D01*
X122804384Y-148195320D01*
X123000905Y-148193846D01*
X123719100Y-148187100D01*
X123719100Y-122482300D01*
X122271300Y-122482300D01*
X122264805Y-135309300D01*
X122264422Y-136114269D01*
X122264092Y-136906553D01*
X122263814Y-137684632D01*
X122263589Y-138446989D01*
X122263415Y-139192105D01*
X122263291Y-139918461D01*
X122263218Y-140624540D01*
X122263194Y-141308823D01*
X120149801Y-141308823D01*
X120149977Y-140682098D01*
X120150121Y-139985898D01*
X120150229Y-139246147D01*
X120150306Y-138461528D01*
X120150356Y-137630726D01*
X120150386Y-136752424D01*
X120150398Y-135825308D01*
X120150400Y-135334700D01*
X120150389Y-134377068D01*
X120150353Y-133468945D01*
X120150289Y-132609041D01*
X120150193Y-131796064D01*
X120150060Y-131028724D01*
X120149886Y-130305730D01*
X120149668Y-129625790D01*
X120149401Y-128987615D01*
X120149082Y-128389913D01*
X120148706Y-127831393D01*
X120148269Y-127310765D01*
X120147767Y-126826737D01*
X120147197Y-126378019D01*
X120146554Y-125963320D01*
X120145835Y-125581349D01*
X120145034Y-125230816D01*
X120144149Y-124910429D01*
X120143175Y-124618897D01*
X120142109Y-124354930D01*
X120140945Y-124117237D01*
X120139681Y-123904528D01*
X120138311Y-123715510D01*
X120136833Y-123548894D01*
X120135242Y-123403388D01*
X120133534Y-123277701D01*
X120131705Y-123170544D01*
X120129752Y-123080624D01*
X120127669Y-123006652D01*
X120125453Y-122947336D01*
X120123100Y-122901385D01*
X120120606Y-122867509D01*
X120117967Y-122844416D01*
X120115179Y-122830816D01*
X120112238Y-122825419D01*
X120111460Y-122825200D01*
X120062570Y-122835223D01*
X119975486Y-122863159D01*
X119858220Y-122905808D01*
X119718783Y-122959969D01*
X119565187Y-123022442D01*
X119405444Y-123090026D01*
X119247564Y-123159521D01*
X119099559Y-123227727D01*
X119077250Y-123238345D01*
X118702600Y-123417550D01*
X110060370Y-123417550D01*
X110208248Y-122957402D01*
X110348969Y-122604525D01*
X110412195Y-122469600D01*
X125840000Y-122469600D01*
X125840000Y-148199800D01*
X127287800Y-148199800D01*
X127287800Y-141308835D01*
X129400597Y-141308835D01*
X129400623Y-141969806D01*
X129400696Y-142605945D01*
X129400817Y-143215734D01*
X129400985Y-143797653D01*
X129401198Y-144350186D01*
X129401457Y-144871812D01*
X129401761Y-145361015D01*
X129402109Y-145816276D01*
X129402500Y-146236077D01*
X129402934Y-146618898D01*
X129403410Y-146963223D01*
X129403927Y-147267532D01*
X129404485Y-147530308D01*
X129405082Y-147750031D01*
X129405719Y-147925185D01*
X129406395Y-148054249D01*
X129407108Y-148135707D01*
X129407859Y-148168040D01*
X129407938Y-148168519D01*
X129423174Y-148179165D01*
X129463034Y-148186993D01*
X129532555Y-148192217D01*
X129636771Y-148195049D01*
X129780719Y-148195699D01*
X129969432Y-148194381D01*
X130011333Y-148193919D01*
X130602500Y-148187100D01*
X130602500Y-122482300D01*
X129408700Y-122482300D01*
X129402205Y-135309300D01*
X129401822Y-136114270D01*
X129401492Y-136906555D01*
X129401215Y-137684635D01*
X129400990Y-138446993D01*
X129400816Y-139192111D01*
X129400693Y-139918469D01*
X129400620Y-140624550D01*
X129400597Y-141308835D01*
X127287800Y-141308835D01*
X127287800Y-122469600D01*
X132723400Y-122469600D01*
X132723400Y-148199800D01*
X134171200Y-148199800D01*
X134171200Y-141308823D01*
X136283994Y-141308823D01*
X136284018Y-141969792D01*
X136284091Y-142605928D01*
X136284211Y-143215714D01*
X136284378Y-143797631D01*
X136284590Y-144350160D01*
X136284848Y-144871784D01*
X136285151Y-145360983D01*
X136285497Y-145816241D01*
X136285887Y-146236038D01*
X136286319Y-146618856D01*
X136286793Y-146963177D01*
X136287309Y-147267482D01*
X136287865Y-147530254D01*
X136288461Y-147749974D01*
X136289097Y-147925123D01*
X136289770Y-148054184D01*
X136290482Y-148135638D01*
X136291231Y-148167967D01*
X136291310Y-148168446D01*
X136305760Y-148178178D01*
X136343875Y-148185596D01*
X136410265Y-148190858D01*
X136509541Y-148194126D01*
X136646311Y-148195560D01*
X136825184Y-148195320D01*
X137021705Y-148193846D01*
X137739900Y-148187100D01*
X137739900Y-122482300D01*
X136292100Y-122482300D01*
X136285605Y-135309300D01*
X136285222Y-136114269D01*
X136284892Y-136906553D01*
X136284614Y-137684632D01*
X136284389Y-138446989D01*
X136284215Y-139192105D01*
X136284091Y-139918461D01*
X136284018Y-140624540D01*
X136283994Y-141308823D01*
X134171200Y-141308823D01*
X134171200Y-122469600D01*
X139860800Y-122469600D01*
X139860800Y-148199800D01*
X141308600Y-148199800D01*
X141308600Y-141308862D01*
X143421404Y-141308862D01*
X143421432Y-141969838D01*
X143421507Y-142605983D01*
X143421630Y-143215778D01*
X143421800Y-143797704D01*
X143422017Y-144350243D01*
X143422278Y-144871877D01*
X143422585Y-145361087D01*
X143422936Y-145816355D01*
X143423330Y-146236163D01*
X143423767Y-146618993D01*
X143424246Y-146963326D01*
X143424766Y-147267643D01*
X143425328Y-147530427D01*
X143425929Y-147750159D01*
X143426570Y-147925321D01*
X143427249Y-148054394D01*
X143427966Y-148135860D01*
X143428721Y-148168201D01*
X143428801Y-148168681D01*
X143445859Y-148181221D01*
X143489795Y-148189702D01*
X143566471Y-148194475D01*
X143681747Y-148195890D01*
X143841486Y-148194295D01*
X143854395Y-148194081D01*
X144267700Y-148187100D01*
X144267700Y-122482300D01*
X143429500Y-122482300D01*
X143423005Y-135309300D01*
X143422622Y-136114271D01*
X143422292Y-136906558D01*
X143422016Y-137684641D01*
X143421791Y-138447002D01*
X143421619Y-139192123D01*
X143421497Y-139918486D01*
X143421426Y-140624571D01*
X143421404Y-141308862D01*
X141308600Y-141308862D01*
X141308600Y-122469600D01*
X139860800Y-122469600D01*
X134171200Y-122469600D01*
X132723400Y-122469600D01*
X127287800Y-122469600D01*
X125840000Y-122469600D01*
X110412195Y-122469600D01*
X110522832Y-122233502D01*
X110722644Y-121857072D01*
X110941218Y-121487977D01*
X111171363Y-121138959D01*
X111405890Y-120822758D01*
X111429495Y-120793200D01*
X111561407Y-120637137D01*
X111721110Y-120460715D01*
X111897416Y-120275368D01*
X112079139Y-120092529D01*
X112255093Y-119923631D01*
X112414090Y-119780107D01*
X112454200Y-119745896D01*
X112946316Y-119363704D01*
X113458136Y-119027337D01*
X113991286Y-118736062D01*
X114547398Y-118489146D01*
X115128099Y-118285854D01*
X115735018Y-118125455D01*
X116289600Y-118019597D01*
X116657900Y-117961100D01*
X135606300Y-117961100D01*
X136817505Y-117961113D01*
D13*
X126761905Y-101952381D02*
X126761905Y-100952381D01*
X127000000Y-100952381D01*
X127142858Y-101000000D01*
X127238096Y-101095238D01*
X127285715Y-101190476D01*
X127333334Y-101380952D01*
X127333334Y-101523810D01*
X127285715Y-101714286D01*
X127238096Y-101809524D01*
X127142858Y-101904762D01*
X127000000Y-101952381D01*
X126761905Y-101952381D01*
X128190477Y-101285714D02*
X128190477Y-101952381D01*
X127952381Y-100904762D02*
X127714286Y-101619048D01*
X128333334Y-101619048D01*
X155488095Y-107452381D02*
X155488095Y-108261905D01*
X155535714Y-108357143D01*
X155583333Y-108404762D01*
X155678571Y-108452381D01*
X155869048Y-108452381D01*
X155964286Y-108404762D01*
X156011905Y-108357143D01*
X156059524Y-108261905D01*
X156059524Y-107452381D01*
X157059524Y-108452381D02*
X156488095Y-108452381D01*
X156773809Y-108452381D02*
X156773809Y-107452381D01*
X156678571Y-107595238D01*
X156583333Y-107690476D01*
X156488095Y-107738095D01*
X103666667Y-92702381D02*
X103666667Y-93416667D01*
X103619047Y-93559524D01*
X103523809Y-93654762D01*
X103380952Y-93702381D01*
X103285714Y-93702381D01*
X104666667Y-93702381D02*
X104095238Y-93702381D01*
X104380952Y-93702381D02*
X104380952Y-92702381D01*
X104285714Y-92845238D01*
X104190476Y-92940476D01*
X104095238Y-92988095D01*
X158238095Y-136404762D02*
X158380952Y-136452381D01*
X158619048Y-136452381D01*
X158714286Y-136404762D01*
X158761905Y-136357143D01*
X158809524Y-136261905D01*
X158809524Y-136166667D01*
X158761905Y-136071429D01*
X158714286Y-136023810D01*
X158619048Y-135976190D01*
X158428571Y-135928571D01*
X158333333Y-135880952D01*
X158285714Y-135833333D01*
X158238095Y-135738095D01*
X158238095Y-135642857D01*
X158285714Y-135547619D01*
X158333333Y-135500000D01*
X158428571Y-135452381D01*
X158666667Y-135452381D01*
X158809524Y-135500000D01*
X159666667Y-135452381D02*
X159476190Y-135452381D01*
X159380952Y-135500000D01*
X159333333Y-135547619D01*
X159238095Y-135690476D01*
X159190476Y-135880952D01*
X159190476Y-136261905D01*
X159238095Y-136357143D01*
X159285714Y-136404762D01*
X159380952Y-136452381D01*
X159571429Y-136452381D01*
X159666667Y-136404762D01*
X159714286Y-136357143D01*
X159761905Y-136261905D01*
X159761905Y-136023810D01*
X159714286Y-135928571D01*
X159666667Y-135880952D01*
X159571429Y-135833333D01*
X159380952Y-135833333D01*
X159285714Y-135880952D01*
X159238095Y-135928571D01*
X159190476Y-136023810D01*
X158238095Y-126904762D02*
X158380952Y-126952381D01*
X158619048Y-126952381D01*
X158714286Y-126904762D01*
X158761905Y-126857143D01*
X158809524Y-126761905D01*
X158809524Y-126666667D01*
X158761905Y-126571429D01*
X158714286Y-126523810D01*
X158619048Y-126476190D01*
X158428571Y-126428571D01*
X158333333Y-126380952D01*
X158285714Y-126333333D01*
X158238095Y-126238095D01*
X158238095Y-126142857D01*
X158285714Y-126047619D01*
X158333333Y-126000000D01*
X158428571Y-125952381D01*
X158666667Y-125952381D01*
X158809524Y-126000000D01*
X159714286Y-125952381D02*
X159238095Y-125952381D01*
X159190476Y-126428571D01*
X159238095Y-126380952D01*
X159333333Y-126333333D01*
X159571429Y-126333333D01*
X159666667Y-126380952D01*
X159714286Y-126428571D01*
X159761905Y-126523810D01*
X159761905Y-126761905D01*
X159714286Y-126857143D01*
X159666667Y-126904762D01*
X159571429Y-126952381D01*
X159333333Y-126952381D01*
X159238095Y-126904762D01*
X159190476Y-126857143D01*
X147988095Y-151404762D02*
X148130952Y-151452381D01*
X148369048Y-151452381D01*
X148464286Y-151404762D01*
X148511905Y-151357143D01*
X148559524Y-151261905D01*
X148559524Y-151166667D01*
X148511905Y-151071429D01*
X148464286Y-151023810D01*
X148369048Y-150976190D01*
X148178571Y-150928571D01*
X148083333Y-150880952D01*
X148035714Y-150833333D01*
X147988095Y-150738095D01*
X147988095Y-150642857D01*
X148035714Y-150547619D01*
X148083333Y-150500000D01*
X148178571Y-150452381D01*
X148416667Y-150452381D01*
X148559524Y-150500000D01*
X148892857Y-150452381D02*
X149559524Y-150452381D01*
X149130952Y-151452381D01*
X122738095Y-151904762D02*
X122880952Y-151952381D01*
X123119048Y-151952381D01*
X123214286Y-151904762D01*
X123261905Y-151857143D01*
X123309524Y-151761905D01*
X123309524Y-151666667D01*
X123261905Y-151571429D01*
X123214286Y-151523810D01*
X123119048Y-151476190D01*
X122928571Y-151428571D01*
X122833333Y-151380952D01*
X122785714Y-151333333D01*
X122738095Y-151238095D01*
X122738095Y-151142857D01*
X122785714Y-151047619D01*
X122833333Y-151000000D01*
X122928571Y-150952381D01*
X123166667Y-150952381D01*
X123309524Y-151000000D01*
X123880952Y-151380952D02*
X123785714Y-151333333D01*
X123738095Y-151285714D01*
X123690476Y-151190476D01*
X123690476Y-151142857D01*
X123738095Y-151047619D01*
X123785714Y-151000000D01*
X123880952Y-150952381D01*
X124071429Y-150952381D01*
X124166667Y-151000000D01*
X124214286Y-151047619D01*
X124261905Y-151142857D01*
X124261905Y-151190476D01*
X124214286Y-151285714D01*
X124166667Y-151333333D01*
X124071429Y-151380952D01*
X123880952Y-151380952D01*
X123785714Y-151428571D01*
X123738095Y-151476190D01*
X123690476Y-151571429D01*
X123690476Y-151761905D01*
X123738095Y-151857143D01*
X123785714Y-151904762D01*
X123880952Y-151952381D01*
X124071429Y-151952381D01*
X124166667Y-151904762D01*
X124214286Y-151857143D01*
X124261905Y-151761905D01*
X124261905Y-151571429D01*
X124214286Y-151476190D01*
X124166667Y-151428571D01*
X124071429Y-151380952D01*
X123738095Y-117404762D02*
X123880952Y-117452381D01*
X124119048Y-117452381D01*
X124214286Y-117404762D01*
X124261905Y-117357143D01*
X124309524Y-117261905D01*
X124309524Y-117166667D01*
X124261905Y-117071429D01*
X124214286Y-117023810D01*
X124119048Y-116976190D01*
X123928571Y-116928571D01*
X123833333Y-116880952D01*
X123785714Y-116833333D01*
X123738095Y-116738095D01*
X123738095Y-116642857D01*
X123785714Y-116547619D01*
X123833333Y-116500000D01*
X123928571Y-116452381D01*
X124166667Y-116452381D01*
X124309524Y-116500000D01*
X125166667Y-116785714D02*
X125166667Y-117452381D01*
X124928571Y-116404762D02*
X124690476Y-117119048D01*
X125309524Y-117119048D01*
X117238095Y-132404762D02*
X117380952Y-132452381D01*
X117619048Y-132452381D01*
X117714286Y-132404762D01*
X117761905Y-132357143D01*
X117809524Y-132261905D01*
X117809524Y-132166667D01*
X117761905Y-132071429D01*
X117714286Y-132023810D01*
X117619048Y-131976190D01*
X117428571Y-131928571D01*
X117333333Y-131880952D01*
X117285714Y-131833333D01*
X117238095Y-131738095D01*
X117238095Y-131642857D01*
X117285714Y-131547619D01*
X117333333Y-131500000D01*
X117428571Y-131452381D01*
X117666667Y-131452381D01*
X117809524Y-131500000D01*
X118190476Y-131547619D02*
X118238095Y-131500000D01*
X118333333Y-131452381D01*
X118571429Y-131452381D01*
X118666667Y-131500000D01*
X118714286Y-131547619D01*
X118761905Y-131642857D01*
X118761905Y-131738095D01*
X118714286Y-131880952D01*
X118142857Y-132452381D01*
X118761905Y-132452381D01*
X110238095Y-117404762D02*
X110380952Y-117452381D01*
X110619048Y-117452381D01*
X110714286Y-117404762D01*
X110761905Y-117357143D01*
X110809524Y-117261905D01*
X110809524Y-117166667D01*
X110761905Y-117071429D01*
X110714286Y-117023810D01*
X110619048Y-116976190D01*
X110428571Y-116928571D01*
X110333333Y-116880952D01*
X110285714Y-116833333D01*
X110238095Y-116738095D01*
X110238095Y-116642857D01*
X110285714Y-116547619D01*
X110333333Y-116500000D01*
X110428571Y-116452381D01*
X110666667Y-116452381D01*
X110809524Y-116500000D01*
X111142857Y-116452381D02*
X111761905Y-116452381D01*
X111428571Y-116833333D01*
X111571429Y-116833333D01*
X111666667Y-116880952D01*
X111714286Y-116928571D01*
X111761905Y-117023810D01*
X111761905Y-117261905D01*
X111714286Y-117357143D01*
X111666667Y-117404762D01*
X111571429Y-117452381D01*
X111285714Y-117452381D01*
X111190476Y-117404762D01*
X111142857Y-117357143D01*
X117238095Y-110404762D02*
X117380952Y-110452381D01*
X117619048Y-110452381D01*
X117714286Y-110404762D01*
X117761905Y-110357143D01*
X117809524Y-110261905D01*
X117809524Y-110166667D01*
X117761905Y-110071429D01*
X117714286Y-110023810D01*
X117619048Y-109976190D01*
X117428571Y-109928571D01*
X117333333Y-109880952D01*
X117285714Y-109833333D01*
X117238095Y-109738095D01*
X117238095Y-109642857D01*
X117285714Y-109547619D01*
X117333333Y-109500000D01*
X117428571Y-109452381D01*
X117666667Y-109452381D01*
X117809524Y-109500000D01*
X118761905Y-110452381D02*
X118190476Y-110452381D01*
X118476190Y-110452381D02*
X118476190Y-109452381D01*
X118380952Y-109595238D01*
X118285714Y-109690476D01*
X118190476Y-109738095D01*
X131952381Y-111916666D02*
X131476190Y-112250000D01*
X131952381Y-112488095D02*
X130952381Y-112488095D01*
X130952381Y-112107142D01*
X131000000Y-112011904D01*
X131047619Y-111964285D01*
X131142857Y-111916666D01*
X131285714Y-111916666D01*
X131380952Y-111964285D01*
X131428571Y-112011904D01*
X131476190Y-112107142D01*
X131476190Y-112488095D01*
X130952381Y-111059523D02*
X130952381Y-111250000D01*
X131000000Y-111345238D01*
X131047619Y-111392857D01*
X131190476Y-111488095D01*
X131380952Y-111535714D01*
X131761905Y-111535714D01*
X131857143Y-111488095D01*
X131904762Y-111440476D01*
X131952381Y-111345238D01*
X131952381Y-111154761D01*
X131904762Y-111059523D01*
X131857143Y-111011904D01*
X131761905Y-110964285D01*
X131523810Y-110964285D01*
X131428571Y-111011904D01*
X131380952Y-111059523D01*
X131333333Y-111154761D01*
X131333333Y-111345238D01*
X131380952Y-111440476D01*
X131428571Y-111488095D01*
X131523810Y-111535714D01*
X127452381Y-111916666D02*
X126976190Y-112250000D01*
X127452381Y-112488095D02*
X126452381Y-112488095D01*
X126452381Y-112107142D01*
X126500000Y-112011904D01*
X126547619Y-111964285D01*
X126642857Y-111916666D01*
X126785714Y-111916666D01*
X126880952Y-111964285D01*
X126928571Y-112011904D01*
X126976190Y-112107142D01*
X126976190Y-112488095D01*
X126785714Y-111059523D02*
X127452381Y-111059523D01*
X126404762Y-111297619D02*
X127119048Y-111535714D01*
X127119048Y-110916666D01*
X128952381Y-111916666D02*
X128476190Y-112250000D01*
X128952381Y-112488095D02*
X127952381Y-112488095D01*
X127952381Y-112107142D01*
X128000000Y-112011904D01*
X128047619Y-111964285D01*
X128142857Y-111916666D01*
X128285714Y-111916666D01*
X128380952Y-111964285D01*
X128428571Y-112011904D01*
X128476190Y-112107142D01*
X128476190Y-112488095D01*
X127952381Y-111011904D02*
X127952381Y-111488095D01*
X128428571Y-111535714D01*
X128380952Y-111488095D01*
X128333333Y-111392857D01*
X128333333Y-111154761D01*
X128380952Y-111059523D01*
X128428571Y-111011904D01*
X128523810Y-110964285D01*
X128761905Y-110964285D01*
X128857143Y-111011904D01*
X128904762Y-111059523D01*
X128952381Y-111154761D01*
X128952381Y-111392857D01*
X128904762Y-111488095D01*
X128857143Y-111535714D01*
X140607143Y-103416666D02*
X140654762Y-103464285D01*
X140702381Y-103607142D01*
X140702381Y-103702380D01*
X140654762Y-103845238D01*
X140559524Y-103940476D01*
X140464286Y-103988095D01*
X140273810Y-104035714D01*
X140130952Y-104035714D01*
X139940476Y-103988095D01*
X139845238Y-103940476D01*
X139750000Y-103845238D01*
X139702381Y-103702380D01*
X139702381Y-103607142D01*
X139750000Y-103464285D01*
X139797619Y-103416666D01*
X140702381Y-102464285D02*
X140702381Y-103035714D01*
X140702381Y-102750000D02*
X139702381Y-102750000D01*
X139845238Y-102845238D01*
X139940476Y-102940476D01*
X139988095Y-103035714D01*
X125857143Y-112166666D02*
X125904762Y-112214285D01*
X125952381Y-112357142D01*
X125952381Y-112452380D01*
X125904762Y-112595238D01*
X125809524Y-112690476D01*
X125714286Y-112738095D01*
X125523810Y-112785714D01*
X125380952Y-112785714D01*
X125190476Y-112738095D01*
X125095238Y-112690476D01*
X125000000Y-112595238D01*
X124952381Y-112452380D01*
X124952381Y-112357142D01*
X125000000Y-112214285D01*
X125047619Y-112166666D01*
X125047619Y-111785714D02*
X125000000Y-111738095D01*
X124952381Y-111642857D01*
X124952381Y-111404761D01*
X125000000Y-111309523D01*
X125047619Y-111261904D01*
X125142857Y-111214285D01*
X125238095Y-111214285D01*
X125380952Y-111261904D01*
X125952381Y-111833333D01*
X125952381Y-111214285D01*
X127607143Y-38916666D02*
X127654762Y-38964285D01*
X127702381Y-39107142D01*
X127702381Y-39202380D01*
X127654762Y-39345238D01*
X127559524Y-39440476D01*
X127464286Y-39488095D01*
X127273810Y-39535714D01*
X127130952Y-39535714D01*
X126940476Y-39488095D01*
X126845238Y-39440476D01*
X126750000Y-39345238D01*
X126702381Y-39202380D01*
X126702381Y-39107142D01*
X126750000Y-38964285D01*
X126797619Y-38916666D01*
X126702381Y-38583333D02*
X126702381Y-37964285D01*
X127083333Y-38297619D01*
X127083333Y-38154761D01*
X127130952Y-38059523D01*
X127178571Y-38011904D01*
X127273810Y-37964285D01*
X127511905Y-37964285D01*
X127607143Y-38011904D01*
X127654762Y-38059523D01*
X127702381Y-38154761D01*
X127702381Y-38440476D01*
X127654762Y-38535714D01*
X127607143Y-38583333D01*
X152107143Y-106166666D02*
X152154762Y-106214285D01*
X152202381Y-106357142D01*
X152202381Y-106452380D01*
X152154762Y-106595238D01*
X152059524Y-106690476D01*
X151964286Y-106738095D01*
X151773810Y-106785714D01*
X151630952Y-106785714D01*
X151440476Y-106738095D01*
X151345238Y-106690476D01*
X151250000Y-106595238D01*
X151202381Y-106452380D01*
X151202381Y-106357142D01*
X151250000Y-106214285D01*
X151297619Y-106166666D01*
X151535714Y-105309523D02*
X152202381Y-105309523D01*
X151154762Y-105547619D02*
X151869048Y-105785714D01*
X151869048Y-105166666D01*
X106952381Y-106488095D02*
X105952381Y-106488095D01*
X105952381Y-106250000D01*
X106000000Y-106107142D01*
X106095238Y-106011904D01*
X106190476Y-105964285D01*
X106380952Y-105916666D01*
X106523810Y-105916666D01*
X106714286Y-105964285D01*
X106809524Y-106011904D01*
X106904762Y-106107142D01*
X106952381Y-106250000D01*
X106952381Y-106488095D01*
X106952381Y-104964285D02*
X106952381Y-105535714D01*
X106952381Y-105250000D02*
X105952381Y-105250000D01*
X106095238Y-105345238D01*
X106190476Y-105440476D01*
X106238095Y-105535714D01*
X108952381Y-106238095D02*
X107952381Y-106238095D01*
X107952381Y-106000000D01*
X108000000Y-105857142D01*
X108095238Y-105761904D01*
X108190476Y-105714285D01*
X108380952Y-105666666D01*
X108523810Y-105666666D01*
X108714286Y-105714285D01*
X108809524Y-105761904D01*
X108904762Y-105857142D01*
X108952381Y-106000000D01*
X108952381Y-106238095D01*
X108047619Y-105285714D02*
X108000000Y-105238095D01*
X107952381Y-105142857D01*
X107952381Y-104904761D01*
X108000000Y-104809523D01*
X108047619Y-104761904D01*
X108142857Y-104714285D01*
X108238095Y-104714285D01*
X108380952Y-104761904D01*
X108952381Y-105333333D01*
X108952381Y-104714285D01*
X110952381Y-106238095D02*
X109952381Y-106238095D01*
X109952381Y-106000000D01*
X110000000Y-105857142D01*
X110095238Y-105761904D01*
X110190476Y-105714285D01*
X110380952Y-105666666D01*
X110523810Y-105666666D01*
X110714286Y-105714285D01*
X110809524Y-105761904D01*
X110904762Y-105857142D01*
X110952381Y-106000000D01*
X110952381Y-106238095D01*
X109952381Y-105333333D02*
X109952381Y-104714285D01*
X110333333Y-105047619D01*
X110333333Y-104904761D01*
X110380952Y-104809523D01*
X110428571Y-104761904D01*
X110523810Y-104714285D01*
X110761905Y-104714285D01*
X110857143Y-104761904D01*
X110904762Y-104809523D01*
X110952381Y-104904761D01*
X110952381Y-105190476D01*
X110904762Y-105285714D01*
X110857143Y-105333333D01*
X143761905Y-101952381D02*
X143761905Y-100952381D01*
X144000000Y-100952381D01*
X144142858Y-101000000D01*
X144238096Y-101095238D01*
X144285715Y-101190476D01*
X144333334Y-101380952D01*
X144333334Y-101523810D01*
X144285715Y-101714286D01*
X144238096Y-101809524D01*
X144142858Y-101904762D01*
X144000000Y-101952381D01*
X143761905Y-101952381D01*
X145238096Y-100952381D02*
X144761905Y-100952381D01*
X144714286Y-101428571D01*
X144761905Y-101380952D01*
X144857143Y-101333333D01*
X145095239Y-101333333D01*
X145190477Y-101380952D01*
X145238096Y-101428571D01*
X145285715Y-101523810D01*
X145285715Y-101761905D01*
X145238096Y-101857143D01*
X145190477Y-101904762D01*
X145095239Y-101952381D01*
X144857143Y-101952381D01*
X144761905Y-101904762D01*
X144714286Y-101857143D01*
X149261905Y-41202381D02*
X149261905Y-40202381D01*
X149500000Y-40202381D01*
X149642858Y-40250000D01*
X149738096Y-40345238D01*
X149785715Y-40440476D01*
X149833334Y-40630952D01*
X149833334Y-40773810D01*
X149785715Y-40964286D01*
X149738096Y-41059524D01*
X149642858Y-41154762D01*
X149500000Y-41202381D01*
X149261905Y-41202381D01*
X150690477Y-40202381D02*
X150500000Y-40202381D01*
X150404762Y-40250000D01*
X150357143Y-40297619D01*
X150261905Y-40440476D01*
X150214286Y-40630952D01*
X150214286Y-41011905D01*
X150261905Y-41107143D01*
X150309524Y-41154762D01*
X150404762Y-41202381D01*
X150595239Y-41202381D01*
X150690477Y-41154762D01*
X150738096Y-41107143D01*
X150785715Y-41011905D01*
X150785715Y-40773810D01*
X150738096Y-40678571D01*
X150690477Y-40630952D01*
X150595239Y-40583333D01*
X150404762Y-40583333D01*
X150309524Y-40630952D01*
X150261905Y-40678571D01*
X150214286Y-40773810D01*
X121261905Y-41202381D02*
X121261905Y-40202381D01*
X121500000Y-40202381D01*
X121642858Y-40250000D01*
X121738096Y-40345238D01*
X121785715Y-40440476D01*
X121833334Y-40630952D01*
X121833334Y-40773810D01*
X121785715Y-40964286D01*
X121738096Y-41059524D01*
X121642858Y-41154762D01*
X121500000Y-41202381D01*
X121261905Y-41202381D01*
X122166667Y-40202381D02*
X122833334Y-40202381D01*
X122404762Y-41202381D01*
X112952381Y-106238095D02*
X111952381Y-106238095D01*
X111952381Y-106000000D01*
X112000000Y-105857142D01*
X112095238Y-105761904D01*
X112190476Y-105714285D01*
X112380952Y-105666666D01*
X112523810Y-105666666D01*
X112714286Y-105714285D01*
X112809524Y-105761904D01*
X112904762Y-105857142D01*
X112952381Y-106000000D01*
X112952381Y-106238095D01*
X112380952Y-105095238D02*
X112333333Y-105190476D01*
X112285714Y-105238095D01*
X112190476Y-105285714D01*
X112142857Y-105285714D01*
X112047619Y-105238095D01*
X112000000Y-105190476D01*
X111952381Y-105095238D01*
X111952381Y-104904761D01*
X112000000Y-104809523D01*
X112047619Y-104761904D01*
X112142857Y-104714285D01*
X112190476Y-104714285D01*
X112285714Y-104761904D01*
X112333333Y-104809523D01*
X112380952Y-104904761D01*
X112380952Y-105095238D01*
X112428571Y-105190476D01*
X112476190Y-105238095D01*
X112571429Y-105285714D01*
X112761905Y-105285714D01*
X112857143Y-105238095D01*
X112904762Y-105190476D01*
X112952381Y-105095238D01*
X112952381Y-104904761D01*
X112904762Y-104809523D01*
X112857143Y-104761904D01*
X112761905Y-104714285D01*
X112571429Y-104714285D01*
X112476190Y-104761904D01*
X112428571Y-104809523D01*
X112380952Y-104904761D01*
X114952381Y-106238095D02*
X113952381Y-106238095D01*
X113952381Y-106000000D01*
X114000000Y-105857142D01*
X114095238Y-105761904D01*
X114190476Y-105714285D01*
X114380952Y-105666666D01*
X114523810Y-105666666D01*
X114714286Y-105714285D01*
X114809524Y-105761904D01*
X114904762Y-105857142D01*
X114952381Y-106000000D01*
X114952381Y-106238095D01*
X114952381Y-105190476D02*
X114952381Y-105000000D01*
X114904762Y-104904761D01*
X114857143Y-104857142D01*
X114714286Y-104761904D01*
X114523810Y-104714285D01*
X114142857Y-104714285D01*
X114047619Y-104761904D01*
X114000000Y-104809523D01*
X113952381Y-104904761D01*
X113952381Y-105095238D01*
X114000000Y-105190476D01*
X114047619Y-105238095D01*
X114142857Y-105285714D01*
X114380952Y-105285714D01*
X114476190Y-105238095D01*
X114523810Y-105190476D01*
X114571429Y-105095238D01*
X114571429Y-104904761D01*
X114523810Y-104809523D01*
X114476190Y-104761904D01*
X114380952Y-104714285D01*
X116952381Y-106214286D02*
X115952381Y-106214286D01*
X115952381Y-105976191D01*
X116000000Y-105833333D01*
X116095238Y-105738095D01*
X116190476Y-105690476D01*
X116380952Y-105642857D01*
X116523810Y-105642857D01*
X116714286Y-105690476D01*
X116809524Y-105738095D01*
X116904762Y-105833333D01*
X116952381Y-105976191D01*
X116952381Y-106214286D01*
X116952381Y-104690476D02*
X116952381Y-105261905D01*
X116952381Y-104976191D02*
X115952381Y-104976191D01*
X116095238Y-105071429D01*
X116190476Y-105166667D01*
X116238095Y-105261905D01*
X115952381Y-104071429D02*
X115952381Y-103976190D01*
X116000000Y-103880952D01*
X116047619Y-103833333D01*
X116142857Y-103785714D01*
X116333333Y-103738095D01*
X116571429Y-103738095D01*
X116761905Y-103785714D01*
X116857143Y-103833333D01*
X116904762Y-103880952D01*
X116952381Y-103976190D01*
X116952381Y-104071429D01*
X116904762Y-104166667D01*
X116857143Y-104214286D01*
X116761905Y-104261905D01*
X116571429Y-104309524D01*
X116333333Y-104309524D01*
X116142857Y-104261905D01*
X116047619Y-104214286D01*
X116000000Y-104166667D01*
X115952381Y-104071429D01*
X167666667Y-90202381D02*
X167666667Y-90916667D01*
X167619047Y-91059524D01*
X167523809Y-91154762D01*
X167380952Y-91202381D01*
X167285714Y-91202381D01*
X168047619Y-90202381D02*
X168666667Y-90202381D01*
X168333333Y-90583333D01*
X168476191Y-90583333D01*
X168571429Y-90630952D01*
X168619048Y-90678571D01*
X168666667Y-90773810D01*
X168666667Y-91011905D01*
X168619048Y-91107143D01*
X168571429Y-91154762D01*
X168476191Y-91202381D01*
X168190476Y-91202381D01*
X168095238Y-91154762D01*
X168047619Y-91107143D01*
X156202381Y-105916666D02*
X155726190Y-106250000D01*
X156202381Y-106488095D02*
X155202381Y-106488095D01*
X155202381Y-106107142D01*
X155250000Y-106011904D01*
X155297619Y-105964285D01*
X155392857Y-105916666D01*
X155535714Y-105916666D01*
X155630952Y-105964285D01*
X155678571Y-106011904D01*
X155726190Y-106107142D01*
X155726190Y-106488095D01*
X156202381Y-104964285D02*
X156202381Y-105535714D01*
X156202381Y-105250000D02*
X155202381Y-105250000D01*
X155345238Y-105345238D01*
X155440476Y-105440476D01*
X155488095Y-105535714D01*
X130452381Y-111916666D02*
X129976190Y-112250000D01*
X130452381Y-112488095D02*
X129452381Y-112488095D01*
X129452381Y-112107142D01*
X129500000Y-112011904D01*
X129547619Y-111964285D01*
X129642857Y-111916666D01*
X129785714Y-111916666D01*
X129880952Y-111964285D01*
X129928571Y-112011904D01*
X129976190Y-112107142D01*
X129976190Y-112488095D01*
X129547619Y-111535714D02*
X129500000Y-111488095D01*
X129452381Y-111392857D01*
X129452381Y-111154761D01*
X129500000Y-111059523D01*
X129547619Y-111011904D01*
X129642857Y-110964285D01*
X129738095Y-110964285D01*
X129880952Y-111011904D01*
X130452381Y-111583333D01*
X130452381Y-110964285D01*
X133452381Y-111916666D02*
X132976190Y-112250000D01*
X133452381Y-112488095D02*
X132452381Y-112488095D01*
X132452381Y-112107142D01*
X132500000Y-112011904D01*
X132547619Y-111964285D01*
X132642857Y-111916666D01*
X132785714Y-111916666D01*
X132880952Y-111964285D01*
X132928571Y-112011904D01*
X132976190Y-112107142D01*
X132976190Y-112488095D01*
X132452381Y-111583333D02*
X132452381Y-110964285D01*
X132833333Y-111297619D01*
X132833333Y-111154761D01*
X132880952Y-111059523D01*
X132928571Y-111011904D01*
X133023810Y-110964285D01*
X133261905Y-110964285D01*
X133357143Y-111011904D01*
X133404762Y-111059523D01*
X133452381Y-111154761D01*
X133452381Y-111440476D01*
X133404762Y-111535714D01*
X133357143Y-111583333D01*
X156428571Y-77785714D02*
X156476190Y-77642857D01*
X156523810Y-77595238D01*
X156619048Y-77547619D01*
X156761905Y-77547619D01*
X156857143Y-77595238D01*
X156904762Y-77642857D01*
X156952381Y-77738095D01*
X156952381Y-78119048D01*
X155952381Y-78119048D01*
X155952381Y-77785714D01*
X156000000Y-77690476D01*
X156047619Y-77642857D01*
X156142857Y-77595238D01*
X156238095Y-77595238D01*
X156333333Y-77642857D01*
X156380952Y-77690476D01*
X156428571Y-77785714D01*
X156428571Y-78119048D01*
X155952381Y-77261905D02*
X155952381Y-76690476D01*
X156952381Y-76976191D02*
X155952381Y-76976191D01*
X156952381Y-75833333D02*
X156952381Y-76404762D01*
X156952381Y-76119048D02*
X155952381Y-76119048D01*
X156095238Y-76214286D01*
X156190476Y-76309524D01*
X156238095Y-76404762D01*
D11*
X157607143Y-101404762D02*
X157607143Y-97595238D01*
X159511905Y-99500000D02*
X155702381Y-99500000D01*
X155595238Y-52607143D02*
X159404762Y-52607143D01*
D13*
X115428571Y-76785714D02*
X115476190Y-76642857D01*
X115523810Y-76595238D01*
X115619048Y-76547619D01*
X115761905Y-76547619D01*
X115857143Y-76595238D01*
X115904762Y-76642857D01*
X115952381Y-76738095D01*
X115952381Y-77119048D01*
X114952381Y-77119048D01*
X114952381Y-76785714D01*
X115000000Y-76690476D01*
X115047619Y-76642857D01*
X115142857Y-76595238D01*
X115238095Y-76595238D01*
X115333333Y-76642857D01*
X115380952Y-76690476D01*
X115428571Y-76785714D01*
X115428571Y-77119048D01*
X114952381Y-76261905D02*
X114952381Y-75690476D01*
X115952381Y-75976191D02*
X114952381Y-75976191D01*
X115047619Y-75404762D02*
X115000000Y-75357143D01*
X114952381Y-75261905D01*
X114952381Y-75023809D01*
X115000000Y-74928571D01*
X115047619Y-74880952D01*
X115142857Y-74833333D01*
X115238095Y-74833333D01*
X115380952Y-74880952D01*
X115952381Y-75452381D01*
X115952381Y-74833333D01*
D11*
X112595238Y-101107143D02*
X116404762Y-101107143D01*
X115107143Y-55404762D02*
X115107143Y-51595238D01*
X117011905Y-53500000D02*
X113202381Y-53500000D01*
D13*
X148702381Y-103666666D02*
X148226190Y-104000000D01*
X148702381Y-104238095D02*
X147702381Y-104238095D01*
X147702381Y-103857142D01*
X147750000Y-103761904D01*
X147797619Y-103714285D01*
X147892857Y-103666666D01*
X148035714Y-103666666D01*
X148130952Y-103714285D01*
X148178571Y-103761904D01*
X148226190Y-103857142D01*
X148226190Y-104238095D01*
X147702381Y-103333333D02*
X147702381Y-102666666D01*
X148702381Y-103095238D01*
M02*
