G04 #@! TF.FileFunction,Soldermask,Top*
%FSLAX46Y46*%
G04 Gerber Fmt 4.6, Leading zero omitted, Abs format (unit mm)*
G04 Created by KiCad (PCBNEW 4.0.7-e0-6372~58~ubuntu16.04.1) date Fri Aug  4 00:12:12 2017*
%MOMM*%
%LPD*%
G01*
G04 APERTURE LIST*
%ADD10C,0.100000*%
%ADD11C,1.700000*%
%ADD12R,1.100000X1.100000*%
%ADD13R,1.400000X2.200000*%
%ADD14R,2.200000X1.400000*%
%ADD15O,1.900000X1.900000*%
%ADD16R,1.900000X1.900000*%
%ADD17R,1.750000X1.500000*%
%ADD18R,1.100000X0.700000*%
%ADD19R,0.950000X1.000000*%
%ADD20R,0.650000X0.800000*%
%ADD21C,3.200000*%
G04 APERTURE END LIST*
D10*
D11*
X125500000Y-50750000D03*
X125500000Y-52250000D03*
X143750000Y-53750000D03*
X143750000Y-49250000D03*
X128250000Y-49750000D03*
X128250000Y-51500000D03*
X128250000Y-53250000D03*
D12*
X129750000Y-106150000D03*
X125250000Y-106150000D03*
X129750000Y-102850000D03*
X125250000Y-102850000D03*
D13*
X154300000Y-124750000D03*
X152300000Y-124750000D03*
X150300000Y-124750000D03*
X148300000Y-124750000D03*
X146300000Y-124750000D03*
X144300000Y-124750000D03*
X142300000Y-124750000D03*
X140300000Y-124750000D03*
X154300000Y-108750000D03*
X152300000Y-108750000D03*
X150300000Y-108750000D03*
X148300000Y-108750000D03*
X146300000Y-108750000D03*
X144300000Y-108750000D03*
X142300000Y-108750000D03*
X140300000Y-108750000D03*
D14*
X138500000Y-111750000D03*
X138500000Y-113750000D03*
X138500000Y-115750000D03*
X138500000Y-121750000D03*
X138500000Y-119750000D03*
X138500000Y-117750000D03*
D15*
X104000000Y-90700000D03*
X104000000Y-88160000D03*
X104000000Y-85620000D03*
X104000000Y-83080000D03*
X104000000Y-80540000D03*
D16*
X104000000Y-78000000D03*
D17*
X155150000Y-137750000D03*
X162850000Y-137750000D03*
X162850000Y-142250000D03*
X155150000Y-142250000D03*
X155150000Y-128250000D03*
X162850000Y-128250000D03*
X162850000Y-132750000D03*
X155150000Y-132750000D03*
X144150000Y-146750000D03*
X151850000Y-146750000D03*
X151850000Y-151250000D03*
X144150000Y-151250000D03*
X120150000Y-146750000D03*
X127850000Y-146750000D03*
X127850000Y-151250000D03*
X120150000Y-151250000D03*
X120650000Y-118750000D03*
X128350000Y-118750000D03*
X128350000Y-123250000D03*
X120650000Y-123250000D03*
X114150000Y-125750000D03*
X121850000Y-125750000D03*
X121850000Y-130250000D03*
X114150000Y-130250000D03*
X107150000Y-118750000D03*
X114850000Y-118750000D03*
X114850000Y-123250000D03*
X107150000Y-123250000D03*
X114150000Y-111750000D03*
X121850000Y-111750000D03*
X121850000Y-116250000D03*
X114150000Y-116250000D03*
D18*
X131500000Y-108750000D03*
X131500000Y-110250000D03*
X127000000Y-110250000D03*
X127000000Y-108750000D03*
X128500000Y-110250000D03*
X128500000Y-108750000D03*
D19*
X140250000Y-106500000D03*
X140250000Y-105000000D03*
X125500000Y-108750000D03*
X125500000Y-110250000D03*
X125750000Y-38000000D03*
X125750000Y-39500000D03*
X150250000Y-105000000D03*
X150250000Y-106500000D03*
D20*
X106500000Y-109300000D03*
X106500000Y-107200000D03*
X108500000Y-109300000D03*
X108500000Y-107200000D03*
X110500000Y-109300000D03*
X110500000Y-107200000D03*
D12*
X142250000Y-102850000D03*
X146750000Y-102850000D03*
X142250000Y-106150000D03*
X146750000Y-106150000D03*
X147750000Y-36350000D03*
X152250000Y-36350000D03*
X147750000Y-39650000D03*
X152250000Y-39650000D03*
X124250000Y-39650000D03*
X119750000Y-39650000D03*
X124250000Y-36350000D03*
X119750000Y-36350000D03*
D20*
X112500000Y-109300000D03*
X112500000Y-107200000D03*
X114500000Y-107200000D03*
X114500000Y-109300000D03*
X116500000Y-107200000D03*
X116500000Y-109300000D03*
D15*
X168000000Y-88160000D03*
X168000000Y-85620000D03*
X168000000Y-83080000D03*
X168000000Y-80540000D03*
D16*
X168000000Y-78000000D03*
D18*
X154250000Y-106500000D03*
X154250000Y-105000000D03*
X130000000Y-110250000D03*
X130000000Y-108750000D03*
X133000000Y-108750000D03*
X133000000Y-110250000D03*
D21*
X157500000Y-50000000D03*
X157500000Y-103000000D03*
X114500000Y-50000000D03*
X114500000Y-103000000D03*
D18*
X148250000Y-106500000D03*
X148250000Y-105000000D03*
M02*
