G04 #@! TF.FileFunction,Copper,L1,Top,Signal*
%FSLAX46Y46*%
G04 Gerber Fmt 4.6, Leading zero omitted, Abs format (unit mm)*
G04 Created by KiCad (PCBNEW 4.0.7-e0-6372~58~ubuntu16.04.1) date Fri Aug  4 00:12:12 2017*
%MOMM*%
%LPD*%
G01*
G04 APERTURE LIST*
%ADD10C,0.100000*%
%ADD11C,1.500000*%
%ADD12R,0.900000X0.900000*%
%ADD13R,1.200000X2.000000*%
%ADD14R,2.000000X1.200000*%
%ADD15O,1.700000X1.700000*%
%ADD16R,1.700000X1.700000*%
%ADD17R,1.550000X1.300000*%
%ADD18R,0.900000X0.500000*%
%ADD19R,0.750000X0.800000*%
%ADD20R,0.450000X0.600000*%
%ADD21C,3.000000*%
%ADD22C,0.800000*%
%ADD23C,0.250000*%
%ADD24C,0.254000*%
G04 APERTURE END LIST*
D10*
D11*
X125500000Y-50750000D03*
X125500000Y-52250000D03*
X143750000Y-53750000D03*
X143750000Y-49250000D03*
X128250000Y-49750000D03*
X128250000Y-51500000D03*
X128250000Y-53250000D03*
D12*
X129750000Y-106150000D03*
X125250000Y-106150000D03*
X129750000Y-102850000D03*
X125250000Y-102850000D03*
D13*
X154300000Y-124750000D03*
X152300000Y-124750000D03*
X150300000Y-124750000D03*
X148300000Y-124750000D03*
X146300000Y-124750000D03*
X144300000Y-124750000D03*
X142300000Y-124750000D03*
X140300000Y-124750000D03*
X154300000Y-108750000D03*
X152300000Y-108750000D03*
X150300000Y-108750000D03*
X148300000Y-108750000D03*
X146300000Y-108750000D03*
X144300000Y-108750000D03*
X142300000Y-108750000D03*
X140300000Y-108750000D03*
D14*
X138500000Y-111750000D03*
X138500000Y-113750000D03*
X138500000Y-115750000D03*
X138500000Y-121750000D03*
X138500000Y-119750000D03*
X138500000Y-117750000D03*
D15*
X104000000Y-90700000D03*
X104000000Y-88160000D03*
X104000000Y-85620000D03*
X104000000Y-83080000D03*
X104000000Y-80540000D03*
D16*
X104000000Y-78000000D03*
D17*
X155150000Y-137750000D03*
X162850000Y-137750000D03*
X162850000Y-142250000D03*
X155150000Y-142250000D03*
X155150000Y-128250000D03*
X162850000Y-128250000D03*
X162850000Y-132750000D03*
X155150000Y-132750000D03*
X144150000Y-146750000D03*
X151850000Y-146750000D03*
X151850000Y-151250000D03*
X144150000Y-151250000D03*
X120150000Y-146750000D03*
X127850000Y-146750000D03*
X127850000Y-151250000D03*
X120150000Y-151250000D03*
X120650000Y-118750000D03*
X128350000Y-118750000D03*
X128350000Y-123250000D03*
X120650000Y-123250000D03*
X114150000Y-125750000D03*
X121850000Y-125750000D03*
X121850000Y-130250000D03*
X114150000Y-130250000D03*
X107150000Y-118750000D03*
X114850000Y-118750000D03*
X114850000Y-123250000D03*
X107150000Y-123250000D03*
X114150000Y-111750000D03*
X121850000Y-111750000D03*
X121850000Y-116250000D03*
X114150000Y-116250000D03*
D18*
X131500000Y-108750000D03*
X131500000Y-110250000D03*
X127000000Y-110250000D03*
X127000000Y-108750000D03*
X128500000Y-110250000D03*
X128500000Y-108750000D03*
D19*
X140250000Y-106500000D03*
X140250000Y-105000000D03*
X125500000Y-108750000D03*
X125500000Y-110250000D03*
X125750000Y-38000000D03*
X125750000Y-39500000D03*
X150250000Y-105000000D03*
X150250000Y-106500000D03*
D20*
X106500000Y-109300000D03*
X106500000Y-107200000D03*
X108500000Y-109300000D03*
X108500000Y-107200000D03*
X110500000Y-109300000D03*
X110500000Y-107200000D03*
D12*
X142250000Y-102850000D03*
X146750000Y-102850000D03*
X142250000Y-106150000D03*
X146750000Y-106150000D03*
X147750000Y-36350000D03*
X152250000Y-36350000D03*
X147750000Y-39650000D03*
X152250000Y-39650000D03*
X124250000Y-39650000D03*
X119750000Y-39650000D03*
X124250000Y-36350000D03*
X119750000Y-36350000D03*
D20*
X112500000Y-109300000D03*
X112500000Y-107200000D03*
X114500000Y-107200000D03*
X114500000Y-109300000D03*
X116500000Y-107200000D03*
X116500000Y-109300000D03*
D15*
X168000000Y-88160000D03*
X168000000Y-85620000D03*
X168000000Y-83080000D03*
X168000000Y-80540000D03*
D16*
X168000000Y-78000000D03*
D18*
X154250000Y-106500000D03*
X154250000Y-105000000D03*
X130000000Y-110250000D03*
X130000000Y-108750000D03*
X133000000Y-108750000D03*
X133000000Y-110250000D03*
D21*
X157500000Y-50000000D03*
X157500000Y-103000000D03*
X114500000Y-50000000D03*
X114500000Y-103000000D03*
D18*
X148250000Y-106500000D03*
X148250000Y-105000000D03*
D22*
X140000000Y-151500000D03*
X127500000Y-104500000D03*
X122000000Y-38000000D03*
X150000000Y-38000000D03*
X149168500Y-107136900D03*
X152426900Y-111098700D03*
X126324100Y-106452800D03*
X141222300Y-105314300D03*
X145571700Y-106351100D03*
X152238800Y-107115800D03*
X131237700Y-111098100D03*
X115531500Y-111464800D03*
X128674100Y-111921500D03*
X117205400Y-112133300D03*
D23*
X140250000Y-107378700D02*
X140300000Y-107428700D01*
X140250000Y-106500000D02*
X140250000Y-107378700D01*
X125750000Y-38000000D02*
X125053700Y-38000000D01*
X147750000Y-36350000D02*
X146978700Y-36350000D01*
X126740500Y-109321300D02*
X128500000Y-109321300D01*
X126196300Y-109865500D02*
X126740500Y-109321300D01*
X126196300Y-110250000D02*
X126196300Y-109865500D01*
X125500000Y-110250000D02*
X126196300Y-110250000D01*
X128500000Y-108750000D02*
X128500000Y-109321300D01*
X129750000Y-106150000D02*
X129750000Y-106921300D01*
X129750000Y-108750000D02*
X129750000Y-106921300D01*
X129750000Y-108750000D02*
X128500000Y-108750000D01*
X140300000Y-108699000D02*
X140300000Y-107428700D01*
X140300000Y-108699000D02*
X140300000Y-108750000D01*
X146750000Y-106150000D02*
X146750000Y-106921300D01*
X148250000Y-105000000D02*
X148250000Y-105368500D01*
X150250000Y-106500000D02*
X149553700Y-106500000D01*
X148422200Y-105368500D02*
X148250000Y-105368500D01*
X149553700Y-106500000D02*
X148422200Y-105368500D01*
X147531500Y-105368500D02*
X146750000Y-106150000D01*
X148250000Y-105368500D02*
X147531500Y-105368500D01*
X123438600Y-36937300D02*
X123438600Y-36350000D01*
X124501300Y-38000000D02*
X123438600Y-36937300D01*
X125053700Y-38000000D02*
X124501300Y-38000000D01*
X146207400Y-35578700D02*
X146978700Y-36350000D01*
X123631400Y-35578700D02*
X146207400Y-35578700D01*
X123438600Y-35771500D02*
X123631400Y-35578700D01*
X123438600Y-36350000D02*
X123438600Y-35771500D01*
X123438600Y-36350000D02*
X119750000Y-36350000D01*
X119750000Y-36350000D02*
X119750000Y-37121300D01*
X115230100Y-65598600D02*
X104000000Y-76828700D01*
X115230100Y-53326100D02*
X115230100Y-65598600D01*
X112638800Y-50734800D02*
X115230100Y-53326100D01*
X112638800Y-43846900D02*
X112638800Y-50734800D01*
X119364400Y-37121300D02*
X112638800Y-43846900D01*
X119750000Y-37121300D02*
X119364400Y-37121300D01*
X128173900Y-53326100D02*
X128250000Y-53250000D01*
X115230100Y-53326100D02*
X128173900Y-53326100D01*
X104000000Y-78000000D02*
X104000000Y-76828700D01*
X131500000Y-108750000D02*
X133000000Y-108750000D01*
X140300000Y-108750000D02*
X140300000Y-109048300D01*
X140300000Y-109048300D02*
X140300000Y-110071300D01*
X134069600Y-109048300D02*
X133771300Y-108750000D01*
X140300000Y-109048300D02*
X134069600Y-109048300D01*
X133000000Y-108750000D02*
X133771300Y-108750000D01*
X129750000Y-108750000D02*
X130000000Y-108750000D01*
X130000000Y-108750000D02*
X131500000Y-108750000D01*
X147221400Y-107392700D02*
X146750000Y-106921300D01*
X147221400Y-109889100D02*
X147221400Y-107392700D01*
X146592900Y-110517600D02*
X147221400Y-109889100D01*
X140746300Y-110517600D02*
X146592900Y-110517600D01*
X140300000Y-110071300D02*
X140746300Y-110517600D01*
X154250000Y-105000000D02*
X154250000Y-104968400D01*
X152477900Y-104968400D02*
X150946300Y-106500000D01*
X154250000Y-104968400D02*
X152477900Y-104968400D01*
X150250000Y-106500000D02*
X150714300Y-106500000D01*
X150714300Y-106500000D02*
X150946300Y-106500000D01*
X150714300Y-107014400D02*
X150300000Y-107428700D01*
X150714300Y-106500000D02*
X150714300Y-107014400D01*
X150300000Y-108750000D02*
X150300000Y-107428700D01*
X156218400Y-103000000D02*
X154250000Y-104968400D01*
X157500000Y-103000000D02*
X156218400Y-103000000D01*
X144150000Y-151250000D02*
X140250000Y-151250000D01*
X140250000Y-151250000D02*
X140000000Y-151500000D01*
X125250000Y-102850000D02*
X125850000Y-102850000D01*
X125850000Y-102850000D02*
X127500000Y-104500000D01*
X124250000Y-39650000D02*
X123650000Y-39650000D01*
X123650000Y-39650000D02*
X122000000Y-38000000D01*
X152250000Y-39650000D02*
X151650000Y-39650000D01*
X151650000Y-39650000D02*
X150000000Y-38000000D01*
X125021300Y-39532400D02*
X125053700Y-39500000D01*
X125021300Y-39650000D02*
X125021300Y-39532400D01*
X124250000Y-39650000D02*
X125021300Y-39650000D01*
X125401900Y-39500000D02*
X125053700Y-39500000D01*
X125401900Y-39500000D02*
X125750000Y-39500000D01*
X120150000Y-151250000D02*
X120150000Y-150390300D01*
X144150000Y-151250000D02*
X144150000Y-150278700D01*
X129321400Y-52571400D02*
X128250000Y-51500000D01*
X129321400Y-56964000D02*
X129321400Y-52571400D01*
X104475400Y-81810000D02*
X129321400Y-56964000D01*
X103601700Y-81810000D02*
X104475400Y-81810000D01*
X102782500Y-82629200D02*
X103601700Y-81810000D01*
X102782500Y-88604000D02*
X102782500Y-82629200D01*
X103707200Y-89528700D02*
X102782500Y-88604000D01*
X104000000Y-89528700D02*
X103707200Y-89528700D01*
X104000000Y-90700000D02*
X104000000Y-89528700D01*
X145388000Y-49869700D02*
X145388000Y-51840400D01*
X144768300Y-49250000D02*
X145388000Y-49869700D01*
X143750000Y-49250000D02*
X144768300Y-49250000D01*
X144762600Y-53750000D02*
X143750000Y-53750000D01*
X145388000Y-53124600D02*
X144762600Y-53750000D01*
X145388000Y-51840400D02*
X145388000Y-53124600D01*
X140300000Y-124750000D02*
X140300000Y-123428700D01*
X137393500Y-123428700D02*
X140300000Y-123428700D01*
X143994200Y-150122900D02*
X120417400Y-150122900D01*
X144150000Y-150278700D02*
X143994200Y-150122900D01*
X120150000Y-150390300D02*
X120417400Y-150122900D01*
X119002000Y-141820200D02*
X137393500Y-123428700D01*
X119002000Y-148707500D02*
X119002000Y-141820200D01*
X120417400Y-150122900D02*
X119002000Y-148707500D01*
X141864400Y-102850000D02*
X141478700Y-102850000D01*
X141864400Y-102850000D02*
X142250000Y-102850000D01*
X142250000Y-102850000D02*
X142250000Y-103621300D01*
X150250000Y-105000000D02*
X149553700Y-105000000D01*
X124803700Y-110838900D02*
X137393500Y-123428700D01*
X124803700Y-108750000D02*
X124803700Y-110838900D01*
X125500000Y-108750000D02*
X124803700Y-108750000D01*
X168000000Y-78000000D02*
X168000000Y-79171300D01*
X167707200Y-79171300D02*
X168000000Y-79171300D01*
X160228300Y-86650200D02*
X167707200Y-79171300D01*
X160228300Y-93169800D02*
X160228300Y-86650200D01*
X148975900Y-104422200D02*
X160228300Y-93169800D01*
X146453800Y-104422200D02*
X148975900Y-104422200D01*
X144808400Y-106067600D02*
X146453800Y-104422200D01*
X144808400Y-107062700D02*
X144808400Y-106067600D01*
X145242100Y-107496400D02*
X144808400Y-107062700D01*
X145242100Y-109906800D02*
X145242100Y-107496400D01*
X145077600Y-110071300D02*
X145242100Y-109906800D01*
X143542100Y-110071300D02*
X145077600Y-110071300D01*
X143221400Y-109750600D02*
X143542100Y-110071300D01*
X143221400Y-104592700D02*
X143221400Y-109750600D01*
X142250000Y-103621300D02*
X143221400Y-104592700D01*
X148975900Y-104422200D02*
X149553700Y-105000000D01*
X127000000Y-108750000D02*
X127000000Y-108604400D01*
X125500000Y-108750000D02*
X126196300Y-108750000D01*
X155110500Y-39650000D02*
X152250000Y-39650000D01*
X159335500Y-43875000D02*
X155110500Y-39650000D01*
X159335500Y-50743200D02*
X159335500Y-43875000D01*
X158238300Y-51840400D02*
X159335500Y-50743200D01*
X145388000Y-51840400D02*
X158238300Y-51840400D01*
X128290500Y-41344200D02*
X126446300Y-39500000D01*
X149784500Y-41344200D02*
X128290500Y-41344200D01*
X151478700Y-39650000D02*
X149784500Y-41344200D01*
X152250000Y-39650000D02*
X151478700Y-39650000D01*
X125750000Y-39500000D02*
X126446300Y-39500000D01*
X124328700Y-103000000D02*
X124478700Y-102850000D01*
X114500000Y-103000000D02*
X124328700Y-103000000D01*
X125250000Y-102850000D02*
X124478700Y-102850000D01*
X128978700Y-102266900D02*
X128978700Y-102850000D01*
X129166900Y-102078700D02*
X128978700Y-102266900D01*
X140707400Y-102078700D02*
X129166900Y-102078700D01*
X141478700Y-102850000D02*
X140707400Y-102078700D01*
X128978700Y-102850000D02*
X125250000Y-102850000D01*
X126341900Y-108604400D02*
X126196300Y-108750000D01*
X127000000Y-108604400D02*
X126341900Y-108604400D01*
X128978700Y-103762900D02*
X129844900Y-104629100D01*
X128978700Y-102850000D02*
X128978700Y-103762900D01*
X139182800Y-104629100D02*
X139553700Y-105000000D01*
X129844900Y-104629100D02*
X139182800Y-104629100D01*
X127000000Y-107474000D02*
X129844900Y-104629100D01*
X127000000Y-108604400D02*
X127000000Y-107474000D01*
X140250000Y-105000000D02*
X139553700Y-105000000D01*
X110250000Y-116250000D02*
X114150000Y-116250000D01*
X106500000Y-112500000D02*
X110250000Y-116250000D01*
X106500000Y-109300000D02*
X106500000Y-112500000D01*
X108500000Y-107200000D02*
X110500000Y-107200000D01*
X110500000Y-107200000D02*
X112500000Y-107200000D01*
X106500000Y-107200000D02*
X107574100Y-107200000D01*
X107574100Y-107200000D02*
X108500000Y-107200000D01*
X104364000Y-84251300D02*
X104000000Y-84251300D01*
X107574100Y-87461400D02*
X104364000Y-84251300D01*
X107574100Y-107200000D02*
X107574100Y-87461400D01*
X104000000Y-83080000D02*
X104000000Y-84251300D01*
X148300000Y-108750000D02*
X148300000Y-107428700D01*
X148250000Y-106500000D02*
X148250000Y-107071300D01*
X148300000Y-107136900D02*
X149168500Y-107136900D01*
X148300000Y-107121300D02*
X148300000Y-107136900D01*
X148250000Y-107071300D02*
X148300000Y-107121300D01*
X148300000Y-107136900D02*
X148300000Y-107428700D01*
X117980000Y-125448700D02*
X114150000Y-129278700D01*
X117980000Y-111882500D02*
X117980000Y-125448700D01*
X116557300Y-110459800D02*
X117980000Y-111882500D01*
X112206100Y-110459800D02*
X116557300Y-110459800D01*
X111046300Y-109300000D02*
X112206100Y-110459800D01*
X110500000Y-109300000D02*
X111046300Y-109300000D01*
X114150000Y-130250000D02*
X114150000Y-129278700D01*
X152426900Y-123301800D02*
X152300000Y-123428700D01*
X152426900Y-111098700D02*
X152426900Y-123301800D01*
X152300000Y-124750000D02*
X152300000Y-123428700D01*
X125250000Y-106150000D02*
X126021300Y-106150000D01*
X126324100Y-106452800D02*
X126021300Y-106150000D01*
X139792200Y-102850000D02*
X129750000Y-102850000D01*
X142250000Y-105307800D02*
X139792200Y-102850000D01*
X142250000Y-106150000D02*
X142250000Y-105307800D01*
X153021300Y-36832500D02*
X153021300Y-36350000D01*
X159781900Y-43593100D02*
X153021300Y-36832500D01*
X159781900Y-89046800D02*
X159781900Y-43593100D01*
X146750000Y-102078700D02*
X159781900Y-89046800D01*
X152250000Y-36350000D02*
X153021300Y-36350000D01*
X146750000Y-102850000D02*
X146750000Y-102078700D01*
X143678700Y-36350000D02*
X146978700Y-39650000D01*
X125021300Y-36350000D02*
X143678700Y-36350000D01*
X124250000Y-36350000D02*
X125021300Y-36350000D01*
X147750000Y-39650000D02*
X146978700Y-39650000D01*
X114500000Y-107200000D02*
X116500000Y-107200000D01*
X116500000Y-107200000D02*
X117046300Y-107200000D01*
X120650000Y-110803700D02*
X117046300Y-107200000D01*
X120650000Y-117778700D02*
X120650000Y-110803700D01*
X120650000Y-118264300D02*
X120650000Y-117778700D01*
X120650000Y-118264300D02*
X120650000Y-118750000D01*
X110678600Y-123249900D02*
X107150000Y-119721300D01*
X110678600Y-128727100D02*
X110678600Y-123249900D01*
X113172900Y-131221400D02*
X110678600Y-128727100D01*
X115058500Y-131221400D02*
X113172900Y-131221400D01*
X119147900Y-127132000D02*
X115058500Y-131221400D01*
X119147900Y-121223400D02*
X119147900Y-127132000D01*
X120650000Y-119721300D02*
X119147900Y-121223400D01*
X120650000Y-118750000D02*
X120650000Y-119721300D01*
X107150000Y-118750000D02*
X107150000Y-119721300D01*
X114500000Y-109300000D02*
X113953700Y-109300000D01*
X155150000Y-132750000D02*
X155150000Y-133721300D01*
X113507400Y-108853700D02*
X113953700Y-109300000D01*
X113507400Y-106559600D02*
X113507400Y-108853700D01*
X113959700Y-106107300D02*
X113507400Y-106559600D01*
X118726700Y-106107300D02*
X113959700Y-106107300D01*
X123864900Y-111245500D02*
X118726700Y-106107300D01*
X123864900Y-135151200D02*
X123864900Y-111245500D01*
X118527400Y-140488700D02*
X123864900Y-135151200D01*
X118527400Y-151572300D02*
X118527400Y-140488700D01*
X119192400Y-152237300D02*
X118527400Y-151572300D01*
X145043300Y-152237300D02*
X119192400Y-152237300D01*
X148257500Y-149023100D02*
X145043300Y-152237300D01*
X148257500Y-144354800D02*
X148257500Y-149023100D01*
X152730200Y-139882100D02*
X148257500Y-144354800D01*
X152730200Y-136141100D02*
X152730200Y-139882100D01*
X155150000Y-133721300D02*
X152730200Y-136141100D01*
X149728800Y-146574900D02*
X154053700Y-142250000D01*
X149728800Y-148200400D02*
X149728800Y-146574900D01*
X145201600Y-152727600D02*
X149728800Y-148200400D01*
X119018300Y-152727600D02*
X145201600Y-152727600D01*
X118074600Y-151783900D02*
X119018300Y-152727600D01*
X118074600Y-139459300D02*
X118074600Y-151783900D01*
X123418600Y-134115300D02*
X118074600Y-139459300D01*
X123418600Y-111430400D02*
X123418600Y-134115300D01*
X118541800Y-106553600D02*
X123418600Y-111430400D01*
X114144600Y-106553600D02*
X118541800Y-106553600D01*
X113953700Y-106744500D02*
X114144600Y-106553600D01*
X113953700Y-107702300D02*
X113953700Y-106744500D01*
X115551400Y-109300000D02*
X113953700Y-107702300D01*
X116500000Y-109300000D02*
X115551400Y-109300000D01*
X155150000Y-142250000D02*
X154053700Y-142250000D01*
X142069700Y-107428700D02*
X142300000Y-107428700D01*
X141222300Y-106581300D02*
X142069700Y-107428700D01*
X141222300Y-105314300D02*
X141222300Y-106581300D01*
X142300000Y-108750000D02*
X142300000Y-107428700D01*
X146300000Y-108750000D02*
X146300000Y-107428700D01*
X145571700Y-106700400D02*
X145571700Y-106351100D01*
X146300000Y-107428700D02*
X145571700Y-106700400D01*
X152300000Y-108750000D02*
X152300000Y-107428700D01*
X152238800Y-107367500D02*
X152238800Y-107115800D01*
X152300000Y-107428700D02*
X152238800Y-107367500D01*
X133000000Y-110250000D02*
X133000000Y-110821300D01*
X146299900Y-123428700D02*
X146300000Y-123428700D01*
X146299900Y-121428600D02*
X146299900Y-123428700D01*
X139621300Y-114750000D02*
X146299900Y-121428600D01*
X136928700Y-114750000D02*
X139621300Y-114750000D01*
X133000000Y-110821300D02*
X136928700Y-114750000D01*
X146300000Y-124750000D02*
X146300000Y-123428700D01*
X168000000Y-88160000D02*
X168000000Y-89331300D01*
X146300000Y-124750000D02*
X146300000Y-126071300D01*
X144150000Y-146750000D02*
X144150000Y-145778700D01*
X163374100Y-127104200D02*
X152283800Y-127104200D01*
X164668600Y-125809700D02*
X163374100Y-127104200D01*
X164668600Y-92662700D02*
X164668600Y-125809700D01*
X168000000Y-89331300D02*
X164668600Y-92662700D01*
X151221300Y-126041700D02*
X152283800Y-127104200D01*
X151221300Y-123616900D02*
X151221300Y-126041700D01*
X151033100Y-123428700D02*
X151221300Y-123616900D01*
X149566900Y-123428700D02*
X151033100Y-123428700D01*
X149378700Y-123616900D02*
X149566900Y-123428700D01*
X149378700Y-125771400D02*
X149378700Y-123616900D01*
X149078800Y-126071300D02*
X149378700Y-125771400D01*
X146300000Y-126071300D02*
X149078800Y-126071300D01*
X152283800Y-137644900D02*
X144150000Y-145778700D01*
X152283800Y-127104200D02*
X152283800Y-137644900D01*
X153378700Y-122507400D02*
X154300000Y-123428700D01*
X153378700Y-106123700D02*
X153378700Y-122507400D01*
X153752400Y-105750000D02*
X153378700Y-106123700D01*
X157365700Y-105750000D02*
X153752400Y-105750000D01*
X164222200Y-98893500D02*
X157365700Y-105750000D01*
X164222200Y-87736300D02*
X164222200Y-98893500D01*
X167707200Y-84251300D02*
X164222200Y-87736300D01*
X168000000Y-84251300D02*
X167707200Y-84251300D01*
X168000000Y-83080000D02*
X168000000Y-84251300D01*
X154300000Y-124750000D02*
X154300000Y-123428700D01*
X154300000Y-107121300D02*
X154300000Y-108750000D01*
X154250000Y-107071300D02*
X154300000Y-107121300D01*
X154250000Y-106500000D02*
X154250000Y-107071300D01*
X129778700Y-51278700D02*
X128250000Y-49750000D01*
X129778700Y-55539800D02*
X129778700Y-51278700D01*
X144300000Y-70061100D02*
X129778700Y-55539800D01*
X144300000Y-108750000D02*
X144300000Y-70061100D01*
X114150000Y-111750000D02*
X115246300Y-111750000D01*
X131500000Y-110250000D02*
X131500000Y-110821300D01*
X131237700Y-111083600D02*
X131237700Y-111098100D01*
X131500000Y-110821300D02*
X131237700Y-111083600D01*
X149807400Y-126563900D02*
X150300000Y-126071300D01*
X146043200Y-126563900D02*
X149807400Y-126563900D01*
X145221400Y-125742100D02*
X146043200Y-126563900D01*
X145221400Y-122368600D02*
X145221400Y-125742100D01*
X139524200Y-116671400D02*
X145221400Y-122368600D01*
X136811000Y-116671400D02*
X139524200Y-116671400D01*
X131237700Y-111098100D02*
X136811000Y-116671400D01*
X150300000Y-124750000D02*
X150300000Y-126071300D01*
X115531500Y-111464800D02*
X115246300Y-111750000D01*
X114850000Y-118750000D02*
X114850000Y-117778700D01*
X115214200Y-117778700D02*
X114850000Y-117778700D01*
X117205400Y-115787500D02*
X115214200Y-117778700D01*
X117205400Y-112133300D02*
X117205400Y-115787500D01*
X128674100Y-110250000D02*
X128500000Y-110250000D01*
X129245600Y-109678500D02*
X128674100Y-110250000D01*
X134068500Y-109678500D02*
X129245600Y-109678500D01*
X137218600Y-112828600D02*
X134068500Y-109678500D01*
X139690000Y-112828600D02*
X137218600Y-112828600D01*
X148300000Y-121438600D02*
X139690000Y-112828600D01*
X148300000Y-124750000D02*
X148300000Y-121438600D01*
X128674100Y-110250000D02*
X128674100Y-111921500D01*
X139857400Y-126071300D02*
X120150000Y-145778700D01*
X144300000Y-126071300D02*
X139857400Y-126071300D01*
X144300000Y-124750000D02*
X144300000Y-126071300D01*
X120150000Y-146750000D02*
X120150000Y-145778700D01*
X139542700Y-118671400D02*
X144300000Y-123428700D01*
X137333500Y-118671400D02*
X139542700Y-118671400D01*
X130000000Y-111337900D02*
X137333500Y-118671400D01*
X130000000Y-110250000D02*
X130000000Y-111337900D01*
X144300000Y-124750000D02*
X144300000Y-123428700D01*
X113753600Y-121182300D02*
X114850000Y-122278700D01*
X113753600Y-117909700D02*
X113753600Y-121182300D01*
X114330900Y-117332400D02*
X113753600Y-117909700D01*
X114951600Y-117332400D02*
X114330900Y-117332400D01*
X115276700Y-117007300D02*
X114951600Y-117332400D01*
X115276700Y-115496600D02*
X115276700Y-117007300D01*
X109080100Y-109300000D02*
X115276700Y-115496600D01*
X108500000Y-109300000D02*
X109080100Y-109300000D01*
X114850000Y-123250000D02*
X114850000Y-122278700D01*
X112500000Y-109300000D02*
X113046300Y-109300000D01*
X128350000Y-123250000D02*
X128350000Y-122278700D01*
X113046300Y-106389500D02*
X113046300Y-109300000D01*
X113774800Y-105661000D02*
X113046300Y-106389500D01*
X118911600Y-105661000D02*
X113774800Y-105661000D01*
X124311200Y-111060600D02*
X118911600Y-105661000D01*
X124311200Y-118239900D02*
X124311200Y-111060600D01*
X128350000Y-122278700D02*
X124311200Y-118239900D01*
X162850000Y-138235600D02*
X162850000Y-138721300D01*
X162850000Y-138235600D02*
X162850000Y-137750000D01*
X163946400Y-130317700D02*
X162850000Y-129221300D01*
X163946400Y-135682300D02*
X163946400Y-130317700D01*
X162850000Y-136778700D02*
X163946400Y-135682300D01*
X162850000Y-137750000D02*
X162850000Y-136778700D01*
X162850000Y-128250000D02*
X162850000Y-129221300D01*
X121850000Y-125750000D02*
X121850000Y-126721300D01*
X122946400Y-123682300D02*
X121850000Y-124778700D01*
X122946400Y-113817700D02*
X122946400Y-123682300D01*
X121850000Y-112721300D02*
X122946400Y-113817700D01*
X121850000Y-111750000D02*
X121850000Y-112721300D01*
X121850000Y-125750000D02*
X121850000Y-124778700D01*
X161878700Y-138721300D02*
X162850000Y-138721300D01*
X147426100Y-153173900D02*
X161878700Y-138721300D01*
X118833400Y-153173900D02*
X147426100Y-153173900D01*
X117628300Y-151968800D02*
X118833400Y-153173900D01*
X117628300Y-130943000D02*
X117628300Y-151968800D01*
X121850000Y-126721300D02*
X117628300Y-130943000D01*
X142300000Y-124750000D02*
X142300000Y-123428700D01*
X139545500Y-120674200D02*
X142300000Y-123428700D01*
X136378300Y-120674200D02*
X139545500Y-120674200D01*
X127000000Y-111295900D02*
X136378300Y-120674200D01*
X127000000Y-110250000D02*
X127000000Y-111295900D01*
D24*
G36*
X145505799Y-127101301D02*
X145752361Y-127266048D01*
X146043200Y-127323900D01*
X149807400Y-127323900D01*
X150098239Y-127266048D01*
X150344801Y-127101301D01*
X150775450Y-126670652D01*
X151523800Y-127419002D01*
X151523800Y-137330098D01*
X143612599Y-145241299D01*
X143471439Y-145452560D01*
X143375000Y-145452560D01*
X143127235Y-145501843D01*
X142917191Y-145642191D01*
X142776843Y-145852235D01*
X142727560Y-146100000D01*
X142727560Y-147400000D01*
X142776843Y-147647765D01*
X142917191Y-147857809D01*
X143127235Y-147998157D01*
X143375000Y-148047440D01*
X144925000Y-148047440D01*
X145172765Y-147998157D01*
X145382809Y-147857809D01*
X145523157Y-147647765D01*
X145572440Y-147400000D01*
X145572440Y-146100000D01*
X145523157Y-145852235D01*
X145382809Y-145642191D01*
X145369922Y-145633580D01*
X151970200Y-139033302D01*
X151970200Y-139567298D01*
X147720099Y-143817399D01*
X147555352Y-144063961D01*
X147497500Y-144354800D01*
X147497500Y-148708298D01*
X145560000Y-150645798D01*
X145560000Y-150473690D01*
X145463327Y-150240301D01*
X145284698Y-150061673D01*
X145051309Y-149965000D01*
X144435750Y-149965000D01*
X144277000Y-150123750D01*
X144277000Y-151123000D01*
X144297000Y-151123000D01*
X144297000Y-151377000D01*
X144277000Y-151377000D01*
X144277000Y-151397000D01*
X144023000Y-151397000D01*
X144023000Y-151377000D01*
X142898750Y-151377000D01*
X142798450Y-151477300D01*
X129272440Y-151477300D01*
X129272440Y-150600000D01*
X129247316Y-150473690D01*
X142740000Y-150473690D01*
X142740000Y-150964250D01*
X142898750Y-151123000D01*
X144023000Y-151123000D01*
X144023000Y-150123750D01*
X143864250Y-149965000D01*
X143248691Y-149965000D01*
X143015302Y-150061673D01*
X142836673Y-150240301D01*
X142740000Y-150473690D01*
X129247316Y-150473690D01*
X129223157Y-150352235D01*
X129082809Y-150142191D01*
X128872765Y-150001843D01*
X128625000Y-149952560D01*
X127075000Y-149952560D01*
X126827235Y-150001843D01*
X126617191Y-150142191D01*
X126476843Y-150352235D01*
X126427560Y-150600000D01*
X126427560Y-151477300D01*
X121501550Y-151477300D01*
X121401250Y-151377000D01*
X120277000Y-151377000D01*
X120277000Y-151397000D01*
X120023000Y-151397000D01*
X120023000Y-151377000D01*
X120003000Y-151377000D01*
X120003000Y-151123000D01*
X120023000Y-151123000D01*
X120023000Y-150123750D01*
X120277000Y-150123750D01*
X120277000Y-151123000D01*
X121401250Y-151123000D01*
X121560000Y-150964250D01*
X121560000Y-150473690D01*
X121463327Y-150240301D01*
X121284698Y-150061673D01*
X121051309Y-149965000D01*
X120435750Y-149965000D01*
X120277000Y-150123750D01*
X120023000Y-150123750D01*
X119864250Y-149965000D01*
X119287400Y-149965000D01*
X119287400Y-148030015D01*
X119375000Y-148047440D01*
X120925000Y-148047440D01*
X121172765Y-147998157D01*
X121382809Y-147857809D01*
X121523157Y-147647765D01*
X121572440Y-147400000D01*
X121572440Y-146100000D01*
X126427560Y-146100000D01*
X126427560Y-147400000D01*
X126476843Y-147647765D01*
X126617191Y-147857809D01*
X126827235Y-147998157D01*
X127075000Y-148047440D01*
X128625000Y-148047440D01*
X128872765Y-147998157D01*
X129082809Y-147857809D01*
X129223157Y-147647765D01*
X129272440Y-147400000D01*
X129272440Y-146100000D01*
X129223157Y-145852235D01*
X129082809Y-145642191D01*
X128872765Y-145501843D01*
X128625000Y-145452560D01*
X127075000Y-145452560D01*
X126827235Y-145501843D01*
X126617191Y-145642191D01*
X126476843Y-145852235D01*
X126427560Y-146100000D01*
X121572440Y-146100000D01*
X121523157Y-145852235D01*
X121382809Y-145642191D01*
X121369922Y-145633580D01*
X140172202Y-126831300D01*
X144300000Y-126831300D01*
X144590839Y-126773448D01*
X144837401Y-126608701D01*
X144907816Y-126503318D01*
X145505799Y-127101301D01*
X145505799Y-127101301D01*
G37*
X145505799Y-127101301D02*
X145752361Y-127266048D01*
X146043200Y-127323900D01*
X149807400Y-127323900D01*
X150098239Y-127266048D01*
X150344801Y-127101301D01*
X150775450Y-126670652D01*
X151523800Y-127419002D01*
X151523800Y-137330098D01*
X143612599Y-145241299D01*
X143471439Y-145452560D01*
X143375000Y-145452560D01*
X143127235Y-145501843D01*
X142917191Y-145642191D01*
X142776843Y-145852235D01*
X142727560Y-146100000D01*
X142727560Y-147400000D01*
X142776843Y-147647765D01*
X142917191Y-147857809D01*
X143127235Y-147998157D01*
X143375000Y-148047440D01*
X144925000Y-148047440D01*
X145172765Y-147998157D01*
X145382809Y-147857809D01*
X145523157Y-147647765D01*
X145572440Y-147400000D01*
X145572440Y-146100000D01*
X145523157Y-145852235D01*
X145382809Y-145642191D01*
X145369922Y-145633580D01*
X151970200Y-139033302D01*
X151970200Y-139567298D01*
X147720099Y-143817399D01*
X147555352Y-144063961D01*
X147497500Y-144354800D01*
X147497500Y-148708298D01*
X145560000Y-150645798D01*
X145560000Y-150473690D01*
X145463327Y-150240301D01*
X145284698Y-150061673D01*
X145051309Y-149965000D01*
X144435750Y-149965000D01*
X144277000Y-150123750D01*
X144277000Y-151123000D01*
X144297000Y-151123000D01*
X144297000Y-151377000D01*
X144277000Y-151377000D01*
X144277000Y-151397000D01*
X144023000Y-151397000D01*
X144023000Y-151377000D01*
X142898750Y-151377000D01*
X142798450Y-151477300D01*
X129272440Y-151477300D01*
X129272440Y-150600000D01*
X129247316Y-150473690D01*
X142740000Y-150473690D01*
X142740000Y-150964250D01*
X142898750Y-151123000D01*
X144023000Y-151123000D01*
X144023000Y-150123750D01*
X143864250Y-149965000D01*
X143248691Y-149965000D01*
X143015302Y-150061673D01*
X142836673Y-150240301D01*
X142740000Y-150473690D01*
X129247316Y-150473690D01*
X129223157Y-150352235D01*
X129082809Y-150142191D01*
X128872765Y-150001843D01*
X128625000Y-149952560D01*
X127075000Y-149952560D01*
X126827235Y-150001843D01*
X126617191Y-150142191D01*
X126476843Y-150352235D01*
X126427560Y-150600000D01*
X126427560Y-151477300D01*
X121501550Y-151477300D01*
X121401250Y-151377000D01*
X120277000Y-151377000D01*
X120277000Y-151397000D01*
X120023000Y-151397000D01*
X120023000Y-151377000D01*
X120003000Y-151377000D01*
X120003000Y-151123000D01*
X120023000Y-151123000D01*
X120023000Y-150123750D01*
X120277000Y-150123750D01*
X120277000Y-151123000D01*
X121401250Y-151123000D01*
X121560000Y-150964250D01*
X121560000Y-150473690D01*
X121463327Y-150240301D01*
X121284698Y-150061673D01*
X121051309Y-149965000D01*
X120435750Y-149965000D01*
X120277000Y-150123750D01*
X120023000Y-150123750D01*
X119864250Y-149965000D01*
X119287400Y-149965000D01*
X119287400Y-148030015D01*
X119375000Y-148047440D01*
X120925000Y-148047440D01*
X121172765Y-147998157D01*
X121382809Y-147857809D01*
X121523157Y-147647765D01*
X121572440Y-147400000D01*
X121572440Y-146100000D01*
X126427560Y-146100000D01*
X126427560Y-147400000D01*
X126476843Y-147647765D01*
X126617191Y-147857809D01*
X126827235Y-147998157D01*
X127075000Y-148047440D01*
X128625000Y-148047440D01*
X128872765Y-147998157D01*
X129082809Y-147857809D01*
X129223157Y-147647765D01*
X129272440Y-147400000D01*
X129272440Y-146100000D01*
X129223157Y-145852235D01*
X129082809Y-145642191D01*
X128872765Y-145501843D01*
X128625000Y-145452560D01*
X127075000Y-145452560D01*
X126827235Y-145501843D01*
X126617191Y-145642191D01*
X126476843Y-145852235D01*
X126427560Y-146100000D01*
X121572440Y-146100000D01*
X121523157Y-145852235D01*
X121382809Y-145642191D01*
X121369922Y-145633580D01*
X140172202Y-126831300D01*
X144300000Y-126831300D01*
X144590839Y-126773448D01*
X144837401Y-126608701D01*
X144907816Y-126503318D01*
X145505799Y-127101301D01*
G36*
X126240000Y-111295900D02*
X126297852Y-111586739D01*
X126462599Y-111833301D01*
X135840899Y-121211601D01*
X136087461Y-121376348D01*
X136378300Y-121434200D01*
X136852560Y-121434200D01*
X136852560Y-122350000D01*
X136901843Y-122597765D01*
X137042191Y-122807809D01*
X137252235Y-122948157D01*
X137500000Y-122997440D01*
X139500000Y-122997440D01*
X139747765Y-122948157D01*
X139957809Y-122807809D01*
X140098157Y-122597765D01*
X140147284Y-122350786D01*
X140911498Y-123115000D01*
X140585750Y-123115000D01*
X140427000Y-123273750D01*
X140427000Y-124623000D01*
X140447000Y-124623000D01*
X140447000Y-124877000D01*
X140427000Y-124877000D01*
X140427000Y-124897000D01*
X140173000Y-124897000D01*
X140173000Y-124877000D01*
X139223750Y-124877000D01*
X139065000Y-125035750D01*
X139065000Y-125788898D01*
X119612599Y-145241299D01*
X119471439Y-145452560D01*
X119375000Y-145452560D01*
X119287400Y-145469985D01*
X119287400Y-140803502D01*
X124402301Y-135688601D01*
X124567048Y-135442039D01*
X124624900Y-135151200D01*
X124624900Y-119628402D01*
X127130078Y-122133580D01*
X127117191Y-122142191D01*
X126976843Y-122352235D01*
X126927560Y-122600000D01*
X126927560Y-123900000D01*
X126976843Y-124147765D01*
X127117191Y-124357809D01*
X127327235Y-124498157D01*
X127575000Y-124547440D01*
X129125000Y-124547440D01*
X129372765Y-124498157D01*
X129582809Y-124357809D01*
X129723157Y-124147765D01*
X129772440Y-123900000D01*
X129772440Y-123623691D01*
X139065000Y-123623691D01*
X139065000Y-124464250D01*
X139223750Y-124623000D01*
X140173000Y-124623000D01*
X140173000Y-123273750D01*
X140014250Y-123115000D01*
X139573690Y-123115000D01*
X139340301Y-123211673D01*
X139161673Y-123390302D01*
X139065000Y-123623691D01*
X129772440Y-123623691D01*
X129772440Y-122600000D01*
X129723157Y-122352235D01*
X129582809Y-122142191D01*
X129372765Y-122001843D01*
X129125000Y-121952560D01*
X129028561Y-121952560D01*
X128887401Y-121741299D01*
X125246102Y-118100000D01*
X126927560Y-118100000D01*
X126927560Y-119400000D01*
X126976843Y-119647765D01*
X127117191Y-119857809D01*
X127327235Y-119998157D01*
X127575000Y-120047440D01*
X129125000Y-120047440D01*
X129372765Y-119998157D01*
X129582809Y-119857809D01*
X129723157Y-119647765D01*
X129772440Y-119400000D01*
X129772440Y-118100000D01*
X129723157Y-117852235D01*
X129582809Y-117642191D01*
X129372765Y-117501843D01*
X129125000Y-117452560D01*
X127575000Y-117452560D01*
X127327235Y-117501843D01*
X127117191Y-117642191D01*
X126976843Y-117852235D01*
X126927560Y-118100000D01*
X125246102Y-118100000D01*
X125071200Y-117925098D01*
X125071200Y-111286739D01*
X125125000Y-111297440D01*
X125875000Y-111297440D01*
X126122765Y-111248157D01*
X126240000Y-111169822D01*
X126240000Y-111295900D01*
X126240000Y-111295900D01*
G37*
X126240000Y-111295900D02*
X126297852Y-111586739D01*
X126462599Y-111833301D01*
X135840899Y-121211601D01*
X136087461Y-121376348D01*
X136378300Y-121434200D01*
X136852560Y-121434200D01*
X136852560Y-122350000D01*
X136901843Y-122597765D01*
X137042191Y-122807809D01*
X137252235Y-122948157D01*
X137500000Y-122997440D01*
X139500000Y-122997440D01*
X139747765Y-122948157D01*
X139957809Y-122807809D01*
X140098157Y-122597765D01*
X140147284Y-122350786D01*
X140911498Y-123115000D01*
X140585750Y-123115000D01*
X140427000Y-123273750D01*
X140427000Y-124623000D01*
X140447000Y-124623000D01*
X140447000Y-124877000D01*
X140427000Y-124877000D01*
X140427000Y-124897000D01*
X140173000Y-124897000D01*
X140173000Y-124877000D01*
X139223750Y-124877000D01*
X139065000Y-125035750D01*
X139065000Y-125788898D01*
X119612599Y-145241299D01*
X119471439Y-145452560D01*
X119375000Y-145452560D01*
X119287400Y-145469985D01*
X119287400Y-140803502D01*
X124402301Y-135688601D01*
X124567048Y-135442039D01*
X124624900Y-135151200D01*
X124624900Y-119628402D01*
X127130078Y-122133580D01*
X127117191Y-122142191D01*
X126976843Y-122352235D01*
X126927560Y-122600000D01*
X126927560Y-123900000D01*
X126976843Y-124147765D01*
X127117191Y-124357809D01*
X127327235Y-124498157D01*
X127575000Y-124547440D01*
X129125000Y-124547440D01*
X129372765Y-124498157D01*
X129582809Y-124357809D01*
X129723157Y-124147765D01*
X129772440Y-123900000D01*
X129772440Y-123623691D01*
X139065000Y-123623691D01*
X139065000Y-124464250D01*
X139223750Y-124623000D01*
X140173000Y-124623000D01*
X140173000Y-123273750D01*
X140014250Y-123115000D01*
X139573690Y-123115000D01*
X139340301Y-123211673D01*
X139161673Y-123390302D01*
X139065000Y-123623691D01*
X129772440Y-123623691D01*
X129772440Y-122600000D01*
X129723157Y-122352235D01*
X129582809Y-122142191D01*
X129372765Y-122001843D01*
X129125000Y-121952560D01*
X129028561Y-121952560D01*
X128887401Y-121741299D01*
X125246102Y-118100000D01*
X126927560Y-118100000D01*
X126927560Y-119400000D01*
X126976843Y-119647765D01*
X127117191Y-119857809D01*
X127327235Y-119998157D01*
X127575000Y-120047440D01*
X129125000Y-120047440D01*
X129372765Y-119998157D01*
X129582809Y-119857809D01*
X129723157Y-119647765D01*
X129772440Y-119400000D01*
X129772440Y-118100000D01*
X129723157Y-117852235D01*
X129582809Y-117642191D01*
X129372765Y-117501843D01*
X129125000Y-117452560D01*
X127575000Y-117452560D01*
X127327235Y-117501843D01*
X127117191Y-117642191D01*
X126976843Y-117852235D01*
X126927560Y-118100000D01*
X125246102Y-118100000D01*
X125071200Y-117925098D01*
X125071200Y-111286739D01*
X125125000Y-111297440D01*
X125875000Y-111297440D01*
X126122765Y-111248157D01*
X126240000Y-111169822D01*
X126240000Y-111295900D01*
G36*
X102053642Y-60681416D02*
X102040000Y-60750000D01*
X102040000Y-74750000D01*
X102053642Y-74818584D01*
X102053642Y-74888513D01*
X102129762Y-75271196D01*
X102149395Y-75318593D01*
X102235776Y-75527138D01*
X102452549Y-75851561D01*
X102452550Y-75851562D01*
X102648438Y-76047451D01*
X102972862Y-76264223D01*
X103078877Y-76308136D01*
X103228804Y-76370238D01*
X103388614Y-76402026D01*
X103321439Y-76502560D01*
X103150000Y-76502560D01*
X102902235Y-76551843D01*
X102692191Y-76692191D01*
X102551843Y-76902235D01*
X102502560Y-77150000D01*
X102502560Y-78850000D01*
X102551843Y-79097765D01*
X102692191Y-79307809D01*
X102902235Y-79448157D01*
X102964777Y-79460597D01*
X102920853Y-79489946D01*
X102598946Y-79971715D01*
X102485907Y-80540000D01*
X102598946Y-81108285D01*
X102920853Y-81590054D01*
X103250026Y-81810000D01*
X102920853Y-82029946D01*
X102598946Y-82511715D01*
X102485907Y-83080000D01*
X102598946Y-83648285D01*
X102920853Y-84130054D01*
X103250026Y-84350000D01*
X102920853Y-84569946D01*
X102598946Y-85051715D01*
X102485907Y-85620000D01*
X102598946Y-86188285D01*
X102920853Y-86670054D01*
X103250026Y-86890000D01*
X102920853Y-87109946D01*
X102598946Y-87591715D01*
X102485907Y-88160000D01*
X102598946Y-88728285D01*
X102920853Y-89210054D01*
X103261553Y-89437702D01*
X103118642Y-89504817D01*
X102728355Y-89933076D01*
X102558524Y-90343110D01*
X102679845Y-90573000D01*
X103873000Y-90573000D01*
X103873000Y-90553000D01*
X104127000Y-90553000D01*
X104127000Y-90573000D01*
X105320155Y-90573000D01*
X105441476Y-90343110D01*
X105271645Y-89933076D01*
X104881358Y-89504817D01*
X104738447Y-89437702D01*
X105079147Y-89210054D01*
X105401054Y-88728285D01*
X105514093Y-88160000D01*
X105401054Y-87591715D01*
X105079147Y-87109946D01*
X104749974Y-86890000D01*
X105079147Y-86670054D01*
X105331011Y-86293113D01*
X106814100Y-87776202D01*
X106814100Y-106270283D01*
X106725000Y-106252560D01*
X106275000Y-106252560D01*
X106027235Y-106301843D01*
X105817191Y-106442191D01*
X105676843Y-106652235D01*
X105627560Y-106900000D01*
X105627560Y-107500000D01*
X105676843Y-107747765D01*
X105817191Y-107957809D01*
X106027235Y-108098157D01*
X106275000Y-108147440D01*
X106725000Y-108147440D01*
X106972765Y-108098157D01*
X107179530Y-107960000D01*
X107820470Y-107960000D01*
X108027235Y-108098157D01*
X108275000Y-108147440D01*
X108725000Y-108147440D01*
X108972765Y-108098157D01*
X109179530Y-107960000D01*
X109820470Y-107960000D01*
X110027235Y-108098157D01*
X110275000Y-108147440D01*
X110725000Y-108147440D01*
X110972765Y-108098157D01*
X111179530Y-107960000D01*
X111820470Y-107960000D01*
X112027235Y-108098157D01*
X112275000Y-108147440D01*
X112286300Y-108147440D01*
X112286300Y-108352560D01*
X112275000Y-108352560D01*
X112027235Y-108401843D01*
X111817191Y-108542191D01*
X111676843Y-108752235D01*
X111659670Y-108838568D01*
X111583701Y-108762599D01*
X111337139Y-108597852D01*
X111202045Y-108570980D01*
X111182809Y-108542191D01*
X110972765Y-108401843D01*
X110725000Y-108352560D01*
X110275000Y-108352560D01*
X110027235Y-108401843D01*
X109817191Y-108542191D01*
X109676843Y-108752235D01*
X109665278Y-108810376D01*
X109617501Y-108762599D01*
X109370939Y-108597852D01*
X109196864Y-108563226D01*
X109182809Y-108542191D01*
X108972765Y-108401843D01*
X108725000Y-108352560D01*
X108275000Y-108352560D01*
X108027235Y-108401843D01*
X107817191Y-108542191D01*
X107676843Y-108752235D01*
X107627560Y-109000000D01*
X107627560Y-109600000D01*
X107676843Y-109847765D01*
X107817191Y-110057809D01*
X108027235Y-110198157D01*
X108275000Y-110247440D01*
X108725000Y-110247440D01*
X108914954Y-110209656D01*
X113657858Y-114952560D01*
X113375000Y-114952560D01*
X113127235Y-115001843D01*
X112917191Y-115142191D01*
X112776843Y-115352235D01*
X112749440Y-115490000D01*
X110564802Y-115490000D01*
X107260000Y-112185198D01*
X107260000Y-109942285D01*
X107323157Y-109847765D01*
X107372440Y-109600000D01*
X107372440Y-109000000D01*
X107323157Y-108752235D01*
X107182809Y-108542191D01*
X106972765Y-108401843D01*
X106725000Y-108352560D01*
X106275000Y-108352560D01*
X106027235Y-108401843D01*
X105817191Y-108542191D01*
X105676843Y-108752235D01*
X105627560Y-109000000D01*
X105627560Y-109600000D01*
X105676843Y-109847765D01*
X105740000Y-109942285D01*
X105740000Y-112500000D01*
X105797852Y-112790839D01*
X105962599Y-113037401D01*
X109712599Y-116787401D01*
X109959161Y-116952148D01*
X110250000Y-117010000D01*
X112749440Y-117010000D01*
X112776843Y-117147765D01*
X112917191Y-117357809D01*
X113127235Y-117498157D01*
X113131532Y-117499012D01*
X113051452Y-117618861D01*
X112993600Y-117909700D01*
X112993600Y-121182300D01*
X113051452Y-121473139D01*
X113216199Y-121719701D01*
X113630078Y-122133580D01*
X113617191Y-122142191D01*
X113476843Y-122352235D01*
X113427560Y-122600000D01*
X113427560Y-123900000D01*
X113476843Y-124147765D01*
X113617191Y-124357809D01*
X113758995Y-124452560D01*
X113375000Y-124452560D01*
X113127235Y-124501843D01*
X112917191Y-124642191D01*
X112776843Y-124852235D01*
X112727560Y-125100000D01*
X112727560Y-126400000D01*
X112776843Y-126647765D01*
X112917191Y-126857809D01*
X113127235Y-126998157D01*
X113375000Y-127047440D01*
X114925000Y-127047440D01*
X115172765Y-126998157D01*
X115382809Y-126857809D01*
X115523157Y-126647765D01*
X115572440Y-126400000D01*
X115572440Y-125100000D01*
X115523157Y-124852235D01*
X115382809Y-124642191D01*
X115241005Y-124547440D01*
X115625000Y-124547440D01*
X115872765Y-124498157D01*
X116082809Y-124357809D01*
X116223157Y-124147765D01*
X116272440Y-123900000D01*
X116272440Y-122600000D01*
X116223157Y-122352235D01*
X116082809Y-122142191D01*
X115872765Y-122001843D01*
X115625000Y-121952560D01*
X115528561Y-121952560D01*
X115387401Y-121741299D01*
X114513600Y-120867498D01*
X114513600Y-120047440D01*
X115625000Y-120047440D01*
X115872765Y-119998157D01*
X116082809Y-119857809D01*
X116223157Y-119647765D01*
X116272440Y-119400000D01*
X116272440Y-118100000D01*
X116223157Y-117852235D01*
X116220077Y-117847625D01*
X117220000Y-116847702D01*
X117220000Y-125133898D01*
X113612599Y-128741299D01*
X113471439Y-128952560D01*
X113375000Y-128952560D01*
X113127235Y-129001843D01*
X112917191Y-129142191D01*
X112776843Y-129352235D01*
X112727560Y-129600000D01*
X112727560Y-129701258D01*
X111438600Y-128412298D01*
X111438600Y-123249900D01*
X111380748Y-122959061D01*
X111216001Y-122712499D01*
X108369922Y-119866420D01*
X108382809Y-119857809D01*
X108523157Y-119647765D01*
X108572440Y-119400000D01*
X108572440Y-118100000D01*
X108523157Y-117852235D01*
X108382809Y-117642191D01*
X108172765Y-117501843D01*
X107925000Y-117452560D01*
X106375000Y-117452560D01*
X106127235Y-117501843D01*
X105917191Y-117642191D01*
X105776843Y-117852235D01*
X105727560Y-118100000D01*
X105727560Y-119072463D01*
X101725336Y-91056890D01*
X102558524Y-91056890D01*
X102728355Y-91466924D01*
X103118642Y-91895183D01*
X103643108Y-92141486D01*
X103873000Y-92020819D01*
X103873000Y-90827000D01*
X104127000Y-90827000D01*
X104127000Y-92020819D01*
X104356892Y-92141486D01*
X104881358Y-91895183D01*
X105271645Y-91466924D01*
X105441476Y-91056890D01*
X105320155Y-90827000D01*
X104127000Y-90827000D01*
X103873000Y-90827000D01*
X102679845Y-90827000D01*
X102558524Y-91056890D01*
X101725336Y-91056890D01*
X101710000Y-90949543D01*
X101710000Y-62069931D01*
X101973288Y-60746293D01*
X102053642Y-60626035D01*
X102053642Y-60681416D01*
X102053642Y-60681416D01*
G37*
X102053642Y-60681416D02*
X102040000Y-60750000D01*
X102040000Y-74750000D01*
X102053642Y-74818584D01*
X102053642Y-74888513D01*
X102129762Y-75271196D01*
X102149395Y-75318593D01*
X102235776Y-75527138D01*
X102452549Y-75851561D01*
X102452550Y-75851562D01*
X102648438Y-76047451D01*
X102972862Y-76264223D01*
X103078877Y-76308136D01*
X103228804Y-76370238D01*
X103388614Y-76402026D01*
X103321439Y-76502560D01*
X103150000Y-76502560D01*
X102902235Y-76551843D01*
X102692191Y-76692191D01*
X102551843Y-76902235D01*
X102502560Y-77150000D01*
X102502560Y-78850000D01*
X102551843Y-79097765D01*
X102692191Y-79307809D01*
X102902235Y-79448157D01*
X102964777Y-79460597D01*
X102920853Y-79489946D01*
X102598946Y-79971715D01*
X102485907Y-80540000D01*
X102598946Y-81108285D01*
X102920853Y-81590054D01*
X103250026Y-81810000D01*
X102920853Y-82029946D01*
X102598946Y-82511715D01*
X102485907Y-83080000D01*
X102598946Y-83648285D01*
X102920853Y-84130054D01*
X103250026Y-84350000D01*
X102920853Y-84569946D01*
X102598946Y-85051715D01*
X102485907Y-85620000D01*
X102598946Y-86188285D01*
X102920853Y-86670054D01*
X103250026Y-86890000D01*
X102920853Y-87109946D01*
X102598946Y-87591715D01*
X102485907Y-88160000D01*
X102598946Y-88728285D01*
X102920853Y-89210054D01*
X103261553Y-89437702D01*
X103118642Y-89504817D01*
X102728355Y-89933076D01*
X102558524Y-90343110D01*
X102679845Y-90573000D01*
X103873000Y-90573000D01*
X103873000Y-90553000D01*
X104127000Y-90553000D01*
X104127000Y-90573000D01*
X105320155Y-90573000D01*
X105441476Y-90343110D01*
X105271645Y-89933076D01*
X104881358Y-89504817D01*
X104738447Y-89437702D01*
X105079147Y-89210054D01*
X105401054Y-88728285D01*
X105514093Y-88160000D01*
X105401054Y-87591715D01*
X105079147Y-87109946D01*
X104749974Y-86890000D01*
X105079147Y-86670054D01*
X105331011Y-86293113D01*
X106814100Y-87776202D01*
X106814100Y-106270283D01*
X106725000Y-106252560D01*
X106275000Y-106252560D01*
X106027235Y-106301843D01*
X105817191Y-106442191D01*
X105676843Y-106652235D01*
X105627560Y-106900000D01*
X105627560Y-107500000D01*
X105676843Y-107747765D01*
X105817191Y-107957809D01*
X106027235Y-108098157D01*
X106275000Y-108147440D01*
X106725000Y-108147440D01*
X106972765Y-108098157D01*
X107179530Y-107960000D01*
X107820470Y-107960000D01*
X108027235Y-108098157D01*
X108275000Y-108147440D01*
X108725000Y-108147440D01*
X108972765Y-108098157D01*
X109179530Y-107960000D01*
X109820470Y-107960000D01*
X110027235Y-108098157D01*
X110275000Y-108147440D01*
X110725000Y-108147440D01*
X110972765Y-108098157D01*
X111179530Y-107960000D01*
X111820470Y-107960000D01*
X112027235Y-108098157D01*
X112275000Y-108147440D01*
X112286300Y-108147440D01*
X112286300Y-108352560D01*
X112275000Y-108352560D01*
X112027235Y-108401843D01*
X111817191Y-108542191D01*
X111676843Y-108752235D01*
X111659670Y-108838568D01*
X111583701Y-108762599D01*
X111337139Y-108597852D01*
X111202045Y-108570980D01*
X111182809Y-108542191D01*
X110972765Y-108401843D01*
X110725000Y-108352560D01*
X110275000Y-108352560D01*
X110027235Y-108401843D01*
X109817191Y-108542191D01*
X109676843Y-108752235D01*
X109665278Y-108810376D01*
X109617501Y-108762599D01*
X109370939Y-108597852D01*
X109196864Y-108563226D01*
X109182809Y-108542191D01*
X108972765Y-108401843D01*
X108725000Y-108352560D01*
X108275000Y-108352560D01*
X108027235Y-108401843D01*
X107817191Y-108542191D01*
X107676843Y-108752235D01*
X107627560Y-109000000D01*
X107627560Y-109600000D01*
X107676843Y-109847765D01*
X107817191Y-110057809D01*
X108027235Y-110198157D01*
X108275000Y-110247440D01*
X108725000Y-110247440D01*
X108914954Y-110209656D01*
X113657858Y-114952560D01*
X113375000Y-114952560D01*
X113127235Y-115001843D01*
X112917191Y-115142191D01*
X112776843Y-115352235D01*
X112749440Y-115490000D01*
X110564802Y-115490000D01*
X107260000Y-112185198D01*
X107260000Y-109942285D01*
X107323157Y-109847765D01*
X107372440Y-109600000D01*
X107372440Y-109000000D01*
X107323157Y-108752235D01*
X107182809Y-108542191D01*
X106972765Y-108401843D01*
X106725000Y-108352560D01*
X106275000Y-108352560D01*
X106027235Y-108401843D01*
X105817191Y-108542191D01*
X105676843Y-108752235D01*
X105627560Y-109000000D01*
X105627560Y-109600000D01*
X105676843Y-109847765D01*
X105740000Y-109942285D01*
X105740000Y-112500000D01*
X105797852Y-112790839D01*
X105962599Y-113037401D01*
X109712599Y-116787401D01*
X109959161Y-116952148D01*
X110250000Y-117010000D01*
X112749440Y-117010000D01*
X112776843Y-117147765D01*
X112917191Y-117357809D01*
X113127235Y-117498157D01*
X113131532Y-117499012D01*
X113051452Y-117618861D01*
X112993600Y-117909700D01*
X112993600Y-121182300D01*
X113051452Y-121473139D01*
X113216199Y-121719701D01*
X113630078Y-122133580D01*
X113617191Y-122142191D01*
X113476843Y-122352235D01*
X113427560Y-122600000D01*
X113427560Y-123900000D01*
X113476843Y-124147765D01*
X113617191Y-124357809D01*
X113758995Y-124452560D01*
X113375000Y-124452560D01*
X113127235Y-124501843D01*
X112917191Y-124642191D01*
X112776843Y-124852235D01*
X112727560Y-125100000D01*
X112727560Y-126400000D01*
X112776843Y-126647765D01*
X112917191Y-126857809D01*
X113127235Y-126998157D01*
X113375000Y-127047440D01*
X114925000Y-127047440D01*
X115172765Y-126998157D01*
X115382809Y-126857809D01*
X115523157Y-126647765D01*
X115572440Y-126400000D01*
X115572440Y-125100000D01*
X115523157Y-124852235D01*
X115382809Y-124642191D01*
X115241005Y-124547440D01*
X115625000Y-124547440D01*
X115872765Y-124498157D01*
X116082809Y-124357809D01*
X116223157Y-124147765D01*
X116272440Y-123900000D01*
X116272440Y-122600000D01*
X116223157Y-122352235D01*
X116082809Y-122142191D01*
X115872765Y-122001843D01*
X115625000Y-121952560D01*
X115528561Y-121952560D01*
X115387401Y-121741299D01*
X114513600Y-120867498D01*
X114513600Y-120047440D01*
X115625000Y-120047440D01*
X115872765Y-119998157D01*
X116082809Y-119857809D01*
X116223157Y-119647765D01*
X116272440Y-119400000D01*
X116272440Y-118100000D01*
X116223157Y-117852235D01*
X116220077Y-117847625D01*
X117220000Y-116847702D01*
X117220000Y-125133898D01*
X113612599Y-128741299D01*
X113471439Y-128952560D01*
X113375000Y-128952560D01*
X113127235Y-129001843D01*
X112917191Y-129142191D01*
X112776843Y-129352235D01*
X112727560Y-129600000D01*
X112727560Y-129701258D01*
X111438600Y-128412298D01*
X111438600Y-123249900D01*
X111380748Y-122959061D01*
X111216001Y-122712499D01*
X108369922Y-119866420D01*
X108382809Y-119857809D01*
X108523157Y-119647765D01*
X108572440Y-119400000D01*
X108572440Y-118100000D01*
X108523157Y-117852235D01*
X108382809Y-117642191D01*
X108172765Y-117501843D01*
X107925000Y-117452560D01*
X106375000Y-117452560D01*
X106127235Y-117501843D01*
X105917191Y-117642191D01*
X105776843Y-117852235D01*
X105727560Y-118100000D01*
X105727560Y-119072463D01*
X101725336Y-91056890D01*
X102558524Y-91056890D01*
X102728355Y-91466924D01*
X103118642Y-91895183D01*
X103643108Y-92141486D01*
X103873000Y-92020819D01*
X103873000Y-90827000D01*
X104127000Y-90827000D01*
X104127000Y-92020819D01*
X104356892Y-92141486D01*
X104881358Y-91895183D01*
X105271645Y-91466924D01*
X105441476Y-91056890D01*
X105320155Y-90827000D01*
X104127000Y-90827000D01*
X103873000Y-90827000D01*
X102679845Y-90827000D01*
X102558524Y-91056890D01*
X101725336Y-91056890D01*
X101710000Y-90949543D01*
X101710000Y-62069931D01*
X101973288Y-60746293D01*
X102053642Y-60626035D01*
X102053642Y-60681416D01*
G36*
X160728295Y-48655954D02*
X161000000Y-48710000D01*
X165290000Y-48710000D01*
X165290000Y-55000000D01*
X165344046Y-55271705D01*
X165497954Y-55502046D01*
X165728295Y-55655954D01*
X166000000Y-55710000D01*
X166290000Y-55710000D01*
X166290000Y-58000000D01*
X166303643Y-58068586D01*
X166303643Y-58138514D01*
X166330404Y-58203120D01*
X166344046Y-58271705D01*
X166382894Y-58329846D01*
X166409656Y-58394455D01*
X166459104Y-58443903D01*
X166497954Y-58502046D01*
X166556098Y-58540897D01*
X166605545Y-58590343D01*
X166670152Y-58617104D01*
X166728295Y-58655954D01*
X166796877Y-58669596D01*
X166861486Y-58696358D01*
X168253707Y-58973288D01*
X168473768Y-59120328D01*
X168138513Y-59053642D01*
X167861486Y-59053642D01*
X167478804Y-59129762D01*
X167406632Y-59159657D01*
X167222862Y-59235777D01*
X166898438Y-59452549D01*
X166784960Y-59566028D01*
X166702549Y-59648439D01*
X166485776Y-59972862D01*
X166443548Y-60074811D01*
X166379762Y-60228804D01*
X166303642Y-60611487D01*
X166303642Y-60681416D01*
X166290000Y-60750000D01*
X166290000Y-74750000D01*
X166303642Y-74818584D01*
X166303642Y-74888513D01*
X166379762Y-75271196D01*
X166399395Y-75318593D01*
X166485776Y-75527138D01*
X166702549Y-75851561D01*
X166702550Y-75851562D01*
X166898438Y-76047451D01*
X167222862Y-76264223D01*
X167328877Y-76308136D01*
X167478804Y-76370238D01*
X167861486Y-76446358D01*
X168138513Y-76446358D01*
X168521196Y-76370238D01*
X168596160Y-76339187D01*
X168777138Y-76264224D01*
X169101561Y-76047451D01*
X169101562Y-76047450D01*
X169297451Y-75851562D01*
X169514223Y-75527138D01*
X169564419Y-75405954D01*
X169620238Y-75271196D01*
X169696358Y-74888514D01*
X169696358Y-74818584D01*
X169710000Y-74750000D01*
X169710000Y-60750000D01*
X169696358Y-60681416D01*
X169696358Y-60611486D01*
X169620238Y-60228804D01*
X169521238Y-59989798D01*
X170026712Y-60746295D01*
X170290000Y-62069931D01*
X170290000Y-90949543D01*
X165428600Y-124979343D01*
X165428600Y-92977502D01*
X168537401Y-89868701D01*
X168702148Y-89622139D01*
X168738895Y-89437403D01*
X169079147Y-89210054D01*
X169401054Y-88728285D01*
X169514093Y-88160000D01*
X169401054Y-87591715D01*
X169079147Y-87109946D01*
X168749974Y-86890000D01*
X169079147Y-86670054D01*
X169401054Y-86188285D01*
X169514093Y-85620000D01*
X169401054Y-85051715D01*
X169079147Y-84569946D01*
X168749974Y-84350000D01*
X169079147Y-84130054D01*
X169401054Y-83648285D01*
X169514093Y-83080000D01*
X169401054Y-82511715D01*
X169079147Y-82029946D01*
X168749974Y-81810000D01*
X169079147Y-81590054D01*
X169401054Y-81108285D01*
X169514093Y-80540000D01*
X169401054Y-79971715D01*
X169079147Y-79489946D01*
X169035223Y-79460597D01*
X169209698Y-79388327D01*
X169388327Y-79209699D01*
X169485000Y-78976310D01*
X169485000Y-78285750D01*
X169326250Y-78127000D01*
X168127000Y-78127000D01*
X168127000Y-78147000D01*
X167873000Y-78147000D01*
X167873000Y-78127000D01*
X166673750Y-78127000D01*
X166515000Y-78285750D01*
X166515000Y-78976310D01*
X166611673Y-79209699D01*
X166790302Y-79388327D01*
X166964777Y-79460597D01*
X166920853Y-79489946D01*
X166598946Y-79971715D01*
X166485907Y-80540000D01*
X166598946Y-81108285D01*
X166920853Y-81590054D01*
X167250026Y-81810000D01*
X166920853Y-82029946D01*
X166598946Y-82511715D01*
X166485907Y-83080000D01*
X166598946Y-83648285D01*
X166853879Y-84029819D01*
X163684799Y-87198899D01*
X163520052Y-87445461D01*
X163462200Y-87736300D01*
X163462200Y-98578698D01*
X159585181Y-102455717D01*
X159311020Y-101792200D01*
X158710959Y-101191091D01*
X157926541Y-100865372D01*
X157077185Y-100864630D01*
X156292200Y-101188980D01*
X155691091Y-101789041D01*
X155365372Y-102573459D01*
X155365193Y-102778405D01*
X154041038Y-104102560D01*
X153800000Y-104102560D01*
X153552235Y-104151843D01*
X153467592Y-104208400D01*
X152477900Y-104208400D01*
X152187061Y-104266252D01*
X152139768Y-104297852D01*
X151940498Y-104430999D01*
X151172874Y-105198624D01*
X151101250Y-105127000D01*
X150377000Y-105127000D01*
X150377000Y-105147000D01*
X150123000Y-105147000D01*
X150123000Y-105127000D01*
X150103000Y-105127000D01*
X150103000Y-104873000D01*
X150123000Y-104873000D01*
X150123000Y-104123750D01*
X150377000Y-104123750D01*
X150377000Y-104873000D01*
X151101250Y-104873000D01*
X151260000Y-104714250D01*
X151260000Y-104473691D01*
X151163327Y-104240302D01*
X150984699Y-104061673D01*
X150751310Y-103965000D01*
X150535750Y-103965000D01*
X150377000Y-104123750D01*
X150123000Y-104123750D01*
X149964250Y-103965000D01*
X149748690Y-103965000D01*
X149515301Y-104061673D01*
X149336673Y-104240302D01*
X149254957Y-104437582D01*
X149157809Y-104292191D01*
X148947765Y-104151843D01*
X148700000Y-104102560D01*
X147800000Y-104102560D01*
X147552235Y-104151843D01*
X147342191Y-104292191D01*
X147201843Y-104502235D01*
X147158245Y-104721421D01*
X146994099Y-104831099D01*
X146772638Y-105052560D01*
X146300000Y-105052560D01*
X146052235Y-105101843D01*
X145842191Y-105242191D01*
X145789600Y-105320899D01*
X145778477Y-105316280D01*
X145366729Y-105315921D01*
X145060000Y-105442658D01*
X145060000Y-70061100D01*
X145002148Y-69770261D01*
X145002148Y-69770260D01*
X144837401Y-69523699D01*
X130538700Y-55224998D01*
X130538700Y-54210000D01*
X137331772Y-54210000D01*
X137344046Y-54271705D01*
X137497954Y-54502046D01*
X137728295Y-54655954D01*
X138000000Y-54710000D01*
X142969605Y-54710000D01*
X142958088Y-54721517D01*
X143026077Y-54962460D01*
X143545171Y-55147201D01*
X144095448Y-55119230D01*
X144473923Y-54962460D01*
X144541912Y-54721517D01*
X143750000Y-53929605D01*
X143710000Y-53969605D01*
X143710000Y-53710000D01*
X143917890Y-53710000D01*
X143943748Y-53735858D01*
X143929605Y-53750000D01*
X144721517Y-54541912D01*
X144962460Y-54473923D01*
X145147201Y-53954829D01*
X145133407Y-53683463D01*
X145271705Y-53655954D01*
X145502046Y-53502046D01*
X145655954Y-53271705D01*
X145710000Y-53000000D01*
X145710000Y-50000000D01*
X145655954Y-49728295D01*
X145502046Y-49497954D01*
X145271705Y-49344046D01*
X145140241Y-49317896D01*
X145119230Y-48904552D01*
X145038644Y-48710000D01*
X155770270Y-48710000D01*
X155691091Y-48789041D01*
X155365372Y-49573459D01*
X155364630Y-50422815D01*
X155688980Y-51207800D01*
X156289041Y-51808909D01*
X157073459Y-52134628D01*
X157922815Y-52135370D01*
X158707800Y-51811020D01*
X159021900Y-51497468D01*
X159021900Y-88731998D01*
X146212599Y-101541299D01*
X146047852Y-101787861D01*
X146043973Y-101807364D01*
X145842191Y-101942191D01*
X145701843Y-102152235D01*
X145652560Y-102400000D01*
X145652560Y-103300000D01*
X145701843Y-103547765D01*
X145842191Y-103757809D01*
X146052235Y-103898157D01*
X146300000Y-103947440D01*
X147200000Y-103947440D01*
X147447765Y-103898157D01*
X147657809Y-103757809D01*
X147798157Y-103547765D01*
X147847440Y-103300000D01*
X147847440Y-102400000D01*
X147798157Y-102152235D01*
X147779375Y-102124127D01*
X160319301Y-89584201D01*
X160484048Y-89337639D01*
X160541900Y-89046800D01*
X160541900Y-77023690D01*
X166515000Y-77023690D01*
X166515000Y-77714250D01*
X166673750Y-77873000D01*
X167873000Y-77873000D01*
X167873000Y-76673750D01*
X168127000Y-76673750D01*
X168127000Y-77873000D01*
X169326250Y-77873000D01*
X169485000Y-77714250D01*
X169485000Y-77023690D01*
X169388327Y-76790301D01*
X169209698Y-76611673D01*
X168976309Y-76515000D01*
X168285750Y-76515000D01*
X168127000Y-76673750D01*
X167873000Y-76673750D01*
X167714250Y-76515000D01*
X167023691Y-76515000D01*
X166790302Y-76611673D01*
X166611673Y-76790301D01*
X166515000Y-77023690D01*
X160541900Y-77023690D01*
X160541900Y-48531410D01*
X160728295Y-48655954D01*
X160728295Y-48655954D01*
G37*
X160728295Y-48655954D02*
X161000000Y-48710000D01*
X165290000Y-48710000D01*
X165290000Y-55000000D01*
X165344046Y-55271705D01*
X165497954Y-55502046D01*
X165728295Y-55655954D01*
X166000000Y-55710000D01*
X166290000Y-55710000D01*
X166290000Y-58000000D01*
X166303643Y-58068586D01*
X166303643Y-58138514D01*
X166330404Y-58203120D01*
X166344046Y-58271705D01*
X166382894Y-58329846D01*
X166409656Y-58394455D01*
X166459104Y-58443903D01*
X166497954Y-58502046D01*
X166556098Y-58540897D01*
X166605545Y-58590343D01*
X166670152Y-58617104D01*
X166728295Y-58655954D01*
X166796877Y-58669596D01*
X166861486Y-58696358D01*
X168253707Y-58973288D01*
X168473768Y-59120328D01*
X168138513Y-59053642D01*
X167861486Y-59053642D01*
X167478804Y-59129762D01*
X167406632Y-59159657D01*
X167222862Y-59235777D01*
X166898438Y-59452549D01*
X166784960Y-59566028D01*
X166702549Y-59648439D01*
X166485776Y-59972862D01*
X166443548Y-60074811D01*
X166379762Y-60228804D01*
X166303642Y-60611487D01*
X166303642Y-60681416D01*
X166290000Y-60750000D01*
X166290000Y-74750000D01*
X166303642Y-74818584D01*
X166303642Y-74888513D01*
X166379762Y-75271196D01*
X166399395Y-75318593D01*
X166485776Y-75527138D01*
X166702549Y-75851561D01*
X166702550Y-75851562D01*
X166898438Y-76047451D01*
X167222862Y-76264223D01*
X167328877Y-76308136D01*
X167478804Y-76370238D01*
X167861486Y-76446358D01*
X168138513Y-76446358D01*
X168521196Y-76370238D01*
X168596160Y-76339187D01*
X168777138Y-76264224D01*
X169101561Y-76047451D01*
X169101562Y-76047450D01*
X169297451Y-75851562D01*
X169514223Y-75527138D01*
X169564419Y-75405954D01*
X169620238Y-75271196D01*
X169696358Y-74888514D01*
X169696358Y-74818584D01*
X169710000Y-74750000D01*
X169710000Y-60750000D01*
X169696358Y-60681416D01*
X169696358Y-60611486D01*
X169620238Y-60228804D01*
X169521238Y-59989798D01*
X170026712Y-60746295D01*
X170290000Y-62069931D01*
X170290000Y-90949543D01*
X165428600Y-124979343D01*
X165428600Y-92977502D01*
X168537401Y-89868701D01*
X168702148Y-89622139D01*
X168738895Y-89437403D01*
X169079147Y-89210054D01*
X169401054Y-88728285D01*
X169514093Y-88160000D01*
X169401054Y-87591715D01*
X169079147Y-87109946D01*
X168749974Y-86890000D01*
X169079147Y-86670054D01*
X169401054Y-86188285D01*
X169514093Y-85620000D01*
X169401054Y-85051715D01*
X169079147Y-84569946D01*
X168749974Y-84350000D01*
X169079147Y-84130054D01*
X169401054Y-83648285D01*
X169514093Y-83080000D01*
X169401054Y-82511715D01*
X169079147Y-82029946D01*
X168749974Y-81810000D01*
X169079147Y-81590054D01*
X169401054Y-81108285D01*
X169514093Y-80540000D01*
X169401054Y-79971715D01*
X169079147Y-79489946D01*
X169035223Y-79460597D01*
X169209698Y-79388327D01*
X169388327Y-79209699D01*
X169485000Y-78976310D01*
X169485000Y-78285750D01*
X169326250Y-78127000D01*
X168127000Y-78127000D01*
X168127000Y-78147000D01*
X167873000Y-78147000D01*
X167873000Y-78127000D01*
X166673750Y-78127000D01*
X166515000Y-78285750D01*
X166515000Y-78976310D01*
X166611673Y-79209699D01*
X166790302Y-79388327D01*
X166964777Y-79460597D01*
X166920853Y-79489946D01*
X166598946Y-79971715D01*
X166485907Y-80540000D01*
X166598946Y-81108285D01*
X166920853Y-81590054D01*
X167250026Y-81810000D01*
X166920853Y-82029946D01*
X166598946Y-82511715D01*
X166485907Y-83080000D01*
X166598946Y-83648285D01*
X166853879Y-84029819D01*
X163684799Y-87198899D01*
X163520052Y-87445461D01*
X163462200Y-87736300D01*
X163462200Y-98578698D01*
X159585181Y-102455717D01*
X159311020Y-101792200D01*
X158710959Y-101191091D01*
X157926541Y-100865372D01*
X157077185Y-100864630D01*
X156292200Y-101188980D01*
X155691091Y-101789041D01*
X155365372Y-102573459D01*
X155365193Y-102778405D01*
X154041038Y-104102560D01*
X153800000Y-104102560D01*
X153552235Y-104151843D01*
X153467592Y-104208400D01*
X152477900Y-104208400D01*
X152187061Y-104266252D01*
X152139768Y-104297852D01*
X151940498Y-104430999D01*
X151172874Y-105198624D01*
X151101250Y-105127000D01*
X150377000Y-105127000D01*
X150377000Y-105147000D01*
X150123000Y-105147000D01*
X150123000Y-105127000D01*
X150103000Y-105127000D01*
X150103000Y-104873000D01*
X150123000Y-104873000D01*
X150123000Y-104123750D01*
X150377000Y-104123750D01*
X150377000Y-104873000D01*
X151101250Y-104873000D01*
X151260000Y-104714250D01*
X151260000Y-104473691D01*
X151163327Y-104240302D01*
X150984699Y-104061673D01*
X150751310Y-103965000D01*
X150535750Y-103965000D01*
X150377000Y-104123750D01*
X150123000Y-104123750D01*
X149964250Y-103965000D01*
X149748690Y-103965000D01*
X149515301Y-104061673D01*
X149336673Y-104240302D01*
X149254957Y-104437582D01*
X149157809Y-104292191D01*
X148947765Y-104151843D01*
X148700000Y-104102560D01*
X147800000Y-104102560D01*
X147552235Y-104151843D01*
X147342191Y-104292191D01*
X147201843Y-104502235D01*
X147158245Y-104721421D01*
X146994099Y-104831099D01*
X146772638Y-105052560D01*
X146300000Y-105052560D01*
X146052235Y-105101843D01*
X145842191Y-105242191D01*
X145789600Y-105320899D01*
X145778477Y-105316280D01*
X145366729Y-105315921D01*
X145060000Y-105442658D01*
X145060000Y-70061100D01*
X145002148Y-69770261D01*
X145002148Y-69770260D01*
X144837401Y-69523699D01*
X130538700Y-55224998D01*
X130538700Y-54210000D01*
X137331772Y-54210000D01*
X137344046Y-54271705D01*
X137497954Y-54502046D01*
X137728295Y-54655954D01*
X138000000Y-54710000D01*
X142969605Y-54710000D01*
X142958088Y-54721517D01*
X143026077Y-54962460D01*
X143545171Y-55147201D01*
X144095448Y-55119230D01*
X144473923Y-54962460D01*
X144541912Y-54721517D01*
X143750000Y-53929605D01*
X143710000Y-53969605D01*
X143710000Y-53710000D01*
X143917890Y-53710000D01*
X143943748Y-53735858D01*
X143929605Y-53750000D01*
X144721517Y-54541912D01*
X144962460Y-54473923D01*
X145147201Y-53954829D01*
X145133407Y-53683463D01*
X145271705Y-53655954D01*
X145502046Y-53502046D01*
X145655954Y-53271705D01*
X145710000Y-53000000D01*
X145710000Y-50000000D01*
X145655954Y-49728295D01*
X145502046Y-49497954D01*
X145271705Y-49344046D01*
X145140241Y-49317896D01*
X145119230Y-48904552D01*
X145038644Y-48710000D01*
X155770270Y-48710000D01*
X155691091Y-48789041D01*
X155365372Y-49573459D01*
X155364630Y-50422815D01*
X155688980Y-51207800D01*
X156289041Y-51808909D01*
X157073459Y-52134628D01*
X157922815Y-52135370D01*
X158707800Y-51811020D01*
X159021900Y-51497468D01*
X159021900Y-88731998D01*
X146212599Y-101541299D01*
X146047852Y-101787861D01*
X146043973Y-101807364D01*
X145842191Y-101942191D01*
X145701843Y-102152235D01*
X145652560Y-102400000D01*
X145652560Y-103300000D01*
X145701843Y-103547765D01*
X145842191Y-103757809D01*
X146052235Y-103898157D01*
X146300000Y-103947440D01*
X147200000Y-103947440D01*
X147447765Y-103898157D01*
X147657809Y-103757809D01*
X147798157Y-103547765D01*
X147847440Y-103300000D01*
X147847440Y-102400000D01*
X147798157Y-102152235D01*
X147779375Y-102124127D01*
X160319301Y-89584201D01*
X160484048Y-89337639D01*
X160541900Y-89046800D01*
X160541900Y-77023690D01*
X166515000Y-77023690D01*
X166515000Y-77714250D01*
X166673750Y-77873000D01*
X167873000Y-77873000D01*
X167873000Y-76673750D01*
X168127000Y-76673750D01*
X168127000Y-77873000D01*
X169326250Y-77873000D01*
X169485000Y-77714250D01*
X169485000Y-77023690D01*
X169388327Y-76790301D01*
X169209698Y-76611673D01*
X168976309Y-76515000D01*
X168285750Y-76515000D01*
X168127000Y-76673750D01*
X167873000Y-76673750D01*
X167714250Y-76515000D01*
X167023691Y-76515000D01*
X166790302Y-76611673D01*
X166611673Y-76790301D01*
X166515000Y-77023690D01*
X160541900Y-77023690D01*
X160541900Y-48531410D01*
X160728295Y-48655954D01*
G36*
X127464436Y-54423461D02*
X127973298Y-54634759D01*
X128524285Y-54635240D01*
X129018700Y-54430952D01*
X129018700Y-55539800D01*
X129076552Y-55830639D01*
X129241299Y-56077201D01*
X143540000Y-70375902D01*
X143540000Y-107134386D01*
X143452235Y-107151843D01*
X143300000Y-107253564D01*
X143147765Y-107151843D01*
X143047058Y-107131811D01*
X143157809Y-107057809D01*
X143298157Y-106847765D01*
X143347440Y-106600000D01*
X143347440Y-105700000D01*
X143298157Y-105452235D01*
X143157809Y-105242191D01*
X142972292Y-105118232D01*
X142952148Y-105016961D01*
X142787401Y-104770399D01*
X141952002Y-103935000D01*
X141964250Y-103935000D01*
X142123000Y-103776250D01*
X142123000Y-102977000D01*
X142377000Y-102977000D01*
X142377000Y-103776250D01*
X142535750Y-103935000D01*
X142826309Y-103935000D01*
X143059698Y-103838327D01*
X143238327Y-103659699D01*
X143335000Y-103426310D01*
X143335000Y-103135750D01*
X143176250Y-102977000D01*
X142377000Y-102977000D01*
X142123000Y-102977000D01*
X141323750Y-102977000D01*
X141165000Y-103135750D01*
X141165000Y-103147998D01*
X140329601Y-102312599D01*
X140271370Y-102273690D01*
X141165000Y-102273690D01*
X141165000Y-102564250D01*
X141323750Y-102723000D01*
X142123000Y-102723000D01*
X142123000Y-101923750D01*
X142377000Y-101923750D01*
X142377000Y-102723000D01*
X143176250Y-102723000D01*
X143335000Y-102564250D01*
X143335000Y-102273690D01*
X143238327Y-102040301D01*
X143059698Y-101861673D01*
X142826309Y-101765000D01*
X142535750Y-101765000D01*
X142377000Y-101923750D01*
X142123000Y-101923750D01*
X141964250Y-101765000D01*
X141673691Y-101765000D01*
X141440302Y-101861673D01*
X141261673Y-102040301D01*
X141165000Y-102273690D01*
X140271370Y-102273690D01*
X140083039Y-102147852D01*
X139792200Y-102090000D01*
X130756573Y-102090000D01*
X130657809Y-101942191D01*
X130447765Y-101801843D01*
X130200000Y-101752560D01*
X129300000Y-101752560D01*
X129052235Y-101801843D01*
X128842191Y-101942191D01*
X128701843Y-102152235D01*
X128652560Y-102400000D01*
X128652560Y-103300000D01*
X128701843Y-103547765D01*
X128842191Y-103757809D01*
X129052235Y-103898157D01*
X129300000Y-103947440D01*
X130200000Y-103947440D01*
X130447765Y-103898157D01*
X130657809Y-103757809D01*
X130756573Y-103610000D01*
X139477398Y-103610000D01*
X139832398Y-103965000D01*
X139748690Y-103965000D01*
X139515301Y-104061673D01*
X139336673Y-104240302D01*
X139240000Y-104473691D01*
X139240000Y-104714250D01*
X139398750Y-104873000D01*
X140123000Y-104873000D01*
X140123000Y-104853000D01*
X140293167Y-104853000D01*
X140187480Y-105107523D01*
X140187446Y-105147000D01*
X140123000Y-105147000D01*
X140123000Y-105127000D01*
X139398750Y-105127000D01*
X139240000Y-105285750D01*
X139240000Y-105526309D01*
X139336673Y-105759698D01*
X139337873Y-105760898D01*
X139276843Y-105852235D01*
X139227560Y-106100000D01*
X139227560Y-106900000D01*
X139276843Y-107147765D01*
X139332864Y-107231605D01*
X139242191Y-107292191D01*
X139101843Y-107502235D01*
X139052560Y-107750000D01*
X139052560Y-108288300D01*
X134384402Y-108288300D01*
X134308701Y-108212599D01*
X134062139Y-108047852D01*
X133854455Y-108006541D01*
X133697765Y-107901843D01*
X133450000Y-107852560D01*
X132550000Y-107852560D01*
X132302235Y-107901843D01*
X132250000Y-107936746D01*
X132197765Y-107901843D01*
X131950000Y-107852560D01*
X131050000Y-107852560D01*
X130802235Y-107901843D01*
X130750000Y-107936746D01*
X130697765Y-107901843D01*
X130510000Y-107864495D01*
X130510000Y-107156573D01*
X130657809Y-107057809D01*
X130798157Y-106847765D01*
X130847440Y-106600000D01*
X130847440Y-105700000D01*
X130798157Y-105452235D01*
X130657809Y-105242191D01*
X130447765Y-105101843D01*
X130200000Y-105052560D01*
X129300000Y-105052560D01*
X129052235Y-105101843D01*
X128842191Y-105242191D01*
X128701843Y-105452235D01*
X128652560Y-105700000D01*
X128652560Y-106600000D01*
X128701843Y-106847765D01*
X128842191Y-107057809D01*
X128990000Y-107156573D01*
X128990000Y-107860516D01*
X128950000Y-107852560D01*
X128050000Y-107852560D01*
X127802235Y-107901843D01*
X127749816Y-107936869D01*
X127576310Y-107865000D01*
X127285750Y-107865000D01*
X127127000Y-108023750D01*
X127127000Y-108561300D01*
X126873000Y-108561300D01*
X126873000Y-108023750D01*
X126714250Y-107865000D01*
X126423690Y-107865000D01*
X126327761Y-107904735D01*
X126234699Y-107811673D01*
X126001310Y-107715000D01*
X125785750Y-107715000D01*
X125627000Y-107873750D01*
X125627000Y-108623000D01*
X125647000Y-108623000D01*
X125647000Y-108877000D01*
X125627000Y-108877000D01*
X125627000Y-108897000D01*
X125373000Y-108897000D01*
X125373000Y-108877000D01*
X124648750Y-108877000D01*
X124490000Y-109035750D01*
X124490000Y-109276309D01*
X124586673Y-109509698D01*
X124587873Y-109510898D01*
X124526843Y-109602235D01*
X124477560Y-109850000D01*
X124477560Y-110152158D01*
X122549093Y-108223691D01*
X124490000Y-108223691D01*
X124490000Y-108464250D01*
X124648750Y-108623000D01*
X125373000Y-108623000D01*
X125373000Y-107873750D01*
X125214250Y-107715000D01*
X124998690Y-107715000D01*
X124765301Y-107811673D01*
X124586673Y-107990302D01*
X124490000Y-108223691D01*
X122549093Y-108223691D01*
X120025402Y-105700000D01*
X124152560Y-105700000D01*
X124152560Y-106600000D01*
X124201843Y-106847765D01*
X124342191Y-107057809D01*
X124552235Y-107198157D01*
X124800000Y-107247440D01*
X125654918Y-107247440D01*
X125737054Y-107329719D01*
X126117323Y-107487620D01*
X126529071Y-107487979D01*
X126909615Y-107330742D01*
X127201019Y-107039846D01*
X127358920Y-106659577D01*
X127359279Y-106247829D01*
X127202042Y-105867285D01*
X126911146Y-105575881D01*
X126530877Y-105417980D01*
X126275119Y-105417757D01*
X126157809Y-105242191D01*
X125947765Y-105101843D01*
X125700000Y-105052560D01*
X124800000Y-105052560D01*
X124552235Y-105101843D01*
X124342191Y-105242191D01*
X124201843Y-105452235D01*
X124152560Y-105700000D01*
X120025402Y-105700000D01*
X119449001Y-105123599D01*
X119202439Y-104958852D01*
X118911600Y-104901000D01*
X115509785Y-104901000D01*
X115674582Y-104832739D01*
X115834365Y-104513970D01*
X114500000Y-103179605D01*
X113165635Y-104513970D01*
X113325418Y-104832739D01*
X113592206Y-104937321D01*
X113483961Y-104958852D01*
X113237399Y-105123599D01*
X112508899Y-105852099D01*
X112344152Y-106098661D01*
X112313539Y-106252560D01*
X112275000Y-106252560D01*
X112027235Y-106301843D01*
X111820470Y-106440000D01*
X111179530Y-106440000D01*
X110972765Y-106301843D01*
X110725000Y-106252560D01*
X110275000Y-106252560D01*
X110027235Y-106301843D01*
X109820470Y-106440000D01*
X109179530Y-106440000D01*
X108972765Y-106301843D01*
X108725000Y-106252560D01*
X108334100Y-106252560D01*
X108334100Y-102616187D01*
X112357277Y-102616187D01*
X112373503Y-103465387D01*
X112667261Y-104174582D01*
X112986030Y-104334365D01*
X114320395Y-103000000D01*
X114679605Y-103000000D01*
X116013970Y-104334365D01*
X116332739Y-104174582D01*
X116642723Y-103383813D01*
X116637984Y-103135750D01*
X124165000Y-103135750D01*
X124165000Y-103426310D01*
X124261673Y-103659699D01*
X124440302Y-103838327D01*
X124673691Y-103935000D01*
X124964250Y-103935000D01*
X125123000Y-103776250D01*
X125123000Y-102977000D01*
X125377000Y-102977000D01*
X125377000Y-103776250D01*
X125535750Y-103935000D01*
X125826309Y-103935000D01*
X126059698Y-103838327D01*
X126238327Y-103659699D01*
X126335000Y-103426310D01*
X126335000Y-103135750D01*
X126176250Y-102977000D01*
X125377000Y-102977000D01*
X125123000Y-102977000D01*
X124323750Y-102977000D01*
X124165000Y-103135750D01*
X116637984Y-103135750D01*
X116626497Y-102534613D01*
X116518420Y-102273690D01*
X124165000Y-102273690D01*
X124165000Y-102564250D01*
X124323750Y-102723000D01*
X125123000Y-102723000D01*
X125123000Y-101923750D01*
X125377000Y-101923750D01*
X125377000Y-102723000D01*
X126176250Y-102723000D01*
X126335000Y-102564250D01*
X126335000Y-102273690D01*
X126238327Y-102040301D01*
X126059698Y-101861673D01*
X125826309Y-101765000D01*
X125535750Y-101765000D01*
X125377000Y-101923750D01*
X125123000Y-101923750D01*
X124964250Y-101765000D01*
X124673691Y-101765000D01*
X124440302Y-101861673D01*
X124261673Y-102040301D01*
X124165000Y-102273690D01*
X116518420Y-102273690D01*
X116332739Y-101825418D01*
X116013970Y-101665635D01*
X114679605Y-103000000D01*
X114320395Y-103000000D01*
X112986030Y-101665635D01*
X112667261Y-101825418D01*
X112357277Y-102616187D01*
X108334100Y-102616187D01*
X108334100Y-101486030D01*
X113165635Y-101486030D01*
X114500000Y-102820395D01*
X115834365Y-101486030D01*
X115674582Y-101167261D01*
X114883813Y-100857277D01*
X114034613Y-100873503D01*
X113325418Y-101167261D01*
X113165635Y-101486030D01*
X108334100Y-101486030D01*
X108334100Y-87461400D01*
X108276248Y-87170561D01*
X108111501Y-86923999D01*
X105174640Y-83987138D01*
X105401054Y-83648285D01*
X105514093Y-83080000D01*
X105401054Y-82511715D01*
X105079147Y-82029946D01*
X104749974Y-81810000D01*
X105079147Y-81590054D01*
X105401054Y-81108285D01*
X105514093Y-80540000D01*
X105401054Y-79971715D01*
X105079147Y-79489946D01*
X105035223Y-79460597D01*
X105097765Y-79448157D01*
X105307809Y-79307809D01*
X105448157Y-79097765D01*
X105497440Y-78850000D01*
X105497440Y-77150000D01*
X105448157Y-76902235D01*
X105307809Y-76692191D01*
X105249963Y-76653539D01*
X115767501Y-66136001D01*
X115932248Y-65889439D01*
X115990100Y-65598600D01*
X115990100Y-54086100D01*
X127127662Y-54086100D01*
X127464436Y-54423461D01*
X127464436Y-54423461D01*
G37*
X127464436Y-54423461D02*
X127973298Y-54634759D01*
X128524285Y-54635240D01*
X129018700Y-54430952D01*
X129018700Y-55539800D01*
X129076552Y-55830639D01*
X129241299Y-56077201D01*
X143540000Y-70375902D01*
X143540000Y-107134386D01*
X143452235Y-107151843D01*
X143300000Y-107253564D01*
X143147765Y-107151843D01*
X143047058Y-107131811D01*
X143157809Y-107057809D01*
X143298157Y-106847765D01*
X143347440Y-106600000D01*
X143347440Y-105700000D01*
X143298157Y-105452235D01*
X143157809Y-105242191D01*
X142972292Y-105118232D01*
X142952148Y-105016961D01*
X142787401Y-104770399D01*
X141952002Y-103935000D01*
X141964250Y-103935000D01*
X142123000Y-103776250D01*
X142123000Y-102977000D01*
X142377000Y-102977000D01*
X142377000Y-103776250D01*
X142535750Y-103935000D01*
X142826309Y-103935000D01*
X143059698Y-103838327D01*
X143238327Y-103659699D01*
X143335000Y-103426310D01*
X143335000Y-103135750D01*
X143176250Y-102977000D01*
X142377000Y-102977000D01*
X142123000Y-102977000D01*
X141323750Y-102977000D01*
X141165000Y-103135750D01*
X141165000Y-103147998D01*
X140329601Y-102312599D01*
X140271370Y-102273690D01*
X141165000Y-102273690D01*
X141165000Y-102564250D01*
X141323750Y-102723000D01*
X142123000Y-102723000D01*
X142123000Y-101923750D01*
X142377000Y-101923750D01*
X142377000Y-102723000D01*
X143176250Y-102723000D01*
X143335000Y-102564250D01*
X143335000Y-102273690D01*
X143238327Y-102040301D01*
X143059698Y-101861673D01*
X142826309Y-101765000D01*
X142535750Y-101765000D01*
X142377000Y-101923750D01*
X142123000Y-101923750D01*
X141964250Y-101765000D01*
X141673691Y-101765000D01*
X141440302Y-101861673D01*
X141261673Y-102040301D01*
X141165000Y-102273690D01*
X140271370Y-102273690D01*
X140083039Y-102147852D01*
X139792200Y-102090000D01*
X130756573Y-102090000D01*
X130657809Y-101942191D01*
X130447765Y-101801843D01*
X130200000Y-101752560D01*
X129300000Y-101752560D01*
X129052235Y-101801843D01*
X128842191Y-101942191D01*
X128701843Y-102152235D01*
X128652560Y-102400000D01*
X128652560Y-103300000D01*
X128701843Y-103547765D01*
X128842191Y-103757809D01*
X129052235Y-103898157D01*
X129300000Y-103947440D01*
X130200000Y-103947440D01*
X130447765Y-103898157D01*
X130657809Y-103757809D01*
X130756573Y-103610000D01*
X139477398Y-103610000D01*
X139832398Y-103965000D01*
X139748690Y-103965000D01*
X139515301Y-104061673D01*
X139336673Y-104240302D01*
X139240000Y-104473691D01*
X139240000Y-104714250D01*
X139398750Y-104873000D01*
X140123000Y-104873000D01*
X140123000Y-104853000D01*
X140293167Y-104853000D01*
X140187480Y-105107523D01*
X140187446Y-105147000D01*
X140123000Y-105147000D01*
X140123000Y-105127000D01*
X139398750Y-105127000D01*
X139240000Y-105285750D01*
X139240000Y-105526309D01*
X139336673Y-105759698D01*
X139337873Y-105760898D01*
X139276843Y-105852235D01*
X139227560Y-106100000D01*
X139227560Y-106900000D01*
X139276843Y-107147765D01*
X139332864Y-107231605D01*
X139242191Y-107292191D01*
X139101843Y-107502235D01*
X139052560Y-107750000D01*
X139052560Y-108288300D01*
X134384402Y-108288300D01*
X134308701Y-108212599D01*
X134062139Y-108047852D01*
X133854455Y-108006541D01*
X133697765Y-107901843D01*
X133450000Y-107852560D01*
X132550000Y-107852560D01*
X132302235Y-107901843D01*
X132250000Y-107936746D01*
X132197765Y-107901843D01*
X131950000Y-107852560D01*
X131050000Y-107852560D01*
X130802235Y-107901843D01*
X130750000Y-107936746D01*
X130697765Y-107901843D01*
X130510000Y-107864495D01*
X130510000Y-107156573D01*
X130657809Y-107057809D01*
X130798157Y-106847765D01*
X130847440Y-106600000D01*
X130847440Y-105700000D01*
X130798157Y-105452235D01*
X130657809Y-105242191D01*
X130447765Y-105101843D01*
X130200000Y-105052560D01*
X129300000Y-105052560D01*
X129052235Y-105101843D01*
X128842191Y-105242191D01*
X128701843Y-105452235D01*
X128652560Y-105700000D01*
X128652560Y-106600000D01*
X128701843Y-106847765D01*
X128842191Y-107057809D01*
X128990000Y-107156573D01*
X128990000Y-107860516D01*
X128950000Y-107852560D01*
X128050000Y-107852560D01*
X127802235Y-107901843D01*
X127749816Y-107936869D01*
X127576310Y-107865000D01*
X127285750Y-107865000D01*
X127127000Y-108023750D01*
X127127000Y-108561300D01*
X126873000Y-108561300D01*
X126873000Y-108023750D01*
X126714250Y-107865000D01*
X126423690Y-107865000D01*
X126327761Y-107904735D01*
X126234699Y-107811673D01*
X126001310Y-107715000D01*
X125785750Y-107715000D01*
X125627000Y-107873750D01*
X125627000Y-108623000D01*
X125647000Y-108623000D01*
X125647000Y-108877000D01*
X125627000Y-108877000D01*
X125627000Y-108897000D01*
X125373000Y-108897000D01*
X125373000Y-108877000D01*
X124648750Y-108877000D01*
X124490000Y-109035750D01*
X124490000Y-109276309D01*
X124586673Y-109509698D01*
X124587873Y-109510898D01*
X124526843Y-109602235D01*
X124477560Y-109850000D01*
X124477560Y-110152158D01*
X122549093Y-108223691D01*
X124490000Y-108223691D01*
X124490000Y-108464250D01*
X124648750Y-108623000D01*
X125373000Y-108623000D01*
X125373000Y-107873750D01*
X125214250Y-107715000D01*
X124998690Y-107715000D01*
X124765301Y-107811673D01*
X124586673Y-107990302D01*
X124490000Y-108223691D01*
X122549093Y-108223691D01*
X120025402Y-105700000D01*
X124152560Y-105700000D01*
X124152560Y-106600000D01*
X124201843Y-106847765D01*
X124342191Y-107057809D01*
X124552235Y-107198157D01*
X124800000Y-107247440D01*
X125654918Y-107247440D01*
X125737054Y-107329719D01*
X126117323Y-107487620D01*
X126529071Y-107487979D01*
X126909615Y-107330742D01*
X127201019Y-107039846D01*
X127358920Y-106659577D01*
X127359279Y-106247829D01*
X127202042Y-105867285D01*
X126911146Y-105575881D01*
X126530877Y-105417980D01*
X126275119Y-105417757D01*
X126157809Y-105242191D01*
X125947765Y-105101843D01*
X125700000Y-105052560D01*
X124800000Y-105052560D01*
X124552235Y-105101843D01*
X124342191Y-105242191D01*
X124201843Y-105452235D01*
X124152560Y-105700000D01*
X120025402Y-105700000D01*
X119449001Y-105123599D01*
X119202439Y-104958852D01*
X118911600Y-104901000D01*
X115509785Y-104901000D01*
X115674582Y-104832739D01*
X115834365Y-104513970D01*
X114500000Y-103179605D01*
X113165635Y-104513970D01*
X113325418Y-104832739D01*
X113592206Y-104937321D01*
X113483961Y-104958852D01*
X113237399Y-105123599D01*
X112508899Y-105852099D01*
X112344152Y-106098661D01*
X112313539Y-106252560D01*
X112275000Y-106252560D01*
X112027235Y-106301843D01*
X111820470Y-106440000D01*
X111179530Y-106440000D01*
X110972765Y-106301843D01*
X110725000Y-106252560D01*
X110275000Y-106252560D01*
X110027235Y-106301843D01*
X109820470Y-106440000D01*
X109179530Y-106440000D01*
X108972765Y-106301843D01*
X108725000Y-106252560D01*
X108334100Y-106252560D01*
X108334100Y-102616187D01*
X112357277Y-102616187D01*
X112373503Y-103465387D01*
X112667261Y-104174582D01*
X112986030Y-104334365D01*
X114320395Y-103000000D01*
X114679605Y-103000000D01*
X116013970Y-104334365D01*
X116332739Y-104174582D01*
X116642723Y-103383813D01*
X116637984Y-103135750D01*
X124165000Y-103135750D01*
X124165000Y-103426310D01*
X124261673Y-103659699D01*
X124440302Y-103838327D01*
X124673691Y-103935000D01*
X124964250Y-103935000D01*
X125123000Y-103776250D01*
X125123000Y-102977000D01*
X125377000Y-102977000D01*
X125377000Y-103776250D01*
X125535750Y-103935000D01*
X125826309Y-103935000D01*
X126059698Y-103838327D01*
X126238327Y-103659699D01*
X126335000Y-103426310D01*
X126335000Y-103135750D01*
X126176250Y-102977000D01*
X125377000Y-102977000D01*
X125123000Y-102977000D01*
X124323750Y-102977000D01*
X124165000Y-103135750D01*
X116637984Y-103135750D01*
X116626497Y-102534613D01*
X116518420Y-102273690D01*
X124165000Y-102273690D01*
X124165000Y-102564250D01*
X124323750Y-102723000D01*
X125123000Y-102723000D01*
X125123000Y-101923750D01*
X125377000Y-101923750D01*
X125377000Y-102723000D01*
X126176250Y-102723000D01*
X126335000Y-102564250D01*
X126335000Y-102273690D01*
X126238327Y-102040301D01*
X126059698Y-101861673D01*
X125826309Y-101765000D01*
X125535750Y-101765000D01*
X125377000Y-101923750D01*
X125123000Y-101923750D01*
X124964250Y-101765000D01*
X124673691Y-101765000D01*
X124440302Y-101861673D01*
X124261673Y-102040301D01*
X124165000Y-102273690D01*
X116518420Y-102273690D01*
X116332739Y-101825418D01*
X116013970Y-101665635D01*
X114679605Y-103000000D01*
X114320395Y-103000000D01*
X112986030Y-101665635D01*
X112667261Y-101825418D01*
X112357277Y-102616187D01*
X108334100Y-102616187D01*
X108334100Y-101486030D01*
X113165635Y-101486030D01*
X114500000Y-102820395D01*
X115834365Y-101486030D01*
X115674582Y-101167261D01*
X114883813Y-100857277D01*
X114034613Y-100873503D01*
X113325418Y-101167261D01*
X113165635Y-101486030D01*
X108334100Y-101486030D01*
X108334100Y-87461400D01*
X108276248Y-87170561D01*
X108111501Y-86923999D01*
X105174640Y-83987138D01*
X105401054Y-83648285D01*
X105514093Y-83080000D01*
X105401054Y-82511715D01*
X105079147Y-82029946D01*
X104749974Y-81810000D01*
X105079147Y-81590054D01*
X105401054Y-81108285D01*
X105514093Y-80540000D01*
X105401054Y-79971715D01*
X105079147Y-79489946D01*
X105035223Y-79460597D01*
X105097765Y-79448157D01*
X105307809Y-79307809D01*
X105448157Y-79097765D01*
X105497440Y-78850000D01*
X105497440Y-77150000D01*
X105448157Y-76902235D01*
X105307809Y-76692191D01*
X105249963Y-76653539D01*
X115767501Y-66136001D01*
X115932248Y-65889439D01*
X115990100Y-65598600D01*
X115990100Y-54086100D01*
X127127662Y-54086100D01*
X127464436Y-54423461D01*
G36*
X127076539Y-48964436D02*
X126865241Y-49473298D01*
X126864760Y-50024285D01*
X127075169Y-50533515D01*
X127255821Y-50714483D01*
X127037540Y-50776077D01*
X126852799Y-51295171D01*
X126880770Y-51845448D01*
X127037540Y-52223923D01*
X127255781Y-52285506D01*
X127076539Y-52464436D01*
X127034324Y-52566100D01*
X126857601Y-52566100D01*
X126897201Y-52454829D01*
X126869230Y-51904552D01*
X126712460Y-51526077D01*
X126620047Y-51500000D01*
X126712460Y-51473923D01*
X126897201Y-50954829D01*
X126869230Y-50404552D01*
X126712460Y-50026077D01*
X126471517Y-49958088D01*
X125679605Y-50750000D01*
X125693748Y-50764143D01*
X125599750Y-50858140D01*
X125409901Y-50867791D01*
X125306253Y-50764143D01*
X125320395Y-50750000D01*
X124528483Y-49958088D01*
X124287540Y-50026077D01*
X124102799Y-50545171D01*
X124130770Y-51095448D01*
X124287540Y-51473923D01*
X124379953Y-51500000D01*
X124287540Y-51526077D01*
X124102799Y-52045171D01*
X124129278Y-52566100D01*
X115544902Y-52566100D01*
X115058223Y-52079421D01*
X115707800Y-51811020D01*
X116308909Y-51210959D01*
X116634628Y-50426541D01*
X116635194Y-49778483D01*
X124708088Y-49778483D01*
X125500000Y-50570395D01*
X126291912Y-49778483D01*
X126223923Y-49537540D01*
X125704829Y-49352799D01*
X125154552Y-49380770D01*
X124776077Y-49537540D01*
X124708088Y-49778483D01*
X116635194Y-49778483D01*
X116635370Y-49577185D01*
X116311020Y-48792200D01*
X116228963Y-48710000D01*
X127331419Y-48710000D01*
X127076539Y-48964436D01*
X127076539Y-48964436D01*
G37*
X127076539Y-48964436D02*
X126865241Y-49473298D01*
X126864760Y-50024285D01*
X127075169Y-50533515D01*
X127255821Y-50714483D01*
X127037540Y-50776077D01*
X126852799Y-51295171D01*
X126880770Y-51845448D01*
X127037540Y-52223923D01*
X127255781Y-52285506D01*
X127076539Y-52464436D01*
X127034324Y-52566100D01*
X126857601Y-52566100D01*
X126897201Y-52454829D01*
X126869230Y-51904552D01*
X126712460Y-51526077D01*
X126620047Y-51500000D01*
X126712460Y-51473923D01*
X126897201Y-50954829D01*
X126869230Y-50404552D01*
X126712460Y-50026077D01*
X126471517Y-49958088D01*
X125679605Y-50750000D01*
X125693748Y-50764143D01*
X125599750Y-50858140D01*
X125409901Y-50867791D01*
X125306253Y-50764143D01*
X125320395Y-50750000D01*
X124528483Y-49958088D01*
X124287540Y-50026077D01*
X124102799Y-50545171D01*
X124130770Y-51095448D01*
X124287540Y-51473923D01*
X124379953Y-51500000D01*
X124287540Y-51526077D01*
X124102799Y-52045171D01*
X124129278Y-52566100D01*
X115544902Y-52566100D01*
X115058223Y-52079421D01*
X115707800Y-51811020D01*
X116308909Y-51210959D01*
X116634628Y-50426541D01*
X116635194Y-49778483D01*
X124708088Y-49778483D01*
X125500000Y-50570395D01*
X126291912Y-49778483D01*
X126223923Y-49537540D01*
X125704829Y-49352799D01*
X125154552Y-49380770D01*
X124776077Y-49537540D01*
X124708088Y-49778483D01*
X116635194Y-49778483D01*
X116635370Y-49577185D01*
X116311020Y-48792200D01*
X116228963Y-48710000D01*
X127331419Y-48710000D01*
X127076539Y-48964436D01*
G36*
X125693748Y-52235858D02*
X125679605Y-52250000D01*
X125693748Y-52264143D01*
X125514143Y-52443748D01*
X125500000Y-52429605D01*
X125485858Y-52443748D01*
X125306253Y-52264143D01*
X125320395Y-52250000D01*
X125306253Y-52235858D01*
X125400250Y-52141860D01*
X125590099Y-52132209D01*
X125693748Y-52235858D01*
X125693748Y-52235858D01*
G37*
X125693748Y-52235858D02*
X125679605Y-52250000D01*
X125693748Y-52264143D01*
X125514143Y-52443748D01*
X125500000Y-52429605D01*
X125485858Y-52443748D01*
X125306253Y-52264143D01*
X125320395Y-52250000D01*
X125306253Y-52235858D01*
X125400250Y-52141860D01*
X125590099Y-52132209D01*
X125693748Y-52235858D01*
G36*
X128443748Y-51485858D02*
X128429605Y-51500000D01*
X128443748Y-51514143D01*
X128264143Y-51693748D01*
X128250000Y-51679605D01*
X128235858Y-51693748D01*
X128056253Y-51514143D01*
X128070395Y-51500000D01*
X128056253Y-51485858D01*
X128235858Y-51306253D01*
X128250000Y-51320395D01*
X128264143Y-51306253D01*
X128443748Y-51485858D01*
X128443748Y-51485858D01*
G37*
X128443748Y-51485858D02*
X128429605Y-51500000D01*
X128443748Y-51514143D01*
X128264143Y-51693748D01*
X128250000Y-51679605D01*
X128235858Y-51693748D01*
X128056253Y-51514143D01*
X128070395Y-51500000D01*
X128056253Y-51485858D01*
X128235858Y-51306253D01*
X128250000Y-51320395D01*
X128264143Y-51306253D01*
X128443748Y-51485858D01*
G36*
X143943748Y-49235858D02*
X143929605Y-49250000D01*
X143943748Y-49264143D01*
X143917890Y-49290000D01*
X143710000Y-49290000D01*
X143710000Y-49082110D01*
X143735858Y-49056253D01*
X143750000Y-49070395D01*
X143764143Y-49056253D01*
X143943748Y-49235858D01*
X143943748Y-49235858D01*
G37*
X143943748Y-49235858D02*
X143929605Y-49250000D01*
X143943748Y-49264143D01*
X143917890Y-49290000D01*
X143710000Y-49290000D01*
X143710000Y-49082110D01*
X143735858Y-49056253D01*
X143750000Y-49070395D01*
X143764143Y-49056253D01*
X143943748Y-49235858D01*
G36*
X151152560Y-35900000D02*
X151152560Y-36800000D01*
X151201843Y-37047765D01*
X151342191Y-37257809D01*
X151552235Y-37398157D01*
X151800000Y-37447440D01*
X152561438Y-37447440D01*
X154403998Y-39290000D01*
X154000000Y-39290000D01*
X153931416Y-39303642D01*
X153861486Y-39303642D01*
X153478804Y-39379762D01*
X153406632Y-39409657D01*
X153222862Y-39485777D01*
X153194567Y-39504683D01*
X153335000Y-39364250D01*
X153335000Y-39073690D01*
X153238327Y-38840301D01*
X153059698Y-38661673D01*
X152826309Y-38565000D01*
X152535750Y-38565000D01*
X152377000Y-38723750D01*
X152377000Y-39523000D01*
X152397000Y-39523000D01*
X152397000Y-39777000D01*
X152377000Y-39777000D01*
X152377000Y-40492690D01*
X152303642Y-40861486D01*
X152303642Y-40861487D01*
X152255074Y-41105655D01*
X152195225Y-41195226D01*
X152105655Y-41255074D01*
X151930070Y-41290000D01*
X140381473Y-41290000D01*
X140808668Y-41004558D01*
X141004558Y-40808668D01*
X141438103Y-40159822D01*
X141504303Y-40000000D01*
X141544117Y-39903881D01*
X141696357Y-39138515D01*
X141696357Y-38861485D01*
X141544117Y-38096119D01*
X141491110Y-37968149D01*
X141438103Y-37840178D01*
X141004558Y-37191332D01*
X140923226Y-37110000D01*
X143363898Y-37110000D01*
X146441299Y-40187401D01*
X146687861Y-40352148D01*
X146707364Y-40356027D01*
X146842191Y-40557809D01*
X147052235Y-40698157D01*
X147300000Y-40747440D01*
X148200000Y-40747440D01*
X148447765Y-40698157D01*
X148657809Y-40557809D01*
X148798157Y-40347765D01*
X148847440Y-40100000D01*
X148847440Y-39935750D01*
X151165000Y-39935750D01*
X151165000Y-40226310D01*
X151261673Y-40459699D01*
X151440302Y-40638327D01*
X151673691Y-40735000D01*
X151964250Y-40735000D01*
X152123000Y-40576250D01*
X152123000Y-39777000D01*
X151323750Y-39777000D01*
X151165000Y-39935750D01*
X148847440Y-39935750D01*
X148847440Y-39200000D01*
X148822316Y-39073690D01*
X151165000Y-39073690D01*
X151165000Y-39364250D01*
X151323750Y-39523000D01*
X152123000Y-39523000D01*
X152123000Y-38723750D01*
X151964250Y-38565000D01*
X151673691Y-38565000D01*
X151440302Y-38661673D01*
X151261673Y-38840301D01*
X151165000Y-39073690D01*
X148822316Y-39073690D01*
X148798157Y-38952235D01*
X148657809Y-38742191D01*
X148447765Y-38601843D01*
X148200000Y-38552560D01*
X147300000Y-38552560D01*
X147052235Y-38601843D01*
X147024127Y-38620625D01*
X144742202Y-36338700D01*
X145892598Y-36338700D01*
X146441299Y-36887401D01*
X146687861Y-37052148D01*
X146707364Y-37056027D01*
X146842191Y-37257809D01*
X147052235Y-37398157D01*
X147300000Y-37447440D01*
X148200000Y-37447440D01*
X148447765Y-37398157D01*
X148657809Y-37257809D01*
X148798157Y-37047765D01*
X148847440Y-36800000D01*
X148847440Y-35900000D01*
X148809647Y-35710000D01*
X151190353Y-35710000D01*
X151152560Y-35900000D01*
X151152560Y-35900000D01*
G37*
X151152560Y-35900000D02*
X151152560Y-36800000D01*
X151201843Y-37047765D01*
X151342191Y-37257809D01*
X151552235Y-37398157D01*
X151800000Y-37447440D01*
X152561438Y-37447440D01*
X154403998Y-39290000D01*
X154000000Y-39290000D01*
X153931416Y-39303642D01*
X153861486Y-39303642D01*
X153478804Y-39379762D01*
X153406632Y-39409657D01*
X153222862Y-39485777D01*
X153194567Y-39504683D01*
X153335000Y-39364250D01*
X153335000Y-39073690D01*
X153238327Y-38840301D01*
X153059698Y-38661673D01*
X152826309Y-38565000D01*
X152535750Y-38565000D01*
X152377000Y-38723750D01*
X152377000Y-39523000D01*
X152397000Y-39523000D01*
X152397000Y-39777000D01*
X152377000Y-39777000D01*
X152377000Y-40492690D01*
X152303642Y-40861486D01*
X152303642Y-40861487D01*
X152255074Y-41105655D01*
X152195225Y-41195226D01*
X152105655Y-41255074D01*
X151930070Y-41290000D01*
X140381473Y-41290000D01*
X140808668Y-41004558D01*
X141004558Y-40808668D01*
X141438103Y-40159822D01*
X141504303Y-40000000D01*
X141544117Y-39903881D01*
X141696357Y-39138515D01*
X141696357Y-38861485D01*
X141544117Y-38096119D01*
X141491110Y-37968149D01*
X141438103Y-37840178D01*
X141004558Y-37191332D01*
X140923226Y-37110000D01*
X143363898Y-37110000D01*
X146441299Y-40187401D01*
X146687861Y-40352148D01*
X146707364Y-40356027D01*
X146842191Y-40557809D01*
X147052235Y-40698157D01*
X147300000Y-40747440D01*
X148200000Y-40747440D01*
X148447765Y-40698157D01*
X148657809Y-40557809D01*
X148798157Y-40347765D01*
X148847440Y-40100000D01*
X148847440Y-39935750D01*
X151165000Y-39935750D01*
X151165000Y-40226310D01*
X151261673Y-40459699D01*
X151440302Y-40638327D01*
X151673691Y-40735000D01*
X151964250Y-40735000D01*
X152123000Y-40576250D01*
X152123000Y-39777000D01*
X151323750Y-39777000D01*
X151165000Y-39935750D01*
X148847440Y-39935750D01*
X148847440Y-39200000D01*
X148822316Y-39073690D01*
X151165000Y-39073690D01*
X151165000Y-39364250D01*
X151323750Y-39523000D01*
X152123000Y-39523000D01*
X152123000Y-38723750D01*
X151964250Y-38565000D01*
X151673691Y-38565000D01*
X151440302Y-38661673D01*
X151261673Y-38840301D01*
X151165000Y-39073690D01*
X148822316Y-39073690D01*
X148798157Y-38952235D01*
X148657809Y-38742191D01*
X148447765Y-38601843D01*
X148200000Y-38552560D01*
X147300000Y-38552560D01*
X147052235Y-38601843D01*
X147024127Y-38620625D01*
X144742202Y-36338700D01*
X145892598Y-36338700D01*
X146441299Y-36887401D01*
X146687861Y-37052148D01*
X146707364Y-37056027D01*
X146842191Y-37257809D01*
X147052235Y-37398157D01*
X147300000Y-37447440D01*
X148200000Y-37447440D01*
X148447765Y-37398157D01*
X148657809Y-37257809D01*
X148798157Y-37047765D01*
X148847440Y-36800000D01*
X148847440Y-35900000D01*
X148809647Y-35710000D01*
X151190353Y-35710000D01*
X151152560Y-35900000D01*
G36*
X122736452Y-37228139D02*
X122901199Y-37474701D01*
X123963899Y-38537401D01*
X124122998Y-38643707D01*
X124122998Y-38723748D01*
X123964250Y-38565000D01*
X123673691Y-38565000D01*
X123440302Y-38661673D01*
X123261673Y-38840301D01*
X123165000Y-39073690D01*
X123165000Y-39364250D01*
X123323750Y-39523000D01*
X124123000Y-39523000D01*
X124123000Y-39503000D01*
X124377000Y-39503000D01*
X124377000Y-39523000D01*
X124397000Y-39523000D01*
X124397000Y-39777000D01*
X124377000Y-39777000D01*
X124377000Y-40576250D01*
X124535750Y-40735000D01*
X124826309Y-40735000D01*
X125059698Y-40638327D01*
X125188116Y-40509909D01*
X125248690Y-40535000D01*
X125464250Y-40535000D01*
X125623000Y-40376250D01*
X125623000Y-39627000D01*
X125877000Y-39627000D01*
X125877000Y-40376250D01*
X126035750Y-40535000D01*
X126251310Y-40535000D01*
X126484699Y-40438327D01*
X126663327Y-40259698D01*
X126760000Y-40026309D01*
X126760000Y-39785750D01*
X126601250Y-39627000D01*
X125877000Y-39627000D01*
X125623000Y-39627000D01*
X125603000Y-39627000D01*
X125603000Y-39373000D01*
X125623000Y-39373000D01*
X125623000Y-39353000D01*
X125877000Y-39353000D01*
X125877000Y-39373000D01*
X126601250Y-39373000D01*
X126760000Y-39214250D01*
X126760000Y-38973691D01*
X126663327Y-38740302D01*
X126662127Y-38739102D01*
X126723157Y-38647765D01*
X126772440Y-38400000D01*
X126772440Y-37600000D01*
X126723157Y-37352235D01*
X126582809Y-37142191D01*
X126534632Y-37110000D01*
X131076774Y-37110000D01*
X130995442Y-37191332D01*
X130561897Y-37840179D01*
X130528437Y-37920959D01*
X130455883Y-38096119D01*
X130303642Y-38861486D01*
X130303643Y-39000000D01*
X130303642Y-39138514D01*
X130455883Y-39903881D01*
X130495697Y-40000000D01*
X130561897Y-40159821D01*
X130995442Y-40808668D01*
X131191332Y-41004558D01*
X131618526Y-41290000D01*
X120069930Y-41290000D01*
X119894345Y-41255074D01*
X119804774Y-41195225D01*
X119744926Y-41105655D01*
X119696358Y-40861487D01*
X119696358Y-40861486D01*
X119673673Y-40747440D01*
X120200000Y-40747440D01*
X120447765Y-40698157D01*
X120657809Y-40557809D01*
X120798157Y-40347765D01*
X120847440Y-40100000D01*
X120847440Y-39935750D01*
X123165000Y-39935750D01*
X123165000Y-40226310D01*
X123261673Y-40459699D01*
X123440302Y-40638327D01*
X123673691Y-40735000D01*
X123964250Y-40735000D01*
X124123000Y-40576250D01*
X124123000Y-39777000D01*
X123323750Y-39777000D01*
X123165000Y-39935750D01*
X120847440Y-39935750D01*
X120847440Y-39200000D01*
X120798157Y-38952235D01*
X120657809Y-38742191D01*
X120447765Y-38601843D01*
X120200000Y-38552560D01*
X119300000Y-38552560D01*
X119052235Y-38601843D01*
X118842191Y-38742191D01*
X118701843Y-38952235D01*
X118652560Y-39200000D01*
X118652560Y-39434175D01*
X118593368Y-39409657D01*
X118521196Y-39379762D01*
X118237225Y-39323277D01*
X119679202Y-37881300D01*
X119750000Y-37881300D01*
X120040839Y-37823448D01*
X120287401Y-37658701D01*
X120452148Y-37412139D01*
X120456027Y-37392636D01*
X120657809Y-37257809D01*
X120756573Y-37110000D01*
X122712952Y-37110000D01*
X122736452Y-37228139D01*
X122736452Y-37228139D01*
G37*
X122736452Y-37228139D02*
X122901199Y-37474701D01*
X123963899Y-38537401D01*
X124122998Y-38643707D01*
X124122998Y-38723748D01*
X123964250Y-38565000D01*
X123673691Y-38565000D01*
X123440302Y-38661673D01*
X123261673Y-38840301D01*
X123165000Y-39073690D01*
X123165000Y-39364250D01*
X123323750Y-39523000D01*
X124123000Y-39523000D01*
X124123000Y-39503000D01*
X124377000Y-39503000D01*
X124377000Y-39523000D01*
X124397000Y-39523000D01*
X124397000Y-39777000D01*
X124377000Y-39777000D01*
X124377000Y-40576250D01*
X124535750Y-40735000D01*
X124826309Y-40735000D01*
X125059698Y-40638327D01*
X125188116Y-40509909D01*
X125248690Y-40535000D01*
X125464250Y-40535000D01*
X125623000Y-40376250D01*
X125623000Y-39627000D01*
X125877000Y-39627000D01*
X125877000Y-40376250D01*
X126035750Y-40535000D01*
X126251310Y-40535000D01*
X126484699Y-40438327D01*
X126663327Y-40259698D01*
X126760000Y-40026309D01*
X126760000Y-39785750D01*
X126601250Y-39627000D01*
X125877000Y-39627000D01*
X125623000Y-39627000D01*
X125603000Y-39627000D01*
X125603000Y-39373000D01*
X125623000Y-39373000D01*
X125623000Y-39353000D01*
X125877000Y-39353000D01*
X125877000Y-39373000D01*
X126601250Y-39373000D01*
X126760000Y-39214250D01*
X126760000Y-38973691D01*
X126663327Y-38740302D01*
X126662127Y-38739102D01*
X126723157Y-38647765D01*
X126772440Y-38400000D01*
X126772440Y-37600000D01*
X126723157Y-37352235D01*
X126582809Y-37142191D01*
X126534632Y-37110000D01*
X131076774Y-37110000D01*
X130995442Y-37191332D01*
X130561897Y-37840179D01*
X130528437Y-37920959D01*
X130455883Y-38096119D01*
X130303642Y-38861486D01*
X130303643Y-39000000D01*
X130303642Y-39138514D01*
X130455883Y-39903881D01*
X130495697Y-40000000D01*
X130561897Y-40159821D01*
X130995442Y-40808668D01*
X131191332Y-41004558D01*
X131618526Y-41290000D01*
X120069930Y-41290000D01*
X119894345Y-41255074D01*
X119804774Y-41195225D01*
X119744926Y-41105655D01*
X119696358Y-40861487D01*
X119696358Y-40861486D01*
X119673673Y-40747440D01*
X120200000Y-40747440D01*
X120447765Y-40698157D01*
X120657809Y-40557809D01*
X120798157Y-40347765D01*
X120847440Y-40100000D01*
X120847440Y-39935750D01*
X123165000Y-39935750D01*
X123165000Y-40226310D01*
X123261673Y-40459699D01*
X123440302Y-40638327D01*
X123673691Y-40735000D01*
X123964250Y-40735000D01*
X124123000Y-40576250D01*
X124123000Y-39777000D01*
X123323750Y-39777000D01*
X123165000Y-39935750D01*
X120847440Y-39935750D01*
X120847440Y-39200000D01*
X120798157Y-38952235D01*
X120657809Y-38742191D01*
X120447765Y-38601843D01*
X120200000Y-38552560D01*
X119300000Y-38552560D01*
X119052235Y-38601843D01*
X118842191Y-38742191D01*
X118701843Y-38952235D01*
X118652560Y-39200000D01*
X118652560Y-39434175D01*
X118593368Y-39409657D01*
X118521196Y-39379762D01*
X118237225Y-39323277D01*
X119679202Y-37881300D01*
X119750000Y-37881300D01*
X120040839Y-37823448D01*
X120287401Y-37658701D01*
X120452148Y-37412139D01*
X120456027Y-37392636D01*
X120657809Y-37257809D01*
X120756573Y-37110000D01*
X122712952Y-37110000D01*
X122736452Y-37228139D01*
M02*
