G04 #@! TF.FileFunction,Copper,L1,Top,Signal*
%FSLAX46Y46*%
G04 Gerber Fmt 4.6, Leading zero omitted, Abs format (unit mm)*
G04 Created by KiCad (PCBNEW 4.0.6-e0-6349~53~ubuntu16.04.1) date Fri Jul 21 01:06:48 2017*
%MOMM*%
%LPD*%
G01*
G04 APERTURE LIST*
%ADD10C,0.100000*%
%ADD11R,0.900000X0.900000*%
%ADD12R,1.200000X2.000000*%
%ADD13R,2.000000X1.200000*%
%ADD14O,1.700000X1.700000*%
%ADD15R,1.700000X1.700000*%
%ADD16R,1.550000X1.300000*%
%ADD17R,0.900000X0.500000*%
%ADD18R,2.500000X4.000000*%
%ADD19R,5.000000X4.000000*%
%ADD20C,1.700000*%
%ADD21C,1.524000*%
%ADD22C,2.500000*%
%ADD23C,1.600000*%
%ADD24R,0.750000X0.800000*%
%ADD25R,0.800000X0.750000*%
%ADD26R,0.450000X0.600000*%
%ADD27C,0.800000*%
%ADD28C,0.250000*%
%ADD29C,0.254000*%
G04 APERTURE END LIST*
D10*
D11*
X116250000Y-107650000D03*
X111750000Y-107650000D03*
X116250000Y-104350000D03*
X111750000Y-104350000D03*
D12*
X138300000Y-104500000D03*
X136300000Y-104500000D03*
X134300000Y-104500000D03*
X132300000Y-104500000D03*
X130300000Y-104500000D03*
X128300000Y-104500000D03*
X126300000Y-104500000D03*
X124300000Y-104500000D03*
X138300000Y-88500000D03*
X136300000Y-88500000D03*
X134300000Y-88500000D03*
X132300000Y-88500000D03*
X130300000Y-88500000D03*
X128300000Y-88500000D03*
X126300000Y-88500000D03*
X124300000Y-88500000D03*
D13*
X122500000Y-91500000D03*
X122500000Y-93500000D03*
X122500000Y-95500000D03*
X122500000Y-101500000D03*
X122500000Y-99500000D03*
X122500000Y-97500000D03*
D14*
X104000000Y-75700000D03*
X104000000Y-73160000D03*
X104000000Y-70620000D03*
X104000000Y-68080000D03*
X104000000Y-65540000D03*
D15*
X104000000Y-63000000D03*
D16*
X147900000Y-127250000D03*
X155600000Y-127250000D03*
X155600000Y-131750000D03*
X147900000Y-131750000D03*
X151650000Y-112750000D03*
X159350000Y-112750000D03*
X159350000Y-117250000D03*
X151650000Y-117250000D03*
X141150000Y-146750000D03*
X148850000Y-146750000D03*
X148850000Y-151250000D03*
X141150000Y-151250000D03*
X123150000Y-146750000D03*
X130850000Y-146750000D03*
X130850000Y-151250000D03*
X123150000Y-151250000D03*
X130150000Y-120750000D03*
X137850000Y-120750000D03*
X137850000Y-125250000D03*
X130150000Y-125250000D03*
X120150000Y-129750000D03*
X127850000Y-129750000D03*
X127850000Y-134250000D03*
X120150000Y-134250000D03*
X110150000Y-120750000D03*
X117850000Y-120750000D03*
X117850000Y-125250000D03*
X110150000Y-125250000D03*
X120150000Y-111750000D03*
X127850000Y-111750000D03*
X127850000Y-116250000D03*
X120150000Y-116250000D03*
D17*
X146750000Y-111250000D03*
X146750000Y-112750000D03*
X145100000Y-112750000D03*
X145100000Y-111250000D03*
X143450000Y-112750000D03*
X143450000Y-111250000D03*
D18*
X158000000Y-99035000D03*
D19*
X158000000Y-86225000D03*
X158000000Y-63775000D03*
D18*
X158000000Y-50965000D03*
D20*
X134500000Y-71750000D03*
X136500000Y-71750000D03*
D21*
X138500000Y-71750000D03*
X139000000Y-55250000D03*
X134000000Y-55250000D03*
D22*
X136500000Y-55250000D03*
D23*
X135500000Y-73750000D03*
X137500000Y-73750000D03*
D18*
X114000000Y-51190000D03*
D19*
X114000000Y-64000000D03*
X114000000Y-86450000D03*
D18*
X114000000Y-99260000D03*
D24*
X127000000Y-83500000D03*
X127000000Y-82000000D03*
D25*
X119350000Y-105600000D03*
X117850000Y-105600000D03*
D24*
X128500000Y-37250000D03*
X128500000Y-38750000D03*
X153000000Y-109000000D03*
X153000000Y-110500000D03*
D26*
X130000000Y-113300000D03*
X130000000Y-111200000D03*
X132000000Y-113300000D03*
X132000000Y-111200000D03*
X134000000Y-113300000D03*
X134000000Y-111200000D03*
D11*
X155750000Y-104350000D03*
X160250000Y-104350000D03*
X155750000Y-107650000D03*
X160250000Y-107650000D03*
X147750000Y-36350000D03*
X152250000Y-36350000D03*
X147750000Y-39650000D03*
X152250000Y-39650000D03*
X124250000Y-39650000D03*
X119750000Y-39650000D03*
X124250000Y-36350000D03*
X119750000Y-36350000D03*
D26*
X136000000Y-113300000D03*
X136000000Y-111200000D03*
X138000000Y-111200000D03*
X138000000Y-113300000D03*
X140000000Y-111200000D03*
X140000000Y-113300000D03*
D14*
X168000000Y-73160000D03*
X168000000Y-70620000D03*
X168000000Y-68080000D03*
X168000000Y-65540000D03*
D15*
X168000000Y-63000000D03*
D17*
X131000000Y-83250000D03*
X131000000Y-81750000D03*
X124400000Y-108350000D03*
X124400000Y-106850000D03*
X148450000Y-111250000D03*
X148450000Y-112750000D03*
D27*
X114000000Y-51190000D03*
X114000000Y-64000000D03*
X158000000Y-99035000D03*
X158000000Y-86225000D03*
X130774440Y-35874960D03*
X162000000Y-64500000D03*
X121600000Y-108600000D03*
X117600000Y-107400000D03*
X129500000Y-37250000D03*
X123250000Y-87250000D03*
X141500000Y-79750000D03*
X144750000Y-75250000D03*
X158000000Y-63775000D03*
X158000000Y-50965000D03*
X151100000Y-72200000D03*
X151160000Y-67500000D03*
X116130000Y-57260000D03*
X113660000Y-105700000D03*
X125294398Y-92675021D03*
X120800000Y-104600000D03*
X154500000Y-108750000D03*
X154000000Y-57000000D03*
X150250000Y-38750000D03*
X127250000Y-39500000D03*
X157250000Y-104000000D03*
X107500000Y-76250000D03*
X142500000Y-76250000D03*
X125250000Y-101750000D03*
X123250000Y-105000000D03*
X126500000Y-80500000D03*
X136000000Y-151500000D03*
X114000000Y-86450000D03*
X114000000Y-99260000D03*
X126231000Y-106556000D03*
X130388600Y-109735000D03*
X136346000Y-102836000D03*
X132878000Y-106415000D03*
X149390200Y-114369200D03*
X146560900Y-113911900D03*
X132571900Y-107692500D03*
X132899100Y-124847300D03*
X150557600Y-126018700D03*
D28*
X158000000Y-86225000D02*
X158000000Y-84490000D01*
X158000000Y-84490000D02*
X158390000Y-84100000D01*
X114220000Y-66230000D02*
X114220000Y-64220000D01*
X117310000Y-69320000D02*
X114220000Y-66230000D01*
X143670000Y-69320000D02*
X117310000Y-69320000D01*
X158390000Y-84040000D02*
X143670000Y-69320000D01*
X158390000Y-84100000D02*
X158390000Y-84040000D01*
X114220000Y-64220000D02*
X114000000Y-64000000D01*
X158000000Y-86225000D02*
X158000000Y-83899700D01*
X143640420Y-69540120D02*
X117214820Y-69540120D01*
X158000000Y-83899700D02*
X143640420Y-69540120D01*
X117214820Y-69540120D02*
X114000000Y-66325300D01*
X114000000Y-66325300D02*
X114000000Y-64000000D01*
X156500000Y-97535000D02*
X158000000Y-99035000D01*
X156500000Y-88750000D02*
X156500000Y-97535000D01*
X158000000Y-87250000D02*
X156500000Y-88750000D01*
X158000000Y-86225000D02*
X158000000Y-87250000D01*
X114000000Y-64000000D02*
X114000000Y-51190000D01*
X158000000Y-86225000D02*
X158000000Y-99035000D01*
X113250000Y-63250000D02*
X114000000Y-64000000D01*
X113250000Y-53750000D02*
X113250000Y-63250000D01*
X114000000Y-53000000D02*
X113250000Y-53750000D01*
X114000000Y-51190000D02*
X114000000Y-53000000D01*
X159000000Y-85225000D02*
X158000000Y-86225000D01*
X114000000Y-64000000D02*
X114000000Y-64500000D01*
X146499960Y-35874960D02*
X131340125Y-35874960D01*
X147750000Y-36350000D02*
X146975000Y-36350000D01*
X131340125Y-35874960D02*
X130774440Y-35874960D01*
X130208755Y-35874960D02*
X130774440Y-35874960D01*
X146975000Y-36350000D02*
X146499960Y-35874960D01*
X129908495Y-35574700D02*
X130208755Y-35874960D01*
X121301000Y-35574700D02*
X129908495Y-35574700D01*
X168000000Y-70620000D02*
X168630000Y-70620000D01*
X168630000Y-70620000D02*
X170000000Y-69250000D01*
X166250000Y-60250000D02*
X162000000Y-64500000D01*
X169500000Y-60250000D02*
X166250000Y-60250000D01*
X170000000Y-60750000D02*
X169500000Y-60250000D01*
X170000000Y-69250000D02*
X170000000Y-60750000D01*
X116250000Y-107650000D02*
X116250000Y-106000000D01*
X134300000Y-92200000D02*
X134300000Y-88500000D01*
X128000000Y-98500000D02*
X134300000Y-92200000D01*
X120500000Y-98500000D02*
X128000000Y-98500000D01*
X115250000Y-103750000D02*
X120500000Y-98500000D01*
X115250000Y-105000000D02*
X115250000Y-103750000D01*
X116250000Y-106000000D02*
X115250000Y-105000000D01*
X116250000Y-107200000D02*
X117850000Y-105600000D01*
X129225000Y-87174700D02*
X129225001Y-89760001D01*
X129225001Y-89760001D02*
X129159702Y-89825300D01*
X129159702Y-89825300D02*
X127300000Y-89825300D01*
X124300000Y-88500000D02*
X124300000Y-88900000D01*
X125225300Y-89825300D02*
X127300000Y-89825300D01*
X124300000Y-88900000D02*
X125225300Y-89825300D01*
X104000000Y-63000000D02*
X102900000Y-63000000D01*
X103435999Y-66715001D02*
X104374003Y-66715001D01*
X104374003Y-66715001D02*
X121159002Y-83500000D01*
X102900000Y-63000000D02*
X102824999Y-63075001D01*
X102824999Y-63075001D02*
X102824999Y-66104001D01*
X102824999Y-66104001D02*
X103435999Y-66715001D01*
X126375000Y-83500000D02*
X127000000Y-83500000D01*
X121159002Y-83500000D02*
X126375000Y-83500000D01*
X149301000Y-40016000D02*
X158000000Y-48715000D01*
X149301000Y-38601000D02*
X149301000Y-40016000D01*
X147750000Y-37050000D02*
X149301000Y-38601000D01*
X158000000Y-48715000D02*
X158000000Y-50965000D01*
X147750000Y-36350000D02*
X147750000Y-37050000D01*
X123350000Y-106850000D02*
X121600000Y-108600000D01*
X124400000Y-106850000D02*
X123350000Y-106850000D01*
X153000000Y-110750000D02*
X152500000Y-111250000D01*
X153000000Y-110500000D02*
X153000000Y-110750000D01*
X124300000Y-88300000D02*
X123250000Y-87250000D01*
X124300000Y-88500000D02*
X124300000Y-88300000D01*
X144750000Y-76500000D02*
X144750000Y-75250000D01*
X141500000Y-79750000D02*
X144750000Y-76500000D01*
X158000000Y-50965000D02*
X158000000Y-63775000D01*
X120525000Y-36350000D02*
X121301000Y-35574700D01*
X119750000Y-36350000D02*
X120525000Y-36350000D01*
X104000000Y-61824700D02*
X104000000Y-63000000D01*
X111335000Y-54489300D02*
X104000000Y-61824700D01*
X111335000Y-45152200D02*
X111335000Y-54489300D01*
X119362000Y-37125300D02*
X111335000Y-45152200D01*
X119750000Y-37125300D02*
X119362000Y-37125300D01*
X119750000Y-36350000D02*
X119750000Y-37125300D01*
X131000000Y-75250000D02*
X134500000Y-71750000D01*
X131000000Y-81750000D02*
X131000000Y-75250000D01*
X127000000Y-83975300D02*
X127000000Y-83612600D01*
X127300000Y-84275300D02*
X127000000Y-83975300D01*
X127300000Y-89825300D02*
X127300000Y-84275300D01*
X134300000Y-87174700D02*
X134300000Y-88500000D01*
X129225000Y-87174700D02*
X134300000Y-87174700D01*
X129225000Y-84200700D02*
X129225000Y-87174700D01*
X129000000Y-83975300D02*
X129225000Y-84200700D01*
X129000000Y-83250000D02*
X129000000Y-83975300D01*
X129700000Y-83250000D02*
X129000000Y-83250000D01*
X129700000Y-82274400D02*
X129700000Y-83250000D01*
X130225000Y-81750000D02*
X129700000Y-82274400D01*
X131000000Y-81750000D02*
X130225000Y-81750000D01*
X168000000Y-71795300D02*
X168000000Y-70620000D01*
X167633000Y-71795300D02*
X168000000Y-71795300D01*
X163378000Y-76050200D02*
X167633000Y-71795300D01*
X163378000Y-103747000D02*
X163378000Y-76050200D01*
X160250000Y-106875000D02*
X163378000Y-103747000D01*
X160250000Y-107650000D02*
X160250000Y-106875000D01*
X128750000Y-37250000D02*
X128500000Y-37250000D01*
X122976000Y-37250000D02*
X121301000Y-35574700D01*
X128500000Y-37250000D02*
X122976000Y-37250000D01*
X128500000Y-37250000D02*
X128750000Y-37250000D01*
X128750000Y-37250000D02*
X129500000Y-37250000D01*
X117350000Y-107650000D02*
X116250000Y-107650000D01*
X117600000Y-107400000D02*
X117350000Y-107650000D01*
X116250000Y-107650000D02*
X116250000Y-107200000D01*
X146750000Y-111250000D02*
X148450000Y-111250000D01*
X155875000Y-111250000D02*
X152500000Y-111250000D01*
X159475000Y-107650000D02*
X155875000Y-111250000D01*
X160250000Y-107650000D02*
X159475000Y-107650000D01*
X152500000Y-111250000D02*
X148450000Y-111250000D01*
X145100000Y-111250000D02*
X146750000Y-111250000D01*
X127000000Y-83250000D02*
X127000000Y-83500000D01*
X127000000Y-83500000D02*
X127000000Y-83612600D01*
X145100000Y-111250000D02*
X143500000Y-111250000D01*
X143500000Y-111250000D02*
X143450000Y-111250000D01*
X151100000Y-67560000D02*
X151100000Y-72200000D01*
X151160000Y-67500000D02*
X151100000Y-67560000D01*
X124300000Y-104500000D02*
X124300000Y-105340000D01*
X124300000Y-105340000D02*
X123540000Y-106100000D01*
X123540000Y-106100000D02*
X122880000Y-106100000D01*
X111750000Y-104350000D02*
X112310000Y-104350000D01*
X112310000Y-104350000D02*
X113660000Y-105700000D01*
X114000000Y-99260000D02*
X114000000Y-102100000D01*
X114000000Y-102100000D02*
X111750000Y-104350000D01*
X111750000Y-104350000D02*
X111750000Y-104500000D01*
X111750000Y-104500000D02*
X107250000Y-109000000D01*
X111250000Y-139350000D02*
X123150000Y-151250000D01*
X111250000Y-133250000D02*
X111250000Y-139350000D01*
X107250000Y-129250000D02*
X111250000Y-133250000D01*
X107250000Y-109000000D02*
X107250000Y-129250000D01*
X136000000Y-151500000D02*
X133750000Y-151500000D01*
X124900000Y-153000000D02*
X123150000Y-151250000D01*
X132250000Y-153000000D02*
X124900000Y-153000000D01*
X133750000Y-151500000D02*
X132250000Y-153000000D01*
X127000000Y-81000000D02*
X127000000Y-81750000D01*
X126500000Y-80500000D02*
X127000000Y-81000000D01*
X119800000Y-105600000D02*
X120800000Y-104600000D01*
X119350000Y-105600000D02*
X119800000Y-105600000D01*
X154250000Y-109000000D02*
X154500000Y-108750000D01*
X153000000Y-109000000D02*
X154250000Y-109000000D01*
X151150000Y-39650000D02*
X150250000Y-38750000D01*
X152250000Y-39650000D02*
X151150000Y-39650000D01*
X127100000Y-39650000D02*
X124250000Y-39650000D01*
X127250000Y-39500000D02*
X127100000Y-39650000D01*
X156900000Y-104350000D02*
X155750000Y-104350000D01*
X157250000Y-104000000D02*
X156900000Y-104350000D01*
X140900000Y-151500000D02*
X141150000Y-151250000D01*
X136000000Y-151500000D02*
X140900000Y-151500000D01*
X106950000Y-75700000D02*
X107500000Y-76250000D01*
X104000000Y-75700000D02*
X106950000Y-75700000D01*
X123750000Y-104500000D02*
X123250000Y-105000000D01*
X124300000Y-104500000D02*
X123750000Y-104500000D01*
X135500000Y-72750000D02*
X136500000Y-71750000D01*
X135500000Y-73750000D02*
X135500000Y-72750000D01*
X123500000Y-104500000D02*
X124300000Y-104500000D01*
X111750000Y-104350000D02*
X111750000Y-104750000D01*
X122124700Y-113300000D02*
X120150000Y-115274700D01*
X130000000Y-113300000D02*
X122124700Y-113300000D01*
X120150000Y-116250000D02*
X120150000Y-115274700D01*
X132000000Y-111200000D02*
X134000000Y-111200000D01*
X126300000Y-106487000D02*
X126231000Y-106556000D01*
X126300000Y-104500000D02*
X126300000Y-106487000D01*
X145100000Y-112750000D02*
X145100000Y-113325300D01*
X134000000Y-111200000D02*
X136000000Y-111200000D01*
X142779800Y-113325300D02*
X145100000Y-113325300D01*
X141612500Y-112158000D02*
X142779800Y-113325300D01*
X141612500Y-111768700D02*
X141612500Y-112158000D01*
X140405000Y-110561200D02*
X141612500Y-111768700D01*
X136638800Y-110561200D02*
X140405000Y-110561200D01*
X136000000Y-111200000D02*
X136638800Y-110561200D01*
X132000000Y-111200000D02*
X131449700Y-111200000D01*
X130388600Y-109735000D02*
X130388600Y-110661800D01*
X130000000Y-111050400D02*
X130388600Y-110661800D01*
X130000000Y-111200000D02*
X130000000Y-111050400D01*
X130911500Y-110661800D02*
X131449700Y-111200000D01*
X130388600Y-110661800D02*
X130911500Y-110661800D01*
X134000000Y-119424700D02*
X120150000Y-133274700D01*
X134000000Y-113300000D02*
X134000000Y-119424700D01*
X120150000Y-134250000D02*
X120150000Y-133274700D01*
X112525000Y-107650000D02*
X113300001Y-108425001D01*
X113300001Y-108425001D02*
X118264999Y-108425001D01*
X118264999Y-108425001D02*
X124013000Y-102677000D01*
X136346000Y-102836000D02*
X136154000Y-103029000D01*
X136300000Y-103175000D02*
X136154000Y-103029000D01*
X136300000Y-104500000D02*
X136300000Y-103175000D01*
X112525000Y-107650000D02*
X111750000Y-107650000D01*
X135803000Y-102677000D02*
X124013000Y-102677000D01*
X136154000Y-103029000D02*
X135803000Y-102677000D01*
X139336000Y-107650000D02*
X155750000Y-107650000D01*
X137225000Y-105539000D02*
X139336000Y-107650000D01*
X137225000Y-102689000D02*
X137225000Y-105539000D01*
X135111000Y-100575000D02*
X137225000Y-102689000D01*
X120801000Y-100575000D02*
X135111000Y-100575000D01*
X117025000Y-104350000D02*
X120801000Y-100575000D01*
X116250000Y-104350000D02*
X117025000Y-104350000D01*
X153000000Y-36350000D02*
X153000000Y-36783500D01*
X153000000Y-36783500D02*
X153025000Y-36808500D01*
X152250000Y-36350000D02*
X153000000Y-36350000D01*
X153025000Y-36808500D02*
X153308500Y-36808500D01*
X153308500Y-36808500D02*
X159717000Y-43217000D01*
X159717000Y-43217000D02*
X159717000Y-43500000D01*
X160250000Y-103575000D02*
X160250000Y-104350000D01*
X160825000Y-102999000D02*
X160250000Y-103575000D01*
X160825000Y-48800300D02*
X160825000Y-102999000D01*
X159717000Y-47691800D02*
X160825000Y-48800300D01*
X159717000Y-43567500D02*
X159717000Y-47691800D01*
X124250000Y-36350000D02*
X130151918Y-36350000D01*
X147050000Y-39650000D02*
X147750000Y-39650000D01*
X131201402Y-36484600D02*
X143809000Y-36484600D01*
X131090041Y-36595961D02*
X131201402Y-36484600D01*
X130397879Y-36595961D02*
X131090041Y-36595961D01*
X146975000Y-39650000D02*
X147050000Y-39650000D01*
X130151918Y-36350000D02*
X130397879Y-36595961D01*
X143809000Y-36484600D02*
X146975000Y-39650000D01*
X110150000Y-120750000D02*
X110150000Y-121725300D01*
X130150000Y-120750000D02*
X129049700Y-120750000D01*
X140000000Y-111200000D02*
X138000000Y-111200000D01*
X119049600Y-135115400D02*
X123976900Y-140042700D01*
X119049600Y-133465300D02*
X119049600Y-135115400D01*
X129049700Y-123465200D02*
X119049600Y-133465300D01*
X129049700Y-120750000D02*
X129049700Y-123465200D01*
X112933300Y-124508600D02*
X110150000Y-121725300D01*
X112933300Y-138419000D02*
X112933300Y-124508600D01*
X122239700Y-147725400D02*
X112933300Y-138419000D01*
X124126900Y-147725400D02*
X122239700Y-147725400D01*
X124305400Y-147546900D02*
X124126900Y-147725400D01*
X124305400Y-140371200D02*
X124305400Y-147546900D01*
X123976900Y-140042700D02*
X124305400Y-140371200D01*
X135449600Y-128570000D02*
X123976900Y-140042700D01*
X135449600Y-112865300D02*
X135449600Y-128570000D01*
X137114900Y-111200000D02*
X135449600Y-112865300D01*
X137449700Y-111200000D02*
X137114900Y-111200000D01*
X138000000Y-111200000D02*
X137449700Y-111200000D01*
X151650000Y-114775100D02*
X151650000Y-117250000D01*
X149049500Y-112174600D02*
X151650000Y-114775100D01*
X146130200Y-112174600D02*
X149049500Y-112174600D01*
X145875400Y-112429400D02*
X146130200Y-112174600D01*
X145875400Y-113193800D02*
X145875400Y-112429400D01*
X145272800Y-113796400D02*
X145875400Y-113193800D01*
X141672200Y-113796400D02*
X145272800Y-113796400D01*
X140550400Y-112674600D02*
X141672200Y-113796400D01*
X139175700Y-112674600D02*
X140550400Y-112674600D01*
X138550300Y-113300000D02*
X139175700Y-112674600D01*
X138000000Y-113300000D02*
X138550300Y-113300000D01*
X147900000Y-131750000D02*
X147900000Y-131262000D01*
X140000000Y-123362000D02*
X140000000Y-113300000D01*
X147900000Y-131262000D02*
X140000000Y-123362000D01*
X108773589Y-73160000D02*
X105202081Y-73160000D01*
X122150011Y-83950011D02*
X119563600Y-83950011D01*
X126300000Y-88100000D02*
X122150011Y-83950011D01*
X105202081Y-73160000D02*
X104000000Y-73160000D01*
X126300000Y-88500000D02*
X126300000Y-88100000D01*
X119563600Y-83950011D02*
X108773589Y-73160000D01*
X104000000Y-70620000D02*
X102824999Y-71795001D01*
X102824999Y-71795001D02*
X102824999Y-73724001D01*
X102824999Y-73724001D02*
X103625997Y-74524999D01*
X123374999Y-89760001D02*
X124114998Y-90500000D01*
X103625997Y-74524999D02*
X108774999Y-74524999D01*
X108774999Y-74524999D02*
X123374999Y-89124999D01*
X123374999Y-89124999D02*
X123374999Y-89760001D01*
X130300000Y-89750000D02*
X130300000Y-88500000D01*
X124114998Y-90500000D02*
X129550000Y-90500000D01*
X129550000Y-90500000D02*
X130300000Y-89750000D01*
X104000000Y-68080000D02*
X102358000Y-69722000D01*
X102358000Y-69722000D02*
X102358000Y-75744500D01*
X102358000Y-75744500D02*
X104625000Y-78011600D01*
X111036000Y-78011600D02*
X121174999Y-88150599D01*
X121174999Y-88150599D02*
X121174999Y-92360001D01*
X132300000Y-89836410D02*
X132300000Y-89750000D01*
X104625000Y-78011600D02*
X111036000Y-78011600D01*
X121174999Y-92360001D02*
X121239999Y-92425001D01*
X121239999Y-92425001D02*
X124453608Y-92425001D01*
X124453608Y-92425001D02*
X125128609Y-91750000D01*
X125128609Y-91750000D02*
X130386410Y-91750000D01*
X130386410Y-91750000D02*
X132300000Y-89836410D01*
X132300000Y-89750000D02*
X132300000Y-88500000D01*
X136300000Y-77151800D02*
X136300000Y-88500000D01*
X139610000Y-73841400D02*
X136300000Y-77151800D01*
X139610000Y-71322300D02*
X139610000Y-73841400D01*
X138360000Y-70072300D02*
X139610000Y-71322300D01*
X109708000Y-70072300D02*
X138360000Y-70072300D01*
X105175000Y-65540000D02*
X109708000Y-70072300D01*
X104000000Y-65540000D02*
X105175000Y-65540000D01*
X132288000Y-105825000D02*
X132878000Y-106415000D01*
X130300000Y-105825000D02*
X132288000Y-105825000D01*
X130300000Y-104500000D02*
X130300000Y-105825000D01*
X148450000Y-113429000D02*
X148450000Y-112750000D01*
X149390200Y-114369200D02*
X148450000Y-113429000D01*
X141150000Y-146750000D02*
X141150000Y-145774700D01*
X149390200Y-137534500D02*
X149390200Y-114369200D01*
X141150000Y-145774700D02*
X149390200Y-137534500D01*
X138300000Y-105825000D02*
X138300000Y-104500000D01*
X138803000Y-106328000D02*
X138300000Y-105825000D01*
X159690000Y-106328000D02*
X138803000Y-106328000D01*
X161936000Y-104083000D02*
X159690000Y-106328000D01*
X161936000Y-74952500D02*
X161936000Y-104083000D01*
X167633000Y-69255300D02*
X161936000Y-74952500D01*
X168000000Y-69255300D02*
X167633000Y-69255300D01*
X168000000Y-68080000D02*
X168000000Y-69255300D01*
X135614998Y-90000000D02*
X138125300Y-90000000D01*
X138125300Y-90000000D02*
X138300000Y-89825300D01*
X135375000Y-86849300D02*
X135374999Y-89760001D01*
X135374999Y-89760001D02*
X135614998Y-90000000D01*
X138300000Y-89825300D02*
X138300000Y-88500000D01*
X131775000Y-83250000D02*
X135375000Y-86849300D01*
X131000000Y-83250000D02*
X131775000Y-83250000D01*
X137324000Y-70574200D02*
X138500000Y-71750000D01*
X133991000Y-70574200D02*
X137324000Y-70574200D01*
X128300000Y-76265300D02*
X133991000Y-70574200D01*
X128300000Y-88500000D02*
X128300000Y-76265300D01*
X123118700Y-111750000D02*
X120150000Y-111750000D01*
X127176200Y-107692500D02*
X123118700Y-111750000D01*
X132571900Y-107692500D02*
X127176200Y-107692500D01*
X132648300Y-107692500D02*
X132571900Y-107692500D01*
X134300000Y-106040800D02*
X132648300Y-107692500D01*
X134300000Y-104500000D02*
X134300000Y-106040800D01*
X146750000Y-113722800D02*
X146560900Y-113911900D01*
X146750000Y-112750000D02*
X146750000Y-113722800D01*
X143450000Y-112750000D02*
X143450000Y-112614000D01*
X132300000Y-104675000D02*
X132300000Y-104500000D01*
X132300000Y-104500000D02*
X132300000Y-103287300D01*
X136907400Y-106071400D02*
X143450000Y-112614000D01*
X135300000Y-106071400D02*
X136907400Y-106071400D01*
X135300000Y-103439000D02*
X135300000Y-106071400D01*
X135035700Y-103174700D02*
X135300000Y-103439000D01*
X132412600Y-103174700D02*
X135035700Y-103174700D01*
X132300000Y-103287300D02*
X132412600Y-103174700D01*
X117850000Y-116645700D02*
X117850000Y-120750000D01*
X121770300Y-112725400D02*
X117850000Y-116645700D01*
X123083500Y-112725400D02*
X121770300Y-112725400D01*
X127086200Y-108722700D02*
X123083500Y-112725400D01*
X132648700Y-108722700D02*
X127086200Y-108722700D01*
X135300000Y-106071400D02*
X132648700Y-108722700D01*
X123150000Y-146750000D02*
X123150000Y-146262000D01*
X124435100Y-108350000D02*
X124400000Y-108350000D01*
X125775000Y-108350000D02*
X124435100Y-108350000D01*
X128300000Y-105825000D02*
X125775000Y-108350000D01*
X128300000Y-104500000D02*
X128300000Y-105825000D01*
X116749600Y-139861600D02*
X123150000Y-146262000D01*
X116749600Y-113237900D02*
X116749600Y-139861600D01*
X120008400Y-109979100D02*
X116749600Y-113237900D01*
X122806000Y-109979100D02*
X120008400Y-109979100D01*
X124435100Y-108350000D02*
X122806000Y-109979100D01*
X127322900Y-114801800D02*
X117850000Y-124274700D01*
X129947900Y-114801800D02*
X127322900Y-114801800D01*
X131449700Y-113300000D02*
X129947900Y-114801800D01*
X132000000Y-113300000D02*
X131449700Y-113300000D01*
X117850000Y-125250000D02*
X117850000Y-124274700D01*
X136000000Y-122424700D02*
X137850000Y-124274700D01*
X136000000Y-113300000D02*
X136000000Y-122424700D01*
X137850000Y-125250000D02*
X137850000Y-124274700D01*
X159350000Y-112750000D02*
X159350000Y-113725300D01*
X127850000Y-129750000D02*
X127850000Y-128774700D01*
X155344000Y-126018700D02*
X155600000Y-126274700D01*
X150557600Y-126018700D02*
X155344000Y-126018700D01*
X155600000Y-127250000D02*
X155600000Y-126274700D01*
X155600000Y-117475300D02*
X155600000Y-126274700D01*
X159350000Y-113725300D02*
X155600000Y-117475300D01*
X128971700Y-128774700D02*
X127850000Y-128774700D01*
X132899100Y-124847300D02*
X128971700Y-128774700D01*
X127850000Y-111750000D02*
X127850000Y-111375000D01*
X134553800Y-123192600D02*
X132899100Y-124847300D01*
X134553800Y-112838800D02*
X134553800Y-123192600D01*
X133540400Y-111825400D02*
X134553800Y-112838800D01*
X129025700Y-111825400D02*
X133540400Y-111825400D01*
X128950300Y-111750000D02*
X129025700Y-111825400D01*
X127850000Y-111750000D02*
X128950300Y-111750000D01*
X127850000Y-116250000D02*
X127850000Y-115762000D01*
X127850000Y-134250000D02*
X127850000Y-133762000D01*
D29*
G36*
X170290000Y-90949543D02*
X164297136Y-132899591D01*
X164299897Y-132950245D01*
X164290000Y-133000000D01*
X164290000Y-144930069D01*
X163569989Y-148549807D01*
X161559187Y-151559186D01*
X158549805Y-153569990D01*
X154930069Y-154290000D01*
X117069931Y-154290000D01*
X113450193Y-153569989D01*
X110440814Y-151559187D01*
X110425154Y-151535750D01*
X121740000Y-151535750D01*
X121740000Y-152026310D01*
X121836673Y-152259699D01*
X122015302Y-152438327D01*
X122248691Y-152535000D01*
X122864250Y-152535000D01*
X123023000Y-152376250D01*
X123023000Y-151377000D01*
X123277000Y-151377000D01*
X123277000Y-152376250D01*
X123435750Y-152535000D01*
X124051309Y-152535000D01*
X124284698Y-152438327D01*
X124463327Y-152259699D01*
X124560000Y-152026310D01*
X124560000Y-151535750D01*
X124401250Y-151377000D01*
X123277000Y-151377000D01*
X123023000Y-151377000D01*
X121898750Y-151377000D01*
X121740000Y-151535750D01*
X110425154Y-151535750D01*
X109715509Y-150473690D01*
X121740000Y-150473690D01*
X121740000Y-150964250D01*
X121898750Y-151123000D01*
X123023000Y-151123000D01*
X123023000Y-150123750D01*
X123277000Y-150123750D01*
X123277000Y-151123000D01*
X124401250Y-151123000D01*
X124560000Y-150964250D01*
X124560000Y-150600000D01*
X129427560Y-150600000D01*
X129427560Y-151900000D01*
X129471838Y-152135317D01*
X129610910Y-152351441D01*
X129823110Y-152496431D01*
X130075000Y-152547440D01*
X131625000Y-152547440D01*
X131860317Y-152503162D01*
X132076441Y-152364090D01*
X132221431Y-152151890D01*
X132272440Y-151900000D01*
X132272440Y-151535750D01*
X139740000Y-151535750D01*
X139740000Y-152026310D01*
X139836673Y-152259699D01*
X140015302Y-152438327D01*
X140248691Y-152535000D01*
X140864250Y-152535000D01*
X141023000Y-152376250D01*
X141023000Y-151377000D01*
X141277000Y-151377000D01*
X141277000Y-152376250D01*
X141435750Y-152535000D01*
X142051309Y-152535000D01*
X142284698Y-152438327D01*
X142463327Y-152259699D01*
X142560000Y-152026310D01*
X142560000Y-151535750D01*
X142401250Y-151377000D01*
X141277000Y-151377000D01*
X141023000Y-151377000D01*
X139898750Y-151377000D01*
X139740000Y-151535750D01*
X132272440Y-151535750D01*
X132272440Y-150600000D01*
X132248674Y-150473690D01*
X139740000Y-150473690D01*
X139740000Y-150964250D01*
X139898750Y-151123000D01*
X141023000Y-151123000D01*
X141023000Y-150123750D01*
X141277000Y-150123750D01*
X141277000Y-151123000D01*
X142401250Y-151123000D01*
X142560000Y-150964250D01*
X142560000Y-150600000D01*
X147427560Y-150600000D01*
X147427560Y-151900000D01*
X147471838Y-152135317D01*
X147610910Y-152351441D01*
X147823110Y-152496431D01*
X148075000Y-152547440D01*
X149625000Y-152547440D01*
X149860317Y-152503162D01*
X150076441Y-152364090D01*
X150221431Y-152151890D01*
X150272440Y-151900000D01*
X150272440Y-150600000D01*
X150228162Y-150364683D01*
X150089090Y-150148559D01*
X149876890Y-150003569D01*
X149625000Y-149952560D01*
X148075000Y-149952560D01*
X147839683Y-149996838D01*
X147623559Y-150135910D01*
X147478569Y-150348110D01*
X147427560Y-150600000D01*
X142560000Y-150600000D01*
X142560000Y-150473690D01*
X142463327Y-150240301D01*
X142284698Y-150061673D01*
X142051309Y-149965000D01*
X141435750Y-149965000D01*
X141277000Y-150123750D01*
X141023000Y-150123750D01*
X140864250Y-149965000D01*
X140248691Y-149965000D01*
X140015302Y-150061673D01*
X139836673Y-150240301D01*
X139740000Y-150473690D01*
X132248674Y-150473690D01*
X132228162Y-150364683D01*
X132089090Y-150148559D01*
X131876890Y-150003569D01*
X131625000Y-149952560D01*
X130075000Y-149952560D01*
X129839683Y-149996838D01*
X129623559Y-150135910D01*
X129478569Y-150348110D01*
X129427560Y-150600000D01*
X124560000Y-150600000D01*
X124560000Y-150473690D01*
X124463327Y-150240301D01*
X124284698Y-150061673D01*
X124051309Y-149965000D01*
X123435750Y-149965000D01*
X123277000Y-150123750D01*
X123023000Y-150123750D01*
X122864250Y-149965000D01*
X122248691Y-149965000D01*
X122015302Y-150061673D01*
X121836673Y-150240301D01*
X121740000Y-150473690D01*
X109715509Y-150473690D01*
X108430010Y-148549805D01*
X107710000Y-144930069D01*
X107710000Y-133000000D01*
X107700103Y-132950245D01*
X107702864Y-132899591D01*
X106517209Y-124600000D01*
X108727560Y-124600000D01*
X108727560Y-125900000D01*
X108771838Y-126135317D01*
X108910910Y-126351441D01*
X109123110Y-126496431D01*
X109375000Y-126547440D01*
X110925000Y-126547440D01*
X111160317Y-126503162D01*
X111376441Y-126364090D01*
X111521431Y-126151890D01*
X111572440Y-125900000D01*
X111572440Y-124600000D01*
X111528162Y-124364683D01*
X111389090Y-124148559D01*
X111176890Y-124003569D01*
X110925000Y-123952560D01*
X109375000Y-123952560D01*
X109139683Y-123996838D01*
X108923559Y-124135910D01*
X108778569Y-124348110D01*
X108727560Y-124600000D01*
X106517209Y-124600000D01*
X103665173Y-104635750D01*
X110665000Y-104635750D01*
X110665000Y-104926310D01*
X110761673Y-105159699D01*
X110940302Y-105338327D01*
X111173691Y-105435000D01*
X111464250Y-105435000D01*
X111623000Y-105276250D01*
X111623000Y-104477000D01*
X111877000Y-104477000D01*
X111877000Y-105276250D01*
X112035750Y-105435000D01*
X112326309Y-105435000D01*
X112559698Y-105338327D01*
X112738327Y-105159699D01*
X112835000Y-104926310D01*
X112835000Y-104635750D01*
X112676250Y-104477000D01*
X111877000Y-104477000D01*
X111623000Y-104477000D01*
X110823750Y-104477000D01*
X110665000Y-104635750D01*
X103665173Y-104635750D01*
X103542022Y-103773690D01*
X110665000Y-103773690D01*
X110665000Y-104064250D01*
X110823750Y-104223000D01*
X111623000Y-104223000D01*
X111623000Y-103423750D01*
X111877000Y-103423750D01*
X111877000Y-104223000D01*
X112676250Y-104223000D01*
X112835000Y-104064250D01*
X112835000Y-103773690D01*
X112738327Y-103540301D01*
X112559698Y-103361673D01*
X112326309Y-103265000D01*
X112035750Y-103265000D01*
X111877000Y-103423750D01*
X111623000Y-103423750D01*
X111464250Y-103265000D01*
X111173691Y-103265000D01*
X110940302Y-103361673D01*
X110761673Y-103540301D01*
X110665000Y-103773690D01*
X103542022Y-103773690D01*
X102938031Y-99545750D01*
X112115000Y-99545750D01*
X112115000Y-101386310D01*
X112211673Y-101619699D01*
X112390302Y-101798327D01*
X112623691Y-101895000D01*
X113714250Y-101895000D01*
X113873000Y-101736250D01*
X113873000Y-99387000D01*
X114127000Y-99387000D01*
X114127000Y-101736250D01*
X114285750Y-101895000D01*
X115376309Y-101895000D01*
X115609698Y-101798327D01*
X115788327Y-101619699D01*
X115885000Y-101386310D01*
X115885000Y-99545750D01*
X115726250Y-99387000D01*
X114127000Y-99387000D01*
X113873000Y-99387000D01*
X112273750Y-99387000D01*
X112115000Y-99545750D01*
X102938031Y-99545750D01*
X102593451Y-97133690D01*
X112115000Y-97133690D01*
X112115000Y-98974250D01*
X112273750Y-99133000D01*
X113873000Y-99133000D01*
X113873000Y-96783750D01*
X114127000Y-96783750D01*
X114127000Y-99133000D01*
X115726250Y-99133000D01*
X115885000Y-98974250D01*
X115885000Y-97133690D01*
X115788327Y-96900301D01*
X115609698Y-96721673D01*
X115376309Y-96625000D01*
X114285750Y-96625000D01*
X114127000Y-96783750D01*
X113873000Y-96783750D01*
X113714250Y-96625000D01*
X112623691Y-96625000D01*
X112390302Y-96721673D01*
X112211673Y-96900301D01*
X112115000Y-97133690D01*
X102593451Y-97133690D01*
X101710000Y-90949543D01*
X101710000Y-76116377D01*
X101738636Y-76159234D01*
X101820587Y-76281889D01*
X103845442Y-78306833D01*
X103478804Y-78379762D01*
X103406632Y-78409657D01*
X103222862Y-78485777D01*
X102898438Y-78702549D01*
X102739501Y-78861487D01*
X102702549Y-78898439D01*
X102485776Y-79222862D01*
X102435581Y-79344046D01*
X102379762Y-79478804D01*
X102303642Y-79861487D01*
X102303642Y-79931416D01*
X102290000Y-80000000D01*
X102290000Y-94000000D01*
X102303642Y-94068584D01*
X102303642Y-94138513D01*
X102379762Y-94521196D01*
X102399395Y-94568593D01*
X102485776Y-94777138D01*
X102702549Y-95101561D01*
X102702550Y-95101562D01*
X102898438Y-95297451D01*
X103222862Y-95514223D01*
X103328877Y-95558136D01*
X103478804Y-95620238D01*
X103861486Y-95696358D01*
X104138513Y-95696358D01*
X104521196Y-95620238D01*
X104596160Y-95589187D01*
X104777138Y-95514224D01*
X105101561Y-95297451D01*
X105101562Y-95297450D01*
X105297451Y-95101562D01*
X105514223Y-94777138D01*
X105567668Y-94648110D01*
X105620238Y-94521196D01*
X105696358Y-94138514D01*
X105696358Y-94068584D01*
X105710000Y-94000000D01*
X105710000Y-86735750D01*
X110865000Y-86735750D01*
X110865000Y-88576310D01*
X110961673Y-88809699D01*
X111140302Y-88988327D01*
X111373691Y-89085000D01*
X113714250Y-89085000D01*
X113873000Y-88926250D01*
X113873000Y-86577000D01*
X114127000Y-86577000D01*
X114127000Y-88926250D01*
X114285750Y-89085000D01*
X116626309Y-89085000D01*
X116859698Y-88988327D01*
X117038327Y-88809699D01*
X117135000Y-88576310D01*
X117135000Y-86735750D01*
X116976250Y-86577000D01*
X114127000Y-86577000D01*
X113873000Y-86577000D01*
X111023750Y-86577000D01*
X110865000Y-86735750D01*
X105710000Y-86735750D01*
X105710000Y-84323690D01*
X110865000Y-84323690D01*
X110865000Y-86164250D01*
X111023750Y-86323000D01*
X113873000Y-86323000D01*
X113873000Y-83973750D01*
X113714250Y-83815000D01*
X111373691Y-83815000D01*
X111140302Y-83911673D01*
X110961673Y-84090301D01*
X110865000Y-84323690D01*
X105710000Y-84323690D01*
X105710000Y-80000000D01*
X105696358Y-79931416D01*
X105696358Y-79861486D01*
X105620238Y-79478804D01*
X105514223Y-79222863D01*
X105514223Y-79222862D01*
X105297451Y-78898438D01*
X105170612Y-78771600D01*
X110721198Y-78771600D01*
X115764598Y-83815000D01*
X114285750Y-83815000D01*
X114127000Y-83973750D01*
X114127000Y-86323000D01*
X116976250Y-86323000D01*
X117135000Y-86164250D01*
X117135000Y-85185402D01*
X120414999Y-88465401D01*
X120414999Y-92360001D01*
X120472851Y-92650840D01*
X120637598Y-92897402D01*
X120702598Y-92962402D01*
X120852560Y-93062603D01*
X120852560Y-94100000D01*
X120896838Y-94335317D01*
X121003759Y-94501477D01*
X120903569Y-94648110D01*
X120852560Y-94900000D01*
X120852560Y-96100000D01*
X120896838Y-96335317D01*
X121003759Y-96501477D01*
X120903569Y-96648110D01*
X120852560Y-96900000D01*
X120852560Y-97740000D01*
X120500000Y-97740000D01*
X120209160Y-97797852D01*
X119962599Y-97962599D01*
X114712599Y-103212599D01*
X114547852Y-103459161D01*
X114490000Y-103750000D01*
X114490000Y-105000000D01*
X114547852Y-105290839D01*
X114712599Y-105537401D01*
X115490000Y-106314802D01*
X115490000Y-106644895D01*
X115348559Y-106735910D01*
X115203569Y-106948110D01*
X115152560Y-107200000D01*
X115152560Y-107665001D01*
X113614803Y-107665001D01*
X113062401Y-107112599D01*
X112815839Y-106947852D01*
X112788881Y-106942490D01*
X112664090Y-106748559D01*
X112451890Y-106603569D01*
X112200000Y-106552560D01*
X111300000Y-106552560D01*
X111064683Y-106596838D01*
X110848559Y-106735910D01*
X110703569Y-106948110D01*
X110652560Y-107200000D01*
X110652560Y-108100000D01*
X110696838Y-108335317D01*
X110835910Y-108551441D01*
X111048110Y-108696431D01*
X111300000Y-108747440D01*
X112200000Y-108747440D01*
X112435317Y-108703162D01*
X112476719Y-108676521D01*
X112762600Y-108962402D01*
X113009162Y-109127149D01*
X113300001Y-109185001D01*
X118264999Y-109185001D01*
X118555838Y-109127149D01*
X118802400Y-108962402D01*
X123137800Y-104627002D01*
X123223748Y-104627002D01*
X123065000Y-104785750D01*
X123065000Y-105626309D01*
X123161673Y-105859698D01*
X123340301Y-106038327D01*
X123465051Y-106090000D01*
X123350000Y-106090000D01*
X123059161Y-106147852D01*
X122812599Y-106312599D01*
X121560233Y-107564965D01*
X121395029Y-107564821D01*
X121014485Y-107722058D01*
X120723081Y-108012954D01*
X120565180Y-108393223D01*
X120564821Y-108804971D01*
X120722058Y-109185515D01*
X120755584Y-109219100D01*
X120008400Y-109219100D01*
X119717561Y-109276952D01*
X119470999Y-109441699D01*
X116212199Y-112700499D01*
X116047452Y-112947061D01*
X115989600Y-113237900D01*
X115989600Y-139861600D01*
X116047452Y-140152439D01*
X116212199Y-140399001D01*
X121758822Y-145945624D01*
X121727560Y-146100000D01*
X121727560Y-146138458D01*
X113693300Y-138104198D01*
X113693300Y-124508600D01*
X113635448Y-124217761D01*
X113470701Y-123971199D01*
X111368623Y-121869121D01*
X111376441Y-121864090D01*
X111521431Y-121651890D01*
X111572440Y-121400000D01*
X111572440Y-120100000D01*
X111528162Y-119864683D01*
X111389090Y-119648559D01*
X111176890Y-119503569D01*
X110925000Y-119452560D01*
X109375000Y-119452560D01*
X109139683Y-119496838D01*
X108923559Y-119635910D01*
X108778569Y-119848110D01*
X108727560Y-120100000D01*
X108727560Y-121400000D01*
X108771838Y-121635317D01*
X108910910Y-121851441D01*
X109123110Y-121996431D01*
X109375000Y-122047440D01*
X109468767Y-122047440D01*
X109612599Y-122262701D01*
X112173300Y-124823402D01*
X112173300Y-138419000D01*
X112231152Y-138709839D01*
X112395899Y-138956401D01*
X121702299Y-148262801D01*
X121948861Y-148427548D01*
X122239700Y-148485400D01*
X124126900Y-148485400D01*
X124417739Y-148427548D01*
X124664301Y-148262801D01*
X124842801Y-148084301D01*
X125007548Y-147837739D01*
X125065400Y-147546900D01*
X125065400Y-146100000D01*
X129427560Y-146100000D01*
X129427560Y-147400000D01*
X129471838Y-147635317D01*
X129610910Y-147851441D01*
X129823110Y-147996431D01*
X130075000Y-148047440D01*
X131625000Y-148047440D01*
X131860317Y-148003162D01*
X132076441Y-147864090D01*
X132221431Y-147651890D01*
X132272440Y-147400000D01*
X132272440Y-146100000D01*
X132228162Y-145864683D01*
X132089090Y-145648559D01*
X131876890Y-145503569D01*
X131625000Y-145452560D01*
X130075000Y-145452560D01*
X129839683Y-145496838D01*
X129623559Y-145635910D01*
X129478569Y-145848110D01*
X129427560Y-146100000D01*
X125065400Y-146100000D01*
X125065400Y-140371200D01*
X125008625Y-140085777D01*
X135987001Y-129107401D01*
X136151748Y-128860839D01*
X136209600Y-128570000D01*
X136209600Y-123709102D01*
X136631377Y-124130879D01*
X136623559Y-124135910D01*
X136478569Y-124348110D01*
X136427560Y-124600000D01*
X136427560Y-125900000D01*
X136471838Y-126135317D01*
X136610910Y-126351441D01*
X136823110Y-126496431D01*
X137075000Y-126547440D01*
X138625000Y-126547440D01*
X138860317Y-126503162D01*
X139076441Y-126364090D01*
X139221431Y-126151890D01*
X139272440Y-125900000D01*
X139272440Y-124600000D01*
X139228162Y-124364683D01*
X139089090Y-124148559D01*
X138876890Y-124003569D01*
X138625000Y-123952560D01*
X138531233Y-123952560D01*
X138387401Y-123737299D01*
X136760000Y-122109898D01*
X136760000Y-121953310D01*
X136823110Y-121996431D01*
X137075000Y-122047440D01*
X138625000Y-122047440D01*
X138860317Y-122003162D01*
X139076441Y-121864090D01*
X139221431Y-121651890D01*
X139240000Y-121560194D01*
X139240000Y-123362000D01*
X139297852Y-123652839D01*
X139462599Y-123899401D01*
X146508822Y-130945624D01*
X146477560Y-131100000D01*
X146477560Y-132400000D01*
X146521838Y-132635317D01*
X146660910Y-132851441D01*
X146873110Y-132996431D01*
X147125000Y-133047440D01*
X148630200Y-133047440D01*
X148630200Y-137219698D01*
X140612599Y-145237299D01*
X140468767Y-145452560D01*
X140375000Y-145452560D01*
X140139683Y-145496838D01*
X139923559Y-145635910D01*
X139778569Y-145848110D01*
X139727560Y-146100000D01*
X139727560Y-147400000D01*
X139771838Y-147635317D01*
X139910910Y-147851441D01*
X140123110Y-147996431D01*
X140375000Y-148047440D01*
X141925000Y-148047440D01*
X142160317Y-148003162D01*
X142376441Y-147864090D01*
X142521431Y-147651890D01*
X142572440Y-147400000D01*
X142572440Y-146100000D01*
X147427560Y-146100000D01*
X147427560Y-147400000D01*
X147471838Y-147635317D01*
X147610910Y-147851441D01*
X147823110Y-147996431D01*
X148075000Y-148047440D01*
X149625000Y-148047440D01*
X149860317Y-148003162D01*
X150076441Y-147864090D01*
X150221431Y-147651890D01*
X150272440Y-147400000D01*
X150272440Y-146100000D01*
X150228162Y-145864683D01*
X150089090Y-145648559D01*
X149876890Y-145503569D01*
X149625000Y-145452560D01*
X148075000Y-145452560D01*
X147839683Y-145496838D01*
X147623559Y-145635910D01*
X147478569Y-145848110D01*
X147427560Y-146100000D01*
X142572440Y-146100000D01*
X142528162Y-145864683D01*
X142389090Y-145648559D01*
X142366428Y-145633074D01*
X149927601Y-138071901D01*
X150092348Y-137825339D01*
X150150200Y-137534500D01*
X150150200Y-131100000D01*
X154177560Y-131100000D01*
X154177560Y-132400000D01*
X154221838Y-132635317D01*
X154360910Y-132851441D01*
X154573110Y-132996431D01*
X154825000Y-133047440D01*
X156375000Y-133047440D01*
X156610317Y-133003162D01*
X156826441Y-132864090D01*
X156971431Y-132651890D01*
X157022440Y-132400000D01*
X157022440Y-131100000D01*
X156978162Y-130864683D01*
X156839090Y-130648559D01*
X156626890Y-130503569D01*
X156375000Y-130452560D01*
X154825000Y-130452560D01*
X154589683Y-130496838D01*
X154373559Y-130635910D01*
X154228569Y-130848110D01*
X154177560Y-131100000D01*
X150150200Y-131100000D01*
X150150200Y-126970214D01*
X150350823Y-127053520D01*
X150762571Y-127053879D01*
X151143115Y-126896642D01*
X151261263Y-126778700D01*
X154177560Y-126778700D01*
X154177560Y-127900000D01*
X154221838Y-128135317D01*
X154360910Y-128351441D01*
X154573110Y-128496431D01*
X154825000Y-128547440D01*
X156375000Y-128547440D01*
X156610317Y-128503162D01*
X156826441Y-128364090D01*
X156971431Y-128151890D01*
X157022440Y-127900000D01*
X157022440Y-126600000D01*
X156978162Y-126364683D01*
X156839090Y-126148559D01*
X156626890Y-126003569D01*
X156375000Y-125952560D01*
X156360000Y-125952560D01*
X156360000Y-117790102D01*
X157550102Y-116600000D01*
X157927560Y-116600000D01*
X157927560Y-117900000D01*
X157971838Y-118135317D01*
X158110910Y-118351441D01*
X158323110Y-118496431D01*
X158575000Y-118547440D01*
X160125000Y-118547440D01*
X160360317Y-118503162D01*
X160576441Y-118364090D01*
X160721431Y-118151890D01*
X160772440Y-117900000D01*
X160772440Y-116600000D01*
X160728162Y-116364683D01*
X160589090Y-116148559D01*
X160376890Y-116003569D01*
X160125000Y-115952560D01*
X158575000Y-115952560D01*
X158339683Y-115996838D01*
X158123559Y-116135910D01*
X157978569Y-116348110D01*
X157927560Y-116600000D01*
X157550102Y-116600000D01*
X159887401Y-114262701D01*
X160031233Y-114047440D01*
X160125000Y-114047440D01*
X160360317Y-114003162D01*
X160576441Y-113864090D01*
X160721431Y-113651890D01*
X160772440Y-113400000D01*
X160772440Y-112100000D01*
X160728162Y-111864683D01*
X160589090Y-111648559D01*
X160376890Y-111503569D01*
X160125000Y-111452560D01*
X158575000Y-111452560D01*
X158339683Y-111496838D01*
X158123559Y-111635910D01*
X157978569Y-111848110D01*
X157927560Y-112100000D01*
X157927560Y-113400000D01*
X157971838Y-113635317D01*
X158110910Y-113851441D01*
X158133572Y-113866926D01*
X155062599Y-116937899D01*
X154897852Y-117184461D01*
X154840000Y-117475300D01*
X154840000Y-125258700D01*
X151261361Y-125258700D01*
X151144646Y-125141781D01*
X150764377Y-124983880D01*
X150352629Y-124983521D01*
X150150200Y-125067163D01*
X150150200Y-115072961D01*
X150267119Y-114956246D01*
X150410659Y-114610561D01*
X150890000Y-115089902D01*
X150890000Y-115952560D01*
X150875000Y-115952560D01*
X150639683Y-115996838D01*
X150423559Y-116135910D01*
X150278569Y-116348110D01*
X150227560Y-116600000D01*
X150227560Y-117900000D01*
X150271838Y-118135317D01*
X150410910Y-118351441D01*
X150623110Y-118496431D01*
X150875000Y-118547440D01*
X152425000Y-118547440D01*
X152660317Y-118503162D01*
X152876441Y-118364090D01*
X153021431Y-118151890D01*
X153072440Y-117900000D01*
X153072440Y-116600000D01*
X153028162Y-116364683D01*
X152889090Y-116148559D01*
X152676890Y-116003569D01*
X152425000Y-115952560D01*
X152410000Y-115952560D01*
X152410000Y-114775100D01*
X152387113Y-114660040D01*
X152352148Y-114484260D01*
X152187401Y-114237699D01*
X151997142Y-114047440D01*
X152425000Y-114047440D01*
X152660317Y-114003162D01*
X152876441Y-113864090D01*
X153021431Y-113651890D01*
X153072440Y-113400000D01*
X153072440Y-112100000D01*
X153055505Y-112010000D01*
X155875000Y-112010000D01*
X156165839Y-111952148D01*
X156412401Y-111787401D01*
X159521531Y-108678271D01*
X159548110Y-108696431D01*
X159800000Y-108747440D01*
X160700000Y-108747440D01*
X160935317Y-108703162D01*
X161151441Y-108564090D01*
X161296431Y-108351890D01*
X161347440Y-108100000D01*
X161347440Y-107200000D01*
X161303162Y-106964683D01*
X161276521Y-106923281D01*
X163915401Y-104284401D01*
X164080148Y-104037839D01*
X164138000Y-103747000D01*
X164138000Y-80000000D01*
X166290000Y-80000000D01*
X166290000Y-94000000D01*
X166303642Y-94068584D01*
X166303642Y-94138513D01*
X166379762Y-94521196D01*
X166399395Y-94568593D01*
X166485776Y-94777138D01*
X166702549Y-95101561D01*
X166702550Y-95101562D01*
X166898438Y-95297451D01*
X167222862Y-95514223D01*
X167328877Y-95558136D01*
X167478804Y-95620238D01*
X167861486Y-95696358D01*
X168138513Y-95696358D01*
X168521196Y-95620238D01*
X168596160Y-95589187D01*
X168777138Y-95514224D01*
X169101561Y-95297451D01*
X169101562Y-95297450D01*
X169297451Y-95101562D01*
X169514223Y-94777138D01*
X169567668Y-94648110D01*
X169620238Y-94521196D01*
X169696358Y-94138514D01*
X169696358Y-94068584D01*
X169710000Y-94000000D01*
X169710000Y-80000000D01*
X169696358Y-79931416D01*
X169696358Y-79861486D01*
X169620238Y-79478804D01*
X169514223Y-79222863D01*
X169514223Y-79222862D01*
X169297451Y-78898438D01*
X169101562Y-78702550D01*
X169101561Y-78702549D01*
X168777138Y-78485776D01*
X168593368Y-78409657D01*
X168521196Y-78379762D01*
X168138513Y-78303642D01*
X168000000Y-78303642D01*
X167478804Y-78379762D01*
X167406632Y-78409657D01*
X167222862Y-78485777D01*
X166898438Y-78702549D01*
X166739501Y-78861487D01*
X166702549Y-78898439D01*
X166485776Y-79222862D01*
X166435581Y-79344046D01*
X166379762Y-79478804D01*
X166303642Y-79861487D01*
X166303642Y-79931416D01*
X166290000Y-80000000D01*
X164138000Y-80000000D01*
X164138000Y-76365007D01*
X166669376Y-73833691D01*
X166920853Y-74210054D01*
X167402622Y-74531961D01*
X167970907Y-74645000D01*
X168029093Y-74645000D01*
X168597378Y-74531961D01*
X169079147Y-74210054D01*
X169401054Y-73728285D01*
X169514093Y-73160000D01*
X169401054Y-72591715D01*
X169079147Y-72109946D01*
X168749974Y-71890000D01*
X169079147Y-71670054D01*
X169401054Y-71188285D01*
X169466739Y-70858063D01*
X170290000Y-70034802D01*
X170290000Y-90949543D01*
X170290000Y-90949543D01*
G37*
X170290000Y-90949543D02*
X164297136Y-132899591D01*
X164299897Y-132950245D01*
X164290000Y-133000000D01*
X164290000Y-144930069D01*
X163569989Y-148549807D01*
X161559187Y-151559186D01*
X158549805Y-153569990D01*
X154930069Y-154290000D01*
X117069931Y-154290000D01*
X113450193Y-153569989D01*
X110440814Y-151559187D01*
X110425154Y-151535750D01*
X121740000Y-151535750D01*
X121740000Y-152026310D01*
X121836673Y-152259699D01*
X122015302Y-152438327D01*
X122248691Y-152535000D01*
X122864250Y-152535000D01*
X123023000Y-152376250D01*
X123023000Y-151377000D01*
X123277000Y-151377000D01*
X123277000Y-152376250D01*
X123435750Y-152535000D01*
X124051309Y-152535000D01*
X124284698Y-152438327D01*
X124463327Y-152259699D01*
X124560000Y-152026310D01*
X124560000Y-151535750D01*
X124401250Y-151377000D01*
X123277000Y-151377000D01*
X123023000Y-151377000D01*
X121898750Y-151377000D01*
X121740000Y-151535750D01*
X110425154Y-151535750D01*
X109715509Y-150473690D01*
X121740000Y-150473690D01*
X121740000Y-150964250D01*
X121898750Y-151123000D01*
X123023000Y-151123000D01*
X123023000Y-150123750D01*
X123277000Y-150123750D01*
X123277000Y-151123000D01*
X124401250Y-151123000D01*
X124560000Y-150964250D01*
X124560000Y-150600000D01*
X129427560Y-150600000D01*
X129427560Y-151900000D01*
X129471838Y-152135317D01*
X129610910Y-152351441D01*
X129823110Y-152496431D01*
X130075000Y-152547440D01*
X131625000Y-152547440D01*
X131860317Y-152503162D01*
X132076441Y-152364090D01*
X132221431Y-152151890D01*
X132272440Y-151900000D01*
X132272440Y-151535750D01*
X139740000Y-151535750D01*
X139740000Y-152026310D01*
X139836673Y-152259699D01*
X140015302Y-152438327D01*
X140248691Y-152535000D01*
X140864250Y-152535000D01*
X141023000Y-152376250D01*
X141023000Y-151377000D01*
X141277000Y-151377000D01*
X141277000Y-152376250D01*
X141435750Y-152535000D01*
X142051309Y-152535000D01*
X142284698Y-152438327D01*
X142463327Y-152259699D01*
X142560000Y-152026310D01*
X142560000Y-151535750D01*
X142401250Y-151377000D01*
X141277000Y-151377000D01*
X141023000Y-151377000D01*
X139898750Y-151377000D01*
X139740000Y-151535750D01*
X132272440Y-151535750D01*
X132272440Y-150600000D01*
X132248674Y-150473690D01*
X139740000Y-150473690D01*
X139740000Y-150964250D01*
X139898750Y-151123000D01*
X141023000Y-151123000D01*
X141023000Y-150123750D01*
X141277000Y-150123750D01*
X141277000Y-151123000D01*
X142401250Y-151123000D01*
X142560000Y-150964250D01*
X142560000Y-150600000D01*
X147427560Y-150600000D01*
X147427560Y-151900000D01*
X147471838Y-152135317D01*
X147610910Y-152351441D01*
X147823110Y-152496431D01*
X148075000Y-152547440D01*
X149625000Y-152547440D01*
X149860317Y-152503162D01*
X150076441Y-152364090D01*
X150221431Y-152151890D01*
X150272440Y-151900000D01*
X150272440Y-150600000D01*
X150228162Y-150364683D01*
X150089090Y-150148559D01*
X149876890Y-150003569D01*
X149625000Y-149952560D01*
X148075000Y-149952560D01*
X147839683Y-149996838D01*
X147623559Y-150135910D01*
X147478569Y-150348110D01*
X147427560Y-150600000D01*
X142560000Y-150600000D01*
X142560000Y-150473690D01*
X142463327Y-150240301D01*
X142284698Y-150061673D01*
X142051309Y-149965000D01*
X141435750Y-149965000D01*
X141277000Y-150123750D01*
X141023000Y-150123750D01*
X140864250Y-149965000D01*
X140248691Y-149965000D01*
X140015302Y-150061673D01*
X139836673Y-150240301D01*
X139740000Y-150473690D01*
X132248674Y-150473690D01*
X132228162Y-150364683D01*
X132089090Y-150148559D01*
X131876890Y-150003569D01*
X131625000Y-149952560D01*
X130075000Y-149952560D01*
X129839683Y-149996838D01*
X129623559Y-150135910D01*
X129478569Y-150348110D01*
X129427560Y-150600000D01*
X124560000Y-150600000D01*
X124560000Y-150473690D01*
X124463327Y-150240301D01*
X124284698Y-150061673D01*
X124051309Y-149965000D01*
X123435750Y-149965000D01*
X123277000Y-150123750D01*
X123023000Y-150123750D01*
X122864250Y-149965000D01*
X122248691Y-149965000D01*
X122015302Y-150061673D01*
X121836673Y-150240301D01*
X121740000Y-150473690D01*
X109715509Y-150473690D01*
X108430010Y-148549805D01*
X107710000Y-144930069D01*
X107710000Y-133000000D01*
X107700103Y-132950245D01*
X107702864Y-132899591D01*
X106517209Y-124600000D01*
X108727560Y-124600000D01*
X108727560Y-125900000D01*
X108771838Y-126135317D01*
X108910910Y-126351441D01*
X109123110Y-126496431D01*
X109375000Y-126547440D01*
X110925000Y-126547440D01*
X111160317Y-126503162D01*
X111376441Y-126364090D01*
X111521431Y-126151890D01*
X111572440Y-125900000D01*
X111572440Y-124600000D01*
X111528162Y-124364683D01*
X111389090Y-124148559D01*
X111176890Y-124003569D01*
X110925000Y-123952560D01*
X109375000Y-123952560D01*
X109139683Y-123996838D01*
X108923559Y-124135910D01*
X108778569Y-124348110D01*
X108727560Y-124600000D01*
X106517209Y-124600000D01*
X103665173Y-104635750D01*
X110665000Y-104635750D01*
X110665000Y-104926310D01*
X110761673Y-105159699D01*
X110940302Y-105338327D01*
X111173691Y-105435000D01*
X111464250Y-105435000D01*
X111623000Y-105276250D01*
X111623000Y-104477000D01*
X111877000Y-104477000D01*
X111877000Y-105276250D01*
X112035750Y-105435000D01*
X112326309Y-105435000D01*
X112559698Y-105338327D01*
X112738327Y-105159699D01*
X112835000Y-104926310D01*
X112835000Y-104635750D01*
X112676250Y-104477000D01*
X111877000Y-104477000D01*
X111623000Y-104477000D01*
X110823750Y-104477000D01*
X110665000Y-104635750D01*
X103665173Y-104635750D01*
X103542022Y-103773690D01*
X110665000Y-103773690D01*
X110665000Y-104064250D01*
X110823750Y-104223000D01*
X111623000Y-104223000D01*
X111623000Y-103423750D01*
X111877000Y-103423750D01*
X111877000Y-104223000D01*
X112676250Y-104223000D01*
X112835000Y-104064250D01*
X112835000Y-103773690D01*
X112738327Y-103540301D01*
X112559698Y-103361673D01*
X112326309Y-103265000D01*
X112035750Y-103265000D01*
X111877000Y-103423750D01*
X111623000Y-103423750D01*
X111464250Y-103265000D01*
X111173691Y-103265000D01*
X110940302Y-103361673D01*
X110761673Y-103540301D01*
X110665000Y-103773690D01*
X103542022Y-103773690D01*
X102938031Y-99545750D01*
X112115000Y-99545750D01*
X112115000Y-101386310D01*
X112211673Y-101619699D01*
X112390302Y-101798327D01*
X112623691Y-101895000D01*
X113714250Y-101895000D01*
X113873000Y-101736250D01*
X113873000Y-99387000D01*
X114127000Y-99387000D01*
X114127000Y-101736250D01*
X114285750Y-101895000D01*
X115376309Y-101895000D01*
X115609698Y-101798327D01*
X115788327Y-101619699D01*
X115885000Y-101386310D01*
X115885000Y-99545750D01*
X115726250Y-99387000D01*
X114127000Y-99387000D01*
X113873000Y-99387000D01*
X112273750Y-99387000D01*
X112115000Y-99545750D01*
X102938031Y-99545750D01*
X102593451Y-97133690D01*
X112115000Y-97133690D01*
X112115000Y-98974250D01*
X112273750Y-99133000D01*
X113873000Y-99133000D01*
X113873000Y-96783750D01*
X114127000Y-96783750D01*
X114127000Y-99133000D01*
X115726250Y-99133000D01*
X115885000Y-98974250D01*
X115885000Y-97133690D01*
X115788327Y-96900301D01*
X115609698Y-96721673D01*
X115376309Y-96625000D01*
X114285750Y-96625000D01*
X114127000Y-96783750D01*
X113873000Y-96783750D01*
X113714250Y-96625000D01*
X112623691Y-96625000D01*
X112390302Y-96721673D01*
X112211673Y-96900301D01*
X112115000Y-97133690D01*
X102593451Y-97133690D01*
X101710000Y-90949543D01*
X101710000Y-76116377D01*
X101738636Y-76159234D01*
X101820587Y-76281889D01*
X103845442Y-78306833D01*
X103478804Y-78379762D01*
X103406632Y-78409657D01*
X103222862Y-78485777D01*
X102898438Y-78702549D01*
X102739501Y-78861487D01*
X102702549Y-78898439D01*
X102485776Y-79222862D01*
X102435581Y-79344046D01*
X102379762Y-79478804D01*
X102303642Y-79861487D01*
X102303642Y-79931416D01*
X102290000Y-80000000D01*
X102290000Y-94000000D01*
X102303642Y-94068584D01*
X102303642Y-94138513D01*
X102379762Y-94521196D01*
X102399395Y-94568593D01*
X102485776Y-94777138D01*
X102702549Y-95101561D01*
X102702550Y-95101562D01*
X102898438Y-95297451D01*
X103222862Y-95514223D01*
X103328877Y-95558136D01*
X103478804Y-95620238D01*
X103861486Y-95696358D01*
X104138513Y-95696358D01*
X104521196Y-95620238D01*
X104596160Y-95589187D01*
X104777138Y-95514224D01*
X105101561Y-95297451D01*
X105101562Y-95297450D01*
X105297451Y-95101562D01*
X105514223Y-94777138D01*
X105567668Y-94648110D01*
X105620238Y-94521196D01*
X105696358Y-94138514D01*
X105696358Y-94068584D01*
X105710000Y-94000000D01*
X105710000Y-86735750D01*
X110865000Y-86735750D01*
X110865000Y-88576310D01*
X110961673Y-88809699D01*
X111140302Y-88988327D01*
X111373691Y-89085000D01*
X113714250Y-89085000D01*
X113873000Y-88926250D01*
X113873000Y-86577000D01*
X114127000Y-86577000D01*
X114127000Y-88926250D01*
X114285750Y-89085000D01*
X116626309Y-89085000D01*
X116859698Y-88988327D01*
X117038327Y-88809699D01*
X117135000Y-88576310D01*
X117135000Y-86735750D01*
X116976250Y-86577000D01*
X114127000Y-86577000D01*
X113873000Y-86577000D01*
X111023750Y-86577000D01*
X110865000Y-86735750D01*
X105710000Y-86735750D01*
X105710000Y-84323690D01*
X110865000Y-84323690D01*
X110865000Y-86164250D01*
X111023750Y-86323000D01*
X113873000Y-86323000D01*
X113873000Y-83973750D01*
X113714250Y-83815000D01*
X111373691Y-83815000D01*
X111140302Y-83911673D01*
X110961673Y-84090301D01*
X110865000Y-84323690D01*
X105710000Y-84323690D01*
X105710000Y-80000000D01*
X105696358Y-79931416D01*
X105696358Y-79861486D01*
X105620238Y-79478804D01*
X105514223Y-79222863D01*
X105514223Y-79222862D01*
X105297451Y-78898438D01*
X105170612Y-78771600D01*
X110721198Y-78771600D01*
X115764598Y-83815000D01*
X114285750Y-83815000D01*
X114127000Y-83973750D01*
X114127000Y-86323000D01*
X116976250Y-86323000D01*
X117135000Y-86164250D01*
X117135000Y-85185402D01*
X120414999Y-88465401D01*
X120414999Y-92360001D01*
X120472851Y-92650840D01*
X120637598Y-92897402D01*
X120702598Y-92962402D01*
X120852560Y-93062603D01*
X120852560Y-94100000D01*
X120896838Y-94335317D01*
X121003759Y-94501477D01*
X120903569Y-94648110D01*
X120852560Y-94900000D01*
X120852560Y-96100000D01*
X120896838Y-96335317D01*
X121003759Y-96501477D01*
X120903569Y-96648110D01*
X120852560Y-96900000D01*
X120852560Y-97740000D01*
X120500000Y-97740000D01*
X120209160Y-97797852D01*
X119962599Y-97962599D01*
X114712599Y-103212599D01*
X114547852Y-103459161D01*
X114490000Y-103750000D01*
X114490000Y-105000000D01*
X114547852Y-105290839D01*
X114712599Y-105537401D01*
X115490000Y-106314802D01*
X115490000Y-106644895D01*
X115348559Y-106735910D01*
X115203569Y-106948110D01*
X115152560Y-107200000D01*
X115152560Y-107665001D01*
X113614803Y-107665001D01*
X113062401Y-107112599D01*
X112815839Y-106947852D01*
X112788881Y-106942490D01*
X112664090Y-106748559D01*
X112451890Y-106603569D01*
X112200000Y-106552560D01*
X111300000Y-106552560D01*
X111064683Y-106596838D01*
X110848559Y-106735910D01*
X110703569Y-106948110D01*
X110652560Y-107200000D01*
X110652560Y-108100000D01*
X110696838Y-108335317D01*
X110835910Y-108551441D01*
X111048110Y-108696431D01*
X111300000Y-108747440D01*
X112200000Y-108747440D01*
X112435317Y-108703162D01*
X112476719Y-108676521D01*
X112762600Y-108962402D01*
X113009162Y-109127149D01*
X113300001Y-109185001D01*
X118264999Y-109185001D01*
X118555838Y-109127149D01*
X118802400Y-108962402D01*
X123137800Y-104627002D01*
X123223748Y-104627002D01*
X123065000Y-104785750D01*
X123065000Y-105626309D01*
X123161673Y-105859698D01*
X123340301Y-106038327D01*
X123465051Y-106090000D01*
X123350000Y-106090000D01*
X123059161Y-106147852D01*
X122812599Y-106312599D01*
X121560233Y-107564965D01*
X121395029Y-107564821D01*
X121014485Y-107722058D01*
X120723081Y-108012954D01*
X120565180Y-108393223D01*
X120564821Y-108804971D01*
X120722058Y-109185515D01*
X120755584Y-109219100D01*
X120008400Y-109219100D01*
X119717561Y-109276952D01*
X119470999Y-109441699D01*
X116212199Y-112700499D01*
X116047452Y-112947061D01*
X115989600Y-113237900D01*
X115989600Y-139861600D01*
X116047452Y-140152439D01*
X116212199Y-140399001D01*
X121758822Y-145945624D01*
X121727560Y-146100000D01*
X121727560Y-146138458D01*
X113693300Y-138104198D01*
X113693300Y-124508600D01*
X113635448Y-124217761D01*
X113470701Y-123971199D01*
X111368623Y-121869121D01*
X111376441Y-121864090D01*
X111521431Y-121651890D01*
X111572440Y-121400000D01*
X111572440Y-120100000D01*
X111528162Y-119864683D01*
X111389090Y-119648559D01*
X111176890Y-119503569D01*
X110925000Y-119452560D01*
X109375000Y-119452560D01*
X109139683Y-119496838D01*
X108923559Y-119635910D01*
X108778569Y-119848110D01*
X108727560Y-120100000D01*
X108727560Y-121400000D01*
X108771838Y-121635317D01*
X108910910Y-121851441D01*
X109123110Y-121996431D01*
X109375000Y-122047440D01*
X109468767Y-122047440D01*
X109612599Y-122262701D01*
X112173300Y-124823402D01*
X112173300Y-138419000D01*
X112231152Y-138709839D01*
X112395899Y-138956401D01*
X121702299Y-148262801D01*
X121948861Y-148427548D01*
X122239700Y-148485400D01*
X124126900Y-148485400D01*
X124417739Y-148427548D01*
X124664301Y-148262801D01*
X124842801Y-148084301D01*
X125007548Y-147837739D01*
X125065400Y-147546900D01*
X125065400Y-146100000D01*
X129427560Y-146100000D01*
X129427560Y-147400000D01*
X129471838Y-147635317D01*
X129610910Y-147851441D01*
X129823110Y-147996431D01*
X130075000Y-148047440D01*
X131625000Y-148047440D01*
X131860317Y-148003162D01*
X132076441Y-147864090D01*
X132221431Y-147651890D01*
X132272440Y-147400000D01*
X132272440Y-146100000D01*
X132228162Y-145864683D01*
X132089090Y-145648559D01*
X131876890Y-145503569D01*
X131625000Y-145452560D01*
X130075000Y-145452560D01*
X129839683Y-145496838D01*
X129623559Y-145635910D01*
X129478569Y-145848110D01*
X129427560Y-146100000D01*
X125065400Y-146100000D01*
X125065400Y-140371200D01*
X125008625Y-140085777D01*
X135987001Y-129107401D01*
X136151748Y-128860839D01*
X136209600Y-128570000D01*
X136209600Y-123709102D01*
X136631377Y-124130879D01*
X136623559Y-124135910D01*
X136478569Y-124348110D01*
X136427560Y-124600000D01*
X136427560Y-125900000D01*
X136471838Y-126135317D01*
X136610910Y-126351441D01*
X136823110Y-126496431D01*
X137075000Y-126547440D01*
X138625000Y-126547440D01*
X138860317Y-126503162D01*
X139076441Y-126364090D01*
X139221431Y-126151890D01*
X139272440Y-125900000D01*
X139272440Y-124600000D01*
X139228162Y-124364683D01*
X139089090Y-124148559D01*
X138876890Y-124003569D01*
X138625000Y-123952560D01*
X138531233Y-123952560D01*
X138387401Y-123737299D01*
X136760000Y-122109898D01*
X136760000Y-121953310D01*
X136823110Y-121996431D01*
X137075000Y-122047440D01*
X138625000Y-122047440D01*
X138860317Y-122003162D01*
X139076441Y-121864090D01*
X139221431Y-121651890D01*
X139240000Y-121560194D01*
X139240000Y-123362000D01*
X139297852Y-123652839D01*
X139462599Y-123899401D01*
X146508822Y-130945624D01*
X146477560Y-131100000D01*
X146477560Y-132400000D01*
X146521838Y-132635317D01*
X146660910Y-132851441D01*
X146873110Y-132996431D01*
X147125000Y-133047440D01*
X148630200Y-133047440D01*
X148630200Y-137219698D01*
X140612599Y-145237299D01*
X140468767Y-145452560D01*
X140375000Y-145452560D01*
X140139683Y-145496838D01*
X139923559Y-145635910D01*
X139778569Y-145848110D01*
X139727560Y-146100000D01*
X139727560Y-147400000D01*
X139771838Y-147635317D01*
X139910910Y-147851441D01*
X140123110Y-147996431D01*
X140375000Y-148047440D01*
X141925000Y-148047440D01*
X142160317Y-148003162D01*
X142376441Y-147864090D01*
X142521431Y-147651890D01*
X142572440Y-147400000D01*
X142572440Y-146100000D01*
X147427560Y-146100000D01*
X147427560Y-147400000D01*
X147471838Y-147635317D01*
X147610910Y-147851441D01*
X147823110Y-147996431D01*
X148075000Y-148047440D01*
X149625000Y-148047440D01*
X149860317Y-148003162D01*
X150076441Y-147864090D01*
X150221431Y-147651890D01*
X150272440Y-147400000D01*
X150272440Y-146100000D01*
X150228162Y-145864683D01*
X150089090Y-145648559D01*
X149876890Y-145503569D01*
X149625000Y-145452560D01*
X148075000Y-145452560D01*
X147839683Y-145496838D01*
X147623559Y-145635910D01*
X147478569Y-145848110D01*
X147427560Y-146100000D01*
X142572440Y-146100000D01*
X142528162Y-145864683D01*
X142389090Y-145648559D01*
X142366428Y-145633074D01*
X149927601Y-138071901D01*
X150092348Y-137825339D01*
X150150200Y-137534500D01*
X150150200Y-131100000D01*
X154177560Y-131100000D01*
X154177560Y-132400000D01*
X154221838Y-132635317D01*
X154360910Y-132851441D01*
X154573110Y-132996431D01*
X154825000Y-133047440D01*
X156375000Y-133047440D01*
X156610317Y-133003162D01*
X156826441Y-132864090D01*
X156971431Y-132651890D01*
X157022440Y-132400000D01*
X157022440Y-131100000D01*
X156978162Y-130864683D01*
X156839090Y-130648559D01*
X156626890Y-130503569D01*
X156375000Y-130452560D01*
X154825000Y-130452560D01*
X154589683Y-130496838D01*
X154373559Y-130635910D01*
X154228569Y-130848110D01*
X154177560Y-131100000D01*
X150150200Y-131100000D01*
X150150200Y-126970214D01*
X150350823Y-127053520D01*
X150762571Y-127053879D01*
X151143115Y-126896642D01*
X151261263Y-126778700D01*
X154177560Y-126778700D01*
X154177560Y-127900000D01*
X154221838Y-128135317D01*
X154360910Y-128351441D01*
X154573110Y-128496431D01*
X154825000Y-128547440D01*
X156375000Y-128547440D01*
X156610317Y-128503162D01*
X156826441Y-128364090D01*
X156971431Y-128151890D01*
X157022440Y-127900000D01*
X157022440Y-126600000D01*
X156978162Y-126364683D01*
X156839090Y-126148559D01*
X156626890Y-126003569D01*
X156375000Y-125952560D01*
X156360000Y-125952560D01*
X156360000Y-117790102D01*
X157550102Y-116600000D01*
X157927560Y-116600000D01*
X157927560Y-117900000D01*
X157971838Y-118135317D01*
X158110910Y-118351441D01*
X158323110Y-118496431D01*
X158575000Y-118547440D01*
X160125000Y-118547440D01*
X160360317Y-118503162D01*
X160576441Y-118364090D01*
X160721431Y-118151890D01*
X160772440Y-117900000D01*
X160772440Y-116600000D01*
X160728162Y-116364683D01*
X160589090Y-116148559D01*
X160376890Y-116003569D01*
X160125000Y-115952560D01*
X158575000Y-115952560D01*
X158339683Y-115996838D01*
X158123559Y-116135910D01*
X157978569Y-116348110D01*
X157927560Y-116600000D01*
X157550102Y-116600000D01*
X159887401Y-114262701D01*
X160031233Y-114047440D01*
X160125000Y-114047440D01*
X160360317Y-114003162D01*
X160576441Y-113864090D01*
X160721431Y-113651890D01*
X160772440Y-113400000D01*
X160772440Y-112100000D01*
X160728162Y-111864683D01*
X160589090Y-111648559D01*
X160376890Y-111503569D01*
X160125000Y-111452560D01*
X158575000Y-111452560D01*
X158339683Y-111496838D01*
X158123559Y-111635910D01*
X157978569Y-111848110D01*
X157927560Y-112100000D01*
X157927560Y-113400000D01*
X157971838Y-113635317D01*
X158110910Y-113851441D01*
X158133572Y-113866926D01*
X155062599Y-116937899D01*
X154897852Y-117184461D01*
X154840000Y-117475300D01*
X154840000Y-125258700D01*
X151261361Y-125258700D01*
X151144646Y-125141781D01*
X150764377Y-124983880D01*
X150352629Y-124983521D01*
X150150200Y-125067163D01*
X150150200Y-115072961D01*
X150267119Y-114956246D01*
X150410659Y-114610561D01*
X150890000Y-115089902D01*
X150890000Y-115952560D01*
X150875000Y-115952560D01*
X150639683Y-115996838D01*
X150423559Y-116135910D01*
X150278569Y-116348110D01*
X150227560Y-116600000D01*
X150227560Y-117900000D01*
X150271838Y-118135317D01*
X150410910Y-118351441D01*
X150623110Y-118496431D01*
X150875000Y-118547440D01*
X152425000Y-118547440D01*
X152660317Y-118503162D01*
X152876441Y-118364090D01*
X153021431Y-118151890D01*
X153072440Y-117900000D01*
X153072440Y-116600000D01*
X153028162Y-116364683D01*
X152889090Y-116148559D01*
X152676890Y-116003569D01*
X152425000Y-115952560D01*
X152410000Y-115952560D01*
X152410000Y-114775100D01*
X152387113Y-114660040D01*
X152352148Y-114484260D01*
X152187401Y-114237699D01*
X151997142Y-114047440D01*
X152425000Y-114047440D01*
X152660317Y-114003162D01*
X152876441Y-113864090D01*
X153021431Y-113651890D01*
X153072440Y-113400000D01*
X153072440Y-112100000D01*
X153055505Y-112010000D01*
X155875000Y-112010000D01*
X156165839Y-111952148D01*
X156412401Y-111787401D01*
X159521531Y-108678271D01*
X159548110Y-108696431D01*
X159800000Y-108747440D01*
X160700000Y-108747440D01*
X160935317Y-108703162D01*
X161151441Y-108564090D01*
X161296431Y-108351890D01*
X161347440Y-108100000D01*
X161347440Y-107200000D01*
X161303162Y-106964683D01*
X161276521Y-106923281D01*
X163915401Y-104284401D01*
X164080148Y-104037839D01*
X164138000Y-103747000D01*
X164138000Y-80000000D01*
X166290000Y-80000000D01*
X166290000Y-94000000D01*
X166303642Y-94068584D01*
X166303642Y-94138513D01*
X166379762Y-94521196D01*
X166399395Y-94568593D01*
X166485776Y-94777138D01*
X166702549Y-95101561D01*
X166702550Y-95101562D01*
X166898438Y-95297451D01*
X167222862Y-95514223D01*
X167328877Y-95558136D01*
X167478804Y-95620238D01*
X167861486Y-95696358D01*
X168138513Y-95696358D01*
X168521196Y-95620238D01*
X168596160Y-95589187D01*
X168777138Y-95514224D01*
X169101561Y-95297451D01*
X169101562Y-95297450D01*
X169297451Y-95101562D01*
X169514223Y-94777138D01*
X169567668Y-94648110D01*
X169620238Y-94521196D01*
X169696358Y-94138514D01*
X169696358Y-94068584D01*
X169710000Y-94000000D01*
X169710000Y-80000000D01*
X169696358Y-79931416D01*
X169696358Y-79861486D01*
X169620238Y-79478804D01*
X169514223Y-79222863D01*
X169514223Y-79222862D01*
X169297451Y-78898438D01*
X169101562Y-78702550D01*
X169101561Y-78702549D01*
X168777138Y-78485776D01*
X168593368Y-78409657D01*
X168521196Y-78379762D01*
X168138513Y-78303642D01*
X168000000Y-78303642D01*
X167478804Y-78379762D01*
X167406632Y-78409657D01*
X167222862Y-78485777D01*
X166898438Y-78702549D01*
X166739501Y-78861487D01*
X166702549Y-78898439D01*
X166485776Y-79222862D01*
X166435581Y-79344046D01*
X166379762Y-79478804D01*
X166303642Y-79861487D01*
X166303642Y-79931416D01*
X166290000Y-80000000D01*
X164138000Y-80000000D01*
X164138000Y-76365007D01*
X166669376Y-73833691D01*
X166920853Y-74210054D01*
X167402622Y-74531961D01*
X167970907Y-74645000D01*
X168029093Y-74645000D01*
X168597378Y-74531961D01*
X169079147Y-74210054D01*
X169401054Y-73728285D01*
X169514093Y-73160000D01*
X169401054Y-72591715D01*
X169079147Y-72109946D01*
X168749974Y-71890000D01*
X169079147Y-71670054D01*
X169401054Y-71188285D01*
X169466739Y-70858063D01*
X170290000Y-70034802D01*
X170290000Y-90949543D01*
G36*
X158937599Y-107112599D02*
X155560198Y-110490000D01*
X154022440Y-110490000D01*
X154022440Y-110100000D01*
X153978162Y-109864683D01*
X153911671Y-109761354D01*
X153913327Y-109759698D01*
X154010000Y-109526309D01*
X154010000Y-109285750D01*
X153851250Y-109127000D01*
X153127000Y-109127000D01*
X153127000Y-109147000D01*
X152873000Y-109147000D01*
X152873000Y-109127000D01*
X152148750Y-109127000D01*
X151990000Y-109285750D01*
X151990000Y-109526309D01*
X152086673Y-109759698D01*
X152088043Y-109761068D01*
X152028569Y-109848110D01*
X151977560Y-110100000D01*
X151977560Y-110490000D01*
X149278386Y-110490000D01*
X149151890Y-110403569D01*
X148900000Y-110352560D01*
X148000000Y-110352560D01*
X147764683Y-110396838D01*
X147619905Y-110490000D01*
X147578386Y-110490000D01*
X147451890Y-110403569D01*
X147200000Y-110352560D01*
X146300000Y-110352560D01*
X146064683Y-110396838D01*
X145924273Y-110487190D01*
X145801890Y-110403569D01*
X145550000Y-110352560D01*
X144650000Y-110352560D01*
X144414683Y-110396838D01*
X144274273Y-110487190D01*
X144151890Y-110403569D01*
X143900000Y-110352560D01*
X143000000Y-110352560D01*
X142764683Y-110396838D01*
X142548559Y-110535910D01*
X142507217Y-110596415D01*
X140320802Y-108410000D01*
X152016382Y-108410000D01*
X151990000Y-108473691D01*
X151990000Y-108714250D01*
X152148750Y-108873000D01*
X152873000Y-108873000D01*
X152873000Y-108853000D01*
X153127000Y-108853000D01*
X153127000Y-108873000D01*
X153851250Y-108873000D01*
X154010000Y-108714250D01*
X154010000Y-108473691D01*
X153983618Y-108410000D01*
X154744895Y-108410000D01*
X154835910Y-108551441D01*
X155048110Y-108696431D01*
X155300000Y-108747440D01*
X156200000Y-108747440D01*
X156435317Y-108703162D01*
X156651441Y-108564090D01*
X156796431Y-108351890D01*
X156847440Y-108100000D01*
X156847440Y-107200000D01*
X156826366Y-107088000D01*
X158974414Y-107088000D01*
X158937599Y-107112599D01*
X158937599Y-107112599D01*
G37*
X158937599Y-107112599D02*
X155560198Y-110490000D01*
X154022440Y-110490000D01*
X154022440Y-110100000D01*
X153978162Y-109864683D01*
X153911671Y-109761354D01*
X153913327Y-109759698D01*
X154010000Y-109526309D01*
X154010000Y-109285750D01*
X153851250Y-109127000D01*
X153127000Y-109127000D01*
X153127000Y-109147000D01*
X152873000Y-109147000D01*
X152873000Y-109127000D01*
X152148750Y-109127000D01*
X151990000Y-109285750D01*
X151990000Y-109526309D01*
X152086673Y-109759698D01*
X152088043Y-109761068D01*
X152028569Y-109848110D01*
X151977560Y-110100000D01*
X151977560Y-110490000D01*
X149278386Y-110490000D01*
X149151890Y-110403569D01*
X148900000Y-110352560D01*
X148000000Y-110352560D01*
X147764683Y-110396838D01*
X147619905Y-110490000D01*
X147578386Y-110490000D01*
X147451890Y-110403569D01*
X147200000Y-110352560D01*
X146300000Y-110352560D01*
X146064683Y-110396838D01*
X145924273Y-110487190D01*
X145801890Y-110403569D01*
X145550000Y-110352560D01*
X144650000Y-110352560D01*
X144414683Y-110396838D01*
X144274273Y-110487190D01*
X144151890Y-110403569D01*
X143900000Y-110352560D01*
X143000000Y-110352560D01*
X142764683Y-110396838D01*
X142548559Y-110535910D01*
X142507217Y-110596415D01*
X140320802Y-108410000D01*
X152016382Y-108410000D01*
X151990000Y-108473691D01*
X151990000Y-108714250D01*
X152148750Y-108873000D01*
X152873000Y-108873000D01*
X152873000Y-108853000D01*
X153127000Y-108853000D01*
X153127000Y-108873000D01*
X153851250Y-108873000D01*
X154010000Y-108714250D01*
X154010000Y-108473691D01*
X153983618Y-108410000D01*
X154744895Y-108410000D01*
X154835910Y-108551441D01*
X155048110Y-108696431D01*
X155300000Y-108747440D01*
X156200000Y-108747440D01*
X156435317Y-108703162D01*
X156651441Y-108564090D01*
X156796431Y-108351890D01*
X156847440Y-108100000D01*
X156847440Y-107200000D01*
X156826366Y-107088000D01*
X158974414Y-107088000D01*
X158937599Y-107112599D01*
G36*
X120852560Y-102100000D02*
X120896838Y-102335317D01*
X121035910Y-102551441D01*
X121248110Y-102696431D01*
X121500000Y-102747440D01*
X122867758Y-102747440D01*
X120385000Y-105230198D01*
X120385000Y-105098690D01*
X120288327Y-104865301D01*
X120109698Y-104686673D01*
X119876309Y-104590000D01*
X119635750Y-104590000D01*
X119477000Y-104748750D01*
X119477000Y-105473000D01*
X119497000Y-105473000D01*
X119497000Y-105727000D01*
X119477000Y-105727000D01*
X119477000Y-105747000D01*
X119223000Y-105747000D01*
X119223000Y-105727000D01*
X119203000Y-105727000D01*
X119203000Y-105473000D01*
X119223000Y-105473000D01*
X119223000Y-104748750D01*
X119064250Y-104590000D01*
X118823691Y-104590000D01*
X118590302Y-104686673D01*
X118588932Y-104688043D01*
X118501890Y-104628569D01*
X118250000Y-104577560D01*
X117872324Y-104577560D01*
X120852560Y-101598114D01*
X120852560Y-102100000D01*
X120852560Y-102100000D01*
G37*
X120852560Y-102100000D02*
X120896838Y-102335317D01*
X121035910Y-102551441D01*
X121248110Y-102696431D01*
X121500000Y-102747440D01*
X122867758Y-102747440D01*
X120385000Y-105230198D01*
X120385000Y-105098690D01*
X120288327Y-104865301D01*
X120109698Y-104686673D01*
X119876309Y-104590000D01*
X119635750Y-104590000D01*
X119477000Y-104748750D01*
X119477000Y-105473000D01*
X119497000Y-105473000D01*
X119497000Y-105727000D01*
X119477000Y-105727000D01*
X119477000Y-105747000D01*
X119223000Y-105747000D01*
X119223000Y-105727000D01*
X119203000Y-105727000D01*
X119203000Y-105473000D01*
X119223000Y-105473000D01*
X119223000Y-104748750D01*
X119064250Y-104590000D01*
X118823691Y-104590000D01*
X118590302Y-104686673D01*
X118588932Y-104688043D01*
X118501890Y-104628569D01*
X118250000Y-104577560D01*
X117872324Y-104577560D01*
X120852560Y-101598114D01*
X120852560Y-102100000D01*
G36*
X156603058Y-83577560D02*
X155500000Y-83577560D01*
X155264683Y-83621838D01*
X155048559Y-83760910D01*
X154903569Y-83973110D01*
X154852560Y-84225000D01*
X154852560Y-88225000D01*
X154896838Y-88460317D01*
X155035910Y-88676441D01*
X155248110Y-88821431D01*
X155500000Y-88872440D01*
X155740000Y-88872440D01*
X155740000Y-97535000D01*
X155797852Y-97825839D01*
X155962599Y-98072401D01*
X156102560Y-98212362D01*
X156102560Y-101035000D01*
X156146838Y-101270317D01*
X156285910Y-101486441D01*
X156498110Y-101631431D01*
X156750000Y-101682440D01*
X159250000Y-101682440D01*
X159485317Y-101638162D01*
X159701441Y-101499090D01*
X159846431Y-101286890D01*
X159897440Y-101035000D01*
X159897440Y-97035000D01*
X159853162Y-96799683D01*
X159714090Y-96583559D01*
X159501890Y-96438569D01*
X159250000Y-96387560D01*
X158760000Y-96387560D01*
X158760000Y-88872440D01*
X160065000Y-88872440D01*
X160065000Y-102684584D01*
X159712132Y-103038066D01*
X159630032Y-103161170D01*
X159547852Y-103284161D01*
X159547786Y-103284492D01*
X159547600Y-103284771D01*
X159542367Y-103311198D01*
X159348559Y-103435910D01*
X159203569Y-103648110D01*
X159152560Y-103900000D01*
X159152560Y-104800000D01*
X159196838Y-105035317D01*
X159335910Y-105251441D01*
X159547417Y-105395957D01*
X159375297Y-105568000D01*
X148611606Y-105568000D01*
X149089803Y-105089803D01*
X149116994Y-105049410D01*
X149127000Y-105000000D01*
X149127000Y-104635750D01*
X154665000Y-104635750D01*
X154665000Y-104926310D01*
X154761673Y-105159699D01*
X154940302Y-105338327D01*
X155173691Y-105435000D01*
X155464250Y-105435000D01*
X155623000Y-105276250D01*
X155623000Y-104477000D01*
X155877000Y-104477000D01*
X155877000Y-105276250D01*
X156035750Y-105435000D01*
X156326309Y-105435000D01*
X156559698Y-105338327D01*
X156738327Y-105159699D01*
X156835000Y-104926310D01*
X156835000Y-104635750D01*
X156676250Y-104477000D01*
X155877000Y-104477000D01*
X155623000Y-104477000D01*
X154823750Y-104477000D01*
X154665000Y-104635750D01*
X149127000Y-104635750D01*
X149127000Y-103773690D01*
X154665000Y-103773690D01*
X154665000Y-104064250D01*
X154823750Y-104223000D01*
X155623000Y-104223000D01*
X155623000Y-103423750D01*
X155877000Y-103423750D01*
X155877000Y-104223000D01*
X156676250Y-104223000D01*
X156835000Y-104064250D01*
X156835000Y-103773690D01*
X156738327Y-103540301D01*
X156559698Y-103361673D01*
X156326309Y-103265000D01*
X156035750Y-103265000D01*
X155877000Y-103423750D01*
X155623000Y-103423750D01*
X155464250Y-103265000D01*
X155173691Y-103265000D01*
X154940302Y-103361673D01*
X154761673Y-103540301D01*
X154665000Y-103773690D01*
X149127000Y-103773690D01*
X149127000Y-88000000D01*
X149117666Y-87952211D01*
X149089803Y-87910197D01*
X148089803Y-86910197D01*
X148049410Y-86883006D01*
X148000000Y-86873000D01*
X140000000Y-86873000D01*
X139952211Y-86882334D01*
X139910197Y-86910197D01*
X139511484Y-87308910D01*
X139503162Y-87264683D01*
X139364090Y-87048559D01*
X139151890Y-86903569D01*
X138900000Y-86852560D01*
X137700000Y-86852560D01*
X137464683Y-86896838D01*
X137298523Y-87003759D01*
X137151890Y-86903569D01*
X137060000Y-86884961D01*
X137060000Y-79954971D01*
X140464821Y-79954971D01*
X140622058Y-80335515D01*
X140912954Y-80626919D01*
X141293223Y-80784820D01*
X141704971Y-80785179D01*
X142085515Y-80627942D01*
X142376919Y-80337046D01*
X142534820Y-79956777D01*
X142534966Y-79789836D01*
X145287401Y-77037401D01*
X145452148Y-76790839D01*
X145510000Y-76500000D01*
X145510000Y-75953761D01*
X145626919Y-75837046D01*
X145784820Y-75456777D01*
X145785179Y-75045029D01*
X145627942Y-74664485D01*
X145337046Y-74373081D01*
X144956777Y-74215180D01*
X144545029Y-74214821D01*
X144164485Y-74372058D01*
X143873081Y-74662954D01*
X143715180Y-75043223D01*
X143714821Y-75454971D01*
X143872058Y-75835515D01*
X143990000Y-75953663D01*
X143990000Y-76185198D01*
X141460233Y-78714965D01*
X141295029Y-78714821D01*
X140914485Y-78872058D01*
X140623081Y-79162954D01*
X140465180Y-79543223D01*
X140464821Y-79954971D01*
X137060000Y-79954971D01*
X137060000Y-77466576D01*
X140147434Y-74378769D01*
X140235707Y-74246641D01*
X140312148Y-74132239D01*
X140312152Y-74132218D01*
X140312166Y-74132197D01*
X140341845Y-73982941D01*
X140370000Y-73841400D01*
X140370000Y-71322300D01*
X140312148Y-71031461D01*
X140147401Y-70784899D01*
X139662622Y-70300120D01*
X143325618Y-70300120D01*
X156603058Y-83577560D01*
X156603058Y-83577560D01*
G37*
X156603058Y-83577560D02*
X155500000Y-83577560D01*
X155264683Y-83621838D01*
X155048559Y-83760910D01*
X154903569Y-83973110D01*
X154852560Y-84225000D01*
X154852560Y-88225000D01*
X154896838Y-88460317D01*
X155035910Y-88676441D01*
X155248110Y-88821431D01*
X155500000Y-88872440D01*
X155740000Y-88872440D01*
X155740000Y-97535000D01*
X155797852Y-97825839D01*
X155962599Y-98072401D01*
X156102560Y-98212362D01*
X156102560Y-101035000D01*
X156146838Y-101270317D01*
X156285910Y-101486441D01*
X156498110Y-101631431D01*
X156750000Y-101682440D01*
X159250000Y-101682440D01*
X159485317Y-101638162D01*
X159701441Y-101499090D01*
X159846431Y-101286890D01*
X159897440Y-101035000D01*
X159897440Y-97035000D01*
X159853162Y-96799683D01*
X159714090Y-96583559D01*
X159501890Y-96438569D01*
X159250000Y-96387560D01*
X158760000Y-96387560D01*
X158760000Y-88872440D01*
X160065000Y-88872440D01*
X160065000Y-102684584D01*
X159712132Y-103038066D01*
X159630032Y-103161170D01*
X159547852Y-103284161D01*
X159547786Y-103284492D01*
X159547600Y-103284771D01*
X159542367Y-103311198D01*
X159348559Y-103435910D01*
X159203569Y-103648110D01*
X159152560Y-103900000D01*
X159152560Y-104800000D01*
X159196838Y-105035317D01*
X159335910Y-105251441D01*
X159547417Y-105395957D01*
X159375297Y-105568000D01*
X148611606Y-105568000D01*
X149089803Y-105089803D01*
X149116994Y-105049410D01*
X149127000Y-105000000D01*
X149127000Y-104635750D01*
X154665000Y-104635750D01*
X154665000Y-104926310D01*
X154761673Y-105159699D01*
X154940302Y-105338327D01*
X155173691Y-105435000D01*
X155464250Y-105435000D01*
X155623000Y-105276250D01*
X155623000Y-104477000D01*
X155877000Y-104477000D01*
X155877000Y-105276250D01*
X156035750Y-105435000D01*
X156326309Y-105435000D01*
X156559698Y-105338327D01*
X156738327Y-105159699D01*
X156835000Y-104926310D01*
X156835000Y-104635750D01*
X156676250Y-104477000D01*
X155877000Y-104477000D01*
X155623000Y-104477000D01*
X154823750Y-104477000D01*
X154665000Y-104635750D01*
X149127000Y-104635750D01*
X149127000Y-103773690D01*
X154665000Y-103773690D01*
X154665000Y-104064250D01*
X154823750Y-104223000D01*
X155623000Y-104223000D01*
X155623000Y-103423750D01*
X155877000Y-103423750D01*
X155877000Y-104223000D01*
X156676250Y-104223000D01*
X156835000Y-104064250D01*
X156835000Y-103773690D01*
X156738327Y-103540301D01*
X156559698Y-103361673D01*
X156326309Y-103265000D01*
X156035750Y-103265000D01*
X155877000Y-103423750D01*
X155623000Y-103423750D01*
X155464250Y-103265000D01*
X155173691Y-103265000D01*
X154940302Y-103361673D01*
X154761673Y-103540301D01*
X154665000Y-103773690D01*
X149127000Y-103773690D01*
X149127000Y-88000000D01*
X149117666Y-87952211D01*
X149089803Y-87910197D01*
X148089803Y-86910197D01*
X148049410Y-86883006D01*
X148000000Y-86873000D01*
X140000000Y-86873000D01*
X139952211Y-86882334D01*
X139910197Y-86910197D01*
X139511484Y-87308910D01*
X139503162Y-87264683D01*
X139364090Y-87048559D01*
X139151890Y-86903569D01*
X138900000Y-86852560D01*
X137700000Y-86852560D01*
X137464683Y-86896838D01*
X137298523Y-87003759D01*
X137151890Y-86903569D01*
X137060000Y-86884961D01*
X137060000Y-79954971D01*
X140464821Y-79954971D01*
X140622058Y-80335515D01*
X140912954Y-80626919D01*
X141293223Y-80784820D01*
X141704971Y-80785179D01*
X142085515Y-80627942D01*
X142376919Y-80337046D01*
X142534820Y-79956777D01*
X142534966Y-79789836D01*
X145287401Y-77037401D01*
X145452148Y-76790839D01*
X145510000Y-76500000D01*
X145510000Y-75953761D01*
X145626919Y-75837046D01*
X145784820Y-75456777D01*
X145785179Y-75045029D01*
X145627942Y-74664485D01*
X145337046Y-74373081D01*
X144956777Y-74215180D01*
X144545029Y-74214821D01*
X144164485Y-74372058D01*
X143873081Y-74662954D01*
X143715180Y-75043223D01*
X143714821Y-75454971D01*
X143872058Y-75835515D01*
X143990000Y-75953663D01*
X143990000Y-76185198D01*
X141460233Y-78714965D01*
X141295029Y-78714821D01*
X140914485Y-78872058D01*
X140623081Y-79162954D01*
X140465180Y-79543223D01*
X140464821Y-79954971D01*
X137060000Y-79954971D01*
X137060000Y-77466576D01*
X140147434Y-74378769D01*
X140235707Y-74246641D01*
X140312148Y-74132239D01*
X140312152Y-74132218D01*
X140312166Y-74132197D01*
X140341845Y-73982941D01*
X140370000Y-73841400D01*
X140370000Y-71322300D01*
X140312148Y-71031461D01*
X140147401Y-70784899D01*
X139662622Y-70300120D01*
X143325618Y-70300120D01*
X156603058Y-83577560D01*
G36*
X124427000Y-104373000D02*
X124447000Y-104373000D01*
X124447000Y-104627000D01*
X124427000Y-104627000D01*
X124427000Y-104647000D01*
X124173000Y-104647000D01*
X124173000Y-104627000D01*
X124153000Y-104627000D01*
X124153000Y-104373000D01*
X124173000Y-104373000D01*
X124173000Y-104353000D01*
X124427000Y-104353000D01*
X124427000Y-104373000D01*
X124427000Y-104373000D01*
G37*
X124427000Y-104373000D02*
X124447000Y-104373000D01*
X124447000Y-104627000D01*
X124427000Y-104627000D01*
X124427000Y-104647000D01*
X124173000Y-104647000D01*
X124173000Y-104627000D01*
X124153000Y-104627000D01*
X124153000Y-104373000D01*
X124173000Y-104373000D01*
X124173000Y-104353000D01*
X124427000Y-104353000D01*
X124427000Y-104373000D01*
G36*
X135378198Y-101917000D02*
X124147440Y-101917000D01*
X124147440Y-101335000D01*
X134796198Y-101335000D01*
X135378198Y-101917000D01*
X135378198Y-101917000D01*
G37*
X135378198Y-101917000D02*
X124147440Y-101917000D01*
X124147440Y-101335000D01*
X134796198Y-101335000D01*
X135378198Y-101917000D01*
G36*
X133448110Y-90096431D02*
X133540000Y-90115039D01*
X133540000Y-91885198D01*
X127685198Y-97740000D01*
X124147440Y-97740000D01*
X124147440Y-96900000D01*
X124103162Y-96664683D01*
X123996241Y-96498523D01*
X124096431Y-96351890D01*
X124147440Y-96100000D01*
X124147440Y-94900000D01*
X124103162Y-94664683D01*
X123996241Y-94498523D01*
X124096431Y-94351890D01*
X124147440Y-94100000D01*
X124147440Y-93185001D01*
X124453608Y-93185001D01*
X124744447Y-93127149D01*
X124991009Y-92962402D01*
X125443411Y-92510000D01*
X130386410Y-92510000D01*
X130677249Y-92452148D01*
X130923811Y-92287401D01*
X132837401Y-90373811D01*
X133001406Y-90128359D01*
X133135317Y-90103162D01*
X133301477Y-89996241D01*
X133448110Y-90096431D01*
X133448110Y-90096431D01*
G37*
X133448110Y-90096431D02*
X133540000Y-90115039D01*
X133540000Y-91885198D01*
X127685198Y-97740000D01*
X124147440Y-97740000D01*
X124147440Y-96900000D01*
X124103162Y-96664683D01*
X123996241Y-96498523D01*
X124096431Y-96351890D01*
X124147440Y-96100000D01*
X124147440Y-94900000D01*
X124103162Y-94664683D01*
X123996241Y-94498523D01*
X124096431Y-94351890D01*
X124147440Y-94100000D01*
X124147440Y-93185001D01*
X124453608Y-93185001D01*
X124744447Y-93127149D01*
X124991009Y-92962402D01*
X125443411Y-92510000D01*
X130386410Y-92510000D01*
X130677249Y-92452148D01*
X130923811Y-92287401D01*
X132837401Y-90373811D01*
X133001406Y-90128359D01*
X133135317Y-90103162D01*
X133301477Y-89996241D01*
X133448110Y-90096431D01*
G36*
X134165905Y-73219206D02*
X134053035Y-73533223D01*
X134080222Y-74103454D01*
X134246136Y-74504005D01*
X134492255Y-74578139D01*
X135320395Y-73750000D01*
X135306253Y-73735858D01*
X135485858Y-73556253D01*
X135500000Y-73570395D01*
X135514143Y-73556253D01*
X135693748Y-73735858D01*
X135679605Y-73750000D01*
X136113571Y-74183966D01*
X136246136Y-74504005D01*
X136492255Y-74578139D01*
X136500000Y-74570394D01*
X136507745Y-74578139D01*
X136753864Y-74504005D01*
X136859062Y-74211332D01*
X137320395Y-73750000D01*
X137306253Y-73735858D01*
X137485858Y-73556252D01*
X137500000Y-73570395D01*
X137514142Y-73556252D01*
X137693748Y-73735858D01*
X137679605Y-73750000D01*
X137693748Y-73764143D01*
X137514142Y-73943748D01*
X137500000Y-73929605D01*
X136671861Y-74757745D01*
X136745995Y-75003864D01*
X137207188Y-75169635D01*
X135762566Y-76614431D01*
X135678185Y-76740733D01*
X135597852Y-76860961D01*
X135597847Y-76860985D01*
X135597835Y-76861003D01*
X135569737Y-77002302D01*
X135540000Y-77151800D01*
X135540000Y-85939570D01*
X132312349Y-82712547D01*
X132189704Y-82630616D01*
X132065839Y-82547852D01*
X132065802Y-82547845D01*
X132065771Y-82547824D01*
X131921573Y-82519155D01*
X131850310Y-82504980D01*
X131844289Y-82500866D01*
X131901441Y-82464090D01*
X132046431Y-82251890D01*
X132097440Y-82000000D01*
X132097440Y-81500000D01*
X132053162Y-81264683D01*
X131914090Y-81048559D01*
X131760000Y-80943274D01*
X131760000Y-75564802D01*
X132567057Y-74757745D01*
X134671861Y-74757745D01*
X134745995Y-75003864D01*
X135283223Y-75196965D01*
X135853454Y-75169778D01*
X136254005Y-75003864D01*
X136328139Y-74757745D01*
X135500000Y-73929605D01*
X134671861Y-74757745D01*
X132567057Y-74757745D01*
X134123291Y-73201511D01*
X134165905Y-73219206D01*
X134165905Y-73219206D01*
G37*
X134165905Y-73219206D02*
X134053035Y-73533223D01*
X134080222Y-74103454D01*
X134246136Y-74504005D01*
X134492255Y-74578139D01*
X135320395Y-73750000D01*
X135306253Y-73735858D01*
X135485858Y-73556253D01*
X135500000Y-73570395D01*
X135514143Y-73556253D01*
X135693748Y-73735858D01*
X135679605Y-73750000D01*
X136113571Y-74183966D01*
X136246136Y-74504005D01*
X136492255Y-74578139D01*
X136500000Y-74570394D01*
X136507745Y-74578139D01*
X136753864Y-74504005D01*
X136859062Y-74211332D01*
X137320395Y-73750000D01*
X137306253Y-73735858D01*
X137485858Y-73556252D01*
X137500000Y-73570395D01*
X137514142Y-73556252D01*
X137693748Y-73735858D01*
X137679605Y-73750000D01*
X137693748Y-73764143D01*
X137514142Y-73943748D01*
X137500000Y-73929605D01*
X136671861Y-74757745D01*
X136745995Y-75003864D01*
X137207188Y-75169635D01*
X135762566Y-76614431D01*
X135678185Y-76740733D01*
X135597852Y-76860961D01*
X135597847Y-76860985D01*
X135597835Y-76861003D01*
X135569737Y-77002302D01*
X135540000Y-77151800D01*
X135540000Y-85939570D01*
X132312349Y-82712547D01*
X132189704Y-82630616D01*
X132065839Y-82547852D01*
X132065802Y-82547845D01*
X132065771Y-82547824D01*
X131921573Y-82519155D01*
X131850310Y-82504980D01*
X131844289Y-82500866D01*
X131901441Y-82464090D01*
X132046431Y-82251890D01*
X132097440Y-82000000D01*
X132097440Y-81500000D01*
X132053162Y-81264683D01*
X131914090Y-81048559D01*
X131760000Y-80943274D01*
X131760000Y-75564802D01*
X132567057Y-74757745D01*
X134671861Y-74757745D01*
X134745995Y-75003864D01*
X135283223Y-75196965D01*
X135853454Y-75169778D01*
X136254005Y-75003864D01*
X136328139Y-74757745D01*
X135500000Y-73929605D01*
X134671861Y-74757745D01*
X132567057Y-74757745D01*
X134123291Y-73201511D01*
X134165905Y-73219206D01*
G36*
X156153569Y-48713110D02*
X156102560Y-48965000D01*
X156102560Y-52965000D01*
X156146838Y-53200317D01*
X156285910Y-53416441D01*
X156498110Y-53561431D01*
X156750000Y-53612440D01*
X157240000Y-53612440D01*
X157240000Y-61127560D01*
X155500000Y-61127560D01*
X155264683Y-61171838D01*
X155048559Y-61310910D01*
X154903569Y-61523110D01*
X154852560Y-61775000D01*
X154852560Y-65775000D01*
X154896838Y-66010317D01*
X155035910Y-66226441D01*
X155248110Y-66371431D01*
X155500000Y-66422440D01*
X160065000Y-66422440D01*
X160065000Y-83577560D01*
X158977488Y-83577560D01*
X158927401Y-83502599D01*
X144207401Y-68782599D01*
X143960839Y-68617852D01*
X143670000Y-68560000D01*
X137960000Y-68560000D01*
X137960000Y-62960000D01*
X138000000Y-62960000D01*
X138271705Y-62905954D01*
X138502046Y-62752046D01*
X138655954Y-62521705D01*
X138710000Y-62250000D01*
X138710000Y-61918228D01*
X138771705Y-61905954D01*
X139002046Y-61752046D01*
X139155954Y-61521705D01*
X139210000Y-61250000D01*
X139210000Y-56638238D01*
X139347368Y-56631362D01*
X139731143Y-56472397D01*
X139800608Y-56230213D01*
X139000000Y-55429605D01*
X138985858Y-55443748D01*
X138806253Y-55264143D01*
X138820395Y-55250000D01*
X139179605Y-55250000D01*
X139980213Y-56050608D01*
X140222397Y-55981143D01*
X140409144Y-55457698D01*
X140381362Y-54902632D01*
X140222397Y-54518857D01*
X139980213Y-54449392D01*
X139179605Y-55250000D01*
X138820395Y-55250000D01*
X138806253Y-55235858D01*
X138985858Y-55056253D01*
X139000000Y-55070395D01*
X139800608Y-54269787D01*
X139731143Y-54027603D01*
X139207698Y-53840856D01*
X138652632Y-53868638D01*
X138268857Y-54027603D01*
X138199393Y-54269785D01*
X138084382Y-54154774D01*
X138077261Y-54161895D01*
X137569161Y-53652907D01*
X136876595Y-53365328D01*
X136126695Y-53364674D01*
X135433628Y-53651043D01*
X134922312Y-54161468D01*
X134915618Y-54154774D01*
X134800607Y-54269785D01*
X134731143Y-54027603D01*
X134207698Y-53840856D01*
X133652632Y-53868638D01*
X133268857Y-54027603D01*
X133199392Y-54269787D01*
X134000000Y-55070395D01*
X134014143Y-55056253D01*
X134193748Y-55235858D01*
X134179605Y-55250000D01*
X134193748Y-55264143D01*
X134014143Y-55443748D01*
X134000000Y-55429605D01*
X133199392Y-56230213D01*
X133268857Y-56472397D01*
X133790000Y-56658323D01*
X133790000Y-61250000D01*
X133844046Y-61521705D01*
X133997954Y-61752046D01*
X134228295Y-61905954D01*
X134290000Y-61918228D01*
X134290000Y-68560000D01*
X117624802Y-68560000D01*
X115712242Y-66647440D01*
X116500000Y-66647440D01*
X116735317Y-66603162D01*
X116951441Y-66464090D01*
X117096431Y-66251890D01*
X117147440Y-66000000D01*
X117147440Y-62000000D01*
X117103162Y-61764683D01*
X116964090Y-61548559D01*
X116751890Y-61403569D01*
X116500000Y-61352560D01*
X114760000Y-61352560D01*
X114760000Y-55042302D01*
X132590856Y-55042302D01*
X132618638Y-55597368D01*
X132777603Y-55981143D01*
X133019787Y-56050608D01*
X133820395Y-55250000D01*
X133019787Y-54449392D01*
X132777603Y-54518857D01*
X132590856Y-55042302D01*
X114760000Y-55042302D01*
X114760000Y-53837440D01*
X115250000Y-53837440D01*
X115485317Y-53793162D01*
X115701441Y-53654090D01*
X115846431Y-53441890D01*
X115897440Y-53190000D01*
X115897440Y-49190000D01*
X115853162Y-48954683D01*
X115714090Y-48738559D01*
X115672292Y-48710000D01*
X156155694Y-48710000D01*
X156153569Y-48713110D01*
X156153569Y-48713110D01*
G37*
X156153569Y-48713110D02*
X156102560Y-48965000D01*
X156102560Y-52965000D01*
X156146838Y-53200317D01*
X156285910Y-53416441D01*
X156498110Y-53561431D01*
X156750000Y-53612440D01*
X157240000Y-53612440D01*
X157240000Y-61127560D01*
X155500000Y-61127560D01*
X155264683Y-61171838D01*
X155048559Y-61310910D01*
X154903569Y-61523110D01*
X154852560Y-61775000D01*
X154852560Y-65775000D01*
X154896838Y-66010317D01*
X155035910Y-66226441D01*
X155248110Y-66371431D01*
X155500000Y-66422440D01*
X160065000Y-66422440D01*
X160065000Y-83577560D01*
X158977488Y-83577560D01*
X158927401Y-83502599D01*
X144207401Y-68782599D01*
X143960839Y-68617852D01*
X143670000Y-68560000D01*
X137960000Y-68560000D01*
X137960000Y-62960000D01*
X138000000Y-62960000D01*
X138271705Y-62905954D01*
X138502046Y-62752046D01*
X138655954Y-62521705D01*
X138710000Y-62250000D01*
X138710000Y-61918228D01*
X138771705Y-61905954D01*
X139002046Y-61752046D01*
X139155954Y-61521705D01*
X139210000Y-61250000D01*
X139210000Y-56638238D01*
X139347368Y-56631362D01*
X139731143Y-56472397D01*
X139800608Y-56230213D01*
X139000000Y-55429605D01*
X138985858Y-55443748D01*
X138806253Y-55264143D01*
X138820395Y-55250000D01*
X139179605Y-55250000D01*
X139980213Y-56050608D01*
X140222397Y-55981143D01*
X140409144Y-55457698D01*
X140381362Y-54902632D01*
X140222397Y-54518857D01*
X139980213Y-54449392D01*
X139179605Y-55250000D01*
X138820395Y-55250000D01*
X138806253Y-55235858D01*
X138985858Y-55056253D01*
X139000000Y-55070395D01*
X139800608Y-54269787D01*
X139731143Y-54027603D01*
X139207698Y-53840856D01*
X138652632Y-53868638D01*
X138268857Y-54027603D01*
X138199393Y-54269785D01*
X138084382Y-54154774D01*
X138077261Y-54161895D01*
X137569161Y-53652907D01*
X136876595Y-53365328D01*
X136126695Y-53364674D01*
X135433628Y-53651043D01*
X134922312Y-54161468D01*
X134915618Y-54154774D01*
X134800607Y-54269785D01*
X134731143Y-54027603D01*
X134207698Y-53840856D01*
X133652632Y-53868638D01*
X133268857Y-54027603D01*
X133199392Y-54269787D01*
X134000000Y-55070395D01*
X134014143Y-55056253D01*
X134193748Y-55235858D01*
X134179605Y-55250000D01*
X134193748Y-55264143D01*
X134014143Y-55443748D01*
X134000000Y-55429605D01*
X133199392Y-56230213D01*
X133268857Y-56472397D01*
X133790000Y-56658323D01*
X133790000Y-61250000D01*
X133844046Y-61521705D01*
X133997954Y-61752046D01*
X134228295Y-61905954D01*
X134290000Y-61918228D01*
X134290000Y-68560000D01*
X117624802Y-68560000D01*
X115712242Y-66647440D01*
X116500000Y-66647440D01*
X116735317Y-66603162D01*
X116951441Y-66464090D01*
X117096431Y-66251890D01*
X117147440Y-66000000D01*
X117147440Y-62000000D01*
X117103162Y-61764683D01*
X116964090Y-61548559D01*
X116751890Y-61403569D01*
X116500000Y-61352560D01*
X114760000Y-61352560D01*
X114760000Y-55042302D01*
X132590856Y-55042302D01*
X132618638Y-55597368D01*
X132777603Y-55981143D01*
X133019787Y-56050608D01*
X133820395Y-55250000D01*
X133019787Y-54449392D01*
X132777603Y-54518857D01*
X132590856Y-55042302D01*
X114760000Y-55042302D01*
X114760000Y-53837440D01*
X115250000Y-53837440D01*
X115485317Y-53793162D01*
X115701441Y-53654090D01*
X115846431Y-53441890D01*
X115897440Y-53190000D01*
X115897440Y-49190000D01*
X115853162Y-48954683D01*
X115714090Y-48738559D01*
X115672292Y-48710000D01*
X156155694Y-48710000D01*
X156153569Y-48713110D01*
G36*
X109559618Y-70802785D02*
X109708000Y-70832300D01*
X132658112Y-70832300D01*
X127762594Y-75727904D01*
X127688080Y-75839424D01*
X127597852Y-75974461D01*
X127597851Y-75974465D01*
X127597850Y-75974467D01*
X127582788Y-76050191D01*
X127540000Y-76265300D01*
X127540000Y-80981026D01*
X127501310Y-80965000D01*
X127285750Y-80965000D01*
X127127000Y-81123750D01*
X127127000Y-81873000D01*
X127147000Y-81873000D01*
X127147000Y-82127000D01*
X127127000Y-82127000D01*
X127127000Y-82147000D01*
X126873000Y-82147000D01*
X126873000Y-82127000D01*
X126148750Y-82127000D01*
X125990000Y-82285750D01*
X125990000Y-82526309D01*
X126078514Y-82740000D01*
X121473804Y-82740000D01*
X120207495Y-81473691D01*
X125990000Y-81473691D01*
X125990000Y-81714250D01*
X126148750Y-81873000D01*
X126873000Y-81873000D01*
X126873000Y-81123750D01*
X126714250Y-80965000D01*
X126498690Y-80965000D01*
X126265301Y-81061673D01*
X126086673Y-81240302D01*
X125990000Y-81473691D01*
X120207495Y-81473691D01*
X109530873Y-70797069D01*
X109559618Y-70802785D01*
X109559618Y-70802785D01*
G37*
X109559618Y-70802785D02*
X109708000Y-70832300D01*
X132658112Y-70832300D01*
X127762594Y-75727904D01*
X127688080Y-75839424D01*
X127597852Y-75974461D01*
X127597851Y-75974465D01*
X127597850Y-75974467D01*
X127582788Y-76050191D01*
X127540000Y-76265300D01*
X127540000Y-80981026D01*
X127501310Y-80965000D01*
X127285750Y-80965000D01*
X127127000Y-81123750D01*
X127127000Y-81873000D01*
X127147000Y-81873000D01*
X127147000Y-82127000D01*
X127127000Y-82127000D01*
X127127000Y-82147000D01*
X126873000Y-82147000D01*
X126873000Y-82127000D01*
X126148750Y-82127000D01*
X125990000Y-82285750D01*
X125990000Y-82526309D01*
X126078514Y-82740000D01*
X121473804Y-82740000D01*
X120207495Y-81473691D01*
X125990000Y-81473691D01*
X125990000Y-81714250D01*
X126148750Y-81873000D01*
X126873000Y-81873000D01*
X126873000Y-81123750D01*
X126714250Y-80965000D01*
X126498690Y-80965000D01*
X126265301Y-81061673D01*
X126086673Y-81240302D01*
X125990000Y-81473691D01*
X120207495Y-81473691D01*
X109530873Y-70797069D01*
X109559618Y-70802785D01*
G36*
X110426798Y-77251600D02*
X104939812Y-77251600D01*
X104678618Y-76990395D01*
X104881358Y-76895183D01*
X105271645Y-76466924D01*
X105441476Y-76056890D01*
X105320155Y-75827000D01*
X104127000Y-75827000D01*
X104127000Y-75847000D01*
X103873000Y-75847000D01*
X103873000Y-75827000D01*
X103853000Y-75827000D01*
X103853000Y-75573000D01*
X103873000Y-75573000D01*
X103873000Y-75553000D01*
X104127000Y-75553000D01*
X104127000Y-75573000D01*
X105320155Y-75573000D01*
X105441476Y-75343110D01*
X105417407Y-75284999D01*
X108460197Y-75284999D01*
X110426798Y-77251600D01*
X110426798Y-77251600D01*
G37*
X110426798Y-77251600D02*
X104939812Y-77251600D01*
X104678618Y-76990395D01*
X104881358Y-76895183D01*
X105271645Y-76466924D01*
X105441476Y-76056890D01*
X105320155Y-75827000D01*
X104127000Y-75827000D01*
X104127000Y-75847000D01*
X103873000Y-75847000D01*
X103873000Y-75827000D01*
X103853000Y-75827000D01*
X103853000Y-75573000D01*
X103873000Y-75573000D01*
X103873000Y-75553000D01*
X104127000Y-75553000D01*
X104127000Y-75573000D01*
X105320155Y-75573000D01*
X105441476Y-75343110D01*
X105417407Y-75284999D01*
X108460197Y-75284999D01*
X110426798Y-77251600D01*
G36*
X169240000Y-61064802D02*
X169240000Y-61641975D01*
X169209698Y-61611673D01*
X168976309Y-61515000D01*
X168285750Y-61515000D01*
X168127000Y-61673750D01*
X168127000Y-62873000D01*
X168147000Y-62873000D01*
X168147000Y-63127000D01*
X168127000Y-63127000D01*
X168127000Y-63147000D01*
X167873000Y-63147000D01*
X167873000Y-63127000D01*
X166673750Y-63127000D01*
X166515000Y-63285750D01*
X166515000Y-63976310D01*
X166611673Y-64209699D01*
X166790302Y-64388327D01*
X166964777Y-64460597D01*
X166920853Y-64489946D01*
X166598946Y-64971715D01*
X166485907Y-65540000D01*
X166598946Y-66108285D01*
X166920853Y-66590054D01*
X167250026Y-66810000D01*
X166920853Y-67029946D01*
X166598946Y-67511715D01*
X166485907Y-68080000D01*
X166598946Y-68648285D01*
X166825764Y-68987743D01*
X161585000Y-74228690D01*
X161585000Y-65448359D01*
X161793223Y-65534820D01*
X162204971Y-65535179D01*
X162585515Y-65377942D01*
X162876919Y-65087046D01*
X163034820Y-64706777D01*
X163034966Y-64539836D01*
X165551112Y-62023690D01*
X166515000Y-62023690D01*
X166515000Y-62714250D01*
X166673750Y-62873000D01*
X167873000Y-62873000D01*
X167873000Y-61673750D01*
X167714250Y-61515000D01*
X167023691Y-61515000D01*
X166790302Y-61611673D01*
X166611673Y-61790301D01*
X166515000Y-62023690D01*
X165551112Y-62023690D01*
X166564802Y-61010000D01*
X169185198Y-61010000D01*
X169240000Y-61064802D01*
X169240000Y-61064802D01*
G37*
X169240000Y-61064802D02*
X169240000Y-61641975D01*
X169209698Y-61611673D01*
X168976309Y-61515000D01*
X168285750Y-61515000D01*
X168127000Y-61673750D01*
X168127000Y-62873000D01*
X168147000Y-62873000D01*
X168147000Y-63127000D01*
X168127000Y-63127000D01*
X168127000Y-63147000D01*
X167873000Y-63147000D01*
X167873000Y-63127000D01*
X166673750Y-63127000D01*
X166515000Y-63285750D01*
X166515000Y-63976310D01*
X166611673Y-64209699D01*
X166790302Y-64388327D01*
X166964777Y-64460597D01*
X166920853Y-64489946D01*
X166598946Y-64971715D01*
X166485907Y-65540000D01*
X166598946Y-66108285D01*
X166920853Y-66590054D01*
X167250026Y-66810000D01*
X166920853Y-67029946D01*
X166598946Y-67511715D01*
X166485907Y-68080000D01*
X166598946Y-68648285D01*
X166825764Y-68987743D01*
X161585000Y-74228690D01*
X161585000Y-65448359D01*
X161793223Y-65534820D01*
X162204971Y-65535179D01*
X162585515Y-65377942D01*
X162876919Y-65087046D01*
X163034820Y-64706777D01*
X163034966Y-64539836D01*
X165551112Y-62023690D01*
X166515000Y-62023690D01*
X166515000Y-62714250D01*
X166673750Y-62873000D01*
X167873000Y-62873000D01*
X167873000Y-61673750D01*
X167714250Y-61515000D01*
X167023691Y-61515000D01*
X166790302Y-61611673D01*
X166611673Y-61790301D01*
X166515000Y-62023690D01*
X165551112Y-62023690D01*
X166564802Y-61010000D01*
X169185198Y-61010000D01*
X169240000Y-61064802D01*
G36*
X136693748Y-71735858D02*
X136679605Y-71750000D01*
X136693748Y-71764143D01*
X136514143Y-71943748D01*
X136500000Y-71929605D01*
X136485858Y-71943748D01*
X136306253Y-71764143D01*
X136320395Y-71750000D01*
X136306253Y-71735858D01*
X136485858Y-71556253D01*
X136500000Y-71570395D01*
X136514143Y-71556253D01*
X136693748Y-71735858D01*
X136693748Y-71735858D01*
G37*
X136693748Y-71735858D02*
X136679605Y-71750000D01*
X136693748Y-71764143D01*
X136514143Y-71943748D01*
X136500000Y-71929605D01*
X136485858Y-71943748D01*
X136306253Y-71764143D01*
X136320395Y-71750000D01*
X136306253Y-71735858D01*
X136485858Y-71556253D01*
X136500000Y-71570395D01*
X136514143Y-71556253D01*
X136693748Y-71735858D01*
G36*
X151152560Y-35900000D02*
X151152560Y-36800000D01*
X151196838Y-37035317D01*
X151335910Y-37251441D01*
X151548110Y-37396431D01*
X151800000Y-37447440D01*
X152639563Y-37447440D01*
X152734160Y-37510648D01*
X152985926Y-37560728D01*
X154715198Y-39290000D01*
X154000000Y-39290000D01*
X153931416Y-39303642D01*
X153478804Y-39379762D01*
X153406632Y-39409657D01*
X153222862Y-39485777D01*
X153194567Y-39504683D01*
X153335000Y-39364250D01*
X153335000Y-39073690D01*
X153238327Y-38840301D01*
X153059698Y-38661673D01*
X152826309Y-38565000D01*
X152535750Y-38565000D01*
X152377000Y-38723750D01*
X152377000Y-39523000D01*
X152397000Y-39523000D01*
X152397000Y-39777000D01*
X152377000Y-39777000D01*
X152377000Y-40492690D01*
X152303642Y-40861486D01*
X152303642Y-40861487D01*
X152255074Y-41105655D01*
X152195225Y-41195226D01*
X152105655Y-41255074D01*
X151930070Y-41290000D01*
X151649802Y-41290000D01*
X150295552Y-39935750D01*
X151165000Y-39935750D01*
X151165000Y-40226310D01*
X151261673Y-40459699D01*
X151440302Y-40638327D01*
X151673691Y-40735000D01*
X151964250Y-40735000D01*
X152123000Y-40576250D01*
X152123000Y-39777000D01*
X151323750Y-39777000D01*
X151165000Y-39935750D01*
X150295552Y-39935750D01*
X150061000Y-39701198D01*
X150061000Y-39073690D01*
X151165000Y-39073690D01*
X151165000Y-39364250D01*
X151323750Y-39523000D01*
X152123000Y-39523000D01*
X152123000Y-38723750D01*
X151964250Y-38565000D01*
X151673691Y-38565000D01*
X151440302Y-38661673D01*
X151261673Y-38840301D01*
X151165000Y-39073690D01*
X150061000Y-39073690D01*
X150061000Y-38601000D01*
X150040503Y-38497954D01*
X150003148Y-38310160D01*
X149838401Y-38063599D01*
X148801527Y-37026725D01*
X148847440Y-36800000D01*
X148847440Y-35900000D01*
X148811689Y-35710000D01*
X151191036Y-35710000D01*
X151152560Y-35900000D01*
X151152560Y-35900000D01*
G37*
X151152560Y-35900000D02*
X151152560Y-36800000D01*
X151196838Y-37035317D01*
X151335910Y-37251441D01*
X151548110Y-37396431D01*
X151800000Y-37447440D01*
X152639563Y-37447440D01*
X152734160Y-37510648D01*
X152985926Y-37560728D01*
X154715198Y-39290000D01*
X154000000Y-39290000D01*
X153931416Y-39303642D01*
X153478804Y-39379762D01*
X153406632Y-39409657D01*
X153222862Y-39485777D01*
X153194567Y-39504683D01*
X153335000Y-39364250D01*
X153335000Y-39073690D01*
X153238327Y-38840301D01*
X153059698Y-38661673D01*
X152826309Y-38565000D01*
X152535750Y-38565000D01*
X152377000Y-38723750D01*
X152377000Y-39523000D01*
X152397000Y-39523000D01*
X152397000Y-39777000D01*
X152377000Y-39777000D01*
X152377000Y-40492690D01*
X152303642Y-40861486D01*
X152303642Y-40861487D01*
X152255074Y-41105655D01*
X152195225Y-41195226D01*
X152105655Y-41255074D01*
X151930070Y-41290000D01*
X151649802Y-41290000D01*
X150295552Y-39935750D01*
X151165000Y-39935750D01*
X151165000Y-40226310D01*
X151261673Y-40459699D01*
X151440302Y-40638327D01*
X151673691Y-40735000D01*
X151964250Y-40735000D01*
X152123000Y-40576250D01*
X152123000Y-39777000D01*
X151323750Y-39777000D01*
X151165000Y-39935750D01*
X150295552Y-39935750D01*
X150061000Y-39701198D01*
X150061000Y-39073690D01*
X151165000Y-39073690D01*
X151165000Y-39364250D01*
X151323750Y-39523000D01*
X152123000Y-39523000D01*
X152123000Y-38723750D01*
X151964250Y-38565000D01*
X151673691Y-38565000D01*
X151440302Y-38661673D01*
X151261673Y-38840301D01*
X151165000Y-39073690D01*
X150061000Y-39073690D01*
X150061000Y-38601000D01*
X150040503Y-38497954D01*
X150003148Y-38310160D01*
X149838401Y-38063599D01*
X148801527Y-37026725D01*
X148847440Y-36800000D01*
X148847440Y-35900000D01*
X148811689Y-35710000D01*
X151191036Y-35710000D01*
X151152560Y-35900000D01*
G36*
X122438551Y-37787353D02*
X122438580Y-37787372D01*
X122438599Y-37787401D01*
X122561179Y-37869306D01*
X122685098Y-37952122D01*
X122685132Y-37952129D01*
X122685161Y-37952148D01*
X122830204Y-37980999D01*
X122975932Y-38010000D01*
X122975966Y-38009993D01*
X122976000Y-38010000D01*
X127578514Y-38010000D01*
X127490000Y-38223691D01*
X127490000Y-38464250D01*
X127648750Y-38623000D01*
X128373000Y-38623000D01*
X128373000Y-38603000D01*
X128627000Y-38603000D01*
X128627000Y-38623000D01*
X129351250Y-38623000D01*
X129510000Y-38464250D01*
X129510000Y-38285009D01*
X129704971Y-38285179D01*
X130085515Y-38127942D01*
X130376919Y-37837046D01*
X130534820Y-37456777D01*
X130534908Y-37355961D01*
X130885441Y-37355961D01*
X130561897Y-37840179D01*
X130536336Y-37901890D01*
X130455883Y-38096119D01*
X130303642Y-38861486D01*
X130303643Y-39000000D01*
X130303642Y-39138514D01*
X130455883Y-39903881D01*
X130471192Y-39940839D01*
X130561897Y-40159821D01*
X130995442Y-40808668D01*
X131191332Y-41004558D01*
X131618526Y-41290000D01*
X120069930Y-41290000D01*
X119894345Y-41255074D01*
X119804774Y-41195225D01*
X119744926Y-41105655D01*
X119696358Y-40861487D01*
X119696358Y-40861486D01*
X119673673Y-40747440D01*
X120200000Y-40747440D01*
X120435317Y-40703162D01*
X120651441Y-40564090D01*
X120796431Y-40351890D01*
X120847440Y-40100000D01*
X120847440Y-39935750D01*
X123165000Y-39935750D01*
X123165000Y-40226310D01*
X123261673Y-40459699D01*
X123440302Y-40638327D01*
X123673691Y-40735000D01*
X123964250Y-40735000D01*
X124123000Y-40576250D01*
X124123000Y-39777000D01*
X124377000Y-39777000D01*
X124377000Y-40576250D01*
X124535750Y-40735000D01*
X124826309Y-40735000D01*
X125059698Y-40638327D01*
X125238327Y-40459699D01*
X125335000Y-40226310D01*
X125335000Y-39935750D01*
X125176250Y-39777000D01*
X124377000Y-39777000D01*
X124123000Y-39777000D01*
X123323750Y-39777000D01*
X123165000Y-39935750D01*
X120847440Y-39935750D01*
X120847440Y-39200000D01*
X120823674Y-39073690D01*
X123165000Y-39073690D01*
X123165000Y-39364250D01*
X123323750Y-39523000D01*
X124123000Y-39523000D01*
X124123000Y-38723750D01*
X124377000Y-38723750D01*
X124377000Y-39523000D01*
X125176250Y-39523000D01*
X125335000Y-39364250D01*
X125335000Y-39073690D01*
X125319285Y-39035750D01*
X127490000Y-39035750D01*
X127490000Y-39276309D01*
X127586673Y-39509698D01*
X127765301Y-39688327D01*
X127998690Y-39785000D01*
X128214250Y-39785000D01*
X128373000Y-39626250D01*
X128373000Y-38877000D01*
X128627000Y-38877000D01*
X128627000Y-39626250D01*
X128785750Y-39785000D01*
X129001310Y-39785000D01*
X129234699Y-39688327D01*
X129413327Y-39509698D01*
X129510000Y-39276309D01*
X129510000Y-39035750D01*
X129351250Y-38877000D01*
X128627000Y-38877000D01*
X128373000Y-38877000D01*
X127648750Y-38877000D01*
X127490000Y-39035750D01*
X125319285Y-39035750D01*
X125238327Y-38840301D01*
X125059698Y-38661673D01*
X124826309Y-38565000D01*
X124535750Y-38565000D01*
X124377000Y-38723750D01*
X124123000Y-38723750D01*
X123964250Y-38565000D01*
X123673691Y-38565000D01*
X123440302Y-38661673D01*
X123261673Y-38840301D01*
X123165000Y-39073690D01*
X120823674Y-39073690D01*
X120803162Y-38964683D01*
X120664090Y-38748559D01*
X120451890Y-38603569D01*
X120200000Y-38552560D01*
X119300000Y-38552560D01*
X119064683Y-38596838D01*
X118848559Y-38735910D01*
X118703569Y-38948110D01*
X118652560Y-39200000D01*
X118652560Y-39434175D01*
X118593368Y-39409657D01*
X118521196Y-39379762D01*
X118238543Y-39323539D01*
X119676799Y-37885300D01*
X119750000Y-37885300D01*
X120040839Y-37827448D01*
X120287401Y-37662701D01*
X120452148Y-37416139D01*
X120457579Y-37388837D01*
X120651441Y-37264090D01*
X120793129Y-37056723D01*
X120815523Y-37052279D01*
X120815668Y-37052182D01*
X120815839Y-37052148D01*
X120937957Y-36970552D01*
X121062159Y-36887644D01*
X121300710Y-36649308D01*
X122438551Y-37787353D01*
X122438551Y-37787353D01*
G37*
X122438551Y-37787353D02*
X122438580Y-37787372D01*
X122438599Y-37787401D01*
X122561179Y-37869306D01*
X122685098Y-37952122D01*
X122685132Y-37952129D01*
X122685161Y-37952148D01*
X122830204Y-37980999D01*
X122975932Y-38010000D01*
X122975966Y-38009993D01*
X122976000Y-38010000D01*
X127578514Y-38010000D01*
X127490000Y-38223691D01*
X127490000Y-38464250D01*
X127648750Y-38623000D01*
X128373000Y-38623000D01*
X128373000Y-38603000D01*
X128627000Y-38603000D01*
X128627000Y-38623000D01*
X129351250Y-38623000D01*
X129510000Y-38464250D01*
X129510000Y-38285009D01*
X129704971Y-38285179D01*
X130085515Y-38127942D01*
X130376919Y-37837046D01*
X130534820Y-37456777D01*
X130534908Y-37355961D01*
X130885441Y-37355961D01*
X130561897Y-37840179D01*
X130536336Y-37901890D01*
X130455883Y-38096119D01*
X130303642Y-38861486D01*
X130303643Y-39000000D01*
X130303642Y-39138514D01*
X130455883Y-39903881D01*
X130471192Y-39940839D01*
X130561897Y-40159821D01*
X130995442Y-40808668D01*
X131191332Y-41004558D01*
X131618526Y-41290000D01*
X120069930Y-41290000D01*
X119894345Y-41255074D01*
X119804774Y-41195225D01*
X119744926Y-41105655D01*
X119696358Y-40861487D01*
X119696358Y-40861486D01*
X119673673Y-40747440D01*
X120200000Y-40747440D01*
X120435317Y-40703162D01*
X120651441Y-40564090D01*
X120796431Y-40351890D01*
X120847440Y-40100000D01*
X120847440Y-39935750D01*
X123165000Y-39935750D01*
X123165000Y-40226310D01*
X123261673Y-40459699D01*
X123440302Y-40638327D01*
X123673691Y-40735000D01*
X123964250Y-40735000D01*
X124123000Y-40576250D01*
X124123000Y-39777000D01*
X124377000Y-39777000D01*
X124377000Y-40576250D01*
X124535750Y-40735000D01*
X124826309Y-40735000D01*
X125059698Y-40638327D01*
X125238327Y-40459699D01*
X125335000Y-40226310D01*
X125335000Y-39935750D01*
X125176250Y-39777000D01*
X124377000Y-39777000D01*
X124123000Y-39777000D01*
X123323750Y-39777000D01*
X123165000Y-39935750D01*
X120847440Y-39935750D01*
X120847440Y-39200000D01*
X120823674Y-39073690D01*
X123165000Y-39073690D01*
X123165000Y-39364250D01*
X123323750Y-39523000D01*
X124123000Y-39523000D01*
X124123000Y-38723750D01*
X124377000Y-38723750D01*
X124377000Y-39523000D01*
X125176250Y-39523000D01*
X125335000Y-39364250D01*
X125335000Y-39073690D01*
X125319285Y-39035750D01*
X127490000Y-39035750D01*
X127490000Y-39276309D01*
X127586673Y-39509698D01*
X127765301Y-39688327D01*
X127998690Y-39785000D01*
X128214250Y-39785000D01*
X128373000Y-39626250D01*
X128373000Y-38877000D01*
X128627000Y-38877000D01*
X128627000Y-39626250D01*
X128785750Y-39785000D01*
X129001310Y-39785000D01*
X129234699Y-39688327D01*
X129413327Y-39509698D01*
X129510000Y-39276309D01*
X129510000Y-39035750D01*
X129351250Y-38877000D01*
X128627000Y-38877000D01*
X128373000Y-38877000D01*
X127648750Y-38877000D01*
X127490000Y-39035750D01*
X125319285Y-39035750D01*
X125238327Y-38840301D01*
X125059698Y-38661673D01*
X124826309Y-38565000D01*
X124535750Y-38565000D01*
X124377000Y-38723750D01*
X124123000Y-38723750D01*
X123964250Y-38565000D01*
X123673691Y-38565000D01*
X123440302Y-38661673D01*
X123261673Y-38840301D01*
X123165000Y-39073690D01*
X120823674Y-39073690D01*
X120803162Y-38964683D01*
X120664090Y-38748559D01*
X120451890Y-38603569D01*
X120200000Y-38552560D01*
X119300000Y-38552560D01*
X119064683Y-38596838D01*
X118848559Y-38735910D01*
X118703569Y-38948110D01*
X118652560Y-39200000D01*
X118652560Y-39434175D01*
X118593368Y-39409657D01*
X118521196Y-39379762D01*
X118238543Y-39323539D01*
X119676799Y-37885300D01*
X119750000Y-37885300D01*
X120040839Y-37827448D01*
X120287401Y-37662701D01*
X120452148Y-37416139D01*
X120457579Y-37388837D01*
X120651441Y-37264090D01*
X120793129Y-37056723D01*
X120815523Y-37052279D01*
X120815668Y-37052182D01*
X120815839Y-37052148D01*
X120937957Y-36970552D01*
X121062159Y-36887644D01*
X121300710Y-36649308D01*
X122438551Y-37787353D01*
M02*
