G04 #@! TF.GenerationSoftware,KiCad,Pcbnew,(2017-07-14 revision d3b382c28)-master*
G04 #@! TF.CreationDate,2017-07-20T02:25:39-04:00*
G04 #@! TF.ProjectId,MAGLabs-2017-Swadges,4D41474C6162732D323031372D537761,rev?*
G04 #@! TF.SameCoordinates,Original
G04 #@! TF.FileFunction,Legend,Top*
G04 #@! TF.FilePolarity,Positive*
%FSLAX46Y46*%
G04 Gerber Fmt 4.6, Leading zero omitted, Abs format (unit mm)*
G04 Created by KiCad (PCBNEW (2017-07-14 revision d3b382c28)-master) date Thu Jul 20 02:25:39 2017*
%MOMM*%
%LPD*%
G01*
G04 APERTURE LIST*
%ADD10C,0.120000*%
%ADD11C,0.150000*%
G04 APERTURE END LIST*
D10*
X147320000Y-112500000D02*
X147320000Y-111500000D01*
X148680000Y-111500000D02*
X148680000Y-112500000D01*
X147180000Y-111500000D02*
X147180000Y-112500000D01*
X145820000Y-112500000D02*
X145820000Y-111500000D01*
X145680000Y-111500000D02*
X145680000Y-112500000D01*
X144320000Y-112500000D02*
X144320000Y-111500000D01*
D11*
X151000000Y-101000000D02*
X151000000Y-49000000D01*
X165000000Y-101000000D02*
X151000000Y-101000000D01*
X165000000Y-49000000D02*
X165000000Y-101000000D01*
X151000000Y-49000000D02*
X165000000Y-49000000D01*
X157500000Y-115000000D02*
G75*
G03X157500000Y-115000000I-2000000J0D01*
G01*
X152500000Y-118000000D02*
X152500000Y-112000000D01*
X152500000Y-112000000D02*
X158500000Y-112000000D01*
X158500000Y-112000000D02*
X158500000Y-118000000D01*
X158500000Y-118000000D02*
X152500000Y-118000000D01*
X153750000Y-129500000D02*
G75*
G03X153750000Y-129500000I-2000000J0D01*
G01*
X148750000Y-132500000D02*
X148750000Y-126500000D01*
X148750000Y-126500000D02*
X154750000Y-126500000D01*
X154750000Y-126500000D02*
X154750000Y-132500000D01*
X154750000Y-132500000D02*
X148750000Y-132500000D01*
X147000000Y-149000000D02*
G75*
G03X147000000Y-149000000I-2000000J0D01*
G01*
X142000000Y-152000000D02*
X142000000Y-146000000D01*
X142000000Y-146000000D02*
X148000000Y-146000000D01*
X148000000Y-146000000D02*
X148000000Y-152000000D01*
X148000000Y-152000000D02*
X142000000Y-152000000D01*
X129000000Y-149000000D02*
G75*
G03X129000000Y-149000000I-2000000J0D01*
G01*
X124000000Y-152000000D02*
X124000000Y-146000000D01*
X124000000Y-146000000D02*
X130000000Y-146000000D01*
X130000000Y-146000000D02*
X130000000Y-152000000D01*
X130000000Y-152000000D02*
X124000000Y-152000000D01*
X136000000Y-123000000D02*
G75*
G03X136000000Y-123000000I-2000000J0D01*
G01*
X131000000Y-126000000D02*
X131000000Y-120000000D01*
X131000000Y-120000000D02*
X137000000Y-120000000D01*
X137000000Y-120000000D02*
X137000000Y-126000000D01*
X137000000Y-126000000D02*
X131000000Y-126000000D01*
X126000000Y-132000000D02*
G75*
G03X126000000Y-132000000I-2000000J0D01*
G01*
X121000000Y-135000000D02*
X121000000Y-129000000D01*
X121000000Y-129000000D02*
X127000000Y-129000000D01*
X127000000Y-129000000D02*
X127000000Y-135000000D01*
X127000000Y-135000000D02*
X121000000Y-135000000D01*
X126000000Y-114000000D02*
G75*
G03X126000000Y-114000000I-2000000J0D01*
G01*
X121000000Y-117000000D02*
X121000000Y-111000000D01*
X121000000Y-111000000D02*
X127000000Y-111000000D01*
X127000000Y-111000000D02*
X127000000Y-117000000D01*
X127000000Y-117000000D02*
X121000000Y-117000000D01*
X116000000Y-123000000D02*
G75*
G03X116000000Y-123000000I-2000000J0D01*
G01*
X111000000Y-126000000D02*
X111000000Y-120000000D01*
X111000000Y-120000000D02*
X117000000Y-120000000D01*
X117000000Y-120000000D02*
X117000000Y-126000000D01*
X117000000Y-126000000D02*
X111000000Y-126000000D01*
X107000000Y-49225000D02*
X121000000Y-49225000D01*
X121000000Y-49225000D02*
X121000000Y-101225000D01*
X121000000Y-101225000D02*
X107000000Y-101225000D01*
X107000000Y-101225000D02*
X107000000Y-49225000D01*
D10*
X122400000Y-82850000D02*
X122400000Y-82150000D01*
X123600000Y-82150000D02*
X123600000Y-82850000D01*
X129600000Y-82150000D02*
X129600000Y-82850000D01*
X128400000Y-82850000D02*
X128400000Y-82150000D01*
X124400000Y-82850000D02*
X124400000Y-82150000D01*
X125600000Y-82150000D02*
X125600000Y-82850000D01*
X127600000Y-82150000D02*
X127600000Y-82850000D01*
X126400000Y-82850000D02*
X126400000Y-82150000D01*
X129150000Y-113750000D02*
X130850000Y-113750000D01*
X130850000Y-113750000D02*
X130850000Y-111200000D01*
X129150000Y-113750000D02*
X129150000Y-111200000D01*
X131150000Y-113750000D02*
X132850000Y-113750000D01*
X132850000Y-113750000D02*
X132850000Y-111200000D01*
X131150000Y-113750000D02*
X131150000Y-111200000D01*
X134850000Y-110750000D02*
X134850000Y-113300000D01*
X133150000Y-110750000D02*
X133150000Y-113300000D01*
X134850000Y-110750000D02*
X133150000Y-110750000D01*
D11*
X115750000Y-108000000D02*
X112250000Y-108000000D01*
X112250000Y-108000000D02*
X112250000Y-104000000D01*
X112250000Y-104000000D02*
X115750000Y-104000000D01*
X115750000Y-104000000D02*
X115750000Y-108000000D01*
X159750000Y-104000000D02*
X159750000Y-108000000D01*
X156250000Y-104000000D02*
X159750000Y-104000000D01*
X156250000Y-108000000D02*
X156250000Y-104000000D01*
X159750000Y-108000000D02*
X156250000Y-108000000D01*
X148250000Y-36000000D02*
X151750000Y-36000000D01*
X151750000Y-36000000D02*
X151750000Y-40000000D01*
X151750000Y-40000000D02*
X148250000Y-40000000D01*
X148250000Y-40000000D02*
X148250000Y-36000000D01*
X120250000Y-40000000D02*
X120250000Y-36000000D01*
X123750000Y-40000000D02*
X120250000Y-40000000D01*
X123750000Y-36000000D02*
X123750000Y-40000000D01*
X120250000Y-36000000D02*
X123750000Y-36000000D01*
D10*
X136850000Y-110750000D02*
X136850000Y-113300000D01*
X135150000Y-110750000D02*
X135150000Y-113300000D01*
X136850000Y-110750000D02*
X135150000Y-110750000D01*
X138850000Y-110750000D02*
X137150000Y-110750000D01*
X137150000Y-110750000D02*
X137150000Y-113300000D01*
X138850000Y-110750000D02*
X138850000Y-113300000D01*
X139150000Y-113750000D02*
X139150000Y-111200000D01*
X140850000Y-113750000D02*
X140850000Y-111200000D01*
X139150000Y-113750000D02*
X140850000Y-113750000D01*
X102670000Y-61670000D02*
X104000000Y-61670000D01*
X102670000Y-63000000D02*
X102670000Y-61670000D01*
X102670000Y-64270000D02*
X105330000Y-64270000D01*
X105330000Y-64270000D02*
X105330000Y-77030000D01*
X102670000Y-64270000D02*
X102670000Y-77030000D01*
X102670000Y-77030000D02*
X105330000Y-77030000D01*
X166670000Y-61670000D02*
X168000000Y-61670000D01*
X166670000Y-63000000D02*
X166670000Y-61670000D01*
X166670000Y-64270000D02*
X169330000Y-64270000D01*
X169330000Y-64270000D02*
X169330000Y-74490000D01*
X166670000Y-64270000D02*
X166670000Y-74490000D01*
X166670000Y-74490000D02*
X169330000Y-74490000D01*
X131680000Y-82000000D02*
X131680000Y-83000000D01*
X130320000Y-83000000D02*
X130320000Y-82000000D01*
X144180000Y-111500000D02*
X144180000Y-112500000D01*
X142820000Y-112500000D02*
X142820000Y-111500000D01*
X141320000Y-112500000D02*
X141320000Y-111500000D01*
X142680000Y-111500000D02*
X142680000Y-112500000D01*
D11*
X146500000Y-104500000D02*
X146500000Y-88500000D01*
X122500000Y-104500000D02*
X146500000Y-104500000D01*
X122500000Y-88500000D02*
X122500000Y-104500000D01*
X146500000Y-88500000D02*
X122500000Y-88500000D01*
X139500000Y-88500000D02*
X139500000Y-104500000D01*
X139500000Y-90500000D02*
X145500000Y-90500000D01*
X141500000Y-99500000D02*
X145500000Y-99500000D01*
X141500000Y-98000000D02*
X141500000Y-99500000D01*
X145500000Y-98000000D02*
X141500000Y-98000000D01*
X145500000Y-96500000D02*
X145500000Y-98000000D01*
X141500000Y-96500000D02*
X145500000Y-96500000D01*
X141500000Y-95000000D02*
X141500000Y-96500000D01*
X145500000Y-95000000D02*
X141500000Y-95000000D01*
X145500000Y-93500000D02*
X145500000Y-95000000D01*
X141500000Y-93500000D02*
X145500000Y-93500000D01*
X141500000Y-92000000D02*
X141500000Y-93500000D01*
X145500000Y-92000000D02*
X141500000Y-92000000D01*
X145500000Y-90500000D02*
X145500000Y-92000000D01*
X140500000Y-90500000D02*
X140500000Y-99500000D01*
X145500000Y-99500000D02*
X145500000Y-103000000D01*
X148452380Y-109916666D02*
X147976190Y-110250000D01*
X148452380Y-110488095D02*
X147452380Y-110488095D01*
X147452380Y-110107142D01*
X147500000Y-110011904D01*
X147547619Y-109964285D01*
X147642857Y-109916666D01*
X147785714Y-109916666D01*
X147880952Y-109964285D01*
X147928571Y-110011904D01*
X147976190Y-110107142D01*
X147976190Y-110488095D01*
X147452380Y-109059523D02*
X147452380Y-109250000D01*
X147500000Y-109345238D01*
X147547619Y-109392857D01*
X147690476Y-109488095D01*
X147880952Y-109535714D01*
X148261904Y-109535714D01*
X148357142Y-109488095D01*
X148404761Y-109440476D01*
X148452380Y-109345238D01*
X148452380Y-109154761D01*
X148404761Y-109059523D01*
X148357142Y-109011904D01*
X148261904Y-108964285D01*
X148023809Y-108964285D01*
X147928571Y-109011904D01*
X147880952Y-109059523D01*
X147833333Y-109154761D01*
X147833333Y-109345238D01*
X147880952Y-109440476D01*
X147928571Y-109488095D01*
X148023809Y-109535714D01*
X146952380Y-109916666D02*
X146476190Y-110250000D01*
X146952380Y-110488095D02*
X145952380Y-110488095D01*
X145952380Y-110107142D01*
X146000000Y-110011904D01*
X146047619Y-109964285D01*
X146142857Y-109916666D01*
X146285714Y-109916666D01*
X146380952Y-109964285D01*
X146428571Y-110011904D01*
X146476190Y-110107142D01*
X146476190Y-110488095D01*
X146285714Y-109059523D02*
X146952380Y-109059523D01*
X145904761Y-109297619D02*
X146619047Y-109535714D01*
X146619047Y-108916666D01*
X145452380Y-109916666D02*
X144976190Y-110250000D01*
X145452380Y-110488095D02*
X144452380Y-110488095D01*
X144452380Y-110107142D01*
X144500000Y-110011904D01*
X144547619Y-109964285D01*
X144642857Y-109916666D01*
X144785714Y-109916666D01*
X144880952Y-109964285D01*
X144928571Y-110011904D01*
X144976190Y-110107142D01*
X144976190Y-110488095D01*
X144452380Y-109011904D02*
X144452380Y-109488095D01*
X144928571Y-109535714D01*
X144880952Y-109488095D01*
X144833333Y-109392857D01*
X144833333Y-109154761D01*
X144880952Y-109059523D01*
X144928571Y-109011904D01*
X145023809Y-108964285D01*
X145261904Y-108964285D01*
X145357142Y-109011904D01*
X145404761Y-109059523D01*
X145452380Y-109154761D01*
X145452380Y-109392857D01*
X145404761Y-109488095D01*
X145357142Y-109535714D01*
X157214285Y-73428571D02*
X157357142Y-73476190D01*
X157404761Y-73523809D01*
X157452380Y-73619047D01*
X157452380Y-73761904D01*
X157404761Y-73857142D01*
X157357142Y-73904761D01*
X157261904Y-73952380D01*
X156880952Y-73952380D01*
X156880952Y-72952380D01*
X157214285Y-72952380D01*
X157309523Y-73000000D01*
X157357142Y-73047619D01*
X157404761Y-73142857D01*
X157404761Y-73238095D01*
X157357142Y-73333333D01*
X157309523Y-73380952D01*
X157214285Y-73428571D01*
X156880952Y-73428571D01*
X157738095Y-72952380D02*
X158309523Y-72952380D01*
X158023809Y-73952380D02*
X158023809Y-72952380D01*
X159166666Y-73952380D02*
X158595238Y-73952380D01*
X158880952Y-73952380D02*
X158880952Y-72952380D01*
X158785714Y-73095238D01*
X158690476Y-73190476D01*
X158595238Y-73238095D01*
X163619047Y-50071428D02*
X164380952Y-50071428D01*
X164000000Y-50452380D02*
X164000000Y-49690476D01*
X163119047Y-99571428D02*
X163880952Y-99571428D01*
X130166666Y-55202380D02*
X130166666Y-55916666D01*
X130119047Y-56059523D01*
X130023809Y-56154761D01*
X129880952Y-56202380D01*
X129785714Y-56202380D01*
X130595238Y-55297619D02*
X130642857Y-55250000D01*
X130738095Y-55202380D01*
X130976190Y-55202380D01*
X131071428Y-55250000D01*
X131119047Y-55297619D01*
X131166666Y-55392857D01*
X131166666Y-55488095D01*
X131119047Y-55630952D01*
X130547619Y-56202380D01*
X131166666Y-56202380D01*
X132119047Y-53202380D02*
X132452380Y-54202380D01*
X132785714Y-53202380D01*
X133547619Y-54202380D02*
X133547619Y-53678571D01*
X133500000Y-53583333D01*
X133404761Y-53535714D01*
X133214285Y-53535714D01*
X133119047Y-53583333D01*
X133547619Y-54154761D02*
X133452380Y-54202380D01*
X133214285Y-54202380D01*
X133119047Y-54154761D01*
X133071428Y-54059523D01*
X133071428Y-53964285D01*
X133119047Y-53869047D01*
X133214285Y-53821428D01*
X133452380Y-53821428D01*
X133547619Y-53773809D01*
X134166666Y-54202380D02*
X134071428Y-54154761D01*
X134023809Y-54059523D01*
X134023809Y-53202380D01*
X134452380Y-53535714D02*
X134690476Y-54202380D01*
X134928571Y-53535714D01*
X135690476Y-54154761D02*
X135595238Y-54202380D01*
X135404761Y-54202380D01*
X135309523Y-54154761D01*
X135261904Y-54059523D01*
X135261904Y-53678571D01*
X135309523Y-53583333D01*
X135404761Y-53535714D01*
X135595238Y-53535714D01*
X135690476Y-53583333D01*
X135738095Y-53678571D01*
X135738095Y-53773809D01*
X135261904Y-53869047D01*
X136928571Y-54202380D02*
X136928571Y-53202380D01*
X137261904Y-53916666D01*
X137595238Y-53202380D01*
X137595238Y-54202380D01*
X138500000Y-54202380D02*
X138500000Y-53678571D01*
X138452380Y-53583333D01*
X138357142Y-53535714D01*
X138166666Y-53535714D01*
X138071428Y-53583333D01*
X138500000Y-54154761D02*
X138404761Y-54202380D01*
X138166666Y-54202380D01*
X138071428Y-54154761D01*
X138023809Y-54059523D01*
X138023809Y-53964285D01*
X138071428Y-53869047D01*
X138166666Y-53821428D01*
X138404761Y-53821428D01*
X138500000Y-53773809D01*
X139404761Y-53535714D02*
X139404761Y-54345238D01*
X139357142Y-54440476D01*
X139309523Y-54488095D01*
X139214285Y-54535714D01*
X139071428Y-54535714D01*
X138976190Y-54488095D01*
X139404761Y-54154761D02*
X139309523Y-54202380D01*
X139119047Y-54202380D01*
X139023809Y-54154761D01*
X138976190Y-54107142D01*
X138928571Y-54011904D01*
X138928571Y-53726190D01*
X138976190Y-53630952D01*
X139023809Y-53583333D01*
X139119047Y-53535714D01*
X139309523Y-53535714D01*
X139404761Y-53583333D01*
X139880952Y-54202380D02*
X139880952Y-53535714D01*
X139880952Y-53202380D02*
X139833333Y-53250000D01*
X139880952Y-53297619D01*
X139928571Y-53250000D01*
X139880952Y-53202380D01*
X139880952Y-53297619D01*
X140785714Y-54154761D02*
X140690476Y-54202380D01*
X140500000Y-54202380D01*
X140404761Y-54154761D01*
X140357142Y-54107142D01*
X140309523Y-54011904D01*
X140309523Y-53726190D01*
X140357142Y-53630952D01*
X140404761Y-53583333D01*
X140500000Y-53535714D01*
X140690476Y-53535714D01*
X140785714Y-53583333D01*
X154738095Y-111404761D02*
X154880952Y-111452380D01*
X155119047Y-111452380D01*
X155214285Y-111404761D01*
X155261904Y-111357142D01*
X155309523Y-111261904D01*
X155309523Y-111166666D01*
X155261904Y-111071428D01*
X155214285Y-111023809D01*
X155119047Y-110976190D01*
X154928571Y-110928571D01*
X154833333Y-110880952D01*
X154785714Y-110833333D01*
X154738095Y-110738095D01*
X154738095Y-110642857D01*
X154785714Y-110547619D01*
X154833333Y-110500000D01*
X154928571Y-110452380D01*
X155166666Y-110452380D01*
X155309523Y-110500000D01*
X156214285Y-110452380D02*
X155738095Y-110452380D01*
X155690476Y-110928571D01*
X155738095Y-110880952D01*
X155833333Y-110833333D01*
X156071428Y-110833333D01*
X156166666Y-110880952D01*
X156214285Y-110928571D01*
X156261904Y-111023809D01*
X156261904Y-111261904D01*
X156214285Y-111357142D01*
X156166666Y-111404761D01*
X156071428Y-111452380D01*
X155833333Y-111452380D01*
X155738095Y-111404761D01*
X155690476Y-111357142D01*
X150988095Y-125904761D02*
X151130952Y-125952380D01*
X151369047Y-125952380D01*
X151464285Y-125904761D01*
X151511904Y-125857142D01*
X151559523Y-125761904D01*
X151559523Y-125666666D01*
X151511904Y-125571428D01*
X151464285Y-125523809D01*
X151369047Y-125476190D01*
X151178571Y-125428571D01*
X151083333Y-125380952D01*
X151035714Y-125333333D01*
X150988095Y-125238095D01*
X150988095Y-125142857D01*
X151035714Y-125047619D01*
X151083333Y-125000000D01*
X151178571Y-124952380D01*
X151416666Y-124952380D01*
X151559523Y-125000000D01*
X152416666Y-124952380D02*
X152226190Y-124952380D01*
X152130952Y-125000000D01*
X152083333Y-125047619D01*
X151988095Y-125190476D01*
X151940476Y-125380952D01*
X151940476Y-125761904D01*
X151988095Y-125857142D01*
X152035714Y-125904761D01*
X152130952Y-125952380D01*
X152321428Y-125952380D01*
X152416666Y-125904761D01*
X152464285Y-125857142D01*
X152511904Y-125761904D01*
X152511904Y-125523809D01*
X152464285Y-125428571D01*
X152416666Y-125380952D01*
X152321428Y-125333333D01*
X152130952Y-125333333D01*
X152035714Y-125380952D01*
X151988095Y-125428571D01*
X151940476Y-125523809D01*
X144238095Y-145404761D02*
X144380952Y-145452380D01*
X144619047Y-145452380D01*
X144714285Y-145404761D01*
X144761904Y-145357142D01*
X144809523Y-145261904D01*
X144809523Y-145166666D01*
X144761904Y-145071428D01*
X144714285Y-145023809D01*
X144619047Y-144976190D01*
X144428571Y-144928571D01*
X144333333Y-144880952D01*
X144285714Y-144833333D01*
X144238095Y-144738095D01*
X144238095Y-144642857D01*
X144285714Y-144547619D01*
X144333333Y-144500000D01*
X144428571Y-144452380D01*
X144666666Y-144452380D01*
X144809523Y-144500000D01*
X145142857Y-144452380D02*
X145809523Y-144452380D01*
X145380952Y-145452380D01*
X126238095Y-145404761D02*
X126380952Y-145452380D01*
X126619047Y-145452380D01*
X126714285Y-145404761D01*
X126761904Y-145357142D01*
X126809523Y-145261904D01*
X126809523Y-145166666D01*
X126761904Y-145071428D01*
X126714285Y-145023809D01*
X126619047Y-144976190D01*
X126428571Y-144928571D01*
X126333333Y-144880952D01*
X126285714Y-144833333D01*
X126238095Y-144738095D01*
X126238095Y-144642857D01*
X126285714Y-144547619D01*
X126333333Y-144500000D01*
X126428571Y-144452380D01*
X126666666Y-144452380D01*
X126809523Y-144500000D01*
X127380952Y-144880952D02*
X127285714Y-144833333D01*
X127238095Y-144785714D01*
X127190476Y-144690476D01*
X127190476Y-144642857D01*
X127238095Y-144547619D01*
X127285714Y-144500000D01*
X127380952Y-144452380D01*
X127571428Y-144452380D01*
X127666666Y-144500000D01*
X127714285Y-144547619D01*
X127761904Y-144642857D01*
X127761904Y-144690476D01*
X127714285Y-144785714D01*
X127666666Y-144833333D01*
X127571428Y-144880952D01*
X127380952Y-144880952D01*
X127285714Y-144928571D01*
X127238095Y-144976190D01*
X127190476Y-145071428D01*
X127190476Y-145261904D01*
X127238095Y-145357142D01*
X127285714Y-145404761D01*
X127380952Y-145452380D01*
X127571428Y-145452380D01*
X127666666Y-145404761D01*
X127714285Y-145357142D01*
X127761904Y-145261904D01*
X127761904Y-145071428D01*
X127714285Y-144976190D01*
X127666666Y-144928571D01*
X127571428Y-144880952D01*
X133238095Y-119404761D02*
X133380952Y-119452380D01*
X133619047Y-119452380D01*
X133714285Y-119404761D01*
X133761904Y-119357142D01*
X133809523Y-119261904D01*
X133809523Y-119166666D01*
X133761904Y-119071428D01*
X133714285Y-119023809D01*
X133619047Y-118976190D01*
X133428571Y-118928571D01*
X133333333Y-118880952D01*
X133285714Y-118833333D01*
X133238095Y-118738095D01*
X133238095Y-118642857D01*
X133285714Y-118547619D01*
X133333333Y-118500000D01*
X133428571Y-118452380D01*
X133666666Y-118452380D01*
X133809523Y-118500000D01*
X134666666Y-118785714D02*
X134666666Y-119452380D01*
X134428571Y-118404761D02*
X134190476Y-119119047D01*
X134809523Y-119119047D01*
X123238095Y-128404761D02*
X123380952Y-128452380D01*
X123619047Y-128452380D01*
X123714285Y-128404761D01*
X123761904Y-128357142D01*
X123809523Y-128261904D01*
X123809523Y-128166666D01*
X123761904Y-128071428D01*
X123714285Y-128023809D01*
X123619047Y-127976190D01*
X123428571Y-127928571D01*
X123333333Y-127880952D01*
X123285714Y-127833333D01*
X123238095Y-127738095D01*
X123238095Y-127642857D01*
X123285714Y-127547619D01*
X123333333Y-127500000D01*
X123428571Y-127452380D01*
X123666666Y-127452380D01*
X123809523Y-127500000D01*
X124190476Y-127547619D02*
X124238095Y-127500000D01*
X124333333Y-127452380D01*
X124571428Y-127452380D01*
X124666666Y-127500000D01*
X124714285Y-127547619D01*
X124761904Y-127642857D01*
X124761904Y-127738095D01*
X124714285Y-127880952D01*
X124142857Y-128452380D01*
X124761904Y-128452380D01*
X123238095Y-110404761D02*
X123380952Y-110452380D01*
X123619047Y-110452380D01*
X123714285Y-110404761D01*
X123761904Y-110357142D01*
X123809523Y-110261904D01*
X123809523Y-110166666D01*
X123761904Y-110071428D01*
X123714285Y-110023809D01*
X123619047Y-109976190D01*
X123428571Y-109928571D01*
X123333333Y-109880952D01*
X123285714Y-109833333D01*
X123238095Y-109738095D01*
X123238095Y-109642857D01*
X123285714Y-109547619D01*
X123333333Y-109500000D01*
X123428571Y-109452380D01*
X123666666Y-109452380D01*
X123809523Y-109500000D01*
X124761904Y-110452380D02*
X124190476Y-110452380D01*
X124476190Y-110452380D02*
X124476190Y-109452380D01*
X124380952Y-109595238D01*
X124285714Y-109690476D01*
X124190476Y-109738095D01*
X113238095Y-119404761D02*
X113380952Y-119452380D01*
X113619047Y-119452380D01*
X113714285Y-119404761D01*
X113761904Y-119357142D01*
X113809523Y-119261904D01*
X113809523Y-119166666D01*
X113761904Y-119071428D01*
X113714285Y-119023809D01*
X113619047Y-118976190D01*
X113428571Y-118928571D01*
X113333333Y-118880952D01*
X113285714Y-118833333D01*
X113238095Y-118738095D01*
X113238095Y-118642857D01*
X113285714Y-118547619D01*
X113333333Y-118500000D01*
X113428571Y-118452380D01*
X113666666Y-118452380D01*
X113809523Y-118500000D01*
X114142857Y-118452380D02*
X114761904Y-118452380D01*
X114428571Y-118833333D01*
X114571428Y-118833333D01*
X114666666Y-118880952D01*
X114714285Y-118928571D01*
X114761904Y-119023809D01*
X114761904Y-119261904D01*
X114714285Y-119357142D01*
X114666666Y-119404761D01*
X114571428Y-119452380D01*
X114285714Y-119452380D01*
X114190476Y-119404761D01*
X114142857Y-119357142D01*
X113214285Y-73653571D02*
X113357142Y-73701190D01*
X113404761Y-73748809D01*
X113452380Y-73844047D01*
X113452380Y-73986904D01*
X113404761Y-74082142D01*
X113357142Y-74129761D01*
X113261904Y-74177380D01*
X112880952Y-74177380D01*
X112880952Y-73177380D01*
X113214285Y-73177380D01*
X113309523Y-73225000D01*
X113357142Y-73272619D01*
X113404761Y-73367857D01*
X113404761Y-73463095D01*
X113357142Y-73558333D01*
X113309523Y-73605952D01*
X113214285Y-73653571D01*
X112880952Y-73653571D01*
X113738095Y-73177380D02*
X114309523Y-73177380D01*
X114023809Y-74177380D02*
X114023809Y-73177380D01*
X114595238Y-73272619D02*
X114642857Y-73225000D01*
X114738095Y-73177380D01*
X114976190Y-73177380D01*
X115071428Y-73225000D01*
X115119047Y-73272619D01*
X115166666Y-73367857D01*
X115166666Y-73463095D01*
X115119047Y-73605952D01*
X114547619Y-74177380D01*
X115166666Y-74177380D01*
X119119047Y-99796428D02*
X119880952Y-99796428D01*
X119619047Y-50296428D02*
X120380952Y-50296428D01*
X120000000Y-50677380D02*
X120000000Y-49915476D01*
X123357142Y-85166666D02*
X123404761Y-85214285D01*
X123452380Y-85357142D01*
X123452380Y-85452380D01*
X123404761Y-85595238D01*
X123309523Y-85690476D01*
X123214285Y-85738095D01*
X123023809Y-85785714D01*
X122880952Y-85785714D01*
X122690476Y-85738095D01*
X122595238Y-85690476D01*
X122500000Y-85595238D01*
X122452380Y-85452380D01*
X122452380Y-85357142D01*
X122500000Y-85214285D01*
X122547619Y-85166666D01*
X123452380Y-84214285D02*
X123452380Y-84785714D01*
X123452380Y-84500000D02*
X122452380Y-84500000D01*
X122595238Y-84595238D01*
X122690476Y-84690476D01*
X122738095Y-84785714D01*
X129357142Y-85166666D02*
X129404761Y-85214285D01*
X129452380Y-85357142D01*
X129452380Y-85452380D01*
X129404761Y-85595238D01*
X129309523Y-85690476D01*
X129214285Y-85738095D01*
X129023809Y-85785714D01*
X128880952Y-85785714D01*
X128690476Y-85738095D01*
X128595238Y-85690476D01*
X128500000Y-85595238D01*
X128452380Y-85452380D01*
X128452380Y-85357142D01*
X128500000Y-85214285D01*
X128547619Y-85166666D01*
X128547619Y-84785714D02*
X128500000Y-84738095D01*
X128452380Y-84642857D01*
X128452380Y-84404761D01*
X128500000Y-84309523D01*
X128547619Y-84261904D01*
X128642857Y-84214285D01*
X128738095Y-84214285D01*
X128880952Y-84261904D01*
X129452380Y-84833333D01*
X129452380Y-84214285D01*
X125357142Y-85166666D02*
X125404761Y-85214285D01*
X125452380Y-85357142D01*
X125452380Y-85452380D01*
X125404761Y-85595238D01*
X125309523Y-85690476D01*
X125214285Y-85738095D01*
X125023809Y-85785714D01*
X124880952Y-85785714D01*
X124690476Y-85738095D01*
X124595238Y-85690476D01*
X124500000Y-85595238D01*
X124452380Y-85452380D01*
X124452380Y-85357142D01*
X124500000Y-85214285D01*
X124547619Y-85166666D01*
X124452380Y-84833333D02*
X124452380Y-84214285D01*
X124833333Y-84547619D01*
X124833333Y-84404761D01*
X124880952Y-84309523D01*
X124928571Y-84261904D01*
X125023809Y-84214285D01*
X125261904Y-84214285D01*
X125357142Y-84261904D01*
X125404761Y-84309523D01*
X125452380Y-84404761D01*
X125452380Y-84690476D01*
X125404761Y-84785714D01*
X125357142Y-84833333D01*
X127357142Y-85166666D02*
X127404761Y-85214285D01*
X127452380Y-85357142D01*
X127452380Y-85452380D01*
X127404761Y-85595238D01*
X127309523Y-85690476D01*
X127214285Y-85738095D01*
X127023809Y-85785714D01*
X126880952Y-85785714D01*
X126690476Y-85738095D01*
X126595238Y-85690476D01*
X126500000Y-85595238D01*
X126452380Y-85452380D01*
X126452380Y-85357142D01*
X126500000Y-85214285D01*
X126547619Y-85166666D01*
X126785714Y-84309523D02*
X127452380Y-84309523D01*
X126404761Y-84547619D02*
X127119047Y-84785714D01*
X127119047Y-84166666D01*
X130452380Y-110488095D02*
X129452380Y-110488095D01*
X129452380Y-110250000D01*
X129500000Y-110107142D01*
X129595238Y-110011904D01*
X129690476Y-109964285D01*
X129880952Y-109916666D01*
X130023809Y-109916666D01*
X130214285Y-109964285D01*
X130309523Y-110011904D01*
X130404761Y-110107142D01*
X130452380Y-110250000D01*
X130452380Y-110488095D01*
X130452380Y-108964285D02*
X130452380Y-109535714D01*
X130452380Y-109250000D02*
X129452380Y-109250000D01*
X129595238Y-109345238D01*
X129690476Y-109440476D01*
X129738095Y-109535714D01*
X132452380Y-110238095D02*
X131452380Y-110238095D01*
X131452380Y-110000000D01*
X131500000Y-109857142D01*
X131595238Y-109761904D01*
X131690476Y-109714285D01*
X131880952Y-109666666D01*
X132023809Y-109666666D01*
X132214285Y-109714285D01*
X132309523Y-109761904D01*
X132404761Y-109857142D01*
X132452380Y-110000000D01*
X132452380Y-110238095D01*
X131547619Y-109285714D02*
X131500000Y-109238095D01*
X131452380Y-109142857D01*
X131452380Y-108904761D01*
X131500000Y-108809523D01*
X131547619Y-108761904D01*
X131642857Y-108714285D01*
X131738095Y-108714285D01*
X131880952Y-108761904D01*
X132452380Y-109333333D01*
X132452380Y-108714285D01*
X134452380Y-110238095D02*
X133452380Y-110238095D01*
X133452380Y-110000000D01*
X133500000Y-109857142D01*
X133595238Y-109761904D01*
X133690476Y-109714285D01*
X133880952Y-109666666D01*
X134023809Y-109666666D01*
X134214285Y-109714285D01*
X134309523Y-109761904D01*
X134404761Y-109857142D01*
X134452380Y-110000000D01*
X134452380Y-110238095D01*
X133452380Y-109333333D02*
X133452380Y-108714285D01*
X133833333Y-109047619D01*
X133833333Y-108904761D01*
X133880952Y-108809523D01*
X133928571Y-108761904D01*
X134023809Y-108714285D01*
X134261904Y-108714285D01*
X134357142Y-108761904D01*
X134404761Y-108809523D01*
X134452380Y-108904761D01*
X134452380Y-109190476D01*
X134404761Y-109285714D01*
X134357142Y-109333333D01*
X113261904Y-103452380D02*
X113261904Y-102452380D01*
X113500000Y-102452380D01*
X113642857Y-102500000D01*
X113738095Y-102595238D01*
X113785714Y-102690476D01*
X113833333Y-102880952D01*
X113833333Y-103023809D01*
X113785714Y-103214285D01*
X113738095Y-103309523D01*
X113642857Y-103404761D01*
X113500000Y-103452380D01*
X113261904Y-103452380D01*
X114690476Y-102785714D02*
X114690476Y-103452380D01*
X114452380Y-102404761D02*
X114214285Y-103119047D01*
X114833333Y-103119047D01*
X157261904Y-103452380D02*
X157261904Y-102452380D01*
X157500000Y-102452380D01*
X157642857Y-102500000D01*
X157738095Y-102595238D01*
X157785714Y-102690476D01*
X157833333Y-102880952D01*
X157833333Y-103023809D01*
X157785714Y-103214285D01*
X157738095Y-103309523D01*
X157642857Y-103404761D01*
X157500000Y-103452380D01*
X157261904Y-103452380D01*
X158738095Y-102452380D02*
X158261904Y-102452380D01*
X158214285Y-102928571D01*
X158261904Y-102880952D01*
X158357142Y-102833333D01*
X158595238Y-102833333D01*
X158690476Y-102880952D01*
X158738095Y-102928571D01*
X158785714Y-103023809D01*
X158785714Y-103261904D01*
X158738095Y-103357142D01*
X158690476Y-103404761D01*
X158595238Y-103452380D01*
X158357142Y-103452380D01*
X158261904Y-103404761D01*
X158214285Y-103357142D01*
X152261904Y-38452380D02*
X152261904Y-37452380D01*
X152500000Y-37452380D01*
X152642857Y-37500000D01*
X152738095Y-37595238D01*
X152785714Y-37690476D01*
X152833333Y-37880952D01*
X152833333Y-38023809D01*
X152785714Y-38214285D01*
X152738095Y-38309523D01*
X152642857Y-38404761D01*
X152500000Y-38452380D01*
X152261904Y-38452380D01*
X153690476Y-37452380D02*
X153500000Y-37452380D01*
X153404761Y-37500000D01*
X153357142Y-37547619D01*
X153261904Y-37690476D01*
X153214285Y-37880952D01*
X153214285Y-38261904D01*
X153261904Y-38357142D01*
X153309523Y-38404761D01*
X153404761Y-38452380D01*
X153595238Y-38452380D01*
X153690476Y-38404761D01*
X153738095Y-38357142D01*
X153785714Y-38261904D01*
X153785714Y-38023809D01*
X153738095Y-37928571D01*
X153690476Y-37880952D01*
X153595238Y-37833333D01*
X153404761Y-37833333D01*
X153309523Y-37880952D01*
X153261904Y-37928571D01*
X153214285Y-38023809D01*
X118261904Y-38452380D02*
X118261904Y-37452380D01*
X118500000Y-37452380D01*
X118642857Y-37500000D01*
X118738095Y-37595238D01*
X118785714Y-37690476D01*
X118833333Y-37880952D01*
X118833333Y-38023809D01*
X118785714Y-38214285D01*
X118738095Y-38309523D01*
X118642857Y-38404761D01*
X118500000Y-38452380D01*
X118261904Y-38452380D01*
X119166666Y-37452380D02*
X119833333Y-37452380D01*
X119404761Y-38452380D01*
X136452380Y-110238095D02*
X135452380Y-110238095D01*
X135452380Y-110000000D01*
X135500000Y-109857142D01*
X135595238Y-109761904D01*
X135690476Y-109714285D01*
X135880952Y-109666666D01*
X136023809Y-109666666D01*
X136214285Y-109714285D01*
X136309523Y-109761904D01*
X136404761Y-109857142D01*
X136452380Y-110000000D01*
X136452380Y-110238095D01*
X135880952Y-109095238D02*
X135833333Y-109190476D01*
X135785714Y-109238095D01*
X135690476Y-109285714D01*
X135642857Y-109285714D01*
X135547619Y-109238095D01*
X135500000Y-109190476D01*
X135452380Y-109095238D01*
X135452380Y-108904761D01*
X135500000Y-108809523D01*
X135547619Y-108761904D01*
X135642857Y-108714285D01*
X135690476Y-108714285D01*
X135785714Y-108761904D01*
X135833333Y-108809523D01*
X135880952Y-108904761D01*
X135880952Y-109095238D01*
X135928571Y-109190476D01*
X135976190Y-109238095D01*
X136071428Y-109285714D01*
X136261904Y-109285714D01*
X136357142Y-109238095D01*
X136404761Y-109190476D01*
X136452380Y-109095238D01*
X136452380Y-108904761D01*
X136404761Y-108809523D01*
X136357142Y-108761904D01*
X136261904Y-108714285D01*
X136071428Y-108714285D01*
X135976190Y-108761904D01*
X135928571Y-108809523D01*
X135880952Y-108904761D01*
X138452380Y-110238095D02*
X137452380Y-110238095D01*
X137452380Y-110000000D01*
X137500000Y-109857142D01*
X137595238Y-109761904D01*
X137690476Y-109714285D01*
X137880952Y-109666666D01*
X138023809Y-109666666D01*
X138214285Y-109714285D01*
X138309523Y-109761904D01*
X138404761Y-109857142D01*
X138452380Y-110000000D01*
X138452380Y-110238095D01*
X138452380Y-109190476D02*
X138452380Y-109000000D01*
X138404761Y-108904761D01*
X138357142Y-108857142D01*
X138214285Y-108761904D01*
X138023809Y-108714285D01*
X137642857Y-108714285D01*
X137547619Y-108761904D01*
X137500000Y-108809523D01*
X137452380Y-108904761D01*
X137452380Y-109095238D01*
X137500000Y-109190476D01*
X137547619Y-109238095D01*
X137642857Y-109285714D01*
X137880952Y-109285714D01*
X137976190Y-109238095D01*
X138023809Y-109190476D01*
X138071428Y-109095238D01*
X138071428Y-108904761D01*
X138023809Y-108809523D01*
X137976190Y-108761904D01*
X137880952Y-108714285D01*
X140452380Y-110214285D02*
X139452380Y-110214285D01*
X139452380Y-109976190D01*
X139500000Y-109833333D01*
X139595238Y-109738095D01*
X139690476Y-109690476D01*
X139880952Y-109642857D01*
X140023809Y-109642857D01*
X140214285Y-109690476D01*
X140309523Y-109738095D01*
X140404761Y-109833333D01*
X140452380Y-109976190D01*
X140452380Y-110214285D01*
X140452380Y-108690476D02*
X140452380Y-109261904D01*
X140452380Y-108976190D02*
X139452380Y-108976190D01*
X139595238Y-109071428D01*
X139690476Y-109166666D01*
X139738095Y-109261904D01*
X139452380Y-108071428D02*
X139452380Y-107976190D01*
X139500000Y-107880952D01*
X139547619Y-107833333D01*
X139642857Y-107785714D01*
X139833333Y-107738095D01*
X140071428Y-107738095D01*
X140261904Y-107785714D01*
X140357142Y-107833333D01*
X140404761Y-107880952D01*
X140452380Y-107976190D01*
X140452380Y-108071428D01*
X140404761Y-108166666D01*
X140357142Y-108214285D01*
X140261904Y-108261904D01*
X140071428Y-108309523D01*
X139833333Y-108309523D01*
X139642857Y-108261904D01*
X139547619Y-108214285D01*
X139500000Y-108166666D01*
X139452380Y-108071428D01*
X103666666Y-60122380D02*
X103666666Y-60836666D01*
X103619047Y-60979523D01*
X103523809Y-61074761D01*
X103380952Y-61122380D01*
X103285714Y-61122380D01*
X104666666Y-61122380D02*
X104095238Y-61122380D01*
X104380952Y-61122380D02*
X104380952Y-60122380D01*
X104285714Y-60265238D01*
X104190476Y-60360476D01*
X104095238Y-60408095D01*
X167666666Y-60122380D02*
X167666666Y-60836666D01*
X167619047Y-60979523D01*
X167523809Y-61074761D01*
X167380952Y-61122380D01*
X167285714Y-61122380D01*
X168047619Y-60122380D02*
X168666666Y-60122380D01*
X168333333Y-60503333D01*
X168476190Y-60503333D01*
X168571428Y-60550952D01*
X168619047Y-60598571D01*
X168666666Y-60693809D01*
X168666666Y-60931904D01*
X168619047Y-61027142D01*
X168571428Y-61074761D01*
X168476190Y-61122380D01*
X168190476Y-61122380D01*
X168095238Y-61074761D01*
X168047619Y-61027142D01*
X131452380Y-85166666D02*
X130976190Y-85500000D01*
X131452380Y-85738095D02*
X130452380Y-85738095D01*
X130452380Y-85357142D01*
X130500000Y-85261904D01*
X130547619Y-85214285D01*
X130642857Y-85166666D01*
X130785714Y-85166666D01*
X130880952Y-85214285D01*
X130928571Y-85261904D01*
X130976190Y-85357142D01*
X130976190Y-85738095D01*
X131452380Y-84214285D02*
X131452380Y-84785714D01*
X131452380Y-84500000D02*
X130452380Y-84500000D01*
X130595238Y-84595238D01*
X130690476Y-84690476D01*
X130738095Y-84785714D01*
X143952380Y-109916666D02*
X143476190Y-110250000D01*
X143952380Y-110488095D02*
X142952380Y-110488095D01*
X142952380Y-110107142D01*
X143000000Y-110011904D01*
X143047619Y-109964285D01*
X143142857Y-109916666D01*
X143285714Y-109916666D01*
X143380952Y-109964285D01*
X143428571Y-110011904D01*
X143476190Y-110107142D01*
X143476190Y-110488095D01*
X143047619Y-109535714D02*
X143000000Y-109488095D01*
X142952380Y-109392857D01*
X142952380Y-109154761D01*
X143000000Y-109059523D01*
X143047619Y-109011904D01*
X143142857Y-108964285D01*
X143238095Y-108964285D01*
X143380952Y-109011904D01*
X143952380Y-109583333D01*
X143952380Y-108964285D01*
X142452380Y-109916666D02*
X141976190Y-110250000D01*
X142452380Y-110488095D02*
X141452380Y-110488095D01*
X141452380Y-110107142D01*
X141500000Y-110011904D01*
X141547619Y-109964285D01*
X141642857Y-109916666D01*
X141785714Y-109916666D01*
X141880952Y-109964285D01*
X141928571Y-110011904D01*
X141976190Y-110107142D01*
X141976190Y-110488095D01*
X141452380Y-109583333D02*
X141452380Y-108964285D01*
X141833333Y-109297619D01*
X141833333Y-109154761D01*
X141880952Y-109059523D01*
X141928571Y-109011904D01*
X142023809Y-108964285D01*
X142261904Y-108964285D01*
X142357142Y-109011904D01*
X142404761Y-109059523D01*
X142452380Y-109154761D01*
X142452380Y-109440476D01*
X142404761Y-109535714D01*
X142357142Y-109583333D01*
X133952380Y-97261904D02*
X134761904Y-97261904D01*
X134857142Y-97214285D01*
X134904761Y-97166666D01*
X134952380Y-97071428D01*
X134952380Y-96880952D01*
X134904761Y-96785714D01*
X134857142Y-96738095D01*
X134761904Y-96690476D01*
X133952380Y-96690476D01*
X134952380Y-95690476D02*
X134952380Y-96261904D01*
X134952380Y-95976190D02*
X133952380Y-95976190D01*
X134095238Y-96071428D01*
X134190476Y-96166666D01*
X134238095Y-96261904D01*
M02*
