G04 #@! TF.FileFunction,Copper,L1,Top,Signal*
%FSLAX46Y46*%
G04 Gerber Fmt 4.6, Leading zero omitted, Abs format (unit mm)*
G04 Created by KiCad (PCBNEW 4.0.6-e0-6349~53~ubuntu16.04.1) date Thu Jul 20 22:15:20 2017*
%MOMM*%
%LPD*%
G01*
G04 APERTURE LIST*
%ADD10C,0.100000*%
%ADD11R,0.900000X0.500000*%
%ADD12R,2.500000X4.000000*%
%ADD13R,5.000000X4.000000*%
%ADD14C,1.700000*%
%ADD15C,1.524000*%
%ADD16C,2.500000*%
%ADD17C,1.600000*%
%ADD18R,1.550000X1.300000*%
%ADD19R,0.750000X0.800000*%
%ADD20R,0.450000X0.600000*%
%ADD21R,0.900000X0.900000*%
%ADD22O,1.700000X1.700000*%
%ADD23R,1.700000X1.700000*%
%ADD24R,1.200000X2.000000*%
%ADD25R,2.000000X1.200000*%
%ADD26C,0.800000*%
%ADD27C,0.250000*%
%ADD28C,0.254000*%
G04 APERTURE END LIST*
D10*
D11*
X148000000Y-111250000D03*
X148000000Y-112750000D03*
X146500000Y-112750000D03*
X146500000Y-111250000D03*
X145000000Y-112750000D03*
X145000000Y-111250000D03*
D12*
X158000000Y-99035000D03*
D13*
X158000000Y-86225000D03*
X158000000Y-63775000D03*
D12*
X158000000Y-50965000D03*
D14*
X134500000Y-71750000D03*
X136500000Y-71750000D03*
D15*
X138500000Y-71750000D03*
X139000000Y-55250000D03*
X134000000Y-55250000D03*
D16*
X136500000Y-55250000D03*
D17*
X135500000Y-73750000D03*
X137500000Y-73750000D03*
D18*
X151650000Y-112750000D03*
X159350000Y-112750000D03*
X159350000Y-117250000D03*
X151650000Y-117250000D03*
X147900000Y-127250000D03*
X155600000Y-127250000D03*
X155600000Y-131750000D03*
X147900000Y-131750000D03*
X141150000Y-146750000D03*
X148850000Y-146750000D03*
X148850000Y-151250000D03*
X141150000Y-151250000D03*
X123150000Y-146750000D03*
X130850000Y-146750000D03*
X130850000Y-151250000D03*
X123150000Y-151250000D03*
X130150000Y-120750000D03*
X137850000Y-120750000D03*
X137850000Y-125250000D03*
X130150000Y-125250000D03*
X120150000Y-129750000D03*
X127850000Y-129750000D03*
X127850000Y-134250000D03*
X120150000Y-134250000D03*
X120150000Y-111750000D03*
X127850000Y-111750000D03*
X127850000Y-116250000D03*
X120150000Y-116250000D03*
X110150000Y-120750000D03*
X117850000Y-120750000D03*
X117850000Y-125250000D03*
X110150000Y-125250000D03*
D12*
X114000000Y-51190000D03*
D13*
X114000000Y-64000000D03*
X114000000Y-86450000D03*
D12*
X114000000Y-99260000D03*
D19*
X123000000Y-83250000D03*
X123000000Y-81750000D03*
X129000000Y-81750000D03*
X129000000Y-83250000D03*
X125000000Y-83250000D03*
X125000000Y-81750000D03*
X127000000Y-81750000D03*
X127000000Y-83250000D03*
D20*
X130000000Y-113300000D03*
X130000000Y-111200000D03*
X132000000Y-113300000D03*
X132000000Y-111200000D03*
X134000000Y-113300000D03*
X134000000Y-111200000D03*
D21*
X116250000Y-107650000D03*
X111750000Y-107650000D03*
X116250000Y-104350000D03*
X111750000Y-104350000D03*
X155750000Y-104350000D03*
X160250000Y-104350000D03*
X155750000Y-107650000D03*
X160250000Y-107650000D03*
X147750000Y-36350000D03*
X152250000Y-36350000D03*
X147750000Y-39650000D03*
X152250000Y-39650000D03*
X124250000Y-39650000D03*
X119750000Y-39650000D03*
X124250000Y-36350000D03*
X119750000Y-36350000D03*
D20*
X136000000Y-113300000D03*
X136000000Y-111200000D03*
X138000000Y-111200000D03*
X138000000Y-113300000D03*
X140000000Y-111200000D03*
X140000000Y-113300000D03*
D22*
X104000000Y-75700000D03*
X104000000Y-73160000D03*
X104000000Y-70620000D03*
X104000000Y-68080000D03*
X104000000Y-65540000D03*
D23*
X104000000Y-63000000D03*
D22*
X168000000Y-73160000D03*
X168000000Y-70620000D03*
X168000000Y-68080000D03*
X168000000Y-65540000D03*
D23*
X168000000Y-63000000D03*
D11*
X131000000Y-83250000D03*
X131000000Y-81750000D03*
X143500000Y-112750000D03*
X143500000Y-111250000D03*
X142000000Y-111250000D03*
X142000000Y-112750000D03*
D24*
X138300000Y-104500000D03*
X136300000Y-104500000D03*
X134300000Y-104500000D03*
X132300000Y-104500000D03*
X130300000Y-104500000D03*
X128300000Y-104500000D03*
X126300000Y-104500000D03*
X124300000Y-104500000D03*
X138300000Y-88500000D03*
X136300000Y-88500000D03*
X134300000Y-88500000D03*
X132300000Y-88500000D03*
X130300000Y-88500000D03*
X128300000Y-88500000D03*
X126300000Y-88500000D03*
X124300000Y-88500000D03*
D25*
X122500000Y-91500000D03*
X122500000Y-93500000D03*
X122500000Y-95500000D03*
X122500000Y-101500000D03*
X122500000Y-99500000D03*
X122500000Y-97500000D03*
D26*
X114000000Y-51190000D03*
X114000000Y-64000000D03*
X158000000Y-99035000D03*
X158000000Y-86225000D03*
X158000000Y-63775000D03*
X158000000Y-50965000D03*
X154000000Y-57000000D03*
X150250000Y-38750000D03*
X127250000Y-39500000D03*
X108750000Y-116000000D03*
X163500000Y-107500000D03*
X157250000Y-104000000D03*
X107500000Y-76250000D03*
X142500000Y-76250000D03*
X125250000Y-101750000D03*
X125250000Y-92500000D03*
X123250000Y-105000000D03*
X126500000Y-80500000D03*
X129500000Y-80250000D03*
X136000000Y-151500000D03*
X114000000Y-86450000D03*
X114000000Y-99260000D03*
X133000000Y-111174000D03*
X145852600Y-114634900D03*
X136346400Y-102836200D03*
X132878100Y-106414900D03*
X149650000Y-144783700D03*
D27*
X114000000Y-64000000D02*
X114000000Y-51190000D01*
X158000000Y-86225000D02*
X158000000Y-99035000D01*
X114000000Y-64000000D02*
X114000000Y-66325300D01*
X158000000Y-86225000D02*
X158000000Y-83899700D01*
X116750000Y-69075300D02*
X114000000Y-66325300D01*
X143175600Y-69075300D02*
X116750000Y-69075300D01*
X158000000Y-83899700D02*
X143175600Y-69075300D01*
X158000000Y-50965000D02*
X158000000Y-63775000D01*
X160250000Y-107650000D02*
X159474700Y-107650000D01*
X145000000Y-111250000D02*
X143500000Y-111250000D01*
X145000000Y-111250000D02*
X146500000Y-111250000D01*
X146500000Y-111250000D02*
X148000000Y-111250000D01*
X155874700Y-111250000D02*
X148775300Y-111250000D01*
X159474700Y-107650000D02*
X155874700Y-111250000D01*
X148000000Y-111250000D02*
X148775300Y-111250000D01*
X142000000Y-111250000D02*
X142000000Y-110962300D01*
X142437000Y-110962300D02*
X142724700Y-111250000D01*
X142000000Y-110962300D02*
X142437000Y-110962300D01*
X143500000Y-111250000D02*
X142724700Y-111250000D01*
X158000000Y-42487600D02*
X158000000Y-50965000D01*
X152637700Y-37125300D02*
X158000000Y-42487600D01*
X149300600Y-37125300D02*
X152637700Y-37125300D01*
X148525300Y-36350000D02*
X149300600Y-37125300D01*
X147750000Y-36350000D02*
X148525300Y-36350000D01*
X146199400Y-35574700D02*
X146974700Y-36350000D01*
X121300600Y-35574700D02*
X146199400Y-35574700D01*
X120525300Y-36350000D02*
X121300600Y-35574700D01*
X119750000Y-36350000D02*
X120525300Y-36350000D01*
X147750000Y-36350000D02*
X146974700Y-36350000D01*
X119362300Y-37125300D02*
X119750000Y-37125300D01*
X111335400Y-45152200D02*
X119362300Y-37125300D01*
X111335400Y-54489300D02*
X111335400Y-45152200D01*
X104000000Y-61824700D02*
X111335400Y-54489300D01*
X104000000Y-63000000D02*
X104000000Y-61824700D01*
X119750000Y-36350000D02*
X119750000Y-37125300D01*
X124300000Y-88500000D02*
X124300000Y-89712700D01*
X125000000Y-83250000D02*
X124299700Y-83250000D01*
X131000000Y-75250000D02*
X134500000Y-71750000D01*
X131000000Y-81174700D02*
X131000000Y-75250000D01*
X131000000Y-81750000D02*
X131000000Y-81174700D01*
X131000000Y-81750000D02*
X130224700Y-81750000D01*
X127000000Y-83250000D02*
X127000000Y-83612600D01*
X127000000Y-83612600D02*
X127000000Y-83975300D01*
X126062900Y-83612600D02*
X125700300Y-83250000D01*
X127000000Y-83612600D02*
X126062900Y-83612600D01*
X125000000Y-83250000D02*
X125700300Y-83250000D01*
X127300000Y-84275300D02*
X127000000Y-83975300D01*
X127300000Y-89825300D02*
X127300000Y-84275300D01*
X124412600Y-89825300D02*
X127300000Y-89825300D01*
X124300000Y-89712700D02*
X124412600Y-89825300D01*
X129700300Y-82274400D02*
X130224700Y-81750000D01*
X129700300Y-83250000D02*
X129700300Y-82274400D01*
X129000000Y-83250000D02*
X129700300Y-83250000D01*
X129000000Y-83250000D02*
X129000000Y-83975300D01*
X124299700Y-83250000D02*
X123000000Y-83250000D01*
X103632600Y-64175300D02*
X104000000Y-64175300D01*
X102824700Y-64983200D02*
X103632600Y-64175300D01*
X102824700Y-66028400D02*
X102824700Y-64983200D01*
X103606300Y-66810000D02*
X102824700Y-66028400D01*
X105808400Y-66810000D02*
X103606300Y-66810000D01*
X122248400Y-83250000D02*
X105808400Y-66810000D01*
X123000000Y-83250000D02*
X122248400Y-83250000D01*
X104000000Y-63000000D02*
X104000000Y-64175300D01*
X134300000Y-88500000D02*
X134300000Y-89825300D01*
X116250000Y-107650000D02*
X116250000Y-106874700D01*
X134300000Y-88500000D02*
X134300000Y-87174700D01*
X129225400Y-87174700D02*
X134300000Y-87174700D01*
X129225400Y-84200700D02*
X129225400Y-87174700D01*
X129000000Y-83975300D02*
X129225400Y-84200700D01*
X129059700Y-89825300D02*
X127300000Y-89825300D01*
X129225400Y-89659600D02*
X129059700Y-89825300D01*
X129225400Y-87174700D02*
X129225400Y-89659600D01*
X127696100Y-96429200D02*
X134300000Y-89825300D01*
X121510000Y-96429200D02*
X127696100Y-96429200D01*
X115474700Y-102464500D02*
X121510000Y-96429200D01*
X115474700Y-106099400D02*
X115474700Y-102464500D01*
X116250000Y-106874700D02*
X115474700Y-106099400D01*
X163377800Y-103746900D02*
X160250000Y-106874700D01*
X163377800Y-76050200D02*
X163377800Y-103746900D01*
X167632700Y-71795300D02*
X163377800Y-76050200D01*
X168000000Y-71795300D02*
X167632700Y-71795300D01*
X168000000Y-70620000D02*
X168000000Y-71795300D01*
X160250000Y-107650000D02*
X160250000Y-106874700D01*
X151150000Y-39650000D02*
X150250000Y-38750000D01*
X152250000Y-39650000D02*
X151150000Y-39650000D01*
X127100000Y-39650000D02*
X127250000Y-39500000D01*
X127100000Y-39650000D02*
X124250000Y-39650000D01*
X108750000Y-116000000D02*
X108750000Y-116500000D01*
X108750000Y-111000000D02*
X108750000Y-116000000D01*
X115750000Y-143850000D02*
X123150000Y-151250000D01*
X115750000Y-140000000D02*
X115750000Y-143850000D01*
X107750000Y-132000000D02*
X115750000Y-140000000D01*
X107750000Y-117500000D02*
X107750000Y-132000000D01*
X108750000Y-116500000D02*
X107750000Y-117500000D01*
X152000000Y-151250000D02*
X161750000Y-141500000D01*
X161750000Y-141500000D02*
X161750000Y-116250000D01*
X161750000Y-116250000D02*
X163500000Y-114500000D01*
X163500000Y-114500000D02*
X163500000Y-107500000D01*
X148850000Y-151250000D02*
X152000000Y-151250000D01*
X156900000Y-104350000D02*
X155750000Y-104350000D01*
X157250000Y-104000000D02*
X156900000Y-104350000D01*
X141150000Y-151250000D02*
X148850000Y-151250000D01*
X136000000Y-151500000D02*
X140900000Y-151500000D01*
X140900000Y-151500000D02*
X141150000Y-151250000D01*
X123150000Y-151250000D02*
X130850000Y-151250000D01*
X104000000Y-75700000D02*
X106950000Y-75700000D01*
X106950000Y-75700000D02*
X107500000Y-76250000D01*
X124300000Y-104500000D02*
X123750000Y-104500000D01*
X123750000Y-104500000D02*
X123250000Y-105000000D01*
X124300000Y-104500000D02*
X123500000Y-104500000D01*
X123500000Y-104500000D02*
X117000000Y-111000000D01*
X117000000Y-111000000D02*
X108750000Y-111000000D01*
X135500000Y-73750000D02*
X135500000Y-72750000D01*
X135500000Y-72750000D02*
X136500000Y-71750000D01*
X129000000Y-81750000D02*
X129000000Y-80750000D01*
X127000000Y-81000000D02*
X127000000Y-81750000D01*
X126500000Y-80500000D02*
X127000000Y-81000000D01*
X129000000Y-80750000D02*
X129500000Y-80250000D01*
X130850000Y-151250000D02*
X135750000Y-151250000D01*
X135750000Y-151250000D02*
X136000000Y-151500000D01*
X111750000Y-104350000D02*
X111750000Y-104750000D01*
X111750000Y-104750000D02*
X108750000Y-107750000D01*
X108750000Y-107750000D02*
X108750000Y-111000000D01*
X129449700Y-113675000D02*
X127850000Y-115274700D01*
X129449700Y-113300000D02*
X129449700Y-113675000D01*
X130000000Y-113300000D02*
X129449700Y-113300000D01*
X127850000Y-116250000D02*
X127850000Y-115762300D01*
X127850000Y-115762300D02*
X127850000Y-115274700D01*
X121738000Y-115762300D02*
X121250300Y-116250000D01*
X127850000Y-115762300D02*
X121738000Y-115762300D01*
X120150000Y-116250000D02*
X121250300Y-116250000D01*
X136000000Y-111200000D02*
X134000000Y-111200000D01*
X146500000Y-113987500D02*
X146500000Y-112750000D01*
X145852600Y-114634900D02*
X146500000Y-113987500D01*
X133000000Y-111200000D02*
X133000000Y-111174000D01*
X134000000Y-111200000D02*
X133000000Y-111200000D01*
X133000000Y-111200000D02*
X132550300Y-111200000D01*
X132275200Y-111200000D02*
X132550300Y-111200000D01*
X132275200Y-111200000D02*
X132000000Y-111200000D01*
X132000000Y-111200000D02*
X130000000Y-111200000D01*
X129225400Y-110975700D02*
X129449700Y-111200000D01*
X129225400Y-103279800D02*
X129225400Y-110975700D01*
X129120300Y-103174700D02*
X129225400Y-103279800D01*
X126300000Y-103174700D02*
X129120300Y-103174700D01*
X126300000Y-104500000D02*
X126300000Y-103174700D01*
X130000000Y-111200000D02*
X129449700Y-111200000D01*
X134000000Y-119510400D02*
X134000000Y-113300000D01*
X129049600Y-124460800D02*
X134000000Y-119510400D01*
X129049600Y-132075100D02*
X129049600Y-124460800D01*
X127850000Y-133274700D02*
X129049600Y-132075100D01*
X127850000Y-134250000D02*
X127850000Y-133762300D01*
X127850000Y-133762300D02*
X127850000Y-133274700D01*
X121738000Y-133762300D02*
X121250300Y-134250000D01*
X127850000Y-133762300D02*
X121738000Y-133762300D01*
X120150000Y-134250000D02*
X121250300Y-134250000D01*
X136300000Y-104500000D02*
X136300000Y-103174700D01*
X111750000Y-107650000D02*
X112525300Y-107650000D01*
X136346400Y-102836200D02*
X136154000Y-103028600D01*
X136300000Y-103174700D02*
X136154000Y-103028600D01*
X113300600Y-108425300D02*
X112525300Y-107650000D01*
X118264900Y-108425300D02*
X113300600Y-108425300D01*
X124012900Y-102677300D02*
X118264900Y-108425300D01*
X135802600Y-102677300D02*
X124012900Y-102677300D01*
X136154000Y-103028600D02*
X135802600Y-102677300D01*
X120800700Y-100574600D02*
X117025300Y-104350000D01*
X135110600Y-100574600D02*
X120800700Y-100574600D01*
X137225400Y-102689400D02*
X135110600Y-100574600D01*
X137225400Y-105539000D02*
X137225400Y-102689400D01*
X139336400Y-107650000D02*
X137225400Y-105539000D01*
X155750000Y-107650000D02*
X139336400Y-107650000D01*
X116250000Y-104350000D02*
X117025300Y-104350000D01*
X153025300Y-36876000D02*
X153025300Y-36350000D01*
X159716800Y-43567500D02*
X153025300Y-36876000D01*
X159716800Y-47691800D02*
X159716800Y-43567500D01*
X160825300Y-48800300D02*
X159716800Y-47691800D01*
X160825300Y-102999400D02*
X160825300Y-48800300D01*
X160250000Y-103574700D02*
X160825300Y-102999400D01*
X160250000Y-104350000D02*
X160250000Y-103574700D01*
X152250000Y-36350000D02*
X153025300Y-36350000D01*
X143674700Y-36350000D02*
X146974700Y-39650000D01*
X124250000Y-36350000D02*
X143674700Y-36350000D01*
X147750000Y-39650000D02*
X146974700Y-39650000D01*
X137850000Y-120750000D02*
X137850000Y-119774700D01*
X130150000Y-120750000D02*
X117850000Y-120750000D01*
X117850000Y-120750000D02*
X110150000Y-120750000D01*
X140000000Y-111200000D02*
X138000000Y-111200000D01*
X138000000Y-111200000D02*
X138000000Y-111825300D01*
X137766800Y-111825300D02*
X136969300Y-112622800D01*
X138000000Y-111825300D02*
X137766800Y-111825300D01*
X136969300Y-118894000D02*
X137850000Y-119774700D01*
X136969300Y-112622800D02*
X136969300Y-118894000D01*
X133449600Y-116475100D02*
X130150000Y-119774700D01*
X133449600Y-112834500D02*
X133449600Y-116475100D01*
X133661300Y-112622800D02*
X133449600Y-112834500D01*
X136969300Y-112622800D02*
X133661300Y-112622800D01*
X130150000Y-120750000D02*
X130150000Y-119774700D01*
X138000000Y-113300000D02*
X138550300Y-113300000D01*
X142500300Y-117250000D02*
X151650000Y-117250000D01*
X138550300Y-113300000D02*
X142500300Y-117250000D01*
X151650000Y-117250000D02*
X159350000Y-117250000D01*
X144637200Y-127511900D02*
X147900000Y-130774700D01*
X144637200Y-123912200D02*
X144637200Y-127511900D01*
X137449600Y-116724600D02*
X144637200Y-123912200D01*
X137449600Y-112851000D02*
X137449600Y-116724600D01*
X137650400Y-112650200D02*
X137449600Y-112851000D01*
X138799900Y-112650200D02*
X137650400Y-112650200D01*
X139449700Y-113300000D02*
X138799900Y-112650200D01*
X140000000Y-113300000D02*
X139449700Y-113300000D01*
X147900000Y-131750000D02*
X147900000Y-131262300D01*
X147900000Y-131262300D02*
X147900000Y-130774700D01*
X154012000Y-131262300D02*
X154499700Y-131750000D01*
X147900000Y-131262300D02*
X154012000Y-131262300D01*
X155600000Y-131750000D02*
X154499700Y-131750000D01*
X111042800Y-73160000D02*
X104000000Y-73160000D01*
X125057500Y-87174700D02*
X111042800Y-73160000D01*
X126300000Y-87174700D02*
X125057500Y-87174700D01*
X126300000Y-88500000D02*
X126300000Y-87174700D01*
X130300000Y-88500000D02*
X130300000Y-89825300D01*
X104000000Y-70620000D02*
X104000000Y-71795300D01*
X103632600Y-71795300D02*
X104000000Y-71795300D01*
X102824700Y-72603200D02*
X103632600Y-71795300D01*
X102824700Y-73709000D02*
X102824700Y-72603200D01*
X103545700Y-74430000D02*
X102824700Y-73709000D01*
X108096700Y-74430000D02*
X103545700Y-74430000D01*
X123791000Y-90124300D02*
X108096700Y-74430000D01*
X123910100Y-90124300D02*
X123791000Y-90124300D01*
X124062300Y-90276500D02*
X123910100Y-90124300D01*
X129848800Y-90276500D02*
X124062300Y-90276500D01*
X130300000Y-89825300D02*
X129848800Y-90276500D01*
X103632700Y-69255300D02*
X104000000Y-69255300D01*
X102358300Y-70529700D02*
X103632700Y-69255300D01*
X102358300Y-75744500D02*
X102358300Y-70529700D01*
X104625400Y-78011600D02*
X102358300Y-75744500D01*
X111036200Y-78011600D02*
X104625400Y-78011600D01*
X123599200Y-90574600D02*
X111036200Y-78011600D01*
X123723500Y-90574600D02*
X123599200Y-90574600D01*
X123876700Y-90727800D02*
X123723500Y-90574600D01*
X131397500Y-90727800D02*
X123876700Y-90727800D01*
X132300000Y-89825300D02*
X131397500Y-90727800D01*
X132300000Y-88500000D02*
X132300000Y-89825300D01*
X104000000Y-68080000D02*
X104000000Y-69255300D01*
X109707600Y-70072300D02*
X105175300Y-65540000D01*
X138360400Y-70072300D02*
X109707600Y-70072300D01*
X139610400Y-71322300D02*
X138360400Y-70072300D01*
X139610400Y-73841400D02*
X139610400Y-71322300D01*
X136300000Y-77151800D02*
X139610400Y-73841400D01*
X136300000Y-88500000D02*
X136300000Y-77151800D01*
X104000000Y-65540000D02*
X105175300Y-65540000D01*
X132288500Y-105825300D02*
X132878100Y-106414900D01*
X130300000Y-105825300D02*
X132288500Y-105825300D01*
X130300000Y-104500000D02*
X130300000Y-105825300D01*
X148850000Y-145583700D02*
X148850000Y-146750000D01*
X149650000Y-144783700D02*
X148850000Y-145583700D01*
X141150000Y-146750000D02*
X142250300Y-146750000D01*
X148850000Y-146750000D02*
X142250300Y-146750000D01*
X167632700Y-69255300D02*
X168000000Y-69255300D01*
X161935500Y-74952500D02*
X167632700Y-69255300D01*
X161935500Y-104082600D02*
X161935500Y-74952500D01*
X159690100Y-106328000D02*
X161935500Y-104082600D01*
X138802700Y-106328000D02*
X159690100Y-106328000D01*
X138300000Y-105825300D02*
X138802700Y-106328000D01*
X138300000Y-104500000D02*
X138300000Y-105825300D01*
X168000000Y-68080000D02*
X168000000Y-69255300D01*
X135374600Y-86849300D02*
X131775300Y-83250000D01*
X135374600Y-89701900D02*
X135374600Y-86849300D01*
X135498000Y-89825300D02*
X135374600Y-89701900D01*
X138300000Y-89825300D02*
X135498000Y-89825300D01*
X138300000Y-88500000D02*
X138300000Y-89825300D01*
X131000000Y-83250000D02*
X131775300Y-83250000D01*
X128300000Y-104500000D02*
X128300000Y-105825300D01*
X123180700Y-105825300D02*
X128300000Y-105825300D01*
X109049600Y-119956400D02*
X123180700Y-105825300D01*
X109049600Y-131674300D02*
X109049600Y-119956400D01*
X123150000Y-145774700D02*
X109049600Y-131674300D01*
X123150000Y-146750000D02*
X123150000Y-146262300D01*
X123150000Y-146262300D02*
X123150000Y-145774700D01*
X129262000Y-146262300D02*
X129749700Y-146750000D01*
X123150000Y-146262300D02*
X129262000Y-146262300D01*
X130850000Y-146750000D02*
X129749700Y-146750000D01*
X137324200Y-70574200D02*
X138500000Y-71750000D01*
X133990700Y-70574200D02*
X137324200Y-70574200D01*
X128299600Y-76265300D02*
X133990700Y-70574200D01*
X128299600Y-87174300D02*
X128299600Y-76265300D01*
X128300000Y-87174700D02*
X128299600Y-87174300D01*
X128300000Y-88500000D02*
X128300000Y-87174700D01*
X127850000Y-129750000D02*
X120150000Y-129750000D01*
X110150000Y-125250000D02*
X117850000Y-125250000D01*
X130150000Y-125250000D02*
X137850000Y-125250000D01*
X159350000Y-112750000D02*
X151650000Y-112750000D01*
X155600000Y-127250000D02*
X147900000Y-127250000D01*
X127850000Y-111750000D02*
X127850000Y-111374900D01*
X121625400Y-111374900D02*
X121250300Y-111750000D01*
X127850000Y-111374900D02*
X121625400Y-111374900D01*
X120150000Y-111750000D02*
X121250300Y-111750000D01*
X134300000Y-104500000D02*
X134300000Y-105712700D01*
X127850000Y-111750000D02*
X128950300Y-111750000D01*
X140359200Y-110565400D02*
X136907900Y-110565400D01*
X140550400Y-110756600D02*
X140359200Y-110565400D01*
X140550400Y-112522700D02*
X140550400Y-110756600D01*
X143413600Y-115385900D02*
X140550400Y-112522700D01*
X146149900Y-115385900D02*
X143413600Y-115385900D01*
X148000000Y-113535800D02*
X146149900Y-115385900D01*
X148000000Y-112750000D02*
X148000000Y-113535800D01*
X136907900Y-108320600D02*
X136907900Y-110565400D01*
X134300000Y-105712700D02*
X136907900Y-108320600D01*
X129099700Y-111899400D02*
X128950300Y-111750000D01*
X136329600Y-111899400D02*
X129099700Y-111899400D01*
X136907900Y-111321100D02*
X136329600Y-111899400D01*
X136907900Y-110565400D02*
X136907900Y-111321100D01*
X132300000Y-104500000D02*
X132300000Y-103174700D01*
X145000000Y-112750000D02*
X145000000Y-112174700D01*
X141743100Y-112174700D02*
X145000000Y-112174700D01*
X141000800Y-111432400D02*
X141743100Y-112174700D01*
X141000800Y-110567700D02*
X141000800Y-111432400D01*
X138494800Y-108061700D02*
X141000800Y-110567700D01*
X137728800Y-108061700D02*
X138494800Y-108061700D01*
X135225400Y-105558300D02*
X137728800Y-108061700D01*
X135225400Y-103351000D02*
X135225400Y-105558300D01*
X135049100Y-103174700D02*
X135225400Y-103351000D01*
X132300000Y-103174700D02*
X135049100Y-103174700D01*
D28*
G36*
X165290000Y-55000000D02*
X165344046Y-55271705D01*
X165497954Y-55502046D01*
X165728295Y-55655954D01*
X166000000Y-55710000D01*
X166290000Y-55710000D01*
X166290000Y-58000000D01*
X166303643Y-58068586D01*
X166303643Y-58138514D01*
X166330404Y-58203120D01*
X166344046Y-58271705D01*
X166382894Y-58329846D01*
X166409656Y-58394455D01*
X166459104Y-58443903D01*
X166497954Y-58502046D01*
X166556098Y-58540897D01*
X166605545Y-58590343D01*
X166670152Y-58617104D01*
X166728295Y-58655954D01*
X166796877Y-58669596D01*
X166861486Y-58696358D01*
X168253707Y-58973288D01*
X169316546Y-59683454D01*
X170026712Y-60746295D01*
X170290000Y-62069931D01*
X170290000Y-90949543D01*
X164297136Y-132899591D01*
X164299897Y-132950245D01*
X164290000Y-133000000D01*
X164290000Y-144930069D01*
X163569989Y-148549807D01*
X161559187Y-151559186D01*
X158549805Y-153569990D01*
X154930069Y-154290000D01*
X117069931Y-154290000D01*
X113450193Y-153569989D01*
X110440814Y-151559187D01*
X110425154Y-151535750D01*
X121740000Y-151535750D01*
X121740000Y-152026310D01*
X121836673Y-152259699D01*
X122015302Y-152438327D01*
X122248691Y-152535000D01*
X122864250Y-152535000D01*
X123023000Y-152376250D01*
X123023000Y-151377000D01*
X123277000Y-151377000D01*
X123277000Y-152376250D01*
X123435750Y-152535000D01*
X124051309Y-152535000D01*
X124284698Y-152438327D01*
X124463327Y-152259699D01*
X124560000Y-152026310D01*
X124560000Y-151535750D01*
X129440000Y-151535750D01*
X129440000Y-152026310D01*
X129536673Y-152259699D01*
X129715302Y-152438327D01*
X129948691Y-152535000D01*
X130564250Y-152535000D01*
X130723000Y-152376250D01*
X130723000Y-151377000D01*
X130977000Y-151377000D01*
X130977000Y-152376250D01*
X131135750Y-152535000D01*
X131751309Y-152535000D01*
X131984698Y-152438327D01*
X132163327Y-152259699D01*
X132260000Y-152026310D01*
X132260000Y-151535750D01*
X139740000Y-151535750D01*
X139740000Y-152026310D01*
X139836673Y-152259699D01*
X140015302Y-152438327D01*
X140248691Y-152535000D01*
X140864250Y-152535000D01*
X141023000Y-152376250D01*
X141023000Y-151377000D01*
X141277000Y-151377000D01*
X141277000Y-152376250D01*
X141435750Y-152535000D01*
X142051309Y-152535000D01*
X142284698Y-152438327D01*
X142463327Y-152259699D01*
X142560000Y-152026310D01*
X142560000Y-151535750D01*
X147440000Y-151535750D01*
X147440000Y-152026310D01*
X147536673Y-152259699D01*
X147715302Y-152438327D01*
X147948691Y-152535000D01*
X148564250Y-152535000D01*
X148723000Y-152376250D01*
X148723000Y-151377000D01*
X148977000Y-151377000D01*
X148977000Y-152376250D01*
X149135750Y-152535000D01*
X149751309Y-152535000D01*
X149984698Y-152438327D01*
X150163327Y-152259699D01*
X150260000Y-152026310D01*
X150260000Y-151535750D01*
X150101250Y-151377000D01*
X148977000Y-151377000D01*
X148723000Y-151377000D01*
X147598750Y-151377000D01*
X147440000Y-151535750D01*
X142560000Y-151535750D01*
X142401250Y-151377000D01*
X141277000Y-151377000D01*
X141023000Y-151377000D01*
X139898750Y-151377000D01*
X139740000Y-151535750D01*
X132260000Y-151535750D01*
X132101250Y-151377000D01*
X130977000Y-151377000D01*
X130723000Y-151377000D01*
X129598750Y-151377000D01*
X129440000Y-151535750D01*
X124560000Y-151535750D01*
X124401250Y-151377000D01*
X123277000Y-151377000D01*
X123023000Y-151377000D01*
X121898750Y-151377000D01*
X121740000Y-151535750D01*
X110425154Y-151535750D01*
X109715509Y-150473690D01*
X121740000Y-150473690D01*
X121740000Y-150964250D01*
X121898750Y-151123000D01*
X123023000Y-151123000D01*
X123023000Y-150123750D01*
X123277000Y-150123750D01*
X123277000Y-151123000D01*
X124401250Y-151123000D01*
X124560000Y-150964250D01*
X124560000Y-150473690D01*
X129440000Y-150473690D01*
X129440000Y-150964250D01*
X129598750Y-151123000D01*
X130723000Y-151123000D01*
X130723000Y-150123750D01*
X130977000Y-150123750D01*
X130977000Y-151123000D01*
X132101250Y-151123000D01*
X132260000Y-150964250D01*
X132260000Y-150473690D01*
X139740000Y-150473690D01*
X139740000Y-150964250D01*
X139898750Y-151123000D01*
X141023000Y-151123000D01*
X141023000Y-150123750D01*
X141277000Y-150123750D01*
X141277000Y-151123000D01*
X142401250Y-151123000D01*
X142560000Y-150964250D01*
X142560000Y-150473690D01*
X147440000Y-150473690D01*
X147440000Y-150964250D01*
X147598750Y-151123000D01*
X148723000Y-151123000D01*
X148723000Y-150123750D01*
X148977000Y-150123750D01*
X148977000Y-151123000D01*
X150101250Y-151123000D01*
X150260000Y-150964250D01*
X150260000Y-150473690D01*
X150163327Y-150240301D01*
X149984698Y-150061673D01*
X149751309Y-149965000D01*
X149135750Y-149965000D01*
X148977000Y-150123750D01*
X148723000Y-150123750D01*
X148564250Y-149965000D01*
X147948691Y-149965000D01*
X147715302Y-150061673D01*
X147536673Y-150240301D01*
X147440000Y-150473690D01*
X142560000Y-150473690D01*
X142463327Y-150240301D01*
X142284698Y-150061673D01*
X142051309Y-149965000D01*
X141435750Y-149965000D01*
X141277000Y-150123750D01*
X141023000Y-150123750D01*
X140864250Y-149965000D01*
X140248691Y-149965000D01*
X140015302Y-150061673D01*
X139836673Y-150240301D01*
X139740000Y-150473690D01*
X132260000Y-150473690D01*
X132163327Y-150240301D01*
X131984698Y-150061673D01*
X131751309Y-149965000D01*
X131135750Y-149965000D01*
X130977000Y-150123750D01*
X130723000Y-150123750D01*
X130564250Y-149965000D01*
X129948691Y-149965000D01*
X129715302Y-150061673D01*
X129536673Y-150240301D01*
X129440000Y-150473690D01*
X124560000Y-150473690D01*
X124463327Y-150240301D01*
X124284698Y-150061673D01*
X124051309Y-149965000D01*
X123435750Y-149965000D01*
X123277000Y-150123750D01*
X123023000Y-150123750D01*
X122864250Y-149965000D01*
X122248691Y-149965000D01*
X122015302Y-150061673D01*
X121836673Y-150240301D01*
X121740000Y-150473690D01*
X109715509Y-150473690D01*
X108430010Y-148549805D01*
X107710000Y-144930069D01*
X107710000Y-133000000D01*
X107700103Y-132950245D01*
X107702864Y-132899591D01*
X103665173Y-104635750D01*
X110665000Y-104635750D01*
X110665000Y-104926310D01*
X110761673Y-105159699D01*
X110940302Y-105338327D01*
X111173691Y-105435000D01*
X111464250Y-105435000D01*
X111623000Y-105276250D01*
X111623000Y-104477000D01*
X111877000Y-104477000D01*
X111877000Y-105276250D01*
X112035750Y-105435000D01*
X112326309Y-105435000D01*
X112559698Y-105338327D01*
X112738327Y-105159699D01*
X112835000Y-104926310D01*
X112835000Y-104635750D01*
X112676250Y-104477000D01*
X111877000Y-104477000D01*
X111623000Y-104477000D01*
X110823750Y-104477000D01*
X110665000Y-104635750D01*
X103665173Y-104635750D01*
X103542022Y-103773690D01*
X110665000Y-103773690D01*
X110665000Y-104064250D01*
X110823750Y-104223000D01*
X111623000Y-104223000D01*
X111623000Y-103423750D01*
X111877000Y-103423750D01*
X111877000Y-104223000D01*
X112676250Y-104223000D01*
X112835000Y-104064250D01*
X112835000Y-103773690D01*
X112738327Y-103540301D01*
X112559698Y-103361673D01*
X112326309Y-103265000D01*
X112035750Y-103265000D01*
X111877000Y-103423750D01*
X111623000Y-103423750D01*
X111464250Y-103265000D01*
X111173691Y-103265000D01*
X110940302Y-103361673D01*
X110761673Y-103540301D01*
X110665000Y-103773690D01*
X103542022Y-103773690D01*
X102938031Y-99545750D01*
X112115000Y-99545750D01*
X112115000Y-101386310D01*
X112211673Y-101619699D01*
X112390302Y-101798327D01*
X112623691Y-101895000D01*
X113714250Y-101895000D01*
X113873000Y-101736250D01*
X113873000Y-99387000D01*
X112273750Y-99387000D01*
X112115000Y-99545750D01*
X102938031Y-99545750D01*
X102593451Y-97133690D01*
X112115000Y-97133690D01*
X112115000Y-98974250D01*
X112273750Y-99133000D01*
X113873000Y-99133000D01*
X113873000Y-96783750D01*
X114127000Y-96783750D01*
X114127000Y-99133000D01*
X115726250Y-99133000D01*
X115885000Y-98974250D01*
X115885000Y-97133690D01*
X115788327Y-96900301D01*
X115609698Y-96721673D01*
X115376309Y-96625000D01*
X114285750Y-96625000D01*
X114127000Y-96783750D01*
X113873000Y-96783750D01*
X113714250Y-96625000D01*
X112623691Y-96625000D01*
X112390302Y-96721673D01*
X112211673Y-96900301D01*
X112115000Y-97133690D01*
X102593451Y-97133690D01*
X101710000Y-90949543D01*
X101710000Y-76115928D01*
X101820899Y-76281901D01*
X103845767Y-78306769D01*
X103478804Y-78379762D01*
X103406632Y-78409657D01*
X103222862Y-78485777D01*
X102898438Y-78702549D01*
X102739501Y-78861487D01*
X102702549Y-78898439D01*
X102485776Y-79222862D01*
X102435581Y-79344046D01*
X102379762Y-79478804D01*
X102303642Y-79861487D01*
X102303642Y-79931416D01*
X102290000Y-80000000D01*
X102290000Y-94000000D01*
X102303642Y-94068584D01*
X102303642Y-94138513D01*
X102379762Y-94521196D01*
X102399395Y-94568593D01*
X102485776Y-94777138D01*
X102702549Y-95101561D01*
X102702550Y-95101562D01*
X102898438Y-95297451D01*
X103222862Y-95514223D01*
X103328877Y-95558136D01*
X103478804Y-95620238D01*
X103861486Y-95696358D01*
X104138513Y-95696358D01*
X104521196Y-95620238D01*
X104596160Y-95589187D01*
X104777138Y-95514224D01*
X105101561Y-95297451D01*
X105101562Y-95297450D01*
X105297451Y-95101562D01*
X105514223Y-94777138D01*
X105567668Y-94648110D01*
X105620238Y-94521196D01*
X105696358Y-94138514D01*
X105696358Y-94068584D01*
X105710000Y-94000000D01*
X105710000Y-86735750D01*
X110865000Y-86735750D01*
X110865000Y-88576310D01*
X110961673Y-88809699D01*
X111140302Y-88988327D01*
X111373691Y-89085000D01*
X113714250Y-89085000D01*
X113873000Y-88926250D01*
X113873000Y-86577000D01*
X114127000Y-86577000D01*
X114127000Y-88926250D01*
X114285750Y-89085000D01*
X116626309Y-89085000D01*
X116859698Y-88988327D01*
X117038327Y-88809699D01*
X117135000Y-88576310D01*
X117135000Y-86735750D01*
X116976250Y-86577000D01*
X114127000Y-86577000D01*
X113873000Y-86577000D01*
X111023750Y-86577000D01*
X110865000Y-86735750D01*
X105710000Y-86735750D01*
X105710000Y-84323690D01*
X110865000Y-84323690D01*
X110865000Y-86164250D01*
X111023750Y-86323000D01*
X113873000Y-86323000D01*
X113873000Y-83973750D01*
X113714250Y-83815000D01*
X111373691Y-83815000D01*
X111140302Y-83911673D01*
X110961673Y-84090301D01*
X110865000Y-84323690D01*
X105710000Y-84323690D01*
X105710000Y-80000000D01*
X105696358Y-79931416D01*
X105696358Y-79861486D01*
X105620238Y-79478804D01*
X105514223Y-79222863D01*
X105514223Y-79222862D01*
X105297451Y-78898438D01*
X105170612Y-78771600D01*
X110721398Y-78771600D01*
X115764798Y-83815000D01*
X114285750Y-83815000D01*
X114127000Y-83973750D01*
X114127000Y-86323000D01*
X116976250Y-86323000D01*
X117135000Y-86164250D01*
X117135000Y-85185202D01*
X122202358Y-90252560D01*
X121500000Y-90252560D01*
X121264683Y-90296838D01*
X121048559Y-90435910D01*
X120903569Y-90648110D01*
X120852560Y-90900000D01*
X120852560Y-92100000D01*
X120896838Y-92335317D01*
X121003759Y-92501477D01*
X120903569Y-92648110D01*
X120852560Y-92900000D01*
X120852560Y-94100000D01*
X120896838Y-94335317D01*
X121003759Y-94501477D01*
X120903569Y-94648110D01*
X120852560Y-94900000D01*
X120852560Y-96011838D01*
X115885000Y-100979398D01*
X115885000Y-99545750D01*
X115726250Y-99387000D01*
X114127000Y-99387000D01*
X114127000Y-101736250D01*
X114285750Y-101895000D01*
X114969398Y-101895000D01*
X114937299Y-101927099D01*
X114772552Y-102173661D01*
X114714700Y-102464500D01*
X114714700Y-106099400D01*
X114772552Y-106390239D01*
X114937299Y-106636801D01*
X115221851Y-106921353D01*
X115203569Y-106948110D01*
X115152560Y-107200000D01*
X115152560Y-107665300D01*
X113615402Y-107665300D01*
X113062701Y-107112599D01*
X112816139Y-106947852D01*
X112788837Y-106942421D01*
X112664090Y-106748559D01*
X112451890Y-106603569D01*
X112200000Y-106552560D01*
X111300000Y-106552560D01*
X111064683Y-106596838D01*
X110848559Y-106735910D01*
X110703569Y-106948110D01*
X110652560Y-107200000D01*
X110652560Y-108100000D01*
X110696838Y-108335317D01*
X110835910Y-108551441D01*
X111048110Y-108696431D01*
X111300000Y-108747440D01*
X112200000Y-108747440D01*
X112435317Y-108703162D01*
X112476901Y-108676403D01*
X112763199Y-108962701D01*
X113009761Y-109127448D01*
X113300600Y-109185300D01*
X118264900Y-109185300D01*
X118555739Y-109127448D01*
X118802301Y-108962701D01*
X123138000Y-104627002D01*
X123223748Y-104627002D01*
X123065000Y-104785750D01*
X123065000Y-105088314D01*
X122889860Y-105123152D01*
X122643299Y-105287899D01*
X108512199Y-119418999D01*
X108347452Y-119665561D01*
X108289600Y-119956400D01*
X108289600Y-131674300D01*
X108347452Y-131965139D01*
X108512199Y-132211701D01*
X121931377Y-145630879D01*
X121923559Y-145635910D01*
X121778569Y-145848110D01*
X121727560Y-146100000D01*
X121727560Y-147400000D01*
X121771838Y-147635317D01*
X121910910Y-147851441D01*
X122123110Y-147996431D01*
X122375000Y-148047440D01*
X123925000Y-148047440D01*
X124160317Y-148003162D01*
X124376441Y-147864090D01*
X124521431Y-147651890D01*
X124572440Y-147400000D01*
X124572440Y-147022300D01*
X128947198Y-147022300D01*
X129212299Y-147287401D01*
X129434282Y-147435725D01*
X129471838Y-147635317D01*
X129610910Y-147851441D01*
X129823110Y-147996431D01*
X130075000Y-148047440D01*
X131625000Y-148047440D01*
X131860317Y-148003162D01*
X132076441Y-147864090D01*
X132221431Y-147651890D01*
X132272440Y-147400000D01*
X132272440Y-146100000D01*
X139727560Y-146100000D01*
X139727560Y-147400000D01*
X139771838Y-147635317D01*
X139910910Y-147851441D01*
X140123110Y-147996431D01*
X140375000Y-148047440D01*
X141925000Y-148047440D01*
X142160317Y-148003162D01*
X142376441Y-147864090D01*
X142521431Y-147651890D01*
X142550164Y-147510000D01*
X147448258Y-147510000D01*
X147471838Y-147635317D01*
X147610910Y-147851441D01*
X147823110Y-147996431D01*
X148075000Y-148047440D01*
X149625000Y-148047440D01*
X149860317Y-148003162D01*
X150076441Y-147864090D01*
X150221431Y-147651890D01*
X150272440Y-147400000D01*
X150272440Y-146100000D01*
X150228162Y-145864683D01*
X150126495Y-145706688D01*
X150235515Y-145661642D01*
X150526919Y-145370746D01*
X150684820Y-144990477D01*
X150685179Y-144578729D01*
X150527942Y-144198185D01*
X150237046Y-143906781D01*
X149856777Y-143748880D01*
X149445029Y-143748521D01*
X149064485Y-143905758D01*
X148773081Y-144196654D01*
X148615180Y-144576923D01*
X148615034Y-144743864D01*
X148312599Y-145046299D01*
X148147852Y-145292861D01*
X148116086Y-145452560D01*
X148075000Y-145452560D01*
X147839683Y-145496838D01*
X147623559Y-145635910D01*
X147478569Y-145848110D01*
X147449836Y-145990000D01*
X142551742Y-145990000D01*
X142528162Y-145864683D01*
X142389090Y-145648559D01*
X142176890Y-145503569D01*
X141925000Y-145452560D01*
X140375000Y-145452560D01*
X140139683Y-145496838D01*
X139923559Y-145635910D01*
X139778569Y-145848110D01*
X139727560Y-146100000D01*
X132272440Y-146100000D01*
X132228162Y-145864683D01*
X132089090Y-145648559D01*
X131876890Y-145503569D01*
X131625000Y-145452560D01*
X130075000Y-145452560D01*
X129839683Y-145496838D01*
X129645291Y-145621926D01*
X129552839Y-145560152D01*
X129262000Y-145502300D01*
X124170623Y-145502300D01*
X123925000Y-145452560D01*
X123831233Y-145452560D01*
X123687401Y-145237299D01*
X109809600Y-131359498D01*
X109809600Y-126547440D01*
X110925000Y-126547440D01*
X111160317Y-126503162D01*
X111376441Y-126364090D01*
X111521431Y-126151890D01*
X111550164Y-126010000D01*
X116448258Y-126010000D01*
X116471838Y-126135317D01*
X116610910Y-126351441D01*
X116823110Y-126496431D01*
X117075000Y-126547440D01*
X118625000Y-126547440D01*
X118860317Y-126503162D01*
X119076441Y-126364090D01*
X119221431Y-126151890D01*
X119272440Y-125900000D01*
X119272440Y-124600000D01*
X119228162Y-124364683D01*
X119089090Y-124148559D01*
X118876890Y-124003569D01*
X118625000Y-123952560D01*
X117075000Y-123952560D01*
X116839683Y-123996838D01*
X116623559Y-124135910D01*
X116478569Y-124348110D01*
X116449836Y-124490000D01*
X111551742Y-124490000D01*
X111528162Y-124364683D01*
X111389090Y-124148559D01*
X111176890Y-124003569D01*
X110925000Y-123952560D01*
X109809600Y-123952560D01*
X109809600Y-122047440D01*
X110925000Y-122047440D01*
X111160317Y-122003162D01*
X111376441Y-121864090D01*
X111521431Y-121651890D01*
X111550164Y-121510000D01*
X116448258Y-121510000D01*
X116471838Y-121635317D01*
X116610910Y-121851441D01*
X116823110Y-121996431D01*
X117075000Y-122047440D01*
X118625000Y-122047440D01*
X118860317Y-122003162D01*
X119076441Y-121864090D01*
X119221431Y-121651890D01*
X119250164Y-121510000D01*
X128748258Y-121510000D01*
X128771838Y-121635317D01*
X128910910Y-121851441D01*
X129123110Y-121996431D01*
X129375000Y-122047440D01*
X130388158Y-122047440D01*
X128512199Y-123923399D01*
X128347452Y-124169961D01*
X128289600Y-124460800D01*
X128289600Y-128452560D01*
X127075000Y-128452560D01*
X126839683Y-128496838D01*
X126623559Y-128635910D01*
X126478569Y-128848110D01*
X126449836Y-128990000D01*
X121551742Y-128990000D01*
X121528162Y-128864683D01*
X121389090Y-128648559D01*
X121176890Y-128503569D01*
X120925000Y-128452560D01*
X119375000Y-128452560D01*
X119139683Y-128496838D01*
X118923559Y-128635910D01*
X118778569Y-128848110D01*
X118727560Y-129100000D01*
X118727560Y-130400000D01*
X118771838Y-130635317D01*
X118910910Y-130851441D01*
X119123110Y-130996431D01*
X119375000Y-131047440D01*
X120925000Y-131047440D01*
X121160317Y-131003162D01*
X121376441Y-130864090D01*
X121521431Y-130651890D01*
X121550164Y-130510000D01*
X126448258Y-130510000D01*
X126471838Y-130635317D01*
X126610910Y-130851441D01*
X126823110Y-130996431D01*
X127075000Y-131047440D01*
X128289600Y-131047440D01*
X128289600Y-131760298D01*
X127312599Y-132737299D01*
X127168767Y-132952560D01*
X127075000Y-132952560D01*
X126839683Y-132996838D01*
X126831195Y-133002300D01*
X121738000Y-133002300D01*
X121447161Y-133060152D01*
X121352385Y-133123479D01*
X121176890Y-133003569D01*
X120925000Y-132952560D01*
X119375000Y-132952560D01*
X119139683Y-132996838D01*
X118923559Y-133135910D01*
X118778569Y-133348110D01*
X118727560Y-133600000D01*
X118727560Y-134900000D01*
X118771838Y-135135317D01*
X118910910Y-135351441D01*
X119123110Y-135496431D01*
X119375000Y-135547440D01*
X120925000Y-135547440D01*
X121160317Y-135503162D01*
X121376441Y-135364090D01*
X121521431Y-135151890D01*
X121565125Y-134936121D01*
X121787701Y-134787401D01*
X122052802Y-134522300D01*
X126427560Y-134522300D01*
X126427560Y-134900000D01*
X126471838Y-135135317D01*
X126610910Y-135351441D01*
X126823110Y-135496431D01*
X127075000Y-135547440D01*
X128625000Y-135547440D01*
X128860317Y-135503162D01*
X129076441Y-135364090D01*
X129221431Y-135151890D01*
X129272440Y-134900000D01*
X129272440Y-133600000D01*
X129228162Y-133364683D01*
X129089090Y-133148559D01*
X129066428Y-133133074D01*
X129587001Y-132612501D01*
X129751748Y-132365939D01*
X129809600Y-132075100D01*
X129809600Y-126547440D01*
X130925000Y-126547440D01*
X131160317Y-126503162D01*
X131376441Y-126364090D01*
X131521431Y-126151890D01*
X131550164Y-126010000D01*
X136448258Y-126010000D01*
X136471838Y-126135317D01*
X136610910Y-126351441D01*
X136823110Y-126496431D01*
X137075000Y-126547440D01*
X138625000Y-126547440D01*
X138860317Y-126503162D01*
X139076441Y-126364090D01*
X139221431Y-126151890D01*
X139272440Y-125900000D01*
X139272440Y-124600000D01*
X139228162Y-124364683D01*
X139089090Y-124148559D01*
X138876890Y-124003569D01*
X138625000Y-123952560D01*
X137075000Y-123952560D01*
X136839683Y-123996838D01*
X136623559Y-124135910D01*
X136478569Y-124348110D01*
X136449836Y-124490000D01*
X131551742Y-124490000D01*
X131528162Y-124364683D01*
X131389090Y-124148559D01*
X131176890Y-124003569D01*
X130925000Y-123952560D01*
X130632642Y-123952560D01*
X134537401Y-120047801D01*
X134702148Y-119801239D01*
X134760000Y-119510400D01*
X134760000Y-113941797D01*
X134821431Y-113851890D01*
X134872440Y-113600000D01*
X134872440Y-113382800D01*
X135127560Y-113382800D01*
X135127560Y-113600000D01*
X135171838Y-113835317D01*
X135310910Y-114051441D01*
X135523110Y-114196431D01*
X135775000Y-114247440D01*
X136209300Y-114247440D01*
X136209300Y-118894000D01*
X136267152Y-119184839D01*
X136431899Y-119431401D01*
X136631377Y-119630879D01*
X136623559Y-119635910D01*
X136478569Y-119848110D01*
X136427560Y-120100000D01*
X136427560Y-121400000D01*
X136471838Y-121635317D01*
X136610910Y-121851441D01*
X136823110Y-121996431D01*
X137075000Y-122047440D01*
X138625000Y-122047440D01*
X138860317Y-122003162D01*
X139076441Y-121864090D01*
X139221431Y-121651890D01*
X139272440Y-121400000D01*
X139272440Y-120100000D01*
X139228162Y-119864683D01*
X139089090Y-119648559D01*
X138876890Y-119503569D01*
X138625000Y-119452560D01*
X138531233Y-119452560D01*
X138387401Y-119237299D01*
X137729300Y-118579198D01*
X137729300Y-118079102D01*
X143877200Y-124227002D01*
X143877200Y-127511900D01*
X143935052Y-127802739D01*
X144099799Y-128049301D01*
X146681377Y-130630879D01*
X146673559Y-130635910D01*
X146528569Y-130848110D01*
X146477560Y-131100000D01*
X146477560Y-132400000D01*
X146521838Y-132635317D01*
X146660910Y-132851441D01*
X146873110Y-132996431D01*
X147125000Y-133047440D01*
X148675000Y-133047440D01*
X148910317Y-133003162D01*
X149126441Y-132864090D01*
X149271431Y-132651890D01*
X149322440Y-132400000D01*
X149322440Y-132022300D01*
X153697198Y-132022300D01*
X153962299Y-132287401D01*
X154184282Y-132435725D01*
X154221838Y-132635317D01*
X154360910Y-132851441D01*
X154573110Y-132996431D01*
X154825000Y-133047440D01*
X156375000Y-133047440D01*
X156610317Y-133003162D01*
X156826441Y-132864090D01*
X156971431Y-132651890D01*
X157022440Y-132400000D01*
X157022440Y-131100000D01*
X156978162Y-130864683D01*
X156839090Y-130648559D01*
X156626890Y-130503569D01*
X156375000Y-130452560D01*
X154825000Y-130452560D01*
X154589683Y-130496838D01*
X154395291Y-130621926D01*
X154302839Y-130560152D01*
X154012000Y-130502300D01*
X148920623Y-130502300D01*
X148675000Y-130452560D01*
X148581233Y-130452560D01*
X148437401Y-130237299D01*
X145397200Y-127197098D01*
X145397200Y-126600000D01*
X146477560Y-126600000D01*
X146477560Y-127900000D01*
X146521838Y-128135317D01*
X146660910Y-128351441D01*
X146873110Y-128496431D01*
X147125000Y-128547440D01*
X148675000Y-128547440D01*
X148910317Y-128503162D01*
X149126441Y-128364090D01*
X149271431Y-128151890D01*
X149300164Y-128010000D01*
X154198258Y-128010000D01*
X154221838Y-128135317D01*
X154360910Y-128351441D01*
X154573110Y-128496431D01*
X154825000Y-128547440D01*
X156375000Y-128547440D01*
X156610317Y-128503162D01*
X156826441Y-128364090D01*
X156971431Y-128151890D01*
X157022440Y-127900000D01*
X157022440Y-126600000D01*
X156978162Y-126364683D01*
X156839090Y-126148559D01*
X156626890Y-126003569D01*
X156375000Y-125952560D01*
X154825000Y-125952560D01*
X154589683Y-125996838D01*
X154373559Y-126135910D01*
X154228569Y-126348110D01*
X154199836Y-126490000D01*
X149301742Y-126490000D01*
X149278162Y-126364683D01*
X149139090Y-126148559D01*
X148926890Y-126003569D01*
X148675000Y-125952560D01*
X147125000Y-125952560D01*
X146889683Y-125996838D01*
X146673559Y-126135910D01*
X146528569Y-126348110D01*
X146477560Y-126600000D01*
X145397200Y-126600000D01*
X145397200Y-123912200D01*
X145339348Y-123621361D01*
X145339348Y-123621360D01*
X145174601Y-123374799D01*
X138209600Y-116409798D01*
X138209600Y-114247440D01*
X138225000Y-114247440D01*
X138391592Y-114216094D01*
X141962899Y-117787401D01*
X142209461Y-117952148D01*
X142500300Y-118010000D01*
X150248258Y-118010000D01*
X150271838Y-118135317D01*
X150410910Y-118351441D01*
X150623110Y-118496431D01*
X150875000Y-118547440D01*
X152425000Y-118547440D01*
X152660317Y-118503162D01*
X152876441Y-118364090D01*
X153021431Y-118151890D01*
X153050164Y-118010000D01*
X157948258Y-118010000D01*
X157971838Y-118135317D01*
X158110910Y-118351441D01*
X158323110Y-118496431D01*
X158575000Y-118547440D01*
X160125000Y-118547440D01*
X160360317Y-118503162D01*
X160576441Y-118364090D01*
X160721431Y-118151890D01*
X160772440Y-117900000D01*
X160772440Y-116600000D01*
X160728162Y-116364683D01*
X160589090Y-116148559D01*
X160376890Y-116003569D01*
X160125000Y-115952560D01*
X158575000Y-115952560D01*
X158339683Y-115996838D01*
X158123559Y-116135910D01*
X157978569Y-116348110D01*
X157949836Y-116490000D01*
X153051742Y-116490000D01*
X153028162Y-116364683D01*
X152889090Y-116148559D01*
X152676890Y-116003569D01*
X152425000Y-115952560D01*
X150875000Y-115952560D01*
X150639683Y-115996838D01*
X150423559Y-116135910D01*
X150278569Y-116348110D01*
X150249836Y-116490000D01*
X142815102Y-116490000D01*
X140501660Y-114176558D01*
X140676441Y-114064090D01*
X140814675Y-113861777D01*
X142876199Y-115923301D01*
X143122760Y-116088048D01*
X143413600Y-116145900D01*
X146149900Y-116145900D01*
X146440739Y-116088048D01*
X146687301Y-115923301D01*
X148537401Y-114073201D01*
X148702148Y-113826639D01*
X148755596Y-113557938D01*
X148901441Y-113464090D01*
X149046431Y-113251890D01*
X149097440Y-113000000D01*
X149097440Y-112500000D01*
X149053162Y-112264683D01*
X148914090Y-112048559D01*
X148857657Y-112010000D01*
X150245785Y-112010000D01*
X150227560Y-112100000D01*
X150227560Y-113400000D01*
X150271838Y-113635317D01*
X150410910Y-113851441D01*
X150623110Y-113996431D01*
X150875000Y-114047440D01*
X152425000Y-114047440D01*
X152660317Y-114003162D01*
X152876441Y-113864090D01*
X153021431Y-113651890D01*
X153050164Y-113510000D01*
X157948258Y-113510000D01*
X157971838Y-113635317D01*
X158110910Y-113851441D01*
X158323110Y-113996431D01*
X158575000Y-114047440D01*
X160125000Y-114047440D01*
X160360317Y-114003162D01*
X160576441Y-113864090D01*
X160721431Y-113651890D01*
X160772440Y-113400000D01*
X160772440Y-112100000D01*
X160728162Y-111864683D01*
X160589090Y-111648559D01*
X160376890Y-111503569D01*
X160125000Y-111452560D01*
X158575000Y-111452560D01*
X158339683Y-111496838D01*
X158123559Y-111635910D01*
X157978569Y-111848110D01*
X157949836Y-111990000D01*
X155975246Y-111990000D01*
X156165539Y-111952148D01*
X156412101Y-111787401D01*
X159521353Y-108678149D01*
X159548110Y-108696431D01*
X159800000Y-108747440D01*
X160700000Y-108747440D01*
X160935317Y-108703162D01*
X161151441Y-108564090D01*
X161296431Y-108351890D01*
X161347440Y-108100000D01*
X161347440Y-107200000D01*
X161303162Y-106964683D01*
X161276403Y-106923099D01*
X163915201Y-104284301D01*
X164079948Y-104037740D01*
X164137800Y-103746900D01*
X164137800Y-80000000D01*
X166290000Y-80000000D01*
X166290000Y-94000000D01*
X166303642Y-94068584D01*
X166303642Y-94138513D01*
X166379762Y-94521196D01*
X166399395Y-94568593D01*
X166485776Y-94777138D01*
X166702549Y-95101561D01*
X166702550Y-95101562D01*
X166898438Y-95297451D01*
X167222862Y-95514223D01*
X167328877Y-95558136D01*
X167478804Y-95620238D01*
X167861486Y-95696358D01*
X168138513Y-95696358D01*
X168521196Y-95620238D01*
X168596160Y-95589187D01*
X168777138Y-95514224D01*
X169101561Y-95297451D01*
X169101562Y-95297450D01*
X169297451Y-95101562D01*
X169514223Y-94777138D01*
X169567668Y-94648110D01*
X169620238Y-94521196D01*
X169696358Y-94138514D01*
X169696358Y-94068584D01*
X169710000Y-94000000D01*
X169710000Y-80000000D01*
X169696358Y-79931416D01*
X169696358Y-79861486D01*
X169620238Y-79478804D01*
X169514223Y-79222863D01*
X169514223Y-79222862D01*
X169297451Y-78898438D01*
X169101562Y-78702550D01*
X169101561Y-78702549D01*
X168777138Y-78485776D01*
X168593368Y-78409657D01*
X168521196Y-78379762D01*
X168138513Y-78303642D01*
X168000000Y-78303642D01*
X167478804Y-78379762D01*
X167406632Y-78409657D01*
X167222862Y-78485777D01*
X166898438Y-78702549D01*
X166739501Y-78861487D01*
X166702549Y-78898439D01*
X166485776Y-79222862D01*
X166435581Y-79344046D01*
X166379762Y-79478804D01*
X166303642Y-79861487D01*
X166303642Y-79931416D01*
X166290000Y-80000000D01*
X164137800Y-80000000D01*
X164137800Y-76365002D01*
X166669270Y-73833532D01*
X166920853Y-74210054D01*
X167402622Y-74531961D01*
X167970907Y-74645000D01*
X168029093Y-74645000D01*
X168597378Y-74531961D01*
X169079147Y-74210054D01*
X169401054Y-73728285D01*
X169514093Y-73160000D01*
X169401054Y-72591715D01*
X169079147Y-72109946D01*
X168749974Y-71890000D01*
X169079147Y-71670054D01*
X169401054Y-71188285D01*
X169514093Y-70620000D01*
X169401054Y-70051715D01*
X169079147Y-69569946D01*
X168749974Y-69350000D01*
X169079147Y-69130054D01*
X169401054Y-68648285D01*
X169514093Y-68080000D01*
X169401054Y-67511715D01*
X169079147Y-67029946D01*
X168749974Y-66810000D01*
X169079147Y-66590054D01*
X169401054Y-66108285D01*
X169514093Y-65540000D01*
X169401054Y-64971715D01*
X169079147Y-64489946D01*
X169035223Y-64460597D01*
X169209698Y-64388327D01*
X169388327Y-64209699D01*
X169485000Y-63976310D01*
X169485000Y-63285750D01*
X169326250Y-63127000D01*
X168127000Y-63127000D01*
X168127000Y-63147000D01*
X167873000Y-63147000D01*
X167873000Y-63127000D01*
X166673750Y-63127000D01*
X166515000Y-63285750D01*
X166515000Y-63976310D01*
X166611673Y-64209699D01*
X166790302Y-64388327D01*
X166964777Y-64460597D01*
X166920853Y-64489946D01*
X166598946Y-64971715D01*
X166485907Y-65540000D01*
X166598946Y-66108285D01*
X166920853Y-66590054D01*
X167250026Y-66810000D01*
X166920853Y-67029946D01*
X166598946Y-67511715D01*
X166485907Y-68080000D01*
X166598946Y-68648285D01*
X166825640Y-68987557D01*
X161585300Y-74227898D01*
X161585300Y-62023690D01*
X166515000Y-62023690D01*
X166515000Y-62714250D01*
X166673750Y-62873000D01*
X167873000Y-62873000D01*
X167873000Y-61673750D01*
X168127000Y-61673750D01*
X168127000Y-62873000D01*
X169326250Y-62873000D01*
X169485000Y-62714250D01*
X169485000Y-62023690D01*
X169388327Y-61790301D01*
X169209698Y-61611673D01*
X168976309Y-61515000D01*
X168285750Y-61515000D01*
X168127000Y-61673750D01*
X167873000Y-61673750D01*
X167714250Y-61515000D01*
X167023691Y-61515000D01*
X166790302Y-61611673D01*
X166611673Y-61790301D01*
X166515000Y-62023690D01*
X161585300Y-62023690D01*
X161585300Y-48800300D01*
X161567338Y-48710000D01*
X165290000Y-48710000D01*
X165290000Y-55000000D01*
X165290000Y-55000000D01*
G37*
X165290000Y-55000000D02*
X165344046Y-55271705D01*
X165497954Y-55502046D01*
X165728295Y-55655954D01*
X166000000Y-55710000D01*
X166290000Y-55710000D01*
X166290000Y-58000000D01*
X166303643Y-58068586D01*
X166303643Y-58138514D01*
X166330404Y-58203120D01*
X166344046Y-58271705D01*
X166382894Y-58329846D01*
X166409656Y-58394455D01*
X166459104Y-58443903D01*
X166497954Y-58502046D01*
X166556098Y-58540897D01*
X166605545Y-58590343D01*
X166670152Y-58617104D01*
X166728295Y-58655954D01*
X166796877Y-58669596D01*
X166861486Y-58696358D01*
X168253707Y-58973288D01*
X169316546Y-59683454D01*
X170026712Y-60746295D01*
X170290000Y-62069931D01*
X170290000Y-90949543D01*
X164297136Y-132899591D01*
X164299897Y-132950245D01*
X164290000Y-133000000D01*
X164290000Y-144930069D01*
X163569989Y-148549807D01*
X161559187Y-151559186D01*
X158549805Y-153569990D01*
X154930069Y-154290000D01*
X117069931Y-154290000D01*
X113450193Y-153569989D01*
X110440814Y-151559187D01*
X110425154Y-151535750D01*
X121740000Y-151535750D01*
X121740000Y-152026310D01*
X121836673Y-152259699D01*
X122015302Y-152438327D01*
X122248691Y-152535000D01*
X122864250Y-152535000D01*
X123023000Y-152376250D01*
X123023000Y-151377000D01*
X123277000Y-151377000D01*
X123277000Y-152376250D01*
X123435750Y-152535000D01*
X124051309Y-152535000D01*
X124284698Y-152438327D01*
X124463327Y-152259699D01*
X124560000Y-152026310D01*
X124560000Y-151535750D01*
X129440000Y-151535750D01*
X129440000Y-152026310D01*
X129536673Y-152259699D01*
X129715302Y-152438327D01*
X129948691Y-152535000D01*
X130564250Y-152535000D01*
X130723000Y-152376250D01*
X130723000Y-151377000D01*
X130977000Y-151377000D01*
X130977000Y-152376250D01*
X131135750Y-152535000D01*
X131751309Y-152535000D01*
X131984698Y-152438327D01*
X132163327Y-152259699D01*
X132260000Y-152026310D01*
X132260000Y-151535750D01*
X139740000Y-151535750D01*
X139740000Y-152026310D01*
X139836673Y-152259699D01*
X140015302Y-152438327D01*
X140248691Y-152535000D01*
X140864250Y-152535000D01*
X141023000Y-152376250D01*
X141023000Y-151377000D01*
X141277000Y-151377000D01*
X141277000Y-152376250D01*
X141435750Y-152535000D01*
X142051309Y-152535000D01*
X142284698Y-152438327D01*
X142463327Y-152259699D01*
X142560000Y-152026310D01*
X142560000Y-151535750D01*
X147440000Y-151535750D01*
X147440000Y-152026310D01*
X147536673Y-152259699D01*
X147715302Y-152438327D01*
X147948691Y-152535000D01*
X148564250Y-152535000D01*
X148723000Y-152376250D01*
X148723000Y-151377000D01*
X148977000Y-151377000D01*
X148977000Y-152376250D01*
X149135750Y-152535000D01*
X149751309Y-152535000D01*
X149984698Y-152438327D01*
X150163327Y-152259699D01*
X150260000Y-152026310D01*
X150260000Y-151535750D01*
X150101250Y-151377000D01*
X148977000Y-151377000D01*
X148723000Y-151377000D01*
X147598750Y-151377000D01*
X147440000Y-151535750D01*
X142560000Y-151535750D01*
X142401250Y-151377000D01*
X141277000Y-151377000D01*
X141023000Y-151377000D01*
X139898750Y-151377000D01*
X139740000Y-151535750D01*
X132260000Y-151535750D01*
X132101250Y-151377000D01*
X130977000Y-151377000D01*
X130723000Y-151377000D01*
X129598750Y-151377000D01*
X129440000Y-151535750D01*
X124560000Y-151535750D01*
X124401250Y-151377000D01*
X123277000Y-151377000D01*
X123023000Y-151377000D01*
X121898750Y-151377000D01*
X121740000Y-151535750D01*
X110425154Y-151535750D01*
X109715509Y-150473690D01*
X121740000Y-150473690D01*
X121740000Y-150964250D01*
X121898750Y-151123000D01*
X123023000Y-151123000D01*
X123023000Y-150123750D01*
X123277000Y-150123750D01*
X123277000Y-151123000D01*
X124401250Y-151123000D01*
X124560000Y-150964250D01*
X124560000Y-150473690D01*
X129440000Y-150473690D01*
X129440000Y-150964250D01*
X129598750Y-151123000D01*
X130723000Y-151123000D01*
X130723000Y-150123750D01*
X130977000Y-150123750D01*
X130977000Y-151123000D01*
X132101250Y-151123000D01*
X132260000Y-150964250D01*
X132260000Y-150473690D01*
X139740000Y-150473690D01*
X139740000Y-150964250D01*
X139898750Y-151123000D01*
X141023000Y-151123000D01*
X141023000Y-150123750D01*
X141277000Y-150123750D01*
X141277000Y-151123000D01*
X142401250Y-151123000D01*
X142560000Y-150964250D01*
X142560000Y-150473690D01*
X147440000Y-150473690D01*
X147440000Y-150964250D01*
X147598750Y-151123000D01*
X148723000Y-151123000D01*
X148723000Y-150123750D01*
X148977000Y-150123750D01*
X148977000Y-151123000D01*
X150101250Y-151123000D01*
X150260000Y-150964250D01*
X150260000Y-150473690D01*
X150163327Y-150240301D01*
X149984698Y-150061673D01*
X149751309Y-149965000D01*
X149135750Y-149965000D01*
X148977000Y-150123750D01*
X148723000Y-150123750D01*
X148564250Y-149965000D01*
X147948691Y-149965000D01*
X147715302Y-150061673D01*
X147536673Y-150240301D01*
X147440000Y-150473690D01*
X142560000Y-150473690D01*
X142463327Y-150240301D01*
X142284698Y-150061673D01*
X142051309Y-149965000D01*
X141435750Y-149965000D01*
X141277000Y-150123750D01*
X141023000Y-150123750D01*
X140864250Y-149965000D01*
X140248691Y-149965000D01*
X140015302Y-150061673D01*
X139836673Y-150240301D01*
X139740000Y-150473690D01*
X132260000Y-150473690D01*
X132163327Y-150240301D01*
X131984698Y-150061673D01*
X131751309Y-149965000D01*
X131135750Y-149965000D01*
X130977000Y-150123750D01*
X130723000Y-150123750D01*
X130564250Y-149965000D01*
X129948691Y-149965000D01*
X129715302Y-150061673D01*
X129536673Y-150240301D01*
X129440000Y-150473690D01*
X124560000Y-150473690D01*
X124463327Y-150240301D01*
X124284698Y-150061673D01*
X124051309Y-149965000D01*
X123435750Y-149965000D01*
X123277000Y-150123750D01*
X123023000Y-150123750D01*
X122864250Y-149965000D01*
X122248691Y-149965000D01*
X122015302Y-150061673D01*
X121836673Y-150240301D01*
X121740000Y-150473690D01*
X109715509Y-150473690D01*
X108430010Y-148549805D01*
X107710000Y-144930069D01*
X107710000Y-133000000D01*
X107700103Y-132950245D01*
X107702864Y-132899591D01*
X103665173Y-104635750D01*
X110665000Y-104635750D01*
X110665000Y-104926310D01*
X110761673Y-105159699D01*
X110940302Y-105338327D01*
X111173691Y-105435000D01*
X111464250Y-105435000D01*
X111623000Y-105276250D01*
X111623000Y-104477000D01*
X111877000Y-104477000D01*
X111877000Y-105276250D01*
X112035750Y-105435000D01*
X112326309Y-105435000D01*
X112559698Y-105338327D01*
X112738327Y-105159699D01*
X112835000Y-104926310D01*
X112835000Y-104635750D01*
X112676250Y-104477000D01*
X111877000Y-104477000D01*
X111623000Y-104477000D01*
X110823750Y-104477000D01*
X110665000Y-104635750D01*
X103665173Y-104635750D01*
X103542022Y-103773690D01*
X110665000Y-103773690D01*
X110665000Y-104064250D01*
X110823750Y-104223000D01*
X111623000Y-104223000D01*
X111623000Y-103423750D01*
X111877000Y-103423750D01*
X111877000Y-104223000D01*
X112676250Y-104223000D01*
X112835000Y-104064250D01*
X112835000Y-103773690D01*
X112738327Y-103540301D01*
X112559698Y-103361673D01*
X112326309Y-103265000D01*
X112035750Y-103265000D01*
X111877000Y-103423750D01*
X111623000Y-103423750D01*
X111464250Y-103265000D01*
X111173691Y-103265000D01*
X110940302Y-103361673D01*
X110761673Y-103540301D01*
X110665000Y-103773690D01*
X103542022Y-103773690D01*
X102938031Y-99545750D01*
X112115000Y-99545750D01*
X112115000Y-101386310D01*
X112211673Y-101619699D01*
X112390302Y-101798327D01*
X112623691Y-101895000D01*
X113714250Y-101895000D01*
X113873000Y-101736250D01*
X113873000Y-99387000D01*
X112273750Y-99387000D01*
X112115000Y-99545750D01*
X102938031Y-99545750D01*
X102593451Y-97133690D01*
X112115000Y-97133690D01*
X112115000Y-98974250D01*
X112273750Y-99133000D01*
X113873000Y-99133000D01*
X113873000Y-96783750D01*
X114127000Y-96783750D01*
X114127000Y-99133000D01*
X115726250Y-99133000D01*
X115885000Y-98974250D01*
X115885000Y-97133690D01*
X115788327Y-96900301D01*
X115609698Y-96721673D01*
X115376309Y-96625000D01*
X114285750Y-96625000D01*
X114127000Y-96783750D01*
X113873000Y-96783750D01*
X113714250Y-96625000D01*
X112623691Y-96625000D01*
X112390302Y-96721673D01*
X112211673Y-96900301D01*
X112115000Y-97133690D01*
X102593451Y-97133690D01*
X101710000Y-90949543D01*
X101710000Y-76115928D01*
X101820899Y-76281901D01*
X103845767Y-78306769D01*
X103478804Y-78379762D01*
X103406632Y-78409657D01*
X103222862Y-78485777D01*
X102898438Y-78702549D01*
X102739501Y-78861487D01*
X102702549Y-78898439D01*
X102485776Y-79222862D01*
X102435581Y-79344046D01*
X102379762Y-79478804D01*
X102303642Y-79861487D01*
X102303642Y-79931416D01*
X102290000Y-80000000D01*
X102290000Y-94000000D01*
X102303642Y-94068584D01*
X102303642Y-94138513D01*
X102379762Y-94521196D01*
X102399395Y-94568593D01*
X102485776Y-94777138D01*
X102702549Y-95101561D01*
X102702550Y-95101562D01*
X102898438Y-95297451D01*
X103222862Y-95514223D01*
X103328877Y-95558136D01*
X103478804Y-95620238D01*
X103861486Y-95696358D01*
X104138513Y-95696358D01*
X104521196Y-95620238D01*
X104596160Y-95589187D01*
X104777138Y-95514224D01*
X105101561Y-95297451D01*
X105101562Y-95297450D01*
X105297451Y-95101562D01*
X105514223Y-94777138D01*
X105567668Y-94648110D01*
X105620238Y-94521196D01*
X105696358Y-94138514D01*
X105696358Y-94068584D01*
X105710000Y-94000000D01*
X105710000Y-86735750D01*
X110865000Y-86735750D01*
X110865000Y-88576310D01*
X110961673Y-88809699D01*
X111140302Y-88988327D01*
X111373691Y-89085000D01*
X113714250Y-89085000D01*
X113873000Y-88926250D01*
X113873000Y-86577000D01*
X114127000Y-86577000D01*
X114127000Y-88926250D01*
X114285750Y-89085000D01*
X116626309Y-89085000D01*
X116859698Y-88988327D01*
X117038327Y-88809699D01*
X117135000Y-88576310D01*
X117135000Y-86735750D01*
X116976250Y-86577000D01*
X114127000Y-86577000D01*
X113873000Y-86577000D01*
X111023750Y-86577000D01*
X110865000Y-86735750D01*
X105710000Y-86735750D01*
X105710000Y-84323690D01*
X110865000Y-84323690D01*
X110865000Y-86164250D01*
X111023750Y-86323000D01*
X113873000Y-86323000D01*
X113873000Y-83973750D01*
X113714250Y-83815000D01*
X111373691Y-83815000D01*
X111140302Y-83911673D01*
X110961673Y-84090301D01*
X110865000Y-84323690D01*
X105710000Y-84323690D01*
X105710000Y-80000000D01*
X105696358Y-79931416D01*
X105696358Y-79861486D01*
X105620238Y-79478804D01*
X105514223Y-79222863D01*
X105514223Y-79222862D01*
X105297451Y-78898438D01*
X105170612Y-78771600D01*
X110721398Y-78771600D01*
X115764798Y-83815000D01*
X114285750Y-83815000D01*
X114127000Y-83973750D01*
X114127000Y-86323000D01*
X116976250Y-86323000D01*
X117135000Y-86164250D01*
X117135000Y-85185202D01*
X122202358Y-90252560D01*
X121500000Y-90252560D01*
X121264683Y-90296838D01*
X121048559Y-90435910D01*
X120903569Y-90648110D01*
X120852560Y-90900000D01*
X120852560Y-92100000D01*
X120896838Y-92335317D01*
X121003759Y-92501477D01*
X120903569Y-92648110D01*
X120852560Y-92900000D01*
X120852560Y-94100000D01*
X120896838Y-94335317D01*
X121003759Y-94501477D01*
X120903569Y-94648110D01*
X120852560Y-94900000D01*
X120852560Y-96011838D01*
X115885000Y-100979398D01*
X115885000Y-99545750D01*
X115726250Y-99387000D01*
X114127000Y-99387000D01*
X114127000Y-101736250D01*
X114285750Y-101895000D01*
X114969398Y-101895000D01*
X114937299Y-101927099D01*
X114772552Y-102173661D01*
X114714700Y-102464500D01*
X114714700Y-106099400D01*
X114772552Y-106390239D01*
X114937299Y-106636801D01*
X115221851Y-106921353D01*
X115203569Y-106948110D01*
X115152560Y-107200000D01*
X115152560Y-107665300D01*
X113615402Y-107665300D01*
X113062701Y-107112599D01*
X112816139Y-106947852D01*
X112788837Y-106942421D01*
X112664090Y-106748559D01*
X112451890Y-106603569D01*
X112200000Y-106552560D01*
X111300000Y-106552560D01*
X111064683Y-106596838D01*
X110848559Y-106735910D01*
X110703569Y-106948110D01*
X110652560Y-107200000D01*
X110652560Y-108100000D01*
X110696838Y-108335317D01*
X110835910Y-108551441D01*
X111048110Y-108696431D01*
X111300000Y-108747440D01*
X112200000Y-108747440D01*
X112435317Y-108703162D01*
X112476901Y-108676403D01*
X112763199Y-108962701D01*
X113009761Y-109127448D01*
X113300600Y-109185300D01*
X118264900Y-109185300D01*
X118555739Y-109127448D01*
X118802301Y-108962701D01*
X123138000Y-104627002D01*
X123223748Y-104627002D01*
X123065000Y-104785750D01*
X123065000Y-105088314D01*
X122889860Y-105123152D01*
X122643299Y-105287899D01*
X108512199Y-119418999D01*
X108347452Y-119665561D01*
X108289600Y-119956400D01*
X108289600Y-131674300D01*
X108347452Y-131965139D01*
X108512199Y-132211701D01*
X121931377Y-145630879D01*
X121923559Y-145635910D01*
X121778569Y-145848110D01*
X121727560Y-146100000D01*
X121727560Y-147400000D01*
X121771838Y-147635317D01*
X121910910Y-147851441D01*
X122123110Y-147996431D01*
X122375000Y-148047440D01*
X123925000Y-148047440D01*
X124160317Y-148003162D01*
X124376441Y-147864090D01*
X124521431Y-147651890D01*
X124572440Y-147400000D01*
X124572440Y-147022300D01*
X128947198Y-147022300D01*
X129212299Y-147287401D01*
X129434282Y-147435725D01*
X129471838Y-147635317D01*
X129610910Y-147851441D01*
X129823110Y-147996431D01*
X130075000Y-148047440D01*
X131625000Y-148047440D01*
X131860317Y-148003162D01*
X132076441Y-147864090D01*
X132221431Y-147651890D01*
X132272440Y-147400000D01*
X132272440Y-146100000D01*
X139727560Y-146100000D01*
X139727560Y-147400000D01*
X139771838Y-147635317D01*
X139910910Y-147851441D01*
X140123110Y-147996431D01*
X140375000Y-148047440D01*
X141925000Y-148047440D01*
X142160317Y-148003162D01*
X142376441Y-147864090D01*
X142521431Y-147651890D01*
X142550164Y-147510000D01*
X147448258Y-147510000D01*
X147471838Y-147635317D01*
X147610910Y-147851441D01*
X147823110Y-147996431D01*
X148075000Y-148047440D01*
X149625000Y-148047440D01*
X149860317Y-148003162D01*
X150076441Y-147864090D01*
X150221431Y-147651890D01*
X150272440Y-147400000D01*
X150272440Y-146100000D01*
X150228162Y-145864683D01*
X150126495Y-145706688D01*
X150235515Y-145661642D01*
X150526919Y-145370746D01*
X150684820Y-144990477D01*
X150685179Y-144578729D01*
X150527942Y-144198185D01*
X150237046Y-143906781D01*
X149856777Y-143748880D01*
X149445029Y-143748521D01*
X149064485Y-143905758D01*
X148773081Y-144196654D01*
X148615180Y-144576923D01*
X148615034Y-144743864D01*
X148312599Y-145046299D01*
X148147852Y-145292861D01*
X148116086Y-145452560D01*
X148075000Y-145452560D01*
X147839683Y-145496838D01*
X147623559Y-145635910D01*
X147478569Y-145848110D01*
X147449836Y-145990000D01*
X142551742Y-145990000D01*
X142528162Y-145864683D01*
X142389090Y-145648559D01*
X142176890Y-145503569D01*
X141925000Y-145452560D01*
X140375000Y-145452560D01*
X140139683Y-145496838D01*
X139923559Y-145635910D01*
X139778569Y-145848110D01*
X139727560Y-146100000D01*
X132272440Y-146100000D01*
X132228162Y-145864683D01*
X132089090Y-145648559D01*
X131876890Y-145503569D01*
X131625000Y-145452560D01*
X130075000Y-145452560D01*
X129839683Y-145496838D01*
X129645291Y-145621926D01*
X129552839Y-145560152D01*
X129262000Y-145502300D01*
X124170623Y-145502300D01*
X123925000Y-145452560D01*
X123831233Y-145452560D01*
X123687401Y-145237299D01*
X109809600Y-131359498D01*
X109809600Y-126547440D01*
X110925000Y-126547440D01*
X111160317Y-126503162D01*
X111376441Y-126364090D01*
X111521431Y-126151890D01*
X111550164Y-126010000D01*
X116448258Y-126010000D01*
X116471838Y-126135317D01*
X116610910Y-126351441D01*
X116823110Y-126496431D01*
X117075000Y-126547440D01*
X118625000Y-126547440D01*
X118860317Y-126503162D01*
X119076441Y-126364090D01*
X119221431Y-126151890D01*
X119272440Y-125900000D01*
X119272440Y-124600000D01*
X119228162Y-124364683D01*
X119089090Y-124148559D01*
X118876890Y-124003569D01*
X118625000Y-123952560D01*
X117075000Y-123952560D01*
X116839683Y-123996838D01*
X116623559Y-124135910D01*
X116478569Y-124348110D01*
X116449836Y-124490000D01*
X111551742Y-124490000D01*
X111528162Y-124364683D01*
X111389090Y-124148559D01*
X111176890Y-124003569D01*
X110925000Y-123952560D01*
X109809600Y-123952560D01*
X109809600Y-122047440D01*
X110925000Y-122047440D01*
X111160317Y-122003162D01*
X111376441Y-121864090D01*
X111521431Y-121651890D01*
X111550164Y-121510000D01*
X116448258Y-121510000D01*
X116471838Y-121635317D01*
X116610910Y-121851441D01*
X116823110Y-121996431D01*
X117075000Y-122047440D01*
X118625000Y-122047440D01*
X118860317Y-122003162D01*
X119076441Y-121864090D01*
X119221431Y-121651890D01*
X119250164Y-121510000D01*
X128748258Y-121510000D01*
X128771838Y-121635317D01*
X128910910Y-121851441D01*
X129123110Y-121996431D01*
X129375000Y-122047440D01*
X130388158Y-122047440D01*
X128512199Y-123923399D01*
X128347452Y-124169961D01*
X128289600Y-124460800D01*
X128289600Y-128452560D01*
X127075000Y-128452560D01*
X126839683Y-128496838D01*
X126623559Y-128635910D01*
X126478569Y-128848110D01*
X126449836Y-128990000D01*
X121551742Y-128990000D01*
X121528162Y-128864683D01*
X121389090Y-128648559D01*
X121176890Y-128503569D01*
X120925000Y-128452560D01*
X119375000Y-128452560D01*
X119139683Y-128496838D01*
X118923559Y-128635910D01*
X118778569Y-128848110D01*
X118727560Y-129100000D01*
X118727560Y-130400000D01*
X118771838Y-130635317D01*
X118910910Y-130851441D01*
X119123110Y-130996431D01*
X119375000Y-131047440D01*
X120925000Y-131047440D01*
X121160317Y-131003162D01*
X121376441Y-130864090D01*
X121521431Y-130651890D01*
X121550164Y-130510000D01*
X126448258Y-130510000D01*
X126471838Y-130635317D01*
X126610910Y-130851441D01*
X126823110Y-130996431D01*
X127075000Y-131047440D01*
X128289600Y-131047440D01*
X128289600Y-131760298D01*
X127312599Y-132737299D01*
X127168767Y-132952560D01*
X127075000Y-132952560D01*
X126839683Y-132996838D01*
X126831195Y-133002300D01*
X121738000Y-133002300D01*
X121447161Y-133060152D01*
X121352385Y-133123479D01*
X121176890Y-133003569D01*
X120925000Y-132952560D01*
X119375000Y-132952560D01*
X119139683Y-132996838D01*
X118923559Y-133135910D01*
X118778569Y-133348110D01*
X118727560Y-133600000D01*
X118727560Y-134900000D01*
X118771838Y-135135317D01*
X118910910Y-135351441D01*
X119123110Y-135496431D01*
X119375000Y-135547440D01*
X120925000Y-135547440D01*
X121160317Y-135503162D01*
X121376441Y-135364090D01*
X121521431Y-135151890D01*
X121565125Y-134936121D01*
X121787701Y-134787401D01*
X122052802Y-134522300D01*
X126427560Y-134522300D01*
X126427560Y-134900000D01*
X126471838Y-135135317D01*
X126610910Y-135351441D01*
X126823110Y-135496431D01*
X127075000Y-135547440D01*
X128625000Y-135547440D01*
X128860317Y-135503162D01*
X129076441Y-135364090D01*
X129221431Y-135151890D01*
X129272440Y-134900000D01*
X129272440Y-133600000D01*
X129228162Y-133364683D01*
X129089090Y-133148559D01*
X129066428Y-133133074D01*
X129587001Y-132612501D01*
X129751748Y-132365939D01*
X129809600Y-132075100D01*
X129809600Y-126547440D01*
X130925000Y-126547440D01*
X131160317Y-126503162D01*
X131376441Y-126364090D01*
X131521431Y-126151890D01*
X131550164Y-126010000D01*
X136448258Y-126010000D01*
X136471838Y-126135317D01*
X136610910Y-126351441D01*
X136823110Y-126496431D01*
X137075000Y-126547440D01*
X138625000Y-126547440D01*
X138860317Y-126503162D01*
X139076441Y-126364090D01*
X139221431Y-126151890D01*
X139272440Y-125900000D01*
X139272440Y-124600000D01*
X139228162Y-124364683D01*
X139089090Y-124148559D01*
X138876890Y-124003569D01*
X138625000Y-123952560D01*
X137075000Y-123952560D01*
X136839683Y-123996838D01*
X136623559Y-124135910D01*
X136478569Y-124348110D01*
X136449836Y-124490000D01*
X131551742Y-124490000D01*
X131528162Y-124364683D01*
X131389090Y-124148559D01*
X131176890Y-124003569D01*
X130925000Y-123952560D01*
X130632642Y-123952560D01*
X134537401Y-120047801D01*
X134702148Y-119801239D01*
X134760000Y-119510400D01*
X134760000Y-113941797D01*
X134821431Y-113851890D01*
X134872440Y-113600000D01*
X134872440Y-113382800D01*
X135127560Y-113382800D01*
X135127560Y-113600000D01*
X135171838Y-113835317D01*
X135310910Y-114051441D01*
X135523110Y-114196431D01*
X135775000Y-114247440D01*
X136209300Y-114247440D01*
X136209300Y-118894000D01*
X136267152Y-119184839D01*
X136431899Y-119431401D01*
X136631377Y-119630879D01*
X136623559Y-119635910D01*
X136478569Y-119848110D01*
X136427560Y-120100000D01*
X136427560Y-121400000D01*
X136471838Y-121635317D01*
X136610910Y-121851441D01*
X136823110Y-121996431D01*
X137075000Y-122047440D01*
X138625000Y-122047440D01*
X138860317Y-122003162D01*
X139076441Y-121864090D01*
X139221431Y-121651890D01*
X139272440Y-121400000D01*
X139272440Y-120100000D01*
X139228162Y-119864683D01*
X139089090Y-119648559D01*
X138876890Y-119503569D01*
X138625000Y-119452560D01*
X138531233Y-119452560D01*
X138387401Y-119237299D01*
X137729300Y-118579198D01*
X137729300Y-118079102D01*
X143877200Y-124227002D01*
X143877200Y-127511900D01*
X143935052Y-127802739D01*
X144099799Y-128049301D01*
X146681377Y-130630879D01*
X146673559Y-130635910D01*
X146528569Y-130848110D01*
X146477560Y-131100000D01*
X146477560Y-132400000D01*
X146521838Y-132635317D01*
X146660910Y-132851441D01*
X146873110Y-132996431D01*
X147125000Y-133047440D01*
X148675000Y-133047440D01*
X148910317Y-133003162D01*
X149126441Y-132864090D01*
X149271431Y-132651890D01*
X149322440Y-132400000D01*
X149322440Y-132022300D01*
X153697198Y-132022300D01*
X153962299Y-132287401D01*
X154184282Y-132435725D01*
X154221838Y-132635317D01*
X154360910Y-132851441D01*
X154573110Y-132996431D01*
X154825000Y-133047440D01*
X156375000Y-133047440D01*
X156610317Y-133003162D01*
X156826441Y-132864090D01*
X156971431Y-132651890D01*
X157022440Y-132400000D01*
X157022440Y-131100000D01*
X156978162Y-130864683D01*
X156839090Y-130648559D01*
X156626890Y-130503569D01*
X156375000Y-130452560D01*
X154825000Y-130452560D01*
X154589683Y-130496838D01*
X154395291Y-130621926D01*
X154302839Y-130560152D01*
X154012000Y-130502300D01*
X148920623Y-130502300D01*
X148675000Y-130452560D01*
X148581233Y-130452560D01*
X148437401Y-130237299D01*
X145397200Y-127197098D01*
X145397200Y-126600000D01*
X146477560Y-126600000D01*
X146477560Y-127900000D01*
X146521838Y-128135317D01*
X146660910Y-128351441D01*
X146873110Y-128496431D01*
X147125000Y-128547440D01*
X148675000Y-128547440D01*
X148910317Y-128503162D01*
X149126441Y-128364090D01*
X149271431Y-128151890D01*
X149300164Y-128010000D01*
X154198258Y-128010000D01*
X154221838Y-128135317D01*
X154360910Y-128351441D01*
X154573110Y-128496431D01*
X154825000Y-128547440D01*
X156375000Y-128547440D01*
X156610317Y-128503162D01*
X156826441Y-128364090D01*
X156971431Y-128151890D01*
X157022440Y-127900000D01*
X157022440Y-126600000D01*
X156978162Y-126364683D01*
X156839090Y-126148559D01*
X156626890Y-126003569D01*
X156375000Y-125952560D01*
X154825000Y-125952560D01*
X154589683Y-125996838D01*
X154373559Y-126135910D01*
X154228569Y-126348110D01*
X154199836Y-126490000D01*
X149301742Y-126490000D01*
X149278162Y-126364683D01*
X149139090Y-126148559D01*
X148926890Y-126003569D01*
X148675000Y-125952560D01*
X147125000Y-125952560D01*
X146889683Y-125996838D01*
X146673559Y-126135910D01*
X146528569Y-126348110D01*
X146477560Y-126600000D01*
X145397200Y-126600000D01*
X145397200Y-123912200D01*
X145339348Y-123621361D01*
X145339348Y-123621360D01*
X145174601Y-123374799D01*
X138209600Y-116409798D01*
X138209600Y-114247440D01*
X138225000Y-114247440D01*
X138391592Y-114216094D01*
X141962899Y-117787401D01*
X142209461Y-117952148D01*
X142500300Y-118010000D01*
X150248258Y-118010000D01*
X150271838Y-118135317D01*
X150410910Y-118351441D01*
X150623110Y-118496431D01*
X150875000Y-118547440D01*
X152425000Y-118547440D01*
X152660317Y-118503162D01*
X152876441Y-118364090D01*
X153021431Y-118151890D01*
X153050164Y-118010000D01*
X157948258Y-118010000D01*
X157971838Y-118135317D01*
X158110910Y-118351441D01*
X158323110Y-118496431D01*
X158575000Y-118547440D01*
X160125000Y-118547440D01*
X160360317Y-118503162D01*
X160576441Y-118364090D01*
X160721431Y-118151890D01*
X160772440Y-117900000D01*
X160772440Y-116600000D01*
X160728162Y-116364683D01*
X160589090Y-116148559D01*
X160376890Y-116003569D01*
X160125000Y-115952560D01*
X158575000Y-115952560D01*
X158339683Y-115996838D01*
X158123559Y-116135910D01*
X157978569Y-116348110D01*
X157949836Y-116490000D01*
X153051742Y-116490000D01*
X153028162Y-116364683D01*
X152889090Y-116148559D01*
X152676890Y-116003569D01*
X152425000Y-115952560D01*
X150875000Y-115952560D01*
X150639683Y-115996838D01*
X150423559Y-116135910D01*
X150278569Y-116348110D01*
X150249836Y-116490000D01*
X142815102Y-116490000D01*
X140501660Y-114176558D01*
X140676441Y-114064090D01*
X140814675Y-113861777D01*
X142876199Y-115923301D01*
X143122760Y-116088048D01*
X143413600Y-116145900D01*
X146149900Y-116145900D01*
X146440739Y-116088048D01*
X146687301Y-115923301D01*
X148537401Y-114073201D01*
X148702148Y-113826639D01*
X148755596Y-113557938D01*
X148901441Y-113464090D01*
X149046431Y-113251890D01*
X149097440Y-113000000D01*
X149097440Y-112500000D01*
X149053162Y-112264683D01*
X148914090Y-112048559D01*
X148857657Y-112010000D01*
X150245785Y-112010000D01*
X150227560Y-112100000D01*
X150227560Y-113400000D01*
X150271838Y-113635317D01*
X150410910Y-113851441D01*
X150623110Y-113996431D01*
X150875000Y-114047440D01*
X152425000Y-114047440D01*
X152660317Y-114003162D01*
X152876441Y-113864090D01*
X153021431Y-113651890D01*
X153050164Y-113510000D01*
X157948258Y-113510000D01*
X157971838Y-113635317D01*
X158110910Y-113851441D01*
X158323110Y-113996431D01*
X158575000Y-114047440D01*
X160125000Y-114047440D01*
X160360317Y-114003162D01*
X160576441Y-113864090D01*
X160721431Y-113651890D01*
X160772440Y-113400000D01*
X160772440Y-112100000D01*
X160728162Y-111864683D01*
X160589090Y-111648559D01*
X160376890Y-111503569D01*
X160125000Y-111452560D01*
X158575000Y-111452560D01*
X158339683Y-111496838D01*
X158123559Y-111635910D01*
X157978569Y-111848110D01*
X157949836Y-111990000D01*
X155975246Y-111990000D01*
X156165539Y-111952148D01*
X156412101Y-111787401D01*
X159521353Y-108678149D01*
X159548110Y-108696431D01*
X159800000Y-108747440D01*
X160700000Y-108747440D01*
X160935317Y-108703162D01*
X161151441Y-108564090D01*
X161296431Y-108351890D01*
X161347440Y-108100000D01*
X161347440Y-107200000D01*
X161303162Y-106964683D01*
X161276403Y-106923099D01*
X163915201Y-104284301D01*
X164079948Y-104037740D01*
X164137800Y-103746900D01*
X164137800Y-80000000D01*
X166290000Y-80000000D01*
X166290000Y-94000000D01*
X166303642Y-94068584D01*
X166303642Y-94138513D01*
X166379762Y-94521196D01*
X166399395Y-94568593D01*
X166485776Y-94777138D01*
X166702549Y-95101561D01*
X166702550Y-95101562D01*
X166898438Y-95297451D01*
X167222862Y-95514223D01*
X167328877Y-95558136D01*
X167478804Y-95620238D01*
X167861486Y-95696358D01*
X168138513Y-95696358D01*
X168521196Y-95620238D01*
X168596160Y-95589187D01*
X168777138Y-95514224D01*
X169101561Y-95297451D01*
X169101562Y-95297450D01*
X169297451Y-95101562D01*
X169514223Y-94777138D01*
X169567668Y-94648110D01*
X169620238Y-94521196D01*
X169696358Y-94138514D01*
X169696358Y-94068584D01*
X169710000Y-94000000D01*
X169710000Y-80000000D01*
X169696358Y-79931416D01*
X169696358Y-79861486D01*
X169620238Y-79478804D01*
X169514223Y-79222863D01*
X169514223Y-79222862D01*
X169297451Y-78898438D01*
X169101562Y-78702550D01*
X169101561Y-78702549D01*
X168777138Y-78485776D01*
X168593368Y-78409657D01*
X168521196Y-78379762D01*
X168138513Y-78303642D01*
X168000000Y-78303642D01*
X167478804Y-78379762D01*
X167406632Y-78409657D01*
X167222862Y-78485777D01*
X166898438Y-78702549D01*
X166739501Y-78861487D01*
X166702549Y-78898439D01*
X166485776Y-79222862D01*
X166435581Y-79344046D01*
X166379762Y-79478804D01*
X166303642Y-79861487D01*
X166303642Y-79931416D01*
X166290000Y-80000000D01*
X164137800Y-80000000D01*
X164137800Y-76365002D01*
X166669270Y-73833532D01*
X166920853Y-74210054D01*
X167402622Y-74531961D01*
X167970907Y-74645000D01*
X168029093Y-74645000D01*
X168597378Y-74531961D01*
X169079147Y-74210054D01*
X169401054Y-73728285D01*
X169514093Y-73160000D01*
X169401054Y-72591715D01*
X169079147Y-72109946D01*
X168749974Y-71890000D01*
X169079147Y-71670054D01*
X169401054Y-71188285D01*
X169514093Y-70620000D01*
X169401054Y-70051715D01*
X169079147Y-69569946D01*
X168749974Y-69350000D01*
X169079147Y-69130054D01*
X169401054Y-68648285D01*
X169514093Y-68080000D01*
X169401054Y-67511715D01*
X169079147Y-67029946D01*
X168749974Y-66810000D01*
X169079147Y-66590054D01*
X169401054Y-66108285D01*
X169514093Y-65540000D01*
X169401054Y-64971715D01*
X169079147Y-64489946D01*
X169035223Y-64460597D01*
X169209698Y-64388327D01*
X169388327Y-64209699D01*
X169485000Y-63976310D01*
X169485000Y-63285750D01*
X169326250Y-63127000D01*
X168127000Y-63127000D01*
X168127000Y-63147000D01*
X167873000Y-63147000D01*
X167873000Y-63127000D01*
X166673750Y-63127000D01*
X166515000Y-63285750D01*
X166515000Y-63976310D01*
X166611673Y-64209699D01*
X166790302Y-64388327D01*
X166964777Y-64460597D01*
X166920853Y-64489946D01*
X166598946Y-64971715D01*
X166485907Y-65540000D01*
X166598946Y-66108285D01*
X166920853Y-66590054D01*
X167250026Y-66810000D01*
X166920853Y-67029946D01*
X166598946Y-67511715D01*
X166485907Y-68080000D01*
X166598946Y-68648285D01*
X166825640Y-68987557D01*
X161585300Y-74227898D01*
X161585300Y-62023690D01*
X166515000Y-62023690D01*
X166515000Y-62714250D01*
X166673750Y-62873000D01*
X167873000Y-62873000D01*
X167873000Y-61673750D01*
X168127000Y-61673750D01*
X168127000Y-62873000D01*
X169326250Y-62873000D01*
X169485000Y-62714250D01*
X169485000Y-62023690D01*
X169388327Y-61790301D01*
X169209698Y-61611673D01*
X168976309Y-61515000D01*
X168285750Y-61515000D01*
X168127000Y-61673750D01*
X167873000Y-61673750D01*
X167714250Y-61515000D01*
X167023691Y-61515000D01*
X166790302Y-61611673D01*
X166611673Y-61790301D01*
X166515000Y-62023690D01*
X161585300Y-62023690D01*
X161585300Y-48800300D01*
X161567338Y-48710000D01*
X165290000Y-48710000D01*
X165290000Y-55000000D01*
G36*
X156603058Y-83577560D02*
X155500000Y-83577560D01*
X155264683Y-83621838D01*
X155048559Y-83760910D01*
X154903569Y-83973110D01*
X154852560Y-84225000D01*
X154852560Y-88225000D01*
X154896838Y-88460317D01*
X155035910Y-88676441D01*
X155248110Y-88821431D01*
X155500000Y-88872440D01*
X157240000Y-88872440D01*
X157240000Y-96387560D01*
X156750000Y-96387560D01*
X156514683Y-96431838D01*
X156298559Y-96570910D01*
X156153569Y-96783110D01*
X156102560Y-97035000D01*
X156102560Y-101035000D01*
X156146838Y-101270317D01*
X156285910Y-101486441D01*
X156498110Y-101631431D01*
X156750000Y-101682440D01*
X159250000Y-101682440D01*
X159485317Y-101638162D01*
X159701441Y-101499090D01*
X159846431Y-101286890D01*
X159897440Y-101035000D01*
X159897440Y-97035000D01*
X159853162Y-96799683D01*
X159714090Y-96583559D01*
X159501890Y-96438569D01*
X159250000Y-96387560D01*
X158760000Y-96387560D01*
X158760000Y-88872440D01*
X160065300Y-88872440D01*
X160065300Y-102684598D01*
X159712599Y-103037299D01*
X159547852Y-103283861D01*
X159542421Y-103311163D01*
X159348559Y-103435910D01*
X159203569Y-103648110D01*
X159152560Y-103900000D01*
X159152560Y-104800000D01*
X159196838Y-105035317D01*
X159335910Y-105251441D01*
X159547372Y-105395926D01*
X159375298Y-105568000D01*
X148611606Y-105568000D01*
X149089803Y-105089803D01*
X149116994Y-105049410D01*
X149127000Y-105000000D01*
X149127000Y-104635750D01*
X154665000Y-104635750D01*
X154665000Y-104926310D01*
X154761673Y-105159699D01*
X154940302Y-105338327D01*
X155173691Y-105435000D01*
X155464250Y-105435000D01*
X155623000Y-105276250D01*
X155623000Y-104477000D01*
X155877000Y-104477000D01*
X155877000Y-105276250D01*
X156035750Y-105435000D01*
X156326309Y-105435000D01*
X156559698Y-105338327D01*
X156738327Y-105159699D01*
X156835000Y-104926310D01*
X156835000Y-104635750D01*
X156676250Y-104477000D01*
X155877000Y-104477000D01*
X155623000Y-104477000D01*
X154823750Y-104477000D01*
X154665000Y-104635750D01*
X149127000Y-104635750D01*
X149127000Y-103773690D01*
X154665000Y-103773690D01*
X154665000Y-104064250D01*
X154823750Y-104223000D01*
X155623000Y-104223000D01*
X155623000Y-103423750D01*
X155877000Y-103423750D01*
X155877000Y-104223000D01*
X156676250Y-104223000D01*
X156835000Y-104064250D01*
X156835000Y-103773690D01*
X156738327Y-103540301D01*
X156559698Y-103361673D01*
X156326309Y-103265000D01*
X156035750Y-103265000D01*
X155877000Y-103423750D01*
X155623000Y-103423750D01*
X155464250Y-103265000D01*
X155173691Y-103265000D01*
X154940302Y-103361673D01*
X154761673Y-103540301D01*
X154665000Y-103773690D01*
X149127000Y-103773690D01*
X149127000Y-88000000D01*
X149117666Y-87952211D01*
X149089803Y-87910197D01*
X148089803Y-86910197D01*
X148049410Y-86883006D01*
X148000000Y-86873000D01*
X140000000Y-86873000D01*
X139952211Y-86882334D01*
X139910197Y-86910197D01*
X139511484Y-87308910D01*
X139503162Y-87264683D01*
X139364090Y-87048559D01*
X139151890Y-86903569D01*
X138900000Y-86852560D01*
X137700000Y-86852560D01*
X137464683Y-86896838D01*
X137298523Y-87003759D01*
X137151890Y-86903569D01*
X137060000Y-86884961D01*
X137060000Y-77466602D01*
X140147801Y-74378801D01*
X140312548Y-74132239D01*
X140370400Y-73841400D01*
X140370400Y-71322300D01*
X140312548Y-71031461D01*
X140147801Y-70784899D01*
X139198202Y-69835300D01*
X142860798Y-69835300D01*
X156603058Y-83577560D01*
X156603058Y-83577560D01*
G37*
X156603058Y-83577560D02*
X155500000Y-83577560D01*
X155264683Y-83621838D01*
X155048559Y-83760910D01*
X154903569Y-83973110D01*
X154852560Y-84225000D01*
X154852560Y-88225000D01*
X154896838Y-88460317D01*
X155035910Y-88676441D01*
X155248110Y-88821431D01*
X155500000Y-88872440D01*
X157240000Y-88872440D01*
X157240000Y-96387560D01*
X156750000Y-96387560D01*
X156514683Y-96431838D01*
X156298559Y-96570910D01*
X156153569Y-96783110D01*
X156102560Y-97035000D01*
X156102560Y-101035000D01*
X156146838Y-101270317D01*
X156285910Y-101486441D01*
X156498110Y-101631431D01*
X156750000Y-101682440D01*
X159250000Y-101682440D01*
X159485317Y-101638162D01*
X159701441Y-101499090D01*
X159846431Y-101286890D01*
X159897440Y-101035000D01*
X159897440Y-97035000D01*
X159853162Y-96799683D01*
X159714090Y-96583559D01*
X159501890Y-96438569D01*
X159250000Y-96387560D01*
X158760000Y-96387560D01*
X158760000Y-88872440D01*
X160065300Y-88872440D01*
X160065300Y-102684598D01*
X159712599Y-103037299D01*
X159547852Y-103283861D01*
X159542421Y-103311163D01*
X159348559Y-103435910D01*
X159203569Y-103648110D01*
X159152560Y-103900000D01*
X159152560Y-104800000D01*
X159196838Y-105035317D01*
X159335910Y-105251441D01*
X159547372Y-105395926D01*
X159375298Y-105568000D01*
X148611606Y-105568000D01*
X149089803Y-105089803D01*
X149116994Y-105049410D01*
X149127000Y-105000000D01*
X149127000Y-104635750D01*
X154665000Y-104635750D01*
X154665000Y-104926310D01*
X154761673Y-105159699D01*
X154940302Y-105338327D01*
X155173691Y-105435000D01*
X155464250Y-105435000D01*
X155623000Y-105276250D01*
X155623000Y-104477000D01*
X155877000Y-104477000D01*
X155877000Y-105276250D01*
X156035750Y-105435000D01*
X156326309Y-105435000D01*
X156559698Y-105338327D01*
X156738327Y-105159699D01*
X156835000Y-104926310D01*
X156835000Y-104635750D01*
X156676250Y-104477000D01*
X155877000Y-104477000D01*
X155623000Y-104477000D01*
X154823750Y-104477000D01*
X154665000Y-104635750D01*
X149127000Y-104635750D01*
X149127000Y-103773690D01*
X154665000Y-103773690D01*
X154665000Y-104064250D01*
X154823750Y-104223000D01*
X155623000Y-104223000D01*
X155623000Y-103423750D01*
X155877000Y-103423750D01*
X155877000Y-104223000D01*
X156676250Y-104223000D01*
X156835000Y-104064250D01*
X156835000Y-103773690D01*
X156738327Y-103540301D01*
X156559698Y-103361673D01*
X156326309Y-103265000D01*
X156035750Y-103265000D01*
X155877000Y-103423750D01*
X155623000Y-103423750D01*
X155464250Y-103265000D01*
X155173691Y-103265000D01*
X154940302Y-103361673D01*
X154761673Y-103540301D01*
X154665000Y-103773690D01*
X149127000Y-103773690D01*
X149127000Y-88000000D01*
X149117666Y-87952211D01*
X149089803Y-87910197D01*
X148089803Y-86910197D01*
X148049410Y-86883006D01*
X148000000Y-86873000D01*
X140000000Y-86873000D01*
X139952211Y-86882334D01*
X139910197Y-86910197D01*
X139511484Y-87308910D01*
X139503162Y-87264683D01*
X139364090Y-87048559D01*
X139151890Y-86903569D01*
X138900000Y-86852560D01*
X137700000Y-86852560D01*
X137464683Y-86896838D01*
X137298523Y-87003759D01*
X137151890Y-86903569D01*
X137060000Y-86884961D01*
X137060000Y-77466602D01*
X140147801Y-74378801D01*
X140312548Y-74132239D01*
X140370400Y-73841400D01*
X140370400Y-71322300D01*
X140312548Y-71031461D01*
X140147801Y-70784899D01*
X139198202Y-69835300D01*
X142860798Y-69835300D01*
X156603058Y-83577560D01*
G36*
X124427000Y-104373000D02*
X124447000Y-104373000D01*
X124447000Y-104627000D01*
X124427000Y-104627000D01*
X124427000Y-104647000D01*
X124173000Y-104647000D01*
X124173000Y-104627000D01*
X124153000Y-104627000D01*
X124153000Y-104373000D01*
X124173000Y-104373000D01*
X124173000Y-104353000D01*
X124427000Y-104353000D01*
X124427000Y-104373000D01*
X124427000Y-104373000D01*
G37*
X124427000Y-104373000D02*
X124447000Y-104373000D01*
X124447000Y-104627000D01*
X124427000Y-104627000D01*
X124427000Y-104647000D01*
X124173000Y-104647000D01*
X124173000Y-104627000D01*
X124153000Y-104627000D01*
X124153000Y-104373000D01*
X124173000Y-104373000D01*
X124173000Y-104353000D01*
X124427000Y-104353000D01*
X124427000Y-104373000D01*
G36*
X135378498Y-101917300D02*
X124147440Y-101917300D01*
X124147440Y-101334600D01*
X134795798Y-101334600D01*
X135378498Y-101917300D01*
X135378498Y-101917300D01*
G37*
X135378498Y-101917300D02*
X124147440Y-101917300D01*
X124147440Y-101334600D01*
X134795798Y-101334600D01*
X135378498Y-101917300D01*
G36*
X127381298Y-95669200D02*
X124147440Y-95669200D01*
X124147440Y-94900000D01*
X124103162Y-94664683D01*
X123996241Y-94498523D01*
X124096431Y-94351890D01*
X124147440Y-94100000D01*
X124147440Y-92900000D01*
X124103162Y-92664683D01*
X123996241Y-92498523D01*
X124096431Y-92351890D01*
X124147440Y-92100000D01*
X124147440Y-91487800D01*
X131397500Y-91487800D01*
X131603718Y-91446780D01*
X127381298Y-95669200D01*
X127381298Y-95669200D01*
G37*
X127381298Y-95669200D02*
X124147440Y-95669200D01*
X124147440Y-94900000D01*
X124103162Y-94664683D01*
X123996241Y-94498523D01*
X124096431Y-94351890D01*
X124147440Y-94100000D01*
X124147440Y-92900000D01*
X124103162Y-92664683D01*
X123996241Y-92498523D01*
X124096431Y-92351890D01*
X124147440Y-92100000D01*
X124147440Y-91487800D01*
X131397500Y-91487800D01*
X131603718Y-91446780D01*
X127381298Y-95669200D01*
G36*
X134165905Y-73219206D02*
X134053035Y-73533223D01*
X134080222Y-74103454D01*
X134246136Y-74504005D01*
X134492255Y-74578139D01*
X135320395Y-73750000D01*
X135306253Y-73735858D01*
X135485858Y-73556253D01*
X135500000Y-73570395D01*
X135514143Y-73556253D01*
X135693748Y-73735858D01*
X135679605Y-73750000D01*
X136113571Y-74183966D01*
X136246136Y-74504005D01*
X136492255Y-74578139D01*
X136500000Y-74570394D01*
X136507745Y-74578139D01*
X136753864Y-74504005D01*
X136859062Y-74211332D01*
X137320395Y-73750000D01*
X137306253Y-73735858D01*
X137485858Y-73556252D01*
X137500000Y-73570395D01*
X137514142Y-73556252D01*
X137693748Y-73735858D01*
X137679605Y-73750000D01*
X137693748Y-73764142D01*
X137514142Y-73943748D01*
X137500000Y-73929605D01*
X136671861Y-74757745D01*
X136745995Y-75003864D01*
X137207317Y-75169681D01*
X135762599Y-76614399D01*
X135597852Y-76860961D01*
X135540000Y-77151800D01*
X135540000Y-85939898D01*
X132312701Y-82712599D01*
X132066139Y-82547852D01*
X131850187Y-82504896D01*
X131844289Y-82500866D01*
X131901441Y-82464090D01*
X132046431Y-82251890D01*
X132097440Y-82000000D01*
X132097440Y-81500000D01*
X132053162Y-81264683D01*
X131914090Y-81048559D01*
X131760000Y-80943274D01*
X131760000Y-75564802D01*
X132567057Y-74757745D01*
X134671861Y-74757745D01*
X134745995Y-75003864D01*
X135283223Y-75196965D01*
X135853454Y-75169778D01*
X136254005Y-75003864D01*
X136328139Y-74757745D01*
X135500000Y-73929605D01*
X134671861Y-74757745D01*
X132567057Y-74757745D01*
X134123291Y-73201511D01*
X134165905Y-73219206D01*
X134165905Y-73219206D01*
G37*
X134165905Y-73219206D02*
X134053035Y-73533223D01*
X134080222Y-74103454D01*
X134246136Y-74504005D01*
X134492255Y-74578139D01*
X135320395Y-73750000D01*
X135306253Y-73735858D01*
X135485858Y-73556253D01*
X135500000Y-73570395D01*
X135514143Y-73556253D01*
X135693748Y-73735858D01*
X135679605Y-73750000D01*
X136113571Y-74183966D01*
X136246136Y-74504005D01*
X136492255Y-74578139D01*
X136500000Y-74570394D01*
X136507745Y-74578139D01*
X136753864Y-74504005D01*
X136859062Y-74211332D01*
X137320395Y-73750000D01*
X137306253Y-73735858D01*
X137485858Y-73556252D01*
X137500000Y-73570395D01*
X137514142Y-73556252D01*
X137693748Y-73735858D01*
X137679605Y-73750000D01*
X137693748Y-73764142D01*
X137514142Y-73943748D01*
X137500000Y-73929605D01*
X136671861Y-74757745D01*
X136745995Y-75003864D01*
X137207317Y-75169681D01*
X135762599Y-76614399D01*
X135597852Y-76860961D01*
X135540000Y-77151800D01*
X135540000Y-85939898D01*
X132312701Y-82712599D01*
X132066139Y-82547852D01*
X131850187Y-82504896D01*
X131844289Y-82500866D01*
X131901441Y-82464090D01*
X132046431Y-82251890D01*
X132097440Y-82000000D01*
X132097440Y-81500000D01*
X132053162Y-81264683D01*
X131914090Y-81048559D01*
X131760000Y-80943274D01*
X131760000Y-75564802D01*
X132567057Y-74757745D01*
X134671861Y-74757745D01*
X134745995Y-75003864D01*
X135283223Y-75196965D01*
X135853454Y-75169778D01*
X136254005Y-75003864D01*
X136328139Y-74757745D01*
X135500000Y-73929605D01*
X134671861Y-74757745D01*
X132567057Y-74757745D01*
X134123291Y-73201511D01*
X134165905Y-73219206D01*
G36*
X156153569Y-48713110D02*
X156102560Y-48965000D01*
X156102560Y-52965000D01*
X156146838Y-53200317D01*
X156285910Y-53416441D01*
X156498110Y-53561431D01*
X156750000Y-53612440D01*
X157240000Y-53612440D01*
X157240000Y-61127560D01*
X155500000Y-61127560D01*
X155264683Y-61171838D01*
X155048559Y-61310910D01*
X154903569Y-61523110D01*
X154852560Y-61775000D01*
X154852560Y-65775000D01*
X154896838Y-66010317D01*
X155035910Y-66226441D01*
X155248110Y-66371431D01*
X155500000Y-66422440D01*
X160065300Y-66422440D01*
X160065300Y-83577560D01*
X158681233Y-83577560D01*
X158537401Y-83362299D01*
X143713001Y-68537899D01*
X143466439Y-68373152D01*
X143175600Y-68315300D01*
X137960000Y-68315300D01*
X137960000Y-62960000D01*
X138000000Y-62960000D01*
X138271705Y-62905954D01*
X138502046Y-62752046D01*
X138655954Y-62521705D01*
X138710000Y-62250000D01*
X138710000Y-61918228D01*
X138771705Y-61905954D01*
X139002046Y-61752046D01*
X139155954Y-61521705D01*
X139210000Y-61250000D01*
X139210000Y-56638238D01*
X139347368Y-56631362D01*
X139731143Y-56472397D01*
X139800608Y-56230213D01*
X139000000Y-55429605D01*
X138985858Y-55443748D01*
X138806253Y-55264143D01*
X138820395Y-55250000D01*
X139179605Y-55250000D01*
X139980213Y-56050608D01*
X140222397Y-55981143D01*
X140409144Y-55457698D01*
X140381362Y-54902632D01*
X140222397Y-54518857D01*
X139980213Y-54449392D01*
X139179605Y-55250000D01*
X138820395Y-55250000D01*
X138806253Y-55235858D01*
X138985858Y-55056253D01*
X139000000Y-55070395D01*
X139800608Y-54269787D01*
X139731143Y-54027603D01*
X139207698Y-53840856D01*
X138652632Y-53868638D01*
X138268857Y-54027603D01*
X138199393Y-54269785D01*
X138084382Y-54154774D01*
X138077261Y-54161895D01*
X137569161Y-53652907D01*
X136876595Y-53365328D01*
X136126695Y-53364674D01*
X135433628Y-53651043D01*
X134922312Y-54161468D01*
X134915618Y-54154774D01*
X134800607Y-54269785D01*
X134731143Y-54027603D01*
X134207698Y-53840856D01*
X133652632Y-53868638D01*
X133268857Y-54027603D01*
X133199392Y-54269787D01*
X134000000Y-55070395D01*
X134014143Y-55056253D01*
X134193748Y-55235858D01*
X134179605Y-55250000D01*
X134193748Y-55264143D01*
X134014143Y-55443748D01*
X134000000Y-55429605D01*
X133199392Y-56230213D01*
X133268857Y-56472397D01*
X133790000Y-56658323D01*
X133790000Y-61250000D01*
X133844046Y-61521705D01*
X133997954Y-61752046D01*
X134228295Y-61905954D01*
X134290000Y-61918228D01*
X134290000Y-68315300D01*
X117064802Y-68315300D01*
X115396942Y-66647440D01*
X116500000Y-66647440D01*
X116735317Y-66603162D01*
X116951441Y-66464090D01*
X117096431Y-66251890D01*
X117147440Y-66000000D01*
X117147440Y-62000000D01*
X117103162Y-61764683D01*
X116964090Y-61548559D01*
X116751890Y-61403569D01*
X116500000Y-61352560D01*
X114760000Y-61352560D01*
X114760000Y-55042302D01*
X132590856Y-55042302D01*
X132618638Y-55597368D01*
X132777603Y-55981143D01*
X133019787Y-56050608D01*
X133820395Y-55250000D01*
X133019787Y-54449392D01*
X132777603Y-54518857D01*
X132590856Y-55042302D01*
X114760000Y-55042302D01*
X114760000Y-53837440D01*
X115250000Y-53837440D01*
X115485317Y-53793162D01*
X115701441Y-53654090D01*
X115846431Y-53441890D01*
X115897440Y-53190000D01*
X115897440Y-49190000D01*
X115853162Y-48954683D01*
X115714090Y-48738559D01*
X115672292Y-48710000D01*
X156155694Y-48710000D01*
X156153569Y-48713110D01*
X156153569Y-48713110D01*
G37*
X156153569Y-48713110D02*
X156102560Y-48965000D01*
X156102560Y-52965000D01*
X156146838Y-53200317D01*
X156285910Y-53416441D01*
X156498110Y-53561431D01*
X156750000Y-53612440D01*
X157240000Y-53612440D01*
X157240000Y-61127560D01*
X155500000Y-61127560D01*
X155264683Y-61171838D01*
X155048559Y-61310910D01*
X154903569Y-61523110D01*
X154852560Y-61775000D01*
X154852560Y-65775000D01*
X154896838Y-66010317D01*
X155035910Y-66226441D01*
X155248110Y-66371431D01*
X155500000Y-66422440D01*
X160065300Y-66422440D01*
X160065300Y-83577560D01*
X158681233Y-83577560D01*
X158537401Y-83362299D01*
X143713001Y-68537899D01*
X143466439Y-68373152D01*
X143175600Y-68315300D01*
X137960000Y-68315300D01*
X137960000Y-62960000D01*
X138000000Y-62960000D01*
X138271705Y-62905954D01*
X138502046Y-62752046D01*
X138655954Y-62521705D01*
X138710000Y-62250000D01*
X138710000Y-61918228D01*
X138771705Y-61905954D01*
X139002046Y-61752046D01*
X139155954Y-61521705D01*
X139210000Y-61250000D01*
X139210000Y-56638238D01*
X139347368Y-56631362D01*
X139731143Y-56472397D01*
X139800608Y-56230213D01*
X139000000Y-55429605D01*
X138985858Y-55443748D01*
X138806253Y-55264143D01*
X138820395Y-55250000D01*
X139179605Y-55250000D01*
X139980213Y-56050608D01*
X140222397Y-55981143D01*
X140409144Y-55457698D01*
X140381362Y-54902632D01*
X140222397Y-54518857D01*
X139980213Y-54449392D01*
X139179605Y-55250000D01*
X138820395Y-55250000D01*
X138806253Y-55235858D01*
X138985858Y-55056253D01*
X139000000Y-55070395D01*
X139800608Y-54269787D01*
X139731143Y-54027603D01*
X139207698Y-53840856D01*
X138652632Y-53868638D01*
X138268857Y-54027603D01*
X138199393Y-54269785D01*
X138084382Y-54154774D01*
X138077261Y-54161895D01*
X137569161Y-53652907D01*
X136876595Y-53365328D01*
X136126695Y-53364674D01*
X135433628Y-53651043D01*
X134922312Y-54161468D01*
X134915618Y-54154774D01*
X134800607Y-54269785D01*
X134731143Y-54027603D01*
X134207698Y-53840856D01*
X133652632Y-53868638D01*
X133268857Y-54027603D01*
X133199392Y-54269787D01*
X134000000Y-55070395D01*
X134014143Y-55056253D01*
X134193748Y-55235858D01*
X134179605Y-55250000D01*
X134193748Y-55264143D01*
X134014143Y-55443748D01*
X134000000Y-55429605D01*
X133199392Y-56230213D01*
X133268857Y-56472397D01*
X133790000Y-56658323D01*
X133790000Y-61250000D01*
X133844046Y-61521705D01*
X133997954Y-61752046D01*
X134228295Y-61905954D01*
X134290000Y-61918228D01*
X134290000Y-68315300D01*
X117064802Y-68315300D01*
X115396942Y-66647440D01*
X116500000Y-66647440D01*
X116735317Y-66603162D01*
X116951441Y-66464090D01*
X117096431Y-66251890D01*
X117147440Y-66000000D01*
X117147440Y-62000000D01*
X117103162Y-61764683D01*
X116964090Y-61548559D01*
X116751890Y-61403569D01*
X116500000Y-61352560D01*
X114760000Y-61352560D01*
X114760000Y-55042302D01*
X132590856Y-55042302D01*
X132618638Y-55597368D01*
X132777603Y-55981143D01*
X133019787Y-56050608D01*
X133820395Y-55250000D01*
X133019787Y-54449392D01*
X132777603Y-54518857D01*
X132590856Y-55042302D01*
X114760000Y-55042302D01*
X114760000Y-53837440D01*
X115250000Y-53837440D01*
X115485317Y-53793162D01*
X115701441Y-53654090D01*
X115846431Y-53441890D01*
X115897440Y-53190000D01*
X115897440Y-49190000D01*
X115853162Y-48954683D01*
X115714090Y-48738559D01*
X115672292Y-48710000D01*
X156155694Y-48710000D01*
X156153569Y-48713110D01*
G36*
X127762199Y-75727899D02*
X127597452Y-75974461D01*
X127539600Y-76265300D01*
X127539600Y-80730860D01*
X127501310Y-80715000D01*
X127285750Y-80715000D01*
X127127000Y-80873750D01*
X127127000Y-81623000D01*
X127147000Y-81623000D01*
X127147000Y-81877000D01*
X127127000Y-81877000D01*
X127127000Y-81897000D01*
X126873000Y-81897000D01*
X126873000Y-81877000D01*
X126148750Y-81877000D01*
X126000000Y-82025750D01*
X125851250Y-81877000D01*
X125127000Y-81877000D01*
X125127000Y-81897000D01*
X124873000Y-81897000D01*
X124873000Y-81877000D01*
X124148750Y-81877000D01*
X124000000Y-82025750D01*
X123851250Y-81877000D01*
X123127000Y-81877000D01*
X123127000Y-81897000D01*
X122873000Y-81897000D01*
X122873000Y-81877000D01*
X122148750Y-81877000D01*
X122049476Y-81976274D01*
X121296893Y-81223691D01*
X121990000Y-81223691D01*
X121990000Y-81464250D01*
X122148750Y-81623000D01*
X122873000Y-81623000D01*
X122873000Y-80873750D01*
X123127000Y-80873750D01*
X123127000Y-81623000D01*
X123851250Y-81623000D01*
X124000000Y-81474250D01*
X124148750Y-81623000D01*
X124873000Y-81623000D01*
X124873000Y-80873750D01*
X125127000Y-80873750D01*
X125127000Y-81623000D01*
X125851250Y-81623000D01*
X126000000Y-81474250D01*
X126148750Y-81623000D01*
X126873000Y-81623000D01*
X126873000Y-80873750D01*
X126714250Y-80715000D01*
X126498690Y-80715000D01*
X126265301Y-80811673D01*
X126086673Y-80990302D01*
X126000000Y-81199549D01*
X125913327Y-80990302D01*
X125734699Y-80811673D01*
X125501310Y-80715000D01*
X125285750Y-80715000D01*
X125127000Y-80873750D01*
X124873000Y-80873750D01*
X124714250Y-80715000D01*
X124498690Y-80715000D01*
X124265301Y-80811673D01*
X124086673Y-80990302D01*
X124000000Y-81199549D01*
X123913327Y-80990302D01*
X123734699Y-80811673D01*
X123501310Y-80715000D01*
X123285750Y-80715000D01*
X123127000Y-80873750D01*
X122873000Y-80873750D01*
X122714250Y-80715000D01*
X122498690Y-80715000D01*
X122265301Y-80811673D01*
X122086673Y-80990302D01*
X121990000Y-81223691D01*
X121296893Y-81223691D01*
X110905502Y-70832300D01*
X132657798Y-70832300D01*
X127762199Y-75727899D01*
X127762199Y-75727899D01*
G37*
X127762199Y-75727899D02*
X127597452Y-75974461D01*
X127539600Y-76265300D01*
X127539600Y-80730860D01*
X127501310Y-80715000D01*
X127285750Y-80715000D01*
X127127000Y-80873750D01*
X127127000Y-81623000D01*
X127147000Y-81623000D01*
X127147000Y-81877000D01*
X127127000Y-81877000D01*
X127127000Y-81897000D01*
X126873000Y-81897000D01*
X126873000Y-81877000D01*
X126148750Y-81877000D01*
X126000000Y-82025750D01*
X125851250Y-81877000D01*
X125127000Y-81877000D01*
X125127000Y-81897000D01*
X124873000Y-81897000D01*
X124873000Y-81877000D01*
X124148750Y-81877000D01*
X124000000Y-82025750D01*
X123851250Y-81877000D01*
X123127000Y-81877000D01*
X123127000Y-81897000D01*
X122873000Y-81897000D01*
X122873000Y-81877000D01*
X122148750Y-81877000D01*
X122049476Y-81976274D01*
X121296893Y-81223691D01*
X121990000Y-81223691D01*
X121990000Y-81464250D01*
X122148750Y-81623000D01*
X122873000Y-81623000D01*
X122873000Y-80873750D01*
X123127000Y-80873750D01*
X123127000Y-81623000D01*
X123851250Y-81623000D01*
X124000000Y-81474250D01*
X124148750Y-81623000D01*
X124873000Y-81623000D01*
X124873000Y-80873750D01*
X125127000Y-80873750D01*
X125127000Y-81623000D01*
X125851250Y-81623000D01*
X126000000Y-81474250D01*
X126148750Y-81623000D01*
X126873000Y-81623000D01*
X126873000Y-80873750D01*
X126714250Y-80715000D01*
X126498690Y-80715000D01*
X126265301Y-80811673D01*
X126086673Y-80990302D01*
X126000000Y-81199549D01*
X125913327Y-80990302D01*
X125734699Y-80811673D01*
X125501310Y-80715000D01*
X125285750Y-80715000D01*
X125127000Y-80873750D01*
X124873000Y-80873750D01*
X124714250Y-80715000D01*
X124498690Y-80715000D01*
X124265301Y-80811673D01*
X124086673Y-80990302D01*
X124000000Y-81199549D01*
X123913327Y-80990302D01*
X123734699Y-80811673D01*
X123501310Y-80715000D01*
X123285750Y-80715000D01*
X123127000Y-80873750D01*
X122873000Y-80873750D01*
X122714250Y-80715000D01*
X122498690Y-80715000D01*
X122265301Y-80811673D01*
X122086673Y-80990302D01*
X121990000Y-81223691D01*
X121296893Y-81223691D01*
X110905502Y-70832300D01*
X132657798Y-70832300D01*
X127762199Y-75727899D01*
G36*
X130240000Y-80944895D02*
X130145388Y-81005776D01*
X129936914Y-81047245D01*
X129913327Y-80990302D01*
X129734699Y-80811673D01*
X129501310Y-80715000D01*
X129285750Y-80715000D01*
X129127002Y-80873748D01*
X129127002Y-80715000D01*
X129059600Y-80715000D01*
X129059600Y-76580102D01*
X130240000Y-75399702D01*
X130240000Y-80944895D01*
X130240000Y-80944895D01*
G37*
X130240000Y-80944895D02*
X130145388Y-81005776D01*
X129936914Y-81047245D01*
X129913327Y-80990302D01*
X129734699Y-80811673D01*
X129501310Y-80715000D01*
X129285750Y-80715000D01*
X129127002Y-80873748D01*
X129127002Y-80715000D01*
X129059600Y-80715000D01*
X129059600Y-76580102D01*
X130240000Y-75399702D01*
X130240000Y-80944895D01*
G36*
X109843498Y-77251600D02*
X104940202Y-77251600D01*
X104678876Y-76990274D01*
X104881358Y-76895183D01*
X105271645Y-76466924D01*
X105441476Y-76056890D01*
X105320155Y-75827000D01*
X104127000Y-75827000D01*
X104127000Y-75847000D01*
X103873000Y-75847000D01*
X103873000Y-75827000D01*
X103853000Y-75827000D01*
X103853000Y-75573000D01*
X103873000Y-75573000D01*
X103873000Y-75553000D01*
X104127000Y-75553000D01*
X104127000Y-75573000D01*
X105320155Y-75573000D01*
X105441476Y-75343110D01*
X105378060Y-75190000D01*
X107781898Y-75190000D01*
X109843498Y-77251600D01*
X109843498Y-77251600D01*
G37*
X109843498Y-77251600D02*
X104940202Y-77251600D01*
X104678876Y-76990274D01*
X104881358Y-76895183D01*
X105271645Y-76466924D01*
X105441476Y-76056890D01*
X105320155Y-75827000D01*
X104127000Y-75827000D01*
X104127000Y-75847000D01*
X103873000Y-75847000D01*
X103873000Y-75827000D01*
X103853000Y-75827000D01*
X103853000Y-75573000D01*
X103873000Y-75573000D01*
X103873000Y-75553000D01*
X104127000Y-75553000D01*
X104127000Y-75573000D01*
X105320155Y-75573000D01*
X105441476Y-75343110D01*
X105378060Y-75190000D01*
X107781898Y-75190000D01*
X109843498Y-77251600D01*
G36*
X136693748Y-71735858D02*
X136679605Y-71750000D01*
X136693748Y-71764143D01*
X136514143Y-71943748D01*
X136500000Y-71929605D01*
X136485858Y-71943748D01*
X136306253Y-71764143D01*
X136320395Y-71750000D01*
X136306253Y-71735858D01*
X136485858Y-71556253D01*
X136500000Y-71570395D01*
X136514143Y-71556253D01*
X136693748Y-71735858D01*
X136693748Y-71735858D01*
G37*
X136693748Y-71735858D02*
X136679605Y-71750000D01*
X136693748Y-71764143D01*
X136514143Y-71943748D01*
X136500000Y-71929605D01*
X136485858Y-71943748D01*
X136306253Y-71764143D01*
X136320395Y-71750000D01*
X136306253Y-71735858D01*
X136485858Y-71556253D01*
X136500000Y-71570395D01*
X136514143Y-71556253D01*
X136693748Y-71735858D01*
G36*
X146437299Y-36887401D02*
X146683861Y-37052148D01*
X146711163Y-37057579D01*
X146835910Y-37251441D01*
X147048110Y-37396431D01*
X147300000Y-37447440D01*
X148200000Y-37447440D01*
X148435317Y-37403162D01*
X148476901Y-37376403D01*
X148763199Y-37662701D01*
X149009761Y-37827448D01*
X149300600Y-37885300D01*
X152322898Y-37885300D01*
X153761190Y-39323592D01*
X153478804Y-39379762D01*
X153406632Y-39409657D01*
X153222862Y-39485777D01*
X153194567Y-39504683D01*
X153335000Y-39364250D01*
X153335000Y-39073690D01*
X153238327Y-38840301D01*
X153059698Y-38661673D01*
X152826309Y-38565000D01*
X152535750Y-38565000D01*
X152377000Y-38723750D01*
X152377000Y-39523000D01*
X152397000Y-39523000D01*
X152397000Y-39777000D01*
X152377000Y-39777000D01*
X152377000Y-40492690D01*
X152303642Y-40861486D01*
X152303642Y-40861487D01*
X152255074Y-41105655D01*
X152195225Y-41195226D01*
X152105655Y-41255074D01*
X151930070Y-41290000D01*
X140381473Y-41290000D01*
X140808668Y-41004558D01*
X141004558Y-40808668D01*
X141438103Y-40159822D01*
X141504303Y-40000000D01*
X141544117Y-39903881D01*
X141696357Y-39138515D01*
X141696357Y-38861485D01*
X141544117Y-38096119D01*
X141491110Y-37968149D01*
X141438103Y-37840178D01*
X141004558Y-37191332D01*
X140923226Y-37110000D01*
X143359898Y-37110000D01*
X146437299Y-40187401D01*
X146683861Y-40352148D01*
X146711163Y-40357579D01*
X146835910Y-40551441D01*
X147048110Y-40696431D01*
X147300000Y-40747440D01*
X148200000Y-40747440D01*
X148435317Y-40703162D01*
X148651441Y-40564090D01*
X148796431Y-40351890D01*
X148847440Y-40100000D01*
X148847440Y-39935750D01*
X151165000Y-39935750D01*
X151165000Y-40226310D01*
X151261673Y-40459699D01*
X151440302Y-40638327D01*
X151673691Y-40735000D01*
X151964250Y-40735000D01*
X152123000Y-40576250D01*
X152123000Y-39777000D01*
X151323750Y-39777000D01*
X151165000Y-39935750D01*
X148847440Y-39935750D01*
X148847440Y-39200000D01*
X148823674Y-39073690D01*
X151165000Y-39073690D01*
X151165000Y-39364250D01*
X151323750Y-39523000D01*
X152123000Y-39523000D01*
X152123000Y-38723750D01*
X151964250Y-38565000D01*
X151673691Y-38565000D01*
X151440302Y-38661673D01*
X151261673Y-38840301D01*
X151165000Y-39073690D01*
X148823674Y-39073690D01*
X148803162Y-38964683D01*
X148664090Y-38748559D01*
X148451890Y-38603569D01*
X148200000Y-38552560D01*
X147300000Y-38552560D01*
X147064683Y-38596838D01*
X147023099Y-38623597D01*
X144734202Y-36334700D01*
X145884598Y-36334700D01*
X146437299Y-36887401D01*
X146437299Y-36887401D01*
G37*
X146437299Y-36887401D02*
X146683861Y-37052148D01*
X146711163Y-37057579D01*
X146835910Y-37251441D01*
X147048110Y-37396431D01*
X147300000Y-37447440D01*
X148200000Y-37447440D01*
X148435317Y-37403162D01*
X148476901Y-37376403D01*
X148763199Y-37662701D01*
X149009761Y-37827448D01*
X149300600Y-37885300D01*
X152322898Y-37885300D01*
X153761190Y-39323592D01*
X153478804Y-39379762D01*
X153406632Y-39409657D01*
X153222862Y-39485777D01*
X153194567Y-39504683D01*
X153335000Y-39364250D01*
X153335000Y-39073690D01*
X153238327Y-38840301D01*
X153059698Y-38661673D01*
X152826309Y-38565000D01*
X152535750Y-38565000D01*
X152377000Y-38723750D01*
X152377000Y-39523000D01*
X152397000Y-39523000D01*
X152397000Y-39777000D01*
X152377000Y-39777000D01*
X152377000Y-40492690D01*
X152303642Y-40861486D01*
X152303642Y-40861487D01*
X152255074Y-41105655D01*
X152195225Y-41195226D01*
X152105655Y-41255074D01*
X151930070Y-41290000D01*
X140381473Y-41290000D01*
X140808668Y-41004558D01*
X141004558Y-40808668D01*
X141438103Y-40159822D01*
X141504303Y-40000000D01*
X141544117Y-39903881D01*
X141696357Y-39138515D01*
X141696357Y-38861485D01*
X141544117Y-38096119D01*
X141491110Y-37968149D01*
X141438103Y-37840178D01*
X141004558Y-37191332D01*
X140923226Y-37110000D01*
X143359898Y-37110000D01*
X146437299Y-40187401D01*
X146683861Y-40352148D01*
X146711163Y-40357579D01*
X146835910Y-40551441D01*
X147048110Y-40696431D01*
X147300000Y-40747440D01*
X148200000Y-40747440D01*
X148435317Y-40703162D01*
X148651441Y-40564090D01*
X148796431Y-40351890D01*
X148847440Y-40100000D01*
X148847440Y-39935750D01*
X151165000Y-39935750D01*
X151165000Y-40226310D01*
X151261673Y-40459699D01*
X151440302Y-40638327D01*
X151673691Y-40735000D01*
X151964250Y-40735000D01*
X152123000Y-40576250D01*
X152123000Y-39777000D01*
X151323750Y-39777000D01*
X151165000Y-39935750D01*
X148847440Y-39935750D01*
X148847440Y-39200000D01*
X148823674Y-39073690D01*
X151165000Y-39073690D01*
X151165000Y-39364250D01*
X151323750Y-39523000D01*
X152123000Y-39523000D01*
X152123000Y-38723750D01*
X151964250Y-38565000D01*
X151673691Y-38565000D01*
X151440302Y-38661673D01*
X151261673Y-38840301D01*
X151165000Y-39073690D01*
X148823674Y-39073690D01*
X148803162Y-38964683D01*
X148664090Y-38748559D01*
X148451890Y-38603569D01*
X148200000Y-38552560D01*
X147300000Y-38552560D01*
X147064683Y-38596838D01*
X147023099Y-38623597D01*
X144734202Y-36334700D01*
X145884598Y-36334700D01*
X146437299Y-36887401D01*
G36*
X123152560Y-36800000D02*
X123196838Y-37035317D01*
X123335910Y-37251441D01*
X123548110Y-37396431D01*
X123800000Y-37447440D01*
X124700000Y-37447440D01*
X124935317Y-37403162D01*
X125151441Y-37264090D01*
X125256726Y-37110000D01*
X131076774Y-37110000D01*
X130995442Y-37191332D01*
X130561897Y-37840179D01*
X130528437Y-37920959D01*
X130455883Y-38096119D01*
X130303642Y-38861486D01*
X130303643Y-39000000D01*
X130303642Y-39138514D01*
X130455883Y-39903881D01*
X130495697Y-40000000D01*
X130561897Y-40159821D01*
X130995442Y-40808668D01*
X131191332Y-41004558D01*
X131618526Y-41290000D01*
X120069930Y-41290000D01*
X119894345Y-41255074D01*
X119804774Y-41195225D01*
X119744926Y-41105655D01*
X119696358Y-40861487D01*
X119696358Y-40861486D01*
X119673673Y-40747440D01*
X120200000Y-40747440D01*
X120435317Y-40703162D01*
X120651441Y-40564090D01*
X120796431Y-40351890D01*
X120847440Y-40100000D01*
X120847440Y-39935750D01*
X123165000Y-39935750D01*
X123165000Y-40226310D01*
X123261673Y-40459699D01*
X123440302Y-40638327D01*
X123673691Y-40735000D01*
X123964250Y-40735000D01*
X124123000Y-40576250D01*
X124123000Y-39777000D01*
X124377000Y-39777000D01*
X124377000Y-40576250D01*
X124535750Y-40735000D01*
X124826309Y-40735000D01*
X125059698Y-40638327D01*
X125238327Y-40459699D01*
X125335000Y-40226310D01*
X125335000Y-39935750D01*
X125176250Y-39777000D01*
X124377000Y-39777000D01*
X124123000Y-39777000D01*
X123323750Y-39777000D01*
X123165000Y-39935750D01*
X120847440Y-39935750D01*
X120847440Y-39200000D01*
X120823674Y-39073690D01*
X123165000Y-39073690D01*
X123165000Y-39364250D01*
X123323750Y-39523000D01*
X124123000Y-39523000D01*
X124123000Y-38723750D01*
X124377000Y-38723750D01*
X124377000Y-39523000D01*
X125176250Y-39523000D01*
X125335000Y-39364250D01*
X125335000Y-39073690D01*
X125238327Y-38840301D01*
X125059698Y-38661673D01*
X124826309Y-38565000D01*
X124535750Y-38565000D01*
X124377000Y-38723750D01*
X124123000Y-38723750D01*
X123964250Y-38565000D01*
X123673691Y-38565000D01*
X123440302Y-38661673D01*
X123261673Y-38840301D01*
X123165000Y-39073690D01*
X120823674Y-39073690D01*
X120803162Y-38964683D01*
X120664090Y-38748559D01*
X120451890Y-38603569D01*
X120200000Y-38552560D01*
X119300000Y-38552560D01*
X119064683Y-38596838D01*
X118848559Y-38735910D01*
X118703569Y-38948110D01*
X118652560Y-39200000D01*
X118652560Y-39434175D01*
X118593368Y-39409657D01*
X118521196Y-39379762D01*
X118238810Y-39323592D01*
X119677102Y-37885300D01*
X119750000Y-37885300D01*
X120040839Y-37827448D01*
X120287401Y-37662701D01*
X120452148Y-37416139D01*
X120457579Y-37388837D01*
X120651441Y-37264090D01*
X120793127Y-37056725D01*
X120816139Y-37052148D01*
X121062701Y-36887401D01*
X121615402Y-36334700D01*
X123152560Y-36334700D01*
X123152560Y-36800000D01*
X123152560Y-36800000D01*
G37*
X123152560Y-36800000D02*
X123196838Y-37035317D01*
X123335910Y-37251441D01*
X123548110Y-37396431D01*
X123800000Y-37447440D01*
X124700000Y-37447440D01*
X124935317Y-37403162D01*
X125151441Y-37264090D01*
X125256726Y-37110000D01*
X131076774Y-37110000D01*
X130995442Y-37191332D01*
X130561897Y-37840179D01*
X130528437Y-37920959D01*
X130455883Y-38096119D01*
X130303642Y-38861486D01*
X130303643Y-39000000D01*
X130303642Y-39138514D01*
X130455883Y-39903881D01*
X130495697Y-40000000D01*
X130561897Y-40159821D01*
X130995442Y-40808668D01*
X131191332Y-41004558D01*
X131618526Y-41290000D01*
X120069930Y-41290000D01*
X119894345Y-41255074D01*
X119804774Y-41195225D01*
X119744926Y-41105655D01*
X119696358Y-40861487D01*
X119696358Y-40861486D01*
X119673673Y-40747440D01*
X120200000Y-40747440D01*
X120435317Y-40703162D01*
X120651441Y-40564090D01*
X120796431Y-40351890D01*
X120847440Y-40100000D01*
X120847440Y-39935750D01*
X123165000Y-39935750D01*
X123165000Y-40226310D01*
X123261673Y-40459699D01*
X123440302Y-40638327D01*
X123673691Y-40735000D01*
X123964250Y-40735000D01*
X124123000Y-40576250D01*
X124123000Y-39777000D01*
X124377000Y-39777000D01*
X124377000Y-40576250D01*
X124535750Y-40735000D01*
X124826309Y-40735000D01*
X125059698Y-40638327D01*
X125238327Y-40459699D01*
X125335000Y-40226310D01*
X125335000Y-39935750D01*
X125176250Y-39777000D01*
X124377000Y-39777000D01*
X124123000Y-39777000D01*
X123323750Y-39777000D01*
X123165000Y-39935750D01*
X120847440Y-39935750D01*
X120847440Y-39200000D01*
X120823674Y-39073690D01*
X123165000Y-39073690D01*
X123165000Y-39364250D01*
X123323750Y-39523000D01*
X124123000Y-39523000D01*
X124123000Y-38723750D01*
X124377000Y-38723750D01*
X124377000Y-39523000D01*
X125176250Y-39523000D01*
X125335000Y-39364250D01*
X125335000Y-39073690D01*
X125238327Y-38840301D01*
X125059698Y-38661673D01*
X124826309Y-38565000D01*
X124535750Y-38565000D01*
X124377000Y-38723750D01*
X124123000Y-38723750D01*
X123964250Y-38565000D01*
X123673691Y-38565000D01*
X123440302Y-38661673D01*
X123261673Y-38840301D01*
X123165000Y-39073690D01*
X120823674Y-39073690D01*
X120803162Y-38964683D01*
X120664090Y-38748559D01*
X120451890Y-38603569D01*
X120200000Y-38552560D01*
X119300000Y-38552560D01*
X119064683Y-38596838D01*
X118848559Y-38735910D01*
X118703569Y-38948110D01*
X118652560Y-39200000D01*
X118652560Y-39434175D01*
X118593368Y-39409657D01*
X118521196Y-39379762D01*
X118238810Y-39323592D01*
X119677102Y-37885300D01*
X119750000Y-37885300D01*
X120040839Y-37827448D01*
X120287401Y-37662701D01*
X120452148Y-37416139D01*
X120457579Y-37388837D01*
X120651441Y-37264090D01*
X120793127Y-37056725D01*
X120816139Y-37052148D01*
X121062701Y-36887401D01*
X121615402Y-36334700D01*
X123152560Y-36334700D01*
X123152560Y-36800000D01*
M02*
