G04 #@! TF.GenerationSoftware,KiCad,Pcbnew,(2017-07-14 revision d3b382c28)-master*
G04 #@! TF.CreationDate,2017-07-20T02:25:39-04:00*
G04 #@! TF.ProjectId,MAGLabs-2017-Swadges,4D41474C6162732D323031372D537761,rev?*
G04 #@! TF.SameCoordinates,Original
G04 #@! TF.FileFunction,Paste,Top*
G04 #@! TF.FilePolarity,Positive*
%FSLAX46Y46*%
G04 Gerber Fmt 4.6, Leading zero omitted, Abs format (unit mm)*
G04 Created by KiCad (PCBNEW (2017-07-14 revision d3b382c28)-master) date Thu Jul 20 02:25:39 2017*
%MOMM*%
%LPD*%
G01*
G04 APERTURE LIST*
%ADD10R,0.900000X0.500000*%
%ADD11R,2.500000X4.000000*%
%ADD12R,5.000000X4.000000*%
%ADD13R,1.550000X1.300000*%
%ADD14R,0.750000X0.800000*%
%ADD15R,0.450000X0.600000*%
%ADD16R,0.900000X0.900000*%
%ADD17R,1.200000X2.000000*%
%ADD18R,2.000000X1.200000*%
G04 APERTURE END LIST*
D10*
X148000000Y-111250000D03*
X148000000Y-112750000D03*
X146500000Y-112750000D03*
X146500000Y-111250000D03*
X145000000Y-112750000D03*
X145000000Y-111250000D03*
D11*
X158000000Y-99035000D03*
D12*
X158000000Y-86225000D03*
X158000000Y-63775000D03*
D11*
X158000000Y-50965000D03*
D13*
X151650000Y-112750000D03*
X159350000Y-112750000D03*
X159350000Y-117250000D03*
X151650000Y-117250000D03*
X147900000Y-127250000D03*
X155600000Y-127250000D03*
X155600000Y-131750000D03*
X147900000Y-131750000D03*
X141150000Y-146750000D03*
X148850000Y-146750000D03*
X148850000Y-151250000D03*
X141150000Y-151250000D03*
X123150000Y-146750000D03*
X130850000Y-146750000D03*
X130850000Y-151250000D03*
X123150000Y-151250000D03*
X130150000Y-120750000D03*
X137850000Y-120750000D03*
X137850000Y-125250000D03*
X130150000Y-125250000D03*
X120150000Y-129750000D03*
X127850000Y-129750000D03*
X127850000Y-134250000D03*
X120150000Y-134250000D03*
X120150000Y-111750000D03*
X127850000Y-111750000D03*
X127850000Y-116250000D03*
X120150000Y-116250000D03*
X110150000Y-120750000D03*
X117850000Y-120750000D03*
X117850000Y-125250000D03*
X110150000Y-125250000D03*
D11*
X114000000Y-51190000D03*
D12*
X114000000Y-64000000D03*
X114000000Y-86450000D03*
D11*
X114000000Y-99260000D03*
D14*
X123000000Y-83250000D03*
X123000000Y-81750000D03*
X129000000Y-81750000D03*
X129000000Y-83250000D03*
X125000000Y-83250000D03*
X125000000Y-81750000D03*
X127000000Y-81750000D03*
X127000000Y-83250000D03*
D15*
X130000000Y-113300000D03*
X130000000Y-111200000D03*
X132000000Y-113300000D03*
X132000000Y-111200000D03*
X134000000Y-113300000D03*
X134000000Y-111200000D03*
D16*
X116250000Y-107650000D03*
X111750000Y-107650000D03*
X116250000Y-104350000D03*
X111750000Y-104350000D03*
X155750000Y-104350000D03*
X160250000Y-104350000D03*
X155750000Y-107650000D03*
X160250000Y-107650000D03*
X147750000Y-36350000D03*
X152250000Y-36350000D03*
X147750000Y-39650000D03*
X152250000Y-39650000D03*
X124250000Y-39650000D03*
X119750000Y-39650000D03*
X124250000Y-36350000D03*
X119750000Y-36350000D03*
D15*
X136000000Y-113300000D03*
X136000000Y-111200000D03*
X138000000Y-111200000D03*
X138000000Y-113300000D03*
X140000000Y-111200000D03*
X140000000Y-113300000D03*
D10*
X131000000Y-83250000D03*
X131000000Y-81750000D03*
X143500000Y-112750000D03*
X143500000Y-111250000D03*
X142000000Y-111250000D03*
X142000000Y-112750000D03*
D17*
X138300000Y-104500000D03*
X136300000Y-104500000D03*
X134300000Y-104500000D03*
X132300000Y-104500000D03*
X130300000Y-104500000D03*
X128300000Y-104500000D03*
X126300000Y-104500000D03*
X124300000Y-104500000D03*
X138300000Y-88500000D03*
X136300000Y-88500000D03*
X134300000Y-88500000D03*
X132300000Y-88500000D03*
X130300000Y-88500000D03*
X128300000Y-88500000D03*
X126300000Y-88500000D03*
X124300000Y-88500000D03*
D18*
X122500000Y-91500000D03*
X122500000Y-93500000D03*
X122500000Y-95500000D03*
X122500000Y-101500000D03*
X122500000Y-99500000D03*
X122500000Y-97500000D03*
M02*
