G04 #@! TF.FileFunction,Profile,NP*
%FSLAX46Y46*%
G04 Gerber Fmt 4.6, Leading zero omitted, Abs format (unit mm)*
G04 Created by KiCad (PCBNEW 4.0.6-e0-6349~53~ubuntu16.04.1) date Thu Jul 20 22:15:20 2017*
%MOMM*%
%LPD*%
G01*
G04 APERTURE LIST*
%ADD10C,0.100000*%
%ADD11C,0.150000*%
G04 APERTURE END LIST*
D10*
D11*
X135000000Y-61250000D02*
X135000000Y-68750000D01*
X134500000Y-61250000D02*
X135000000Y-61250000D01*
X134500000Y-56250000D02*
X134500000Y-61250000D01*
X135000000Y-56250000D02*
X134500000Y-56250000D01*
X136000000Y-55250000D02*
X135000000Y-56250000D01*
X137000000Y-55250000D02*
X136000000Y-55250000D01*
X138000000Y-56250000D02*
X137000000Y-55250000D01*
X138500000Y-56250000D02*
X138000000Y-56250000D01*
X138500000Y-61250000D02*
X138500000Y-56250000D01*
X138000000Y-61250000D02*
X138500000Y-61250000D01*
X138000000Y-62250000D02*
X138000000Y-61250000D01*
X137250000Y-62250000D02*
X138000000Y-62250000D01*
X137250000Y-68750000D02*
X137250000Y-62250000D01*
X135000000Y-68750000D02*
X137250000Y-68750000D01*
X133000000Y-41000000D02*
X139000000Y-41000000D01*
X139000000Y-37000000D02*
X133000000Y-37000000D01*
X131000000Y-39000000D02*
G75*
G03X133000000Y-41000000I2000000J0D01*
G01*
X133000000Y-37000000D02*
G75*
G03X131000000Y-39000000I0J-2000000D01*
G01*
X139000000Y-41000000D02*
G75*
G03X141000000Y-39000000I0J2000000D01*
G01*
X141000000Y-39000000D02*
G75*
G03X139000000Y-37000000I-2000000J0D01*
G01*
X167000000Y-80000000D02*
X167000000Y-94000000D01*
X169000000Y-94000000D02*
X169000000Y-80000000D01*
X168000000Y-79000000D02*
G75*
G03X167000000Y-80000000I0J-1000000D01*
G01*
X169000000Y-80000000D02*
G75*
G03X168000000Y-79000000I-1000000J0D01*
G01*
X167000000Y-94000000D02*
G75*
G03X168000000Y-95000000I1000000J0D01*
G01*
X168000000Y-95000000D02*
G75*
G03X169000000Y-94000000I0J1000000D01*
G01*
X103000000Y-80000000D02*
X103000000Y-94000000D01*
X105000000Y-94000000D02*
X105000000Y-80000000D01*
X103000000Y-94000000D02*
G75*
G03X104000000Y-95000000I1000000J0D01*
G01*
X104000000Y-95000000D02*
G75*
G03X105000000Y-94000000I0J1000000D01*
G01*
X104000000Y-79000000D02*
G75*
G03X103000000Y-80000000I0J-1000000D01*
G01*
X105000000Y-80000000D02*
G75*
G03X104000000Y-79000000I-1000000J0D01*
G01*
X160000000Y-38000000D02*
X154000000Y-37000000D01*
X161000000Y-39000000D02*
G75*
G03X160000000Y-38000000I-1000000J0D01*
G01*
X161000000Y-48000000D02*
X161000000Y-39000000D01*
X112000000Y-38000000D02*
X118000000Y-37000000D01*
X112000000Y-38000000D02*
G75*
G03X111000000Y-39000000I0J-1000000D01*
G01*
X111000000Y-48000000D02*
X111000000Y-39000000D01*
X152000000Y-42000000D02*
X120000000Y-42000000D01*
X155000000Y-40000000D02*
X154000000Y-40000000D01*
X157000000Y-42000000D02*
X155000000Y-40000000D01*
X157000000Y-48000000D02*
X157000000Y-42000000D01*
X115000000Y-48000000D02*
X157000000Y-48000000D01*
X115000000Y-42000000D02*
X115000000Y-48000000D01*
X117000000Y-40000000D02*
X115000000Y-42000000D01*
X118000000Y-40000000D02*
X117000000Y-40000000D01*
X119000000Y-41000000D02*
G75*
G03X120000000Y-42000000I1000000J0D01*
G01*
X119000000Y-41000000D02*
G75*
G03X118000000Y-40000000I-1000000J0D01*
G01*
X152000000Y-42000000D02*
G75*
G03X153000000Y-41000000I0J1000000D01*
G01*
X154000000Y-40000000D02*
G75*
G03X153000000Y-41000000I0J-1000000D01*
G01*
X154000000Y-36000000D02*
G75*
G03X153000000Y-35000000I-1000000J0D01*
G01*
X119000000Y-35000000D02*
X153000000Y-35000000D01*
X119000000Y-35000000D02*
G75*
G03X118000000Y-36000000I0J-1000000D01*
G01*
X118000000Y-37000000D02*
X118000000Y-36000000D01*
X106000000Y-48000000D02*
X111000000Y-48000000D01*
X106000000Y-55000000D02*
X106000000Y-48000000D01*
X105000000Y-55000000D02*
X106000000Y-55000000D01*
X105000000Y-58000000D02*
X105000000Y-55000000D01*
X105000000Y-58000000D02*
G75*
G03X101000000Y-62000000I0J-4000000D01*
G01*
X101000000Y-91000000D02*
X101000000Y-62000000D01*
X107000000Y-133000000D02*
X101000000Y-91000000D01*
X107000000Y-145000000D02*
X107000000Y-133000000D01*
X107000000Y-145000000D02*
G75*
G03X117000000Y-155000000I10000000J0D01*
G01*
X155000000Y-155000000D02*
X117000000Y-155000000D01*
X155000000Y-155000000D02*
G75*
G03X165000000Y-145000000I0J10000000D01*
G01*
X165000000Y-133000000D02*
X165000000Y-145000000D01*
X171000000Y-91000000D02*
X165000000Y-133000000D01*
X171000000Y-62000000D02*
X171000000Y-91000000D01*
X171000000Y-62000000D02*
G75*
G03X167000000Y-58000000I-4000000J0D01*
G01*
X167000000Y-55000000D02*
X167000000Y-58000000D01*
X166000000Y-55000000D02*
X167000000Y-55000000D01*
X166000000Y-48000000D02*
X166000000Y-55000000D01*
X161000000Y-48000000D02*
X166000000Y-48000000D01*
X154000000Y-36000000D02*
X154000000Y-37000000D01*
M02*
