G04 #@! TF.GenerationSoftware,KiCad,Pcbnew,(2017-07-14 revision d3b382c28)-master*
G04 #@! TF.CreationDate,2017-07-20T01:06:45-04:00*
G04 #@! TF.ProjectId,MAGLabs-2017-Swadges,4D41474C6162732D323031372D537761,rev?*
G04 #@! TF.SameCoordinates,Original
G04 #@! TF.FileFunction,Copper,L1,Top,Signal*
G04 #@! TF.FilePolarity,Positive*
%FSLAX46Y46*%
G04 Gerber Fmt 4.6, Leading zero omitted, Abs format (unit mm)*
G04 Created by KiCad (PCBNEW (2017-07-14 revision d3b382c28)-master) date Thu Jul 20 01:06:45 2017*
%MOMM*%
%LPD*%
G01*
G04 APERTURE LIST*
%ADD10R,0.900000X0.500000*%
%ADD11R,2.500000X4.000000*%
%ADD12R,5.000000X4.000000*%
%ADD13C,1.700000*%
%ADD14C,1.524000*%
%ADD15C,2.500000*%
%ADD16C,1.600000*%
%ADD17R,1.550000X1.300000*%
%ADD18R,0.750000X0.800000*%
%ADD19R,0.450000X0.600000*%
%ADD20R,0.900000X0.900000*%
%ADD21O,1.700000X1.700000*%
%ADD22R,1.700000X1.700000*%
%ADD23R,1.200000X2.000000*%
%ADD24R,2.000000X1.200000*%
%ADD25C,0.800000*%
%ADD26C,0.250000*%
%ADD27C,0.254000*%
G04 APERTURE END LIST*
D10*
X148000000Y-111250000D03*
X148000000Y-112750000D03*
X146500000Y-112750000D03*
X146500000Y-111250000D03*
X145000000Y-112750000D03*
X145000000Y-111250000D03*
D11*
X158000000Y-99035000D03*
D12*
X158000000Y-86225000D03*
X158000000Y-63775000D03*
D11*
X158000000Y-50965000D03*
D13*
X134500000Y-71750000D03*
X136500000Y-71750000D03*
D14*
X138500000Y-71750000D03*
X139000000Y-55250000D03*
X134000000Y-55250000D03*
D15*
X136500000Y-55250000D03*
D16*
X135500000Y-73750000D03*
X137500000Y-73750000D03*
D17*
X151650000Y-112750000D03*
X159350000Y-112750000D03*
X159350000Y-117250000D03*
X151650000Y-117250000D03*
X147900000Y-127250000D03*
X155600000Y-127250000D03*
X155600000Y-131750000D03*
X147900000Y-131750000D03*
X141150000Y-146750000D03*
X148850000Y-146750000D03*
X148850000Y-151250000D03*
X141150000Y-151250000D03*
X123150000Y-146750000D03*
X130850000Y-146750000D03*
X130850000Y-151250000D03*
X123150000Y-151250000D03*
X130150000Y-120750000D03*
X137850000Y-120750000D03*
X137850000Y-125250000D03*
X130150000Y-125250000D03*
X120150000Y-129750000D03*
X127850000Y-129750000D03*
X127850000Y-134250000D03*
X120150000Y-134250000D03*
X120150000Y-111750000D03*
X127850000Y-111750000D03*
X127850000Y-116250000D03*
X120150000Y-116250000D03*
X110150000Y-120750000D03*
X117850000Y-120750000D03*
X117850000Y-125250000D03*
X110150000Y-125250000D03*
D11*
X114000000Y-51190000D03*
D12*
X114000000Y-64000000D03*
X114000000Y-86450000D03*
D11*
X114000000Y-99260000D03*
D18*
X123000000Y-83250000D03*
X123000000Y-81750000D03*
X129000000Y-81750000D03*
X129000000Y-83250000D03*
X125000000Y-83250000D03*
X125000000Y-81750000D03*
X127000000Y-81750000D03*
X127000000Y-83250000D03*
D19*
X130000000Y-113300000D03*
X130000000Y-111200000D03*
X132000000Y-113300000D03*
X132000000Y-111200000D03*
X134000000Y-113300000D03*
X134000000Y-111200000D03*
D20*
X116250000Y-107650000D03*
X111750000Y-107650000D03*
X116250000Y-104350000D03*
X111750000Y-104350000D03*
X155750000Y-104350000D03*
X160250000Y-104350000D03*
X155750000Y-107650000D03*
X160250000Y-107650000D03*
X147750000Y-36350000D03*
X152250000Y-36350000D03*
X147750000Y-39650000D03*
X152250000Y-39650000D03*
X124250000Y-39650000D03*
X119750000Y-39650000D03*
X124250000Y-36350000D03*
X119750000Y-36350000D03*
D19*
X136000000Y-113300000D03*
X136000000Y-111200000D03*
X138000000Y-111200000D03*
X138000000Y-113300000D03*
X140000000Y-111200000D03*
X140000000Y-113300000D03*
D21*
X104000000Y-75700000D03*
X104000000Y-73160000D03*
X104000000Y-70620000D03*
X104000000Y-68080000D03*
X104000000Y-65540000D03*
D22*
X104000000Y-63000000D03*
D21*
X168000000Y-73160000D03*
X168000000Y-70620000D03*
X168000000Y-68080000D03*
X168000000Y-65540000D03*
D22*
X168000000Y-63000000D03*
D10*
X131000000Y-83250000D03*
X131000000Y-81750000D03*
X143500000Y-112750000D03*
X143500000Y-111250000D03*
X142000000Y-111250000D03*
X142000000Y-112750000D03*
D23*
X138300000Y-104500000D03*
X136300000Y-104500000D03*
X134300000Y-104500000D03*
X132300000Y-104500000D03*
X130300000Y-104500000D03*
X128300000Y-104500000D03*
X126300000Y-104500000D03*
X124300000Y-104500000D03*
X138300000Y-88500000D03*
X136300000Y-88500000D03*
X134300000Y-88500000D03*
X132300000Y-88500000D03*
X130300000Y-88500000D03*
X128300000Y-88500000D03*
X126300000Y-88500000D03*
X124300000Y-88500000D03*
D24*
X122500000Y-91500000D03*
X122500000Y-93500000D03*
X122500000Y-95500000D03*
X122500000Y-101500000D03*
X122500000Y-99500000D03*
X122500000Y-97500000D03*
D25*
X133000000Y-111174000D03*
X145852600Y-114634900D03*
X136346400Y-102836200D03*
X132878100Y-106414900D03*
X149650000Y-144783700D03*
D26*
X158000000Y-86225000D02*
X158000000Y-99035000D01*
X114000000Y-51190000D02*
X114000000Y-64000000D01*
X114000000Y-64000000D02*
X114000000Y-66325300D01*
X158000000Y-86225000D02*
X158000000Y-83899700D01*
X116750000Y-69075300D02*
X114000000Y-66325300D01*
X143175600Y-69075300D02*
X116750000Y-69075300D01*
X158000000Y-83899700D02*
X143175600Y-69075300D01*
X160250000Y-107650000D02*
X159474700Y-107650000D01*
X145000000Y-111250000D02*
X143500000Y-111250000D01*
X145000000Y-111250000D02*
X146500000Y-111250000D01*
X146500000Y-111250000D02*
X148000000Y-111250000D01*
X155874700Y-111250000D02*
X148775300Y-111250000D01*
X159474700Y-107650000D02*
X155874700Y-111250000D01*
X148000000Y-111250000D02*
X148775300Y-111250000D01*
X142000000Y-111250000D02*
X142000000Y-110962300D01*
X142437000Y-110962300D02*
X142724700Y-111250000D01*
X142000000Y-110962300D02*
X142437000Y-110962300D01*
X143500000Y-111250000D02*
X142724700Y-111250000D01*
X158000000Y-42487600D02*
X158000000Y-50965000D01*
X152637700Y-37125300D02*
X158000000Y-42487600D01*
X149300600Y-37125300D02*
X152637700Y-37125300D01*
X148525300Y-36350000D02*
X149300600Y-37125300D01*
X147750000Y-36350000D02*
X148525300Y-36350000D01*
X146199400Y-35574700D02*
X146974700Y-36350000D01*
X121300600Y-35574700D02*
X146199400Y-35574700D01*
X120525300Y-36350000D02*
X121300600Y-35574700D01*
X119750000Y-36350000D02*
X120525300Y-36350000D01*
X147750000Y-36350000D02*
X146974700Y-36350000D01*
X119362300Y-37125300D02*
X119750000Y-37125300D01*
X111335400Y-45152200D02*
X119362300Y-37125300D01*
X111335400Y-54489300D02*
X111335400Y-45152200D01*
X104000000Y-61824700D02*
X111335400Y-54489300D01*
X104000000Y-63000000D02*
X104000000Y-61824700D01*
X119750000Y-36350000D02*
X119750000Y-37125300D01*
X124300000Y-88500000D02*
X124300000Y-89712700D01*
X158000000Y-50965000D02*
X158000000Y-63775000D01*
X125000000Y-83250000D02*
X124299700Y-83250000D01*
X131000000Y-75250000D02*
X134500000Y-71750000D01*
X131000000Y-81174700D02*
X131000000Y-75250000D01*
X131000000Y-81750000D02*
X131000000Y-81174700D01*
X131000000Y-81750000D02*
X130224700Y-81750000D01*
X127000000Y-83250000D02*
X127000000Y-83612600D01*
X127000000Y-83612600D02*
X127000000Y-83975300D01*
X126062900Y-83612600D02*
X125700300Y-83250000D01*
X127000000Y-83612600D02*
X126062900Y-83612600D01*
X125000000Y-83250000D02*
X125700300Y-83250000D01*
X127300000Y-84275300D02*
X127000000Y-83975300D01*
X127300000Y-89825300D02*
X127300000Y-84275300D01*
X124412600Y-89825300D02*
X127300000Y-89825300D01*
X124300000Y-89712700D02*
X124412600Y-89825300D01*
X129700300Y-82274400D02*
X130224700Y-81750000D01*
X129700300Y-83250000D02*
X129700300Y-82274400D01*
X129000000Y-83250000D02*
X129700300Y-83250000D01*
X129000000Y-83250000D02*
X129000000Y-83975300D01*
X124299700Y-83250000D02*
X123000000Y-83250000D01*
X103632600Y-64175300D02*
X104000000Y-64175300D01*
X102824700Y-64983200D02*
X103632600Y-64175300D01*
X102824700Y-66028400D02*
X102824700Y-64983200D01*
X103606300Y-66810000D02*
X102824700Y-66028400D01*
X105808400Y-66810000D02*
X103606300Y-66810000D01*
X122248400Y-83250000D02*
X105808400Y-66810000D01*
X123000000Y-83250000D02*
X122248400Y-83250000D01*
X104000000Y-63000000D02*
X104000000Y-64175300D01*
X134300000Y-88500000D02*
X134300000Y-89825300D01*
X116250000Y-107650000D02*
X116250000Y-106874700D01*
X134300000Y-88500000D02*
X134300000Y-87174700D01*
X129225400Y-87174700D02*
X134300000Y-87174700D01*
X129225400Y-84200700D02*
X129225400Y-87174700D01*
X129000000Y-83975300D02*
X129225400Y-84200700D01*
X129059700Y-89825300D02*
X127300000Y-89825300D01*
X129225400Y-89659600D02*
X129059700Y-89825300D01*
X129225400Y-87174700D02*
X129225400Y-89659600D01*
X127696100Y-96429200D02*
X134300000Y-89825300D01*
X121510000Y-96429200D02*
X127696100Y-96429200D01*
X115474700Y-102464500D02*
X121510000Y-96429200D01*
X115474700Y-106099400D02*
X115474700Y-102464500D01*
X116250000Y-106874700D02*
X115474700Y-106099400D01*
X163377800Y-103746900D02*
X160250000Y-106874700D01*
X163377800Y-76050200D02*
X163377800Y-103746900D01*
X167632700Y-71795300D02*
X163377800Y-76050200D01*
X168000000Y-71795300D02*
X167632700Y-71795300D01*
X168000000Y-70620000D02*
X168000000Y-71795300D01*
X160250000Y-107650000D02*
X160250000Y-106874700D01*
X129449700Y-113675000D02*
X127850000Y-115274700D01*
X129449700Y-113300000D02*
X129449700Y-113675000D01*
X130000000Y-113300000D02*
X129449700Y-113300000D01*
X127850000Y-116250000D02*
X127850000Y-115762300D01*
X127850000Y-115762300D02*
X127850000Y-115274700D01*
X121738000Y-115762300D02*
X121250300Y-116250000D01*
X127850000Y-115762300D02*
X121738000Y-115762300D01*
X120150000Y-116250000D02*
X121250300Y-116250000D01*
X136000000Y-111200000D02*
X134000000Y-111200000D01*
X146500000Y-113987500D02*
X146500000Y-112750000D01*
X145852600Y-114634900D02*
X146500000Y-113987500D01*
X133000000Y-111200000D02*
X133000000Y-111174000D01*
X134000000Y-111200000D02*
X133000000Y-111200000D01*
X133000000Y-111200000D02*
X132550300Y-111200000D01*
X132275200Y-111200000D02*
X132550300Y-111200000D01*
X132275200Y-111200000D02*
X132000000Y-111200000D01*
X132000000Y-111200000D02*
X130000000Y-111200000D01*
X129225400Y-110975700D02*
X129449700Y-111200000D01*
X129225400Y-103279800D02*
X129225400Y-110975700D01*
X129120300Y-103174700D02*
X129225400Y-103279800D01*
X126300000Y-103174700D02*
X129120300Y-103174700D01*
X126300000Y-104500000D02*
X126300000Y-103174700D01*
X130000000Y-111200000D02*
X129449700Y-111200000D01*
X134000000Y-119510400D02*
X134000000Y-113300000D01*
X129049600Y-124460800D02*
X134000000Y-119510400D01*
X129049600Y-132075100D02*
X129049600Y-124460800D01*
X127850000Y-133274700D02*
X129049600Y-132075100D01*
X127850000Y-134250000D02*
X127850000Y-133762300D01*
X127850000Y-133762300D02*
X127850000Y-133274700D01*
X121738000Y-133762300D02*
X121250300Y-134250000D01*
X127850000Y-133762300D02*
X121738000Y-133762300D01*
X120150000Y-134250000D02*
X121250300Y-134250000D01*
X136300000Y-104500000D02*
X136300000Y-103174700D01*
X111750000Y-107650000D02*
X112525300Y-107650000D01*
X136346400Y-102836200D02*
X136154000Y-103028600D01*
X136300000Y-103174700D02*
X136154000Y-103028600D01*
X113300600Y-108425300D02*
X112525300Y-107650000D01*
X118264900Y-108425300D02*
X113300600Y-108425300D01*
X124012900Y-102677300D02*
X118264900Y-108425300D01*
X135802600Y-102677300D02*
X124012900Y-102677300D01*
X136154000Y-103028600D02*
X135802600Y-102677300D01*
X120800700Y-100574600D02*
X117025300Y-104350000D01*
X135110600Y-100574600D02*
X120800700Y-100574600D01*
X137225400Y-102689400D02*
X135110600Y-100574600D01*
X137225400Y-105539000D02*
X137225400Y-102689400D01*
X139336400Y-107650000D02*
X137225400Y-105539000D01*
X155750000Y-107650000D02*
X139336400Y-107650000D01*
X116250000Y-104350000D02*
X117025300Y-104350000D01*
X153025300Y-36876000D02*
X153025300Y-36350000D01*
X159716800Y-43567500D02*
X153025300Y-36876000D01*
X159716800Y-47691800D02*
X159716800Y-43567500D01*
X160825300Y-48800300D02*
X159716800Y-47691800D01*
X160825300Y-102999400D02*
X160825300Y-48800300D01*
X160250000Y-103574700D02*
X160825300Y-102999400D01*
X160250000Y-104350000D02*
X160250000Y-103574700D01*
X152250000Y-36350000D02*
X153025300Y-36350000D01*
X143674700Y-36350000D02*
X146974700Y-39650000D01*
X124250000Y-36350000D02*
X143674700Y-36350000D01*
X147750000Y-39650000D02*
X146974700Y-39650000D01*
X137850000Y-120750000D02*
X137850000Y-119774700D01*
X130150000Y-120750000D02*
X117850000Y-120750000D01*
X117850000Y-120750000D02*
X110150000Y-120750000D01*
X140000000Y-111200000D02*
X138000000Y-111200000D01*
X138000000Y-111200000D02*
X138000000Y-111825300D01*
X137766800Y-111825300D02*
X136969300Y-112622800D01*
X138000000Y-111825300D02*
X137766800Y-111825300D01*
X136969300Y-118894000D02*
X137850000Y-119774700D01*
X136969300Y-112622800D02*
X136969300Y-118894000D01*
X133449600Y-116475100D02*
X130150000Y-119774700D01*
X133449600Y-112834500D02*
X133449600Y-116475100D01*
X133661300Y-112622800D02*
X133449600Y-112834500D01*
X136969300Y-112622800D02*
X133661300Y-112622800D01*
X130150000Y-120750000D02*
X130150000Y-119774700D01*
X138000000Y-113300000D02*
X138550300Y-113300000D01*
X142500300Y-117250000D02*
X151650000Y-117250000D01*
X138550300Y-113300000D02*
X142500300Y-117250000D01*
X151650000Y-117250000D02*
X159350000Y-117250000D01*
X144637200Y-127511900D02*
X147900000Y-130774700D01*
X144637200Y-123912200D02*
X144637200Y-127511900D01*
X137449600Y-116724600D02*
X144637200Y-123912200D01*
X137449600Y-112851000D02*
X137449600Y-116724600D01*
X137650400Y-112650200D02*
X137449600Y-112851000D01*
X138799900Y-112650200D02*
X137650400Y-112650200D01*
X139449700Y-113300000D02*
X138799900Y-112650200D01*
X140000000Y-113300000D02*
X139449700Y-113300000D01*
X147900000Y-131750000D02*
X147900000Y-131262300D01*
X147900000Y-131262300D02*
X147900000Y-130774700D01*
X154012000Y-131262300D02*
X154499700Y-131750000D01*
X147900000Y-131262300D02*
X154012000Y-131262300D01*
X155600000Y-131750000D02*
X154499700Y-131750000D01*
X111042800Y-73160000D02*
X104000000Y-73160000D01*
X125057500Y-87174700D02*
X111042800Y-73160000D01*
X126300000Y-87174700D02*
X125057500Y-87174700D01*
X126300000Y-88500000D02*
X126300000Y-87174700D01*
X130300000Y-88500000D02*
X130300000Y-89825300D01*
X104000000Y-70620000D02*
X104000000Y-71795300D01*
X103632600Y-71795300D02*
X104000000Y-71795300D01*
X102824700Y-72603200D02*
X103632600Y-71795300D01*
X102824700Y-73709000D02*
X102824700Y-72603200D01*
X103545700Y-74430000D02*
X102824700Y-73709000D01*
X108096700Y-74430000D02*
X103545700Y-74430000D01*
X123791000Y-90124300D02*
X108096700Y-74430000D01*
X123910100Y-90124300D02*
X123791000Y-90124300D01*
X124062300Y-90276500D02*
X123910100Y-90124300D01*
X129848800Y-90276500D02*
X124062300Y-90276500D01*
X130300000Y-89825300D02*
X129848800Y-90276500D01*
X103632700Y-69255300D02*
X104000000Y-69255300D01*
X102358300Y-70529700D02*
X103632700Y-69255300D01*
X102358300Y-75744500D02*
X102358300Y-70529700D01*
X104625400Y-78011600D02*
X102358300Y-75744500D01*
X111036200Y-78011600D02*
X104625400Y-78011600D01*
X123599200Y-90574600D02*
X111036200Y-78011600D01*
X123723500Y-90574600D02*
X123599200Y-90574600D01*
X123876700Y-90727800D02*
X123723500Y-90574600D01*
X131397500Y-90727800D02*
X123876700Y-90727800D01*
X132300000Y-89825300D02*
X131397500Y-90727800D01*
X132300000Y-88500000D02*
X132300000Y-89825300D01*
X104000000Y-68080000D02*
X104000000Y-69255300D01*
X109707600Y-70072300D02*
X105175300Y-65540000D01*
X138360400Y-70072300D02*
X109707600Y-70072300D01*
X139610400Y-71322300D02*
X138360400Y-70072300D01*
X139610400Y-73841400D02*
X139610400Y-71322300D01*
X136300000Y-77151800D02*
X139610400Y-73841400D01*
X136300000Y-88500000D02*
X136300000Y-77151800D01*
X104000000Y-65540000D02*
X105175300Y-65540000D01*
X132288500Y-105825300D02*
X132878100Y-106414900D01*
X130300000Y-105825300D02*
X132288500Y-105825300D01*
X130300000Y-104500000D02*
X130300000Y-105825300D01*
X148850000Y-145583700D02*
X148850000Y-146750000D01*
X149650000Y-144783700D02*
X148850000Y-145583700D01*
X141150000Y-146750000D02*
X142250300Y-146750000D01*
X148850000Y-146750000D02*
X142250300Y-146750000D01*
X167632700Y-69255300D02*
X168000000Y-69255300D01*
X161935500Y-74952500D02*
X167632700Y-69255300D01*
X161935500Y-104082600D02*
X161935500Y-74952500D01*
X159690100Y-106328000D02*
X161935500Y-104082600D01*
X138802700Y-106328000D02*
X159690100Y-106328000D01*
X138300000Y-105825300D02*
X138802700Y-106328000D01*
X138300000Y-104500000D02*
X138300000Y-105825300D01*
X168000000Y-68080000D02*
X168000000Y-69255300D01*
X135374600Y-86849300D02*
X131775300Y-83250000D01*
X135374600Y-89701900D02*
X135374600Y-86849300D01*
X135498000Y-89825300D02*
X135374600Y-89701900D01*
X138300000Y-89825300D02*
X135498000Y-89825300D01*
X138300000Y-88500000D02*
X138300000Y-89825300D01*
X131000000Y-83250000D02*
X131775300Y-83250000D01*
X128300000Y-104500000D02*
X128300000Y-105825300D01*
X123180700Y-105825300D02*
X128300000Y-105825300D01*
X109049600Y-119956400D02*
X123180700Y-105825300D01*
X109049600Y-131674300D02*
X109049600Y-119956400D01*
X123150000Y-145774700D02*
X109049600Y-131674300D01*
X123150000Y-146750000D02*
X123150000Y-146262300D01*
X123150000Y-146262300D02*
X123150000Y-145774700D01*
X129262000Y-146262300D02*
X129749700Y-146750000D01*
X123150000Y-146262300D02*
X129262000Y-146262300D01*
X130850000Y-146750000D02*
X129749700Y-146750000D01*
X137324200Y-70574200D02*
X138500000Y-71750000D01*
X133990700Y-70574200D02*
X137324200Y-70574200D01*
X128299600Y-76265300D02*
X133990700Y-70574200D01*
X128299600Y-87174300D02*
X128299600Y-76265300D01*
X128300000Y-87174700D02*
X128299600Y-87174300D01*
X128300000Y-88500000D02*
X128300000Y-87174700D01*
X127850000Y-129750000D02*
X120150000Y-129750000D01*
X110150000Y-125250000D02*
X117850000Y-125250000D01*
X130150000Y-125250000D02*
X137850000Y-125250000D01*
X159350000Y-112750000D02*
X151650000Y-112750000D01*
X155600000Y-127250000D02*
X147900000Y-127250000D01*
X127850000Y-111750000D02*
X127850000Y-111374900D01*
X121625400Y-111374900D02*
X121250300Y-111750000D01*
X127850000Y-111374900D02*
X121625400Y-111374900D01*
X120150000Y-111750000D02*
X121250300Y-111750000D01*
X134300000Y-104500000D02*
X134300000Y-105712700D01*
X127850000Y-111750000D02*
X128950300Y-111750000D01*
X140359200Y-110565400D02*
X136907900Y-110565400D01*
X140550400Y-110756600D02*
X140359200Y-110565400D01*
X140550400Y-112522700D02*
X140550400Y-110756600D01*
X143413600Y-115385900D02*
X140550400Y-112522700D01*
X146149900Y-115385900D02*
X143413600Y-115385900D01*
X148000000Y-113535800D02*
X146149900Y-115385900D01*
X148000000Y-112750000D02*
X148000000Y-113535800D01*
X136907900Y-108320600D02*
X136907900Y-110565400D01*
X134300000Y-105712700D02*
X136907900Y-108320600D01*
X129099700Y-111899400D02*
X128950300Y-111750000D01*
X136329600Y-111899400D02*
X129099700Y-111899400D01*
X136907900Y-111321100D02*
X136329600Y-111899400D01*
X136907900Y-110565400D02*
X136907900Y-111321100D01*
X132300000Y-104500000D02*
X132300000Y-103174700D01*
X145000000Y-112750000D02*
X145000000Y-112174700D01*
X141743100Y-112174700D02*
X145000000Y-112174700D01*
X141000800Y-111432400D02*
X141743100Y-112174700D01*
X141000800Y-110567700D02*
X141000800Y-111432400D01*
X138494800Y-108061700D02*
X141000800Y-110567700D01*
X137728800Y-108061700D02*
X138494800Y-108061700D01*
X135225400Y-105558300D02*
X137728800Y-108061700D01*
X135225400Y-103351000D02*
X135225400Y-105558300D01*
X135049100Y-103174700D02*
X135225400Y-103351000D01*
X132300000Y-103174700D02*
X135049100Y-103174700D01*
D27*
G36*
X165290000Y-55000000D02*
X165344046Y-55271705D01*
X165497954Y-55502046D01*
X165728295Y-55655954D01*
X166000000Y-55710000D01*
X166290000Y-55710000D01*
X166290000Y-58000000D01*
X166303643Y-58068586D01*
X166303643Y-58138514D01*
X166330404Y-58203120D01*
X166344046Y-58271705D01*
X166382894Y-58329846D01*
X166409656Y-58394455D01*
X166459104Y-58443903D01*
X166497954Y-58502046D01*
X166556098Y-58540897D01*
X166605545Y-58590343D01*
X166670152Y-58617104D01*
X166728295Y-58655954D01*
X166796877Y-58669596D01*
X166861486Y-58696358D01*
X168253707Y-58973288D01*
X169316546Y-59683454D01*
X170026712Y-60746295D01*
X170290000Y-62069931D01*
X170290000Y-90949543D01*
X164297136Y-132899591D01*
X164299897Y-132950245D01*
X164290000Y-133000000D01*
X164290000Y-144930069D01*
X163569989Y-148549807D01*
X161559187Y-151559186D01*
X158549805Y-153569990D01*
X154930069Y-154290000D01*
X117069931Y-154290000D01*
X113450193Y-153569989D01*
X110440814Y-151559187D01*
X110425154Y-151535750D01*
X121740000Y-151535750D01*
X121740000Y-152026310D01*
X121836673Y-152259699D01*
X122015302Y-152438327D01*
X122248691Y-152535000D01*
X122864250Y-152535000D01*
X123023000Y-152376250D01*
X123023000Y-151377000D01*
X123277000Y-151377000D01*
X123277000Y-152376250D01*
X123435750Y-152535000D01*
X124051309Y-152535000D01*
X124284698Y-152438327D01*
X124463327Y-152259699D01*
X124560000Y-152026310D01*
X124560000Y-151535750D01*
X129440000Y-151535750D01*
X129440000Y-152026310D01*
X129536673Y-152259699D01*
X129715302Y-152438327D01*
X129948691Y-152535000D01*
X130564250Y-152535000D01*
X130723000Y-152376250D01*
X130723000Y-151377000D01*
X130977000Y-151377000D01*
X130977000Y-152376250D01*
X131135750Y-152535000D01*
X131751309Y-152535000D01*
X131984698Y-152438327D01*
X132163327Y-152259699D01*
X132260000Y-152026310D01*
X132260000Y-151535750D01*
X139740000Y-151535750D01*
X139740000Y-152026310D01*
X139836673Y-152259699D01*
X140015302Y-152438327D01*
X140248691Y-152535000D01*
X140864250Y-152535000D01*
X141023000Y-152376250D01*
X141023000Y-151377000D01*
X141277000Y-151377000D01*
X141277000Y-152376250D01*
X141435750Y-152535000D01*
X142051309Y-152535000D01*
X142284698Y-152438327D01*
X142463327Y-152259699D01*
X142560000Y-152026310D01*
X142560000Y-151535750D01*
X147440000Y-151535750D01*
X147440000Y-152026310D01*
X147536673Y-152259699D01*
X147715302Y-152438327D01*
X147948691Y-152535000D01*
X148564250Y-152535000D01*
X148723000Y-152376250D01*
X148723000Y-151377000D01*
X148977000Y-151377000D01*
X148977000Y-152376250D01*
X149135750Y-152535000D01*
X149751309Y-152535000D01*
X149984698Y-152438327D01*
X150163327Y-152259699D01*
X150260000Y-152026310D01*
X150260000Y-151535750D01*
X150101250Y-151377000D01*
X148977000Y-151377000D01*
X148723000Y-151377000D01*
X147598750Y-151377000D01*
X147440000Y-151535750D01*
X142560000Y-151535750D01*
X142401250Y-151377000D01*
X141277000Y-151377000D01*
X141023000Y-151377000D01*
X139898750Y-151377000D01*
X139740000Y-151535750D01*
X132260000Y-151535750D01*
X132101250Y-151377000D01*
X130977000Y-151377000D01*
X130723000Y-151377000D01*
X129598750Y-151377000D01*
X129440000Y-151535750D01*
X124560000Y-151535750D01*
X124401250Y-151377000D01*
X123277000Y-151377000D01*
X123023000Y-151377000D01*
X121898750Y-151377000D01*
X121740000Y-151535750D01*
X110425154Y-151535750D01*
X109715509Y-150473690D01*
X121740000Y-150473690D01*
X121740000Y-150964250D01*
X121898750Y-151123000D01*
X123023000Y-151123000D01*
X123023000Y-150123750D01*
X123277000Y-150123750D01*
X123277000Y-151123000D01*
X124401250Y-151123000D01*
X124560000Y-150964250D01*
X124560000Y-150473690D01*
X129440000Y-150473690D01*
X129440000Y-150964250D01*
X129598750Y-151123000D01*
X130723000Y-151123000D01*
X130723000Y-150123750D01*
X130977000Y-150123750D01*
X130977000Y-151123000D01*
X132101250Y-151123000D01*
X132260000Y-150964250D01*
X132260000Y-150473690D01*
X139740000Y-150473690D01*
X139740000Y-150964250D01*
X139898750Y-151123000D01*
X141023000Y-151123000D01*
X141023000Y-150123750D01*
X141277000Y-150123750D01*
X141277000Y-151123000D01*
X142401250Y-151123000D01*
X142560000Y-150964250D01*
X142560000Y-150473690D01*
X147440000Y-150473690D01*
X147440000Y-150964250D01*
X147598750Y-151123000D01*
X148723000Y-151123000D01*
X148723000Y-150123750D01*
X148977000Y-150123750D01*
X148977000Y-151123000D01*
X150101250Y-151123000D01*
X150260000Y-150964250D01*
X150260000Y-150473690D01*
X150163327Y-150240301D01*
X149984698Y-150061673D01*
X149751309Y-149965000D01*
X149135750Y-149965000D01*
X148977000Y-150123750D01*
X148723000Y-150123750D01*
X148564250Y-149965000D01*
X147948691Y-149965000D01*
X147715302Y-150061673D01*
X147536673Y-150240301D01*
X147440000Y-150473690D01*
X142560000Y-150473690D01*
X142463327Y-150240301D01*
X142284698Y-150061673D01*
X142051309Y-149965000D01*
X141435750Y-149965000D01*
X141277000Y-150123750D01*
X141023000Y-150123750D01*
X140864250Y-149965000D01*
X140248691Y-149965000D01*
X140015302Y-150061673D01*
X139836673Y-150240301D01*
X139740000Y-150473690D01*
X132260000Y-150473690D01*
X132163327Y-150240301D01*
X131984698Y-150061673D01*
X131751309Y-149965000D01*
X131135750Y-149965000D01*
X130977000Y-150123750D01*
X130723000Y-150123750D01*
X130564250Y-149965000D01*
X129948691Y-149965000D01*
X129715302Y-150061673D01*
X129536673Y-150240301D01*
X129440000Y-150473690D01*
X124560000Y-150473690D01*
X124463327Y-150240301D01*
X124284698Y-150061673D01*
X124051309Y-149965000D01*
X123435750Y-149965000D01*
X123277000Y-150123750D01*
X123023000Y-150123750D01*
X122864250Y-149965000D01*
X122248691Y-149965000D01*
X122015302Y-150061673D01*
X121836673Y-150240301D01*
X121740000Y-150473690D01*
X109715509Y-150473690D01*
X108430010Y-148549805D01*
X107710000Y-144930069D01*
X107710000Y-133000000D01*
X107700103Y-132950245D01*
X107702864Y-132899591D01*
X103665173Y-104635750D01*
X110665000Y-104635750D01*
X110665000Y-104926310D01*
X110761673Y-105159699D01*
X110940302Y-105338327D01*
X111173691Y-105435000D01*
X111464250Y-105435000D01*
X111623000Y-105276250D01*
X111623000Y-104477000D01*
X111877000Y-104477000D01*
X111877000Y-105276250D01*
X112035750Y-105435000D01*
X112326309Y-105435000D01*
X112559698Y-105338327D01*
X112738327Y-105159699D01*
X112835000Y-104926310D01*
X112835000Y-104635750D01*
X112676250Y-104477000D01*
X111877000Y-104477000D01*
X111623000Y-104477000D01*
X110823750Y-104477000D01*
X110665000Y-104635750D01*
X103665173Y-104635750D01*
X103542022Y-103773690D01*
X110665000Y-103773690D01*
X110665000Y-104064250D01*
X110823750Y-104223000D01*
X111623000Y-104223000D01*
X111623000Y-103423750D01*
X111877000Y-103423750D01*
X111877000Y-104223000D01*
X112676250Y-104223000D01*
X112835000Y-104064250D01*
X112835000Y-103773690D01*
X112738327Y-103540301D01*
X112559698Y-103361673D01*
X112326309Y-103265000D01*
X112035750Y-103265000D01*
X111877000Y-103423750D01*
X111623000Y-103423750D01*
X111464250Y-103265000D01*
X111173691Y-103265000D01*
X110940302Y-103361673D01*
X110761673Y-103540301D01*
X110665000Y-103773690D01*
X103542022Y-103773690D01*
X102938031Y-99545750D01*
X112115000Y-99545750D01*
X112115000Y-101386310D01*
X112211673Y-101619699D01*
X112390302Y-101798327D01*
X112623691Y-101895000D01*
X113714250Y-101895000D01*
X113873000Y-101736250D01*
X113873000Y-99387000D01*
X112273750Y-99387000D01*
X112115000Y-99545750D01*
X102938031Y-99545750D01*
X102593451Y-97133690D01*
X112115000Y-97133690D01*
X112115000Y-98974250D01*
X112273750Y-99133000D01*
X113873000Y-99133000D01*
X113873000Y-96783750D01*
X114127000Y-96783750D01*
X114127000Y-99133000D01*
X115726250Y-99133000D01*
X115885000Y-98974250D01*
X115885000Y-97133690D01*
X115788327Y-96900301D01*
X115609698Y-96721673D01*
X115376309Y-96625000D01*
X114285750Y-96625000D01*
X114127000Y-96783750D01*
X113873000Y-96783750D01*
X113714250Y-96625000D01*
X112623691Y-96625000D01*
X112390302Y-96721673D01*
X112211673Y-96900301D01*
X112115000Y-97133690D01*
X102593451Y-97133690D01*
X101710000Y-90949543D01*
X101710000Y-76115928D01*
X101820899Y-76281901D01*
X103845767Y-78306769D01*
X103478804Y-78379762D01*
X103406632Y-78409657D01*
X103222862Y-78485777D01*
X102898438Y-78702549D01*
X102739501Y-78861487D01*
X102702549Y-78898439D01*
X102485776Y-79222862D01*
X102435581Y-79344046D01*
X102379762Y-79478804D01*
X102303642Y-79861487D01*
X102303642Y-79931416D01*
X102290000Y-80000000D01*
X102290000Y-94000000D01*
X102303642Y-94068584D01*
X102303642Y-94138513D01*
X102379762Y-94521196D01*
X102394928Y-94557809D01*
X102485776Y-94777138D01*
X102702549Y-95101561D01*
X102702550Y-95101562D01*
X102898438Y-95297451D01*
X103222862Y-95514223D01*
X103328877Y-95558136D01*
X103478804Y-95620238D01*
X103861486Y-95696358D01*
X104138513Y-95696358D01*
X104521196Y-95620238D01*
X104596160Y-95589187D01*
X104777138Y-95514224D01*
X105101561Y-95297451D01*
X105101562Y-95297450D01*
X105297451Y-95101562D01*
X105514223Y-94777138D01*
X105565959Y-94652235D01*
X105620238Y-94521196D01*
X105696358Y-94138514D01*
X105696358Y-94068584D01*
X105710000Y-94000000D01*
X105710000Y-86735750D01*
X110865000Y-86735750D01*
X110865000Y-88576310D01*
X110961673Y-88809699D01*
X111140302Y-88988327D01*
X111373691Y-89085000D01*
X113714250Y-89085000D01*
X113873000Y-88926250D01*
X113873000Y-86577000D01*
X114127000Y-86577000D01*
X114127000Y-88926250D01*
X114285750Y-89085000D01*
X116626309Y-89085000D01*
X116859698Y-88988327D01*
X117038327Y-88809699D01*
X117135000Y-88576310D01*
X117135000Y-86735750D01*
X116976250Y-86577000D01*
X114127000Y-86577000D01*
X113873000Y-86577000D01*
X111023750Y-86577000D01*
X110865000Y-86735750D01*
X105710000Y-86735750D01*
X105710000Y-84323690D01*
X110865000Y-84323690D01*
X110865000Y-86164250D01*
X111023750Y-86323000D01*
X113873000Y-86323000D01*
X113873000Y-83973750D01*
X113714250Y-83815000D01*
X111373691Y-83815000D01*
X111140302Y-83911673D01*
X110961673Y-84090301D01*
X110865000Y-84323690D01*
X105710000Y-84323690D01*
X105710000Y-80000000D01*
X105696358Y-79931416D01*
X105696358Y-79861486D01*
X105620238Y-79478804D01*
X105514223Y-79222863D01*
X105514223Y-79222862D01*
X105297451Y-78898438D01*
X105170612Y-78771600D01*
X110721398Y-78771600D01*
X115764798Y-83815000D01*
X114285750Y-83815000D01*
X114127000Y-83973750D01*
X114127000Y-86323000D01*
X116976250Y-86323000D01*
X117135000Y-86164250D01*
X117135000Y-85185202D01*
X122202358Y-90252560D01*
X121500000Y-90252560D01*
X121252235Y-90301843D01*
X121042191Y-90442191D01*
X120901843Y-90652235D01*
X120852560Y-90900000D01*
X120852560Y-92100000D01*
X120901843Y-92347765D01*
X121003564Y-92500000D01*
X120901843Y-92652235D01*
X120852560Y-92900000D01*
X120852560Y-94100000D01*
X120901843Y-94347765D01*
X121003564Y-94500000D01*
X120901843Y-94652235D01*
X120852560Y-94900000D01*
X120852560Y-96011838D01*
X115885000Y-100979398D01*
X115885000Y-99545750D01*
X115726250Y-99387000D01*
X114127000Y-99387000D01*
X114127000Y-101736250D01*
X114285750Y-101895000D01*
X114969398Y-101895000D01*
X114937299Y-101927099D01*
X114772552Y-102173661D01*
X114714700Y-102464500D01*
X114714700Y-106099400D01*
X114772552Y-106390239D01*
X114937299Y-106636801D01*
X115222227Y-106921729D01*
X115201843Y-106952235D01*
X115152560Y-107200000D01*
X115152560Y-107665300D01*
X113615402Y-107665300D01*
X113062701Y-107112599D01*
X112816139Y-106947852D01*
X112792023Y-106943055D01*
X112657809Y-106742191D01*
X112447765Y-106601843D01*
X112200000Y-106552560D01*
X111300000Y-106552560D01*
X111052235Y-106601843D01*
X110842191Y-106742191D01*
X110701843Y-106952235D01*
X110652560Y-107200000D01*
X110652560Y-108100000D01*
X110701843Y-108347765D01*
X110842191Y-108557809D01*
X111052235Y-108698157D01*
X111300000Y-108747440D01*
X112200000Y-108747440D01*
X112447765Y-108698157D01*
X112478271Y-108677773D01*
X112763199Y-108962701D01*
X113009761Y-109127448D01*
X113300600Y-109185300D01*
X118264900Y-109185300D01*
X118555739Y-109127448D01*
X118802301Y-108962701D01*
X123138000Y-104627002D01*
X123223748Y-104627002D01*
X123065000Y-104785750D01*
X123065000Y-105088314D01*
X122889860Y-105123152D01*
X122643299Y-105287899D01*
X108512199Y-119418999D01*
X108347452Y-119665561D01*
X108289600Y-119956400D01*
X108289600Y-131674300D01*
X108347452Y-131965139D01*
X108512199Y-132211701D01*
X121932476Y-145631978D01*
X121917191Y-145642191D01*
X121776843Y-145852235D01*
X121727560Y-146100000D01*
X121727560Y-147400000D01*
X121776843Y-147647765D01*
X121917191Y-147857809D01*
X122127235Y-147998157D01*
X122375000Y-148047440D01*
X123925000Y-148047440D01*
X124172765Y-147998157D01*
X124382809Y-147857809D01*
X124523157Y-147647765D01*
X124572440Y-147400000D01*
X124572440Y-147022300D01*
X128947198Y-147022300D01*
X129212299Y-147287401D01*
X129434725Y-147436021D01*
X129476843Y-147647765D01*
X129617191Y-147857809D01*
X129827235Y-147998157D01*
X130075000Y-148047440D01*
X131625000Y-148047440D01*
X131872765Y-147998157D01*
X132082809Y-147857809D01*
X132223157Y-147647765D01*
X132272440Y-147400000D01*
X132272440Y-146100000D01*
X139727560Y-146100000D01*
X139727560Y-147400000D01*
X139776843Y-147647765D01*
X139917191Y-147857809D01*
X140127235Y-147998157D01*
X140375000Y-148047440D01*
X141925000Y-148047440D01*
X142172765Y-147998157D01*
X142382809Y-147857809D01*
X142523157Y-147647765D01*
X142550560Y-147510000D01*
X147449440Y-147510000D01*
X147476843Y-147647765D01*
X147617191Y-147857809D01*
X147827235Y-147998157D01*
X148075000Y-148047440D01*
X149625000Y-148047440D01*
X149872765Y-147998157D01*
X150082809Y-147857809D01*
X150223157Y-147647765D01*
X150272440Y-147400000D01*
X150272440Y-146100000D01*
X150223157Y-145852235D01*
X150126033Y-145706879D01*
X150235515Y-145661642D01*
X150526919Y-145370746D01*
X150684820Y-144990477D01*
X150685179Y-144578729D01*
X150527942Y-144198185D01*
X150237046Y-143906781D01*
X149856777Y-143748880D01*
X149445029Y-143748521D01*
X149064485Y-143905758D01*
X148773081Y-144196654D01*
X148615180Y-144576923D01*
X148615034Y-144743864D01*
X148312599Y-145046299D01*
X148147852Y-145292861D01*
X148116086Y-145452560D01*
X148075000Y-145452560D01*
X147827235Y-145501843D01*
X147617191Y-145642191D01*
X147476843Y-145852235D01*
X147449440Y-145990000D01*
X142550560Y-145990000D01*
X142523157Y-145852235D01*
X142382809Y-145642191D01*
X142172765Y-145501843D01*
X141925000Y-145452560D01*
X140375000Y-145452560D01*
X140127235Y-145501843D01*
X139917191Y-145642191D01*
X139776843Y-145852235D01*
X139727560Y-146100000D01*
X132272440Y-146100000D01*
X132223157Y-145852235D01*
X132082809Y-145642191D01*
X131872765Y-145501843D01*
X131625000Y-145452560D01*
X130075000Y-145452560D01*
X129827235Y-145501843D01*
X129646405Y-145622671D01*
X129552839Y-145560152D01*
X129262000Y-145502300D01*
X124173449Y-145502300D01*
X124172765Y-145501843D01*
X123925000Y-145452560D01*
X123831233Y-145452560D01*
X123687401Y-145237299D01*
X109809600Y-131359498D01*
X109809600Y-126547440D01*
X110925000Y-126547440D01*
X111172765Y-126498157D01*
X111382809Y-126357809D01*
X111523157Y-126147765D01*
X111550560Y-126010000D01*
X116449440Y-126010000D01*
X116476843Y-126147765D01*
X116617191Y-126357809D01*
X116827235Y-126498157D01*
X117075000Y-126547440D01*
X118625000Y-126547440D01*
X118872765Y-126498157D01*
X119082809Y-126357809D01*
X119223157Y-126147765D01*
X119272440Y-125900000D01*
X119272440Y-124600000D01*
X119223157Y-124352235D01*
X119082809Y-124142191D01*
X118872765Y-124001843D01*
X118625000Y-123952560D01*
X117075000Y-123952560D01*
X116827235Y-124001843D01*
X116617191Y-124142191D01*
X116476843Y-124352235D01*
X116449440Y-124490000D01*
X111550560Y-124490000D01*
X111523157Y-124352235D01*
X111382809Y-124142191D01*
X111172765Y-124001843D01*
X110925000Y-123952560D01*
X109809600Y-123952560D01*
X109809600Y-122047440D01*
X110925000Y-122047440D01*
X111172765Y-121998157D01*
X111382809Y-121857809D01*
X111523157Y-121647765D01*
X111550560Y-121510000D01*
X116449440Y-121510000D01*
X116476843Y-121647765D01*
X116617191Y-121857809D01*
X116827235Y-121998157D01*
X117075000Y-122047440D01*
X118625000Y-122047440D01*
X118872765Y-121998157D01*
X119082809Y-121857809D01*
X119223157Y-121647765D01*
X119250560Y-121510000D01*
X128749440Y-121510000D01*
X128776843Y-121647765D01*
X128917191Y-121857809D01*
X129127235Y-121998157D01*
X129375000Y-122047440D01*
X130388158Y-122047440D01*
X128512199Y-123923399D01*
X128347452Y-124169961D01*
X128289600Y-124460800D01*
X128289600Y-128452560D01*
X127075000Y-128452560D01*
X126827235Y-128501843D01*
X126617191Y-128642191D01*
X126476843Y-128852235D01*
X126449440Y-128990000D01*
X121550560Y-128990000D01*
X121523157Y-128852235D01*
X121382809Y-128642191D01*
X121172765Y-128501843D01*
X120925000Y-128452560D01*
X119375000Y-128452560D01*
X119127235Y-128501843D01*
X118917191Y-128642191D01*
X118776843Y-128852235D01*
X118727560Y-129100000D01*
X118727560Y-130400000D01*
X118776843Y-130647765D01*
X118917191Y-130857809D01*
X119127235Y-130998157D01*
X119375000Y-131047440D01*
X120925000Y-131047440D01*
X121172765Y-130998157D01*
X121382809Y-130857809D01*
X121523157Y-130647765D01*
X121550560Y-130510000D01*
X126449440Y-130510000D01*
X126476843Y-130647765D01*
X126617191Y-130857809D01*
X126827235Y-130998157D01*
X127075000Y-131047440D01*
X128289600Y-131047440D01*
X128289600Y-131760298D01*
X127312599Y-132737299D01*
X127168767Y-132952560D01*
X127075000Y-132952560D01*
X126827235Y-133001843D01*
X126826551Y-133002300D01*
X121738000Y-133002300D01*
X121447161Y-133060152D01*
X121353595Y-133122671D01*
X121172765Y-133001843D01*
X120925000Y-132952560D01*
X119375000Y-132952560D01*
X119127235Y-133001843D01*
X118917191Y-133142191D01*
X118776843Y-133352235D01*
X118727560Y-133600000D01*
X118727560Y-134900000D01*
X118776843Y-135147765D01*
X118917191Y-135357809D01*
X119127235Y-135498157D01*
X119375000Y-135547440D01*
X120925000Y-135547440D01*
X121172765Y-135498157D01*
X121382809Y-135357809D01*
X121523157Y-135147765D01*
X121565275Y-134936021D01*
X121787701Y-134787401D01*
X122052802Y-134522300D01*
X126427560Y-134522300D01*
X126427560Y-134900000D01*
X126476843Y-135147765D01*
X126617191Y-135357809D01*
X126827235Y-135498157D01*
X127075000Y-135547440D01*
X128625000Y-135547440D01*
X128872765Y-135498157D01*
X129082809Y-135357809D01*
X129223157Y-135147765D01*
X129272440Y-134900000D01*
X129272440Y-133600000D01*
X129223157Y-133352235D01*
X129082809Y-133142191D01*
X129067524Y-133131978D01*
X129587001Y-132612501D01*
X129751748Y-132365939D01*
X129809600Y-132075100D01*
X129809600Y-126547440D01*
X130925000Y-126547440D01*
X131172765Y-126498157D01*
X131382809Y-126357809D01*
X131523157Y-126147765D01*
X131550560Y-126010000D01*
X136449440Y-126010000D01*
X136476843Y-126147765D01*
X136617191Y-126357809D01*
X136827235Y-126498157D01*
X137075000Y-126547440D01*
X138625000Y-126547440D01*
X138872765Y-126498157D01*
X139082809Y-126357809D01*
X139223157Y-126147765D01*
X139272440Y-125900000D01*
X139272440Y-124600000D01*
X139223157Y-124352235D01*
X139082809Y-124142191D01*
X138872765Y-124001843D01*
X138625000Y-123952560D01*
X137075000Y-123952560D01*
X136827235Y-124001843D01*
X136617191Y-124142191D01*
X136476843Y-124352235D01*
X136449440Y-124490000D01*
X131550560Y-124490000D01*
X131523157Y-124352235D01*
X131382809Y-124142191D01*
X131172765Y-124001843D01*
X130925000Y-123952560D01*
X130632642Y-123952560D01*
X134537401Y-120047801D01*
X134702148Y-119801239D01*
X134760000Y-119510400D01*
X134760000Y-113942285D01*
X134823157Y-113847765D01*
X134872440Y-113600000D01*
X134872440Y-113382800D01*
X135127560Y-113382800D01*
X135127560Y-113600000D01*
X135176843Y-113847765D01*
X135317191Y-114057809D01*
X135527235Y-114198157D01*
X135775000Y-114247440D01*
X136209300Y-114247440D01*
X136209300Y-118894000D01*
X136267152Y-119184839D01*
X136431899Y-119431401D01*
X136632476Y-119631978D01*
X136617191Y-119642191D01*
X136476843Y-119852235D01*
X136427560Y-120100000D01*
X136427560Y-121400000D01*
X136476843Y-121647765D01*
X136617191Y-121857809D01*
X136827235Y-121998157D01*
X137075000Y-122047440D01*
X138625000Y-122047440D01*
X138872765Y-121998157D01*
X139082809Y-121857809D01*
X139223157Y-121647765D01*
X139272440Y-121400000D01*
X139272440Y-120100000D01*
X139223157Y-119852235D01*
X139082809Y-119642191D01*
X138872765Y-119501843D01*
X138625000Y-119452560D01*
X138531233Y-119452560D01*
X138387401Y-119237299D01*
X137729300Y-118579198D01*
X137729300Y-118079102D01*
X143877200Y-124227002D01*
X143877200Y-127511900D01*
X143935052Y-127802739D01*
X144099799Y-128049301D01*
X146682476Y-130631978D01*
X146667191Y-130642191D01*
X146526843Y-130852235D01*
X146477560Y-131100000D01*
X146477560Y-132400000D01*
X146526843Y-132647765D01*
X146667191Y-132857809D01*
X146877235Y-132998157D01*
X147125000Y-133047440D01*
X148675000Y-133047440D01*
X148922765Y-132998157D01*
X149132809Y-132857809D01*
X149273157Y-132647765D01*
X149322440Y-132400000D01*
X149322440Y-132022300D01*
X153697198Y-132022300D01*
X153962299Y-132287401D01*
X154184725Y-132436021D01*
X154226843Y-132647765D01*
X154367191Y-132857809D01*
X154577235Y-132998157D01*
X154825000Y-133047440D01*
X156375000Y-133047440D01*
X156622765Y-132998157D01*
X156832809Y-132857809D01*
X156973157Y-132647765D01*
X157022440Y-132400000D01*
X157022440Y-131100000D01*
X156973157Y-130852235D01*
X156832809Y-130642191D01*
X156622765Y-130501843D01*
X156375000Y-130452560D01*
X154825000Y-130452560D01*
X154577235Y-130501843D01*
X154396405Y-130622671D01*
X154302839Y-130560152D01*
X154012000Y-130502300D01*
X148923449Y-130502300D01*
X148922765Y-130501843D01*
X148675000Y-130452560D01*
X148581233Y-130452560D01*
X148437401Y-130237299D01*
X145397200Y-127197098D01*
X145397200Y-126600000D01*
X146477560Y-126600000D01*
X146477560Y-127900000D01*
X146526843Y-128147765D01*
X146667191Y-128357809D01*
X146877235Y-128498157D01*
X147125000Y-128547440D01*
X148675000Y-128547440D01*
X148922765Y-128498157D01*
X149132809Y-128357809D01*
X149273157Y-128147765D01*
X149300560Y-128010000D01*
X154199440Y-128010000D01*
X154226843Y-128147765D01*
X154367191Y-128357809D01*
X154577235Y-128498157D01*
X154825000Y-128547440D01*
X156375000Y-128547440D01*
X156622765Y-128498157D01*
X156832809Y-128357809D01*
X156973157Y-128147765D01*
X157022440Y-127900000D01*
X157022440Y-126600000D01*
X156973157Y-126352235D01*
X156832809Y-126142191D01*
X156622765Y-126001843D01*
X156375000Y-125952560D01*
X154825000Y-125952560D01*
X154577235Y-126001843D01*
X154367191Y-126142191D01*
X154226843Y-126352235D01*
X154199440Y-126490000D01*
X149300560Y-126490000D01*
X149273157Y-126352235D01*
X149132809Y-126142191D01*
X148922765Y-126001843D01*
X148675000Y-125952560D01*
X147125000Y-125952560D01*
X146877235Y-126001843D01*
X146667191Y-126142191D01*
X146526843Y-126352235D01*
X146477560Y-126600000D01*
X145397200Y-126600000D01*
X145397200Y-123912200D01*
X145339348Y-123621361D01*
X145339348Y-123621360D01*
X145174601Y-123374799D01*
X138209600Y-116409798D01*
X138209600Y-114247440D01*
X138225000Y-114247440D01*
X138390098Y-114214600D01*
X141962899Y-117787401D01*
X142209461Y-117952148D01*
X142500300Y-118010000D01*
X150249440Y-118010000D01*
X150276843Y-118147765D01*
X150417191Y-118357809D01*
X150627235Y-118498157D01*
X150875000Y-118547440D01*
X152425000Y-118547440D01*
X152672765Y-118498157D01*
X152882809Y-118357809D01*
X153023157Y-118147765D01*
X153050560Y-118010000D01*
X157949440Y-118010000D01*
X157976843Y-118147765D01*
X158117191Y-118357809D01*
X158327235Y-118498157D01*
X158575000Y-118547440D01*
X160125000Y-118547440D01*
X160372765Y-118498157D01*
X160582809Y-118357809D01*
X160723157Y-118147765D01*
X160772440Y-117900000D01*
X160772440Y-116600000D01*
X160723157Y-116352235D01*
X160582809Y-116142191D01*
X160372765Y-116001843D01*
X160125000Y-115952560D01*
X158575000Y-115952560D01*
X158327235Y-116001843D01*
X158117191Y-116142191D01*
X157976843Y-116352235D01*
X157949440Y-116490000D01*
X153050560Y-116490000D01*
X153023157Y-116352235D01*
X152882809Y-116142191D01*
X152672765Y-116001843D01*
X152425000Y-115952560D01*
X150875000Y-115952560D01*
X150627235Y-116001843D01*
X150417191Y-116142191D01*
X150276843Y-116352235D01*
X150249440Y-116490000D01*
X142815102Y-116490000D01*
X140503034Y-114177932D01*
X140682809Y-114057809D01*
X140814147Y-113861249D01*
X142876199Y-115923301D01*
X143122760Y-116088048D01*
X143413600Y-116145900D01*
X146149900Y-116145900D01*
X146440739Y-116088048D01*
X146687301Y-115923301D01*
X148537401Y-114073201D01*
X148702148Y-113826639D01*
X148755235Y-113559757D01*
X148907809Y-113457809D01*
X149048157Y-113247765D01*
X149097440Y-113000000D01*
X149097440Y-112500000D01*
X149048157Y-112252235D01*
X148907809Y-112042191D01*
X148859632Y-112010000D01*
X150245462Y-112010000D01*
X150227560Y-112100000D01*
X150227560Y-113400000D01*
X150276843Y-113647765D01*
X150417191Y-113857809D01*
X150627235Y-113998157D01*
X150875000Y-114047440D01*
X152425000Y-114047440D01*
X152672765Y-113998157D01*
X152882809Y-113857809D01*
X153023157Y-113647765D01*
X153050560Y-113510000D01*
X157949440Y-113510000D01*
X157976843Y-113647765D01*
X158117191Y-113857809D01*
X158327235Y-113998157D01*
X158575000Y-114047440D01*
X160125000Y-114047440D01*
X160372765Y-113998157D01*
X160582809Y-113857809D01*
X160723157Y-113647765D01*
X160772440Y-113400000D01*
X160772440Y-112100000D01*
X160723157Y-111852235D01*
X160582809Y-111642191D01*
X160372765Y-111501843D01*
X160125000Y-111452560D01*
X158575000Y-111452560D01*
X158327235Y-111501843D01*
X158117191Y-111642191D01*
X157976843Y-111852235D01*
X157949440Y-111990000D01*
X155975246Y-111990000D01*
X156165539Y-111952148D01*
X156412101Y-111787401D01*
X159521729Y-108677773D01*
X159552235Y-108698157D01*
X159800000Y-108747440D01*
X160700000Y-108747440D01*
X160947765Y-108698157D01*
X161157809Y-108557809D01*
X161298157Y-108347765D01*
X161347440Y-108100000D01*
X161347440Y-107200000D01*
X161298157Y-106952235D01*
X161277773Y-106921729D01*
X163915201Y-104284301D01*
X164079948Y-104037740D01*
X164137800Y-103746900D01*
X164137800Y-80000000D01*
X166290000Y-80000000D01*
X166290000Y-94000000D01*
X166303642Y-94068584D01*
X166303642Y-94138513D01*
X166379762Y-94521196D01*
X166394928Y-94557809D01*
X166485776Y-94777138D01*
X166702549Y-95101561D01*
X166702550Y-95101562D01*
X166898438Y-95297451D01*
X167222862Y-95514223D01*
X167328877Y-95558136D01*
X167478804Y-95620238D01*
X167861486Y-95696358D01*
X168138513Y-95696358D01*
X168521196Y-95620238D01*
X168596160Y-95589187D01*
X168777138Y-95514224D01*
X169101561Y-95297451D01*
X169101562Y-95297450D01*
X169297451Y-95101562D01*
X169514223Y-94777138D01*
X169565959Y-94652235D01*
X169620238Y-94521196D01*
X169696358Y-94138514D01*
X169696358Y-94068584D01*
X169710000Y-94000000D01*
X169710000Y-80000000D01*
X169696358Y-79931416D01*
X169696358Y-79861486D01*
X169620238Y-79478804D01*
X169514223Y-79222863D01*
X169514223Y-79222862D01*
X169297451Y-78898438D01*
X169101562Y-78702550D01*
X169101561Y-78702549D01*
X168777138Y-78485776D01*
X168593368Y-78409657D01*
X168521196Y-78379762D01*
X168138513Y-78303642D01*
X167861486Y-78303642D01*
X167478804Y-78379762D01*
X167406632Y-78409657D01*
X167222862Y-78485777D01*
X166898438Y-78702549D01*
X166739501Y-78861487D01*
X166702549Y-78898439D01*
X166485776Y-79222862D01*
X166435581Y-79344046D01*
X166379762Y-79478804D01*
X166303642Y-79861487D01*
X166303642Y-79931416D01*
X166290000Y-80000000D01*
X164137800Y-80000000D01*
X164137800Y-76365002D01*
X166669270Y-73833532D01*
X166920853Y-74210054D01*
X167402622Y-74531961D01*
X167970907Y-74645000D01*
X168029093Y-74645000D01*
X168597378Y-74531961D01*
X169079147Y-74210054D01*
X169401054Y-73728285D01*
X169514093Y-73160000D01*
X169401054Y-72591715D01*
X169079147Y-72109946D01*
X168749974Y-71890000D01*
X169079147Y-71670054D01*
X169401054Y-71188285D01*
X169514093Y-70620000D01*
X169401054Y-70051715D01*
X169079147Y-69569946D01*
X168749974Y-69350000D01*
X169079147Y-69130054D01*
X169401054Y-68648285D01*
X169514093Y-68080000D01*
X169401054Y-67511715D01*
X169079147Y-67029946D01*
X168749974Y-66810000D01*
X169079147Y-66590054D01*
X169401054Y-66108285D01*
X169514093Y-65540000D01*
X169401054Y-64971715D01*
X169079147Y-64489946D01*
X169035223Y-64460597D01*
X169209698Y-64388327D01*
X169388327Y-64209699D01*
X169485000Y-63976310D01*
X169485000Y-63285750D01*
X169326250Y-63127000D01*
X168127000Y-63127000D01*
X168127000Y-63147000D01*
X167873000Y-63147000D01*
X167873000Y-63127000D01*
X166673750Y-63127000D01*
X166515000Y-63285750D01*
X166515000Y-63976310D01*
X166611673Y-64209699D01*
X166790302Y-64388327D01*
X166964777Y-64460597D01*
X166920853Y-64489946D01*
X166598946Y-64971715D01*
X166485907Y-65540000D01*
X166598946Y-66108285D01*
X166920853Y-66590054D01*
X167250026Y-66810000D01*
X166920853Y-67029946D01*
X166598946Y-67511715D01*
X166485907Y-68080000D01*
X166598946Y-68648285D01*
X166825640Y-68987557D01*
X161585300Y-74227898D01*
X161585300Y-62023690D01*
X166515000Y-62023690D01*
X166515000Y-62714250D01*
X166673750Y-62873000D01*
X167873000Y-62873000D01*
X167873000Y-61673750D01*
X168127000Y-61673750D01*
X168127000Y-62873000D01*
X169326250Y-62873000D01*
X169485000Y-62714250D01*
X169485000Y-62023690D01*
X169388327Y-61790301D01*
X169209698Y-61611673D01*
X168976309Y-61515000D01*
X168285750Y-61515000D01*
X168127000Y-61673750D01*
X167873000Y-61673750D01*
X167714250Y-61515000D01*
X167023691Y-61515000D01*
X166790302Y-61611673D01*
X166611673Y-61790301D01*
X166515000Y-62023690D01*
X161585300Y-62023690D01*
X161585300Y-48800300D01*
X161567338Y-48710000D01*
X165290000Y-48710000D01*
X165290000Y-55000000D01*
X165290000Y-55000000D01*
G37*
X165290000Y-55000000D02*
X165344046Y-55271705D01*
X165497954Y-55502046D01*
X165728295Y-55655954D01*
X166000000Y-55710000D01*
X166290000Y-55710000D01*
X166290000Y-58000000D01*
X166303643Y-58068586D01*
X166303643Y-58138514D01*
X166330404Y-58203120D01*
X166344046Y-58271705D01*
X166382894Y-58329846D01*
X166409656Y-58394455D01*
X166459104Y-58443903D01*
X166497954Y-58502046D01*
X166556098Y-58540897D01*
X166605545Y-58590343D01*
X166670152Y-58617104D01*
X166728295Y-58655954D01*
X166796877Y-58669596D01*
X166861486Y-58696358D01*
X168253707Y-58973288D01*
X169316546Y-59683454D01*
X170026712Y-60746295D01*
X170290000Y-62069931D01*
X170290000Y-90949543D01*
X164297136Y-132899591D01*
X164299897Y-132950245D01*
X164290000Y-133000000D01*
X164290000Y-144930069D01*
X163569989Y-148549807D01*
X161559187Y-151559186D01*
X158549805Y-153569990D01*
X154930069Y-154290000D01*
X117069931Y-154290000D01*
X113450193Y-153569989D01*
X110440814Y-151559187D01*
X110425154Y-151535750D01*
X121740000Y-151535750D01*
X121740000Y-152026310D01*
X121836673Y-152259699D01*
X122015302Y-152438327D01*
X122248691Y-152535000D01*
X122864250Y-152535000D01*
X123023000Y-152376250D01*
X123023000Y-151377000D01*
X123277000Y-151377000D01*
X123277000Y-152376250D01*
X123435750Y-152535000D01*
X124051309Y-152535000D01*
X124284698Y-152438327D01*
X124463327Y-152259699D01*
X124560000Y-152026310D01*
X124560000Y-151535750D01*
X129440000Y-151535750D01*
X129440000Y-152026310D01*
X129536673Y-152259699D01*
X129715302Y-152438327D01*
X129948691Y-152535000D01*
X130564250Y-152535000D01*
X130723000Y-152376250D01*
X130723000Y-151377000D01*
X130977000Y-151377000D01*
X130977000Y-152376250D01*
X131135750Y-152535000D01*
X131751309Y-152535000D01*
X131984698Y-152438327D01*
X132163327Y-152259699D01*
X132260000Y-152026310D01*
X132260000Y-151535750D01*
X139740000Y-151535750D01*
X139740000Y-152026310D01*
X139836673Y-152259699D01*
X140015302Y-152438327D01*
X140248691Y-152535000D01*
X140864250Y-152535000D01*
X141023000Y-152376250D01*
X141023000Y-151377000D01*
X141277000Y-151377000D01*
X141277000Y-152376250D01*
X141435750Y-152535000D01*
X142051309Y-152535000D01*
X142284698Y-152438327D01*
X142463327Y-152259699D01*
X142560000Y-152026310D01*
X142560000Y-151535750D01*
X147440000Y-151535750D01*
X147440000Y-152026310D01*
X147536673Y-152259699D01*
X147715302Y-152438327D01*
X147948691Y-152535000D01*
X148564250Y-152535000D01*
X148723000Y-152376250D01*
X148723000Y-151377000D01*
X148977000Y-151377000D01*
X148977000Y-152376250D01*
X149135750Y-152535000D01*
X149751309Y-152535000D01*
X149984698Y-152438327D01*
X150163327Y-152259699D01*
X150260000Y-152026310D01*
X150260000Y-151535750D01*
X150101250Y-151377000D01*
X148977000Y-151377000D01*
X148723000Y-151377000D01*
X147598750Y-151377000D01*
X147440000Y-151535750D01*
X142560000Y-151535750D01*
X142401250Y-151377000D01*
X141277000Y-151377000D01*
X141023000Y-151377000D01*
X139898750Y-151377000D01*
X139740000Y-151535750D01*
X132260000Y-151535750D01*
X132101250Y-151377000D01*
X130977000Y-151377000D01*
X130723000Y-151377000D01*
X129598750Y-151377000D01*
X129440000Y-151535750D01*
X124560000Y-151535750D01*
X124401250Y-151377000D01*
X123277000Y-151377000D01*
X123023000Y-151377000D01*
X121898750Y-151377000D01*
X121740000Y-151535750D01*
X110425154Y-151535750D01*
X109715509Y-150473690D01*
X121740000Y-150473690D01*
X121740000Y-150964250D01*
X121898750Y-151123000D01*
X123023000Y-151123000D01*
X123023000Y-150123750D01*
X123277000Y-150123750D01*
X123277000Y-151123000D01*
X124401250Y-151123000D01*
X124560000Y-150964250D01*
X124560000Y-150473690D01*
X129440000Y-150473690D01*
X129440000Y-150964250D01*
X129598750Y-151123000D01*
X130723000Y-151123000D01*
X130723000Y-150123750D01*
X130977000Y-150123750D01*
X130977000Y-151123000D01*
X132101250Y-151123000D01*
X132260000Y-150964250D01*
X132260000Y-150473690D01*
X139740000Y-150473690D01*
X139740000Y-150964250D01*
X139898750Y-151123000D01*
X141023000Y-151123000D01*
X141023000Y-150123750D01*
X141277000Y-150123750D01*
X141277000Y-151123000D01*
X142401250Y-151123000D01*
X142560000Y-150964250D01*
X142560000Y-150473690D01*
X147440000Y-150473690D01*
X147440000Y-150964250D01*
X147598750Y-151123000D01*
X148723000Y-151123000D01*
X148723000Y-150123750D01*
X148977000Y-150123750D01*
X148977000Y-151123000D01*
X150101250Y-151123000D01*
X150260000Y-150964250D01*
X150260000Y-150473690D01*
X150163327Y-150240301D01*
X149984698Y-150061673D01*
X149751309Y-149965000D01*
X149135750Y-149965000D01*
X148977000Y-150123750D01*
X148723000Y-150123750D01*
X148564250Y-149965000D01*
X147948691Y-149965000D01*
X147715302Y-150061673D01*
X147536673Y-150240301D01*
X147440000Y-150473690D01*
X142560000Y-150473690D01*
X142463327Y-150240301D01*
X142284698Y-150061673D01*
X142051309Y-149965000D01*
X141435750Y-149965000D01*
X141277000Y-150123750D01*
X141023000Y-150123750D01*
X140864250Y-149965000D01*
X140248691Y-149965000D01*
X140015302Y-150061673D01*
X139836673Y-150240301D01*
X139740000Y-150473690D01*
X132260000Y-150473690D01*
X132163327Y-150240301D01*
X131984698Y-150061673D01*
X131751309Y-149965000D01*
X131135750Y-149965000D01*
X130977000Y-150123750D01*
X130723000Y-150123750D01*
X130564250Y-149965000D01*
X129948691Y-149965000D01*
X129715302Y-150061673D01*
X129536673Y-150240301D01*
X129440000Y-150473690D01*
X124560000Y-150473690D01*
X124463327Y-150240301D01*
X124284698Y-150061673D01*
X124051309Y-149965000D01*
X123435750Y-149965000D01*
X123277000Y-150123750D01*
X123023000Y-150123750D01*
X122864250Y-149965000D01*
X122248691Y-149965000D01*
X122015302Y-150061673D01*
X121836673Y-150240301D01*
X121740000Y-150473690D01*
X109715509Y-150473690D01*
X108430010Y-148549805D01*
X107710000Y-144930069D01*
X107710000Y-133000000D01*
X107700103Y-132950245D01*
X107702864Y-132899591D01*
X103665173Y-104635750D01*
X110665000Y-104635750D01*
X110665000Y-104926310D01*
X110761673Y-105159699D01*
X110940302Y-105338327D01*
X111173691Y-105435000D01*
X111464250Y-105435000D01*
X111623000Y-105276250D01*
X111623000Y-104477000D01*
X111877000Y-104477000D01*
X111877000Y-105276250D01*
X112035750Y-105435000D01*
X112326309Y-105435000D01*
X112559698Y-105338327D01*
X112738327Y-105159699D01*
X112835000Y-104926310D01*
X112835000Y-104635750D01*
X112676250Y-104477000D01*
X111877000Y-104477000D01*
X111623000Y-104477000D01*
X110823750Y-104477000D01*
X110665000Y-104635750D01*
X103665173Y-104635750D01*
X103542022Y-103773690D01*
X110665000Y-103773690D01*
X110665000Y-104064250D01*
X110823750Y-104223000D01*
X111623000Y-104223000D01*
X111623000Y-103423750D01*
X111877000Y-103423750D01*
X111877000Y-104223000D01*
X112676250Y-104223000D01*
X112835000Y-104064250D01*
X112835000Y-103773690D01*
X112738327Y-103540301D01*
X112559698Y-103361673D01*
X112326309Y-103265000D01*
X112035750Y-103265000D01*
X111877000Y-103423750D01*
X111623000Y-103423750D01*
X111464250Y-103265000D01*
X111173691Y-103265000D01*
X110940302Y-103361673D01*
X110761673Y-103540301D01*
X110665000Y-103773690D01*
X103542022Y-103773690D01*
X102938031Y-99545750D01*
X112115000Y-99545750D01*
X112115000Y-101386310D01*
X112211673Y-101619699D01*
X112390302Y-101798327D01*
X112623691Y-101895000D01*
X113714250Y-101895000D01*
X113873000Y-101736250D01*
X113873000Y-99387000D01*
X112273750Y-99387000D01*
X112115000Y-99545750D01*
X102938031Y-99545750D01*
X102593451Y-97133690D01*
X112115000Y-97133690D01*
X112115000Y-98974250D01*
X112273750Y-99133000D01*
X113873000Y-99133000D01*
X113873000Y-96783750D01*
X114127000Y-96783750D01*
X114127000Y-99133000D01*
X115726250Y-99133000D01*
X115885000Y-98974250D01*
X115885000Y-97133690D01*
X115788327Y-96900301D01*
X115609698Y-96721673D01*
X115376309Y-96625000D01*
X114285750Y-96625000D01*
X114127000Y-96783750D01*
X113873000Y-96783750D01*
X113714250Y-96625000D01*
X112623691Y-96625000D01*
X112390302Y-96721673D01*
X112211673Y-96900301D01*
X112115000Y-97133690D01*
X102593451Y-97133690D01*
X101710000Y-90949543D01*
X101710000Y-76115928D01*
X101820899Y-76281901D01*
X103845767Y-78306769D01*
X103478804Y-78379762D01*
X103406632Y-78409657D01*
X103222862Y-78485777D01*
X102898438Y-78702549D01*
X102739501Y-78861487D01*
X102702549Y-78898439D01*
X102485776Y-79222862D01*
X102435581Y-79344046D01*
X102379762Y-79478804D01*
X102303642Y-79861487D01*
X102303642Y-79931416D01*
X102290000Y-80000000D01*
X102290000Y-94000000D01*
X102303642Y-94068584D01*
X102303642Y-94138513D01*
X102379762Y-94521196D01*
X102394928Y-94557809D01*
X102485776Y-94777138D01*
X102702549Y-95101561D01*
X102702550Y-95101562D01*
X102898438Y-95297451D01*
X103222862Y-95514223D01*
X103328877Y-95558136D01*
X103478804Y-95620238D01*
X103861486Y-95696358D01*
X104138513Y-95696358D01*
X104521196Y-95620238D01*
X104596160Y-95589187D01*
X104777138Y-95514224D01*
X105101561Y-95297451D01*
X105101562Y-95297450D01*
X105297451Y-95101562D01*
X105514223Y-94777138D01*
X105565959Y-94652235D01*
X105620238Y-94521196D01*
X105696358Y-94138514D01*
X105696358Y-94068584D01*
X105710000Y-94000000D01*
X105710000Y-86735750D01*
X110865000Y-86735750D01*
X110865000Y-88576310D01*
X110961673Y-88809699D01*
X111140302Y-88988327D01*
X111373691Y-89085000D01*
X113714250Y-89085000D01*
X113873000Y-88926250D01*
X113873000Y-86577000D01*
X114127000Y-86577000D01*
X114127000Y-88926250D01*
X114285750Y-89085000D01*
X116626309Y-89085000D01*
X116859698Y-88988327D01*
X117038327Y-88809699D01*
X117135000Y-88576310D01*
X117135000Y-86735750D01*
X116976250Y-86577000D01*
X114127000Y-86577000D01*
X113873000Y-86577000D01*
X111023750Y-86577000D01*
X110865000Y-86735750D01*
X105710000Y-86735750D01*
X105710000Y-84323690D01*
X110865000Y-84323690D01*
X110865000Y-86164250D01*
X111023750Y-86323000D01*
X113873000Y-86323000D01*
X113873000Y-83973750D01*
X113714250Y-83815000D01*
X111373691Y-83815000D01*
X111140302Y-83911673D01*
X110961673Y-84090301D01*
X110865000Y-84323690D01*
X105710000Y-84323690D01*
X105710000Y-80000000D01*
X105696358Y-79931416D01*
X105696358Y-79861486D01*
X105620238Y-79478804D01*
X105514223Y-79222863D01*
X105514223Y-79222862D01*
X105297451Y-78898438D01*
X105170612Y-78771600D01*
X110721398Y-78771600D01*
X115764798Y-83815000D01*
X114285750Y-83815000D01*
X114127000Y-83973750D01*
X114127000Y-86323000D01*
X116976250Y-86323000D01*
X117135000Y-86164250D01*
X117135000Y-85185202D01*
X122202358Y-90252560D01*
X121500000Y-90252560D01*
X121252235Y-90301843D01*
X121042191Y-90442191D01*
X120901843Y-90652235D01*
X120852560Y-90900000D01*
X120852560Y-92100000D01*
X120901843Y-92347765D01*
X121003564Y-92500000D01*
X120901843Y-92652235D01*
X120852560Y-92900000D01*
X120852560Y-94100000D01*
X120901843Y-94347765D01*
X121003564Y-94500000D01*
X120901843Y-94652235D01*
X120852560Y-94900000D01*
X120852560Y-96011838D01*
X115885000Y-100979398D01*
X115885000Y-99545750D01*
X115726250Y-99387000D01*
X114127000Y-99387000D01*
X114127000Y-101736250D01*
X114285750Y-101895000D01*
X114969398Y-101895000D01*
X114937299Y-101927099D01*
X114772552Y-102173661D01*
X114714700Y-102464500D01*
X114714700Y-106099400D01*
X114772552Y-106390239D01*
X114937299Y-106636801D01*
X115222227Y-106921729D01*
X115201843Y-106952235D01*
X115152560Y-107200000D01*
X115152560Y-107665300D01*
X113615402Y-107665300D01*
X113062701Y-107112599D01*
X112816139Y-106947852D01*
X112792023Y-106943055D01*
X112657809Y-106742191D01*
X112447765Y-106601843D01*
X112200000Y-106552560D01*
X111300000Y-106552560D01*
X111052235Y-106601843D01*
X110842191Y-106742191D01*
X110701843Y-106952235D01*
X110652560Y-107200000D01*
X110652560Y-108100000D01*
X110701843Y-108347765D01*
X110842191Y-108557809D01*
X111052235Y-108698157D01*
X111300000Y-108747440D01*
X112200000Y-108747440D01*
X112447765Y-108698157D01*
X112478271Y-108677773D01*
X112763199Y-108962701D01*
X113009761Y-109127448D01*
X113300600Y-109185300D01*
X118264900Y-109185300D01*
X118555739Y-109127448D01*
X118802301Y-108962701D01*
X123138000Y-104627002D01*
X123223748Y-104627002D01*
X123065000Y-104785750D01*
X123065000Y-105088314D01*
X122889860Y-105123152D01*
X122643299Y-105287899D01*
X108512199Y-119418999D01*
X108347452Y-119665561D01*
X108289600Y-119956400D01*
X108289600Y-131674300D01*
X108347452Y-131965139D01*
X108512199Y-132211701D01*
X121932476Y-145631978D01*
X121917191Y-145642191D01*
X121776843Y-145852235D01*
X121727560Y-146100000D01*
X121727560Y-147400000D01*
X121776843Y-147647765D01*
X121917191Y-147857809D01*
X122127235Y-147998157D01*
X122375000Y-148047440D01*
X123925000Y-148047440D01*
X124172765Y-147998157D01*
X124382809Y-147857809D01*
X124523157Y-147647765D01*
X124572440Y-147400000D01*
X124572440Y-147022300D01*
X128947198Y-147022300D01*
X129212299Y-147287401D01*
X129434725Y-147436021D01*
X129476843Y-147647765D01*
X129617191Y-147857809D01*
X129827235Y-147998157D01*
X130075000Y-148047440D01*
X131625000Y-148047440D01*
X131872765Y-147998157D01*
X132082809Y-147857809D01*
X132223157Y-147647765D01*
X132272440Y-147400000D01*
X132272440Y-146100000D01*
X139727560Y-146100000D01*
X139727560Y-147400000D01*
X139776843Y-147647765D01*
X139917191Y-147857809D01*
X140127235Y-147998157D01*
X140375000Y-148047440D01*
X141925000Y-148047440D01*
X142172765Y-147998157D01*
X142382809Y-147857809D01*
X142523157Y-147647765D01*
X142550560Y-147510000D01*
X147449440Y-147510000D01*
X147476843Y-147647765D01*
X147617191Y-147857809D01*
X147827235Y-147998157D01*
X148075000Y-148047440D01*
X149625000Y-148047440D01*
X149872765Y-147998157D01*
X150082809Y-147857809D01*
X150223157Y-147647765D01*
X150272440Y-147400000D01*
X150272440Y-146100000D01*
X150223157Y-145852235D01*
X150126033Y-145706879D01*
X150235515Y-145661642D01*
X150526919Y-145370746D01*
X150684820Y-144990477D01*
X150685179Y-144578729D01*
X150527942Y-144198185D01*
X150237046Y-143906781D01*
X149856777Y-143748880D01*
X149445029Y-143748521D01*
X149064485Y-143905758D01*
X148773081Y-144196654D01*
X148615180Y-144576923D01*
X148615034Y-144743864D01*
X148312599Y-145046299D01*
X148147852Y-145292861D01*
X148116086Y-145452560D01*
X148075000Y-145452560D01*
X147827235Y-145501843D01*
X147617191Y-145642191D01*
X147476843Y-145852235D01*
X147449440Y-145990000D01*
X142550560Y-145990000D01*
X142523157Y-145852235D01*
X142382809Y-145642191D01*
X142172765Y-145501843D01*
X141925000Y-145452560D01*
X140375000Y-145452560D01*
X140127235Y-145501843D01*
X139917191Y-145642191D01*
X139776843Y-145852235D01*
X139727560Y-146100000D01*
X132272440Y-146100000D01*
X132223157Y-145852235D01*
X132082809Y-145642191D01*
X131872765Y-145501843D01*
X131625000Y-145452560D01*
X130075000Y-145452560D01*
X129827235Y-145501843D01*
X129646405Y-145622671D01*
X129552839Y-145560152D01*
X129262000Y-145502300D01*
X124173449Y-145502300D01*
X124172765Y-145501843D01*
X123925000Y-145452560D01*
X123831233Y-145452560D01*
X123687401Y-145237299D01*
X109809600Y-131359498D01*
X109809600Y-126547440D01*
X110925000Y-126547440D01*
X111172765Y-126498157D01*
X111382809Y-126357809D01*
X111523157Y-126147765D01*
X111550560Y-126010000D01*
X116449440Y-126010000D01*
X116476843Y-126147765D01*
X116617191Y-126357809D01*
X116827235Y-126498157D01*
X117075000Y-126547440D01*
X118625000Y-126547440D01*
X118872765Y-126498157D01*
X119082809Y-126357809D01*
X119223157Y-126147765D01*
X119272440Y-125900000D01*
X119272440Y-124600000D01*
X119223157Y-124352235D01*
X119082809Y-124142191D01*
X118872765Y-124001843D01*
X118625000Y-123952560D01*
X117075000Y-123952560D01*
X116827235Y-124001843D01*
X116617191Y-124142191D01*
X116476843Y-124352235D01*
X116449440Y-124490000D01*
X111550560Y-124490000D01*
X111523157Y-124352235D01*
X111382809Y-124142191D01*
X111172765Y-124001843D01*
X110925000Y-123952560D01*
X109809600Y-123952560D01*
X109809600Y-122047440D01*
X110925000Y-122047440D01*
X111172765Y-121998157D01*
X111382809Y-121857809D01*
X111523157Y-121647765D01*
X111550560Y-121510000D01*
X116449440Y-121510000D01*
X116476843Y-121647765D01*
X116617191Y-121857809D01*
X116827235Y-121998157D01*
X117075000Y-122047440D01*
X118625000Y-122047440D01*
X118872765Y-121998157D01*
X119082809Y-121857809D01*
X119223157Y-121647765D01*
X119250560Y-121510000D01*
X128749440Y-121510000D01*
X128776843Y-121647765D01*
X128917191Y-121857809D01*
X129127235Y-121998157D01*
X129375000Y-122047440D01*
X130388158Y-122047440D01*
X128512199Y-123923399D01*
X128347452Y-124169961D01*
X128289600Y-124460800D01*
X128289600Y-128452560D01*
X127075000Y-128452560D01*
X126827235Y-128501843D01*
X126617191Y-128642191D01*
X126476843Y-128852235D01*
X126449440Y-128990000D01*
X121550560Y-128990000D01*
X121523157Y-128852235D01*
X121382809Y-128642191D01*
X121172765Y-128501843D01*
X120925000Y-128452560D01*
X119375000Y-128452560D01*
X119127235Y-128501843D01*
X118917191Y-128642191D01*
X118776843Y-128852235D01*
X118727560Y-129100000D01*
X118727560Y-130400000D01*
X118776843Y-130647765D01*
X118917191Y-130857809D01*
X119127235Y-130998157D01*
X119375000Y-131047440D01*
X120925000Y-131047440D01*
X121172765Y-130998157D01*
X121382809Y-130857809D01*
X121523157Y-130647765D01*
X121550560Y-130510000D01*
X126449440Y-130510000D01*
X126476843Y-130647765D01*
X126617191Y-130857809D01*
X126827235Y-130998157D01*
X127075000Y-131047440D01*
X128289600Y-131047440D01*
X128289600Y-131760298D01*
X127312599Y-132737299D01*
X127168767Y-132952560D01*
X127075000Y-132952560D01*
X126827235Y-133001843D01*
X126826551Y-133002300D01*
X121738000Y-133002300D01*
X121447161Y-133060152D01*
X121353595Y-133122671D01*
X121172765Y-133001843D01*
X120925000Y-132952560D01*
X119375000Y-132952560D01*
X119127235Y-133001843D01*
X118917191Y-133142191D01*
X118776843Y-133352235D01*
X118727560Y-133600000D01*
X118727560Y-134900000D01*
X118776843Y-135147765D01*
X118917191Y-135357809D01*
X119127235Y-135498157D01*
X119375000Y-135547440D01*
X120925000Y-135547440D01*
X121172765Y-135498157D01*
X121382809Y-135357809D01*
X121523157Y-135147765D01*
X121565275Y-134936021D01*
X121787701Y-134787401D01*
X122052802Y-134522300D01*
X126427560Y-134522300D01*
X126427560Y-134900000D01*
X126476843Y-135147765D01*
X126617191Y-135357809D01*
X126827235Y-135498157D01*
X127075000Y-135547440D01*
X128625000Y-135547440D01*
X128872765Y-135498157D01*
X129082809Y-135357809D01*
X129223157Y-135147765D01*
X129272440Y-134900000D01*
X129272440Y-133600000D01*
X129223157Y-133352235D01*
X129082809Y-133142191D01*
X129067524Y-133131978D01*
X129587001Y-132612501D01*
X129751748Y-132365939D01*
X129809600Y-132075100D01*
X129809600Y-126547440D01*
X130925000Y-126547440D01*
X131172765Y-126498157D01*
X131382809Y-126357809D01*
X131523157Y-126147765D01*
X131550560Y-126010000D01*
X136449440Y-126010000D01*
X136476843Y-126147765D01*
X136617191Y-126357809D01*
X136827235Y-126498157D01*
X137075000Y-126547440D01*
X138625000Y-126547440D01*
X138872765Y-126498157D01*
X139082809Y-126357809D01*
X139223157Y-126147765D01*
X139272440Y-125900000D01*
X139272440Y-124600000D01*
X139223157Y-124352235D01*
X139082809Y-124142191D01*
X138872765Y-124001843D01*
X138625000Y-123952560D01*
X137075000Y-123952560D01*
X136827235Y-124001843D01*
X136617191Y-124142191D01*
X136476843Y-124352235D01*
X136449440Y-124490000D01*
X131550560Y-124490000D01*
X131523157Y-124352235D01*
X131382809Y-124142191D01*
X131172765Y-124001843D01*
X130925000Y-123952560D01*
X130632642Y-123952560D01*
X134537401Y-120047801D01*
X134702148Y-119801239D01*
X134760000Y-119510400D01*
X134760000Y-113942285D01*
X134823157Y-113847765D01*
X134872440Y-113600000D01*
X134872440Y-113382800D01*
X135127560Y-113382800D01*
X135127560Y-113600000D01*
X135176843Y-113847765D01*
X135317191Y-114057809D01*
X135527235Y-114198157D01*
X135775000Y-114247440D01*
X136209300Y-114247440D01*
X136209300Y-118894000D01*
X136267152Y-119184839D01*
X136431899Y-119431401D01*
X136632476Y-119631978D01*
X136617191Y-119642191D01*
X136476843Y-119852235D01*
X136427560Y-120100000D01*
X136427560Y-121400000D01*
X136476843Y-121647765D01*
X136617191Y-121857809D01*
X136827235Y-121998157D01*
X137075000Y-122047440D01*
X138625000Y-122047440D01*
X138872765Y-121998157D01*
X139082809Y-121857809D01*
X139223157Y-121647765D01*
X139272440Y-121400000D01*
X139272440Y-120100000D01*
X139223157Y-119852235D01*
X139082809Y-119642191D01*
X138872765Y-119501843D01*
X138625000Y-119452560D01*
X138531233Y-119452560D01*
X138387401Y-119237299D01*
X137729300Y-118579198D01*
X137729300Y-118079102D01*
X143877200Y-124227002D01*
X143877200Y-127511900D01*
X143935052Y-127802739D01*
X144099799Y-128049301D01*
X146682476Y-130631978D01*
X146667191Y-130642191D01*
X146526843Y-130852235D01*
X146477560Y-131100000D01*
X146477560Y-132400000D01*
X146526843Y-132647765D01*
X146667191Y-132857809D01*
X146877235Y-132998157D01*
X147125000Y-133047440D01*
X148675000Y-133047440D01*
X148922765Y-132998157D01*
X149132809Y-132857809D01*
X149273157Y-132647765D01*
X149322440Y-132400000D01*
X149322440Y-132022300D01*
X153697198Y-132022300D01*
X153962299Y-132287401D01*
X154184725Y-132436021D01*
X154226843Y-132647765D01*
X154367191Y-132857809D01*
X154577235Y-132998157D01*
X154825000Y-133047440D01*
X156375000Y-133047440D01*
X156622765Y-132998157D01*
X156832809Y-132857809D01*
X156973157Y-132647765D01*
X157022440Y-132400000D01*
X157022440Y-131100000D01*
X156973157Y-130852235D01*
X156832809Y-130642191D01*
X156622765Y-130501843D01*
X156375000Y-130452560D01*
X154825000Y-130452560D01*
X154577235Y-130501843D01*
X154396405Y-130622671D01*
X154302839Y-130560152D01*
X154012000Y-130502300D01*
X148923449Y-130502300D01*
X148922765Y-130501843D01*
X148675000Y-130452560D01*
X148581233Y-130452560D01*
X148437401Y-130237299D01*
X145397200Y-127197098D01*
X145397200Y-126600000D01*
X146477560Y-126600000D01*
X146477560Y-127900000D01*
X146526843Y-128147765D01*
X146667191Y-128357809D01*
X146877235Y-128498157D01*
X147125000Y-128547440D01*
X148675000Y-128547440D01*
X148922765Y-128498157D01*
X149132809Y-128357809D01*
X149273157Y-128147765D01*
X149300560Y-128010000D01*
X154199440Y-128010000D01*
X154226843Y-128147765D01*
X154367191Y-128357809D01*
X154577235Y-128498157D01*
X154825000Y-128547440D01*
X156375000Y-128547440D01*
X156622765Y-128498157D01*
X156832809Y-128357809D01*
X156973157Y-128147765D01*
X157022440Y-127900000D01*
X157022440Y-126600000D01*
X156973157Y-126352235D01*
X156832809Y-126142191D01*
X156622765Y-126001843D01*
X156375000Y-125952560D01*
X154825000Y-125952560D01*
X154577235Y-126001843D01*
X154367191Y-126142191D01*
X154226843Y-126352235D01*
X154199440Y-126490000D01*
X149300560Y-126490000D01*
X149273157Y-126352235D01*
X149132809Y-126142191D01*
X148922765Y-126001843D01*
X148675000Y-125952560D01*
X147125000Y-125952560D01*
X146877235Y-126001843D01*
X146667191Y-126142191D01*
X146526843Y-126352235D01*
X146477560Y-126600000D01*
X145397200Y-126600000D01*
X145397200Y-123912200D01*
X145339348Y-123621361D01*
X145339348Y-123621360D01*
X145174601Y-123374799D01*
X138209600Y-116409798D01*
X138209600Y-114247440D01*
X138225000Y-114247440D01*
X138390098Y-114214600D01*
X141962899Y-117787401D01*
X142209461Y-117952148D01*
X142500300Y-118010000D01*
X150249440Y-118010000D01*
X150276843Y-118147765D01*
X150417191Y-118357809D01*
X150627235Y-118498157D01*
X150875000Y-118547440D01*
X152425000Y-118547440D01*
X152672765Y-118498157D01*
X152882809Y-118357809D01*
X153023157Y-118147765D01*
X153050560Y-118010000D01*
X157949440Y-118010000D01*
X157976843Y-118147765D01*
X158117191Y-118357809D01*
X158327235Y-118498157D01*
X158575000Y-118547440D01*
X160125000Y-118547440D01*
X160372765Y-118498157D01*
X160582809Y-118357809D01*
X160723157Y-118147765D01*
X160772440Y-117900000D01*
X160772440Y-116600000D01*
X160723157Y-116352235D01*
X160582809Y-116142191D01*
X160372765Y-116001843D01*
X160125000Y-115952560D01*
X158575000Y-115952560D01*
X158327235Y-116001843D01*
X158117191Y-116142191D01*
X157976843Y-116352235D01*
X157949440Y-116490000D01*
X153050560Y-116490000D01*
X153023157Y-116352235D01*
X152882809Y-116142191D01*
X152672765Y-116001843D01*
X152425000Y-115952560D01*
X150875000Y-115952560D01*
X150627235Y-116001843D01*
X150417191Y-116142191D01*
X150276843Y-116352235D01*
X150249440Y-116490000D01*
X142815102Y-116490000D01*
X140503034Y-114177932D01*
X140682809Y-114057809D01*
X140814147Y-113861249D01*
X142876199Y-115923301D01*
X143122760Y-116088048D01*
X143413600Y-116145900D01*
X146149900Y-116145900D01*
X146440739Y-116088048D01*
X146687301Y-115923301D01*
X148537401Y-114073201D01*
X148702148Y-113826639D01*
X148755235Y-113559757D01*
X148907809Y-113457809D01*
X149048157Y-113247765D01*
X149097440Y-113000000D01*
X149097440Y-112500000D01*
X149048157Y-112252235D01*
X148907809Y-112042191D01*
X148859632Y-112010000D01*
X150245462Y-112010000D01*
X150227560Y-112100000D01*
X150227560Y-113400000D01*
X150276843Y-113647765D01*
X150417191Y-113857809D01*
X150627235Y-113998157D01*
X150875000Y-114047440D01*
X152425000Y-114047440D01*
X152672765Y-113998157D01*
X152882809Y-113857809D01*
X153023157Y-113647765D01*
X153050560Y-113510000D01*
X157949440Y-113510000D01*
X157976843Y-113647765D01*
X158117191Y-113857809D01*
X158327235Y-113998157D01*
X158575000Y-114047440D01*
X160125000Y-114047440D01*
X160372765Y-113998157D01*
X160582809Y-113857809D01*
X160723157Y-113647765D01*
X160772440Y-113400000D01*
X160772440Y-112100000D01*
X160723157Y-111852235D01*
X160582809Y-111642191D01*
X160372765Y-111501843D01*
X160125000Y-111452560D01*
X158575000Y-111452560D01*
X158327235Y-111501843D01*
X158117191Y-111642191D01*
X157976843Y-111852235D01*
X157949440Y-111990000D01*
X155975246Y-111990000D01*
X156165539Y-111952148D01*
X156412101Y-111787401D01*
X159521729Y-108677773D01*
X159552235Y-108698157D01*
X159800000Y-108747440D01*
X160700000Y-108747440D01*
X160947765Y-108698157D01*
X161157809Y-108557809D01*
X161298157Y-108347765D01*
X161347440Y-108100000D01*
X161347440Y-107200000D01*
X161298157Y-106952235D01*
X161277773Y-106921729D01*
X163915201Y-104284301D01*
X164079948Y-104037740D01*
X164137800Y-103746900D01*
X164137800Y-80000000D01*
X166290000Y-80000000D01*
X166290000Y-94000000D01*
X166303642Y-94068584D01*
X166303642Y-94138513D01*
X166379762Y-94521196D01*
X166394928Y-94557809D01*
X166485776Y-94777138D01*
X166702549Y-95101561D01*
X166702550Y-95101562D01*
X166898438Y-95297451D01*
X167222862Y-95514223D01*
X167328877Y-95558136D01*
X167478804Y-95620238D01*
X167861486Y-95696358D01*
X168138513Y-95696358D01*
X168521196Y-95620238D01*
X168596160Y-95589187D01*
X168777138Y-95514224D01*
X169101561Y-95297451D01*
X169101562Y-95297450D01*
X169297451Y-95101562D01*
X169514223Y-94777138D01*
X169565959Y-94652235D01*
X169620238Y-94521196D01*
X169696358Y-94138514D01*
X169696358Y-94068584D01*
X169710000Y-94000000D01*
X169710000Y-80000000D01*
X169696358Y-79931416D01*
X169696358Y-79861486D01*
X169620238Y-79478804D01*
X169514223Y-79222863D01*
X169514223Y-79222862D01*
X169297451Y-78898438D01*
X169101562Y-78702550D01*
X169101561Y-78702549D01*
X168777138Y-78485776D01*
X168593368Y-78409657D01*
X168521196Y-78379762D01*
X168138513Y-78303642D01*
X167861486Y-78303642D01*
X167478804Y-78379762D01*
X167406632Y-78409657D01*
X167222862Y-78485777D01*
X166898438Y-78702549D01*
X166739501Y-78861487D01*
X166702549Y-78898439D01*
X166485776Y-79222862D01*
X166435581Y-79344046D01*
X166379762Y-79478804D01*
X166303642Y-79861487D01*
X166303642Y-79931416D01*
X166290000Y-80000000D01*
X164137800Y-80000000D01*
X164137800Y-76365002D01*
X166669270Y-73833532D01*
X166920853Y-74210054D01*
X167402622Y-74531961D01*
X167970907Y-74645000D01*
X168029093Y-74645000D01*
X168597378Y-74531961D01*
X169079147Y-74210054D01*
X169401054Y-73728285D01*
X169514093Y-73160000D01*
X169401054Y-72591715D01*
X169079147Y-72109946D01*
X168749974Y-71890000D01*
X169079147Y-71670054D01*
X169401054Y-71188285D01*
X169514093Y-70620000D01*
X169401054Y-70051715D01*
X169079147Y-69569946D01*
X168749974Y-69350000D01*
X169079147Y-69130054D01*
X169401054Y-68648285D01*
X169514093Y-68080000D01*
X169401054Y-67511715D01*
X169079147Y-67029946D01*
X168749974Y-66810000D01*
X169079147Y-66590054D01*
X169401054Y-66108285D01*
X169514093Y-65540000D01*
X169401054Y-64971715D01*
X169079147Y-64489946D01*
X169035223Y-64460597D01*
X169209698Y-64388327D01*
X169388327Y-64209699D01*
X169485000Y-63976310D01*
X169485000Y-63285750D01*
X169326250Y-63127000D01*
X168127000Y-63127000D01*
X168127000Y-63147000D01*
X167873000Y-63147000D01*
X167873000Y-63127000D01*
X166673750Y-63127000D01*
X166515000Y-63285750D01*
X166515000Y-63976310D01*
X166611673Y-64209699D01*
X166790302Y-64388327D01*
X166964777Y-64460597D01*
X166920853Y-64489946D01*
X166598946Y-64971715D01*
X166485907Y-65540000D01*
X166598946Y-66108285D01*
X166920853Y-66590054D01*
X167250026Y-66810000D01*
X166920853Y-67029946D01*
X166598946Y-67511715D01*
X166485907Y-68080000D01*
X166598946Y-68648285D01*
X166825640Y-68987557D01*
X161585300Y-74227898D01*
X161585300Y-62023690D01*
X166515000Y-62023690D01*
X166515000Y-62714250D01*
X166673750Y-62873000D01*
X167873000Y-62873000D01*
X167873000Y-61673750D01*
X168127000Y-61673750D01*
X168127000Y-62873000D01*
X169326250Y-62873000D01*
X169485000Y-62714250D01*
X169485000Y-62023690D01*
X169388327Y-61790301D01*
X169209698Y-61611673D01*
X168976309Y-61515000D01*
X168285750Y-61515000D01*
X168127000Y-61673750D01*
X167873000Y-61673750D01*
X167714250Y-61515000D01*
X167023691Y-61515000D01*
X166790302Y-61611673D01*
X166611673Y-61790301D01*
X166515000Y-62023690D01*
X161585300Y-62023690D01*
X161585300Y-48800300D01*
X161567338Y-48710000D01*
X165290000Y-48710000D01*
X165290000Y-55000000D01*
G36*
X156603058Y-83577560D02*
X155500000Y-83577560D01*
X155252235Y-83626843D01*
X155042191Y-83767191D01*
X154901843Y-83977235D01*
X154852560Y-84225000D01*
X154852560Y-88225000D01*
X154901843Y-88472765D01*
X155042191Y-88682809D01*
X155252235Y-88823157D01*
X155500000Y-88872440D01*
X157240000Y-88872440D01*
X157240000Y-96387560D01*
X156750000Y-96387560D01*
X156502235Y-96436843D01*
X156292191Y-96577191D01*
X156151843Y-96787235D01*
X156102560Y-97035000D01*
X156102560Y-101035000D01*
X156151843Y-101282765D01*
X156292191Y-101492809D01*
X156502235Y-101633157D01*
X156750000Y-101682440D01*
X159250000Y-101682440D01*
X159497765Y-101633157D01*
X159707809Y-101492809D01*
X159848157Y-101282765D01*
X159897440Y-101035000D01*
X159897440Y-97035000D01*
X159848157Y-96787235D01*
X159707809Y-96577191D01*
X159497765Y-96436843D01*
X159250000Y-96387560D01*
X158760000Y-96387560D01*
X158760000Y-88872440D01*
X160065300Y-88872440D01*
X160065300Y-102684598D01*
X159712599Y-103037299D01*
X159547852Y-103283861D01*
X159543055Y-103307977D01*
X159342191Y-103442191D01*
X159201843Y-103652235D01*
X159152560Y-103900000D01*
X159152560Y-104800000D01*
X159201843Y-105047765D01*
X159342191Y-105257809D01*
X159547982Y-105395316D01*
X159375298Y-105568000D01*
X148611606Y-105568000D01*
X149089803Y-105089803D01*
X149117333Y-105048601D01*
X149127000Y-105000000D01*
X149127000Y-104635750D01*
X154665000Y-104635750D01*
X154665000Y-104926310D01*
X154761673Y-105159699D01*
X154940302Y-105338327D01*
X155173691Y-105435000D01*
X155464250Y-105435000D01*
X155623000Y-105276250D01*
X155623000Y-104477000D01*
X155877000Y-104477000D01*
X155877000Y-105276250D01*
X156035750Y-105435000D01*
X156326309Y-105435000D01*
X156559698Y-105338327D01*
X156738327Y-105159699D01*
X156835000Y-104926310D01*
X156835000Y-104635750D01*
X156676250Y-104477000D01*
X155877000Y-104477000D01*
X155623000Y-104477000D01*
X154823750Y-104477000D01*
X154665000Y-104635750D01*
X149127000Y-104635750D01*
X149127000Y-103773690D01*
X154665000Y-103773690D01*
X154665000Y-104064250D01*
X154823750Y-104223000D01*
X155623000Y-104223000D01*
X155623000Y-103423750D01*
X155877000Y-103423750D01*
X155877000Y-104223000D01*
X156676250Y-104223000D01*
X156835000Y-104064250D01*
X156835000Y-103773690D01*
X156738327Y-103540301D01*
X156559698Y-103361673D01*
X156326309Y-103265000D01*
X156035750Y-103265000D01*
X155877000Y-103423750D01*
X155623000Y-103423750D01*
X155464250Y-103265000D01*
X155173691Y-103265000D01*
X154940302Y-103361673D01*
X154761673Y-103540301D01*
X154665000Y-103773690D01*
X149127000Y-103773690D01*
X149127000Y-88000000D01*
X149117333Y-87951399D01*
X149089803Y-87910197D01*
X148089803Y-86910197D01*
X148048601Y-86882667D01*
X148000000Y-86873000D01*
X140000000Y-86873000D01*
X139951399Y-86882667D01*
X139910197Y-86910197D01*
X139509771Y-87310623D01*
X139498157Y-87252235D01*
X139357809Y-87042191D01*
X139147765Y-86901843D01*
X138900000Y-86852560D01*
X137700000Y-86852560D01*
X137452235Y-86901843D01*
X137300000Y-87003564D01*
X137147765Y-86901843D01*
X137060000Y-86884386D01*
X137060000Y-77466602D01*
X140147801Y-74378801D01*
X140312548Y-74132239D01*
X140370400Y-73841400D01*
X140370400Y-71322300D01*
X140312548Y-71031461D01*
X140147801Y-70784899D01*
X139198202Y-69835300D01*
X142860798Y-69835300D01*
X156603058Y-83577560D01*
X156603058Y-83577560D01*
G37*
X156603058Y-83577560D02*
X155500000Y-83577560D01*
X155252235Y-83626843D01*
X155042191Y-83767191D01*
X154901843Y-83977235D01*
X154852560Y-84225000D01*
X154852560Y-88225000D01*
X154901843Y-88472765D01*
X155042191Y-88682809D01*
X155252235Y-88823157D01*
X155500000Y-88872440D01*
X157240000Y-88872440D01*
X157240000Y-96387560D01*
X156750000Y-96387560D01*
X156502235Y-96436843D01*
X156292191Y-96577191D01*
X156151843Y-96787235D01*
X156102560Y-97035000D01*
X156102560Y-101035000D01*
X156151843Y-101282765D01*
X156292191Y-101492809D01*
X156502235Y-101633157D01*
X156750000Y-101682440D01*
X159250000Y-101682440D01*
X159497765Y-101633157D01*
X159707809Y-101492809D01*
X159848157Y-101282765D01*
X159897440Y-101035000D01*
X159897440Y-97035000D01*
X159848157Y-96787235D01*
X159707809Y-96577191D01*
X159497765Y-96436843D01*
X159250000Y-96387560D01*
X158760000Y-96387560D01*
X158760000Y-88872440D01*
X160065300Y-88872440D01*
X160065300Y-102684598D01*
X159712599Y-103037299D01*
X159547852Y-103283861D01*
X159543055Y-103307977D01*
X159342191Y-103442191D01*
X159201843Y-103652235D01*
X159152560Y-103900000D01*
X159152560Y-104800000D01*
X159201843Y-105047765D01*
X159342191Y-105257809D01*
X159547982Y-105395316D01*
X159375298Y-105568000D01*
X148611606Y-105568000D01*
X149089803Y-105089803D01*
X149117333Y-105048601D01*
X149127000Y-105000000D01*
X149127000Y-104635750D01*
X154665000Y-104635750D01*
X154665000Y-104926310D01*
X154761673Y-105159699D01*
X154940302Y-105338327D01*
X155173691Y-105435000D01*
X155464250Y-105435000D01*
X155623000Y-105276250D01*
X155623000Y-104477000D01*
X155877000Y-104477000D01*
X155877000Y-105276250D01*
X156035750Y-105435000D01*
X156326309Y-105435000D01*
X156559698Y-105338327D01*
X156738327Y-105159699D01*
X156835000Y-104926310D01*
X156835000Y-104635750D01*
X156676250Y-104477000D01*
X155877000Y-104477000D01*
X155623000Y-104477000D01*
X154823750Y-104477000D01*
X154665000Y-104635750D01*
X149127000Y-104635750D01*
X149127000Y-103773690D01*
X154665000Y-103773690D01*
X154665000Y-104064250D01*
X154823750Y-104223000D01*
X155623000Y-104223000D01*
X155623000Y-103423750D01*
X155877000Y-103423750D01*
X155877000Y-104223000D01*
X156676250Y-104223000D01*
X156835000Y-104064250D01*
X156835000Y-103773690D01*
X156738327Y-103540301D01*
X156559698Y-103361673D01*
X156326309Y-103265000D01*
X156035750Y-103265000D01*
X155877000Y-103423750D01*
X155623000Y-103423750D01*
X155464250Y-103265000D01*
X155173691Y-103265000D01*
X154940302Y-103361673D01*
X154761673Y-103540301D01*
X154665000Y-103773690D01*
X149127000Y-103773690D01*
X149127000Y-88000000D01*
X149117333Y-87951399D01*
X149089803Y-87910197D01*
X148089803Y-86910197D01*
X148048601Y-86882667D01*
X148000000Y-86873000D01*
X140000000Y-86873000D01*
X139951399Y-86882667D01*
X139910197Y-86910197D01*
X139509771Y-87310623D01*
X139498157Y-87252235D01*
X139357809Y-87042191D01*
X139147765Y-86901843D01*
X138900000Y-86852560D01*
X137700000Y-86852560D01*
X137452235Y-86901843D01*
X137300000Y-87003564D01*
X137147765Y-86901843D01*
X137060000Y-86884386D01*
X137060000Y-77466602D01*
X140147801Y-74378801D01*
X140312548Y-74132239D01*
X140370400Y-73841400D01*
X140370400Y-71322300D01*
X140312548Y-71031461D01*
X140147801Y-70784899D01*
X139198202Y-69835300D01*
X142860798Y-69835300D01*
X156603058Y-83577560D01*
G36*
X124427000Y-104373000D02*
X124447000Y-104373000D01*
X124447000Y-104627000D01*
X124427000Y-104627000D01*
X124427000Y-104647000D01*
X124173000Y-104647000D01*
X124173000Y-104627000D01*
X124153000Y-104627000D01*
X124153000Y-104373000D01*
X124173000Y-104373000D01*
X124173000Y-104353000D01*
X124427000Y-104353000D01*
X124427000Y-104373000D01*
X124427000Y-104373000D01*
G37*
X124427000Y-104373000D02*
X124447000Y-104373000D01*
X124447000Y-104627000D01*
X124427000Y-104627000D01*
X124427000Y-104647000D01*
X124173000Y-104647000D01*
X124173000Y-104627000D01*
X124153000Y-104627000D01*
X124153000Y-104373000D01*
X124173000Y-104373000D01*
X124173000Y-104353000D01*
X124427000Y-104353000D01*
X124427000Y-104373000D01*
G36*
X134165905Y-73219206D02*
X134053035Y-73533223D01*
X134080222Y-74103454D01*
X134246136Y-74504005D01*
X134492255Y-74578139D01*
X135320395Y-73750000D01*
X135306253Y-73735858D01*
X135485858Y-73556253D01*
X135500000Y-73570395D01*
X135514143Y-73556253D01*
X135693748Y-73735858D01*
X135679605Y-73750000D01*
X136113571Y-74183966D01*
X136246136Y-74504005D01*
X136492255Y-74578139D01*
X136500000Y-74570394D01*
X136507745Y-74578139D01*
X136753864Y-74504005D01*
X136859062Y-74211332D01*
X137320395Y-73750000D01*
X137306253Y-73735858D01*
X137485858Y-73556252D01*
X137500000Y-73570395D01*
X137514142Y-73556252D01*
X137693748Y-73735858D01*
X137679605Y-73750000D01*
X137693748Y-73764142D01*
X137514142Y-73943748D01*
X137500000Y-73929605D01*
X136671861Y-74757745D01*
X136745995Y-75003864D01*
X137207317Y-75169681D01*
X135762599Y-76614399D01*
X135597852Y-76860961D01*
X135540000Y-77151800D01*
X135540000Y-85939898D01*
X132312701Y-82712599D01*
X132066139Y-82547852D01*
X131852759Y-82505408D01*
X131844666Y-82500000D01*
X131907809Y-82457809D01*
X132048157Y-82247765D01*
X132097440Y-82000000D01*
X132097440Y-81500000D01*
X132048157Y-81252235D01*
X131907809Y-81042191D01*
X131760000Y-80943427D01*
X131760000Y-75564802D01*
X132567057Y-74757745D01*
X134671861Y-74757745D01*
X134745995Y-75003864D01*
X135283223Y-75196965D01*
X135853454Y-75169778D01*
X136254005Y-75003864D01*
X136328139Y-74757745D01*
X135500000Y-73929605D01*
X134671861Y-74757745D01*
X132567057Y-74757745D01*
X134123291Y-73201511D01*
X134165905Y-73219206D01*
X134165905Y-73219206D01*
G37*
X134165905Y-73219206D02*
X134053035Y-73533223D01*
X134080222Y-74103454D01*
X134246136Y-74504005D01*
X134492255Y-74578139D01*
X135320395Y-73750000D01*
X135306253Y-73735858D01*
X135485858Y-73556253D01*
X135500000Y-73570395D01*
X135514143Y-73556253D01*
X135693748Y-73735858D01*
X135679605Y-73750000D01*
X136113571Y-74183966D01*
X136246136Y-74504005D01*
X136492255Y-74578139D01*
X136500000Y-74570394D01*
X136507745Y-74578139D01*
X136753864Y-74504005D01*
X136859062Y-74211332D01*
X137320395Y-73750000D01*
X137306253Y-73735858D01*
X137485858Y-73556252D01*
X137500000Y-73570395D01*
X137514142Y-73556252D01*
X137693748Y-73735858D01*
X137679605Y-73750000D01*
X137693748Y-73764142D01*
X137514142Y-73943748D01*
X137500000Y-73929605D01*
X136671861Y-74757745D01*
X136745995Y-75003864D01*
X137207317Y-75169681D01*
X135762599Y-76614399D01*
X135597852Y-76860961D01*
X135540000Y-77151800D01*
X135540000Y-85939898D01*
X132312701Y-82712599D01*
X132066139Y-82547852D01*
X131852759Y-82505408D01*
X131844666Y-82500000D01*
X131907809Y-82457809D01*
X132048157Y-82247765D01*
X132097440Y-82000000D01*
X132097440Y-81500000D01*
X132048157Y-81252235D01*
X131907809Y-81042191D01*
X131760000Y-80943427D01*
X131760000Y-75564802D01*
X132567057Y-74757745D01*
X134671861Y-74757745D01*
X134745995Y-75003864D01*
X135283223Y-75196965D01*
X135853454Y-75169778D01*
X136254005Y-75003864D01*
X136328139Y-74757745D01*
X135500000Y-73929605D01*
X134671861Y-74757745D01*
X132567057Y-74757745D01*
X134123291Y-73201511D01*
X134165905Y-73219206D01*
G36*
X156151843Y-48717235D02*
X156102560Y-48965000D01*
X156102560Y-52965000D01*
X156151843Y-53212765D01*
X156292191Y-53422809D01*
X156502235Y-53563157D01*
X156750000Y-53612440D01*
X157240000Y-53612440D01*
X157240000Y-61127560D01*
X155500000Y-61127560D01*
X155252235Y-61176843D01*
X155042191Y-61317191D01*
X154901843Y-61527235D01*
X154852560Y-61775000D01*
X154852560Y-65775000D01*
X154901843Y-66022765D01*
X155042191Y-66232809D01*
X155252235Y-66373157D01*
X155500000Y-66422440D01*
X160065300Y-66422440D01*
X160065300Y-83577560D01*
X158681233Y-83577560D01*
X158537401Y-83362299D01*
X143713001Y-68537899D01*
X143466439Y-68373152D01*
X143175600Y-68315300D01*
X137960000Y-68315300D01*
X137960000Y-62960000D01*
X138000000Y-62960000D01*
X138271705Y-62905954D01*
X138502046Y-62752046D01*
X138655954Y-62521705D01*
X138710000Y-62250000D01*
X138710000Y-61918228D01*
X138771705Y-61905954D01*
X139002046Y-61752046D01*
X139155954Y-61521705D01*
X139210000Y-61250000D01*
X139210000Y-56638238D01*
X139347368Y-56631362D01*
X139731143Y-56472397D01*
X139800608Y-56230213D01*
X139000000Y-55429605D01*
X138985858Y-55443748D01*
X138806253Y-55264143D01*
X138820395Y-55250000D01*
X139179605Y-55250000D01*
X139980213Y-56050608D01*
X140222397Y-55981143D01*
X140409144Y-55457698D01*
X140381362Y-54902632D01*
X140222397Y-54518857D01*
X139980213Y-54449392D01*
X139179605Y-55250000D01*
X138820395Y-55250000D01*
X138806253Y-55235858D01*
X138985858Y-55056253D01*
X139000000Y-55070395D01*
X139800608Y-54269787D01*
X139731143Y-54027603D01*
X139207698Y-53840856D01*
X138652632Y-53868638D01*
X138268857Y-54027603D01*
X138199393Y-54269785D01*
X138084382Y-54154774D01*
X138077261Y-54161895D01*
X137569161Y-53652907D01*
X136876595Y-53365328D01*
X136126695Y-53364674D01*
X135433628Y-53651043D01*
X134922312Y-54161468D01*
X134915618Y-54154774D01*
X134800607Y-54269785D01*
X134731143Y-54027603D01*
X134207698Y-53840856D01*
X133652632Y-53868638D01*
X133268857Y-54027603D01*
X133199392Y-54269787D01*
X134000000Y-55070395D01*
X134014143Y-55056253D01*
X134193748Y-55235858D01*
X134179605Y-55250000D01*
X134193748Y-55264143D01*
X134014143Y-55443748D01*
X134000000Y-55429605D01*
X133199392Y-56230213D01*
X133268857Y-56472397D01*
X133790000Y-56658323D01*
X133790000Y-61250000D01*
X133844046Y-61521705D01*
X133997954Y-61752046D01*
X134228295Y-61905954D01*
X134290000Y-61918228D01*
X134290000Y-68315300D01*
X117064802Y-68315300D01*
X115396942Y-66647440D01*
X116500000Y-66647440D01*
X116747765Y-66598157D01*
X116957809Y-66457809D01*
X117098157Y-66247765D01*
X117147440Y-66000000D01*
X117147440Y-62000000D01*
X117098157Y-61752235D01*
X116957809Y-61542191D01*
X116747765Y-61401843D01*
X116500000Y-61352560D01*
X114760000Y-61352560D01*
X114760000Y-55042302D01*
X132590856Y-55042302D01*
X132618638Y-55597368D01*
X132777603Y-55981143D01*
X133019787Y-56050608D01*
X133820395Y-55250000D01*
X133019787Y-54449392D01*
X132777603Y-54518857D01*
X132590856Y-55042302D01*
X114760000Y-55042302D01*
X114760000Y-53837440D01*
X115250000Y-53837440D01*
X115497765Y-53788157D01*
X115707809Y-53647809D01*
X115848157Y-53437765D01*
X115897440Y-53190000D01*
X115897440Y-49190000D01*
X115848157Y-48942235D01*
X115707809Y-48732191D01*
X115674598Y-48710000D01*
X156156677Y-48710000D01*
X156151843Y-48717235D01*
X156151843Y-48717235D01*
G37*
X156151843Y-48717235D02*
X156102560Y-48965000D01*
X156102560Y-52965000D01*
X156151843Y-53212765D01*
X156292191Y-53422809D01*
X156502235Y-53563157D01*
X156750000Y-53612440D01*
X157240000Y-53612440D01*
X157240000Y-61127560D01*
X155500000Y-61127560D01*
X155252235Y-61176843D01*
X155042191Y-61317191D01*
X154901843Y-61527235D01*
X154852560Y-61775000D01*
X154852560Y-65775000D01*
X154901843Y-66022765D01*
X155042191Y-66232809D01*
X155252235Y-66373157D01*
X155500000Y-66422440D01*
X160065300Y-66422440D01*
X160065300Y-83577560D01*
X158681233Y-83577560D01*
X158537401Y-83362299D01*
X143713001Y-68537899D01*
X143466439Y-68373152D01*
X143175600Y-68315300D01*
X137960000Y-68315300D01*
X137960000Y-62960000D01*
X138000000Y-62960000D01*
X138271705Y-62905954D01*
X138502046Y-62752046D01*
X138655954Y-62521705D01*
X138710000Y-62250000D01*
X138710000Y-61918228D01*
X138771705Y-61905954D01*
X139002046Y-61752046D01*
X139155954Y-61521705D01*
X139210000Y-61250000D01*
X139210000Y-56638238D01*
X139347368Y-56631362D01*
X139731143Y-56472397D01*
X139800608Y-56230213D01*
X139000000Y-55429605D01*
X138985858Y-55443748D01*
X138806253Y-55264143D01*
X138820395Y-55250000D01*
X139179605Y-55250000D01*
X139980213Y-56050608D01*
X140222397Y-55981143D01*
X140409144Y-55457698D01*
X140381362Y-54902632D01*
X140222397Y-54518857D01*
X139980213Y-54449392D01*
X139179605Y-55250000D01*
X138820395Y-55250000D01*
X138806253Y-55235858D01*
X138985858Y-55056253D01*
X139000000Y-55070395D01*
X139800608Y-54269787D01*
X139731143Y-54027603D01*
X139207698Y-53840856D01*
X138652632Y-53868638D01*
X138268857Y-54027603D01*
X138199393Y-54269785D01*
X138084382Y-54154774D01*
X138077261Y-54161895D01*
X137569161Y-53652907D01*
X136876595Y-53365328D01*
X136126695Y-53364674D01*
X135433628Y-53651043D01*
X134922312Y-54161468D01*
X134915618Y-54154774D01*
X134800607Y-54269785D01*
X134731143Y-54027603D01*
X134207698Y-53840856D01*
X133652632Y-53868638D01*
X133268857Y-54027603D01*
X133199392Y-54269787D01*
X134000000Y-55070395D01*
X134014143Y-55056253D01*
X134193748Y-55235858D01*
X134179605Y-55250000D01*
X134193748Y-55264143D01*
X134014143Y-55443748D01*
X134000000Y-55429605D01*
X133199392Y-56230213D01*
X133268857Y-56472397D01*
X133790000Y-56658323D01*
X133790000Y-61250000D01*
X133844046Y-61521705D01*
X133997954Y-61752046D01*
X134228295Y-61905954D01*
X134290000Y-61918228D01*
X134290000Y-68315300D01*
X117064802Y-68315300D01*
X115396942Y-66647440D01*
X116500000Y-66647440D01*
X116747765Y-66598157D01*
X116957809Y-66457809D01*
X117098157Y-66247765D01*
X117147440Y-66000000D01*
X117147440Y-62000000D01*
X117098157Y-61752235D01*
X116957809Y-61542191D01*
X116747765Y-61401843D01*
X116500000Y-61352560D01*
X114760000Y-61352560D01*
X114760000Y-55042302D01*
X132590856Y-55042302D01*
X132618638Y-55597368D01*
X132777603Y-55981143D01*
X133019787Y-56050608D01*
X133820395Y-55250000D01*
X133019787Y-54449392D01*
X132777603Y-54518857D01*
X132590856Y-55042302D01*
X114760000Y-55042302D01*
X114760000Y-53837440D01*
X115250000Y-53837440D01*
X115497765Y-53788157D01*
X115707809Y-53647809D01*
X115848157Y-53437765D01*
X115897440Y-53190000D01*
X115897440Y-49190000D01*
X115848157Y-48942235D01*
X115707809Y-48732191D01*
X115674598Y-48710000D01*
X156156677Y-48710000D01*
X156151843Y-48717235D01*
G36*
X127762199Y-75727899D02*
X127597452Y-75974461D01*
X127539600Y-76265300D01*
X127539600Y-80730860D01*
X127501310Y-80715000D01*
X127285750Y-80715000D01*
X127127000Y-80873750D01*
X127127000Y-81623000D01*
X127147000Y-81623000D01*
X127147000Y-81877000D01*
X127127000Y-81877000D01*
X127127000Y-81897000D01*
X126873000Y-81897000D01*
X126873000Y-81877000D01*
X126148750Y-81877000D01*
X126000000Y-82025750D01*
X125851250Y-81877000D01*
X125127000Y-81877000D01*
X125127000Y-81897000D01*
X124873000Y-81897000D01*
X124873000Y-81877000D01*
X124148750Y-81877000D01*
X124000000Y-82025750D01*
X123851250Y-81877000D01*
X123127000Y-81877000D01*
X123127000Y-81897000D01*
X122873000Y-81897000D01*
X122873000Y-81877000D01*
X122148750Y-81877000D01*
X122049476Y-81976274D01*
X121296893Y-81223691D01*
X121990000Y-81223691D01*
X121990000Y-81464250D01*
X122148750Y-81623000D01*
X122873000Y-81623000D01*
X122873000Y-80873750D01*
X123127000Y-80873750D01*
X123127000Y-81623000D01*
X123851250Y-81623000D01*
X124000000Y-81474250D01*
X124148750Y-81623000D01*
X124873000Y-81623000D01*
X124873000Y-80873750D01*
X125127000Y-80873750D01*
X125127000Y-81623000D01*
X125851250Y-81623000D01*
X126000000Y-81474250D01*
X126148750Y-81623000D01*
X126873000Y-81623000D01*
X126873000Y-80873750D01*
X126714250Y-80715000D01*
X126498690Y-80715000D01*
X126265301Y-80811673D01*
X126086673Y-80990302D01*
X126000000Y-81199549D01*
X125913327Y-80990302D01*
X125734699Y-80811673D01*
X125501310Y-80715000D01*
X125285750Y-80715000D01*
X125127000Y-80873750D01*
X124873000Y-80873750D01*
X124714250Y-80715000D01*
X124498690Y-80715000D01*
X124265301Y-80811673D01*
X124086673Y-80990302D01*
X124000000Y-81199549D01*
X123913327Y-80990302D01*
X123734699Y-80811673D01*
X123501310Y-80715000D01*
X123285750Y-80715000D01*
X123127000Y-80873750D01*
X122873000Y-80873750D01*
X122714250Y-80715000D01*
X122498690Y-80715000D01*
X122265301Y-80811673D01*
X122086673Y-80990302D01*
X121990000Y-81223691D01*
X121296893Y-81223691D01*
X110905502Y-70832300D01*
X132657798Y-70832300D01*
X127762199Y-75727899D01*
X127762199Y-75727899D01*
G37*
X127762199Y-75727899D02*
X127597452Y-75974461D01*
X127539600Y-76265300D01*
X127539600Y-80730860D01*
X127501310Y-80715000D01*
X127285750Y-80715000D01*
X127127000Y-80873750D01*
X127127000Y-81623000D01*
X127147000Y-81623000D01*
X127147000Y-81877000D01*
X127127000Y-81877000D01*
X127127000Y-81897000D01*
X126873000Y-81897000D01*
X126873000Y-81877000D01*
X126148750Y-81877000D01*
X126000000Y-82025750D01*
X125851250Y-81877000D01*
X125127000Y-81877000D01*
X125127000Y-81897000D01*
X124873000Y-81897000D01*
X124873000Y-81877000D01*
X124148750Y-81877000D01*
X124000000Y-82025750D01*
X123851250Y-81877000D01*
X123127000Y-81877000D01*
X123127000Y-81897000D01*
X122873000Y-81897000D01*
X122873000Y-81877000D01*
X122148750Y-81877000D01*
X122049476Y-81976274D01*
X121296893Y-81223691D01*
X121990000Y-81223691D01*
X121990000Y-81464250D01*
X122148750Y-81623000D01*
X122873000Y-81623000D01*
X122873000Y-80873750D01*
X123127000Y-80873750D01*
X123127000Y-81623000D01*
X123851250Y-81623000D01*
X124000000Y-81474250D01*
X124148750Y-81623000D01*
X124873000Y-81623000D01*
X124873000Y-80873750D01*
X125127000Y-80873750D01*
X125127000Y-81623000D01*
X125851250Y-81623000D01*
X126000000Y-81474250D01*
X126148750Y-81623000D01*
X126873000Y-81623000D01*
X126873000Y-80873750D01*
X126714250Y-80715000D01*
X126498690Y-80715000D01*
X126265301Y-80811673D01*
X126086673Y-80990302D01*
X126000000Y-81199549D01*
X125913327Y-80990302D01*
X125734699Y-80811673D01*
X125501310Y-80715000D01*
X125285750Y-80715000D01*
X125127000Y-80873750D01*
X124873000Y-80873750D01*
X124714250Y-80715000D01*
X124498690Y-80715000D01*
X124265301Y-80811673D01*
X124086673Y-80990302D01*
X124000000Y-81199549D01*
X123913327Y-80990302D01*
X123734699Y-80811673D01*
X123501310Y-80715000D01*
X123285750Y-80715000D01*
X123127000Y-80873750D01*
X122873000Y-80873750D01*
X122714250Y-80715000D01*
X122498690Y-80715000D01*
X122265301Y-80811673D01*
X122086673Y-80990302D01*
X121990000Y-81223691D01*
X121296893Y-81223691D01*
X110905502Y-70832300D01*
X132657798Y-70832300D01*
X127762199Y-75727899D01*
G36*
X109843498Y-77251600D02*
X104940202Y-77251600D01*
X104678876Y-76990274D01*
X104881358Y-76895183D01*
X105271645Y-76466924D01*
X105441476Y-76056890D01*
X105320155Y-75827000D01*
X104127000Y-75827000D01*
X104127000Y-75847000D01*
X103873000Y-75847000D01*
X103873000Y-75827000D01*
X103853000Y-75827000D01*
X103853000Y-75573000D01*
X103873000Y-75573000D01*
X103873000Y-75553000D01*
X104127000Y-75553000D01*
X104127000Y-75573000D01*
X105320155Y-75573000D01*
X105441476Y-75343110D01*
X105378060Y-75190000D01*
X107781898Y-75190000D01*
X109843498Y-77251600D01*
X109843498Y-77251600D01*
G37*
X109843498Y-77251600D02*
X104940202Y-77251600D01*
X104678876Y-76990274D01*
X104881358Y-76895183D01*
X105271645Y-76466924D01*
X105441476Y-76056890D01*
X105320155Y-75827000D01*
X104127000Y-75827000D01*
X104127000Y-75847000D01*
X103873000Y-75847000D01*
X103873000Y-75827000D01*
X103853000Y-75827000D01*
X103853000Y-75573000D01*
X103873000Y-75573000D01*
X103873000Y-75553000D01*
X104127000Y-75553000D01*
X104127000Y-75573000D01*
X105320155Y-75573000D01*
X105441476Y-75343110D01*
X105378060Y-75190000D01*
X107781898Y-75190000D01*
X109843498Y-77251600D01*
G36*
X136693748Y-71735858D02*
X136679605Y-71750000D01*
X136693748Y-71764143D01*
X136514143Y-71943748D01*
X136500000Y-71929605D01*
X136485858Y-71943748D01*
X136306253Y-71764143D01*
X136320395Y-71750000D01*
X136306253Y-71735858D01*
X136485858Y-71556253D01*
X136500000Y-71570395D01*
X136514143Y-71556253D01*
X136693748Y-71735858D01*
X136693748Y-71735858D01*
G37*
X136693748Y-71735858D02*
X136679605Y-71750000D01*
X136693748Y-71764143D01*
X136514143Y-71943748D01*
X136500000Y-71929605D01*
X136485858Y-71943748D01*
X136306253Y-71764143D01*
X136320395Y-71750000D01*
X136306253Y-71735858D01*
X136485858Y-71556253D01*
X136500000Y-71570395D01*
X136514143Y-71556253D01*
X136693748Y-71735858D01*
G36*
X146437299Y-36887401D02*
X146683861Y-37052148D01*
X146707977Y-37056945D01*
X146842191Y-37257809D01*
X147052235Y-37398157D01*
X147300000Y-37447440D01*
X148200000Y-37447440D01*
X148447765Y-37398157D01*
X148478271Y-37377773D01*
X148763199Y-37662701D01*
X149009761Y-37827448D01*
X149300600Y-37885300D01*
X152322898Y-37885300D01*
X153761190Y-39323592D01*
X153478804Y-39379762D01*
X153406632Y-39409657D01*
X153222862Y-39485777D01*
X153194567Y-39504683D01*
X153335000Y-39364250D01*
X153335000Y-39073690D01*
X153238327Y-38840301D01*
X153059698Y-38661673D01*
X152826309Y-38565000D01*
X152535750Y-38565000D01*
X152377000Y-38723750D01*
X152377000Y-39523000D01*
X152397000Y-39523000D01*
X152397000Y-39777000D01*
X152377000Y-39777000D01*
X152377000Y-40492690D01*
X152303642Y-40861486D01*
X152303642Y-40861487D01*
X152255074Y-41105655D01*
X152195225Y-41195226D01*
X152105655Y-41255074D01*
X151930070Y-41290000D01*
X140381473Y-41290000D01*
X140808668Y-41004558D01*
X141004558Y-40808668D01*
X141438103Y-40159822D01*
X141504303Y-40000000D01*
X141544117Y-39903881D01*
X141696357Y-39138515D01*
X141696357Y-38861485D01*
X141544117Y-38096119D01*
X141491110Y-37968149D01*
X141438103Y-37840178D01*
X141004558Y-37191332D01*
X140923226Y-37110000D01*
X143359898Y-37110000D01*
X146437299Y-40187401D01*
X146683861Y-40352148D01*
X146707977Y-40356945D01*
X146842191Y-40557809D01*
X147052235Y-40698157D01*
X147300000Y-40747440D01*
X148200000Y-40747440D01*
X148447765Y-40698157D01*
X148657809Y-40557809D01*
X148798157Y-40347765D01*
X148847440Y-40100000D01*
X148847440Y-39935750D01*
X151165000Y-39935750D01*
X151165000Y-40226310D01*
X151261673Y-40459699D01*
X151440302Y-40638327D01*
X151673691Y-40735000D01*
X151964250Y-40735000D01*
X152123000Y-40576250D01*
X152123000Y-39777000D01*
X151323750Y-39777000D01*
X151165000Y-39935750D01*
X148847440Y-39935750D01*
X148847440Y-39200000D01*
X148822316Y-39073690D01*
X151165000Y-39073690D01*
X151165000Y-39364250D01*
X151323750Y-39523000D01*
X152123000Y-39523000D01*
X152123000Y-38723750D01*
X151964250Y-38565000D01*
X151673691Y-38565000D01*
X151440302Y-38661673D01*
X151261673Y-38840301D01*
X151165000Y-39073690D01*
X148822316Y-39073690D01*
X148798157Y-38952235D01*
X148657809Y-38742191D01*
X148447765Y-38601843D01*
X148200000Y-38552560D01*
X147300000Y-38552560D01*
X147052235Y-38601843D01*
X147021729Y-38622227D01*
X144734202Y-36334700D01*
X145884598Y-36334700D01*
X146437299Y-36887401D01*
X146437299Y-36887401D01*
G37*
X146437299Y-36887401D02*
X146683861Y-37052148D01*
X146707977Y-37056945D01*
X146842191Y-37257809D01*
X147052235Y-37398157D01*
X147300000Y-37447440D01*
X148200000Y-37447440D01*
X148447765Y-37398157D01*
X148478271Y-37377773D01*
X148763199Y-37662701D01*
X149009761Y-37827448D01*
X149300600Y-37885300D01*
X152322898Y-37885300D01*
X153761190Y-39323592D01*
X153478804Y-39379762D01*
X153406632Y-39409657D01*
X153222862Y-39485777D01*
X153194567Y-39504683D01*
X153335000Y-39364250D01*
X153335000Y-39073690D01*
X153238327Y-38840301D01*
X153059698Y-38661673D01*
X152826309Y-38565000D01*
X152535750Y-38565000D01*
X152377000Y-38723750D01*
X152377000Y-39523000D01*
X152397000Y-39523000D01*
X152397000Y-39777000D01*
X152377000Y-39777000D01*
X152377000Y-40492690D01*
X152303642Y-40861486D01*
X152303642Y-40861487D01*
X152255074Y-41105655D01*
X152195225Y-41195226D01*
X152105655Y-41255074D01*
X151930070Y-41290000D01*
X140381473Y-41290000D01*
X140808668Y-41004558D01*
X141004558Y-40808668D01*
X141438103Y-40159822D01*
X141504303Y-40000000D01*
X141544117Y-39903881D01*
X141696357Y-39138515D01*
X141696357Y-38861485D01*
X141544117Y-38096119D01*
X141491110Y-37968149D01*
X141438103Y-37840178D01*
X141004558Y-37191332D01*
X140923226Y-37110000D01*
X143359898Y-37110000D01*
X146437299Y-40187401D01*
X146683861Y-40352148D01*
X146707977Y-40356945D01*
X146842191Y-40557809D01*
X147052235Y-40698157D01*
X147300000Y-40747440D01*
X148200000Y-40747440D01*
X148447765Y-40698157D01*
X148657809Y-40557809D01*
X148798157Y-40347765D01*
X148847440Y-40100000D01*
X148847440Y-39935750D01*
X151165000Y-39935750D01*
X151165000Y-40226310D01*
X151261673Y-40459699D01*
X151440302Y-40638327D01*
X151673691Y-40735000D01*
X151964250Y-40735000D01*
X152123000Y-40576250D01*
X152123000Y-39777000D01*
X151323750Y-39777000D01*
X151165000Y-39935750D01*
X148847440Y-39935750D01*
X148847440Y-39200000D01*
X148822316Y-39073690D01*
X151165000Y-39073690D01*
X151165000Y-39364250D01*
X151323750Y-39523000D01*
X152123000Y-39523000D01*
X152123000Y-38723750D01*
X151964250Y-38565000D01*
X151673691Y-38565000D01*
X151440302Y-38661673D01*
X151261673Y-38840301D01*
X151165000Y-39073690D01*
X148822316Y-39073690D01*
X148798157Y-38952235D01*
X148657809Y-38742191D01*
X148447765Y-38601843D01*
X148200000Y-38552560D01*
X147300000Y-38552560D01*
X147052235Y-38601843D01*
X147021729Y-38622227D01*
X144734202Y-36334700D01*
X145884598Y-36334700D01*
X146437299Y-36887401D01*
G36*
X123152560Y-36800000D02*
X123201843Y-37047765D01*
X123342191Y-37257809D01*
X123552235Y-37398157D01*
X123800000Y-37447440D01*
X124700000Y-37447440D01*
X124947765Y-37398157D01*
X125157809Y-37257809D01*
X125256573Y-37110000D01*
X131076774Y-37110000D01*
X130995442Y-37191332D01*
X130561897Y-37840179D01*
X130528437Y-37920959D01*
X130455883Y-38096119D01*
X130303642Y-38861486D01*
X130303643Y-39000000D01*
X130303642Y-39138514D01*
X130455883Y-39903881D01*
X130495697Y-40000000D01*
X130561897Y-40159821D01*
X130995442Y-40808668D01*
X131191332Y-41004558D01*
X131618526Y-41290000D01*
X120069930Y-41290000D01*
X119894345Y-41255074D01*
X119804774Y-41195225D01*
X119744926Y-41105655D01*
X119696358Y-40861487D01*
X119696358Y-40861486D01*
X119673673Y-40747440D01*
X120200000Y-40747440D01*
X120447765Y-40698157D01*
X120657809Y-40557809D01*
X120798157Y-40347765D01*
X120847440Y-40100000D01*
X120847440Y-39935750D01*
X123165000Y-39935750D01*
X123165000Y-40226310D01*
X123261673Y-40459699D01*
X123440302Y-40638327D01*
X123673691Y-40735000D01*
X123964250Y-40735000D01*
X124123000Y-40576250D01*
X124123000Y-39777000D01*
X124377000Y-39777000D01*
X124377000Y-40576250D01*
X124535750Y-40735000D01*
X124826309Y-40735000D01*
X125059698Y-40638327D01*
X125238327Y-40459699D01*
X125335000Y-40226310D01*
X125335000Y-39935750D01*
X125176250Y-39777000D01*
X124377000Y-39777000D01*
X124123000Y-39777000D01*
X123323750Y-39777000D01*
X123165000Y-39935750D01*
X120847440Y-39935750D01*
X120847440Y-39200000D01*
X120822316Y-39073690D01*
X123165000Y-39073690D01*
X123165000Y-39364250D01*
X123323750Y-39523000D01*
X124123000Y-39523000D01*
X124123000Y-38723750D01*
X124377000Y-38723750D01*
X124377000Y-39523000D01*
X125176250Y-39523000D01*
X125335000Y-39364250D01*
X125335000Y-39073690D01*
X125238327Y-38840301D01*
X125059698Y-38661673D01*
X124826309Y-38565000D01*
X124535750Y-38565000D01*
X124377000Y-38723750D01*
X124123000Y-38723750D01*
X123964250Y-38565000D01*
X123673691Y-38565000D01*
X123440302Y-38661673D01*
X123261673Y-38840301D01*
X123165000Y-39073690D01*
X120822316Y-39073690D01*
X120798157Y-38952235D01*
X120657809Y-38742191D01*
X120447765Y-38601843D01*
X120200000Y-38552560D01*
X119300000Y-38552560D01*
X119052235Y-38601843D01*
X118842191Y-38742191D01*
X118701843Y-38952235D01*
X118652560Y-39200000D01*
X118652560Y-39434175D01*
X118593368Y-39409657D01*
X118521196Y-39379762D01*
X118238810Y-39323592D01*
X119677102Y-37885300D01*
X119750000Y-37885300D01*
X120040839Y-37827448D01*
X120287401Y-37662701D01*
X120452148Y-37416139D01*
X120456945Y-37392023D01*
X120657809Y-37257809D01*
X120792023Y-37056945D01*
X120816139Y-37052148D01*
X121062701Y-36887401D01*
X121615402Y-36334700D01*
X123152560Y-36334700D01*
X123152560Y-36800000D01*
X123152560Y-36800000D01*
G37*
X123152560Y-36800000D02*
X123201843Y-37047765D01*
X123342191Y-37257809D01*
X123552235Y-37398157D01*
X123800000Y-37447440D01*
X124700000Y-37447440D01*
X124947765Y-37398157D01*
X125157809Y-37257809D01*
X125256573Y-37110000D01*
X131076774Y-37110000D01*
X130995442Y-37191332D01*
X130561897Y-37840179D01*
X130528437Y-37920959D01*
X130455883Y-38096119D01*
X130303642Y-38861486D01*
X130303643Y-39000000D01*
X130303642Y-39138514D01*
X130455883Y-39903881D01*
X130495697Y-40000000D01*
X130561897Y-40159821D01*
X130995442Y-40808668D01*
X131191332Y-41004558D01*
X131618526Y-41290000D01*
X120069930Y-41290000D01*
X119894345Y-41255074D01*
X119804774Y-41195225D01*
X119744926Y-41105655D01*
X119696358Y-40861487D01*
X119696358Y-40861486D01*
X119673673Y-40747440D01*
X120200000Y-40747440D01*
X120447765Y-40698157D01*
X120657809Y-40557809D01*
X120798157Y-40347765D01*
X120847440Y-40100000D01*
X120847440Y-39935750D01*
X123165000Y-39935750D01*
X123165000Y-40226310D01*
X123261673Y-40459699D01*
X123440302Y-40638327D01*
X123673691Y-40735000D01*
X123964250Y-40735000D01*
X124123000Y-40576250D01*
X124123000Y-39777000D01*
X124377000Y-39777000D01*
X124377000Y-40576250D01*
X124535750Y-40735000D01*
X124826309Y-40735000D01*
X125059698Y-40638327D01*
X125238327Y-40459699D01*
X125335000Y-40226310D01*
X125335000Y-39935750D01*
X125176250Y-39777000D01*
X124377000Y-39777000D01*
X124123000Y-39777000D01*
X123323750Y-39777000D01*
X123165000Y-39935750D01*
X120847440Y-39935750D01*
X120847440Y-39200000D01*
X120822316Y-39073690D01*
X123165000Y-39073690D01*
X123165000Y-39364250D01*
X123323750Y-39523000D01*
X124123000Y-39523000D01*
X124123000Y-38723750D01*
X124377000Y-38723750D01*
X124377000Y-39523000D01*
X125176250Y-39523000D01*
X125335000Y-39364250D01*
X125335000Y-39073690D01*
X125238327Y-38840301D01*
X125059698Y-38661673D01*
X124826309Y-38565000D01*
X124535750Y-38565000D01*
X124377000Y-38723750D01*
X124123000Y-38723750D01*
X123964250Y-38565000D01*
X123673691Y-38565000D01*
X123440302Y-38661673D01*
X123261673Y-38840301D01*
X123165000Y-39073690D01*
X120822316Y-39073690D01*
X120798157Y-38952235D01*
X120657809Y-38742191D01*
X120447765Y-38601843D01*
X120200000Y-38552560D01*
X119300000Y-38552560D01*
X119052235Y-38601843D01*
X118842191Y-38742191D01*
X118701843Y-38952235D01*
X118652560Y-39200000D01*
X118652560Y-39434175D01*
X118593368Y-39409657D01*
X118521196Y-39379762D01*
X118238810Y-39323592D01*
X119677102Y-37885300D01*
X119750000Y-37885300D01*
X120040839Y-37827448D01*
X120287401Y-37662701D01*
X120452148Y-37416139D01*
X120456945Y-37392023D01*
X120657809Y-37257809D01*
X120792023Y-37056945D01*
X120816139Y-37052148D01*
X121062701Y-36887401D01*
X121615402Y-36334700D01*
X123152560Y-36334700D01*
X123152560Y-36800000D01*
M02*
