G04 #@! TF.FileFunction,Legend,Top*
%FSLAX46Y46*%
G04 Gerber Fmt 4.6, Leading zero omitted, Abs format (unit mm)*
G04 Created by KiCad (PCBNEW 4.0.6-e0-6349~53~ubuntu16.04.1) date Thu Jul 20 22:14:41 2017*
%MOMM*%
%LPD*%
G01*
G04 APERTURE LIST*
%ADD10C,0.100000*%
%ADD11C,0.120000*%
%ADD12C,0.150000*%
G04 APERTURE END LIST*
D10*
D11*
X147320000Y-112500000D02*
X147320000Y-111500000D01*
X148680000Y-111500000D02*
X148680000Y-112500000D01*
X147180000Y-111500000D02*
X147180000Y-112500000D01*
X145820000Y-112500000D02*
X145820000Y-111500000D01*
X145680000Y-111500000D02*
X145680000Y-112500000D01*
X144320000Y-112500000D02*
X144320000Y-111500000D01*
D12*
X151000000Y-101000000D02*
X151000000Y-49000000D01*
X165000000Y-101000000D02*
X151000000Y-101000000D01*
X165000000Y-49000000D02*
X165000000Y-101000000D01*
X151000000Y-49000000D02*
X165000000Y-49000000D01*
X157500000Y-115000000D02*
G75*
G03X157500000Y-115000000I-2000000J0D01*
G01*
X152500000Y-118000000D02*
X152500000Y-112000000D01*
X152500000Y-112000000D02*
X158500000Y-112000000D01*
X158500000Y-112000000D02*
X158500000Y-118000000D01*
X158500000Y-118000000D02*
X152500000Y-118000000D01*
X153750000Y-129500000D02*
G75*
G03X153750000Y-129500000I-2000000J0D01*
G01*
X148750000Y-132500000D02*
X148750000Y-126500000D01*
X148750000Y-126500000D02*
X154750000Y-126500000D01*
X154750000Y-126500000D02*
X154750000Y-132500000D01*
X154750000Y-132500000D02*
X148750000Y-132500000D01*
X147000000Y-149000000D02*
G75*
G03X147000000Y-149000000I-2000000J0D01*
G01*
X142000000Y-152000000D02*
X142000000Y-146000000D01*
X142000000Y-146000000D02*
X148000000Y-146000000D01*
X148000000Y-146000000D02*
X148000000Y-152000000D01*
X148000000Y-152000000D02*
X142000000Y-152000000D01*
X129000000Y-149000000D02*
G75*
G03X129000000Y-149000000I-2000000J0D01*
G01*
X124000000Y-152000000D02*
X124000000Y-146000000D01*
X124000000Y-146000000D02*
X130000000Y-146000000D01*
X130000000Y-146000000D02*
X130000000Y-152000000D01*
X130000000Y-152000000D02*
X124000000Y-152000000D01*
X136000000Y-123000000D02*
G75*
G03X136000000Y-123000000I-2000000J0D01*
G01*
X131000000Y-126000000D02*
X131000000Y-120000000D01*
X131000000Y-120000000D02*
X137000000Y-120000000D01*
X137000000Y-120000000D02*
X137000000Y-126000000D01*
X137000000Y-126000000D02*
X131000000Y-126000000D01*
X126000000Y-132000000D02*
G75*
G03X126000000Y-132000000I-2000000J0D01*
G01*
X121000000Y-135000000D02*
X121000000Y-129000000D01*
X121000000Y-129000000D02*
X127000000Y-129000000D01*
X127000000Y-129000000D02*
X127000000Y-135000000D01*
X127000000Y-135000000D02*
X121000000Y-135000000D01*
X126000000Y-114000000D02*
G75*
G03X126000000Y-114000000I-2000000J0D01*
G01*
X121000000Y-117000000D02*
X121000000Y-111000000D01*
X121000000Y-111000000D02*
X127000000Y-111000000D01*
X127000000Y-111000000D02*
X127000000Y-117000000D01*
X127000000Y-117000000D02*
X121000000Y-117000000D01*
X116000000Y-123000000D02*
G75*
G03X116000000Y-123000000I-2000000J0D01*
G01*
X111000000Y-126000000D02*
X111000000Y-120000000D01*
X111000000Y-120000000D02*
X117000000Y-120000000D01*
X117000000Y-120000000D02*
X117000000Y-126000000D01*
X117000000Y-126000000D02*
X111000000Y-126000000D01*
X107000000Y-49225000D02*
X121000000Y-49225000D01*
X121000000Y-49225000D02*
X121000000Y-101225000D01*
X121000000Y-101225000D02*
X107000000Y-101225000D01*
X107000000Y-101225000D02*
X107000000Y-49225000D01*
D11*
X122400000Y-82850000D02*
X122400000Y-82150000D01*
X123600000Y-82150000D02*
X123600000Y-82850000D01*
X129600000Y-82150000D02*
X129600000Y-82850000D01*
X128400000Y-82850000D02*
X128400000Y-82150000D01*
X124400000Y-82850000D02*
X124400000Y-82150000D01*
X125600000Y-82150000D02*
X125600000Y-82850000D01*
X127600000Y-82150000D02*
X127600000Y-82850000D01*
X126400000Y-82850000D02*
X126400000Y-82150000D01*
X129150000Y-113750000D02*
X130850000Y-113750000D01*
X130850000Y-113750000D02*
X130850000Y-111200000D01*
X129150000Y-113750000D02*
X129150000Y-111200000D01*
X131150000Y-113750000D02*
X132850000Y-113750000D01*
X132850000Y-113750000D02*
X132850000Y-111200000D01*
X131150000Y-113750000D02*
X131150000Y-111200000D01*
X134850000Y-110750000D02*
X134850000Y-113300000D01*
X133150000Y-110750000D02*
X133150000Y-113300000D01*
X134850000Y-110750000D02*
X133150000Y-110750000D01*
D12*
X115750000Y-108000000D02*
X112250000Y-108000000D01*
X112250000Y-108000000D02*
X112250000Y-104000000D01*
X112250000Y-104000000D02*
X115750000Y-104000000D01*
X115750000Y-104000000D02*
X115750000Y-108000000D01*
X159750000Y-104000000D02*
X159750000Y-108000000D01*
X156250000Y-104000000D02*
X159750000Y-104000000D01*
X156250000Y-108000000D02*
X156250000Y-104000000D01*
X159750000Y-108000000D02*
X156250000Y-108000000D01*
X148250000Y-36000000D02*
X151750000Y-36000000D01*
X151750000Y-36000000D02*
X151750000Y-40000000D01*
X151750000Y-40000000D02*
X148250000Y-40000000D01*
X148250000Y-40000000D02*
X148250000Y-36000000D01*
X120250000Y-40000000D02*
X120250000Y-36000000D01*
X123750000Y-40000000D02*
X120250000Y-40000000D01*
X123750000Y-36000000D02*
X123750000Y-40000000D01*
X120250000Y-36000000D02*
X123750000Y-36000000D01*
D11*
X136850000Y-110750000D02*
X136850000Y-113300000D01*
X135150000Y-110750000D02*
X135150000Y-113300000D01*
X136850000Y-110750000D02*
X135150000Y-110750000D01*
X138850000Y-110750000D02*
X137150000Y-110750000D01*
X137150000Y-110750000D02*
X137150000Y-113300000D01*
X138850000Y-110750000D02*
X138850000Y-113300000D01*
X139150000Y-113750000D02*
X139150000Y-111200000D01*
X140850000Y-113750000D02*
X140850000Y-111200000D01*
X139150000Y-113750000D02*
X140850000Y-113750000D01*
X102670000Y-61670000D02*
X104000000Y-61670000D01*
X102670000Y-63000000D02*
X102670000Y-61670000D01*
X102670000Y-64270000D02*
X105330000Y-64270000D01*
X105330000Y-64270000D02*
X105330000Y-77030000D01*
X102670000Y-64270000D02*
X102670000Y-77030000D01*
X102670000Y-77030000D02*
X105330000Y-77030000D01*
X166670000Y-61670000D02*
X168000000Y-61670000D01*
X166670000Y-63000000D02*
X166670000Y-61670000D01*
X166670000Y-64270000D02*
X169330000Y-64270000D01*
X169330000Y-64270000D02*
X169330000Y-74490000D01*
X166670000Y-64270000D02*
X166670000Y-74490000D01*
X166670000Y-74490000D02*
X169330000Y-74490000D01*
X131680000Y-82000000D02*
X131680000Y-83000000D01*
X130320000Y-83000000D02*
X130320000Y-82000000D01*
X144180000Y-111500000D02*
X144180000Y-112500000D01*
X142820000Y-112500000D02*
X142820000Y-111500000D01*
X141320000Y-112500000D02*
X141320000Y-111500000D01*
X142680000Y-111500000D02*
X142680000Y-112500000D01*
D12*
X146500000Y-104500000D02*
X146500000Y-88500000D01*
X122500000Y-104500000D02*
X146500000Y-104500000D01*
X122500000Y-88500000D02*
X122500000Y-104500000D01*
X146500000Y-88500000D02*
X122500000Y-88500000D01*
X139500000Y-88500000D02*
X139500000Y-104500000D01*
X139500000Y-90500000D02*
X145500000Y-90500000D01*
X141500000Y-99500000D02*
X145500000Y-99500000D01*
X141500000Y-98000000D02*
X141500000Y-99500000D01*
X145500000Y-98000000D02*
X141500000Y-98000000D01*
X145500000Y-96500000D02*
X145500000Y-98000000D01*
X141500000Y-96500000D02*
X145500000Y-96500000D01*
X141500000Y-95000000D02*
X141500000Y-96500000D01*
X145500000Y-95000000D02*
X141500000Y-95000000D01*
X145500000Y-93500000D02*
X145500000Y-95000000D01*
X141500000Y-93500000D02*
X145500000Y-93500000D01*
X141500000Y-92000000D02*
X141500000Y-93500000D01*
X145500000Y-92000000D02*
X141500000Y-92000000D01*
X145500000Y-90500000D02*
X145500000Y-92000000D01*
X140500000Y-90500000D02*
X140500000Y-99500000D01*
X145500000Y-99500000D02*
X145500000Y-103000000D01*
X148452381Y-109916666D02*
X147976190Y-110250000D01*
X148452381Y-110488095D02*
X147452381Y-110488095D01*
X147452381Y-110107142D01*
X147500000Y-110011904D01*
X147547619Y-109964285D01*
X147642857Y-109916666D01*
X147785714Y-109916666D01*
X147880952Y-109964285D01*
X147928571Y-110011904D01*
X147976190Y-110107142D01*
X147976190Y-110488095D01*
X147452381Y-109059523D02*
X147452381Y-109250000D01*
X147500000Y-109345238D01*
X147547619Y-109392857D01*
X147690476Y-109488095D01*
X147880952Y-109535714D01*
X148261905Y-109535714D01*
X148357143Y-109488095D01*
X148404762Y-109440476D01*
X148452381Y-109345238D01*
X148452381Y-109154761D01*
X148404762Y-109059523D01*
X148357143Y-109011904D01*
X148261905Y-108964285D01*
X148023810Y-108964285D01*
X147928571Y-109011904D01*
X147880952Y-109059523D01*
X147833333Y-109154761D01*
X147833333Y-109345238D01*
X147880952Y-109440476D01*
X147928571Y-109488095D01*
X148023810Y-109535714D01*
X146952381Y-109916666D02*
X146476190Y-110250000D01*
X146952381Y-110488095D02*
X145952381Y-110488095D01*
X145952381Y-110107142D01*
X146000000Y-110011904D01*
X146047619Y-109964285D01*
X146142857Y-109916666D01*
X146285714Y-109916666D01*
X146380952Y-109964285D01*
X146428571Y-110011904D01*
X146476190Y-110107142D01*
X146476190Y-110488095D01*
X146285714Y-109059523D02*
X146952381Y-109059523D01*
X145904762Y-109297619D02*
X146619048Y-109535714D01*
X146619048Y-108916666D01*
X145452381Y-109916666D02*
X144976190Y-110250000D01*
X145452381Y-110488095D02*
X144452381Y-110488095D01*
X144452381Y-110107142D01*
X144500000Y-110011904D01*
X144547619Y-109964285D01*
X144642857Y-109916666D01*
X144785714Y-109916666D01*
X144880952Y-109964285D01*
X144928571Y-110011904D01*
X144976190Y-110107142D01*
X144976190Y-110488095D01*
X144452381Y-109011904D02*
X144452381Y-109488095D01*
X144928571Y-109535714D01*
X144880952Y-109488095D01*
X144833333Y-109392857D01*
X144833333Y-109154761D01*
X144880952Y-109059523D01*
X144928571Y-109011904D01*
X145023810Y-108964285D01*
X145261905Y-108964285D01*
X145357143Y-109011904D01*
X145404762Y-109059523D01*
X145452381Y-109154761D01*
X145452381Y-109392857D01*
X145404762Y-109488095D01*
X145357143Y-109535714D01*
X157214286Y-73428571D02*
X157357143Y-73476190D01*
X157404762Y-73523810D01*
X157452381Y-73619048D01*
X157452381Y-73761905D01*
X157404762Y-73857143D01*
X157357143Y-73904762D01*
X157261905Y-73952381D01*
X156880952Y-73952381D01*
X156880952Y-72952381D01*
X157214286Y-72952381D01*
X157309524Y-73000000D01*
X157357143Y-73047619D01*
X157404762Y-73142857D01*
X157404762Y-73238095D01*
X157357143Y-73333333D01*
X157309524Y-73380952D01*
X157214286Y-73428571D01*
X156880952Y-73428571D01*
X157738095Y-72952381D02*
X158309524Y-72952381D01*
X158023809Y-73952381D02*
X158023809Y-72952381D01*
X159166667Y-73952381D02*
X158595238Y-73952381D01*
X158880952Y-73952381D02*
X158880952Y-72952381D01*
X158785714Y-73095238D01*
X158690476Y-73190476D01*
X158595238Y-73238095D01*
X163619048Y-50071429D02*
X164380953Y-50071429D01*
X164000001Y-50452381D02*
X164000001Y-49690476D01*
X163119048Y-99571429D02*
X163880953Y-99571429D01*
X130166667Y-55202381D02*
X130166667Y-55916667D01*
X130119047Y-56059524D01*
X130023809Y-56154762D01*
X129880952Y-56202381D01*
X129785714Y-56202381D01*
X130595238Y-55297619D02*
X130642857Y-55250000D01*
X130738095Y-55202381D01*
X130976191Y-55202381D01*
X131071429Y-55250000D01*
X131119048Y-55297619D01*
X131166667Y-55392857D01*
X131166667Y-55488095D01*
X131119048Y-55630952D01*
X130547619Y-56202381D01*
X131166667Y-56202381D01*
X132119047Y-53202381D02*
X132452380Y-54202381D01*
X132785714Y-53202381D01*
X133547619Y-54202381D02*
X133547619Y-53678571D01*
X133500000Y-53583333D01*
X133404762Y-53535714D01*
X133214285Y-53535714D01*
X133119047Y-53583333D01*
X133547619Y-54154762D02*
X133452381Y-54202381D01*
X133214285Y-54202381D01*
X133119047Y-54154762D01*
X133071428Y-54059524D01*
X133071428Y-53964286D01*
X133119047Y-53869048D01*
X133214285Y-53821429D01*
X133452381Y-53821429D01*
X133547619Y-53773810D01*
X134166666Y-54202381D02*
X134071428Y-54154762D01*
X134023809Y-54059524D01*
X134023809Y-53202381D01*
X134452381Y-53535714D02*
X134690476Y-54202381D01*
X134928572Y-53535714D01*
X135690477Y-54154762D02*
X135595239Y-54202381D01*
X135404762Y-54202381D01*
X135309524Y-54154762D01*
X135261905Y-54059524D01*
X135261905Y-53678571D01*
X135309524Y-53583333D01*
X135404762Y-53535714D01*
X135595239Y-53535714D01*
X135690477Y-53583333D01*
X135738096Y-53678571D01*
X135738096Y-53773810D01*
X135261905Y-53869048D01*
X136928572Y-54202381D02*
X136928572Y-53202381D01*
X137261906Y-53916667D01*
X137595239Y-53202381D01*
X137595239Y-54202381D01*
X138500001Y-54202381D02*
X138500001Y-53678571D01*
X138452382Y-53583333D01*
X138357144Y-53535714D01*
X138166667Y-53535714D01*
X138071429Y-53583333D01*
X138500001Y-54154762D02*
X138404763Y-54202381D01*
X138166667Y-54202381D01*
X138071429Y-54154762D01*
X138023810Y-54059524D01*
X138023810Y-53964286D01*
X138071429Y-53869048D01*
X138166667Y-53821429D01*
X138404763Y-53821429D01*
X138500001Y-53773810D01*
X139404763Y-53535714D02*
X139404763Y-54345238D01*
X139357144Y-54440476D01*
X139309525Y-54488095D01*
X139214286Y-54535714D01*
X139071429Y-54535714D01*
X138976191Y-54488095D01*
X139404763Y-54154762D02*
X139309525Y-54202381D01*
X139119048Y-54202381D01*
X139023810Y-54154762D01*
X138976191Y-54107143D01*
X138928572Y-54011905D01*
X138928572Y-53726190D01*
X138976191Y-53630952D01*
X139023810Y-53583333D01*
X139119048Y-53535714D01*
X139309525Y-53535714D01*
X139404763Y-53583333D01*
X139880953Y-54202381D02*
X139880953Y-53535714D01*
X139880953Y-53202381D02*
X139833334Y-53250000D01*
X139880953Y-53297619D01*
X139928572Y-53250000D01*
X139880953Y-53202381D01*
X139880953Y-53297619D01*
X140785715Y-54154762D02*
X140690477Y-54202381D01*
X140500000Y-54202381D01*
X140404762Y-54154762D01*
X140357143Y-54107143D01*
X140309524Y-54011905D01*
X140309524Y-53726190D01*
X140357143Y-53630952D01*
X140404762Y-53583333D01*
X140500000Y-53535714D01*
X140690477Y-53535714D01*
X140785715Y-53583333D01*
X154738095Y-111404762D02*
X154880952Y-111452381D01*
X155119048Y-111452381D01*
X155214286Y-111404762D01*
X155261905Y-111357143D01*
X155309524Y-111261905D01*
X155309524Y-111166667D01*
X155261905Y-111071429D01*
X155214286Y-111023810D01*
X155119048Y-110976190D01*
X154928571Y-110928571D01*
X154833333Y-110880952D01*
X154785714Y-110833333D01*
X154738095Y-110738095D01*
X154738095Y-110642857D01*
X154785714Y-110547619D01*
X154833333Y-110500000D01*
X154928571Y-110452381D01*
X155166667Y-110452381D01*
X155309524Y-110500000D01*
X156214286Y-110452381D02*
X155738095Y-110452381D01*
X155690476Y-110928571D01*
X155738095Y-110880952D01*
X155833333Y-110833333D01*
X156071429Y-110833333D01*
X156166667Y-110880952D01*
X156214286Y-110928571D01*
X156261905Y-111023810D01*
X156261905Y-111261905D01*
X156214286Y-111357143D01*
X156166667Y-111404762D01*
X156071429Y-111452381D01*
X155833333Y-111452381D01*
X155738095Y-111404762D01*
X155690476Y-111357143D01*
X150988095Y-125904762D02*
X151130952Y-125952381D01*
X151369048Y-125952381D01*
X151464286Y-125904762D01*
X151511905Y-125857143D01*
X151559524Y-125761905D01*
X151559524Y-125666667D01*
X151511905Y-125571429D01*
X151464286Y-125523810D01*
X151369048Y-125476190D01*
X151178571Y-125428571D01*
X151083333Y-125380952D01*
X151035714Y-125333333D01*
X150988095Y-125238095D01*
X150988095Y-125142857D01*
X151035714Y-125047619D01*
X151083333Y-125000000D01*
X151178571Y-124952381D01*
X151416667Y-124952381D01*
X151559524Y-125000000D01*
X152416667Y-124952381D02*
X152226190Y-124952381D01*
X152130952Y-125000000D01*
X152083333Y-125047619D01*
X151988095Y-125190476D01*
X151940476Y-125380952D01*
X151940476Y-125761905D01*
X151988095Y-125857143D01*
X152035714Y-125904762D01*
X152130952Y-125952381D01*
X152321429Y-125952381D01*
X152416667Y-125904762D01*
X152464286Y-125857143D01*
X152511905Y-125761905D01*
X152511905Y-125523810D01*
X152464286Y-125428571D01*
X152416667Y-125380952D01*
X152321429Y-125333333D01*
X152130952Y-125333333D01*
X152035714Y-125380952D01*
X151988095Y-125428571D01*
X151940476Y-125523810D01*
X144238095Y-145404762D02*
X144380952Y-145452381D01*
X144619048Y-145452381D01*
X144714286Y-145404762D01*
X144761905Y-145357143D01*
X144809524Y-145261905D01*
X144809524Y-145166667D01*
X144761905Y-145071429D01*
X144714286Y-145023810D01*
X144619048Y-144976190D01*
X144428571Y-144928571D01*
X144333333Y-144880952D01*
X144285714Y-144833333D01*
X144238095Y-144738095D01*
X144238095Y-144642857D01*
X144285714Y-144547619D01*
X144333333Y-144500000D01*
X144428571Y-144452381D01*
X144666667Y-144452381D01*
X144809524Y-144500000D01*
X145142857Y-144452381D02*
X145809524Y-144452381D01*
X145380952Y-145452381D01*
X126238095Y-145404762D02*
X126380952Y-145452381D01*
X126619048Y-145452381D01*
X126714286Y-145404762D01*
X126761905Y-145357143D01*
X126809524Y-145261905D01*
X126809524Y-145166667D01*
X126761905Y-145071429D01*
X126714286Y-145023810D01*
X126619048Y-144976190D01*
X126428571Y-144928571D01*
X126333333Y-144880952D01*
X126285714Y-144833333D01*
X126238095Y-144738095D01*
X126238095Y-144642857D01*
X126285714Y-144547619D01*
X126333333Y-144500000D01*
X126428571Y-144452381D01*
X126666667Y-144452381D01*
X126809524Y-144500000D01*
X127380952Y-144880952D02*
X127285714Y-144833333D01*
X127238095Y-144785714D01*
X127190476Y-144690476D01*
X127190476Y-144642857D01*
X127238095Y-144547619D01*
X127285714Y-144500000D01*
X127380952Y-144452381D01*
X127571429Y-144452381D01*
X127666667Y-144500000D01*
X127714286Y-144547619D01*
X127761905Y-144642857D01*
X127761905Y-144690476D01*
X127714286Y-144785714D01*
X127666667Y-144833333D01*
X127571429Y-144880952D01*
X127380952Y-144880952D01*
X127285714Y-144928571D01*
X127238095Y-144976190D01*
X127190476Y-145071429D01*
X127190476Y-145261905D01*
X127238095Y-145357143D01*
X127285714Y-145404762D01*
X127380952Y-145452381D01*
X127571429Y-145452381D01*
X127666667Y-145404762D01*
X127714286Y-145357143D01*
X127761905Y-145261905D01*
X127761905Y-145071429D01*
X127714286Y-144976190D01*
X127666667Y-144928571D01*
X127571429Y-144880952D01*
X133238095Y-119404762D02*
X133380952Y-119452381D01*
X133619048Y-119452381D01*
X133714286Y-119404762D01*
X133761905Y-119357143D01*
X133809524Y-119261905D01*
X133809524Y-119166667D01*
X133761905Y-119071429D01*
X133714286Y-119023810D01*
X133619048Y-118976190D01*
X133428571Y-118928571D01*
X133333333Y-118880952D01*
X133285714Y-118833333D01*
X133238095Y-118738095D01*
X133238095Y-118642857D01*
X133285714Y-118547619D01*
X133333333Y-118500000D01*
X133428571Y-118452381D01*
X133666667Y-118452381D01*
X133809524Y-118500000D01*
X134666667Y-118785714D02*
X134666667Y-119452381D01*
X134428571Y-118404762D02*
X134190476Y-119119048D01*
X134809524Y-119119048D01*
X123238095Y-128404762D02*
X123380952Y-128452381D01*
X123619048Y-128452381D01*
X123714286Y-128404762D01*
X123761905Y-128357143D01*
X123809524Y-128261905D01*
X123809524Y-128166667D01*
X123761905Y-128071429D01*
X123714286Y-128023810D01*
X123619048Y-127976190D01*
X123428571Y-127928571D01*
X123333333Y-127880952D01*
X123285714Y-127833333D01*
X123238095Y-127738095D01*
X123238095Y-127642857D01*
X123285714Y-127547619D01*
X123333333Y-127500000D01*
X123428571Y-127452381D01*
X123666667Y-127452381D01*
X123809524Y-127500000D01*
X124190476Y-127547619D02*
X124238095Y-127500000D01*
X124333333Y-127452381D01*
X124571429Y-127452381D01*
X124666667Y-127500000D01*
X124714286Y-127547619D01*
X124761905Y-127642857D01*
X124761905Y-127738095D01*
X124714286Y-127880952D01*
X124142857Y-128452381D01*
X124761905Y-128452381D01*
X123238095Y-110404762D02*
X123380952Y-110452381D01*
X123619048Y-110452381D01*
X123714286Y-110404762D01*
X123761905Y-110357143D01*
X123809524Y-110261905D01*
X123809524Y-110166667D01*
X123761905Y-110071429D01*
X123714286Y-110023810D01*
X123619048Y-109976190D01*
X123428571Y-109928571D01*
X123333333Y-109880952D01*
X123285714Y-109833333D01*
X123238095Y-109738095D01*
X123238095Y-109642857D01*
X123285714Y-109547619D01*
X123333333Y-109500000D01*
X123428571Y-109452381D01*
X123666667Y-109452381D01*
X123809524Y-109500000D01*
X124761905Y-110452381D02*
X124190476Y-110452381D01*
X124476190Y-110452381D02*
X124476190Y-109452381D01*
X124380952Y-109595238D01*
X124285714Y-109690476D01*
X124190476Y-109738095D01*
X113238095Y-119404762D02*
X113380952Y-119452381D01*
X113619048Y-119452381D01*
X113714286Y-119404762D01*
X113761905Y-119357143D01*
X113809524Y-119261905D01*
X113809524Y-119166667D01*
X113761905Y-119071429D01*
X113714286Y-119023810D01*
X113619048Y-118976190D01*
X113428571Y-118928571D01*
X113333333Y-118880952D01*
X113285714Y-118833333D01*
X113238095Y-118738095D01*
X113238095Y-118642857D01*
X113285714Y-118547619D01*
X113333333Y-118500000D01*
X113428571Y-118452381D01*
X113666667Y-118452381D01*
X113809524Y-118500000D01*
X114142857Y-118452381D02*
X114761905Y-118452381D01*
X114428571Y-118833333D01*
X114571429Y-118833333D01*
X114666667Y-118880952D01*
X114714286Y-118928571D01*
X114761905Y-119023810D01*
X114761905Y-119261905D01*
X114714286Y-119357143D01*
X114666667Y-119404762D01*
X114571429Y-119452381D01*
X114285714Y-119452381D01*
X114190476Y-119404762D01*
X114142857Y-119357143D01*
X113214286Y-73653571D02*
X113357143Y-73701190D01*
X113404762Y-73748810D01*
X113452381Y-73844048D01*
X113452381Y-73986905D01*
X113404762Y-74082143D01*
X113357143Y-74129762D01*
X113261905Y-74177381D01*
X112880952Y-74177381D01*
X112880952Y-73177381D01*
X113214286Y-73177381D01*
X113309524Y-73225000D01*
X113357143Y-73272619D01*
X113404762Y-73367857D01*
X113404762Y-73463095D01*
X113357143Y-73558333D01*
X113309524Y-73605952D01*
X113214286Y-73653571D01*
X112880952Y-73653571D01*
X113738095Y-73177381D02*
X114309524Y-73177381D01*
X114023809Y-74177381D02*
X114023809Y-73177381D01*
X114595238Y-73272619D02*
X114642857Y-73225000D01*
X114738095Y-73177381D01*
X114976191Y-73177381D01*
X115071429Y-73225000D01*
X115119048Y-73272619D01*
X115166667Y-73367857D01*
X115166667Y-73463095D01*
X115119048Y-73605952D01*
X114547619Y-74177381D01*
X115166667Y-74177381D01*
X119119048Y-99796429D02*
X119880953Y-99796429D01*
X119619048Y-50296429D02*
X120380953Y-50296429D01*
X120000001Y-50677381D02*
X120000001Y-49915476D01*
X123357143Y-85166666D02*
X123404762Y-85214285D01*
X123452381Y-85357142D01*
X123452381Y-85452380D01*
X123404762Y-85595238D01*
X123309524Y-85690476D01*
X123214286Y-85738095D01*
X123023810Y-85785714D01*
X122880952Y-85785714D01*
X122690476Y-85738095D01*
X122595238Y-85690476D01*
X122500000Y-85595238D01*
X122452381Y-85452380D01*
X122452381Y-85357142D01*
X122500000Y-85214285D01*
X122547619Y-85166666D01*
X123452381Y-84214285D02*
X123452381Y-84785714D01*
X123452381Y-84500000D02*
X122452381Y-84500000D01*
X122595238Y-84595238D01*
X122690476Y-84690476D01*
X122738095Y-84785714D01*
X129357143Y-85166666D02*
X129404762Y-85214285D01*
X129452381Y-85357142D01*
X129452381Y-85452380D01*
X129404762Y-85595238D01*
X129309524Y-85690476D01*
X129214286Y-85738095D01*
X129023810Y-85785714D01*
X128880952Y-85785714D01*
X128690476Y-85738095D01*
X128595238Y-85690476D01*
X128500000Y-85595238D01*
X128452381Y-85452380D01*
X128452381Y-85357142D01*
X128500000Y-85214285D01*
X128547619Y-85166666D01*
X128547619Y-84785714D02*
X128500000Y-84738095D01*
X128452381Y-84642857D01*
X128452381Y-84404761D01*
X128500000Y-84309523D01*
X128547619Y-84261904D01*
X128642857Y-84214285D01*
X128738095Y-84214285D01*
X128880952Y-84261904D01*
X129452381Y-84833333D01*
X129452381Y-84214285D01*
X125357143Y-85166666D02*
X125404762Y-85214285D01*
X125452381Y-85357142D01*
X125452381Y-85452380D01*
X125404762Y-85595238D01*
X125309524Y-85690476D01*
X125214286Y-85738095D01*
X125023810Y-85785714D01*
X124880952Y-85785714D01*
X124690476Y-85738095D01*
X124595238Y-85690476D01*
X124500000Y-85595238D01*
X124452381Y-85452380D01*
X124452381Y-85357142D01*
X124500000Y-85214285D01*
X124547619Y-85166666D01*
X124452381Y-84833333D02*
X124452381Y-84214285D01*
X124833333Y-84547619D01*
X124833333Y-84404761D01*
X124880952Y-84309523D01*
X124928571Y-84261904D01*
X125023810Y-84214285D01*
X125261905Y-84214285D01*
X125357143Y-84261904D01*
X125404762Y-84309523D01*
X125452381Y-84404761D01*
X125452381Y-84690476D01*
X125404762Y-84785714D01*
X125357143Y-84833333D01*
X127357143Y-85166666D02*
X127404762Y-85214285D01*
X127452381Y-85357142D01*
X127452381Y-85452380D01*
X127404762Y-85595238D01*
X127309524Y-85690476D01*
X127214286Y-85738095D01*
X127023810Y-85785714D01*
X126880952Y-85785714D01*
X126690476Y-85738095D01*
X126595238Y-85690476D01*
X126500000Y-85595238D01*
X126452381Y-85452380D01*
X126452381Y-85357142D01*
X126500000Y-85214285D01*
X126547619Y-85166666D01*
X126785714Y-84309523D02*
X127452381Y-84309523D01*
X126404762Y-84547619D02*
X127119048Y-84785714D01*
X127119048Y-84166666D01*
X130452381Y-110488095D02*
X129452381Y-110488095D01*
X129452381Y-110250000D01*
X129500000Y-110107142D01*
X129595238Y-110011904D01*
X129690476Y-109964285D01*
X129880952Y-109916666D01*
X130023810Y-109916666D01*
X130214286Y-109964285D01*
X130309524Y-110011904D01*
X130404762Y-110107142D01*
X130452381Y-110250000D01*
X130452381Y-110488095D01*
X130452381Y-108964285D02*
X130452381Y-109535714D01*
X130452381Y-109250000D02*
X129452381Y-109250000D01*
X129595238Y-109345238D01*
X129690476Y-109440476D01*
X129738095Y-109535714D01*
X132452381Y-110238095D02*
X131452381Y-110238095D01*
X131452381Y-110000000D01*
X131500000Y-109857142D01*
X131595238Y-109761904D01*
X131690476Y-109714285D01*
X131880952Y-109666666D01*
X132023810Y-109666666D01*
X132214286Y-109714285D01*
X132309524Y-109761904D01*
X132404762Y-109857142D01*
X132452381Y-110000000D01*
X132452381Y-110238095D01*
X131547619Y-109285714D02*
X131500000Y-109238095D01*
X131452381Y-109142857D01*
X131452381Y-108904761D01*
X131500000Y-108809523D01*
X131547619Y-108761904D01*
X131642857Y-108714285D01*
X131738095Y-108714285D01*
X131880952Y-108761904D01*
X132452381Y-109333333D01*
X132452381Y-108714285D01*
X134452381Y-110238095D02*
X133452381Y-110238095D01*
X133452381Y-110000000D01*
X133500000Y-109857142D01*
X133595238Y-109761904D01*
X133690476Y-109714285D01*
X133880952Y-109666666D01*
X134023810Y-109666666D01*
X134214286Y-109714285D01*
X134309524Y-109761904D01*
X134404762Y-109857142D01*
X134452381Y-110000000D01*
X134452381Y-110238095D01*
X133452381Y-109333333D02*
X133452381Y-108714285D01*
X133833333Y-109047619D01*
X133833333Y-108904761D01*
X133880952Y-108809523D01*
X133928571Y-108761904D01*
X134023810Y-108714285D01*
X134261905Y-108714285D01*
X134357143Y-108761904D01*
X134404762Y-108809523D01*
X134452381Y-108904761D01*
X134452381Y-109190476D01*
X134404762Y-109285714D01*
X134357143Y-109333333D01*
X113261905Y-103452381D02*
X113261905Y-102452381D01*
X113500000Y-102452381D01*
X113642858Y-102500000D01*
X113738096Y-102595238D01*
X113785715Y-102690476D01*
X113833334Y-102880952D01*
X113833334Y-103023810D01*
X113785715Y-103214286D01*
X113738096Y-103309524D01*
X113642858Y-103404762D01*
X113500000Y-103452381D01*
X113261905Y-103452381D01*
X114690477Y-102785714D02*
X114690477Y-103452381D01*
X114452381Y-102404762D02*
X114214286Y-103119048D01*
X114833334Y-103119048D01*
X157261905Y-103452381D02*
X157261905Y-102452381D01*
X157500000Y-102452381D01*
X157642858Y-102500000D01*
X157738096Y-102595238D01*
X157785715Y-102690476D01*
X157833334Y-102880952D01*
X157833334Y-103023810D01*
X157785715Y-103214286D01*
X157738096Y-103309524D01*
X157642858Y-103404762D01*
X157500000Y-103452381D01*
X157261905Y-103452381D01*
X158738096Y-102452381D02*
X158261905Y-102452381D01*
X158214286Y-102928571D01*
X158261905Y-102880952D01*
X158357143Y-102833333D01*
X158595239Y-102833333D01*
X158690477Y-102880952D01*
X158738096Y-102928571D01*
X158785715Y-103023810D01*
X158785715Y-103261905D01*
X158738096Y-103357143D01*
X158690477Y-103404762D01*
X158595239Y-103452381D01*
X158357143Y-103452381D01*
X158261905Y-103404762D01*
X158214286Y-103357143D01*
X152261905Y-38452381D02*
X152261905Y-37452381D01*
X152500000Y-37452381D01*
X152642858Y-37500000D01*
X152738096Y-37595238D01*
X152785715Y-37690476D01*
X152833334Y-37880952D01*
X152833334Y-38023810D01*
X152785715Y-38214286D01*
X152738096Y-38309524D01*
X152642858Y-38404762D01*
X152500000Y-38452381D01*
X152261905Y-38452381D01*
X153690477Y-37452381D02*
X153500000Y-37452381D01*
X153404762Y-37500000D01*
X153357143Y-37547619D01*
X153261905Y-37690476D01*
X153214286Y-37880952D01*
X153214286Y-38261905D01*
X153261905Y-38357143D01*
X153309524Y-38404762D01*
X153404762Y-38452381D01*
X153595239Y-38452381D01*
X153690477Y-38404762D01*
X153738096Y-38357143D01*
X153785715Y-38261905D01*
X153785715Y-38023810D01*
X153738096Y-37928571D01*
X153690477Y-37880952D01*
X153595239Y-37833333D01*
X153404762Y-37833333D01*
X153309524Y-37880952D01*
X153261905Y-37928571D01*
X153214286Y-38023810D01*
X118261905Y-38452381D02*
X118261905Y-37452381D01*
X118500000Y-37452381D01*
X118642858Y-37500000D01*
X118738096Y-37595238D01*
X118785715Y-37690476D01*
X118833334Y-37880952D01*
X118833334Y-38023810D01*
X118785715Y-38214286D01*
X118738096Y-38309524D01*
X118642858Y-38404762D01*
X118500000Y-38452381D01*
X118261905Y-38452381D01*
X119166667Y-37452381D02*
X119833334Y-37452381D01*
X119404762Y-38452381D01*
X136452381Y-110238095D02*
X135452381Y-110238095D01*
X135452381Y-110000000D01*
X135500000Y-109857142D01*
X135595238Y-109761904D01*
X135690476Y-109714285D01*
X135880952Y-109666666D01*
X136023810Y-109666666D01*
X136214286Y-109714285D01*
X136309524Y-109761904D01*
X136404762Y-109857142D01*
X136452381Y-110000000D01*
X136452381Y-110238095D01*
X135880952Y-109095238D02*
X135833333Y-109190476D01*
X135785714Y-109238095D01*
X135690476Y-109285714D01*
X135642857Y-109285714D01*
X135547619Y-109238095D01*
X135500000Y-109190476D01*
X135452381Y-109095238D01*
X135452381Y-108904761D01*
X135500000Y-108809523D01*
X135547619Y-108761904D01*
X135642857Y-108714285D01*
X135690476Y-108714285D01*
X135785714Y-108761904D01*
X135833333Y-108809523D01*
X135880952Y-108904761D01*
X135880952Y-109095238D01*
X135928571Y-109190476D01*
X135976190Y-109238095D01*
X136071429Y-109285714D01*
X136261905Y-109285714D01*
X136357143Y-109238095D01*
X136404762Y-109190476D01*
X136452381Y-109095238D01*
X136452381Y-108904761D01*
X136404762Y-108809523D01*
X136357143Y-108761904D01*
X136261905Y-108714285D01*
X136071429Y-108714285D01*
X135976190Y-108761904D01*
X135928571Y-108809523D01*
X135880952Y-108904761D01*
X138452381Y-110238095D02*
X137452381Y-110238095D01*
X137452381Y-110000000D01*
X137500000Y-109857142D01*
X137595238Y-109761904D01*
X137690476Y-109714285D01*
X137880952Y-109666666D01*
X138023810Y-109666666D01*
X138214286Y-109714285D01*
X138309524Y-109761904D01*
X138404762Y-109857142D01*
X138452381Y-110000000D01*
X138452381Y-110238095D01*
X138452381Y-109190476D02*
X138452381Y-109000000D01*
X138404762Y-108904761D01*
X138357143Y-108857142D01*
X138214286Y-108761904D01*
X138023810Y-108714285D01*
X137642857Y-108714285D01*
X137547619Y-108761904D01*
X137500000Y-108809523D01*
X137452381Y-108904761D01*
X137452381Y-109095238D01*
X137500000Y-109190476D01*
X137547619Y-109238095D01*
X137642857Y-109285714D01*
X137880952Y-109285714D01*
X137976190Y-109238095D01*
X138023810Y-109190476D01*
X138071429Y-109095238D01*
X138071429Y-108904761D01*
X138023810Y-108809523D01*
X137976190Y-108761904D01*
X137880952Y-108714285D01*
X140452381Y-110214286D02*
X139452381Y-110214286D01*
X139452381Y-109976191D01*
X139500000Y-109833333D01*
X139595238Y-109738095D01*
X139690476Y-109690476D01*
X139880952Y-109642857D01*
X140023810Y-109642857D01*
X140214286Y-109690476D01*
X140309524Y-109738095D01*
X140404762Y-109833333D01*
X140452381Y-109976191D01*
X140452381Y-110214286D01*
X140452381Y-108690476D02*
X140452381Y-109261905D01*
X140452381Y-108976191D02*
X139452381Y-108976191D01*
X139595238Y-109071429D01*
X139690476Y-109166667D01*
X139738095Y-109261905D01*
X139452381Y-108071429D02*
X139452381Y-107976190D01*
X139500000Y-107880952D01*
X139547619Y-107833333D01*
X139642857Y-107785714D01*
X139833333Y-107738095D01*
X140071429Y-107738095D01*
X140261905Y-107785714D01*
X140357143Y-107833333D01*
X140404762Y-107880952D01*
X140452381Y-107976190D01*
X140452381Y-108071429D01*
X140404762Y-108166667D01*
X140357143Y-108214286D01*
X140261905Y-108261905D01*
X140071429Y-108309524D01*
X139833333Y-108309524D01*
X139642857Y-108261905D01*
X139547619Y-108214286D01*
X139500000Y-108166667D01*
X139452381Y-108071429D01*
X103666667Y-60122381D02*
X103666667Y-60836667D01*
X103619047Y-60979524D01*
X103523809Y-61074762D01*
X103380952Y-61122381D01*
X103285714Y-61122381D01*
X104666667Y-61122381D02*
X104095238Y-61122381D01*
X104380952Y-61122381D02*
X104380952Y-60122381D01*
X104285714Y-60265238D01*
X104190476Y-60360476D01*
X104095238Y-60408095D01*
X167666667Y-60122381D02*
X167666667Y-60836667D01*
X167619047Y-60979524D01*
X167523809Y-61074762D01*
X167380952Y-61122381D01*
X167285714Y-61122381D01*
X168047619Y-60122381D02*
X168666667Y-60122381D01*
X168333333Y-60503333D01*
X168476191Y-60503333D01*
X168571429Y-60550952D01*
X168619048Y-60598571D01*
X168666667Y-60693810D01*
X168666667Y-60931905D01*
X168619048Y-61027143D01*
X168571429Y-61074762D01*
X168476191Y-61122381D01*
X168190476Y-61122381D01*
X168095238Y-61074762D01*
X168047619Y-61027143D01*
X131452381Y-85166666D02*
X130976190Y-85500000D01*
X131452381Y-85738095D02*
X130452381Y-85738095D01*
X130452381Y-85357142D01*
X130500000Y-85261904D01*
X130547619Y-85214285D01*
X130642857Y-85166666D01*
X130785714Y-85166666D01*
X130880952Y-85214285D01*
X130928571Y-85261904D01*
X130976190Y-85357142D01*
X130976190Y-85738095D01*
X131452381Y-84214285D02*
X131452381Y-84785714D01*
X131452381Y-84500000D02*
X130452381Y-84500000D01*
X130595238Y-84595238D01*
X130690476Y-84690476D01*
X130738095Y-84785714D01*
X143952381Y-109916666D02*
X143476190Y-110250000D01*
X143952381Y-110488095D02*
X142952381Y-110488095D01*
X142952381Y-110107142D01*
X143000000Y-110011904D01*
X143047619Y-109964285D01*
X143142857Y-109916666D01*
X143285714Y-109916666D01*
X143380952Y-109964285D01*
X143428571Y-110011904D01*
X143476190Y-110107142D01*
X143476190Y-110488095D01*
X143047619Y-109535714D02*
X143000000Y-109488095D01*
X142952381Y-109392857D01*
X142952381Y-109154761D01*
X143000000Y-109059523D01*
X143047619Y-109011904D01*
X143142857Y-108964285D01*
X143238095Y-108964285D01*
X143380952Y-109011904D01*
X143952381Y-109583333D01*
X143952381Y-108964285D01*
X142452381Y-109916666D02*
X141976190Y-110250000D01*
X142452381Y-110488095D02*
X141452381Y-110488095D01*
X141452381Y-110107142D01*
X141500000Y-110011904D01*
X141547619Y-109964285D01*
X141642857Y-109916666D01*
X141785714Y-109916666D01*
X141880952Y-109964285D01*
X141928571Y-110011904D01*
X141976190Y-110107142D01*
X141976190Y-110488095D01*
X141452381Y-109583333D02*
X141452381Y-108964285D01*
X141833333Y-109297619D01*
X141833333Y-109154761D01*
X141880952Y-109059523D01*
X141928571Y-109011904D01*
X142023810Y-108964285D01*
X142261905Y-108964285D01*
X142357143Y-109011904D01*
X142404762Y-109059523D01*
X142452381Y-109154761D01*
X142452381Y-109440476D01*
X142404762Y-109535714D01*
X142357143Y-109583333D01*
X133952381Y-97261905D02*
X134761905Y-97261905D01*
X134857143Y-97214286D01*
X134904762Y-97166667D01*
X134952381Y-97071429D01*
X134952381Y-96880952D01*
X134904762Y-96785714D01*
X134857143Y-96738095D01*
X134761905Y-96690476D01*
X133952381Y-96690476D01*
X134952381Y-95690476D02*
X134952381Y-96261905D01*
X134952381Y-95976191D02*
X133952381Y-95976191D01*
X134095238Y-96071429D01*
X134190476Y-96166667D01*
X134238095Y-96261905D01*
M02*
