G04 #@! TF.GenerationSoftware,KiCad,Pcbnew,(2017-07-14 revision d3b382c28)-master*
G04 #@! TF.CreationDate,2017-07-21T02:25:01-04:00*
G04 #@! TF.ProjectId,MAGLabs-2017-Swadges,4D41474C6162732D323031372D537761,rev?*
G04 #@! TF.SameCoordinates,Original
G04 #@! TF.FileFunction,Copper,L2,Bot,Signal*
G04 #@! TF.FilePolarity,Positive*
%FSLAX46Y46*%
G04 Gerber Fmt 4.6, Leading zero omitted, Abs format (unit mm)*
G04 Created by KiCad (PCBNEW (2017-07-14 revision d3b382c28)-master) date Fri Jul 21 02:25:01 2017*
%MOMM*%
%LPD*%
G01*
G04 APERTURE LIST*
%ADD10O,1.700000X1.700000*%
%ADD11R,1.700000X1.700000*%
%ADD12C,1.700000*%
%ADD13C,1.524000*%
%ADD14C,2.500000*%
%ADD15C,1.600000*%
%ADD16C,0.800000*%
%ADD17C,0.250000*%
%ADD18C,0.254000*%
G04 APERTURE END LIST*
D10*
X104000000Y-75700000D03*
X104000000Y-73160000D03*
X104000000Y-70620000D03*
X104000000Y-68080000D03*
X104000000Y-65540000D03*
D11*
X104000000Y-63000000D03*
D12*
X134500000Y-71750000D03*
X136500000Y-71750000D03*
D13*
X138500000Y-71750000D03*
X139000000Y-55250000D03*
X134000000Y-55250000D03*
D14*
X136500000Y-55250000D03*
D15*
X135500000Y-73750000D03*
X137500000Y-73750000D03*
D10*
X168000000Y-73160000D03*
X168000000Y-70620000D03*
X168000000Y-68080000D03*
X168000000Y-65540000D03*
D11*
X168000000Y-63000000D03*
D16*
X114000000Y-51190000D03*
X114000000Y-64000000D03*
X158000000Y-99035000D03*
X158000000Y-86225000D03*
X130774440Y-35874960D03*
X162000000Y-64500000D03*
X121600000Y-108600000D03*
X117600000Y-107400000D03*
X129500000Y-37250000D03*
X123250000Y-87250000D03*
X141500000Y-79750000D03*
X144750000Y-75250000D03*
X158000000Y-63775000D03*
X158000000Y-50965000D03*
X151100000Y-72200000D03*
X151160000Y-67500000D03*
X116130000Y-57260000D03*
X113660000Y-105700000D03*
X125294398Y-92675021D03*
X120800000Y-104600000D03*
X154500000Y-108750000D03*
X154000000Y-57000000D03*
X150250000Y-38750000D03*
X127250000Y-39500000D03*
X157250000Y-104000000D03*
X107500000Y-76250000D03*
X142500000Y-76250000D03*
X125250000Y-101750000D03*
X123250000Y-105000000D03*
X126500000Y-80500000D03*
X136000000Y-151500000D03*
X114000000Y-86450000D03*
X114000000Y-99260000D03*
X126231000Y-106556000D03*
X130388600Y-109735000D03*
X136346000Y-102836000D03*
X132878000Y-106415000D03*
X149390200Y-114369200D03*
X146560900Y-113911900D03*
X132571900Y-107692500D03*
X132899100Y-124847300D03*
X150557600Y-126018700D03*
D17*
X136230000Y-103890000D02*
X136230000Y-105190000D01*
X136230000Y-105190000D02*
X136380000Y-105340000D01*
X114000000Y-51190000D02*
X114000000Y-51250000D01*
X158000000Y-99035000D02*
X158000000Y-99000000D01*
X158000000Y-86225000D02*
X158000000Y-86250000D01*
X129500000Y-37250000D02*
X130774440Y-35975560D01*
X130774440Y-35975560D02*
X130774440Y-35874960D01*
X161864600Y-64364600D02*
X159250000Y-64364600D01*
X162000000Y-64500000D02*
X161864600Y-64364600D01*
X120400000Y-107400000D02*
X117600000Y-107400000D01*
X121600000Y-108600000D02*
X120400000Y-107400000D01*
X135500000Y-85750000D02*
X141500000Y-79750000D01*
X124750000Y-85750000D02*
X135500000Y-85750000D01*
X123250000Y-87250000D02*
X124750000Y-85750000D01*
X144000000Y-74500000D02*
X144000000Y-70024000D01*
X144750000Y-75250000D02*
X144000000Y-74500000D01*
X158000000Y-63775000D02*
X158000000Y-63750000D01*
X158000000Y-50965000D02*
X158000000Y-51000000D01*
X159250000Y-64364600D02*
X159247000Y-64364600D01*
X158590000Y-64364600D02*
X158000000Y-63775000D01*
X159247000Y-64364600D02*
X158590000Y-64364600D01*
X159250000Y-64364600D02*
X159247000Y-64364600D01*
X153588000Y-70024000D02*
X144000000Y-70024000D01*
X159247000Y-64364600D02*
X153588000Y-70024000D01*
X136226000Y-70024000D02*
X134500000Y-71750000D01*
X144000000Y-70024000D02*
X136226000Y-70024000D01*
X139000000Y-55250000D02*
X139000000Y-55340000D01*
X139000000Y-55340000D02*
X151160000Y-67500000D01*
X144060000Y-77730000D02*
X143890000Y-77560000D01*
X145570000Y-77730000D02*
X144060000Y-77730000D01*
X151100000Y-72200000D02*
X145570000Y-77730000D01*
X116070000Y-56180000D02*
X116070000Y-57200000D01*
X116070000Y-57200000D02*
X116130000Y-57260000D01*
X113660000Y-105700000D02*
X113660000Y-105720000D01*
X135500000Y-73750000D02*
X133250000Y-73750000D01*
X133250000Y-73750000D02*
X126500000Y-80500000D01*
X125294398Y-92675021D02*
X125294398Y-90544398D01*
X125294398Y-90544398D02*
X121750000Y-87000000D01*
X121750000Y-87000000D02*
X121750000Y-85250000D01*
X121750000Y-85250000D02*
X126500000Y-80500000D01*
X125294398Y-93240706D02*
X125294398Y-92675021D01*
X125000000Y-98500000D02*
X125294398Y-98205602D01*
X125294398Y-98205602D02*
X125294398Y-93240706D01*
X126500000Y-80500000D02*
X115750000Y-80500000D01*
X115750000Y-80500000D02*
X113750000Y-82500000D01*
X121200000Y-105000000D02*
X123250000Y-105000000D01*
X120800000Y-104600000D02*
X121200000Y-105000000D01*
X157250000Y-106000000D02*
X157250000Y-104000000D01*
X154500000Y-108750000D02*
X157250000Y-106000000D01*
X147500000Y-36000000D02*
X150250000Y-38750000D01*
X131853000Y-36000000D02*
X147500000Y-36000000D01*
X128353000Y-39500000D02*
X131853000Y-36000000D01*
X127250000Y-39500000D02*
X128353000Y-39500000D01*
X117000000Y-55250000D02*
X134000000Y-55250000D01*
X107500000Y-64750000D02*
X116070000Y-56180000D01*
X116070000Y-56180000D02*
X117000000Y-55250000D01*
X107500000Y-76250000D02*
X107500000Y-64750000D01*
X136250000Y-53000000D02*
X134000000Y-55250000D01*
X136750000Y-53000000D02*
X136250000Y-53000000D01*
X139000000Y-55250000D02*
X136750000Y-53000000D01*
X154000000Y-57000000D02*
X160250000Y-57000000D01*
X152250000Y-55250000D02*
X154000000Y-57000000D01*
X139000000Y-55250000D02*
X152250000Y-55250000D01*
X160250000Y-42250000D02*
X160250000Y-57000000D01*
X156750000Y-38750000D02*
X160250000Y-42250000D01*
X150250000Y-38750000D02*
X156750000Y-38750000D01*
X161250000Y-57000000D02*
X160250000Y-57000000D01*
X167250000Y-63000000D02*
X161250000Y-57000000D01*
X168000000Y-63000000D02*
X167250000Y-63000000D01*
X113750000Y-82500000D02*
X113750000Y-85500000D01*
X107500000Y-76250000D02*
X113750000Y-82500000D01*
X140000000Y-73750000D02*
X142500000Y-76250000D01*
X137500000Y-73750000D02*
X140000000Y-73750000D01*
X136500000Y-72750000D02*
X137500000Y-73750000D01*
X136000000Y-151500000D02*
X138000000Y-151500000D01*
X114000000Y-86450000D02*
X114000000Y-86500000D01*
X114000000Y-99260000D02*
X114000000Y-99250000D01*
X136500000Y-71750000D02*
X136500000Y-72750000D01*
X136500000Y-72750000D02*
X135500000Y-73750000D01*
X124240000Y-99260000D02*
X114000000Y-99260000D01*
X125000000Y-98500000D02*
X124240000Y-99260000D01*
X123250000Y-103750000D02*
X125000000Y-102000000D01*
X123250000Y-105000000D02*
X123250000Y-103750000D01*
X125000000Y-102000000D02*
X125250000Y-101750000D01*
X125000000Y-103250000D02*
X125000000Y-102000000D01*
X123250000Y-105000000D02*
X125000000Y-103250000D01*
X125000000Y-102000000D02*
X125000000Y-98500000D01*
X129410000Y-109735000D02*
X130388600Y-109735000D01*
X126231000Y-106556000D02*
X129410000Y-109735000D01*
X136346000Y-90181500D02*
X136346000Y-102836000D01*
X160988000Y-65540000D02*
X136346000Y-90181500D01*
X168000000Y-65540000D02*
X160988000Y-65540000D01*
X148059000Y-113038000D02*
X148059000Y-106415000D01*
X149390200Y-114369200D02*
X148059000Y-113038000D01*
X132878000Y-106415000D02*
X148059000Y-106415000D01*
X166825000Y-73160000D02*
X168000000Y-73160000D01*
X162485000Y-77499400D02*
X166825000Y-73160000D01*
X162485000Y-91988700D02*
X162485000Y-77499400D01*
X148059000Y-106415000D02*
X162485000Y-91988700D01*
X138791300Y-113911900D02*
X146560900Y-113911900D01*
X132571900Y-107692500D02*
X138791300Y-113911900D01*
X134070500Y-126018700D02*
X150557600Y-126018700D01*
X132899100Y-124847300D02*
X134070500Y-126018700D01*
D18*
G36*
X129739387Y-35935811D02*
X129460233Y-36214965D01*
X129295029Y-36214821D01*
X128914485Y-36372058D01*
X128623081Y-36662954D01*
X128465180Y-37043223D01*
X128464821Y-37454971D01*
X128622058Y-37835515D01*
X128912954Y-38126919D01*
X129293223Y-38284820D01*
X129704971Y-38285179D01*
X130085515Y-38127942D01*
X130376919Y-37837046D01*
X130534820Y-37456777D01*
X130534966Y-37289836D01*
X130914719Y-36910083D01*
X130979411Y-36910139D01*
X131359955Y-36752902D01*
X131651359Y-36462006D01*
X131809260Y-36081737D01*
X131809584Y-35710000D01*
X152930070Y-35710000D01*
X153105655Y-35744926D01*
X153195225Y-35804774D01*
X153255074Y-35894345D01*
X153290000Y-36069930D01*
X153290000Y-37000000D01*
X153305780Y-37079329D01*
X153308303Y-37160170D01*
X153332547Y-37213895D01*
X153344046Y-37271705D01*
X153388980Y-37338955D01*
X153422249Y-37412679D01*
X153465207Y-37453036D01*
X153497954Y-37502046D01*
X153565208Y-37546983D01*
X153624154Y-37602361D01*
X153679286Y-37623207D01*
X153728295Y-37655954D01*
X153807621Y-37671733D01*
X153883277Y-37700340D01*
X159872352Y-38698519D01*
X160105655Y-38744926D01*
X160195225Y-38804774D01*
X160255074Y-38894345D01*
X160290000Y-39069930D01*
X160290000Y-48000000D01*
X160344046Y-48271705D01*
X160497954Y-48502046D01*
X160728295Y-48655954D01*
X161000000Y-48710000D01*
X165290000Y-48710000D01*
X165290000Y-55000000D01*
X165344046Y-55271705D01*
X165497954Y-55502046D01*
X165728295Y-55655954D01*
X166000000Y-55710000D01*
X166290000Y-55710000D01*
X166290000Y-58000000D01*
X166303643Y-58068586D01*
X166303643Y-58138514D01*
X166330404Y-58203120D01*
X166344046Y-58271705D01*
X166382894Y-58329846D01*
X166409656Y-58394455D01*
X166459104Y-58443903D01*
X166497954Y-58502046D01*
X166556098Y-58540897D01*
X166605545Y-58590343D01*
X166670152Y-58617104D01*
X166728295Y-58655954D01*
X166796877Y-58669596D01*
X166861486Y-58696358D01*
X168253707Y-58973288D01*
X169316546Y-59683454D01*
X170026712Y-60746295D01*
X170290000Y-62069931D01*
X170290000Y-90949543D01*
X164297136Y-132899591D01*
X164299897Y-132950245D01*
X164290000Y-133000000D01*
X164290000Y-144930069D01*
X163569989Y-148549807D01*
X161559187Y-151559186D01*
X158549805Y-153569990D01*
X154930069Y-154290000D01*
X117069931Y-154290000D01*
X113450193Y-153569989D01*
X110440814Y-151559187D01*
X108430010Y-148549805D01*
X107710000Y-144930069D01*
X107710000Y-133000000D01*
X107700103Y-132950245D01*
X107702864Y-132899591D01*
X106581819Y-125052271D01*
X131863921Y-125052271D01*
X132021158Y-125432815D01*
X132312054Y-125724219D01*
X132692323Y-125882120D01*
X132859264Y-125882266D01*
X133533099Y-126556101D01*
X133779661Y-126720848D01*
X134070500Y-126778700D01*
X149853839Y-126778700D01*
X149970554Y-126895619D01*
X150350823Y-127053520D01*
X150762571Y-127053879D01*
X151143115Y-126896642D01*
X151434519Y-126605746D01*
X151592420Y-126225477D01*
X151592779Y-125813729D01*
X151435542Y-125433185D01*
X151144646Y-125141781D01*
X150764377Y-124983880D01*
X150352629Y-124983521D01*
X149972085Y-125140758D01*
X149853937Y-125258700D01*
X134385302Y-125258700D01*
X133934135Y-124807533D01*
X133934279Y-124642329D01*
X133777042Y-124261785D01*
X133486146Y-123970381D01*
X133105877Y-123812480D01*
X132694129Y-123812121D01*
X132313585Y-123969358D01*
X132022181Y-124260254D01*
X131864280Y-124640523D01*
X131863921Y-125052271D01*
X106581819Y-125052271D01*
X104089347Y-107604971D01*
X116564821Y-107604971D01*
X116722058Y-107985515D01*
X117012954Y-108276919D01*
X117393223Y-108434820D01*
X117804971Y-108435179D01*
X118185515Y-108277942D01*
X118303663Y-108160000D01*
X120085198Y-108160000D01*
X120564965Y-108639767D01*
X120564821Y-108804971D01*
X120722058Y-109185515D01*
X121012954Y-109476919D01*
X121393223Y-109634820D01*
X121804971Y-109635179D01*
X122185515Y-109477942D01*
X122476919Y-109187046D01*
X122634820Y-108806777D01*
X122635179Y-108395029D01*
X122477942Y-108014485D01*
X122187046Y-107723081D01*
X121806777Y-107565180D01*
X121639836Y-107565034D01*
X120937401Y-106862599D01*
X120785304Y-106760971D01*
X125195821Y-106760971D01*
X125353058Y-107141515D01*
X125643954Y-107432919D01*
X126024223Y-107590820D01*
X126191164Y-107590966D01*
X128872599Y-110272401D01*
X129119161Y-110437148D01*
X129410000Y-110495000D01*
X129684839Y-110495000D01*
X129801554Y-110611919D01*
X130181823Y-110769820D01*
X130593571Y-110770179D01*
X130974115Y-110612942D01*
X131265519Y-110322046D01*
X131423420Y-109941777D01*
X131423779Y-109530029D01*
X131266542Y-109149485D01*
X130975646Y-108858081D01*
X130595377Y-108700180D01*
X130183629Y-108699821D01*
X129803085Y-108857058D01*
X129704887Y-108955085D01*
X128647273Y-107897471D01*
X131536721Y-107897471D01*
X131693958Y-108278015D01*
X131984854Y-108569419D01*
X132365123Y-108727320D01*
X132532064Y-108727466D01*
X138253899Y-114449301D01*
X138500461Y-114614048D01*
X138791300Y-114671900D01*
X145857139Y-114671900D01*
X145973854Y-114788819D01*
X146354123Y-114946720D01*
X146765871Y-114947079D01*
X147146415Y-114789842D01*
X147437819Y-114498946D01*
X147595720Y-114118677D01*
X147596079Y-113706929D01*
X147555910Y-113609712D01*
X148355165Y-114408967D01*
X148355021Y-114574171D01*
X148512258Y-114954715D01*
X148803154Y-115246119D01*
X149183423Y-115404020D01*
X149595171Y-115404379D01*
X149975715Y-115247142D01*
X150267119Y-114956246D01*
X150425020Y-114575977D01*
X150425379Y-114164229D01*
X150268142Y-113783685D01*
X149977246Y-113492281D01*
X149596977Y-113334380D01*
X149430036Y-113334234D01*
X148819000Y-112723198D01*
X148819000Y-106729798D01*
X156308671Y-99239971D01*
X156964821Y-99239971D01*
X157122058Y-99620515D01*
X157412954Y-99911919D01*
X157793223Y-100069820D01*
X158204971Y-100070179D01*
X158585515Y-99912942D01*
X158876919Y-99622046D01*
X159034820Y-99241777D01*
X159035179Y-98830029D01*
X158877942Y-98449485D01*
X158587046Y-98158081D01*
X158206777Y-98000180D01*
X157795029Y-97999821D01*
X157414485Y-98157058D01*
X157123081Y-98447954D01*
X156965180Y-98828223D01*
X156964821Y-99239971D01*
X156308671Y-99239971D01*
X163022407Y-92526096D01*
X163123430Y-92374899D01*
X163187148Y-92279539D01*
X163187149Y-92279535D01*
X163187151Y-92279532D01*
X163216223Y-92133372D01*
X163245000Y-91988700D01*
X163245000Y-80000000D01*
X166290000Y-80000000D01*
X166290000Y-94000000D01*
X166303642Y-94068584D01*
X166303642Y-94138513D01*
X166379762Y-94521196D01*
X166399395Y-94568593D01*
X166485776Y-94777138D01*
X166702549Y-95101561D01*
X166702550Y-95101562D01*
X166898438Y-95297451D01*
X167222862Y-95514223D01*
X167328877Y-95558136D01*
X167478804Y-95620238D01*
X167861486Y-95696358D01*
X168138513Y-95696358D01*
X168521196Y-95620238D01*
X168596160Y-95589187D01*
X168777138Y-95514224D01*
X169101561Y-95297451D01*
X169101562Y-95297450D01*
X169297451Y-95101562D01*
X169514223Y-94777138D01*
X169564419Y-94655954D01*
X169620238Y-94521196D01*
X169696358Y-94138514D01*
X169696358Y-94068584D01*
X169710000Y-94000000D01*
X169710000Y-80000000D01*
X169696358Y-79931416D01*
X169696358Y-79861486D01*
X169620238Y-79478804D01*
X169514223Y-79222863D01*
X169514223Y-79222862D01*
X169297451Y-78898438D01*
X169101562Y-78702550D01*
X169101561Y-78702549D01*
X168777138Y-78485776D01*
X168593368Y-78409657D01*
X168521196Y-78379762D01*
X168138513Y-78303642D01*
X167861486Y-78303642D01*
X167478804Y-78379762D01*
X167406632Y-78409657D01*
X167222862Y-78485777D01*
X166898438Y-78702549D01*
X166739501Y-78861487D01*
X166702549Y-78898439D01*
X166485776Y-79222862D01*
X166435581Y-79344046D01*
X166379762Y-79478804D01*
X166303642Y-79861487D01*
X166303642Y-79931416D01*
X166290000Y-80000000D01*
X163245000Y-80000000D01*
X163245000Y-77814233D01*
X166892346Y-74167391D01*
X166920853Y-74210054D01*
X167402622Y-74531961D01*
X167970907Y-74645000D01*
X168029093Y-74645000D01*
X168597378Y-74531961D01*
X169079147Y-74210054D01*
X169401054Y-73728285D01*
X169514093Y-73160000D01*
X169401054Y-72591715D01*
X169079147Y-72109946D01*
X168749974Y-71890000D01*
X169079147Y-71670054D01*
X169401054Y-71188285D01*
X169514093Y-70620000D01*
X169401054Y-70051715D01*
X169079147Y-69569946D01*
X168749974Y-69350000D01*
X169079147Y-69130054D01*
X169401054Y-68648285D01*
X169514093Y-68080000D01*
X169401054Y-67511715D01*
X169079147Y-67029946D01*
X168749974Y-66810000D01*
X169079147Y-66590054D01*
X169401054Y-66108285D01*
X169514093Y-65540000D01*
X169401054Y-64971715D01*
X169079147Y-64489946D01*
X169035223Y-64460597D01*
X169209698Y-64388327D01*
X169388327Y-64209699D01*
X169485000Y-63976310D01*
X169485000Y-63285750D01*
X169326250Y-63127000D01*
X168127000Y-63127000D01*
X168127000Y-63147000D01*
X167873000Y-63147000D01*
X167873000Y-63127000D01*
X166673750Y-63127000D01*
X166515000Y-63285750D01*
X166515000Y-63976310D01*
X166611673Y-64209699D01*
X166790302Y-64388327D01*
X166964777Y-64460597D01*
X166920853Y-64489946D01*
X166727046Y-64780000D01*
X163004415Y-64780000D01*
X163034820Y-64706777D01*
X163035179Y-64295029D01*
X162877942Y-63914485D01*
X162587046Y-63623081D01*
X162206777Y-63465180D01*
X161795029Y-63464821D01*
X161456737Y-63604600D01*
X159035149Y-63604600D01*
X159035179Y-63570029D01*
X158877942Y-63189485D01*
X158587046Y-62898081D01*
X158206777Y-62740180D01*
X157795029Y-62739821D01*
X157414485Y-62897058D01*
X157123081Y-63187954D01*
X156965180Y-63568223D01*
X156964821Y-63979971D01*
X157122058Y-64360515D01*
X157412954Y-64651919D01*
X157746463Y-64790403D01*
X153273182Y-69264000D01*
X137734155Y-69264000D01*
X137752046Y-69252046D01*
X137905954Y-69021705D01*
X137960000Y-68750000D01*
X137960000Y-62960000D01*
X138000000Y-62960000D01*
X138271705Y-62905954D01*
X138502046Y-62752046D01*
X138655954Y-62521705D01*
X138710000Y-62250000D01*
X138710000Y-62023690D01*
X166515000Y-62023690D01*
X166515000Y-62714250D01*
X166673750Y-62873000D01*
X167873000Y-62873000D01*
X167873000Y-61673750D01*
X168127000Y-61673750D01*
X168127000Y-62873000D01*
X169326250Y-62873000D01*
X169485000Y-62714250D01*
X169485000Y-62023690D01*
X169388327Y-61790301D01*
X169209698Y-61611673D01*
X168976309Y-61515000D01*
X168285750Y-61515000D01*
X168127000Y-61673750D01*
X167873000Y-61673750D01*
X167714250Y-61515000D01*
X167023691Y-61515000D01*
X166790302Y-61611673D01*
X166611673Y-61790301D01*
X166515000Y-62023690D01*
X138710000Y-62023690D01*
X138710000Y-61918228D01*
X138771705Y-61905954D01*
X139002046Y-61752046D01*
X139155954Y-61521705D01*
X139210000Y-61250000D01*
X139210000Y-56638238D01*
X139347368Y-56631362D01*
X139731143Y-56472397D01*
X139800608Y-56230213D01*
X139000000Y-55429605D01*
X138985858Y-55443748D01*
X138806253Y-55264143D01*
X138820395Y-55250000D01*
X139179605Y-55250000D01*
X139980213Y-56050608D01*
X140222397Y-55981143D01*
X140409144Y-55457698D01*
X140381362Y-54902632D01*
X140222397Y-54518857D01*
X139980213Y-54449392D01*
X139179605Y-55250000D01*
X138820395Y-55250000D01*
X138806253Y-55235858D01*
X138985858Y-55056253D01*
X139000000Y-55070395D01*
X139800608Y-54269787D01*
X139731143Y-54027603D01*
X139207698Y-53840856D01*
X138652632Y-53868638D01*
X138268857Y-54027603D01*
X138199393Y-54269785D01*
X138084382Y-54154774D01*
X138077261Y-54161895D01*
X137569161Y-53652907D01*
X136876595Y-53365328D01*
X136126695Y-53364674D01*
X135433628Y-53651043D01*
X134922312Y-54161468D01*
X134915618Y-54154774D01*
X134800607Y-54269785D01*
X134731143Y-54027603D01*
X134207698Y-53840856D01*
X133652632Y-53868638D01*
X133268857Y-54027603D01*
X133199392Y-54269787D01*
X134000000Y-55070395D01*
X134014143Y-55056253D01*
X134193748Y-55235858D01*
X134179605Y-55250000D01*
X134193748Y-55264143D01*
X134014143Y-55443748D01*
X134000000Y-55429605D01*
X133199392Y-56230213D01*
X133268857Y-56472397D01*
X133790000Y-56658323D01*
X133790000Y-61250000D01*
X133844046Y-61521705D01*
X133997954Y-61752046D01*
X134228295Y-61905954D01*
X134290000Y-61918228D01*
X134290000Y-68750000D01*
X134344046Y-69021705D01*
X134497954Y-69252046D01*
X134728295Y-69405954D01*
X135000000Y-69460000D01*
X135728407Y-69460000D01*
X135688599Y-69486599D01*
X134876709Y-70298489D01*
X134796681Y-70265258D01*
X134205911Y-70264743D01*
X133659914Y-70490344D01*
X133241812Y-70907717D01*
X133015258Y-71453319D01*
X133014743Y-72044089D01*
X133240344Y-72590086D01*
X133657717Y-73008188D01*
X134165905Y-73219206D01*
X134053035Y-73533223D01*
X134080222Y-74103454D01*
X134246136Y-74504005D01*
X134492255Y-74578139D01*
X135320395Y-73750000D01*
X135306253Y-73735858D01*
X135485858Y-73556253D01*
X135500000Y-73570395D01*
X135514143Y-73556253D01*
X135693748Y-73735858D01*
X135679605Y-73750000D01*
X136113571Y-74183966D01*
X136246136Y-74504005D01*
X136492255Y-74578139D01*
X136500000Y-74570394D01*
X136507745Y-74578139D01*
X136753864Y-74504005D01*
X136859062Y-74211332D01*
X137320395Y-73750000D01*
X137306253Y-73735858D01*
X137485858Y-73556252D01*
X137500000Y-73570395D01*
X137514142Y-73556252D01*
X137693748Y-73735858D01*
X137679605Y-73750000D01*
X138507745Y-74578139D01*
X138753864Y-74504005D01*
X138946965Y-73966777D01*
X138919778Y-73396546D01*
X138810689Y-73133182D01*
X139290303Y-72935010D01*
X139683629Y-72542370D01*
X139896757Y-72029100D01*
X139897242Y-71473339D01*
X139685010Y-70959697D01*
X139509619Y-70784000D01*
X143240000Y-70784000D01*
X143240000Y-74500000D01*
X143297852Y-74790839D01*
X143462599Y-75037401D01*
X143714965Y-75289767D01*
X143714821Y-75454971D01*
X143872058Y-75835515D01*
X144162954Y-76126919D01*
X144543223Y-76284820D01*
X144954971Y-76285179D01*
X145335515Y-76127942D01*
X145626919Y-75837046D01*
X145784820Y-75456777D01*
X145785179Y-75045029D01*
X145627942Y-74664485D01*
X145337046Y-74373081D01*
X144956777Y-74215180D01*
X144789836Y-74215034D01*
X144760000Y-74185198D01*
X144760000Y-70784000D01*
X153588000Y-70784000D01*
X153588013Y-70783997D01*
X153588027Y-70784000D01*
X153738250Y-70754113D01*
X153878839Y-70726148D01*
X153878850Y-70726141D01*
X153878864Y-70726138D01*
X154005930Y-70641228D01*
X154125401Y-70561401D01*
X154125409Y-70561390D01*
X154125420Y-70561382D01*
X159561818Y-65124600D01*
X160328595Y-65124600D01*
X135808604Y-89644093D01*
X135808601Y-89644098D01*
X135808599Y-89644099D01*
X135759671Y-89717324D01*
X135643855Y-89890653D01*
X135643854Y-89890658D01*
X135643852Y-89890661D01*
X135616688Y-90027220D01*
X135586000Y-90181492D01*
X135586001Y-90181496D01*
X135586000Y-90181500D01*
X135586000Y-102132239D01*
X135469081Y-102248954D01*
X135311180Y-102629223D01*
X135310821Y-103040971D01*
X135468058Y-103421515D01*
X135574982Y-103528626D01*
X135527852Y-103599161D01*
X135470000Y-103890000D01*
X135470000Y-105190000D01*
X135527852Y-105480839D01*
X135644222Y-105655000D01*
X133581761Y-105655000D01*
X133465046Y-105538081D01*
X133084777Y-105380180D01*
X132673029Y-105379821D01*
X132292485Y-105537058D01*
X132001081Y-105827954D01*
X131843180Y-106208223D01*
X131842821Y-106619971D01*
X131941667Y-106859198D01*
X131694981Y-107105454D01*
X131537080Y-107485723D01*
X131536721Y-107897471D01*
X128647273Y-107897471D01*
X127266035Y-106516233D01*
X127266179Y-106351029D01*
X127108942Y-105970485D01*
X126818046Y-105679081D01*
X126437777Y-105521180D01*
X126026029Y-105520821D01*
X125645485Y-105678058D01*
X125354081Y-105968954D01*
X125196180Y-106349223D01*
X125195821Y-106760971D01*
X120785304Y-106760971D01*
X120690839Y-106697852D01*
X120400000Y-106640000D01*
X118303761Y-106640000D01*
X118187046Y-106523081D01*
X117806777Y-106365180D01*
X117395029Y-106364821D01*
X117014485Y-106522058D01*
X116723081Y-106812954D01*
X116565180Y-107193223D01*
X116564821Y-107604971D01*
X104089347Y-107604971D01*
X101710000Y-90949543D01*
X101710000Y-80000000D01*
X102290000Y-80000000D01*
X102290000Y-94000000D01*
X102303642Y-94068584D01*
X102303642Y-94138513D01*
X102379762Y-94521196D01*
X102399395Y-94568593D01*
X102485776Y-94777138D01*
X102702549Y-95101561D01*
X102702550Y-95101562D01*
X102898438Y-95297451D01*
X103222862Y-95514223D01*
X103328877Y-95558136D01*
X103478804Y-95620238D01*
X103861486Y-95696358D01*
X104138513Y-95696358D01*
X104521196Y-95620238D01*
X104596160Y-95589187D01*
X104777138Y-95514224D01*
X105101561Y-95297451D01*
X105101562Y-95297450D01*
X105297451Y-95101562D01*
X105514223Y-94777138D01*
X105564419Y-94655954D01*
X105620238Y-94521196D01*
X105696358Y-94138514D01*
X105696358Y-94068584D01*
X105710000Y-94000000D01*
X105710000Y-87454971D01*
X122214821Y-87454971D01*
X122372058Y-87835515D01*
X122662954Y-88126919D01*
X123043223Y-88284820D01*
X123454971Y-88285179D01*
X123835515Y-88127942D01*
X124126919Y-87837046D01*
X124284820Y-87456777D01*
X124284966Y-87289836D01*
X125064802Y-86510000D01*
X135500000Y-86510000D01*
X135790839Y-86452148D01*
X136037401Y-86287401D01*
X141539767Y-80785035D01*
X141704971Y-80785179D01*
X142085515Y-80627942D01*
X142376919Y-80337046D01*
X142534820Y-79956777D01*
X142535179Y-79545029D01*
X142377942Y-79164485D01*
X142087046Y-78873081D01*
X141706777Y-78715180D01*
X141295029Y-78714821D01*
X140914485Y-78872058D01*
X140623081Y-79162954D01*
X140465180Y-79543223D01*
X140465034Y-79710164D01*
X135185198Y-84990000D01*
X124750000Y-84990000D01*
X124459160Y-85047852D01*
X124212599Y-85212599D01*
X123210233Y-86214965D01*
X123045029Y-86214821D01*
X122664485Y-86372058D01*
X122373081Y-86662954D01*
X122215180Y-87043223D01*
X122214821Y-87454971D01*
X105710000Y-87454971D01*
X105710000Y-80000000D01*
X105696358Y-79931416D01*
X105696358Y-79861486D01*
X105620238Y-79478804D01*
X105514223Y-79222863D01*
X105514223Y-79222862D01*
X105297451Y-78898438D01*
X105101562Y-78702550D01*
X105101561Y-78702549D01*
X104777138Y-78485776D01*
X104593368Y-78409657D01*
X104521196Y-78379762D01*
X104138513Y-78303642D01*
X103861486Y-78303642D01*
X103478804Y-78379762D01*
X103406632Y-78409657D01*
X103222862Y-78485777D01*
X102898438Y-78702549D01*
X102739501Y-78861487D01*
X102702549Y-78898439D01*
X102485776Y-79222862D01*
X102435581Y-79344046D01*
X102379762Y-79478804D01*
X102303642Y-79861487D01*
X102303642Y-79931416D01*
X102290000Y-80000000D01*
X101710000Y-80000000D01*
X101710000Y-76056890D01*
X102558524Y-76056890D01*
X102728355Y-76466924D01*
X103118642Y-76895183D01*
X103643108Y-77141486D01*
X103873000Y-77020819D01*
X103873000Y-75827000D01*
X104127000Y-75827000D01*
X104127000Y-77020819D01*
X104356892Y-77141486D01*
X104881358Y-76895183D01*
X105271645Y-76466924D01*
X105441476Y-76056890D01*
X105320155Y-75827000D01*
X104127000Y-75827000D01*
X103873000Y-75827000D01*
X102679845Y-75827000D01*
X102558524Y-76056890D01*
X101710000Y-76056890D01*
X101710000Y-65540000D01*
X102485907Y-65540000D01*
X102598946Y-66108285D01*
X102920853Y-66590054D01*
X103250026Y-66810000D01*
X102920853Y-67029946D01*
X102598946Y-67511715D01*
X102485907Y-68080000D01*
X102598946Y-68648285D01*
X102920853Y-69130054D01*
X103250026Y-69350000D01*
X102920853Y-69569946D01*
X102598946Y-70051715D01*
X102485907Y-70620000D01*
X102598946Y-71188285D01*
X102920853Y-71670054D01*
X103250026Y-71890000D01*
X102920853Y-72109946D01*
X102598946Y-72591715D01*
X102485907Y-73160000D01*
X102598946Y-73728285D01*
X102920853Y-74210054D01*
X103261553Y-74437702D01*
X103118642Y-74504817D01*
X102728355Y-74933076D01*
X102558524Y-75343110D01*
X102679845Y-75573000D01*
X103873000Y-75573000D01*
X103873000Y-75553000D01*
X104127000Y-75553000D01*
X104127000Y-75573000D01*
X105320155Y-75573000D01*
X105441476Y-75343110D01*
X105271645Y-74933076D01*
X105111860Y-74757745D01*
X134671861Y-74757745D01*
X134745995Y-75003864D01*
X135283223Y-75196965D01*
X135853454Y-75169778D01*
X136254005Y-75003864D01*
X136328139Y-74757745D01*
X136671861Y-74757745D01*
X136745995Y-75003864D01*
X137283223Y-75196965D01*
X137853454Y-75169778D01*
X138254005Y-75003864D01*
X138328139Y-74757745D01*
X137500000Y-73929605D01*
X136671861Y-74757745D01*
X136328139Y-74757745D01*
X135500000Y-73929605D01*
X134671861Y-74757745D01*
X105111860Y-74757745D01*
X104881358Y-74504817D01*
X104738447Y-74437702D01*
X105079147Y-74210054D01*
X105401054Y-73728285D01*
X105514093Y-73160000D01*
X105401054Y-72591715D01*
X105079147Y-72109946D01*
X104749974Y-71890000D01*
X105079147Y-71670054D01*
X105401054Y-71188285D01*
X105514093Y-70620000D01*
X105401054Y-70051715D01*
X105079147Y-69569946D01*
X104749974Y-69350000D01*
X105079147Y-69130054D01*
X105401054Y-68648285D01*
X105514093Y-68080000D01*
X105401054Y-67511715D01*
X105079147Y-67029946D01*
X104749974Y-66810000D01*
X105079147Y-66590054D01*
X105401054Y-66108285D01*
X105514093Y-65540000D01*
X105401054Y-64971715D01*
X105079147Y-64489946D01*
X105035223Y-64460597D01*
X105097765Y-64448157D01*
X105307809Y-64307809D01*
X105376523Y-64204971D01*
X112964821Y-64204971D01*
X113122058Y-64585515D01*
X113412954Y-64876919D01*
X113793223Y-65034820D01*
X114204971Y-65035179D01*
X114585515Y-64877942D01*
X114876919Y-64587046D01*
X115034820Y-64206777D01*
X115035179Y-63795029D01*
X114877942Y-63414485D01*
X114587046Y-63123081D01*
X114206777Y-62965180D01*
X113795029Y-62964821D01*
X113414485Y-63122058D01*
X113123081Y-63412954D01*
X112965180Y-63793223D01*
X112964821Y-64204971D01*
X105376523Y-64204971D01*
X105448157Y-64097765D01*
X105497440Y-63850000D01*
X105497440Y-62150000D01*
X105448157Y-61902235D01*
X105307809Y-61692191D01*
X105097765Y-61551843D01*
X104850000Y-61502560D01*
X103150000Y-61502560D01*
X102902235Y-61551843D01*
X102692191Y-61692191D01*
X102551843Y-61902235D01*
X102502560Y-62150000D01*
X102502560Y-63850000D01*
X102551843Y-64097765D01*
X102692191Y-64307809D01*
X102902235Y-64448157D01*
X102964777Y-64460597D01*
X102920853Y-64489946D01*
X102598946Y-64971715D01*
X102485907Y-65540000D01*
X101710000Y-65540000D01*
X101710000Y-62069931D01*
X101973288Y-60746293D01*
X102683454Y-59683454D01*
X103746295Y-58973288D01*
X105138514Y-58696358D01*
X105203123Y-58669596D01*
X105271705Y-58655954D01*
X105329848Y-58617104D01*
X105394455Y-58590343D01*
X105443902Y-58540897D01*
X105502046Y-58502046D01*
X105540896Y-58443903D01*
X105590344Y-58394455D01*
X105617106Y-58329846D01*
X105655954Y-58271705D01*
X105669596Y-58203120D01*
X105696357Y-58138514D01*
X105696357Y-58068586D01*
X105710000Y-58000000D01*
X105710000Y-55710000D01*
X106000000Y-55710000D01*
X106271705Y-55655954D01*
X106502046Y-55502046D01*
X106655954Y-55271705D01*
X106701585Y-55042302D01*
X132590856Y-55042302D01*
X132618638Y-55597368D01*
X132777603Y-55981143D01*
X133019787Y-56050608D01*
X133820395Y-55250000D01*
X133019787Y-54449392D01*
X132777603Y-54518857D01*
X132590856Y-55042302D01*
X106701585Y-55042302D01*
X106710000Y-55000000D01*
X106710000Y-51394971D01*
X112964821Y-51394971D01*
X113122058Y-51775515D01*
X113412954Y-52066919D01*
X113793223Y-52224820D01*
X114204971Y-52225179D01*
X114585515Y-52067942D01*
X114876919Y-51777046D01*
X115034820Y-51396777D01*
X115035017Y-51169971D01*
X156964821Y-51169971D01*
X157122058Y-51550515D01*
X157412954Y-51841919D01*
X157793223Y-51999820D01*
X158204971Y-52000179D01*
X158585515Y-51842942D01*
X158876919Y-51552046D01*
X159034820Y-51171777D01*
X159035179Y-50760029D01*
X158877942Y-50379485D01*
X158587046Y-50088081D01*
X158206777Y-49930180D01*
X157795029Y-49929821D01*
X157414485Y-50087058D01*
X157123081Y-50377954D01*
X156965180Y-50758223D01*
X156964821Y-51169971D01*
X115035017Y-51169971D01*
X115035179Y-50985029D01*
X114877942Y-50604485D01*
X114587046Y-50313081D01*
X114206777Y-50155180D01*
X113795029Y-50154821D01*
X113414485Y-50312058D01*
X113123081Y-50602954D01*
X112965180Y-50983223D01*
X112964821Y-51394971D01*
X106710000Y-51394971D01*
X106710000Y-48710000D01*
X111000000Y-48710000D01*
X111271705Y-48655954D01*
X111502046Y-48502046D01*
X111655954Y-48271705D01*
X111710000Y-48000000D01*
X111710000Y-42000000D01*
X114290000Y-42000000D01*
X114290000Y-48000000D01*
X114344046Y-48271705D01*
X114497954Y-48502046D01*
X114728295Y-48655954D01*
X115000000Y-48710000D01*
X157000000Y-48710000D01*
X157271705Y-48655954D01*
X157502046Y-48502046D01*
X157655954Y-48271705D01*
X157710000Y-48000000D01*
X157710000Y-42000000D01*
X157655954Y-41728295D01*
X157502046Y-41497954D01*
X155502046Y-39497954D01*
X155271705Y-39344046D01*
X155000000Y-39290000D01*
X154000000Y-39290000D01*
X153931416Y-39303642D01*
X153861486Y-39303642D01*
X153478804Y-39379762D01*
X153406632Y-39409657D01*
X153222862Y-39485777D01*
X152898438Y-39702549D01*
X152777118Y-39823870D01*
X152702549Y-39898439D01*
X152485776Y-40222862D01*
X152430749Y-40355711D01*
X152379762Y-40478804D01*
X152303642Y-40861486D01*
X152303642Y-40861487D01*
X152255074Y-41105655D01*
X152195225Y-41195226D01*
X152105655Y-41255074D01*
X151930070Y-41290000D01*
X140381473Y-41290000D01*
X140808668Y-41004558D01*
X141004558Y-40808668D01*
X141438103Y-40159822D01*
X141504303Y-40000000D01*
X141544117Y-39903881D01*
X141696357Y-39138515D01*
X141696357Y-38861485D01*
X141544117Y-38096119D01*
X141484482Y-37952148D01*
X141438103Y-37840178D01*
X141004558Y-37191332D01*
X140808668Y-36995442D01*
X140159821Y-36561897D01*
X140005448Y-36497954D01*
X139903881Y-36455883D01*
X139138514Y-36303642D01*
X139068584Y-36303642D01*
X139000000Y-36290000D01*
X133000000Y-36290000D01*
X132931413Y-36303643D01*
X132861485Y-36303643D01*
X132096119Y-36455883D01*
X131968149Y-36508890D01*
X131840178Y-36561897D01*
X131191332Y-36995442D01*
X130995442Y-37191332D01*
X130561897Y-37840179D01*
X130528437Y-37920959D01*
X130455883Y-38096119D01*
X130303642Y-38861486D01*
X130303643Y-39000000D01*
X130303642Y-39138514D01*
X130455883Y-39903881D01*
X130469853Y-39937606D01*
X130561897Y-40159821D01*
X130995442Y-40808668D01*
X131191332Y-41004558D01*
X131618526Y-41290000D01*
X120069930Y-41290000D01*
X119894345Y-41255074D01*
X119804774Y-41195225D01*
X119744926Y-41105655D01*
X119696358Y-40861487D01*
X119696358Y-40861486D01*
X119620238Y-40478804D01*
X119558136Y-40328877D01*
X119514223Y-40222862D01*
X119297451Y-39898438D01*
X119101562Y-39702550D01*
X119101561Y-39702549D01*
X118777138Y-39485776D01*
X118593368Y-39409657D01*
X118521196Y-39379762D01*
X118138513Y-39303642D01*
X118068584Y-39303642D01*
X118000000Y-39290000D01*
X117000000Y-39290000D01*
X116728295Y-39344046D01*
X116497954Y-39497954D01*
X114497954Y-41497954D01*
X114344046Y-41728295D01*
X114290000Y-42000000D01*
X111710000Y-42000000D01*
X111710000Y-39069930D01*
X111744926Y-38894345D01*
X111804774Y-38804775D01*
X111894345Y-38744926D01*
X112127648Y-38698519D01*
X118116724Y-37700340D01*
X118192381Y-37671733D01*
X118271705Y-37655954D01*
X118320713Y-37623208D01*
X118375847Y-37602361D01*
X118434795Y-37546982D01*
X118502046Y-37502046D01*
X118534793Y-37453037D01*
X118577751Y-37412679D01*
X118611020Y-37338953D01*
X118655954Y-37271705D01*
X118667453Y-37213898D01*
X118691698Y-37160170D01*
X118694221Y-37079324D01*
X118710000Y-37000000D01*
X118710000Y-36069930D01*
X118744926Y-35894345D01*
X118804774Y-35804775D01*
X118894345Y-35744926D01*
X119069930Y-35710000D01*
X129739584Y-35710000D01*
X129739387Y-35935811D01*
X129739387Y-35935811D01*
G37*
X129739387Y-35935811D02*
X129460233Y-36214965D01*
X129295029Y-36214821D01*
X128914485Y-36372058D01*
X128623081Y-36662954D01*
X128465180Y-37043223D01*
X128464821Y-37454971D01*
X128622058Y-37835515D01*
X128912954Y-38126919D01*
X129293223Y-38284820D01*
X129704971Y-38285179D01*
X130085515Y-38127942D01*
X130376919Y-37837046D01*
X130534820Y-37456777D01*
X130534966Y-37289836D01*
X130914719Y-36910083D01*
X130979411Y-36910139D01*
X131359955Y-36752902D01*
X131651359Y-36462006D01*
X131809260Y-36081737D01*
X131809584Y-35710000D01*
X152930070Y-35710000D01*
X153105655Y-35744926D01*
X153195225Y-35804774D01*
X153255074Y-35894345D01*
X153290000Y-36069930D01*
X153290000Y-37000000D01*
X153305780Y-37079329D01*
X153308303Y-37160170D01*
X153332547Y-37213895D01*
X153344046Y-37271705D01*
X153388980Y-37338955D01*
X153422249Y-37412679D01*
X153465207Y-37453036D01*
X153497954Y-37502046D01*
X153565208Y-37546983D01*
X153624154Y-37602361D01*
X153679286Y-37623207D01*
X153728295Y-37655954D01*
X153807621Y-37671733D01*
X153883277Y-37700340D01*
X159872352Y-38698519D01*
X160105655Y-38744926D01*
X160195225Y-38804774D01*
X160255074Y-38894345D01*
X160290000Y-39069930D01*
X160290000Y-48000000D01*
X160344046Y-48271705D01*
X160497954Y-48502046D01*
X160728295Y-48655954D01*
X161000000Y-48710000D01*
X165290000Y-48710000D01*
X165290000Y-55000000D01*
X165344046Y-55271705D01*
X165497954Y-55502046D01*
X165728295Y-55655954D01*
X166000000Y-55710000D01*
X166290000Y-55710000D01*
X166290000Y-58000000D01*
X166303643Y-58068586D01*
X166303643Y-58138514D01*
X166330404Y-58203120D01*
X166344046Y-58271705D01*
X166382894Y-58329846D01*
X166409656Y-58394455D01*
X166459104Y-58443903D01*
X166497954Y-58502046D01*
X166556098Y-58540897D01*
X166605545Y-58590343D01*
X166670152Y-58617104D01*
X166728295Y-58655954D01*
X166796877Y-58669596D01*
X166861486Y-58696358D01*
X168253707Y-58973288D01*
X169316546Y-59683454D01*
X170026712Y-60746295D01*
X170290000Y-62069931D01*
X170290000Y-90949543D01*
X164297136Y-132899591D01*
X164299897Y-132950245D01*
X164290000Y-133000000D01*
X164290000Y-144930069D01*
X163569989Y-148549807D01*
X161559187Y-151559186D01*
X158549805Y-153569990D01*
X154930069Y-154290000D01*
X117069931Y-154290000D01*
X113450193Y-153569989D01*
X110440814Y-151559187D01*
X108430010Y-148549805D01*
X107710000Y-144930069D01*
X107710000Y-133000000D01*
X107700103Y-132950245D01*
X107702864Y-132899591D01*
X106581819Y-125052271D01*
X131863921Y-125052271D01*
X132021158Y-125432815D01*
X132312054Y-125724219D01*
X132692323Y-125882120D01*
X132859264Y-125882266D01*
X133533099Y-126556101D01*
X133779661Y-126720848D01*
X134070500Y-126778700D01*
X149853839Y-126778700D01*
X149970554Y-126895619D01*
X150350823Y-127053520D01*
X150762571Y-127053879D01*
X151143115Y-126896642D01*
X151434519Y-126605746D01*
X151592420Y-126225477D01*
X151592779Y-125813729D01*
X151435542Y-125433185D01*
X151144646Y-125141781D01*
X150764377Y-124983880D01*
X150352629Y-124983521D01*
X149972085Y-125140758D01*
X149853937Y-125258700D01*
X134385302Y-125258700D01*
X133934135Y-124807533D01*
X133934279Y-124642329D01*
X133777042Y-124261785D01*
X133486146Y-123970381D01*
X133105877Y-123812480D01*
X132694129Y-123812121D01*
X132313585Y-123969358D01*
X132022181Y-124260254D01*
X131864280Y-124640523D01*
X131863921Y-125052271D01*
X106581819Y-125052271D01*
X104089347Y-107604971D01*
X116564821Y-107604971D01*
X116722058Y-107985515D01*
X117012954Y-108276919D01*
X117393223Y-108434820D01*
X117804971Y-108435179D01*
X118185515Y-108277942D01*
X118303663Y-108160000D01*
X120085198Y-108160000D01*
X120564965Y-108639767D01*
X120564821Y-108804971D01*
X120722058Y-109185515D01*
X121012954Y-109476919D01*
X121393223Y-109634820D01*
X121804971Y-109635179D01*
X122185515Y-109477942D01*
X122476919Y-109187046D01*
X122634820Y-108806777D01*
X122635179Y-108395029D01*
X122477942Y-108014485D01*
X122187046Y-107723081D01*
X121806777Y-107565180D01*
X121639836Y-107565034D01*
X120937401Y-106862599D01*
X120785304Y-106760971D01*
X125195821Y-106760971D01*
X125353058Y-107141515D01*
X125643954Y-107432919D01*
X126024223Y-107590820D01*
X126191164Y-107590966D01*
X128872599Y-110272401D01*
X129119161Y-110437148D01*
X129410000Y-110495000D01*
X129684839Y-110495000D01*
X129801554Y-110611919D01*
X130181823Y-110769820D01*
X130593571Y-110770179D01*
X130974115Y-110612942D01*
X131265519Y-110322046D01*
X131423420Y-109941777D01*
X131423779Y-109530029D01*
X131266542Y-109149485D01*
X130975646Y-108858081D01*
X130595377Y-108700180D01*
X130183629Y-108699821D01*
X129803085Y-108857058D01*
X129704887Y-108955085D01*
X128647273Y-107897471D01*
X131536721Y-107897471D01*
X131693958Y-108278015D01*
X131984854Y-108569419D01*
X132365123Y-108727320D01*
X132532064Y-108727466D01*
X138253899Y-114449301D01*
X138500461Y-114614048D01*
X138791300Y-114671900D01*
X145857139Y-114671900D01*
X145973854Y-114788819D01*
X146354123Y-114946720D01*
X146765871Y-114947079D01*
X147146415Y-114789842D01*
X147437819Y-114498946D01*
X147595720Y-114118677D01*
X147596079Y-113706929D01*
X147555910Y-113609712D01*
X148355165Y-114408967D01*
X148355021Y-114574171D01*
X148512258Y-114954715D01*
X148803154Y-115246119D01*
X149183423Y-115404020D01*
X149595171Y-115404379D01*
X149975715Y-115247142D01*
X150267119Y-114956246D01*
X150425020Y-114575977D01*
X150425379Y-114164229D01*
X150268142Y-113783685D01*
X149977246Y-113492281D01*
X149596977Y-113334380D01*
X149430036Y-113334234D01*
X148819000Y-112723198D01*
X148819000Y-106729798D01*
X156308671Y-99239971D01*
X156964821Y-99239971D01*
X157122058Y-99620515D01*
X157412954Y-99911919D01*
X157793223Y-100069820D01*
X158204971Y-100070179D01*
X158585515Y-99912942D01*
X158876919Y-99622046D01*
X159034820Y-99241777D01*
X159035179Y-98830029D01*
X158877942Y-98449485D01*
X158587046Y-98158081D01*
X158206777Y-98000180D01*
X157795029Y-97999821D01*
X157414485Y-98157058D01*
X157123081Y-98447954D01*
X156965180Y-98828223D01*
X156964821Y-99239971D01*
X156308671Y-99239971D01*
X163022407Y-92526096D01*
X163123430Y-92374899D01*
X163187148Y-92279539D01*
X163187149Y-92279535D01*
X163187151Y-92279532D01*
X163216223Y-92133372D01*
X163245000Y-91988700D01*
X163245000Y-80000000D01*
X166290000Y-80000000D01*
X166290000Y-94000000D01*
X166303642Y-94068584D01*
X166303642Y-94138513D01*
X166379762Y-94521196D01*
X166399395Y-94568593D01*
X166485776Y-94777138D01*
X166702549Y-95101561D01*
X166702550Y-95101562D01*
X166898438Y-95297451D01*
X167222862Y-95514223D01*
X167328877Y-95558136D01*
X167478804Y-95620238D01*
X167861486Y-95696358D01*
X168138513Y-95696358D01*
X168521196Y-95620238D01*
X168596160Y-95589187D01*
X168777138Y-95514224D01*
X169101561Y-95297451D01*
X169101562Y-95297450D01*
X169297451Y-95101562D01*
X169514223Y-94777138D01*
X169564419Y-94655954D01*
X169620238Y-94521196D01*
X169696358Y-94138514D01*
X169696358Y-94068584D01*
X169710000Y-94000000D01*
X169710000Y-80000000D01*
X169696358Y-79931416D01*
X169696358Y-79861486D01*
X169620238Y-79478804D01*
X169514223Y-79222863D01*
X169514223Y-79222862D01*
X169297451Y-78898438D01*
X169101562Y-78702550D01*
X169101561Y-78702549D01*
X168777138Y-78485776D01*
X168593368Y-78409657D01*
X168521196Y-78379762D01*
X168138513Y-78303642D01*
X167861486Y-78303642D01*
X167478804Y-78379762D01*
X167406632Y-78409657D01*
X167222862Y-78485777D01*
X166898438Y-78702549D01*
X166739501Y-78861487D01*
X166702549Y-78898439D01*
X166485776Y-79222862D01*
X166435581Y-79344046D01*
X166379762Y-79478804D01*
X166303642Y-79861487D01*
X166303642Y-79931416D01*
X166290000Y-80000000D01*
X163245000Y-80000000D01*
X163245000Y-77814233D01*
X166892346Y-74167391D01*
X166920853Y-74210054D01*
X167402622Y-74531961D01*
X167970907Y-74645000D01*
X168029093Y-74645000D01*
X168597378Y-74531961D01*
X169079147Y-74210054D01*
X169401054Y-73728285D01*
X169514093Y-73160000D01*
X169401054Y-72591715D01*
X169079147Y-72109946D01*
X168749974Y-71890000D01*
X169079147Y-71670054D01*
X169401054Y-71188285D01*
X169514093Y-70620000D01*
X169401054Y-70051715D01*
X169079147Y-69569946D01*
X168749974Y-69350000D01*
X169079147Y-69130054D01*
X169401054Y-68648285D01*
X169514093Y-68080000D01*
X169401054Y-67511715D01*
X169079147Y-67029946D01*
X168749974Y-66810000D01*
X169079147Y-66590054D01*
X169401054Y-66108285D01*
X169514093Y-65540000D01*
X169401054Y-64971715D01*
X169079147Y-64489946D01*
X169035223Y-64460597D01*
X169209698Y-64388327D01*
X169388327Y-64209699D01*
X169485000Y-63976310D01*
X169485000Y-63285750D01*
X169326250Y-63127000D01*
X168127000Y-63127000D01*
X168127000Y-63147000D01*
X167873000Y-63147000D01*
X167873000Y-63127000D01*
X166673750Y-63127000D01*
X166515000Y-63285750D01*
X166515000Y-63976310D01*
X166611673Y-64209699D01*
X166790302Y-64388327D01*
X166964777Y-64460597D01*
X166920853Y-64489946D01*
X166727046Y-64780000D01*
X163004415Y-64780000D01*
X163034820Y-64706777D01*
X163035179Y-64295029D01*
X162877942Y-63914485D01*
X162587046Y-63623081D01*
X162206777Y-63465180D01*
X161795029Y-63464821D01*
X161456737Y-63604600D01*
X159035149Y-63604600D01*
X159035179Y-63570029D01*
X158877942Y-63189485D01*
X158587046Y-62898081D01*
X158206777Y-62740180D01*
X157795029Y-62739821D01*
X157414485Y-62897058D01*
X157123081Y-63187954D01*
X156965180Y-63568223D01*
X156964821Y-63979971D01*
X157122058Y-64360515D01*
X157412954Y-64651919D01*
X157746463Y-64790403D01*
X153273182Y-69264000D01*
X137734155Y-69264000D01*
X137752046Y-69252046D01*
X137905954Y-69021705D01*
X137960000Y-68750000D01*
X137960000Y-62960000D01*
X138000000Y-62960000D01*
X138271705Y-62905954D01*
X138502046Y-62752046D01*
X138655954Y-62521705D01*
X138710000Y-62250000D01*
X138710000Y-62023690D01*
X166515000Y-62023690D01*
X166515000Y-62714250D01*
X166673750Y-62873000D01*
X167873000Y-62873000D01*
X167873000Y-61673750D01*
X168127000Y-61673750D01*
X168127000Y-62873000D01*
X169326250Y-62873000D01*
X169485000Y-62714250D01*
X169485000Y-62023690D01*
X169388327Y-61790301D01*
X169209698Y-61611673D01*
X168976309Y-61515000D01*
X168285750Y-61515000D01*
X168127000Y-61673750D01*
X167873000Y-61673750D01*
X167714250Y-61515000D01*
X167023691Y-61515000D01*
X166790302Y-61611673D01*
X166611673Y-61790301D01*
X166515000Y-62023690D01*
X138710000Y-62023690D01*
X138710000Y-61918228D01*
X138771705Y-61905954D01*
X139002046Y-61752046D01*
X139155954Y-61521705D01*
X139210000Y-61250000D01*
X139210000Y-56638238D01*
X139347368Y-56631362D01*
X139731143Y-56472397D01*
X139800608Y-56230213D01*
X139000000Y-55429605D01*
X138985858Y-55443748D01*
X138806253Y-55264143D01*
X138820395Y-55250000D01*
X139179605Y-55250000D01*
X139980213Y-56050608D01*
X140222397Y-55981143D01*
X140409144Y-55457698D01*
X140381362Y-54902632D01*
X140222397Y-54518857D01*
X139980213Y-54449392D01*
X139179605Y-55250000D01*
X138820395Y-55250000D01*
X138806253Y-55235858D01*
X138985858Y-55056253D01*
X139000000Y-55070395D01*
X139800608Y-54269787D01*
X139731143Y-54027603D01*
X139207698Y-53840856D01*
X138652632Y-53868638D01*
X138268857Y-54027603D01*
X138199393Y-54269785D01*
X138084382Y-54154774D01*
X138077261Y-54161895D01*
X137569161Y-53652907D01*
X136876595Y-53365328D01*
X136126695Y-53364674D01*
X135433628Y-53651043D01*
X134922312Y-54161468D01*
X134915618Y-54154774D01*
X134800607Y-54269785D01*
X134731143Y-54027603D01*
X134207698Y-53840856D01*
X133652632Y-53868638D01*
X133268857Y-54027603D01*
X133199392Y-54269787D01*
X134000000Y-55070395D01*
X134014143Y-55056253D01*
X134193748Y-55235858D01*
X134179605Y-55250000D01*
X134193748Y-55264143D01*
X134014143Y-55443748D01*
X134000000Y-55429605D01*
X133199392Y-56230213D01*
X133268857Y-56472397D01*
X133790000Y-56658323D01*
X133790000Y-61250000D01*
X133844046Y-61521705D01*
X133997954Y-61752046D01*
X134228295Y-61905954D01*
X134290000Y-61918228D01*
X134290000Y-68750000D01*
X134344046Y-69021705D01*
X134497954Y-69252046D01*
X134728295Y-69405954D01*
X135000000Y-69460000D01*
X135728407Y-69460000D01*
X135688599Y-69486599D01*
X134876709Y-70298489D01*
X134796681Y-70265258D01*
X134205911Y-70264743D01*
X133659914Y-70490344D01*
X133241812Y-70907717D01*
X133015258Y-71453319D01*
X133014743Y-72044089D01*
X133240344Y-72590086D01*
X133657717Y-73008188D01*
X134165905Y-73219206D01*
X134053035Y-73533223D01*
X134080222Y-74103454D01*
X134246136Y-74504005D01*
X134492255Y-74578139D01*
X135320395Y-73750000D01*
X135306253Y-73735858D01*
X135485858Y-73556253D01*
X135500000Y-73570395D01*
X135514143Y-73556253D01*
X135693748Y-73735858D01*
X135679605Y-73750000D01*
X136113571Y-74183966D01*
X136246136Y-74504005D01*
X136492255Y-74578139D01*
X136500000Y-74570394D01*
X136507745Y-74578139D01*
X136753864Y-74504005D01*
X136859062Y-74211332D01*
X137320395Y-73750000D01*
X137306253Y-73735858D01*
X137485858Y-73556252D01*
X137500000Y-73570395D01*
X137514142Y-73556252D01*
X137693748Y-73735858D01*
X137679605Y-73750000D01*
X138507745Y-74578139D01*
X138753864Y-74504005D01*
X138946965Y-73966777D01*
X138919778Y-73396546D01*
X138810689Y-73133182D01*
X139290303Y-72935010D01*
X139683629Y-72542370D01*
X139896757Y-72029100D01*
X139897242Y-71473339D01*
X139685010Y-70959697D01*
X139509619Y-70784000D01*
X143240000Y-70784000D01*
X143240000Y-74500000D01*
X143297852Y-74790839D01*
X143462599Y-75037401D01*
X143714965Y-75289767D01*
X143714821Y-75454971D01*
X143872058Y-75835515D01*
X144162954Y-76126919D01*
X144543223Y-76284820D01*
X144954971Y-76285179D01*
X145335515Y-76127942D01*
X145626919Y-75837046D01*
X145784820Y-75456777D01*
X145785179Y-75045029D01*
X145627942Y-74664485D01*
X145337046Y-74373081D01*
X144956777Y-74215180D01*
X144789836Y-74215034D01*
X144760000Y-74185198D01*
X144760000Y-70784000D01*
X153588000Y-70784000D01*
X153588013Y-70783997D01*
X153588027Y-70784000D01*
X153738250Y-70754113D01*
X153878839Y-70726148D01*
X153878850Y-70726141D01*
X153878864Y-70726138D01*
X154005930Y-70641228D01*
X154125401Y-70561401D01*
X154125409Y-70561390D01*
X154125420Y-70561382D01*
X159561818Y-65124600D01*
X160328595Y-65124600D01*
X135808604Y-89644093D01*
X135808601Y-89644098D01*
X135808599Y-89644099D01*
X135759671Y-89717324D01*
X135643855Y-89890653D01*
X135643854Y-89890658D01*
X135643852Y-89890661D01*
X135616688Y-90027220D01*
X135586000Y-90181492D01*
X135586001Y-90181496D01*
X135586000Y-90181500D01*
X135586000Y-102132239D01*
X135469081Y-102248954D01*
X135311180Y-102629223D01*
X135310821Y-103040971D01*
X135468058Y-103421515D01*
X135574982Y-103528626D01*
X135527852Y-103599161D01*
X135470000Y-103890000D01*
X135470000Y-105190000D01*
X135527852Y-105480839D01*
X135644222Y-105655000D01*
X133581761Y-105655000D01*
X133465046Y-105538081D01*
X133084777Y-105380180D01*
X132673029Y-105379821D01*
X132292485Y-105537058D01*
X132001081Y-105827954D01*
X131843180Y-106208223D01*
X131842821Y-106619971D01*
X131941667Y-106859198D01*
X131694981Y-107105454D01*
X131537080Y-107485723D01*
X131536721Y-107897471D01*
X128647273Y-107897471D01*
X127266035Y-106516233D01*
X127266179Y-106351029D01*
X127108942Y-105970485D01*
X126818046Y-105679081D01*
X126437777Y-105521180D01*
X126026029Y-105520821D01*
X125645485Y-105678058D01*
X125354081Y-105968954D01*
X125196180Y-106349223D01*
X125195821Y-106760971D01*
X120785304Y-106760971D01*
X120690839Y-106697852D01*
X120400000Y-106640000D01*
X118303761Y-106640000D01*
X118187046Y-106523081D01*
X117806777Y-106365180D01*
X117395029Y-106364821D01*
X117014485Y-106522058D01*
X116723081Y-106812954D01*
X116565180Y-107193223D01*
X116564821Y-107604971D01*
X104089347Y-107604971D01*
X101710000Y-90949543D01*
X101710000Y-80000000D01*
X102290000Y-80000000D01*
X102290000Y-94000000D01*
X102303642Y-94068584D01*
X102303642Y-94138513D01*
X102379762Y-94521196D01*
X102399395Y-94568593D01*
X102485776Y-94777138D01*
X102702549Y-95101561D01*
X102702550Y-95101562D01*
X102898438Y-95297451D01*
X103222862Y-95514223D01*
X103328877Y-95558136D01*
X103478804Y-95620238D01*
X103861486Y-95696358D01*
X104138513Y-95696358D01*
X104521196Y-95620238D01*
X104596160Y-95589187D01*
X104777138Y-95514224D01*
X105101561Y-95297451D01*
X105101562Y-95297450D01*
X105297451Y-95101562D01*
X105514223Y-94777138D01*
X105564419Y-94655954D01*
X105620238Y-94521196D01*
X105696358Y-94138514D01*
X105696358Y-94068584D01*
X105710000Y-94000000D01*
X105710000Y-87454971D01*
X122214821Y-87454971D01*
X122372058Y-87835515D01*
X122662954Y-88126919D01*
X123043223Y-88284820D01*
X123454971Y-88285179D01*
X123835515Y-88127942D01*
X124126919Y-87837046D01*
X124284820Y-87456777D01*
X124284966Y-87289836D01*
X125064802Y-86510000D01*
X135500000Y-86510000D01*
X135790839Y-86452148D01*
X136037401Y-86287401D01*
X141539767Y-80785035D01*
X141704971Y-80785179D01*
X142085515Y-80627942D01*
X142376919Y-80337046D01*
X142534820Y-79956777D01*
X142535179Y-79545029D01*
X142377942Y-79164485D01*
X142087046Y-78873081D01*
X141706777Y-78715180D01*
X141295029Y-78714821D01*
X140914485Y-78872058D01*
X140623081Y-79162954D01*
X140465180Y-79543223D01*
X140465034Y-79710164D01*
X135185198Y-84990000D01*
X124750000Y-84990000D01*
X124459160Y-85047852D01*
X124212599Y-85212599D01*
X123210233Y-86214965D01*
X123045029Y-86214821D01*
X122664485Y-86372058D01*
X122373081Y-86662954D01*
X122215180Y-87043223D01*
X122214821Y-87454971D01*
X105710000Y-87454971D01*
X105710000Y-80000000D01*
X105696358Y-79931416D01*
X105696358Y-79861486D01*
X105620238Y-79478804D01*
X105514223Y-79222863D01*
X105514223Y-79222862D01*
X105297451Y-78898438D01*
X105101562Y-78702550D01*
X105101561Y-78702549D01*
X104777138Y-78485776D01*
X104593368Y-78409657D01*
X104521196Y-78379762D01*
X104138513Y-78303642D01*
X103861486Y-78303642D01*
X103478804Y-78379762D01*
X103406632Y-78409657D01*
X103222862Y-78485777D01*
X102898438Y-78702549D01*
X102739501Y-78861487D01*
X102702549Y-78898439D01*
X102485776Y-79222862D01*
X102435581Y-79344046D01*
X102379762Y-79478804D01*
X102303642Y-79861487D01*
X102303642Y-79931416D01*
X102290000Y-80000000D01*
X101710000Y-80000000D01*
X101710000Y-76056890D01*
X102558524Y-76056890D01*
X102728355Y-76466924D01*
X103118642Y-76895183D01*
X103643108Y-77141486D01*
X103873000Y-77020819D01*
X103873000Y-75827000D01*
X104127000Y-75827000D01*
X104127000Y-77020819D01*
X104356892Y-77141486D01*
X104881358Y-76895183D01*
X105271645Y-76466924D01*
X105441476Y-76056890D01*
X105320155Y-75827000D01*
X104127000Y-75827000D01*
X103873000Y-75827000D01*
X102679845Y-75827000D01*
X102558524Y-76056890D01*
X101710000Y-76056890D01*
X101710000Y-65540000D01*
X102485907Y-65540000D01*
X102598946Y-66108285D01*
X102920853Y-66590054D01*
X103250026Y-66810000D01*
X102920853Y-67029946D01*
X102598946Y-67511715D01*
X102485907Y-68080000D01*
X102598946Y-68648285D01*
X102920853Y-69130054D01*
X103250026Y-69350000D01*
X102920853Y-69569946D01*
X102598946Y-70051715D01*
X102485907Y-70620000D01*
X102598946Y-71188285D01*
X102920853Y-71670054D01*
X103250026Y-71890000D01*
X102920853Y-72109946D01*
X102598946Y-72591715D01*
X102485907Y-73160000D01*
X102598946Y-73728285D01*
X102920853Y-74210054D01*
X103261553Y-74437702D01*
X103118642Y-74504817D01*
X102728355Y-74933076D01*
X102558524Y-75343110D01*
X102679845Y-75573000D01*
X103873000Y-75573000D01*
X103873000Y-75553000D01*
X104127000Y-75553000D01*
X104127000Y-75573000D01*
X105320155Y-75573000D01*
X105441476Y-75343110D01*
X105271645Y-74933076D01*
X105111860Y-74757745D01*
X134671861Y-74757745D01*
X134745995Y-75003864D01*
X135283223Y-75196965D01*
X135853454Y-75169778D01*
X136254005Y-75003864D01*
X136328139Y-74757745D01*
X136671861Y-74757745D01*
X136745995Y-75003864D01*
X137283223Y-75196965D01*
X137853454Y-75169778D01*
X138254005Y-75003864D01*
X138328139Y-74757745D01*
X137500000Y-73929605D01*
X136671861Y-74757745D01*
X136328139Y-74757745D01*
X135500000Y-73929605D01*
X134671861Y-74757745D01*
X105111860Y-74757745D01*
X104881358Y-74504817D01*
X104738447Y-74437702D01*
X105079147Y-74210054D01*
X105401054Y-73728285D01*
X105514093Y-73160000D01*
X105401054Y-72591715D01*
X105079147Y-72109946D01*
X104749974Y-71890000D01*
X105079147Y-71670054D01*
X105401054Y-71188285D01*
X105514093Y-70620000D01*
X105401054Y-70051715D01*
X105079147Y-69569946D01*
X104749974Y-69350000D01*
X105079147Y-69130054D01*
X105401054Y-68648285D01*
X105514093Y-68080000D01*
X105401054Y-67511715D01*
X105079147Y-67029946D01*
X104749974Y-66810000D01*
X105079147Y-66590054D01*
X105401054Y-66108285D01*
X105514093Y-65540000D01*
X105401054Y-64971715D01*
X105079147Y-64489946D01*
X105035223Y-64460597D01*
X105097765Y-64448157D01*
X105307809Y-64307809D01*
X105376523Y-64204971D01*
X112964821Y-64204971D01*
X113122058Y-64585515D01*
X113412954Y-64876919D01*
X113793223Y-65034820D01*
X114204971Y-65035179D01*
X114585515Y-64877942D01*
X114876919Y-64587046D01*
X115034820Y-64206777D01*
X115035179Y-63795029D01*
X114877942Y-63414485D01*
X114587046Y-63123081D01*
X114206777Y-62965180D01*
X113795029Y-62964821D01*
X113414485Y-63122058D01*
X113123081Y-63412954D01*
X112965180Y-63793223D01*
X112964821Y-64204971D01*
X105376523Y-64204971D01*
X105448157Y-64097765D01*
X105497440Y-63850000D01*
X105497440Y-62150000D01*
X105448157Y-61902235D01*
X105307809Y-61692191D01*
X105097765Y-61551843D01*
X104850000Y-61502560D01*
X103150000Y-61502560D01*
X102902235Y-61551843D01*
X102692191Y-61692191D01*
X102551843Y-61902235D01*
X102502560Y-62150000D01*
X102502560Y-63850000D01*
X102551843Y-64097765D01*
X102692191Y-64307809D01*
X102902235Y-64448157D01*
X102964777Y-64460597D01*
X102920853Y-64489946D01*
X102598946Y-64971715D01*
X102485907Y-65540000D01*
X101710000Y-65540000D01*
X101710000Y-62069931D01*
X101973288Y-60746293D01*
X102683454Y-59683454D01*
X103746295Y-58973288D01*
X105138514Y-58696358D01*
X105203123Y-58669596D01*
X105271705Y-58655954D01*
X105329848Y-58617104D01*
X105394455Y-58590343D01*
X105443902Y-58540897D01*
X105502046Y-58502046D01*
X105540896Y-58443903D01*
X105590344Y-58394455D01*
X105617106Y-58329846D01*
X105655954Y-58271705D01*
X105669596Y-58203120D01*
X105696357Y-58138514D01*
X105696357Y-58068586D01*
X105710000Y-58000000D01*
X105710000Y-55710000D01*
X106000000Y-55710000D01*
X106271705Y-55655954D01*
X106502046Y-55502046D01*
X106655954Y-55271705D01*
X106701585Y-55042302D01*
X132590856Y-55042302D01*
X132618638Y-55597368D01*
X132777603Y-55981143D01*
X133019787Y-56050608D01*
X133820395Y-55250000D01*
X133019787Y-54449392D01*
X132777603Y-54518857D01*
X132590856Y-55042302D01*
X106701585Y-55042302D01*
X106710000Y-55000000D01*
X106710000Y-51394971D01*
X112964821Y-51394971D01*
X113122058Y-51775515D01*
X113412954Y-52066919D01*
X113793223Y-52224820D01*
X114204971Y-52225179D01*
X114585515Y-52067942D01*
X114876919Y-51777046D01*
X115034820Y-51396777D01*
X115035017Y-51169971D01*
X156964821Y-51169971D01*
X157122058Y-51550515D01*
X157412954Y-51841919D01*
X157793223Y-51999820D01*
X158204971Y-52000179D01*
X158585515Y-51842942D01*
X158876919Y-51552046D01*
X159034820Y-51171777D01*
X159035179Y-50760029D01*
X158877942Y-50379485D01*
X158587046Y-50088081D01*
X158206777Y-49930180D01*
X157795029Y-49929821D01*
X157414485Y-50087058D01*
X157123081Y-50377954D01*
X156965180Y-50758223D01*
X156964821Y-51169971D01*
X115035017Y-51169971D01*
X115035179Y-50985029D01*
X114877942Y-50604485D01*
X114587046Y-50313081D01*
X114206777Y-50155180D01*
X113795029Y-50154821D01*
X113414485Y-50312058D01*
X113123081Y-50602954D01*
X112965180Y-50983223D01*
X112964821Y-51394971D01*
X106710000Y-51394971D01*
X106710000Y-48710000D01*
X111000000Y-48710000D01*
X111271705Y-48655954D01*
X111502046Y-48502046D01*
X111655954Y-48271705D01*
X111710000Y-48000000D01*
X111710000Y-42000000D01*
X114290000Y-42000000D01*
X114290000Y-48000000D01*
X114344046Y-48271705D01*
X114497954Y-48502046D01*
X114728295Y-48655954D01*
X115000000Y-48710000D01*
X157000000Y-48710000D01*
X157271705Y-48655954D01*
X157502046Y-48502046D01*
X157655954Y-48271705D01*
X157710000Y-48000000D01*
X157710000Y-42000000D01*
X157655954Y-41728295D01*
X157502046Y-41497954D01*
X155502046Y-39497954D01*
X155271705Y-39344046D01*
X155000000Y-39290000D01*
X154000000Y-39290000D01*
X153931416Y-39303642D01*
X153861486Y-39303642D01*
X153478804Y-39379762D01*
X153406632Y-39409657D01*
X153222862Y-39485777D01*
X152898438Y-39702549D01*
X152777118Y-39823870D01*
X152702549Y-39898439D01*
X152485776Y-40222862D01*
X152430749Y-40355711D01*
X152379762Y-40478804D01*
X152303642Y-40861486D01*
X152303642Y-40861487D01*
X152255074Y-41105655D01*
X152195225Y-41195226D01*
X152105655Y-41255074D01*
X151930070Y-41290000D01*
X140381473Y-41290000D01*
X140808668Y-41004558D01*
X141004558Y-40808668D01*
X141438103Y-40159822D01*
X141504303Y-40000000D01*
X141544117Y-39903881D01*
X141696357Y-39138515D01*
X141696357Y-38861485D01*
X141544117Y-38096119D01*
X141484482Y-37952148D01*
X141438103Y-37840178D01*
X141004558Y-37191332D01*
X140808668Y-36995442D01*
X140159821Y-36561897D01*
X140005448Y-36497954D01*
X139903881Y-36455883D01*
X139138514Y-36303642D01*
X139068584Y-36303642D01*
X139000000Y-36290000D01*
X133000000Y-36290000D01*
X132931413Y-36303643D01*
X132861485Y-36303643D01*
X132096119Y-36455883D01*
X131968149Y-36508890D01*
X131840178Y-36561897D01*
X131191332Y-36995442D01*
X130995442Y-37191332D01*
X130561897Y-37840179D01*
X130528437Y-37920959D01*
X130455883Y-38096119D01*
X130303642Y-38861486D01*
X130303643Y-39000000D01*
X130303642Y-39138514D01*
X130455883Y-39903881D01*
X130469853Y-39937606D01*
X130561897Y-40159821D01*
X130995442Y-40808668D01*
X131191332Y-41004558D01*
X131618526Y-41290000D01*
X120069930Y-41290000D01*
X119894345Y-41255074D01*
X119804774Y-41195225D01*
X119744926Y-41105655D01*
X119696358Y-40861487D01*
X119696358Y-40861486D01*
X119620238Y-40478804D01*
X119558136Y-40328877D01*
X119514223Y-40222862D01*
X119297451Y-39898438D01*
X119101562Y-39702550D01*
X119101561Y-39702549D01*
X118777138Y-39485776D01*
X118593368Y-39409657D01*
X118521196Y-39379762D01*
X118138513Y-39303642D01*
X118068584Y-39303642D01*
X118000000Y-39290000D01*
X117000000Y-39290000D01*
X116728295Y-39344046D01*
X116497954Y-39497954D01*
X114497954Y-41497954D01*
X114344046Y-41728295D01*
X114290000Y-42000000D01*
X111710000Y-42000000D01*
X111710000Y-39069930D01*
X111744926Y-38894345D01*
X111804774Y-38804775D01*
X111894345Y-38744926D01*
X112127648Y-38698519D01*
X118116724Y-37700340D01*
X118192381Y-37671733D01*
X118271705Y-37655954D01*
X118320713Y-37623208D01*
X118375847Y-37602361D01*
X118434795Y-37546982D01*
X118502046Y-37502046D01*
X118534793Y-37453037D01*
X118577751Y-37412679D01*
X118611020Y-37338953D01*
X118655954Y-37271705D01*
X118667453Y-37213898D01*
X118691698Y-37160170D01*
X118694221Y-37079324D01*
X118710000Y-37000000D01*
X118710000Y-36069930D01*
X118744926Y-35894345D01*
X118804774Y-35804775D01*
X118894345Y-35744926D01*
X119069930Y-35710000D01*
X129739584Y-35710000D01*
X129739387Y-35935811D01*
G36*
X136693748Y-71735858D02*
X136679605Y-71750000D01*
X136693748Y-71764143D01*
X136514143Y-71943748D01*
X136500000Y-71929605D01*
X136485858Y-71943748D01*
X136306253Y-71764143D01*
X136320395Y-71750000D01*
X136306253Y-71735858D01*
X136485858Y-71556253D01*
X136500000Y-71570395D01*
X136514143Y-71556253D01*
X136693748Y-71735858D01*
X136693748Y-71735858D01*
G37*
X136693748Y-71735858D02*
X136679605Y-71750000D01*
X136693748Y-71764143D01*
X136514143Y-71943748D01*
X136500000Y-71929605D01*
X136485858Y-71943748D01*
X136306253Y-71764143D01*
X136320395Y-71750000D01*
X136306253Y-71735858D01*
X136485858Y-71556253D01*
X136500000Y-71570395D01*
X136514143Y-71556253D01*
X136693748Y-71735858D01*
M02*
