M48
;DRILL file {KiCad 4.0.6-e0-6349~53~ubuntu16.04.1} date Thu Jul 20 21:56:25 2017
;FORMAT={-:-/ absolute / inch / decimal}
FMAT,2
INCH,TZ
T1C0.016
T2C0.020
T3C0.028
T4C0.031
T5C0.039
T6C0.043
T7C0.071
%
G90
G05
M72
T1
X4.2323Y-3.002
X4.2815Y-4.5669
X4.4882Y-2.0154
X4.4882Y-2.5197
X4.4882Y-3.4035
X4.4882Y-3.9079
X4.8524Y-4.1339
X4.9311Y-3.6417
X4.9311Y-4.0059
X4.9803Y-3.1693
X5.0098Y-1.5551
X5.0984Y-3.1594
X5.2314Y-4.1896
X5.2362Y-4.3769
X5.3543Y-5.9646
X5.368Y-4.0487
X5.6102Y-3.002
X5.7422Y-4.5132
X5.8917Y-5.7001
X5.9154Y-1.5256
X6.063Y-2.2441
X6.2008Y-4.1043
X6.2205Y-2.0065
X6.2205Y-2.5108
X6.2205Y-3.3947
X6.2205Y-3.899
T2
X5.2756Y-2.1752
X5.4724Y-2.1752
T3
X5.4528Y-2.8248
T4
X5.3346Y-2.9035
X5.4134Y-2.9035
T5
X4.0945Y-2.4803
X4.0945Y-2.5803
X4.0945Y-2.6803
X4.0945Y-2.7803
X4.0945Y-2.8803
X4.0945Y-2.9803
X6.6142Y-2.4803
X6.6142Y-2.5803
X6.6142Y-2.6803
X6.6142Y-2.7803
X6.6142Y-2.8803
T6
X5.2953Y-2.8248
X5.374Y-2.8248
T7
X5.374Y-2.1752
T0
M30
