M48
;DRILL file {KiCad (2017-07-14 revision d3b382c28)-master} date Thu Jul 20 02:24:46 2017
;FORMAT={-:-/ absolute / inch / decimal}
FMAT,2
INCH,TZ
T1C0.016
T2C0.020
T3C0.028
T4C0.031
T5C0.039
T6C0.043
T7C0.071
%
G90
G05
M72
T1
X5.2314Y-4.1896
X5.2362Y-4.3769
X5.368Y-4.0487
X5.7422Y-4.5132
X5.8917Y-5.7001
T2
X5.2756Y-2.1752
X5.4724Y-2.1752
T3
X5.4528Y-2.8248
T4
X5.3346Y-2.9035
X5.4134Y-2.9035
T5
X6.6142Y-2.4803
X6.6142Y-2.5803
X6.6142Y-2.6803
X6.6142Y-2.7803
X6.6142Y-2.8803
X4.0945Y-2.4803
X4.0945Y-2.5803
X4.0945Y-2.6803
X4.0945Y-2.7803
X4.0945Y-2.8803
X4.0945Y-2.9803
T6
X5.2953Y-2.8248
X5.374Y-2.8248
T7
X5.374Y-2.1752
T0
M30
