M48
;DRILL file {KiCad 4.0.6-e0-6349~53~ubuntu16.04.1} date Fri Jul 21 01:06:50 2017
;FORMAT={-:-/ absolute / inch / decimal}
FMAT,2
INCH,TZ
T1C0.016
T2C0.020
T3C0.028
T4C0.031
T5C0.039
T6C0.043
T7C0.071
%
G90
G05
M72
T1
X4.2323Y-3.002
X4.4748Y-4.1614
X4.4882Y-2.0154
X4.4882Y-2.5197
X4.4882Y-3.4035
X4.4882Y-3.9079
X4.572Y-2.2543
X4.6299Y-4.2283
X4.7559Y-4.1181
X4.7874Y-4.2756
X4.8524Y-3.435
X4.8524Y-4.1339
X4.9311Y-4.0059
X4.9329Y-3.6486
X4.9697Y-4.1951
X4.9803Y-3.1693
X5.0098Y-1.5551
X5.0984Y-1.4665
X5.1334Y-4.3203
X5.1486Y-1.4124
X5.2194Y-4.2399
X5.2314Y-4.1896
X5.2322Y-4.9152
X5.3543Y-5.9646
X5.368Y-4.0487
X5.5709Y-3.1398
X5.6102Y-3.002
X5.6988Y-2.9626
X5.7701Y-4.4847
X5.8815Y-4.5027
X5.9154Y-1.5256
X5.9275Y-4.9614
X5.9488Y-2.8425
X5.9512Y-2.6575
X6.063Y-2.2441
X6.0827Y-4.2815
X6.1909Y-4.0945
X6.2205Y-2.0065
X6.2205Y-2.5108
X6.2205Y-3.3947
X6.2205Y-3.899
X6.378Y-2.5394
T2
X5.2756Y-2.1752
X5.4724Y-2.1752
T3
X5.4528Y-2.8248
T4
X5.3346Y-2.9035
X5.4134Y-2.9035
T5
X4.0945Y-2.4803
X4.0945Y-2.5803
X4.0945Y-2.6803
X4.0945Y-2.7803
X4.0945Y-2.8803
X4.0945Y-2.9803
X6.6142Y-2.4803
X6.6142Y-2.5803
X6.6142Y-2.6803
X6.6142Y-2.7803
X6.6142Y-2.8803
T6
X5.2953Y-2.8248
X5.374Y-2.8248
T7
X5.374Y-2.1752
T0
M30
